<svg xmlns="http://www.w3.org/2000/svg" viewBox="0 0 139.22 146.79"><defs><style>.cls-1{fill:#f16a24;}.cls-2{fill:#fff;}</style></defs><title>Asset 4</title><g id="Layer_2" data-name="Layer 2"><g id="Layer_1-2" data-name="Layer 1"><ellipse class="cls-1" cx="69.61" cy="73.39" rx="69.61" ry="73.39"/><path class="cls-2" d="M52.06,113.07a5.53,5.53,0,0,0,2.65-4.73V70.6H107s3.41-.28,3.22,4v35.85s-.29,2.84-4.74,2.65Z"/><rect class="cls-1" x="70.22" y="79.77" width="6.62" height="6.62" rx="2.96" ry="2.96"/><rect class="cls-1" x="81.15" y="79.77" width="6.62" height="6.62" rx="2.96" ry="2.96"/><rect class="cls-1" x="91.41" y="79.77" width="6.62" height="6.62" rx="2.96" ry="2.96"/><rect class="cls-1" x="70.22" y="88.53" width="6.62" height="6.62" rx="2.96" ry="2.96"/><rect class="cls-1" x="81.15" y="88.53" width="6.62" height="6.62" rx="2.96" ry="2.96"/><rect class="cls-1" x="91.41" y="88.53" width="6.62" height="6.62" rx="2.96" ry="2.96"/><rect class="cls-1" x="70.22" y="97.89" width="6.62" height="6.62" rx="2.96" ry="2.96"/><rect class="cls-1" x="81.15" y="97.89" width="6.62" height="6.62" rx="2.96" ry="2.96"/><rect class="cls-1" x="91.41" y="97.89" width="6.62" height="6.62" rx="2.96" ry="2.96"/><path class="cls-2" d="M31.15,110.14a12.31,12.31,0,0,0,15.23,0,10.5,10.5,0,0,0,2-3v-46s-1.51-5.77-9.84-5.68S29,60.1,29,60.1v46.82A6.46,6.46,0,0,0,31.15,110.14Z"/><polygon class="cls-2" points="87.25 35.98 87.25 49.03 100.39 49.03 87.25 35.98"/><path class="cls-2" d="M45.82,50.26S57,54.14,54.52,64.07h48.15V56.32L82.8,56.5s-2,.19-2.74-3.22l-.19-19.58H45.82Z"/></g></g></svg>