<svg xmlns="http://www.w3.org/2000/svg" viewBox="0 0 114.21 114.21"><defs><style>.cls-1{fill:#69c7c8;}.cls-2{fill:#fff;fill-rule:evenodd;}</style></defs><title>Asset 3</title><g id="Layer_2" data-name="Layer 2"><g id="OBJECTS"><g id="_Group_" data-name="&lt;Group&gt;"><circle id="_Path_" data-name="&lt;Path&gt;" class="cls-1" cx="57.11" cy="57.11" r="57.11"/><g id="_Group_2" data-name="&lt;Group&gt;"><path id="_Compound_Path_" data-name="&lt;Compound Path&gt;" class="cls-2" d="M41.51,80.63V42.87H29V80.63ZM35.24,37.71c4.37,0,7.1-2.9,7.1-6.53s-2.72-6.52-7-6.52-7.1,2.82-7.1,6.52,2.72,6.53,6.93,6.53Z"/><path id="_Path_2" data-name="&lt;Path&gt;" class="cls-2" d="M48.45,80.63H61V59.54a8.55,8.55,0,0,1,.41-3.06,6.87,6.87,0,0,1,6.44-4.59c4.54,0,6.36,3.46,6.36,8.54v20.2H86.76V59c0-11.6-6.19-17-14.45-17a12.51,12.51,0,0,0-11.39,6.36H61V42.87H48.45c.17,3.54,0,37.76,0,37.76Z"/></g></g></g></g></svg>