<svg xmlns="http://www.w3.org/2000/svg" viewBox="0 0 139.22 146.79"><defs><style>.cls-1{fill:#f16a24;}.cls-2{fill:#fff;}</style></defs><title>Asset 1</title><g id="Layer_2" data-name="Layer 2"><g id="Layer_1-2" data-name="Layer 1"><ellipse class="cls-1" cx="69.61" cy="73.39" rx="69.61" ry="73.39"/><path class="cls-2" d="M53.28,64.76s6.46,23.4,28.4,27.46c0,0-.06.75,3.88-3.69,0,0,4.31-3.44,8.56-2.19l11.06,3.06s4.1,1.77,5.77,5,2.67,6.58-.5,11.17l-5.08,5.08s-2.17,3.25-8.75,2.5c0,0-17.08.5-36.17-12.58,0,0-9.42-5.75-18.08-19.58A76.92,76.92,0,0,1,33.7,58.18s-1.58-9-.92-12.75c0,0,.92-4.25,2.75-5l6-5.67s3.25-2.83,10.17,0c0,0,4.25,3.25,4.67,5.42l3.08,11.25s1.25,4.67-1.33,8L55,62.51S53,63.83,53.28,64.76Z"/></g></g></svg>