<svg xmlns="http://www.w3.org/2000/svg" viewBox="0 0 233.57 233.57"><defs><style>.cls-1{fill:#f16a21;}</style></defs><title>Asset 2</title><g id="Layer_2" data-name="Layer 2"><g id="Layer_1-2" data-name="Layer 1"><polygon class="cls-1" points="68.59 123.28 109.17 143.52 116.68 123.28 75.98 103.69 68.59 123.28"/><polygon class="cls-1" points="124.38 143.52 166.36 122.85 158 103.69 117.42 122.85 124.38 143.52"/><polygon class="cls-1" points="116.39 83.09 103.18 66.1 62.34 87.37 75.98 103.69 116.39 83.09"/><polygon class="cls-1" points="117.42 82.91 158 103.69 171.23 87.84 130.95 66.1 117.42 82.91"/><polygon class="cls-1" points="117.42 130.99 117.42 167.47 160.36 147.63 160.36 128.42 159.5 128.42 123.67 146.56 117.42 130.99"/><polygon class="cls-1" points="116.17 131.06 116.17 167.47 73.41 147.63 73.41 127.71 110.1 146.41 116.17 131.06"/><path class="cls-1" d="M233.57,127.11V106.46l-19.42-3.63a97.85,97.85,0,0,0-18.65-45l11.17-16.3-14.6-14.6-16.3,11.17a97.85,97.85,0,0,0-45-18.65L127.11,0H106.46l-3.63,19.42a97.85,97.85,0,0,0-45,18.65L41.51,26.91l-14.6,14.6L38.07,57.8a97.85,97.85,0,0,0-18.65,45L0,106.46v20.65l19.42,3.63a97.85,97.85,0,0,0,18.65,45l-11.17,16.3,14.6,14.6L57.8,195.5a97.85,97.85,0,0,0,45,18.65l3.63,19.42h20.65l3.63-19.42a97.85,97.85,0,0,0,45-18.65l16.3,11.17,14.6-14.6-11.17-16.3a97.85,97.85,0,0,0,18.65-45ZM116.79,191.23a74.45,74.45,0,1,1,74.45-74.45A74.45,74.45,0,0,1,116.79,191.23Z"/></g></g></svg>