<svg xmlns="http://www.w3.org/2000/svg" viewBox="0 0 237.37 237.37"><defs><style>.cls-1,.cls-2,.cls-3,.cls-4{fill:#f16a21;}.cls-2{opacity:0.69;}.cls-3{opacity:0.92;}.cls-4{opacity:0.38;}</style></defs><title>Asset 1</title><g id="Layer_2" data-name="Layer 2"><g id="Layer_1-2" data-name="Layer 1"><path class="cls-1" d="M13.4,173.51c-.8-1.62-2.23-4.54-3.51-7.34Q11.52,169.91,13.4,173.51Z"/><path class="cls-1" d="M7.49,160.4c.45,1.38,1.38,3.54,2.4,5.76q-1.26-2.88-2.37-5.84Z"/><path class="cls-1" d="M14,174.8l0,0-.66-1.25Z"/><path class="cls-1" d="M46,158.26c-.11-.15-.22-.31-.34-.49l.25.47Z"/><path class="cls-1" d="M171.64,182.36c.48-.09,1.93-1.45,3.68-3.26A82.83,82.83,0,0,1,45.9,158.23l-22.5-6.77-9.34,23.29a118.7,118.7,0,0,0,180.56,35.13l-21.45-1.31Z"/><path class="cls-1" d="M203.71,201.47c-3.49,3.37-8.13,7.56-8.95,8.3A119.38,119.38,0,0,0,203.71,201.47Z"/><path class="cls-1" d="M194.63,209.88l.13-.12-.14.12Z"/><path class="cls-1" d="M184.29,169.22c-.53.61-5.39,6.18-9,9.88A83.29,83.29,0,0,0,184.29,169.22Z"/><path class="cls-1" d="M203.71,201.47a27.57,27.57,0,0,0,4-4.25h0Q205.73,199.39,203.71,201.47Z"/><path class="cls-1" d="M181.84,39.33,178,15.85A118.73,118.73,0,0,0,7.52,160.33L17,136.74l22.83,7.75s3.46,9.68,5.8,13.28A82.83,82.83,0,0,1,165.25,50.19c-3.08-2.22-6.41-4.42-7.9-4.77Z"/><path class="cls-1" d="M193.18,26.3l3.56,22.92L171.8,55.14l-.11-.09a82.81,82.81,0,0,1,12.6,114.16l.05-.06,1.2,27,22.11,1.08A118.66,118.66,0,0,0,193.18,26.3Z"/><path class="cls-1" d="M193.18,26.29C191.29,23.5,178,15.85,178,15.85h0A118.93,118.93,0,0,1,193.18,26.3Z"/><path class="cls-1" d="M171.69,55.06q-3.1-2.58-6.44-4.86C168.31,52.39,171.12,54.61,171.69,55.06Z"/><path class="cls-1" d="M61.54,132.42s-2,3.52.36,5.66c0,0,3.1,2.56,5.9,0l40.6-40.52s.4-.67,1,0l7.51,7.51s3,2.68,5.32.49l24.32-24.27a.68.68,0,0,1,1,0L151,85l14.44-28.46L136.7,70.79l3.76,3.58s.78.58.13,1.14l-19.8,19.78s-.49,1.25-1.61,0l-7.52-7.69a4,4,0,0,0-5-.13Z"/><rect class="cls-2" x="108.8" y="121.93" width="31.47" height="22.17" rx="2.38" ry="2.38"/><path class="cls-3" d="M146.22,90.45h26.72a2.38,2.38,0,0,1,2.38,2.38v48.89a2.38,2.38,0,0,1-2.37,2.38H146.22a2.37,2.37,0,0,1-2.37-2.37V92.83A2.38,2.38,0,0,1,146.22,90.45Z"/><rect class="cls-4" x="74.47" y="144.81" width="31.47" height="22.17" rx="2.38" ry="2.38"/></g></g></svg>