<svg xmlns="http://www.w3.org/2000/svg" viewBox="0 0 241.99 241.99"><defs><style>.cls-1{fill:#f16a21;}</style></defs><title>Asset 5</title><g id="Layer_2" data-name="Layer 2"><g id="Layer_1-2" data-name="Layer 1"><polygon class="cls-1" points="94.33 128.93 99.82 123.43 105.32 128.93 108.9 125.35 103.41 119.85 108.9 114.35 105.32 110.77 99.82 116.27 94.33 110.77 90.74 114.35 96.24 119.85 90.74 125.35 94.33 128.93"/><path class="cls-1" d="M132.45,149.12a11.79,11.79,0,1,0,11.79-11.79A11.79,11.79,0,0,0,132.45,149.12Zm18.21,0a6.42,6.42,0,1,1-6.42-6.42A6.42,6.42,0,0,1,150.66,149.12Z"/><path class="cls-1" d="M92.6,151.61l.71,5.47s18.87-2.17,29.78-15.48c0,0,8.78-7.48,12.15-26.21h9L133.16,96.59l-10.46,18.79,7.13,0S126.83,146,92.6,151.61Z"/><path class="cls-1" d="M183.11,64.07H52.79V89.68h6.85v86.46H108.7l-13.3,13.3a4.48,4.48,0,0,0,0,6.32L96.7,197a4.48,4.48,0,0,0,6.32,0l18.43-18.43,18,18a4.48,4.48,0,0,0,6.32,0l1.29-1.29a4.48,4.48,0,0,0,0-6.32l-12.87-12.87h48.92V89.68h6.09V64.07ZM172.46,165.24H70.54v-75H172.46Zm6.09-80.63H63.95V74.47h114.6Z"/><path class="cls-1" d="M121,0A121,121,0,1,0,242,121,121,121,0,0,0,121,0Zm0,217.63A96.64,96.64,0,1,1,217.63,121,96.64,96.64,0,0,1,121,217.63Z"/></g></g></svg>