<svg xmlns="http://www.w3.org/2000/svg" viewBox="0 0 201.79 201.79"><defs><style>.cls-1{fill:#f16a21;}.cls-2{fill:none;}.cls-3{fill:#fff;}</style></defs><title>Asset 24</title><g id="Layer_2" data-name="Layer 2"><g id="Layer_1-2" data-name="Layer 1"><path class="cls-1" d="M99.56,68.28a31.31,31.31,0,1,0,31.31,31.31A31.31,31.31,0,0,0,99.56,68.28Zm0,8.14a9.51,9.51,0,1,1-9.51,9.51A9.51,9.51,0,0,1,99.59,76.41ZM81.82,120.53l0-12.87s-1.3-9.13,9.89-9.35h14.79s10.87-.33,10.76,8.15v14.07Z"/><polygon class="cls-1" points="110.65 52.93 99.67 34.61 88.53 52.93 96.49 52.93 96.49 66.14 102.85 66.14 102.85 52.93 110.65 52.93"/><polygon class="cls-1" points="70.84 61.46 49.86 57.45 56.1 77.96 61.41 72.02 71.26 80.82 75.5 76.08 65.64 67.28 70.84 61.46"/><polygon class="cls-1" points="142.12 77.95 149.02 57.74 127.83 61.06 132.98 67.14 122.89 75.68 127 80.53 137.09 72 142.12 77.95"/><polygon class="cls-1" points="52.48 97.32 35.32 110.04 54.64 119.34 53.86 111.41 67.01 110.12 66.39 103.79 53.24 105.08 52.48 97.32"/><polygon class="cls-1" points="64.79 132.69 64.4 154.05 83.56 144.42 76.8 140.2 83.8 128.99 78.41 125.62 71.41 136.83 64.79 132.69"/><polygon class="cls-1" points="114.56 145.09 133.27 155.39 133.69 133.95 126.8 137.96 120.16 126.55 114.66 129.75 121.31 141.16 114.56 145.09"/><polygon class="cls-1" points="144.14 119.32 163.56 110.43 146.57 97.33 145.7 105.25 132.57 103.79 131.87 110.11 145 111.57 144.14 119.32"/><circle class="cls-2" cx="99.59" cy="99.59" r="94.59"/><path class="cls-3" d="M100.89,0A100.89,100.89,0,1,0,201.79,100.89,100.89,100.89,0,0,0,100.89,0Zm0,166.78a65.89,65.89,0,1,1,65.89-65.89A65.89,65.89,0,0,1,100.88,166.78Z"/><path class="cls-1" d="M118.94,27.28V2.44H80.44V27.28H97.37v4.79h-11V34H112V32.08H101.29V27.28ZM82.84,4.91h33.85V24.38H82.84Z"/><path class="cls-1" d="M49.8,38.78c-12.14.47-14.32-5.6-14.32-5.6-3.42,5.76-14.94,5.6-14.94,5.6C20.44,61.14,35.8,61.11,35.8,61.11,51.52,59.09,49.8,38.78,49.8,38.78ZM32,52.42l1.66-4A3.44,3.44,0,1,1,37,48.32l1.86,4.11Z"/><path class="cls-1" d="M.41,102.23v22H33.49v-22Zm19.42,21.38H14.16v-1.38h5.68Zm11.5-2H2.75V104.81H31.34Z"/><path class="cls-1" d="M46.49,155.13v31.41H63.58V155.13ZM58.43,184.9H52.21v-2.13h6.22Zm4-3.52H48V157.82H62.44Z"/><path class="cls-1" d="M141,157.27A15.74,15.74,0,1,0,156.78,173,15.74,15.74,0,0,0,141,157.27Zm-2.63,23.38-6.3-1.7v-4.76h6.3Zm0-7.64h-6.3v-5.92l6.3-2.26Zm11.87,10.06-10.33-2.42v-6.46h10.33Zm0-10.06H139.94v-7.93l10.33-2.83Z"/><path class="cls-1" d="M188.18,92.73H173.32a3.41,3.41,0,0,0-3.4,3.4v31.38a3.41,3.41,0,0,0,3.4,3.4h14.87a3.41,3.41,0,0,0,3.4-3.4V96.12A3.41,3.41,0,0,0,188.18,92.73Zm.95,30.46a3.41,3.41,0,0,1-3.4,3.4h-10a3.41,3.41,0,0,1-3.4-3.4V98.08a3.41,3.41,0,0,1,3.4-3.4h10a3.41,3.41,0,0,1,3.4,3.4Z"/><path class="cls-1" d="M183.93,96.22h-6.36a4.06,4.06,0,0,0-3.91,4.17v20.42a4.06,4.06,0,0,0,3.91,4.17h6.36a4.06,4.06,0,0,0,3.91-4.17V100.39A4.06,4.06,0,0,0,183.93,96.22Zm-6.29,26.6h-1.78v-1.56h1.78Zm0-2.26h-1.78V119h1.78Zm0-2.91h-1.78v-1.56h1.78Zm4,5.17h-1.78v-1.56h1.78Zm.12-2.26H180V119h1.78Zm0-2.81H180v-1.56h1.78Zm4.11,5.08h-1.78v-1.56h1.78Zm0-2.26h-1.78V119h1.78Zm0-2.81h-1.78v-1.56h1.78Zm0-4.25h-10V98.44h10Z"/><path class="cls-1" d="M168.89,45.92,164,35.07h-4.5l-4.75,10.85H151.3v2.54h2.35l-1.37,3.13h2.25L156,48.46h12.09l1.41,3.13h2L170,48.46h3.26V45.92Zm-11.72,0,4-8.6H163l3.89,8.6Z"/><path class="cls-1" d="M162.3,30.55A14.72,14.72,0,1,0,177,45.27,14.72,14.72,0,0,0,162.3,30.55Zm0,27.77a13.05,13.05,0,1,1,13.05-13.05A13.05,13.05,0,0,1,162.3,58.32Z"/></g></g></svg>