<svg xmlns="http://www.w3.org/2000/svg" viewBox="0 0 512 512"><defs><style>.cls-1{fill:#ea875c;}.cls-2{fill:#f16a21;}.cls-3{fill:#fff;}.cls-4{fill:#e25a1e;}</style></defs><title>Asset 25</title><g id="Layer_2" data-name="Layer 2"><g id="Layer_1-2" data-name="Layer 1"><polygon class="cls-1" points="159.67 435.19 180.67 372.19 282.33 369.52 289 475.52 150.33 464.19 159.67 435.19"/><rect class="cls-2" width="481.67" height="393.4" rx="45.93" ry="45.93"/><rect class="cls-3" x="30" y="30.19" width="423.25" height="270.61"/><rect class="cls-2" x="61.5" y="59.85" width="330.67" height="29.33" rx="14.67" ry="14.67"/><rect class="cls-2" x="272.33" y="121.52" width="119.83" height="29.33" rx="14.67" ry="14.67"/><rect class="cls-2" x="61.5" y="121.52" width="179.33" height="150.17" rx="12" ry="12"/><rect class="cls-2" x="90.5" y="451.85" width="241.65" height="30.83" rx="15.42" ry="15.42"/><rect class="cls-4" x="272.33" y="183.19" width="239.67" height="328.81" rx="44" ry="44"/><rect class="cls-3" x="303" y="238.13" width="178.67" height="213.72"/><path class="cls-2" d="M449.92,309.44l-4.13-4.13a11.46,11.46,0,0,0-16.17,0l-52.25,52.25L355.78,336a11.46,11.46,0,0,0-16.17,0l-4.13,4.13a11.46,11.46,0,0,0,0,16.17L367,387.74h0l2.33,2.33a11.46,11.46,0,0,0,16.17,0l64.47-64.47A11.47,11.47,0,0,0,449.92,309.44Z"/></g></g></svg>