<svg xmlns="http://www.w3.org/2000/svg" viewBox="0 0 246.8 246.8"><title>Asset 114</title><g id="Layer_2" data-name="Layer 2"><g id="Layer_1-2" data-name="Layer 1"><circle cx="123.4" cy="123.4" r="123.4" style="fill:#203864"/><path d="M129.41,117.23l84.27,49.12a101.28,101.28,0,0,0-84.27-144Z" style="fill:#5b9bd5"/><path d="M111.41,117.18V22.57a101.29,101.29,0,0,0-82,141.93Z" style="fill:#5b9bd5"/><path d="M120.37,132.79,38.2,180.23a101.27,101.27,0,0,0,166.4,1.66Z" style="fill:#5b9bd5"/><circle cx="121.4" cy="122.4" r="42.1" style="fill:#f16a21;stroke:#203864;stroke-miterlimit:10;stroke-width:7px"/><polygon points="111.41 29.52 101.53 40.83 101.13 18.58 111.41 29.52" style="fill:#299507"/><path d="M103.42,34.82V23.74a101.27,101.27,0,0,0-74,140.75l10.2-5.89A89.4,89.4,0,0,1,103.42,34.82Z" style="fill:#299507"/><polygon points="206.72 162.31 202.2 148 221.41 159.22 206.72 162.31" style="fill:#299507"/><path d="M205.6,152.37l11.18,6.53A101.2,101.2,0,0,0,129.4,22.32V33.37a89.33,89.33,0,0,1,76.2,119Z" style="fill:#299507"/><polygon points="44.24 176.78 59.02 179.46 40.13 191.22 44.24 176.78" style="fill:#299507"/><path d="M193.41,175.37a89.32,89.32,0,0,1-140.18,4.8l-9.66,7.18a101.2,101.2,0,0,0,161-5.47Z" style="fill:#299507"/><text transform="translate(100.49 135.75)" style="font-size:8px;fill:#09234c;font-family:Raleway-Bold, Raleway;font-weight:700">I<tspan x="2.29" y="0" style="letter-spacing:-0.02801513671875em">T</tspan><tspan x="7.02" y="0" xml:space="preserve"> SE</tspan><tspan x="18.65" y="0" style="letter-spacing:-0.0169677734375em">R</tspan><tspan x="23.83" y="0">VICE</tspan><tspan x="-7.46" y="9.6">MAN</tspan><tspan x="10.94" y="9.6" style="letter-spacing:-0.0260009765625em">A</tspan><tspan x="16.11" y="9.6">GEMEN</tspan><tspan x="44.55" y="9.6" style="letter-spacing:-0.0279541015625em">T</tspan></text><path d="M61.26,112.1l1,.18a49.59,49.59,0,0,0-.7,5l-5.65-.56c.21-2.15.36-3.22.75-5.33l1,.17c-.27,1.49-.39,2.24-.57,3.75l1.36.17c.16-1.28.25-1.91.47-3.17l.88.15c-.22,1.24-.31,1.87-.46,3.13l1.47.18C60.88,114.26,61,113.53,61.26,112.1Z" style="fill:#fff"/><path d="M59.16,109l3.55.81c-.12.54-.18.82-.29,1.36l-5.57-1.13c.09-.46.14-.7.25-1.16A48.41,48.41,0,0,1,61.69,106l-3.57-1c.17-.58.26-.87.44-1.45L64,105.2c-.14.43-.2.64-.33,1.08A47,47,0,0,0,59.16,109Z" style="fill:#fff"/><path d="M64.43,103.79,59.06,102c.37-1.07.56-1.6,1-2.66a5.17,5.17,0,0,1,.84-1.46,3.42,3.42,0,0,1,1-.85A2.39,2.39,0,0,1,63,96.7a2.6,2.6,0,0,1,1.1.25,2.69,2.69,0,0,1,1,.72,2.6,2.6,0,0,1,.52,1,3.58,3.58,0,0,1,.09,1.25,5.24,5.24,0,0,1-.36,1.42C64.94,102.33,64.77,102.81,64.43,103.79Zm-.92-5.51a1.86,1.86,0,0,0-.75-.16,1.6,1.6,0,0,0-.72.17,2,2,0,0,0-.63.51,3,3,0,0,0-.48.85c-.19.48-.28.73-.46,1.21L64,102.15c.17-.46.26-.69.43-1.14a2.86,2.86,0,0,0,.21-.91,2,2,0,0,0-.11-.78,1.74,1.74,0,0,0-.38-.62A1.91,1.91,0,0,0,63.51,98.28Z" style="fill:#fff"/><path d="M67.15,97.16,62,94.7c.57-1.19.87-1.77,1.51-2.93a2.77,2.77,0,0,1,.62-.78,2.52,2.52,0,0,1,.76-.46,2,2,0,0,1,.78-.13,1.42,1.42,0,0,1,.68.19,1.58,1.58,0,0,1,.52.5,2,2,0,0,1,.28.71,2.41,2.41,0,0,1,0,.84,2.7,2.7,0,0,1-.31.89c-.33.61-.49.91-.81,1.53l1.7.87C67.51,96.42,67.39,96.67,67.15,97.16Zm-1.94-2.54c.31-.6.46-.89.78-1.48a1,1,0,0,0,.1-.7.87.87,0,0,0-.45-.56.86.86,0,0,0-.38-.12.91.91,0,0,0-.36.05.92.92,0,0,0-.32.2,1.23,1.23,0,0,0-.24.31c-.32.58-.47.88-.78,1.47Z" style="fill:#fff"/><path d="M71.84,89.19a4.19,4.19,0,0,1-1,1,3.8,3.8,0,0,1-1.14.57,3.06,3.06,0,0,1-1.17.12,2.39,2.39,0,0,1-1-.33,2.23,2.23,0,0,1-.78-.81,2.91,2.91,0,0,1-.37-1.15,3.74,3.74,0,0,1,.12-1.35,4.41,4.41,0,0,1,.65-1.39,4.2,4.2,0,0,1,1.09-1.11,3.69,3.69,0,0,1,1.23-.55,2.89,2.89,0,0,1,1.19,0,2.27,2.27,0,0,1,1,.44,2.34,2.34,0,0,1,.69.88,3.1,3.1,0,0,1,.28,1.14,3.84,3.84,0,0,1-.15,1.27A4.28,4.28,0,0,1,71.84,89.19Zm-3.56.16a1.82,1.82,0,0,0,.68.26,1.87,1.87,0,0,0,.74,0,2.1,2.1,0,0,0,.72-.32,2.66,2.66,0,0,0,1-1.48,2.1,2.1,0,0,0,0-.79,1.88,1.88,0,0,0-.25-.69,1.81,1.81,0,0,0-.47-.53,1.72,1.72,0,0,0-.66-.3,1.82,1.82,0,0,0-.75,0,2,2,0,0,0-.75.32,2.75,2.75,0,0,0-1.07,1.56,2,2,0,0,0,0,.82,1.78,1.78,0,0,0,.28.68A1.76,1.76,0,0,0,68.27,89.35Z" style="fill:#fff"/><path d="M74.52,85.54,70.1,82c.38-.47.57-.7,1-1.17l4.33,3.67C75,84.9,74.87,85.11,74.52,85.54Z" style="fill:#fff"/><path d="M74.65,79.85l2.66,2.49-.93,1-4.24-3.78.79-.87a50.36,50.36,0,0,1,5.43-.21L75.8,75.8l1.12-1L80.73,79l-.83.77A48.91,48.91,0,0,0,74.65,79.85Z" style="fill:#fff"/><path d="M83.33,70.8c-.81.58-1.21.88-2,1.49L84.23,76l-1.09.87-3-3.65c-.77.63-1.15,1-1.89,1.61l-.64-.73A54.3,54.3,0,0,1,82.77,70Z" style="fill:#fff"/><path d="M70.84,121.76l-3.76-.1c1.1.71,1.66,1,2.78,1.69,0,.27,0,.4,0,.66-1.11.67-1.66,1-2.74,1.76l3.75-.19c0,.48,0,.72.07,1.2l-5.66.42c0-.58-.06-.86-.09-1.44,1.25-.88,1.89-1.29,3.17-2.07-1.3-.76-1.95-1.16-3.22-2,0-.57,0-.85.05-1.41l5.67.29C70.86,121,70.85,121.28,70.84,121.76Z" style="fill:#fff"/><path d="M65.48,116.95c.05-.46.08-.69.14-1.15a59.75,59.75,0,0,1,6-1.53c-.09.48-.12.71-.2,1.19l-1.48.36c-.12.86-.18,1.29-.26,2.16l1.36.7c0,.48-.06.73-.09,1.22A61.69,61.69,0,0,1,65.48,116.95Zm3.64-1c-.93.22-1.4.34-2.33.6.84.48,1.26.72,2.11,1.17C69,117,69,116.63,69.12,115.93Z" style="fill:#fff"/><path d="M68.4,111.7l3.56.77c-.1.46-.15.69-.23,1.15l-5.58-1.07c.08-.4.12-.6.2-1a42.3,42.3,0,0,1,4.42-2.39l-3.58-1c.14-.5.21-.75.36-1.24L73,108.57c-.11.36-.16.54-.27.91A41.05,41.05,0,0,0,68.4,111.7Z" style="fill:#fff"/><path d="M68.58,103.81c.16-.43.24-.64.41-1.07a61.1,61.1,0,0,1,6.16,0c-.19.44-.29.65-.47,1.1l-1.52,0c-.32.79-.47,1.2-.76,2l1.15,1c-.16.45-.23.68-.38,1.14A61.53,61.53,0,0,1,68.58,103.81Zm3.77-.1c-1,0-1.44,0-2.4,0,.7.67,1.06,1,1.77,1.63C72,104.69,72.1,104.37,72.36,103.71Z" style="fill:#fff"/><path d="M76.64,98.33a2.46,2.46,0,0,1-.19,1.79,2.91,2.91,0,0,1-.7.89,3,3,0,0,1-.95.55,3.1,3.1,0,0,1-1.1.18,2.9,2.9,0,0,1-1.14-.26,2.55,2.55,0,0,1-.91-.67,2.73,2.73,0,0,1-.54-1A3.09,3.09,0,0,1,71,98.64a3.61,3.61,0,0,1,1.42-2.49,2.24,2.24,0,0,1,1.27-.42c0,.45,0,.67.07,1.11a1.58,1.58,0,0,0-.9.29,2,2,0,0,0-.65.75,1.79,1.79,0,0,0-.21.74,1.68,1.68,0,0,0,.11.71,1.84,1.84,0,0,0,.39.6,2,2,0,0,0,.6.43,2,2,0,0,0,.74.2,1.93,1.93,0,0,0,.71-.08,1.83,1.83,0,0,0,.62-.33,1.78,1.78,0,0,0,.46-.57,2.22,2.22,0,0,0,.08-1.78l-.35-.2c-.24.44-.36.66-.6,1.1L74,98.33c.43-.81.65-1.21,1.11-2l2.52,1.47-.47.83Z" style="fill:#fff"/><path d="M79.71,93l.78.57c-1,1.34-1.44,2-2.3,3.44l-4.85-3c.94-1.54,1.45-2.29,2.51-3.76l.78.57c-.75,1-1.11,1.55-1.8,2.62l1.15.74c.58-.9.88-1.34,1.5-2.21l.73.52c-.61.86-.91,1.29-1.48,2.18l1.24.8C78.64,94.44,79,93.93,79.71,93Z" style="fill:#fff"/><path d="M84.16,89.07,81.4,86.51c.37,1.25.57,1.86,1,3.07l-.42.49c-1.26-.25-1.9-.35-3.19-.53l2.94,2.34L81,92.8l-4.52-3.44c.33-.44.51-.66.85-1.09,1.5.19,2.24.31,3.71.59-.49-1.41-.72-2.13-1.13-3.59l.95-1,4.08,4Z" style="fill:#fff"/><path d="M88.33,83.79l.62.75a41.64,41.64,0,0,0-3.1,2.8l-4-4.06c1.3-1.28,2-1.89,3.39-3.06l.62.74c-1,.82-1.47,1.25-2.41,2.13l.93,1c.79-.74,1.19-1.1,2-1.8L87,83c-.81.69-1.21,1-2,1.77l1,1.08C86.92,85,87.38,84.58,88.33,83.79Z" style="fill:#fff"/><path d="M88.38,80.34l2.2,2.9-.93.72-3.54-4.44.8-.63a44.59,44.59,0,0,1,4.94,1l-2.08-3.09,1.11-.72,3.05,4.78-.81.53A43.22,43.22,0,0,0,88.38,80.34Z" style="fill:#fff"/><path d="M97,73.78c-.78.38-1.17.58-1.93,1l2.22,4.16-1,.57L94,75.39c-.75.42-1.12.64-1.85,1.09l-.51-.82a46.61,46.61,0,0,1,5-2.75Z" style="fill:#fff"/><path d="M160,76.22l-.52.81a38,38,0,0,0-4.74-2.65l2.48-5.11a42.81,42.81,0,0,1,5.23,2.93l-.52.82a41.9,41.9,0,0,0-3.63-2.11l-.64,1.21c1.26.66,1.87,1,3.06,1.76l-.47.76c-1.17-.73-1.77-1.07-3-1.72l-.69,1.31A38.77,38.77,0,0,1,160,76.22Z" style="fill:#fff"/><path d="M163.83,75.6l-2.14,2.94c-.48-.35-.73-.53-1.23-.86l3.19-4.7,1.07.75a36.83,36.83,0,0,1,1.11,5.61l2.43-2.82c.51.44.76.66,1.25,1.11l-3.84,4.18-.9-.8A35.46,35.46,0,0,0,163.83,75.6Z" style="fill:#fff"/><path d="M166.82,82.9l4-4c.89.87,1.32,1.32,2.15,2.25a5.91,5.91,0,0,1,1,1.53,3.78,3.78,0,0,1,.35,1.39,2.37,2.37,0,0,1-1,2,2.54,2.54,0,0,1-1.1.49,2.69,2.69,0,0,1-1.18-.06,4,4,0,0,1-1.2-.56,6.2,6.2,0,0,1-1.17-1C168,84.08,167.61,83.68,166.82,82.9Zm5.58,1.91a1.73,1.73,0,0,0,.48-.6,1.6,1.6,0,0,0,.15-.74,2.2,2.2,0,0,0-.21-.84,3.49,3.49,0,0,0-.59-.88c-.38-.42-.57-.63-1-1l-2.71,2.58c.36.38.54.57.89,1a3.32,3.32,0,0,0,.76.65,2.2,2.2,0,0,0,.77.3,1.77,1.77,0,0,0,.75,0A1.79,1.79,0,0,0,172.41,84.81Z" style="fill:#fff"/><path d="M171.8,88.7l4.61-3.32c.84,1.17,1.25,1.77,2,3a3.21,3.21,0,0,1,.42,1,2.77,2.77,0,0,1,.05,1,2,2,0,0,1-.26.78,1.33,1.33,0,0,1-.5.5,1.48,1.48,0,0,1-.7.18,2,2,0,0,1-.78-.15,2.69,2.69,0,0,1-.76-.46,3.17,3.17,0,0,1-.65-.77c-.39-.63-.59-.95-1-1.56l-1.58,1.06C172.31,89.42,172.14,89.17,171.8,88.7Zm3.22-.4c.4.6.6.9,1,1.52a1.09,1.09,0,0,0,.59.48.84.84,0,0,0,.73-.09.8.8,0,0,0,.29-.28.92.92,0,0,0,.13-.36,1,1,0,0,0,0-.4,1.43,1.43,0,0,0-.17-.39c-.38-.61-.58-.92-1-1.52Z" style="fill:#fff"/><path d="M176.62,97.26a4.89,4.89,0,0,1-.4-1.48,4.24,4.24,0,0,1,.07-1.34,3.15,3.15,0,0,1,.47-1.11,2.26,2.26,0,0,1,.81-.74,2.09,2.09,0,0,1,1.1-.24,2.94,2.94,0,0,1,1.21.34,4.11,4.11,0,0,1,1.15.9,5.06,5.06,0,0,1,.9,1.42,4.83,4.83,0,0,1,.41,1.65,4,4,0,0,1-.16,1.44,2.91,2.91,0,0,1-.6,1.08,2.12,2.12,0,0,1-.91.61,2.22,2.22,0,0,1-1.12.08,3.21,3.21,0,0,1-1.12-.44,4.3,4.3,0,0,1-1-.88A5,5,0,0,1,176.62,97.26ZM178.29,94a1.72,1.72,0,0,0-.57.45,1.89,1.89,0,0,0-.35.67,2.32,2.32,0,0,0-.08.82,2.82,2.82,0,0,0,.24.93,2.79,2.79,0,0,0,.53.82,2.3,2.3,0,0,0,.67.5,1.9,1.9,0,0,0,.73.19,1.7,1.7,0,0,0,.7-.1,1.61,1.61,0,0,0,.61-.41,1.82,1.82,0,0,0,.4-.66,2.23,2.23,0,0,0,.11-.86,3.18,3.18,0,0,0-.83-1.88,2.21,2.21,0,0,0-.71-.5,1.77,1.77,0,0,0-.75-.15A1.64,1.64,0,0,0,178.29,94Z" style="fill:#fff"/><path d="M178.34,101.78l5.42-1.69c.2.63.29,1,.47,1.59l-5.47,1.52C178.6,102.62,178.52,102.34,178.34,101.78Z" style="fill:#fff"/><path d="M183,105.44l-3.57.73c-.12-.58-.18-.87-.32-1.45l5.52-1.32c.12.5.18.76.29,1.26a39.2,39.2,0,0,1-3,4.88l3.69-.45c.08.67.12,1,.18,1.67l-5.65.51c0-.49-.07-.73-.12-1.21A37.75,37.75,0,0,0,183,105.44Z" style="fill:#fff"/><path d="M185,119.08c.08-1.11.11-1.66.13-2.77l-4.71-.09c0-.6,0-.91,0-1.51l4.71-.07c0-1.1,0-1.65-.11-2.74l1-.07a42.79,42.79,0,0,1,0,7.31Z" style="fill:#fff"/><path d="M157.07,81.92a1.59,1.59,0,0,0-.12-.26,3,3,0,0,0-.26-.39,4.09,4.09,0,0,0-.39-.43,2.82,2.82,0,0,0-.49-.38,1.57,1.57,0,0,0-.8-.28.52.52,0,0,0-.47.28.43.43,0,0,0-.06.3.86.86,0,0,0,.15.32,2.93,2.93,0,0,0,.33.38l.49.48a8,8,0,0,1,.62.68,2.36,2.36,0,0,1,.38.64,1.32,1.32,0,0,1,.09.62,1.36,1.36,0,0,1-.26.63,1.49,1.49,0,0,1-1.31.68,2.4,2.4,0,0,1-.77-.15,4.37,4.37,0,0,1-.78-.37,5.83,5.83,0,0,1-1.09-.85,5.22,5.22,0,0,1-.84-1.06l.93-.59a1.93,1.93,0,0,0,.17.31,5.47,5.47,0,0,0,.33.44,4.84,4.84,0,0,0,.46.48,3.5,3.5,0,0,0,.57.43c.58.35,1,.37,1.17,0a.44.44,0,0,0,.07-.33,1,1,0,0,0-.16-.37,3.13,3.13,0,0,0-.36-.43l-.51-.51c-.23-.22-.43-.43-.6-.62a2.45,2.45,0,0,1-.37-.55,1.15,1.15,0,0,1,0-1.09,1.48,1.48,0,0,1,.53-.59,1.6,1.6,0,0,1,.75-.23,2.61,2.61,0,0,1,.89.1,3.82,3.82,0,0,1,.93.41,4.31,4.31,0,0,1,1.07.89,4.9,4.9,0,0,1,.66,1Z" style="fill:#fff"/><path d="M160,88.31l-.66.71a29.91,29.91,0,0,0-3.24-2.67l3.35-4.59a34.61,34.61,0,0,1,3.68,3l-.66.71c-1-.9-1.48-1.33-2.53-2.16l-.84,1.08c.88.69,1.3,1,2.13,1.79l-.6.66c-.8-.73-1.22-1.08-2.08-1.75l-.91,1.17A30.7,30.7,0,0,1,160,88.31Z" style="fill:#fff"/><path d="M161.62,87.22a2.52,2.52,0,0,1,.87-.59,2.59,2.59,0,0,1,1.1-.2,3.11,3.11,0,0,1,1.21.31,3.61,3.61,0,0,1,1.16.89,3.38,3.38,0,0,1,.81,1.48,2.29,2.29,0,0,1-.06,1.36L165.63,90a1.42,1.42,0,0,0,.11-.5,1.54,1.54,0,0,0-.06-.48,2,2,0,0,0-.19-.44,2.42,2.42,0,0,0-.28-.38,2,2,0,0,0-.71-.52,1.73,1.73,0,0,0-1.42,0,2,2,0,0,0-.57.39,2,2,0,0,0-.42.6,2,2,0,0,0-.18.7,1.94,1.94,0,0,0,.09.71,1.76,1.76,0,0,0,.38.65,2.25,2.25,0,0,0,.32.29,1.84,1.84,0,0,0,.4.23,1.71,1.71,0,0,0,.45.12,1.26,1.26,0,0,0,.48,0c.09.44.14.66.21,1.1a1.79,1.79,0,0,1-.7,0,2.89,2.89,0,0,1-.7-.21,3.47,3.47,0,0,1-.66-.38,3.62,3.62,0,0,1-.55-.5,2.89,2.89,0,0,1-.61-1,3.4,3.4,0,0,1-.17-1.13,3.31,3.31,0,0,1,.21-1.1A2.71,2.71,0,0,1,161.62,87.22Z" style="fill:#fff"/><path d="M165.93,95.47a1.51,1.51,0,0,0,.51.52,1.41,1.41,0,0,0,.6.19,1.69,1.69,0,0,0,.64-.08,3.1,3.1,0,0,0,.63-.28l2.5-1.46c.27.46.4.69.65,1.16l-2.55,1.38a3.84,3.84,0,0,1-1,.39,2.57,2.57,0,0,1-1,0,2.38,2.38,0,0,1-.94-.41,3.11,3.11,0,0,1-.81-.89,3.08,3.08,0,0,1-.48-1.14,2.44,2.44,0,0,1,0-1,2.54,2.54,0,0,1,.45-.91,4,4,0,0,1,.77-.75l2.32-1.73c.32.43.48.65.79,1.09l-2.37,1.66a3.14,3.14,0,0,0-.52.46,1.69,1.69,0,0,0-.34.54,1.39,1.39,0,0,0-.08.62A1.5,1.5,0,0,0,165.93,95.47Z" style="fill:#fff"/><path d="M167,99.26l5.08-2.54c.55,1.09.8,1.65,1.27,2.78a2.2,2.2,0,0,1,.17.88,2.15,2.15,0,0,1-.16.8,1.93,1.93,0,0,1-.42.63,1.56,1.56,0,0,1-.59.38,1.75,1.75,0,0,1-1.05,0,1.82,1.82,0,0,1-.91-.56c-.59.85-.9,1.26-1.53,2-.17-.49-.26-.74-.45-1.23.54-.73.8-1.1,1.3-1.87-.19-.44-.29-.66-.49-1.1l-1.73.8C167.31,99.88,167.21,99.67,167,99.26Zm3.11-.16c.26.57.39.86.63,1.44a.75.75,0,0,0,.19.27.83.83,0,0,0,.28.17,1,1,0,0,0,.34.06,1,1,0,0,0,.36-.07.89.89,0,0,0,.32-.2.91.91,0,0,0,.2-.3.9.9,0,0,0,.07-.34.85.85,0,0,0-.06-.34c-.24-.59-.37-.88-.64-1.45Z" style="fill:#fff"/><path d="M169.11,104.44l5.41-1.72c.16.51.24.77.39,1.29l-5.47,1.55C169.32,105.1,169.26,104.88,169.11,104.44Z" style="fill:#fff"/><path d="M175.25,110.66c-.1-.87-.16-1.31-.31-2.17l-4.65.79c-.08-.46-.12-.69-.21-1.14l4.62-.94c-.17-.85-.27-1.28-.49-2.12l.94-.24a34.62,34.62,0,0,1,1.07,5.72Z" style="fill:#fff"/><path d="M176.37,112.21c-1,.78-1.57,1.14-2.64,1.83,1.12.63,1.67,1,2.76,1.69,0,.6,0,.9,0,1.5a33.86,33.86,0,0,0-3.66-2.53l-2,0c0-.47,0-.71,0-1.18l2-.1a36.48,36.48,0,0,0,3.47-2.73C176.3,111.32,176.33,111.62,176.37,112.21Z" style="fill:#fff"/><path d="M75.12,166.24l3-4.8,1,.63-3,4.84Z" style="fill:#fff"/><path d="M77.38,167.63l2.89-4.89c.77.45,1.15.68,1.93,1.11a3.7,3.7,0,0,1,1,.83,2.82,2.82,0,0,1,.55,1,2.54,2.54,0,0,1,.1,1.06,3.14,3.14,0,0,1-.33,1.07,3,3,0,0,1-.73.94,2.4,2.4,0,0,1-1,.5,2.85,2.85,0,0,1-1.16,0,3.89,3.89,0,0,1-1.26-.46C78.61,168.35,78.2,168.12,77.38,167.63Zm5.1-.41a2.22,2.22,0,0,0,.24-.72,1.68,1.68,0,0,0,0-.69,1.63,1.63,0,0,0-.33-.61,2.16,2.16,0,0,0-.62-.49l-.91-.51L79,167.43l1,.54a2.13,2.13,0,0,0,.79.27,1.64,1.64,0,0,0,.71-.06,1.69,1.69,0,0,0,.6-.36A2.14,2.14,0,0,0,82.48,167.22Z" style="fill:#fff"/><path d="M87.64,171.77l-.38.89c-1.65-.71-2.47-1.09-4.09-1.89l2.51-5.09c1.48.73,2.23,1.08,3.75,1.73l-.38.89c-1.09-.47-1.64-.72-2.72-1.23l-.59,1.24c.95.45,1.43.67,2.39,1.09l-.36.82c-1-.42-1.45-.64-2.41-1.1l-.64,1.34C85.88,171,86.46,171.26,87.64,171.77Z" style="fill:#fff"/><path d="M90.67,170.13l-1.35,3.38L88.16,173l2.19-5.24.84.35c.61,1.85.94,2.78,1.67,4.63l1.26-3.5,1.1.39L93.37,175l-1-.33C91.66,172.87,91.31,172,90.67,170.13Z" style="fill:#fff"/><path d="M100.44,172.24l-1.86-.52-1.32,4.52-1.18-.35,1.38-4.5-1.85-.59.31-.92c1.89.63,2.85.92,4.77,1.42Z" style="fill:#fff"/><path d="M100,177l1.41-5.5,1.12.28-1.33,5.52Z" style="fill:#fff"/><path d="M107.94,173.86l-1.89-.34-.89,4.63-1.2-.24,1-4.61-1.88-.41.22-.94c1.93.45,2.9.64,4.86,1Z" style="fill:#fff"/><path d="M109.49,173.13c.42,1.17.64,1.75,1.09,2.91.75-1,1.12-1.51,1.83-2.53l1.24.13c-1,1.39-1.52,2.08-2.59,3.43l-.24,2-1.22-.16.27-2c-.69-1.58-1-2.37-1.62-4Z" style="fill:#fff"/><path d="M117.44,173.91l1,0c.82,2.3,1.26,3.45,2.2,5.73l-1.27,0c-.22-.57-.33-.86-.55-1.43-.87,0-1.31,0-2.18-.09l-.66,1.38-1.27-.09C115.89,177.24,116.42,176.14,117.44,173.91Zm1.21,3.54c-.31-.9-.46-1.36-.76-2.26-.38.88-.58,1.31-1,2.19Z" style="fill:#fff"/><path d="M122.54,176l0,3.64h-1.23V174h.89c1.25,1.48,1.9,2.21,3.27,3.63l-.18-3.71,1.15-.06.36,5.66-1,.06C124.47,178.19,123.81,177.48,122.54,176Z" style="fill:#fff"/><path d="M128.16,179.42l-.44-5.66c.86-.07,1.29-.11,2.15-.2a3.5,3.5,0,0,1,1.29.08,2.74,2.74,0,0,1,1,.49,2.55,2.55,0,0,1,.68.82,3.21,3.21,0,0,1,.34,1.06,3,3,0,0,1,0,1.19,2.41,2.41,0,0,1-.5,1,2.77,2.77,0,0,1-.9.69,3.69,3.69,0,0,1-1.26.35C129.54,179.31,129.08,179.35,128.16,179.42Zm3.81-3.25a2.27,2.27,0,0,0-.21-.73,1.69,1.69,0,0,0-.42-.55,1.59,1.59,0,0,0-.61-.31,2,2,0,0,0-.77-.05l-1,.1.35,3.73,1.06-.1a2,2,0,0,0,.78-.23,1.59,1.59,0,0,0,.53-.46,1.7,1.7,0,0,0,.28-.63A2.2,2.2,0,0,0,132,176.17Z" style="fill:#fff"/><path d="M137,172.48l1-.2c1.35,2,2.06,3,3.54,5l-1.24.29-.88-1.26c-.86.19-1.28.27-2.14.44-.12.6-.18.9-.31,1.5l-1.25.22C136.34,176.09,136.6,174.88,137,172.48Zm2,3.14c-.52-.8-.78-1.2-1.29-2-.16.94-.25,1.42-.43,2.36Z" style="fill:#fff"/><path d="M141,174.48a2.79,2.79,0,0,1,0-1,2.86,2.86,0,0,1,.35-1,3,3,0,0,1,.74-.86,3.1,3.1,0,0,1,1.14-.57,2.94,2.94,0,0,1,1.47-.07,2.33,2.33,0,0,1,1.13.59l-.7.82a1.49,1.49,0,0,0-.4-.3,1.47,1.47,0,0,0-.43-.15,1.74,1.74,0,0,0-.43,0,2.11,2.11,0,0,0-.41.07,1.67,1.67,0,0,0-1.12.93,1.91,1.91,0,0,0-.17.67,2.17,2.17,0,0,0,.06.68,2,2,0,0,0,.31.67,1.85,1.85,0,0,0,.52.5,1.81,1.81,0,0,0,.67.26,1.72,1.72,0,0,0,.77,0,2.19,2.19,0,0,0,.42-.17,1.78,1.78,0,0,0,.38-.27,1.62,1.62,0,0,0,.29-.37,1.2,1.2,0,0,0,.16-.46l1.11.2a1.68,1.68,0,0,1-.25.67,2.72,2.72,0,0,1-.49.58,3.36,3.36,0,0,1-.66.46,3.59,3.59,0,0,1-.74.3,2.9,2.9,0,0,1-1.27.08,3.1,3.1,0,0,1-1.11-.4,3,3,0,0,1-.83-.76A2.67,2.67,0,0,1,141,174.48Z" style="fill:#fff"/><path d="M146.68,172.89a2.77,2.77,0,0,1-.12-1,2.85,2.85,0,0,1,.28-1,3,3,0,0,1,.68-.91,3.14,3.14,0,0,1,1.1-.65,3,3,0,0,1,1.47-.17,2.33,2.33,0,0,1,1.17.51l-.64.87a1.46,1.46,0,0,0-.85-.39,1.76,1.76,0,0,0-.43,0,2.15,2.15,0,0,0-.41.1,1.68,1.68,0,0,0-1.05,1,1.9,1.9,0,0,0-.12.68,2.16,2.16,0,0,0,.11.68,2,2,0,0,0,.35.64,1.85,1.85,0,0,0,.55.46,1.82,1.82,0,0,0,.69.21,1.74,1.74,0,0,0,.77-.1,2.21,2.21,0,0,0,.4-.2,1.8,1.8,0,0,0,.36-.3,1.63,1.63,0,0,0,.27-.39,1.2,1.2,0,0,0,.13-.47l1.13.12a1.69,1.69,0,0,1-.2.68,2.74,2.74,0,0,1-.45.61,3.39,3.39,0,0,1-.63.51,3.62,3.62,0,0,1-.72.35,2.92,2.92,0,0,1-1.27.17,3.11,3.11,0,0,1-1.14-.32,3,3,0,0,1-.89-.7A2.66,2.66,0,0,1,146.68,172.89Z" style="fill:#fff"/><path d="M157.47,170.73l.41.88c-1.63.76-2.46,1.12-4.12,1.79l-2.13-5.27c1.52-.62,2.28-.94,3.78-1.64l.41.88c-1.08.5-1.63.75-2.73,1.21l.53,1.26c1-.41,1.44-.62,2.4-1.05l.37.81c-1,.44-1.45.66-2.42,1.07l.57,1.36C155.72,171.54,156.31,171.28,157.47,170.73Z" style="fill:#fff"/><path d="M160.13,165.8l-.27,0a2.8,2.8,0,0,0-.43,0,3.79,3.79,0,0,0-.52.09,2.43,2.43,0,0,0-.52.19,1.32,1.32,0,0,0-.58.48.54.54,0,0,0,0,.53.45.45,0,0,0,.21.22.76.76,0,0,0,.33.06,2.29,2.29,0,0,0,.47-.06l.62-.15c.3-.08.59-.13.85-.17a2.45,2.45,0,0,1,.71,0,1.38,1.38,0,0,1,.58.21,1.4,1.4,0,0,1,.44.51,1.48,1.48,0,0,1,.2.78,1.5,1.5,0,0,1-.22.71,2.39,2.39,0,0,1-.54.62,4.2,4.2,0,0,1-.77.5,5.22,5.22,0,0,1-1.38.48,4.47,4.47,0,0,1-1.38.06c0-.44.06-.66.09-1.1a1.71,1.71,0,0,0,.34,0,4.35,4.35,0,0,0,.55,0,4.1,4.1,0,0,0,.66-.11,3.19,3.19,0,0,0,.68-.26c.61-.31.83-.65.65-1a.45.45,0,0,0-.25-.22,1,1,0,0,0-.4,0,3.46,3.46,0,0,0-.54.08l-.68.15a6,6,0,0,1-.81.13,2.06,2.06,0,0,1-.63,0,1.17,1.17,0,0,1-.48-.23,1.33,1.33,0,0,1-.34-.46,1.67,1.67,0,0,1-.17-.77,1.61,1.61,0,0,1,.19-.71,2.27,2.27,0,0,1,.49-.62,3.2,3.2,0,0,1,.72-.49,3.76,3.76,0,0,1,1.14-.38,4.9,4.9,0,0,1,1-.06C160.16,165.18,160.15,165.38,160.13,165.8Z" style="fill:#fff"/><path d="M164.79,163.11h-.27a2.85,2.85,0,0,0-.44,0,3.92,3.92,0,0,0-.51.13,2.51,2.51,0,0,0-.51.23,1.34,1.34,0,0,0-.56.52.54.54,0,0,0,0,.53.45.45,0,0,0,.23.21.77.77,0,0,0,.34,0,2.33,2.33,0,0,0,.47-.09l.62-.19c.3-.1.58-.17.84-.23a2.48,2.48,0,0,1,.72-.07,1.28,1.28,0,0,1,1.07.65,1.47,1.47,0,0,1,.25.76,1.51,1.51,0,0,1-.18.73,2.43,2.43,0,0,1-.51.66,4.26,4.26,0,0,1-.74.56,5.3,5.3,0,0,1-1.36.57,4.52,4.52,0,0,1-1.39.16c0-.44,0-.66,0-1.1a1.72,1.72,0,0,0,.35,0,4.39,4.39,0,0,0,.55,0,4.14,4.14,0,0,0,.66-.15,3.24,3.24,0,0,0,.67-.3c.6-.36.79-.71.59-1a.45.45,0,0,0-.26-.2,1,1,0,0,0-.4,0,3.51,3.51,0,0,0-.54.12l-.68.2a6.08,6.08,0,0,1-.81.19,2.08,2.08,0,0,1-.64,0,1.17,1.17,0,0,1-.49-.2,1.32,1.32,0,0,1-.37-.44,1.66,1.66,0,0,1-.22-.76,1.62,1.62,0,0,1,.15-.72,2.3,2.3,0,0,1,.45-.65,3.26,3.26,0,0,1,.69-.54,3.83,3.83,0,0,1,1.12-.46,5,5,0,0,1,1-.13C164.78,162.48,164.78,162.69,164.79,163.11Z" style="fill:#fff"/><path d="M92.82,184.94l1.12-3.59c-1,.86-1.52,1.28-2.56,2.11l-.71-.24c-.33-1.3-.48-1.94-.76-3.24l-1.28,3.53-1.3-.48,2-5.31,1.31.49c.31,1.49.48,2.23.84,3.72,1.2-1,1.79-1.45,2.94-2.44l1.33.4-1.61,5.45Z" style="fill:#fff"/><path d="M98.93,180.77l1.11.28c.45,2.45.71,3.67,1.28,6.12l-1.38-.31c-.13-.61-.19-.92-.32-1.53-.95-.22-1.42-.34-2.37-.59l-1,1.2-1.37-.38C96.57,183.68,97.38,182.72,98.93,180.77Zm.64,3.75c-.16-1-.24-1.44-.39-2.39-.59.77-.89,1.16-1.51,1.92Z" style="fill:#fff"/><path d="M104.12,184l-.68,3.58-1.35-.27,1.14-5.56,1,.2c1.08,1.73,1.65,2.58,2.84,4.28l.57-3.68,1.28.19-.78,5.62-1.1-.16C105.8,186.55,105.22,185.71,104.12,184Z" style="fill:#fff"/><path d="M112.15,183.14l1.13.11c.8,2.35,1.23,3.53,2.16,5.86L114,189c-.22-.58-.32-.88-.53-1.46-1-.08-1.45-.13-2.42-.23l-.8,1.34-1.4-.17C110.26,186.36,110.91,185.29,112.15,183.14Zm1.18,3.61c-.3-.92-.45-1.38-.73-2.31-.47.85-.71,1.28-1.2,2.12Z" style="fill:#fff"/><path d="M120.86,188.65a2.94,2.94,0,0,1-2,.65,3.61,3.61,0,0,1-1.3-.27,3.24,3.24,0,0,1-1-.66,2.86,2.86,0,0,1-.65-1,2.58,2.58,0,0,1-.19-1.16,2.49,2.49,0,0,1,.32-1.08,3,3,0,0,1,.74-.87,3.48,3.48,0,0,1,1.06-.57,4,4,0,0,1,2.88.18,2.44,2.44,0,0,1,1,.91l-1,.61a1.7,1.7,0,0,0-.71-.66,2.29,2.29,0,0,0-1-.24,2,2,0,0,0-.78.13,1.84,1.84,0,0,0-.62.39,1.92,1.92,0,0,0-.42.59,2,2,0,0,0-.17.72,1.82,1.82,0,0,0,.52,1.38,2,2,0,0,0,.64.43,2.18,2.18,0,0,0,.82.17,2.51,2.51,0,0,0,1.83-.75v-.4l-1.39,0,0-.81c1,0,1.48,0,2.47,0,0,1.17,0,1.75,0,2.92h-1.13Z" style="fill:#fff"/><path d="M128,188.1l.07,1c-2,.14-2.93.18-4.89.21l-.1-5.68c1.81,0,2.71-.07,4.51-.2l.07,1c-1.3.09-2,.12-3.26.16l0,1.37c1.14,0,1.72-.06,2.86-.14l.06.89c-1.15.07-1.73.1-2.89.14l0,1.48C125.89,188.23,126.58,188.19,128,188.1Z" style="fill:#fff"/><path d="M134.83,188.35l-.53-3.72c-.54,1.21-.81,1.81-1.39,3l-.73.09c-.84-1-1.25-1.55-2.06-2.6l.36,3.74-1.37.12-.46-5.66,1.38-.12c.91,1.21,1.37,1.81,2.33,3,.66-1.38,1-2.07,1.59-3.46l1.36-.2.88,5.61Z" style="fill:#fff"/><path d="M142.24,186l.21.94c-1.92.43-2.88.62-4.82,1l-1-5.6c1.79-.31,2.68-.48,4.45-.88l.21.94c-1.28.29-1.92.42-3.21.66l.25,1.35c1.13-.21,1.69-.32,2.82-.57l.19.87c-1.14.25-1.7.36-2.85.58l.27,1.46C140.19,186.46,140.88,186.32,142.24,186Z" style="fill:#fff"/><path d="M144,182.86l.89,3.53-1.34.33-1.31-5.53,1-.24c1.71,1.11,2.59,1.65,4.4,2.68l-1-3.57,1.25-.37,1.66,5.42-1.07.32C146.56,184.44,145.67,183.93,144,182.86Z" style="fill:#fff"/><path d="M154.2,178.48c-.81.31-1.22.46-2,.76l1.59,4.44-1.3.45-1.52-4.46c-.82.28-1.23.42-2.06.68l-.29-.92c2.13-.67,3.18-1,5.27-1.85Z" style="fill:#fff"/><path d="M92.36,17.92a3,3,0,0,1-1.67,1.47,3.45,3.45,0,0,1-1.38.2A3.6,3.6,0,0,1,88,19.26a3.78,3.78,0,0,1-1.13-.8,3.67,3.67,0,0,1-.79-1.23,3.29,3.29,0,0,1-.24-1.38,3.46,3.46,0,0,1,.34-1.34A3.76,3.76,0,0,1,87,13.35a4.2,4.2,0,0,1,3.27-1,2.77,2.77,0,0,1,1.47.71L91,14.13a2,2,0,0,0-1-.51,2.39,2.39,0,0,0-1.19.11,2.11,2.11,0,0,0-.79.48,2,2,0,0,0-.48.73,2.35,2.35,0,0,0-.15.87,2.61,2.61,0,0,0,.17.91,2.54,2.54,0,0,0,.49.81,2.39,2.39,0,0,0,.7.54,2.2,2.2,0,0,0,.83.23,2.11,2.11,0,0,0,.89-.12,2.65,2.65,0,0,0,1.54-1.55l-.16-.48-1.44.48-.33-1c1-.36,1.57-.53,2.62-.86l1.09,3.48-1.12.36Z" style="fill:#fff"/><path d="M97.9,17.17a3.53,3.53,0,0,1-1.48.09,3.76,3.76,0,0,1-2.35-1.36,3.53,3.53,0,0,1-.64-1.2,3.3,3.3,0,0,1-.12-1.38A3.59,3.59,0,0,1,93.74,12a3.7,3.7,0,0,1,.95-1.1,3.81,3.81,0,0,1,1.41-.69,3.61,3.61,0,0,1,1.58-.08,3.68,3.68,0,0,1,1.35.52,3.63,3.63,0,0,1,1,1,3.39,3.39,0,0,1,.55,1.23,3.47,3.47,0,0,1,0,1.38,3.8,3.8,0,0,1-.48,1.28,3.72,3.72,0,0,1-.92,1A3.57,3.57,0,0,1,97.9,17.17Zm-3-2.9a2.71,2.71,0,0,0,.39.81,2.38,2.38,0,0,0,.62.61,2.13,2.13,0,0,0,.8.33,2.22,2.22,0,0,0,1.77-.47,2.14,2.14,0,0,0,.53-.69,2.43,2.43,0,0,0,.23-.84,2.71,2.71,0,0,0-.06-.87,2.59,2.59,0,0,0-.36-.83,2.35,2.35,0,0,0-.61-.63,2.06,2.06,0,0,0-.81-.34,2.34,2.34,0,0,0-1.85.5,2.06,2.06,0,0,0-.54.71,2.31,2.31,0,0,0-.2.85A2.63,2.63,0,0,0,94.86,14.28Z" style="fill:#fff"/><path d="M101.45,9c1.26,1.93,1.87,2.91,3,4.88.39-2.26.61-3.38,1.09-5.64L107.16,8c-.8,3-1.15,4.48-1.77,7.48l-1.17.21c-1.65-2.58-2.52-3.85-4.34-6.35Z" style="fill:#fff"/><path d="M113.85,13.16l.1,1.21c-2,.16-3,.27-5,.55l-1-7c2.11-.29,3.17-.4,5.28-.58l.1,1.21c-1.5.12-2.24.2-3.73.38l.21,1.7c1.27-.15,1.9-.22,3.17-.33l.1,1.12c-1.26.11-1.88.18-3.13.33l.22,1.84C111.66,13.36,112.39,13.28,113.85,13.16Z" style="fill:#fff"/><path d="M115,14.29l-.5-7.08c1.38-.1,2.06-.13,3.44-.18a2.33,2.33,0,0,1,1,.18,2.45,2.45,0,0,1,1.31,1.28,2.13,2.13,0,0,1,.19.85,2.28,2.28,0,0,1-.35,1.26,2.1,2.1,0,0,1-1,.83c.71,1.05,1,1.58,1.72,2.64l-1.58,0c-.61-.94-.93-1.4-1.57-2.33l-1.42.07.13,2.38Zm1.21-3.67,1.83-.08a.82.82,0,0,0,.37-.1,1,1,0,0,0,.29-.25,1.23,1.23,0,0,0,.19-.37,1.35,1.35,0,0,0,.06-.45,1.21,1.21,0,0,0-.1-.46,1.18,1.18,0,0,0-.24-.36,1,1,0,0,0-.34-.23.92.92,0,0,0-.39-.07l-1.81.08Z" style="fill:#fff"/><path d="M123.31,9.53c0,1.82-.05,2.73-.08,4.55l-1.41,0c0-2.84,0-4.26,0-7.1H123c1.59,1.89,2.35,2.85,3.8,4.8l.26-4.64,1.51.1-.5,7.07-1.14-.07C125.56,12.32,124.84,11.38,123.31,9.53Z" style="fill:#fff"/><path d="M132.41,7.56l1.33.16c.83,3,1.2,4.45,1.86,7.42l-1.44-.21c-.17-.74-.26-1.11-.44-1.84-1-.13-1.54-.19-2.56-.3-.34.68-.51,1-.84,1.69l-1.44-.13C130.21,11.61,130.92,10.25,132.41,7.56Zm1.18,4.53c-.27-1.16-.41-1.74-.7-2.9-.57,1.06-.85,1.59-1.39,2.65Z" style="fill:#fff"/><path d="M138.58,11l-.8,4.48-1.39-.24,1.14-7,1.16.2c1.28,2.12,1.89,3.19,3,5.34l1-4.54,1.49.33-1.61,6.9-1.12-.25C140.38,14.13,139.8,13.09,138.58,11Z" style="fill:#fff"/><path d="M144.47,13.24a3.4,3.4,0,0,1,.55-1.19,3.34,3.34,0,0,1,1-.92,3.65,3.65,0,0,1,1.37-.48,3.94,3.94,0,0,1,1.66.14,3.73,3.73,0,0,1,1.67.95,2.8,2.8,0,0,1,.78,1.42l-1.32.35a1.79,1.79,0,0,0-.21-.59,1.83,1.83,0,0,0-.36-.45,2.26,2.26,0,0,0-.45-.32,2.68,2.68,0,0,0-.5-.2,2.14,2.14,0,0,0-1-.07,2.07,2.07,0,0,0-.82.34,2.31,2.31,0,0,0-.6.63,2.69,2.69,0,0,0-.35.78,2.63,2.63,0,0,0-.08.92,2.44,2.44,0,0,0,.24.85,2.26,2.26,0,0,0,.53.69,2,2,0,0,0,.79.43,2.46,2.46,0,0,0,.52.09,2.08,2.08,0,0,0,.55,0,2,2,0,0,0,.53-.19,1.57,1.57,0,0,0,.47-.37l.94,1a2.18,2.18,0,0,1-.7.52,3.36,3.36,0,0,1-.86.27,4,4,0,0,1-.93.05,4.09,4.09,0,0,1-.9-.15,3.3,3.3,0,0,1-1.29-.69,3.91,3.91,0,0,1-.87-1.09,4,4,0,0,1-.43-1.32A3.52,3.52,0,0,1,144.47,13.24Z" style="fill:#fff"/><path d="M156.05,19.44l-.45,1.13c-1.9-.75-2.86-1.1-4.79-1.75l2.25-6.74c2,.68,3.05,1,5.06,1.84l-.44,1.13c-1.42-.56-2.13-.83-3.57-1.33l-.57,1.61c1.22.43,1.83.65,3,1.12l-.41,1c-1.19-.46-1.79-.69-3-1.11l-.61,1.75C154,18.63,154.67,18.89,156.05,19.44Z" style="fill:#fff"/><polygon points="37.8 93.05 38.99 89.5 44.71 89.35 45.09 95.32 37.28 94.69 37.8 93.05" style="fill:#d6d6d6"/><rect x="28.81" y="68.53" width="27.13" height="22.17" rx="1.6" ry="1.6" style="fill:#fff"/><rect x="30.86" y="70.73" width="23.13" height="14.24" rx="1.38" ry="1.38" style="fill:#5b9bd5"/><rect x="32.27" y="71.9" width="18.63" height="1.65" rx="0.73" ry="0.73" style="fill:#fff"/><rect x="44.15" y="75.38" width="6.75" height="1.65" rx="0.73" ry="0.73" style="fill:#fff"/><rect x="32.27" y="75.38" width="10.1" height="8.46" rx="1.31" ry="1.31" style="fill:#fff"/><rect x="33.91" y="93.99" width="13.61" height="1.74" rx="0.76" ry="0.76" style="fill:#fff"/><rect x="44.15" y="78.85" width="13.5" height="18.53" rx="1.41" ry="1.41" style="fill:#fff"/><rect x="45.88" y="81.95" width="10.07" height="12.04" style="fill:#5b9bd5"/><path d="M54.15,86l-.23-.23a.65.65,0,0,0-.91,0l-2.94,2.94-1.22-1.22a.65.65,0,0,0-.91,0l-.23.23a.65.65,0,0,0,0,.91l1.77,1.77h0l.13.13a.65.65,0,0,0,.91,0l3.63-3.63A.65.65,0,0,0,54.15,86Z" style="fill:#fff"/><rect x="188.53" y="69.45" width="24.42" height="15.61" style="fill:#5b9bd5"/><path d="M206,74.33a.49.49,0,0,0-.16-.15,9.64,9.64,0,0,1-4.74-2.41.56.56,0,0,0-.45-.22.81.81,0,0,0-.5.28,10.16,10.16,0,0,1-4.65,2.34.4.4,0,0,0-.15.09.51.51,0,0,0-.13.43,9,9,0,0,0,1.93,5.62,8.23,8.23,0,0,0,3.5,2.64,7.51,7.51,0,0,0,1.87-1,7.63,7.63,0,0,0,2.28-2.58,10.79,10.79,0,0,0,1.27-4.79A.5.5,0,0,0,206,74.33Zm-4.57,3V79a.68.68,0,0,1-.68.68h-.08A.68.68,0,0,1,200,79V77.39a1.38,1.38,0,1,1,1.45,0Z" style="fill:#fff"/><path d="M214.5,69.54a3.73,3.73,0,0,0-.31-1.33c-.45-.8-1.7-.88-1.88-.88H189.06a2.17,2.17,0,0,0-1.54.59,2.51,2.51,0,0,0-.6,1.37,3.44,3.44,0,0,0-.06.76V86.48h9.43a1.62,1.62,0,0,1,.52.16,1.67,1.67,0,0,1,.59.52h5.93a1.67,1.67,0,0,1,.59-.52,1.62,1.62,0,0,1,.52-.16h10.07V70A4.78,4.78,0,0,0,214.5,69.54Zm-2.19,14.91H189.06V70h23.25Z" style="fill:#fff"/><path d="M216.63,88.42v-.56a.6.6,0,0,0-.6-.6H204.46a.69.69,0,0,0-.68.7v.54a.58.58,0,0,1-.58.58h-5.75a.58.58,0,0,1-.58-.58V88s0-.56-.45-.7h-11a.6.6,0,0,0-.6.6v.55a2.31,2.31,0,0,0,2.52,2.46h27.18a2.34,2.34,0,0,0,1.49-.7A2.37,2.37,0,0,0,216.63,88.42Z" style="fill:#fff"/><rect x="119.83" y="212.44" width="6.18" height="4.3" rx="0.48" ry="0.48" style="fill:#5b9bd5"/><polygon points="132.34 210.22 125.63 205.87 119.18 212.23 119.18 214.59 132.34 214.59 132.34 210.22" style="fill:#5b9bd5"/><path d="M139.42,201.72a5.2,5.2,0,0,0-4.73-4.23,5.47,5.47,0,0,0-5,2.31,5.8,5.8,0,0,0-.81,4.05l-8.18,8.08v3.69s0,.34.41.37h3.55s.61,0,.6-.56l0-1.24s0-.42.52-.42l1.4,0s.52.06.57-.61v-1.35a.44.44,0,0,1,.47-.48l1.45,0a.6.6,0,0,0,.65-.69v-1.21a.47.47,0,0,1,.47-.46l1.22,0,1.13-1.16a6.48,6.48,0,0,0,2.51,0A5.41,5.41,0,0,0,139.42,201.72Zm-17,11.36-.5-.53,7.13-7,.52.53ZM136,202a1,1,0,1,1,1.05-1A1,1,0,0,1,136,202Z" style="fill:#fff"/><path d="M127.6,214.58h5.32a.77.77,0,0,0,.89-.87v-1.9a1.17,1.17,0,0,0-.28-.56L132,209.88h-.79v1s-.19,1.37-1.41,1.36h-1.19v1.2S128.4,214.5,127.6,214.58Z" style="fill:#fff"/><path d="M119.76,214.58h-8.39s-.88-.06-.88-.77V211.7s0-.18.44-.59a26.27,26.27,0,0,1,6.86-4.28,3.36,3.36,0,0,0,1.35-3.16s-.88-.38-1.24-2.11c0,0-1.32-1.48-1-2.29a1.1,1.1,0,0,1,.78-1,1,1,0,0,1-.08-.82,3.45,3.45,0,0,1-.18-3.49,5.21,5.21,0,0,1,5-2.39,5.51,5.51,0,0,1,2.23.71,3,3,0,0,1,2.54,2s.85,2.52-.28,4c0,0,1,.61.18,2.14a3.5,3.5,0,0,1-.7,1.1,4,4,0,0,1-1.14,2.17,3.68,3.68,0,0,0,.11,1.75,1,1,0,0,0,.28.39l-5.52,5.35a1.3,1.3,0,0,0-.28,1Z" style="fill:#fff"/><rect x="108.2" y="218.03" width="28.49" height="5.95" rx="2.97" ry="2.97" style="fill:#5b9bd5"/><path d="M133.63,216.72H111.25a4.28,4.28,0,1,0,0,8.56h22.38a4.28,4.28,0,0,0,0-8.56ZM108.19,221a3.07,3.07,0,0,1,3.06-3.06h16.82v6.12H111.25A3.07,3.07,0,0,1,108.19,221Zm25.44,3.06h-4.34v-6.12h4.34a3.06,3.06,0,0,1,0,6.12Z" style="fill:#fff"/><path d="M133.25,219.17a.61.61,0,0,0-.93.78l.37.44h-1.22a.61.61,0,1,0,0,1.22h1.22l-.37.44a.61.61,0,1,0,.93.78l1.21-1.45a.61.61,0,0,0,0-.78Z" style="fill:#fff"/><path d="M113.23,219.78a.61.61,0,0,0-.86,0l-.36.36-.36-.36a.61.61,0,0,0-.86.86l.36.36-.36.36a.61.61,0,0,0,.86.86l.36-.36.36.36a.61.61,0,0,0,.86-.86l-.36-.36.36-.36A.61.61,0,0,0,113.23,219.78Z" style="fill:#fff"/><path d="M117.63,219.78a.61.61,0,0,0-.86,0l-.36.36-.36-.36a.61.61,0,0,0-.86.86l.36.36-.36.36a.61.61,0,0,0,.86.86l.36-.36.36.36a.61.61,0,0,0,.86-.86l-.36-.36.36-.36A.61.61,0,0,0,117.63,219.78Z" style="fill:#fff"/><path d="M122,219.78a.61.61,0,0,0-.86,0l-.36.36-.36-.36a.61.61,0,0,0-.86.86l.36.36-.36.36a.61.61,0,0,0,.86.86l.36-.36.36.36a.61.61,0,0,0,.86-.86l-.36-.36.36-.36A.61.61,0,0,0,122,219.78Z" style="fill:#fff"/><path d="M126.08,221l.36-.36a.61.61,0,0,0-.86-.86l-.36.36-.36-.36a.61.61,0,0,0-.86.86l.36.36-.36.36a.61.61,0,0,0,.86.86l.36-.36.36.36a.61.61,0,0,0,.86-.86Z" style="fill:#fff"/><path d="M104.46,121.35v-7.81s2.06-1.67,7.46-1.67a13.51,13.51,0,0,1,7.71,2.31l.28.17s2-.54,7.3.9c0,0,2.16.22,2.26,2.11a2.57,2.57,0,0,1-1.7,2.16l-9.07-.37s1,1.29,4.14,1.62c0,0,5.53.14,7-1.08,0,0,2.43-2.12,3.06-2.09a3,3,0,0,1,2.4.24,1.29,1.29,0,0,1,0,2.09s1.35,0,.21,1.74l-4.86,3.52-.83.46a24.32,24.32,0,0,1-2.53.54c-1.46.23-5,.93-5,.93s-4.13.63-5.41-.3l-6.81-3.23-2.74-1.21a4.09,4.09,0,0,0-1.62-.45A1.43,1.43,0,0,1,104.46,121.35Z" style="fill:#fff"/><path d="M136.65,102.74l-2.78-.39a2,2,0,0,0-.38-1.62l2.23-1.95-1.62-2.5-2.47,1s-1-1.22-1.46-1.29l1.15-2.54-2.57-1.62L127,94s-1.32-.54-1.77-.38l-.64-2.7h-2.78l-.49,2.57a9.23,9.23,0,0,0-1.77.54l-1.74-2.12L115,93.43,116.19,96a3.24,3.24,0,0,0-1.39,1.22l-2.54-1-1.53,2.57,2.19,1.77a6.91,6.91,0,0,0-.59,1.88l-2.82.34v3l2.65.4s.54,1.5.7,1.74l-2.16,1.84.77,1.41a13.14,13.14,0,0,1,8.25,2.16s9.51.42,10.16,2.83l1.39-.79-1-2.74a7.42,7.42,0,0,0,1.35-1.11l2.36,1.15,1.67-2.7-2.23-2.09a2,2,0,0,0,.49-1.76h2.7Zm-13.34,7.78a6.22,6.22,0,1,1,6.2-6.24v0A6.22,6.22,0,0,1,123.31,110.52Z" style="fill:#fff"/></g></g></svg>