<svg xmlns="http://www.w3.org/2000/svg" viewBox="0 0 345.59 421.02"><title>Asset 98</title><g id="Layer_2" data-name="Layer 2"><g id="Layer_1-2" data-name="Layer 1"><path d="M0,208.49v79.63l55.67,55.67H135.3L191,288.12V208.49L135.3,152.82H55.67Zm119.16-16.95,33.1,33.1V272l-33.1,33.1H71.82L38.72,272V224.64l33.1-33.1Z" style="fill:#11b1e1"/><polygon points="73.04 191.54 119.16 191.54 152.25 224.64 152.25 271.98 119.16 305.07 72.42 305.07 109.25 343.79 135.3 343.79 190.97 288.12 190.97 208.49 135.3 152.82 111.76 152.82 73.04 191.54" style="fill:#0ea1c5"/><path d="M208.17,343.36H287.8l55.67-55.67V208.05L287.8,152.38H208.17L152.5,208.05v79.63ZM191.22,224.2l33.1-33.1h47.34l33.1,33.1v47.34l-33.1,33.1H224.31l-33.1-33.1Z" style="fill:#f06a21"/><polygon points="191.22 270.31 191.22 224.2 224.31 191.1 271.65 191.1 304.75 224.2 304.75 270.94 343.47 234.11 343.47 208.05 287.8 152.38 208.17 152.38 152.5 208.05 152.5 231.59 191.22 270.31" style="fill:#c5501c"/><path d="M343,135.74V56.11L287.36.44H207.73L152.06,56.11v79.63l55.67,55.67h79.63ZM223.88,152.69l-33.1-33.1V72.25l33.1-33.1h47.34l33.1,33.1V119.6l-33.1,33.1Z" style="fill:#969796"/><polygon points="269.99 152.69 223.88 152.69 190.78 119.59 190.78 72.25 223.88 39.16 270.62 39.16 233.79 0.44 207.73 0.44 152.06 56.11 152.06 135.74 207.73 191.41 231.27 191.41 269.99 152.69" style="fill:#8b8b8b"/><path d="M135.3,0H55.67L0,55.67V135.3L55.67,191H135.3L191,135.3V55.67Zm16.95,119.16-33.1,33.1H71.82l-33.1-33.1V71.82l33.1-33.1h47.34l33.1,33.1Z" style="fill:#0b7abe"/><polygon points="152.25 73.04 152.25 119.16 119.16 152.25 71.82 152.25 38.72 119.16 38.72 72.42 0 109.25 0 135.3 55.67 190.97 135.3 190.97 190.97 135.3 190.97 111.76 152.25 73.04" style="fill:#156a9f"/><path d="M102.24,76.86a.77.77,0,0,0-.25-.24,15.36,15.36,0,0,1-7.55-3.83.9.9,0,0,0-.72-.34,1.29,1.29,0,0,0-.8.45,16.18,16.18,0,0,1-7.4,3.72.64.64,0,0,0-.24.14.81.81,0,0,0-.21.69,14.27,14.27,0,0,0,3.08,8.95,13.11,13.11,0,0,0,5.58,4.2,12,12,0,0,0,3-1.53A12.16,12.16,0,0,0,100.34,85a17.19,17.19,0,0,0,2-7.63A.79.79,0,0,0,102.24,76.86ZM95,81.69v2.68a1.09,1.09,0,0,1-1.08,1.08h-.13a1.09,1.09,0,0,1-1.08-1.08V81.72a2.2,2.2,0,1,1,2.3,0Z" style="fill:#0b7abe"/><path d="M115.75,69.22a5.94,5.94,0,0,0-.49-2.12c-.71-1.28-2.71-1.4-3-1.41h-37a3.46,3.46,0,0,0-2.45.94,4,4,0,0,0-1,2.18A5.48,5.48,0,0,0,71.71,70V96.21h15a2.59,2.59,0,0,1,.84.26,2.66,2.66,0,0,1,.94.83H98a2.66,2.66,0,0,1,.94-.83,2.59,2.59,0,0,1,.84-.26h16V70A7.61,7.61,0,0,0,115.75,69.22ZM112.26,93h-37V70h37Z" style="fill:#0b7abe"/><path d="M119.14,99.3v-.9a1,1,0,0,0-1-1H99.76a1.1,1.1,0,0,0-1.08,1.11v.85a.92.92,0,0,1-.92.92H88.59a.92.92,0,0,1-.92-.92v-.85s0-.89-.72-1.11H69.42a1,1,0,0,0-1,1v.88a3.68,3.68,0,0,0,4,3.91h43.3a3.73,3.73,0,0,0,2.37-1.12A3.78,3.78,0,0,0,119.14,99.3Z" style="fill:#0b7abe"/><path d="M264,67.15h-3.53v2.3h3a.88.88,0,0,1,.88.88V88.61a.88.88,0,0,1-.88.88H232.87a.88.88,0,0,1-.88-.88V70.33a.88.88,0,0,1,.88-.88h2.58v-2.3h-3.53a2.41,2.41,0,0,0-2.41,2.41V93a2.41,2.41,0,0,0,2.41,2.41h12.79a3.67,3.67,0,0,1-3.07,3.3h-.13a.76.76,0,0,0-.25,0h0a.77.77,0,0,0-.52.72v.17a.77.77,0,0,0,.77.77H254.7a.77.77,0,0,0,.77-.77v-.17a.77.77,0,0,0-.77-.77h-.38a3.67,3.67,0,0,1-3.07-3.3H264A2.41,2.41,0,0,0,266.46,93V69.56A2.41,2.41,0,0,0,264,67.15ZM248,94a1.47,1.47,0,1,1,1.47-1.47A1.47,1.47,0,0,1,248,94Z" style="fill:#8b8b8b"/><path d="M242.31,81.72h-2.87V65.93h12.21v1.22h2.55V65.21a2,2,0,0,0-2-2H238.78a2,2,0,0,0-2,2V82.44a2,2,0,0,0,2,2h3.52Z" style="fill:#8b8b8b"/><path d="M257.12,68.15h-7.38A1.76,1.76,0,0,0,248,69.91v3.92h1.17V71.9H258V83h-4.54v1a1,1,0,1,1,0,2.06v.64h3.69a1.76,1.76,0,0,0,1.76-1.76v-15A1.76,1.76,0,0,0,257.12,68.15Zm-2.33,2.72h-2.45a.69.69,0,0,1,0-1.37h2.45a.69.69,0,0,1,0,1.37Z" style="fill:#969796"/><path d="M253.67,79.83a.32.32,0,0,0-.06-.13.37.37,0,0,0-.14-.1,10.62,10.62,0,0,0-1.11-.21,4.47,4.47,0,0,0-.55-1.33c.37-.51.61-.85.64-.93a.33.33,0,0,0,0-.14.32.32,0,0,0-.05-.17,3.44,3.44,0,0,0-.85-.85.32.32,0,0,0-.14-.05.37.37,0,0,0-.17,0,10.63,10.63,0,0,0-.93.64A4.47,4.47,0,0,0,249,76c-.1-.63-.17-1-.2-1.12a.33.33,0,0,0-.07-.12.32.32,0,0,0-.16-.08,3.44,3.44,0,0,0-1.21,0,.32.32,0,0,0-.13.06.37.37,0,0,0-.1.14,10.78,10.78,0,0,0-.21,1.12,4.47,4.47,0,0,0-1.33.55c-.51-.37-.85-.61-.93-.64a.33.33,0,0,0-.14,0,.32.32,0,0,0-.17.05,3.44,3.44,0,0,0-.85.85.32.32,0,0,0-.05.14.37.37,0,0,0,0,.17,10.62,10.62,0,0,0,.64.93,4.47,4.47,0,0,0-.55,1.33c-.62.1-1,.17-1.11.2a.33.33,0,0,0-.12.07.32.32,0,0,0-.08.16,3.44,3.44,0,0,0,0,1.21.32.32,0,0,0,.06.13.37.37,0,0,0,.14.1,10.62,10.62,0,0,0,1.11.21,4.47,4.47,0,0,0,.55,1.33c-.37.51-.61.85-.64.93a.33.33,0,0,0,0,.14.32.32,0,0,0,.05.17,3.44,3.44,0,0,0,.85.85.32.32,0,0,0,.14.05.37.37,0,0,0,.17,0,10.63,10.63,0,0,0,.93-.64,4.47,4.47,0,0,0,1.33.55c.1.61.17,1,.2,1.1a.33.33,0,0,0,.07.12.32.32,0,0,0,.16.08,3.44,3.44,0,0,0,1.21,0,.32.32,0,0,0,.13-.06.37.37,0,0,0,.1-.14,10.46,10.46,0,0,0,.2-1.1,4.47,4.47,0,0,0,1.33-.55c.51.37.85.61.93.64a.33.33,0,0,0,.14,0,.32.32,0,0,0,.17-.05,3.44,3.44,0,0,0,.85-.85.32.32,0,0,0,.05-.14.37.37,0,0,0,0-.17,10.62,10.62,0,0,0-.64-.93,4.47,4.47,0,0,0,.55-1.33c.62-.1,1-.17,1.11-.2a.33.33,0,0,0,.12-.07.32.32,0,0,0,.08-.16A3.44,3.44,0,0,0,253.67,79.83Zm-5.69,3a2.37,2.37,0,1,1,2.37-2.37A2.37,2.37,0,0,1,248,82.8Z" style="fill:#8c8c8c"/><path d="M72.7,236.31s-.16-.87.57-.95h3.51s.68,0,.68.95v12.62a.64.64,0,0,1-.71.61H73.1a.61.61,0,0,1-.43-.69Z" style="fill:#11b1e1"/><path d="M78.6,247V238.1s2.33-1.9,8.43-1.9a15.19,15.19,0,0,1,8.7,2.62l.31.2s2.28-.61,8.25,1c0,0,2.44.25,2.55,2.39a2.92,2.92,0,0,1-1.92,2.46l-10.24-.42s1.14,1.46,4.68,1.84c0,0,6.24.16,7.93-1.23,0,0,2.75-2.41,3.45-2.37a3.33,3.33,0,0,1,2.71.28,1.47,1.47,0,0,1,0,2.37s1.52,0,.24,2l-5.49,4-.94.53a27.32,27.32,0,0,1-2.86.61c-1.65.26-5.63,1.06-5.63,1.06s-4.66.71-6.1-.34L85,249.53l-3.09-1.37a4.59,4.59,0,0,0-1.83-.51A1.61,1.61,0,0,1,78.6,247Z" style="fill:#11b1e1"/><path d="M114.94,225.82l-3.14-.45a2.33,2.33,0,0,0-.43-1.84l2.51-2.21L112,218.48l-2.79,1.15s-1.14-1.38-1.65-1.46l1.29-2.89L106,213.44l-1.92,2.41s-1.5-.61-2-.44l-.72-3.07H98.21l-.55,2.92a10.37,10.37,0,0,0-2,.61l-2-2.41-3.14,1.78,1.29,2.89a3.67,3.67,0,0,0-1.57,1.38l-2.87-1.11-1.73,2.92,2.47,2a7.88,7.88,0,0,0-.67,2.13l-3.19.38v3.36l3,.45s.61,1.7.79,2l-2.44,2.09.87,1.6a14.76,14.76,0,0,1,9.32,2.46s10.74.47,11.47,3.21l1.57-.9-1.1-3.11a8.39,8.39,0,0,0,1.52-1.26L112,237l1.89-3.07-2.51-2.37a2.32,2.32,0,0,0,.55-2h3.05Zm-15.06,8.84a7.07,7.07,0,1,1,7-7.09v0A7,7,0,0,1,99.88,234.67Z" style="fill:#11b1e1"/><path d="M271.76,230.58H247.61a15.65,15.65,0,1,0,.12,14.62h3.18l2.39-2.12h.44l2.66,2.12h4.95l2.44-2.12h.6l2.39,2.12H272l4.93-5.39v-4.18ZM270.58,242h-2.77l-2.45-2h-2.71l-2.48,2h-2.6l-2.54-2h-3l-2.25,2h-4.11a12.47,12.47,0,1,1-.07-8.11h24.78l1.36,1.35h-21.2s-2.24,1-1.4,1.89a1.4,1.4,0,0,0,1.24.54h23.29v.9Z" style="fill:#f06a21"/><path d="M231.41,248.44a10.66,10.66,0,0,0,4.76,0Z" style="fill:#f06a21"/><path d="M228,240.09h11.51a3.73,3.73,0,0,1,3.65,3,10.7,10.7,0,1,0-18.8,0A3.73,3.73,0,0,1,228,240.09Zm5.75-9.93a4.39,4.39,0,1,1-4.39,4.39A4.39,4.39,0,0,1,233.8,230.16Z" style="fill:#f06a21"/><path d="M227.6,246.73a10.69,10.69,0,0,0,1,.63v-4h-1Z" style="fill:#f06a21"/><path d="M238.72,247.5a10.7,10.7,0,0,0,1-.59V243.4h-1Z" style="fill:#f06a21"/><circle cx="233.8" cy="238.01" r="10.7" style="fill:none;stroke:#f06a21;stroke-miterlimit:10"/><text transform="translate(68.7 114.89)" style="font-size:10.520319938659668px;font-family:Raleway-Medium, Raleway Medium">S<tspan x="6.41" y="0" style="letter-spacing:-0.013970359942182986em">E</tspan><tspan x="12.62" y="0">CURIT</tspan><tspan x="43.85" y="0" style="letter-spacing:-0.036991285295414754em">Y</tspan><tspan x="-12.3" y="12.62">MAN</tspan><tspan x="12.12" y="12.62" style="letter-spacing:-0.025991367334293927em">A</tspan><tspan x="18.97" y="12.62">GEMEN</tspan><tspan x="56.5" y="12.62" style="letter-spacing:-0.02998289874634621em">T</tspan></text><text transform="translate(228.59 112.96)" style="font-size:10.520319938659668px;font-family:Raleway-Medium, Raleway Medium">I<tspan x="2.74" y="0" style="letter-spacing:-0.02998289874634621em">T</tspan><tspan x="8.88" y="0" style="letter-spacing:-0.03100398817733633em"> </tspan><tspan x="11.21" y="0" style="letter-spacing:-0.009978828530130705em">A</tspan><tspan x="18.23" y="0">SSE</tspan><tspan x="37.41" y="0" style="letter-spacing:-0.030029311902300307em">T</tspan><tspan x="-15.7" y="12.62">MAN</tspan><tspan x="8.72" y="12.62" style="letter-spacing:-0.025991367334293927em">A</tspan><tspan x="15.57" y="12.62">GEMEN</tspan><tspan x="53.11" y="12.62" style="letter-spacing:-0.02998289874634621em">T</tspan></text><text transform="translate(66.58 266.38)" style="font-size:10.520319938659668px;font-family:Raleway-Medium, Raleway Medium">I<tspan x="2.74" y="0" style="letter-spacing:-0.02998289874634621em">T</tspan><tspan x="8.88" y="0" xml:space="preserve"> SE</tspan><tspan x="24.31" y="0" style="letter-spacing:-0.020004070216215506em">R</tspan><tspan x="31.01" y="0">VICE</tspan><tspan x="-10.25" y="12.62">MAN</tspan><tspan x="14.17" y="12.62" style="letter-spacing:-0.025991367334293927em">A</tspan><tspan x="21.01" y="12.62">GEMEN</tspan><tspan x="58.55" y="12.62" style="letter-spacing:-0.02998289874634621em">T</tspan></text><polygon points="224.45 152.38 190.97 118.9 190.97 110.6 190.97 110.6 153.11 73.03 153.11 73.03 152.06 71.98 152.06 119.87 119.24 152.69 115.22 152.69 115.22 152.69 110.11 152.69 71.68 191.41 110.11 191.41 118.97 191.41 152.25 224.69 152.25 233.5 152.25 233.5 189.11 270.08 191.22 272.21 191.22 224.72 224.52 191.41 227.89 191.41 233.01 191.41 269.28 154.86 271.75 152.38 224.45 152.38" style="fill:#2d307a"/><text transform="translate(201.5 266.93)" style="font-size:10.520319938659668px;font-family:Raleway-Medium, Raleway Medium">IDENTIT<tspan x="40.39" y="0" style="letter-spacing:-0.036991285295414754em">Y</tspan><tspan x="46.89" y="0" style="letter-spacing:-0.03100398817733633em"> </tspan><tspan x="49.22" y="0" style="letter-spacing:-0.02594495417833983em">A</tspan><tspan x="56.07" y="0" style="letter-spacing:-0.00802947598005866em">C</tspan><tspan x="63.16" y="0">CESS</tspan><tspan x="7.29" y="12.62">MAN</tspan><tspan x="31.7" y="12.62" style="letter-spacing:-0.025991367334293927em">A</tspan><tspan x="38.55" y="12.62">GEMEN</tspan><tspan x="76.09" y="12.62" style="letter-spacing:-0.02998289874634621em">T</tspan></text><polygon points="290.36 351.44 206.89 351.44 173.1 317.65 139.31 351.44 56.5 351.44 0.67 408.43 345.59 408.43 290.36 351.44" style="fill:#00968d"/><g id="Layer_2-2" data-name="Layer 2"><g id="Layer_1-2-2" data-name="Layer 1-2"><path d="M173.13,340l-23.06,14.41h46.12Zm13,17.29,1.44,2.88v17.29h5.76V360.16l1.44-2.88Zm-11.53,0,1.44,2.88v17.29h5.76V360.16l1.44-2.88Zm-11.53,0,1.44,2.88v17.29h5.76V360.16l1.44-2.88Zm-11.53,0,1.44,2.88v17.29h5.76V360.16l1.44-2.88Zm0,23.06-1.44,5.76h46.12l-1.44-5.76ZM176,348.63a2.88,2.88,0,1,1-2.88-2.88,2.88,2.88,0,0,1,2.88,2.88Z" style="fill:#fff"/></g></g><text transform="translate(135.36 401.09)" style="font-size:10.520319938659668px;fill:#fff;font-family:Raleway-Medium, Raleway Medium">G<tspan x="7.51" y="0" style="letter-spacing:-0.02701245676528405em">O</tspan><tspan x="15.1" y="0">VERNANCE</tspan></text><circle cx="98.8" cy="172.52" r="1.24" style="fill:#969796;stroke:#fff;stroke-miterlimit:10;stroke-width:0.5px"/><circle cx="102.05" cy="175.77" r="1.24" style="fill:#969796;stroke:#fff;stroke-miterlimit:10;stroke-width:0.5px"/><circle cx="102.05" cy="170.01" r="1.24" style="fill:#969796;stroke:#fff;stroke-miterlimit:10;stroke-width:0.5px"/><circle cx="105.26" cy="167.19" r="1.24" style="fill:#969796;stroke:#fff;stroke-miterlimit:10;stroke-width:0.5px"/><circle cx="105.26" cy="178.65" r="1.24" style="fill:#969796;stroke:#fff;stroke-miterlimit:10;stroke-width:0.5px"/><path d="M121.66,167.25l-.88,2.31h-8a1,1,0,0,0-1,1,.84.84,0,0,0,.79.81h5.3s3.44-.08,2,3.16l-.78,2a2.07,2.07,0,0,1-2,1.24h-9.78l.92-2.59,8.15,0s1-.16,1-.88c0,0,0-.64-1.19-.66l-5,0s-2.18-.12-2-1.9c0,0,.5-4.54,2.55-4.47Z" style="fill:#f06a21;stroke:#fff;stroke-miterlimit:10;stroke-width:0.5px"/><path d="M134.74,167.25h-9.67s-1-.26-1.5,1.32l-1.91,6s-1.28,3.24,2.25,3.24h10.21l.88-2.54-10.21-.05s-.6.18-.47-.91c0,0-.12-.65,1-.62l7.76,0a4.59,4.59,0,0,0,4-4A2.14,2.14,0,0,0,134.74,167.25Zm-.81,3.9a1.59,1.59,0,0,1-1.12.22h-6.69c-.58,0-.7,0-.78-.08s.11-.92.57-1.3a1.85,1.85,0,0,1,1.19-.39h6.27a1.1,1.1,0,0,1,.91.35.74.74,0,0,1,.17.47A1,1,0,0,1,133.93,171.16Z" style="fill:#f06a21;stroke:#fff;stroke-miterlimit:10;stroke-width:0.5px"/><path d="M139.11,177.77h-2.63l2.63-8.52s.66-2,2-2h9.47l-.86,2.31-7,0s-1.21-.31-1.66,1.31Z" style="fill:#f06a21;stroke:#fff;stroke-miterlimit:10;stroke-width:0.5px"/><path d="M151.63,167.25l.13,7.93s0,2.59,2.1,2.59h3.63s.93.29,3.16-2.54l5.29-8h-2.85l-4.3,6.94s-.65,1-1,1H155s-.57.05-.57-.75l0-5.44v-1.79Z" style="fill:#f06a21;stroke:#fff;stroke-miterlimit:10;stroke-width:0.5px"/><polygon points="167.05 167.25 169.67 167.25 166.33 177.78 163.74 177.78 167.05 167.25" style="fill:#f06a21;stroke:#fff;stroke-miterlimit:10;stroke-width:0.5px"/><path d="M172.83,167.25s-1.17-.08-1.45.65l-2,5.86a5.75,5.75,0,0,0-.31,2.69s.41,1.34,1.5,1.33h8.55l.93-2.57h-7.57s-1.14.16-.7-1.14l1.35-3.89a.89.89,0,0,1,1-.62l7.46,0,1-2.33Z" style="fill:#f06a21;stroke:#fff;stroke-miterlimit:10;stroke-width:0.5px"/><path d="M195.17,167.25H185.5s-1-.26-1.5,1.32l-1.91,6s-1.28,3.24,2.25,3.24h10.21l.88-2.54-10.21-.05s-.6.18-.47-.91c0,0-.12-.65,1-.62l7.76,0a4.59,4.59,0,0,0,4-4A2.14,2.14,0,0,0,195.17,167.25Zm-.81,3.9a1.59,1.59,0,0,1-1.12.22h-6.69c-.58,0-.7,0-.78-.08s.11-.92.57-1.3a1.85,1.85,0,0,1,1.19-.39h6.27a1.1,1.1,0,0,1,.91.35.74.74,0,0,1,.17.47A1,1,0,0,1,194.35,171.16Z" style="fill:#f06a21;stroke:#fff;stroke-miterlimit:10;stroke-width:0.5px"/><polygon points="206.03 167.25 208.65 167.25 205.31 177.78 202.72 177.78 206.03 167.25" style="fill:#2d307a;stroke:#fff;stroke-miterlimit:10;stroke-width:0.5px"/><path d="M220.47,167.25H209.63l-.9,2.38H213l-2.57,8.16H213l2.59-8.17h3.93Z" style="fill:#2d307a;stroke:#fff;stroke-miterlimit:10;stroke-width:0.5px"/><path d="M230.15,167.25H227l.92-2.94-2.28,0-1,3h-3.19l-.66,2h3.2l-.92,2.85h2.37l.89-2.85h3.06Z" style="fill:#f06a21;stroke:#fff;stroke-miterlimit:10;stroke-width:0.5px"/><circle cx="239.97" cy="172.88" r="1.24" style="fill:#969796;stroke:#fff;stroke-miterlimit:10;stroke-width:0.5px"/><circle cx="237.11" cy="175.7" r="1.24" style="fill:#969796;stroke:#fff;stroke-miterlimit:10;stroke-width:0.5px"/><circle cx="237.11" cy="169.94" r="1.24" style="fill:#969796;stroke:#fff;stroke-miterlimit:10;stroke-width:0.5px"/><circle cx="233.89" cy="167.12" r="1.24" style="fill:#969796;stroke:#fff;stroke-miterlimit:10;stroke-width:0.5px"/><circle cx="233.89" cy="178.58" r="1.24" style="fill:#969796;stroke:#fff;stroke-miterlimit:10;stroke-width:0.5px"/></g></g></svg>