<svg xmlns="http://www.w3.org/2000/svg" viewBox="0 0 629.11 629.7"><title>Asset 90</title><g id="Layer_2" data-name="Layer 2"><g id="Layer_1-2" data-name="Layer 1"><path d="M0,381.88V527.74l102,102H247.82l102-102V381.88l-102-102H102Zm218.25-31,60.62,60.62v86.71l-60.62,60.62H131.54L70.92,498.16V411.45l60.62-60.62Z" style="fill:#11b2e2"/><polygon points="133.78 350.83 218.25 350.83 278.87 411.45 278.87 498.16 218.25 558.78 132.64 558.78 200.1 629.7 247.82 629.7 349.79 527.74 349.79 381.88 247.82 279.91 204.71 279.91 133.78 350.83" style="fill:#0ea2c6"/><path d="M381.29,628.9H527.14l102-102V381.08l-102-102H381.29l-102,102V526.93Zm-31-218.25L410.86,350h86.71l60.62,60.62v86.71L497.57,558H410.86l-60.62-60.62Z" style="fill:#f16a21"/><polygon points="350.24 495.12 350.24 410.65 410.86 350.03 497.57 350.03 558.19 410.65 558.19 496.26 629.11 428.8 629.11 381.07 527.14 279.11 381.29 279.11 279.32 381.07 279.32 424.19 350.24 495.12" style="fill:#c6501c"/><path d="M628.31,248.63V102.77L526.34.8H380.48l-102,102V248.63l102,102H526.34Zm-218.25,31-60.62-60.62V132.34l60.62-60.62h86.71l60.62,60.62v86.71l-60.62,60.62Z" style="fill:#979897"/><polygon points="494.52 279.67 410.06 279.67 349.44 219.05 349.44 132.34 410.06 71.72 495.67 71.72 428.21 0.8 380.48 0.8 278.52 102.77 278.52 248.63 380.48 350.6 423.6 350.6 494.52 279.67" style="fill:#8c8c8c"/><path d="M247.82,0H102L0,102V247.82l102,102H247.82l102-102V102Zm31,218.25-60.62,60.62H131.54L70.92,218.25V131.54l60.62-60.62h86.71l60.62,60.62Z" style="fill:#0b7abf"/><polygon points="278.87 133.78 278.87 218.25 218.25 278.87 131.54 278.87 70.92 218.25 70.92 132.64 0 200.1 0 247.82 101.97 349.79 247.82 349.79 349.79 247.82 349.79 204.71 278.87 133.78" style="fill:#156aa0"/><path d="M187.27,140.78a1.42,1.42,0,0,0-.46-.44,28.13,28.13,0,0,1-13.83-7,1.65,1.65,0,0,0-1.31-.63,2.36,2.36,0,0,0-1.46.83,29.64,29.64,0,0,1-13.55,6.82,1.18,1.18,0,0,0-.44.25,1.48,1.48,0,0,0-.38,1.26,26.13,26.13,0,0,0,5.64,16.39,24,24,0,0,0,10.22,7.7,21.91,21.91,0,0,0,5.45-2.81,22.27,22.27,0,0,0,6.64-7.53,31.48,31.48,0,0,0,3.71-14A1.45,1.45,0,0,0,187.27,140.78Zm-13.32,8.84v4.91a2,2,0,0,1-2,2h-.24a2,2,0,0,1-2-2v-4.84a4,4,0,1,1,4.22-.07Z" style="fill:#0b7abf"/><path d="M212,126.79a10.87,10.87,0,0,0-.9-3.88c-1.31-2.34-5-2.56-5.48-2.58H137.77a6.34,6.34,0,0,0-4.49,1.72,7.34,7.34,0,0,0-1.76,4,10,10,0,0,0-.17,2.22v48h27.52a4.74,4.74,0,0,1,1.53.47,4.88,4.88,0,0,1,1.72,1.51h17.31a4.88,4.88,0,0,1,1.72-1.51,4.74,4.74,0,0,1,1.53-.47H212v-48A13.94,13.94,0,0,0,212,126.79Zm-6.38,43.51H137.77v-42h67.85Z" style="fill:#0b7abf"/><path d="M218.21,181.88v-1.65a1.75,1.75,0,0,0-1.75-1.75H182.72a2,2,0,0,0-2,2v1.56a1.68,1.68,0,0,1-1.68,1.68H162.27a1.68,1.68,0,0,1-1.68-1.68v-1.56s0-1.62-1.32-2H127.15a1.75,1.75,0,0,0-1.75,1.75v1.62a6.74,6.74,0,0,0,7.34,7.16h79.31a6.83,6.83,0,0,0,4.34-2.06A6.92,6.92,0,0,0,218.21,181.88Z" style="fill:#0b7abf"/><path d="M483.64,123h-6.47v4.21h5.44a1.62,1.62,0,0,1,1.61,1.61V162.3a1.62,1.62,0,0,1-1.61,1.61H426.54a1.62,1.62,0,0,1-1.61-1.61V128.83a1.62,1.62,0,0,1,1.61-1.61h4.72V123h-6.47a4.42,4.42,0,0,0-4.41,4.41v42.92a4.42,4.42,0,0,0,4.41,4.41h23.43a6.72,6.72,0,0,1-5.63,6.05h-.24a1.39,1.39,0,0,0-.46.08h0a1.41,1.41,0,0,0-1,1.33v.31a1.42,1.42,0,0,0,1.41,1.41h24.16a1.42,1.42,0,0,0,1.41-1.41v-.31a1.42,1.42,0,0,0-1.41-1.41h-.7a6.72,6.72,0,0,1-5.63-6.05h23.44a4.42,4.42,0,0,0,4.41-4.41V127.41A4.42,4.42,0,0,0,483.64,123Zm-29.42,49.15a2.69,2.69,0,1,1,2.69-2.69A2.69,2.69,0,0,1,454.22,172.15Z" style="fill:#8c8c8c"/><path d="M443.81,149.69h-5.26V120.76h22.36V123h4.66v-3.56a3.59,3.59,0,0,0-3.59-3.59H437.36a3.59,3.59,0,0,0-3.59,3.59V151a3.59,3.59,0,0,0,3.59,3.59h6.46Z" style="fill:#8c8c8c"/><path d="M471,124.82H457.44a3.23,3.23,0,0,0-3.23,3.23v7.17h2.15V131.7h16.14V152H464.2v1.87a1.89,1.89,0,0,1,0,3.78v1.17H471a3.23,3.23,0,0,0,3.23-3.23V128A3.23,3.23,0,0,0,471,124.82Zm-4.27,5H462.2a1.26,1.26,0,1,1,0-2.51h4.48a1.26,1.26,0,1,1,0,2.51Z" style="fill:#979897"/><path d="M464.64,146.22a.59.59,0,0,0-.11-.24.67.67,0,0,0-.26-.19,19.45,19.45,0,0,0-2-.38,8.2,8.2,0,0,0-1-2.43c.67-.93,1.11-1.56,1.18-1.69a.61.61,0,0,0,.06-.25.59.59,0,0,0-.1-.31,6.3,6.3,0,0,0-1.56-1.56.59.59,0,0,0-.25-.09.67.67,0,0,0-.31,0,19.46,19.46,0,0,0-1.7,1.17,8.2,8.2,0,0,0-2.43-1c-.18-1.15-.32-1.91-.37-2.06a.61.61,0,0,0-.13-.22.59.59,0,0,0-.29-.15,6.3,6.3,0,0,0-2.21,0,.59.59,0,0,0-.24.11.67.67,0,0,0-.19.26,19.74,19.74,0,0,0-.38,2.06,8.2,8.2,0,0,0-2.43,1c-.93-.67-1.56-1.11-1.69-1.18a.61.61,0,0,0-.25-.06.59.59,0,0,0-.31.1,6.3,6.3,0,0,0-1.56,1.56.59.59,0,0,0-.09.25.67.67,0,0,0,0,.31,19.46,19.46,0,0,0,1.17,1.7,8.2,8.2,0,0,0-1,2.43c-1.13.18-1.89.31-2,.36a.61.61,0,0,0-.22.13.59.59,0,0,0-.15.29,6.3,6.3,0,0,0,0,2.21.59.59,0,0,0,.11.24.67.67,0,0,0,.26.19,19.45,19.45,0,0,0,2,.38,8.2,8.2,0,0,0,1,2.43c-.67.93-1.11,1.56-1.18,1.69a.61.61,0,0,0-.06.25.59.59,0,0,0,.1.31,6.3,6.3,0,0,0,1.56,1.56.59.59,0,0,0,.25.09.67.67,0,0,0,.31,0,19.46,19.46,0,0,0,1.7-1.17,8.2,8.2,0,0,0,2.44,1c.18,1.12.31,1.86.36,2a.61.61,0,0,0,.13.22.59.59,0,0,0,.29.15,6.3,6.3,0,0,0,2.21,0,.59.59,0,0,0,.24-.11.67.67,0,0,0,.19-.26,19.16,19.16,0,0,0,.37-2,8.2,8.2,0,0,0,2.43-1c.93.67,1.56,1.11,1.69,1.18a.61.61,0,0,0,.25.06.59.59,0,0,0,.31-.1,6.3,6.3,0,0,0,1.56-1.56.59.59,0,0,0,.09-.25.67.67,0,0,0,0-.31,19.46,19.46,0,0,0-1.17-1.7,8.2,8.2,0,0,0,1-2.43c1.13-.18,1.89-.31,2-.36a.61.61,0,0,0,.22-.13.59.59,0,0,0,.15-.29A6.3,6.3,0,0,0,464.64,146.22Zm-10.42,5.45a4.35,4.35,0,1,1,4.35-4.35A4.35,4.35,0,0,1,454.22,151.67Z" style="fill:#8c8c8c"/><path d="M133.16,432.83s-.29-1.6,1.05-1.73h6.43s1.25,0,1.25,1.73v23.11a1.16,1.16,0,0,1-1.3,1.12h-6.71a1.12,1.12,0,0,1-.79-1.26Z" style="fill:#11b2e2"/><path d="M144,452.36V436.11s4.27-3.48,15.44-3.48a27.83,27.83,0,0,1,15.94,4.8l.57.36s4.17-1.12,15.1,1.88c0,0,4.47.46,4.67,4.39,0,0-.36,3.64-3.52,4.5l-18.76-.78s2.09,2.68,8.56,3.37c0,0,11.44.29,14.53-2.25,0,0,5-4.42,6.33-4.34,0,0,3.14-1,5,.51a2.68,2.68,0,0,1,0,4.34s2.78,0,.44,3.62l-10.06,7.33-1.72,1a50,50,0,0,1-5.23,1.12c-3,.48-10.31,1.93-10.31,1.93s-8.54,1.3-11.18-.63L155.66,457,150,454.53a8.41,8.41,0,0,0-3.35-.93A3,3,0,0,1,144,452.36Z" style="fill:#11b2e2"/><path d="M210.53,413.63l-5.76-.82a4.27,4.27,0,0,0-.79-3.37l4.61-4-3.35-5.21-5.11,2.1s-2.09-2.53-3-2.68l2.37-5.29-5.32-3.37-3.52,4.42s-2.74-1.12-3.67-.8l-1.32-5.62h-5.76l-1,5.35a19,19,0,0,0-3.67,1.12l-3.6-4.42-5.76,3.26,2.37,5.29a6.72,6.72,0,0,0-2.87,2.53l-5.25-2-3.16,5.35,4.53,3.69a14.44,14.44,0,0,0-1.22,3.9l-5.84.7v6.15l5.48.83s1.12,3.12,1.44,3.62l-4.47,3.84,1.59,2.92a27,27,0,0,1,17.07,4.5s19.67.87,21,5.88l2.88-1.64-2-5.69a15.36,15.36,0,0,0,2.78-2.32l4.89,2.38,3.45-5.62-4.61-4.34s1.22-1,1-3.67h5.59Zm-27.58,16.2a12.95,12.95,0,1,1,12.82-13v0A12.91,12.91,0,0,1,182.95,429.82Z" style="fill:#11b2e2"/><path d="M497.77,422.34H453.53a28.66,28.66,0,1,0,.22,26.79h5.82l4.37-3.88h.81l4.86,3.88h9.06l4.48-3.88h1.09l4.37,3.88h9.55l9-9.87v-7.65Zm-2.17,20.85h-5.08L486,439.43h-5l-4.55,3.75h-4.76l-4.65-3.75h-5.5l-4.12,3.75H450a22.83,22.83,0,1,1-.13-14.86h45.4l2.49,2.47H458.89s-4.11,1.82-2.57,3.45a2.56,2.56,0,0,0,2.27,1h42.66v1.66Z" style="fill:#f16a21"/><path d="M423.87,455a19.53,19.53,0,0,0,8.72,0Z" style="fill:#f16a21"/><path d="M417.69,439.75h21.08a6.82,6.82,0,0,1,6.68,5.55,19.6,19.6,0,1,0-34.44,0A6.82,6.82,0,0,1,417.69,439.75Zm10.54-18.19a8,8,0,1,1-8,8A8,8,0,0,1,428.23,421.56Z" style="fill:#f16a21"/><path d="M416.88,451.91a19.58,19.58,0,0,0,1.83,1.16v-7.26h-1.83Z" style="fill:#f16a21"/><path d="M437.25,453.33a19.59,19.59,0,0,0,1.83-1.08v-6.45h-1.83Z" style="fill:#f16a21"/><circle cx="428.23" cy="435.94" r="19.6" style="fill:none;stroke:#f16a21;stroke-miterlimit:10"/><text transform="translate(125.84 210.43)" style="font-size:19.269329071044922px;font-family:Raleway-Medium, Raleway Medium">S<tspan x="11.73" y="0" style="letter-spacing:-0.013987578343088832em">E</tspan><tspan x="23.12" y="0">CURIT</tspan><tspan x="80.31" y="0" style="letter-spacing:-0.03699613112483641em">Y</tspan><tspan x="-22.53" y="23.12">MAN</tspan><tspan x="22.2" y="23.12" style="letter-spacing:-0.02597331123490227em">A</tspan><tspan x="34.74" y="23.12">GEMEN</tspan><tspan x="103.5" y="23.12" style="letter-spacing:-0.03000234195329199em">T</tspan></text><text transform="translate(418.69 206.89)" style="font-size:19.269329071044922px;font-family:Raleway-Medium, Raleway Medium">I<tspan x="5.01" y="0" style="letter-spacing:-0.03000234195329199em">T</tspan><tspan x="16.26" y="0" style="letter-spacing:-0.030990594771010217em"> </tspan><tspan x="20.54" y="0" style="letter-spacing:-0.009983887440538044em">A</tspan><tspan x="33.39" y="0">SSE</tspan><tspan x="68.52" y="0" style="letter-spacing:-0.03000234195329199em">T</tspan><tspan x="-28.75" y="23.12">MAN</tspan><tspan x="15.97" y="23.12" style="letter-spacing:-0.02597331123490227em">A</tspan><tspan x="28.52" y="23.12">GEMEN</tspan><tspan x="97.27" y="23.12" style="letter-spacing:-0.03000234195329199em">T</tspan></text><text transform="translate(121.95 487.9)" style="font-size:19.269329071044922px;font-family:Raleway-Medium, Raleway Medium">I<tspan x="5.01" y="0" style="letter-spacing:-0.03000234195329199em">T</tspan><tspan x="16.26" y="0" xml:space="preserve"> SE</tspan><tspan x="44.53" y="0" style="letter-spacing:-0.019993114696915015em">R</tspan><tspan x="56.81" y="0">VICE</tspan><tspan x="-18.78" y="23.12">MAN</tspan><tspan x="25.95" y="23.12" style="letter-spacing:-0.02597331123490227em">A</tspan><tspan x="38.49" y="23.12">GEMEN</tspan><tspan x="107.24" y="23.12" style="letter-spacing:-0.03000234195329199em">T</tspan></text><polygon points="411.11 279.11 349.79 217.79 349.79 202.58 349.79 202.58 280.44 133.76 280.44 133.76 278.52 131.85 278.52 219.55 218.4 279.67 211.04 279.67 211.04 279.67 201.67 279.67 131.29 350.6 201.67 350.6 217.91 350.6 278.87 411.55 278.87 427.69 278.88 427.69 346.38 494.69 350.24 498.59 350.24 411.6 411.25 350.6 417.42 350.6 426.78 350.6 493.23 283.65 497.75 279.11 411.11 279.11" style="fill:#2d307a"/><text transform="translate(369.08 488.92)" style="font-size:19.269329071044922px;font-family:Raleway-Medium, Raleway Medium">IDENTIT<tspan x="73.97" y="0" style="letter-spacing:-0.03699613112483641em">Y</tspan><tspan x="85.88" y="0" style="letter-spacing:-0.030990594771010217em"> </tspan><tspan x="90.16" y="0" style="letter-spacing:-0.02597331123490227em">A</tspan><tspan x="102.71" y="0" style="letter-spacing:-0.008007381805101578em">C</tspan><tspan x="115.69" y="0">CESS</tspan><tspan x="13.34" y="23.12">MAN</tspan><tspan x="58.07" y="23.12" style="letter-spacing:-0.02597331123490227em">A</tspan><tspan x="70.61" y="23.12">GEMEN</tspan><tspan x="139.36" y="23.12" style="letter-spacing:-0.03000234195329199em">T</tspan></text><g id="Layer_2-2" data-name="Layer 2"><g id="Layer_1-2-2" data-name="Layer 1-2"><path d="M314.23,251.72,272,278.12h84.47ZM338,283.4l2.64,5.28v31.68h10.56V288.68l2.64-5.28Zm-21.12,0,2.64,5.28v31.68h10.56V288.68l2.64-5.28Zm-21.12,0,2.64,5.28v31.68h10.56V288.68l2.64-5.28Zm-21.12,0,2.64,5.28v31.68h10.56V288.68l2.64-5.28Zm0,42.24L272,336.2h84.47l-2.64-10.56Zm44.88-58.07a5.28,5.28,0,1,1-5.28-5.28,5.28,5.28,0,0,1,5.28,5.28Z" style="fill:#fff"/></g></g><text transform="translate(247.93 360.52)" style="font-size:19.269329071044922px;fill:#fff;font-family:Raleway-Medium, Raleway Medium">G<tspan x="13.76" y="0" style="letter-spacing:-0.026986903868459432em">O</tspan><tspan x="27.65" y="0">VERNANCE</tspan></text></g></g></svg>