<svg xmlns="http://www.w3.org/2000/svg" xmlns:xlink="http://www.w3.org/1999/xlink" viewBox="0 0 318.98 318.98"><defs><linearGradient id="linear-gradient" x1="159.49" y1="318.98" x2="159.49" gradientUnits="userSpaceOnUse"><stop offset="0" stop-color="#989898"/><stop offset="1" stop-color="#333"/></linearGradient><linearGradient id="linear-gradient-2" x1="157.85" y1="200.8" x2="157.85" y2="53.06" gradientTransform="matrix(1, 0, 0, 1.07, 0.18, -44.02)" gradientUnits="userSpaceOnUse"><stop offset="0.45" stop-color="#c5501c"/><stop offset="0.72" stop-color="#f06a21"/></linearGradient><linearGradient id="linear-gradient-3" x1="170.73" y1="153.55" x2="271.75" y2="254.57" gradientUnits="userSpaceOnUse"><stop offset="0" stop-color="#81500d"/><stop offset="0.61" stop-color="#fb9a0f"/></linearGradient><linearGradient id="linear-gradient-4" x1="157.46" y1="203.53" x2="29.2" y2="203.53" gradientUnits="userSpaceOnUse"><stop offset="0" stop-color="#084a6d"/><stop offset="0.61" stop-color="#138bc8"/></linearGradient><radialGradient id="radial-gradient" cx="157.46" cy="166.89" r="69.17" gradientUnits="userSpaceOnUse"><stop offset="0" stop-color="#e5e5e5"/><stop offset="1" stop-color="#cbcbcb"/></radialGradient></defs><title>Asset 110</title><g id="Layer_2" data-name="Layer 2"><g id="Layer_1-2" data-name="Layer 1"><rect width="318.98" height="318.98" rx="72.62" ry="72.62" style="fill:url(#linear-gradient)"/><polygon points="221.8 132.02 157.66 171.39 93.86 131.49 94.19 52.22 158.33 12.86 222.13 52.76 221.8 132.02" style="fill:url(#linear-gradient-2)"/><polygon points="285.06 241.27 220.93 277.93 157.11 240.73 157.42 166.86 221.55 130.19 285.37 167.4 285.06 241.27" style="fill:url(#linear-gradient-3)"/><polygon points="157.15 240.73 93.02 277.4 29.2 240.19 29.51 166.32 93.64 129.66 157.46 166.86 157.15 240.73" style="fill:url(#linear-gradient-4)"/><polygon points="221.28 204.09 157.15 240.76 93.33 203.55 93.64 129.68 157.77 93.02 221.59 130.22 221.28 204.09" style="fill:url(#radial-gradient)"/><g style="opacity:0.6000000000000001"><circle cx="156.58" cy="37.13" r="3.83" style="fill:#fff"/><circle cx="146.14" cy="29.47" r="3.83" style="fill:#fff"/><circle cx="166.94" cy="29.61" r="3.83" style="fill:#fff"/><path d="M150,37.9c0-.11,0-.22,0-.34h0V36H140.9a2.42,2.42,0,0,0-2.42,2.42V54.2h8.19a4.45,4.45,0,0,1-.21-1.35V45.92a4.51,4.51,0,0,1,4.49-4.49h.13v-.5A4.82,4.82,0,0,1,150,37.9Z" style="fill:#fff"/><circle cx="165.22" cy="53.44" r="9.32" style="fill:none"/><path d="M165.22,41.83a11.62,11.62,0,1,0,11.62,11.62A11.62,11.62,0,0,0,165.22,41.83Zm0,20.43A8.81,8.81,0,1,1,174,53.46,8.81,8.81,0,0,1,165.22,62.27Z" style="fill:#fff"/><path d="M169.24,52.3V51.6a4.12,4.12,0,1,0-8.18,0v.69H159.8v6.24h10.6V52.3Zm-2.12-.16h-3.73s-.37-2.71,1.87-2.73S167.12,52.13,167.12,52.13Z" style="fill:#fff"/><path d="M154.31,53.7a10.9,10.9,0,0,1,5.9-9.68,2.38,2.38,0,0,0-1.21-.34h-7.77a2.42,2.42,0,0,0-2.42,2.42v13.4q0,.3,0,.61v1.81h9.24A10.87,10.87,0,0,1,154.31,53.7Z" style="fill:#fff"/><path d="M162,44a10.85,10.85,0,0,1,12.6,4V38.39A2.42,2.42,0,0,0,172.15,36h-9.33v1.59h0c0,.11,0,.22,0,.34a4.75,4.75,0,0,1-.86,2.69Z" style="fill:#fff"/></g><text transform="translate(109.14 75.56)" style="font-size:11px;fill:#333;font-family:Raleway-Regular, Raleway"><tspan style="letter-spacing:-0.005992542613636364em">I</tspan><tspan x="2.66" y="0">de</tspan><tspan x="15.96" y="0" style="letter-spacing:-0.004971590909090909em">n</tspan><tspan x="22.32" y="0" style="letter-spacing:-0.00004438920454545455em">tit</tspan><tspan x="32.09" y="0" style="letter-spacing:-0.026988636363636364em">y</tspan><tspan x="37.75" y="0" xml:space="preserve"> and</tspan><tspan x="59.81" y="0" style="letter-spacing:-0.030983664772727272em"> </tspan><tspan x="62.27" y="0" style="letter-spacing:-0.013982599431818182em">A</tspan><tspan x="69.55" y="0" style="letter-spacing:-0.004971590909090909em">cc</tspan><tspan x="81.52" y="0">ess</tspan><tspan x="15.42" y="13.2" style="letter-spacing:-0.004971590909090909em">M</tspan><tspan x="25.01" y="13.2">anageme</tspan><tspan x="73.23" y="13.2" style="letter-spacing:-0.005015980113636364em">n</tspan><tspan x="79.59" y="13.2">t</tspan></text><text transform="translate(133.18 197.79)" style="font-size:11px;font-family:Raleway-Regular, Raleway">I<tspan x="2.73" y="0" style="letter-spacing:-0.02800958806818182em">T</tspan><tspan x="9.13" y="0" xml:space="preserve"> Servi</tspan><tspan x="37.19" y="0" style="letter-spacing:-0.004971590909090909em">c</tspan><tspan x="43.17" y="0">e </tspan><tspan x="-9.11" y="13.2" style="letter-spacing:-0.004971590909090909em">M</tspan><tspan x="0.48" y="13.2">anageme</tspan><tspan x="48.7" y="13.2" style="letter-spacing:-0.005015980113636364em">n</tspan><tspan x="55.06" y="13.2">t</tspan></text><g style="opacity:0.6000000000000001"><polygon points="56.12 200.63 57.67 195.95 65.22 195.75 65.72 203.62 55.42 202.78 56.12 200.63" style="fill:#d1d1d1"/><rect x="48.83" y="172.76" width="24.55" height="2.18" rx="0.32" ry="0.32" style="fill:#fff"/><rect x="64.48" y="177.34" width="8.9" height="2.18" rx="0.32" ry="0.32" style="fill:#fff"/><rect x="48.83" y="177.34" width="13.31" height="11.15" rx="0.87" ry="0.87" style="fill:#fff"/><rect x="50.98" y="201.87" width="17.94" height="2.29" rx="0.34" ry="0.34" style="fill:#fff"/><path d="M64.48,190H48.24A1.28,1.28,0,0,1,47,188.71V172.5a1.28,1.28,0,0,1,1.28-1.28H76.16a1.28,1.28,0,0,1,1.28,1.28v9.42H80V170a1.73,1.73,0,0,0-1.72-1.72H46A1.73,1.73,0,0,0,44.26,170V195.8A1.73,1.73,0,0,0,46,197.53H64.48Z" style="fill:#fff"/><path d="M81.22,181.92H65.53A1.05,1.05,0,0,0,64.48,183v22.31a1.05,1.05,0,0,0,1.05,1.05H81.22a1.05,1.05,0,0,0,1.05-1.05V183A1.05,1.05,0,0,0,81.22,181.92ZM80,201.87H66.76V186H80Z" style="fill:#fff"/><path d="M77.66,191.29l-.31-.31a.85.85,0,0,0-1.2,0l-3.88,3.88-1.6-1.6a.85.85,0,0,0-1.2,0l-.31.31a.85.85,0,0,0,0,1.2l2.34,2.34h0l.17.17a.85.85,0,0,0,1.2,0l4.79-4.79A.85.85,0,0,0,77.66,191.29Z" style="fill:#fff"/></g><text transform="translate(45.58 222.17)" style="font-size:11px;fill:#333;font-family:Raleway-Regular, Raleway"><tspan style="letter-spacing:-0.005992542613636364em">E</tspan><tspan x="6.63" y="0">ndpoi</tspan><tspan x="35.62" y="0" style="letter-spacing:-0.005015980113636364em">n</tspan><tspan x="41.98" y="0" style="letter-spacing:0.00004438920454545455em">t</tspan><tspan x="-11.1" y="13.2" style="letter-spacing:-0.004971590909090909em">M</tspan><tspan x="-1.51" y="13.2">anageme</tspan><tspan x="46.72" y="13.2" style="letter-spacing:-0.005015980113636364em">n</tspan><tspan x="53.08" y="13.2">t</tspan></text><g style="opacity:0.6000000000000001"><path d="M261.23,180.83a.72.72,0,0,0-.23-.23,13.2,13.2,0,0,1-2.77-.9,14,14,0,0,1-4.06-2.81.83.83,0,0,0-.32-.26.77.77,0,0,0-.33-.07,1.11,1.11,0,0,0-.34.12,1.19,1.19,0,0,0-.38.32,14.68,14.68,0,0,1-2.8,2.08,14,14,0,0,1-3.89,1.52.57.57,0,0,0-.22.13.82.82,0,0,0-.19.67,14.73,14.73,0,0,0,.68,4.52,14.13,14.13,0,0,0,2.1,4.14,12.31,12.31,0,0,0,2.5,2.58,11.63,11.63,0,0,0,2.55,1.49,10.56,10.56,0,0,0,2.69-1.49,11.58,11.58,0,0,0,3.28-4,17.33,17.33,0,0,0,1.19-3.1,17.77,17.77,0,0,0,.64-4.29A.81.81,0,0,0,261.23,180.83Zm-6.57,4.67v2.6a1,1,0,0,1-1,1h-.12a1,1,0,0,1-1-1v-2.56a2.16,2.16,0,0,1-1-1.83,2,2,0,1,1,4,0A2.16,2.16,0,0,1,254.66,185.5Z" style="fill:#fff"/><path d="M273.44,173.43a6.09,6.09,0,0,0-.45-2.05c-.65-1.24-2.45-1.35-2.7-1.36H236.81a3,3,0,0,0-2.22.91,4,4,0,0,0-.87,2.11,5.67,5.67,0,0,0-.08,1.18v25.35h13.58a2.23,2.23,0,0,1,.75.25,2.47,2.47,0,0,1,.85.8h8.54a2.47,2.47,0,0,1,.85-.8,2.23,2.23,0,0,1,.75-.25h14.5V174.21C273.46,174,273.46,173.76,273.44,173.43Zm-3.15,23H236.81V174.21h33.48Z" style="fill:#fff"/><path d="M276.5,202.55v-.87a.9.9,0,0,0-.86-.93H259a1,1,0,0,0-1,1.08v.83a.86.86,0,0,1-.83.89H248.9a.86.86,0,0,1-.83-.89v-.83s0-.86-.65-1.08H231.56a.9.9,0,0,0-.86.93v.85a3.84,3.84,0,0,0,1,2.79,3.28,3.28,0,0,0,2.62,1h39.14a3.27,3.27,0,0,0,2.14-1.09A3.83,3.83,0,0,0,276.5,202.55Z" style="fill:#fff"/></g><text transform="translate(230.77 222.17)" style="font-size:11px;fill:#333;font-family:Raleway-Regular, Raleway"><tspan style="letter-spacing:-0.005992542613636364em">E</tspan><tspan x="6.63" y="0">ndpoi</tspan><tspan x="35.62" y="0" style="letter-spacing:-0.005015980113636364em">n</tspan><tspan x="41.98" y="0" style="letter-spacing:0.00004438920454545455em">t</tspan><tspan x="2.17" y="13.2">Securit</tspan><tspan x="37.82" y="13.2" style="letter-spacing:-0.026988636363636364em">y</tspan></text><g style="opacity:0.67"><path d="M143,180.44" style="fill:none;stroke:#fff;stroke-miterlimit:10;stroke-width:0.25px"/><path d="M158.18,138.81a.61.61,0,0,0-.86,0l-5.92,5.92-6.22-6.22a.61.61,0,0,0-.86,0l-6.14,6.14-6.09-6.09a.61.61,0,0,0-.86.86l6.49,6.49h0v0a.61.61,0,0,0,.86,0l6.14-6.14,6.19,6.19h0v0a.61.61,0,0,0,.86,0l6.35-6.35A.61.61,0,0,0,158.18,138.81Z" style="fill:#fb973d"/><circle cx="131.64" cy="138.94" r="2.3" style="fill:#f06a21"/><circle cx="138.21" cy="144.48" r="2.3" style="fill:#f06a21"/><circle cx="145.06" cy="139.52" r="2.3" style="fill:#f06a21"/><circle cx="151.78" cy="144.28" r="2.3" style="fill:#f06a21"/><circle cx="157.87" cy="138.66" r="2.3" style="fill:#f06a21"/><path d="M182,169.68v-4.09h-54.5v3.88a1.79,1.79,0,0,0,1.87,1.86h51.1a1.53,1.53,0,0,0,1.07-.39A1.57,1.57,0,0,0,182,169.68Zm-27.22-.1a1.12,1.12,0,1,1,1.12-1.12A1.12,1.12,0,0,1,154.77,169.58Z" style="fill:#fff"/><path d="M169.93,143.07s1.08-.19,1.09.87v7.7l5.59,5.49s.35.37-.23.91a8.61,8.61,0,0,1-2.66,1.76,8.83,8.83,0,0,1-5,.5,9.43,9.43,0,0,1-6.53-5.64,8.93,8.93,0,0,1,0-6,8.5,8.5,0,0,1,1.92-2.94,9,9,0,0,1,5.77-2.6Z" style="fill:#f06a21"/><path d="M169.62,144.48v6.92l-6,3.16a8.25,8.25,0,0,1-.42-4,6.31,6.31,0,0,1,3.51-5.06A8.07,8.07,0,0,1,169.62,144.48Z" style="fill:#fb973d"/><path d="M175.05,157.44l-4.87-4.87-6,3.17a7.25,7.25,0,0,0,2.57,2.51,7.17,7.17,0,0,0,2.47.86,7.74,7.74,0,0,0,5.79-1.67Z" style="fill:#fb973d"/><path d="M182,160.16v4.11H158.86V145.68a.69.69,0,1,0-1.38,0v18.59H152.3a.68.68,0,0,0,0-.11V149.61a.69.69,0,0,0-1.38,0v14.54a.68.68,0,0,0,0,.11h-5.42V145.68a.69.69,0,1,0-1.38,0v18.59h-5.3V149.61a.69.69,0,1,0-1.38,0v14.66h-5.24V145.68a.69.69,0,1,0-1.38,0v18.59h-3.22V133.92a1.63,1.63,0,0,1,1.74-1.71h50.86a1.77,1.77,0,0,1,1.35.53,1.69,1.69,0,0,1,.43,1v.43q.62.13,1.21.32v-.74A2.71,2.71,0,0,0,180.5,131H128.88a2.71,2.71,0,0,0-2.71,2.71v36.09a2.71,2.71,0,0,0,2.71,2.71h19.53L145,180.44h-2.25a3.58,3.58,0,0,0-3,1.87s-1,2.11.44,2.11H169.4s1.41-.06.39-2a3.59,3.59,0,0,0-3.18-2h-2l-3.42-7.94H180.5a2.71,2.71,0,0,0,2.71-2.71v-9.95Q182.61,160,182,160.16Zm-15.25,21.59a1.79,1.79,0,0,1,1.84,1.4l-27.63,0a2,2,0,0,1,1.88-1.38Zm-3.67-1.31H146.41l3.41-7.92h9.89Z" style="fill:#f06a21"/><path d="M197.45,145.23a1.16,1.16,0,0,0-.28-.71,1.29,1.29,0,0,0-.76-.39c-.57-.11-2-.31-3.89-.55a12.78,12.78,0,0,0-.66-1.5l2.1-2.91a1.12,1.12,0,0,0,.33-.79,1.11,1.11,0,0,0-.28-.71l-3.45-3.6a1.16,1.16,0,0,0-.7-.31,1.29,1.29,0,0,0-.81.26c-.48.32-1.62,1.17-3.14,2.35a12.73,12.73,0,0,0-1.58-.62l-.58-3.57a1.12,1.12,0,0,0-.33-.79,1.11,1.11,0,0,0-.7-.31l-5-.1a1.16,1.16,0,0,0-.71.28,1.29,1.29,0,0,0-.39.76c-.11.57-.32,2-.56,3.91a12.77,12.77,0,0,0-1.48.64l-2.9-2.11a1.12,1.12,0,0,0-.79-.33,1.11,1.11,0,0,0-.71.27l-3.62,3.44a1.16,1.16,0,0,0-.31.7,1.29,1.29,0,0,0,.26.82c.32.48,1.16,1.62,2.34,3.15a12.74,12.74,0,0,0-.65,1.66l-3.54.59a1.12,1.12,0,0,0-.79.33,1.11,1.11,0,0,0-.31.7l-.09,5a1.16,1.16,0,0,0,.28.71,1.29,1.29,0,0,0,.76.39c.57.11,2,.31,3.89.55a12.77,12.77,0,0,0,.66,1.5l-2.1,2.91a1.12,1.12,0,0,0-.33.79,1.11,1.11,0,0,0,.28.71l3.45,3.6a1.16,1.16,0,0,0,.7.31,1.29,1.29,0,0,0,.81-.26c.48-.32,1.62-1.17,3.14-2.35a12.75,12.75,0,0,0,1.6.62l.57,3.52a1.12,1.12,0,0,0,.33.79,1.11,1.11,0,0,0,.7.31l5,.1a1.16,1.16,0,0,0,.71-.28,1.29,1.29,0,0,0,.39-.76c.11-.56.32-2,.55-3.86a12.78,12.78,0,0,0,1.47-.64l2.9,2.11a1.12,1.12,0,0,0,.79.33,1.11,1.11,0,0,0,.71-.27l3.62-3.44a1.16,1.16,0,0,0,.31-.7,1.29,1.29,0,0,0-.26-.82c-.32-.48-1.16-1.62-2.34-3.15a12.74,12.74,0,0,0,.65-1.66l3.54-.59a1.12,1.12,0,0,0,.79-.33,1.11,1.11,0,0,0,.31-.7Zm-17.11,9.37a6.59,6.59,0,1,1,6.72-6.46A6.59,6.59,0,0,1,180.34,154.6Z" style="fill:#f06a21;stroke:#fcfcfc;stroke-miterlimit:10"/></g><text transform="translate(97.96 305.41)" style="font-size:21px;font-family:Raleway-Regular, Raleway">G<tspan x="15.04" y="0" style="letter-spacing:-0.025995163690476192em">O</tspan><tspan x="30.26" y="0">VERNANCE</tspan></text><g id="Layer_2-2" data-name="Layer 2"><g id="Layer_1-2-2" data-name="Layer 1-2"><path d="M83.32,285.61l-10.89,6.8H94.2Zm6.12,8.16.68,1.36v8.16h2.72v-8.16l.68-1.36Zm-5.44,0,.68,1.36v8.16H87.4v-8.16l.68-1.36Zm-5.44,0,.68,1.36v8.16H82v-8.16l.68-1.36Zm-5.44,0,.68,1.36v8.16h2.72v-8.16l.68-1.36Zm0,10.89-.68,2.72H94.2l-.68-2.72Zm11.57-15a1.36,1.36,0,1,1-1.36-1.36,1.36,1.36,0,0,1,1.36,1.36Z"/></g></g></g></g></svg>