<svg xmlns="http://www.w3.org/2000/svg" viewBox="0 0 764.25 764.25"><title>Asset 97</title><g id="Layer_2" data-name="Layer 2"><g id="Layer_1-2" data-name="Layer 1"><rect width="764.25" height="764.25" style="fill:#fff;opacity:0.07"/><polygon points="649.73 15.65 563.46 15.65 177.4 15.65 115.75 15.65 17.34 116.03 17.34 651.84 116.71 752.38 281.67 752.38 557.22 752.38 650.69 752.38 749.38 651.84 749.38 220.83 749.38 116.03 649.73 15.65" style="fill:#00968d"/><polygon points="595.06 382.74 651.59 326.21 651.59 201.73 564.56 114.7 480.8 114.7 440.07 114.7 383.46 171.31 326.85 114.7 202.36 114.7 115.33 201.73 115.33 285.48 115.33 326.21 172.54 383.42 115.33 440.63 115.33 565.12 202.36 652.14 286.12 652.14 326.85 652.14 384.14 594.85 440.76 651.46 565.24 651.46 652.27 564.43 652.27 480.68 652.27 439.94 595.06 382.74" style="fill:#fff;stroke:#fcfdff;stroke-miterlimit:10;stroke-width:40px"/><path d="M120.54,438.19V560l85.14,85.14H327.46L412.59,560V438.19l-85.14-85.14H205.68Zm182.23-25.92,50.61,50.61v72.4l-50.61,50.61h-72.4l-50.61-50.61v-72.4l50.61-50.61Z" style="fill:#11b1e1"/><polygon points="232.24 412.27 302.77 412.27 353.38 462.88 353.38 535.28 302.77 585.89 231.29 585.89 287.61 645.11 327.46 645.11 412.6 559.97 412.6 438.19 327.46 353.06 291.46 353.06 232.24 412.27" style="fill:#0ea1c5"/><path d="M438.48,645.56H560.26l85.14-85.14V438.65l-85.14-85.14H438.48l-85.14,85.14V560.43ZM412.56,463.34l50.61-50.61h72.4l50.61,50.61v72.4l-50.61,50.61h-72.4l-50.61-50.61Z" style="fill:#f06a21"/><polygon points="412.56 533.86 412.56 463.34 463.17 412.73 535.57 412.73 586.18 463.34 586.18 534.82 645.4 478.49 645.4 438.65 560.26 353.51 438.48 353.51 353.34 438.65 353.34 474.65 412.56 533.86" style="fill:#c5501c"/><path d="M645.4,327.7V205.92l-85.14-85.14H438.48l-85.14,85.14V327.7l85.14,85.14H560.26ZM463.17,353.62,412.56,303v-72.4L463.17,180h72.4l50.61,50.61V303l-50.61,50.61Z" style="fill:#969796"/><polygon points="533.7 353.62 463.17 353.62 412.56 303.01 412.56 230.61 463.17 180 534.65 180 478.32 120.78 438.48 120.78 353.34 205.92 353.34 327.7 438.48 412.84 474.48 412.84 533.7 353.62" style="fill:#8b8b8b"/><path d="M327.46,120.35H205.68l-85.14,85.14V327.27l85.14,85.14H327.46l85.14-85.14V205.48Zm25.92,182.23-50.61,50.61h-72.4l-50.61-50.61v-72.4l50.61-50.61h72.4l50.61,50.61Z" style="fill:#0b7abe"/><polygon points="353.38 232.05 353.38 302.57 302.77 353.19 230.37 353.19 179.76 302.57 179.76 231.09 120.54 287.42 120.54 327.27 205.68 412.4 327.46 412.4 412.6 327.27 412.6 291.26 353.38 232.05" style="fill:#156a9f"/><path d="M279.48,230.63a1.18,1.18,0,0,0-.38-.37,23.49,23.49,0,0,1-11.54-5.86,1.38,1.38,0,0,0-1.1-.53,2,2,0,0,0-1.22.69,24.75,24.75,0,0,1-11.32,5.69,1,1,0,0,0-.37.21,1.24,1.24,0,0,0-.32,1.05,21.82,21.82,0,0,0,4.71,13.68,20,20,0,0,0,8.53,6.43,18.29,18.29,0,0,0,4.55-2.35,18.59,18.59,0,0,0,5.54-6.28,26.29,26.29,0,0,0,3.1-11.66A1.21,1.21,0,0,0,279.48,230.63ZM268.35,238v4.1a1.66,1.66,0,0,1-1.66,1.66h-.2a1.66,1.66,0,0,1-1.66-1.66v-4a3.36,3.36,0,1,1,3.52-.06Z" style="fill:#0b7abe"/><path d="M300.13,218.94a9.08,9.08,0,0,0-.75-3.24c-1.09-2-4.15-2.14-4.57-2.15H238.15a5.29,5.29,0,0,0-3.75,1.44,6.13,6.13,0,0,0-1.47,3.33,8.38,8.38,0,0,0-.14,1.86v40h23a4,4,0,0,1,1.28.39,4.07,4.07,0,0,1,1.43,1.26h14.45a4.07,4.07,0,0,1,1.43-1.26,4,4,0,0,1,1.28-.39h24.53v-40A11.64,11.64,0,0,0,300.13,218.94Zm-5.33,36.33H238.15V220.17h56.65Z" style="fill:#0b7abe"/><path d="M305.32,264.95v-1.38a1.46,1.46,0,0,0-1.46-1.46H275.68a1.69,1.69,0,0,0-1.66,1.7v1.31a1.41,1.41,0,0,1-1.4,1.4h-14a1.41,1.41,0,0,1-1.4-1.4v-1.31s0-1.35-1.1-1.7H229.28a1.46,1.46,0,0,0-1.46,1.46v1.35a5.62,5.62,0,0,0,6.13,6h66.22a5.71,5.71,0,0,0,3.62-1.72A5.78,5.78,0,0,0,305.32,264.95Z" style="fill:#0b7abe"/><path d="M524.35,215.07h-5.4v3.52h4.54a1.35,1.35,0,0,1,1.35,1.35v27.95a1.35,1.35,0,0,1-1.35,1.35H476.68a1.35,1.35,0,0,1-1.35-1.35V219.94a1.35,1.35,0,0,1,1.35-1.35h3.94v-3.52h-5.4a3.69,3.69,0,0,0-3.68,3.68v35.83a3.69,3.69,0,0,0,3.68,3.68h19.56a5.61,5.61,0,0,1-4.7,5.05h-.2a1.16,1.16,0,0,0-.38.07h0a1.18,1.18,0,0,0-.79,1.11v.26a1.18,1.18,0,0,0,1.18,1.18h20.17a1.18,1.18,0,0,0,1.18-1.18v-.26a1.18,1.18,0,0,0-1.18-1.18h-.58a5.61,5.61,0,0,1-4.7-5.05h19.57a3.69,3.69,0,0,0,3.68-3.68V218.75A3.69,3.69,0,0,0,524.35,215.07Zm-24.57,41a2.25,2.25,0,1,1,2.25-2.25A2.25,2.25,0,0,1,499.78,256.11Z" style="fill:#8b8b8b"/><path d="M491.1,237.36h-4.39V213.2h18.67v1.87h3.89v-3a3,3,0,0,0-3-3H485.71a3,3,0,0,0-3,3v26.35a3,3,0,0,0,3,3h5.39Z" style="fill:#8b8b8b"/><path d="M513.76,216.6H502.48a2.7,2.7,0,0,0-2.69,2.69v6h1.8v-2.94h13.47v16.92h-6.94v1.56a1.58,1.58,0,0,1,0,3.16v1h5.64a2.69,2.69,0,0,0,2.69-2.69v-23A2.7,2.7,0,0,0,513.76,216.6Zm-3.57,4.17h-3.74a1,1,0,1,1,0-2.1h3.74a1,1,0,0,1,0,2.1Z" style="fill:#969796"/><path d="M508.48,234.46a.49.49,0,0,0-.09-.2.56.56,0,0,0-.21-.16,16.24,16.24,0,0,0-1.7-.31,6.84,6.84,0,0,0-.84-2c.56-.78.93-1.3,1-1.41a.51.51,0,0,0,.05-.21.49.49,0,0,0-.08-.25,5.26,5.26,0,0,0-1.3-1.3.49.49,0,0,0-.21-.08.56.56,0,0,0-.26,0,16.25,16.25,0,0,0-1.42,1,6.84,6.84,0,0,0-2-.84c-.15-1-.27-1.59-.31-1.72a.51.51,0,0,0-.11-.18.49.49,0,0,0-.24-.12,5.26,5.26,0,0,0-1.85,0,.49.49,0,0,0-.2.09.56.56,0,0,0-.16.21,16.48,16.48,0,0,0-.32,1.72,6.84,6.84,0,0,0-2,.84c-.78-.56-1.3-.93-1.41-1a.51.51,0,0,0-.21-.05.49.49,0,0,0-.25.08,5.26,5.26,0,0,0-1.3,1.3.49.49,0,0,0-.08.21.56.56,0,0,0,0,.26,16.25,16.25,0,0,0,1,1.42,6.84,6.84,0,0,0-.84,2c-.95.15-1.58.26-1.7.3a.51.51,0,0,0-.18.11.49.49,0,0,0-.12.24,5.26,5.26,0,0,0,0,1.85.49.49,0,0,0,.09.2.56.56,0,0,0,.21.16,16.24,16.24,0,0,0,1.7.31,6.84,6.84,0,0,0,.84,2c-.56.78-.93,1.3-1,1.41a.51.51,0,0,0-.05.21.49.49,0,0,0,.08.25,5.26,5.26,0,0,0,1.3,1.3.49.49,0,0,0,.21.08.56.56,0,0,0,.26,0,16.25,16.25,0,0,0,1.42-1,6.84,6.84,0,0,0,2,.84c.15.94.26,1.56.3,1.68a.51.51,0,0,0,.11.18.49.49,0,0,0,.24.12,5.26,5.26,0,0,0,1.85,0,.49.49,0,0,0,.2-.09.56.56,0,0,0,.16-.21,16,16,0,0,0,.31-1.68,6.84,6.84,0,0,0,2-.84c.78.56,1.3.93,1.41,1a.51.51,0,0,0,.21.05.49.49,0,0,0,.25-.08,5.26,5.26,0,0,0,1.3-1.3.49.49,0,0,0,.08-.21.56.56,0,0,0,0-.26,16.25,16.25,0,0,0-1-1.42,6.84,6.84,0,0,0,.84-2c.95-.15,1.58-.26,1.7-.3a.51.51,0,0,0,.18-.11.49.49,0,0,0,.12-.24A5.26,5.26,0,0,0,508.48,234.46Zm-8.7,4.55a3.63,3.63,0,1,1,3.63-3.63A3.63,3.63,0,0,1,499.78,239Z" style="fill:#8c8c8c"/><path d="M234.18,474.23s-.24-1.33.88-1.45h5.37s1,0,1,1.45v19.3a1,1,0,0,1-1.08.94h-5.6a.94.94,0,0,1-.66-1.05Z" style="fill:#11b1e1"/><path d="M243.2,490.55V477s3.57-2.9,12.89-2.9a23.24,23.24,0,0,1,13.31,4l.48.3s3.48-.94,12.61,1.57c0,0,3.73.39,3.9,3.66,0,0-.3,3-2.94,3.76l-15.66-.65s1.75,2.24,7.15,2.82c0,0,9.55.24,12.13-1.88,0,0,4.2-3.69,5.28-3.62,0,0,2.62-.83,4.14.42a2.24,2.24,0,0,1,0,3.62s2.32,0,.36,3l-8.4,6.12L287,498a41.78,41.78,0,0,1-4.37.94c-2.52.4-8.61,1.62-8.61,1.62s-7.13,1.09-9.33-.53L253,494.45l-4.72-2.09a7,7,0,0,0-2.8-.78A2.47,2.47,0,0,1,243.2,490.55Z" style="fill:#11b1e1"/><path d="M298.78,458.2l-4.81-.69a3.57,3.57,0,0,0-.66-2.82l3.85-3.38-2.8-4.35-4.27,1.76s-1.75-2.11-2.52-2.24l2-4.41-4.44-2.82L282.16,443s-2.29-.94-3.06-.67l-1.1-4.7h-4.81l-.84,4.47a15.86,15.86,0,0,0-3.06.94l-3-3.69L261.48,442l2,4.41a5.61,5.61,0,0,0-2.4,2.11l-4.39-1.69L254,451.34l3.78,3.08a12.05,12.05,0,0,0-1,3.26l-4.87.58v5.14l4.57.69s.93,2.6,1.2,3l-3.73,3.2,1.33,2.44a22.58,22.58,0,0,1,14.25,3.76s16.42.72,17.54,4.91l2.41-1.37-1.68-4.75a12.82,12.82,0,0,0,2.32-1.93l4.08,2,2.88-4.7L293.25,467s1-.83.84-3.06h4.67Zm-23,13.52a10.81,10.81,0,1,1,10.71-10.85v0A10.78,10.78,0,0,1,275.75,471.73Z" style="fill:#11b1e1"/><path d="M541.31,461.43H504.37a23.93,23.93,0,1,0,.18,22.36h4.86l3.65-3.24h.68l4.06,3.24h7.56l3.74-3.24H530l3.65,3.24h8l7.53-8.24v-6.39Zm-1.81,17.41h-4.24l-3.75-3.13h-4.15l-3.8,3.13h-4l-3.88-3.13h-4.59l-3.44,3.13h-6.28a19.06,19.06,0,1,1-.1-12.4h37.9l2.08,2.06H508.85s-3.43,1.52-2.15,2.88a2.14,2.14,0,0,0,1.9.82h35.62v1.38Z" style="fill:#f06a21"/><path d="M479.61,488.74a16.31,16.31,0,0,0,7.28,0Z" style="fill:#f06a21"/><path d="M474.45,476H492a5.7,5.7,0,0,1,5.58,4.64,16.36,16.36,0,1,0-28.75,0A5.7,5.7,0,0,1,474.45,476Zm8.8-15.18a6.71,6.71,0,1,1-6.71,6.71A6.71,6.71,0,0,1,483.25,460.78Z" style="fill:#f06a21"/><path d="M473.77,486.12a16.35,16.35,0,0,0,1.53,1V481h-1.53Z" style="fill:#f06a21"/><path d="M490.78,487.31a16.36,16.36,0,0,0,1.53-.9V481h-1.53Z" style="fill:#f06a21"/><circle cx="483.25" cy="472.79" r="16.36" style="fill:none;stroke:#f06a21;stroke-miterlimit:10"/><text transform="translate(227.95 290.26)" style="font-size:16.088666915893555px;font-family:Raleway-Medium, Raleway Medium">S<tspan x="9.8" y="0" style="letter-spacing:-0.013991069454463762em">E</tspan><tspan x="19.31" y="0">CURIT</tspan><tspan x="67.06" y="0" style="letter-spacing:-0.03699590816700938em">Y</tspan><tspan x="-18.81" y="19.31">MAN</tspan><tspan x="18.53" y="19.31" style="letter-spacing:-0.02597907907379822em">A</tspan><tspan x="29.01" y="19.31">GEMEN</tspan><tspan x="86.41" y="19.31" style="letter-spacing:-0.030015548135498178em">T</tspan></text><text transform="translate(470.97 284.36)" style="font-size:16.088666915893555px;font-family:Raleway-Medium, Raleway Medium">I<tspan x="4.18" y="0" style="letter-spacing:-0.029985198744056824em">T</tspan><tspan x="13.58" y="0" style="letter-spacing:-0.03101707805306283em"> </tspan><tspan x="17.15" y="0" style="letter-spacing:-0.009984949784205157em">A</tspan><tspan x="27.88" y="0">SSE</tspan><tspan x="57.21" y="0" style="letter-spacing:-0.029985198744056824em">T</tspan><tspan x="-24" y="19.31">MAN</tspan><tspan x="13.34" y="19.31" style="letter-spacing:-0.02597907907379822em">A</tspan><tspan x="23.81" y="19.31">GEMEN</tspan><tspan x="81.21" y="19.31" style="letter-spacing:-0.030015548135498178em">T</tspan></text><text transform="translate(224.82 522.22)" style="font-size:16.088666915893555px;font-family:Raleway-Medium, Raleway Medium">I<tspan x="4.18" y="0" style="letter-spacing:-0.029985198744056824em">T</tspan><tspan x="13.58" y="0" xml:space="preserve"> SE</tspan><tspan x="37.18" y="0" style="letter-spacing:-0.02000024895985167em">R</tspan><tspan x="47.43" y="0">VICE</tspan><tspan x="-15.68" y="19.31">MAN</tspan><tspan x="21.66" y="19.31" style="letter-spacing:-0.02597907907379822em">A</tspan><tspan x="32.14" y="19.31">GEMEN</tspan><tspan x="89.54" y="19.31" style="letter-spacing:-0.030015548135498178em">T</tspan></text><text transform="translate(435.83 522.22)" style="font-size:16.088666915893555px;font-family:Raleway-Medium, Raleway Medium">IDENTIT<tspan x="61.76" y="0" style="letter-spacing:-0.03699590816700938em">Y</tspan><tspan x="71.71" y="0" style="letter-spacing:-0.030986728661621474em"> </tspan><tspan x="75.28" y="0" style="letter-spacing:-0.02597907907379822em">A</tspan><tspan x="85.75" y="0" style="letter-spacing:-0.007981889949075855em">C</tspan><tspan x="96.6" y="0">CESS</tspan><tspan x="11.14" y="19.31">MAN</tspan><tspan x="48.48" y="19.31" style="letter-spacing:-0.02597907907379822em">A</tspan><tspan x="58.96" y="19.31">GEMEN</tspan><tspan x="116.36" y="19.31" style="letter-spacing:-0.030015548135498178em">T</tspan></text><text transform="translate(307.92 742.11)" style="font-size:24.132999420166016px;fill:#fff;font-family:Raleway-Medium, Raleway Medium">G<tspan x="17.23" y="0" style="letter-spacing:-0.026990726521780986em">O</tspan><tspan x="34.63" y="0">VERNANCE</tspan></text><g id="Layer_2-2" data-name="Layer 2"><g id="Layer_1-2-2" data-name="Layer 1-2"><path d="M384.47,653.27,351.29,674h66.36Zm18.66,24.88,2.07,4.15v24.88h8.29V682.3l2.07-4.15Zm-16.59,0,2.07,4.15v24.88h8.29V682.3l2.07-4.15Zm-16.59,0L372,682.3v24.88h8.29V682.3l2.07-4.15Zm-16.59,0,2.07,4.15v24.88h8.29V682.3l2.07-4.15Zm0,33.18-2.07,8.29h66.36l-2.07-8.29Zm35.25-45.62a4.15,4.15,0,1,1-4.15-4.15,4.15,4.15,0,0,1,4.15,4.15Z" style="fill:#fff"/></g></g><polygon points="475.19 411.75 534.17 352.54 475.19 352.5 475.19 352.5 466.11 352.5 412.89 299.28 412.89 290.19 353.68 231.22 353.64 290.19 353.64 290.19 353.64 299.74 300.88 352.5 295.19 352.5 291.57 352.5 232.36 411.71 291.57 411.71 291.57 411.75 301.8 411.75 353.64 463.59 353.64 470.19 353.64 473.82 412.86 533.03 412.86 473.82 412.89 473.82 412.89 464.06 465.2 411.75 475.19 411.75" style="fill:#2d307a"/><path d="M297.49,375.19l-1.61,4.24H281.13a1.85,1.85,0,0,0-1.9,1.8,1.55,1.55,0,0,0,1.46,1.49h9.71s6.3-.15,3.73,5.79l-1.42,3.67a3.78,3.78,0,0,1-3.64,2.28H271.17l1.68-4.75,14.93,0s1.87-.28,1.8-1.61c0,0,.06-1.17-2.18-1.2l-9.18-.06s-4-.22-3.73-3.48c0,0,.92-8.31,4.67-8.19Z" style="fill:#f06a21;stroke:#fff;stroke-miterlimit:10"/><path d="M321.44,375.19h-17.7s-1.8-.47-2.75,2.42l-3.5,10.92s-2.34,5.93,4.11,5.93h18.7l1.61-4.65-18.7-.09s-1.09.33-.85-1.66c0,0-.22-1.19,1.74-1.14l14.21,0s6.6-.63,7.4-7.36A3.93,3.93,0,0,0,321.44,375.19ZM320,382.34a2.92,2.92,0,0,1-2.06.4H305.64c-1.07,0-1.29,0-1.42-.14-.36-.44.2-1.68,1-2.37a3.38,3.38,0,0,1,2.18-.71h11.49a2,2,0,0,1,1.66.65,1.36,1.36,0,0,1,.32.85A1.81,1.81,0,0,1,320,382.34Z" style="fill:#f06a21;stroke:#fff;stroke-miterlimit:10"/><path d="M329.45,394.46h-4.81l4.81-15.6s1.2-3.67,3.67-3.67h17.34l-1.58,4.24-12.85.06s-2.21-.57-3,2.4Z" style="fill:#f06a21;stroke:#fff;stroke-miterlimit:10"/><path d="M352.39,375.19l.24,14.52s0,4.75,3.84,4.75h6.64s1.71.52,5.79-4.65l9.68-14.62h-5.22l-7.88,12.72s-1.19,1.9-1.9,1.9h-5s-1,.09-1-1.38l-.07-10,0-3.27Z" style="fill:#f06a21;stroke:#fff;stroke-miterlimit:10"/><polygon points="380.63 375.19 385.42 375.19 379.3 394.47 374.55 394.47 380.63 375.19" style="fill:#f06a21;stroke:#fff;stroke-miterlimit:10"/><path d="M391.21,375.19s-2.14-.14-2.66,1.19L384.9,387.1a10.53,10.53,0,0,0-.57,4.94s.76,2.45,2.75,2.44h15.66l1.71-4.7H390.59s-2.09.28-1.28-2.09l2.47-7.12a1.64,1.64,0,0,1,1.85-1.14l13.67,0,1.85-4.27Z" style="fill:#f06a21;stroke:#fff;stroke-miterlimit:10"/><path d="M432.12,375.19h-17.7s-1.8-.47-2.75,2.42l-3.5,10.92s-2.34,5.93,4.11,5.93H431l1.61-4.65-18.7-.09s-1.09.33-.85-1.66c0,0-.22-1.19,1.74-1.14l14.21,0s6.6-.63,7.4-7.36A3.93,3.93,0,0,0,432.12,375.19Zm-1.49,7.15a2.92,2.92,0,0,1-2.06.4H416.32c-1.07,0-1.29,0-1.42-.14-.36-.44.2-1.68,1-2.37a3.38,3.38,0,0,1,2.18-.71h11.49a2,2,0,0,1,1.66.65,1.36,1.36,0,0,1,.32.85A1.81,1.81,0,0,1,430.64,382.34Z" style="fill:#f06a21;stroke:#fff;stroke-miterlimit:10"/><polygon points="452.03 375.19 456.82 375.19 450.7 394.47 445.95 394.47 452.03 375.19" style="fill:#2d307a;stroke:#fff;stroke-miterlimit:10"/><path d="M478.48,375.19H458.61L457,379.55l7.76,0L460,394.47h4.75l4.75-15,7.2,0Z" style="fill:#2d307a;stroke:#fff;stroke-miterlimit:10"/><path d="M496.2,375.19h-5.74l1.69-5.38-4.18,0-1.75,5.41h-5.84l-1.2,3.61,5.87,0L483.35,384h4.33l1.63-5.21,5.61,0Z" style="fill:#f06a21;stroke:#fff;stroke-miterlimit:10"/></g></g></svg>