<svg xmlns="http://www.w3.org/2000/svg" viewBox="0 0 217.67 217.67"><defs><style>.cls-1,.cls-2{fill:#225ddc;}.cls-1{stroke:#760991;stroke-width:0.25px;}.cls-1,.cls-3{stroke-miterlimit:10;}.cls-3{fill:none;stroke:#225ddc;stroke-width:2px;}</style></defs><title>Asset 7</title><g id="Layer_2" data-name="Layer 2"><g id="Layer_1-2" data-name="Layer 1"><path class="cls-1" d="M107.1,168.78V156.65h-9a6.27,6.27,0,0,0,1.26-3.54s.42-5.16-5.46-5.22L45.33,148a4.22,4.22,0,0,0-3.6,4.37,10,10,0,0,0,.86,4.32l-8.89,0v12.08Z"/><path class="cls-1" d="M53.66,104.59,93.47,131s4,2.52,7.21,0l4.32-5.31s1.89-4.32-.81-6.75L64.38,93.06a4,4,0,0,0-5.58,0L54.11,98.2A5.72,5.72,0,0,0,53.66,104.59Z"/><path class="cls-1" d="M89.85,47.89l39.81,26.39s4,2.52,7.21,0L141.18,69s1.89-4.32-.81-6.75L100.57,36.36a4,4,0,0,0-5.58,0L90.3,41.5A5.72,5.72,0,0,0,89.85,47.89Z"/><path class="cls-2" d="M118.26,92.64l8.47-12L88.11,55.69,68.16,87.12l38.28,24.45,8.65-12.7,5.82,5.54-1.26,1.86s52,38.73,64.07,42.21c0,0,6.6,1,8.77-.6,0,0,3.6-1.14,2.94-5.76,0,0-1.5-7.63-3.66-8.29,0,0-30.86-24.14-64-39l-2,2Z"/><circle class="cls-3" cx="108.83" cy="108.83" r="107.83"/></g></g></svg>