<svg xmlns="http://www.w3.org/2000/svg" viewBox="0 0 355.49 325.54"><defs><style>.cls-1{fill:#888787;}.cls-1,.cls-14,.cls-3,.cls-4{opacity:0.8;}.cls-2,.cls-3{fill:#6d6d6d;}.cls-15,.cls-2,.cls-5{opacity:0.9;}.cls-4,.cls-5{fill:#24a1b7;}.cls-6{fill:#989898;}.cls-7{fill:#989897;}.cls-8{fill:#f26921;}.cls-9{fill:#f26a23;}.cls-10{fill:#f26a24;}.cls-11{fill:#2c327a;}.cls-12{fill:#2b337a;}.cls-13{fill:#fff;}.cls-14,.cls-15{fill:#e26623;}</style></defs><title>Asset 12</title><g id="Layer_2" data-name="Layer 2"><g id="Gray_Image" data-name="Gray Image"><path d="M92.63,55.34V46.82h.84v8.52Z"/><path d="M101.66,47.57h-3v7.78h-.84V47.57h-3v-.74h6.91Z"/><path d="M110.63,48.42a2.59,2.59,0,0,0-1-.66,3.5,3.5,0,0,0-1.37-.25,2.57,2.57,0,0,0-1.64.43,1.42,1.42,0,0,0-.52,1.16,1.27,1.27,0,0,0,.14.63,1.2,1.2,0,0,0,.43.43,3,3,0,0,0,.74.31q.45.13,1.06.26a11.54,11.54,0,0,1,1.23.32,3.55,3.55,0,0,1,.93.45,1.87,1.87,0,0,1,.59.65,2,2,0,0,1,.2,1,2.16,2.16,0,0,1-.23,1,2,2,0,0,1-.64.72,2.83,2.83,0,0,1-1,.43,5.21,5.21,0,0,1-1.24.14A5.08,5.08,0,0,1,105,54.18l.42-.68a3.3,3.3,0,0,0,.55.46,3.94,3.94,0,0,0,.71.38,4.42,4.42,0,0,0,.83.25,4.7,4.7,0,0,0,.94.09A2.93,2.93,0,0,0,110,54.3a1.23,1.23,0,0,0,.57-1.11,1.27,1.27,0,0,0-.16-.67,1.41,1.41,0,0,0-.49-.47,3.46,3.46,0,0,0-.8-.34q-.48-.14-1.12-.29t-1.18-.32a3.14,3.14,0,0,1-.85-.42,1.63,1.63,0,0,1-.52-.61,2,2,0,0,1-.17-.87,2.4,2.4,0,0,1,.22-1.05,2.07,2.07,0,0,1,.63-.77,3,3,0,0,1,1-.47,4.34,4.34,0,0,1,1.22-.16,4.17,4.17,0,0,1,1.52.26,4.07,4.07,0,0,1,1.21.73Z"/><path d="M115.47,55.46a3,3,0,0,1-1.25-.26,3.06,3.06,0,0,1-1-.71,3.27,3.27,0,0,1-.65-1,3.37,3.37,0,0,1-.23-1.26,3.3,3.3,0,0,1,.23-1.24,3.21,3.21,0,0,1,.65-1,3.08,3.08,0,0,1,1-.7,3.16,3.16,0,0,1,2.5,0,3,3,0,0,1,1,.7,3.3,3.3,0,0,1,.86,2.24v.19a.49.49,0,0,1,0,.13h-5.35a2.64,2.64,0,0,0,.23.93,2.56,2.56,0,0,0,.51.74,2.28,2.28,0,0,0,.71.49,2.13,2.13,0,0,0,.86.17,2.21,2.21,0,0,0,.6-.08,2.44,2.44,0,0,0,.55-.23,2.06,2.06,0,0,0,.46-.35,1.53,1.53,0,0,0,.31-.46l.71.19a2.09,2.09,0,0,1-.41.63,2.85,2.85,0,0,1-.61.49,3,3,0,0,1-.77.32A3.33,3.33,0,0,1,115.47,55.46Zm2.3-3.58a2.53,2.53,0,0,0-.23-.92,2.5,2.5,0,0,0-.5-.71,2.23,2.23,0,0,0-.71-.47,2.21,2.21,0,0,0-.86-.17,2.25,2.25,0,0,0-.86.17,2.22,2.22,0,0,0-.71.47,2.3,2.3,0,0,0-.49.72,2.72,2.72,0,0,0-.22.91Z"/><path d="M122.93,49.81a2.57,2.57,0,0,0-1.44.46,2.3,2.3,0,0,0-.86,1.19v3.89h-.82V49.09h.77v1.5a2.84,2.84,0,0,1,.94-1.13,2.17,2.17,0,0,1,1.26-.41h.16Z"/><path d="M125.9,55.34l-2.54-6.25h.84l2.15,5.5,2.16-5.5h.79l-2.54,6.25Z"/><path d="M130.42,47.78v-1.2h.82v1.2Zm0,7.56V49.09h.82v6.25Z"/><path d="M132.61,52.2a3.43,3.43,0,0,1,.23-1.25,3.12,3.12,0,0,1,.64-1,3,3,0,0,1,1-.69,3.14,3.14,0,0,1,1.27-.25,2.92,2.92,0,0,1,1.55.4,2.58,2.58,0,0,1,1,1.09l-.79.25a1.9,1.9,0,0,0-.74-.75,2.09,2.09,0,0,0-1-.27,2.11,2.11,0,0,0-.89.19,2.28,2.28,0,0,0-.72.52,2.39,2.39,0,0,0-.48.79,2.89,2.89,0,0,0,0,2,2.54,2.54,0,0,0,.49.81,2.35,2.35,0,0,0,.73.54,2,2,0,0,0,.88.2,2.15,2.15,0,0,0,.59-.08,2.28,2.28,0,0,0,.55-.23,2,2,0,0,0,.43-.34,1.11,1.11,0,0,0,.25-.41l.8.24a2.05,2.05,0,0,1-.38.62,2.65,2.65,0,0,1-.59.49,2.9,2.9,0,0,1-.76.32,3.22,3.22,0,0,1-.86.11,3,3,0,0,1-2.26-1,3.27,3.27,0,0,1-.65-1A3.37,3.37,0,0,1,132.61,52.2Z"/><path d="M142.27,55.46A3,3,0,0,1,141,55.2a3.06,3.06,0,0,1-1-.71,3.27,3.27,0,0,1-.65-1,3.37,3.37,0,0,1-.23-1.26,3.3,3.3,0,0,1,.23-1.24,3.21,3.21,0,0,1,.65-1,3.08,3.08,0,0,1,1-.7,3.16,3.16,0,0,1,2.5,0,3,3,0,0,1,1,.7,3.3,3.3,0,0,1,.86,2.24v.19a.49.49,0,0,1,0,.13H140a2.64,2.64,0,0,0,.23.93,2.56,2.56,0,0,0,.51.74,2.28,2.28,0,0,0,.71.49,2.13,2.13,0,0,0,.86.17,2.21,2.21,0,0,0,.6-.08,2.44,2.44,0,0,0,.55-.23,2.06,2.06,0,0,0,.46-.35,1.53,1.53,0,0,0,.31-.46l.71.19a2.09,2.09,0,0,1-.41.63,2.85,2.85,0,0,1-.61.49,3,3,0,0,1-.77.32A3.33,3.33,0,0,1,142.27,55.46Zm2.3-3.58a2.53,2.53,0,0,0-.23-.92,2.5,2.5,0,0,0-.5-.71,2.23,2.23,0,0,0-.71-.47,2.21,2.21,0,0,0-.86-.17,2.25,2.25,0,0,0-.86.17,2.22,2.22,0,0,0-.71.47,2.3,2.3,0,0,0-.49.72,2.72,2.72,0,0,0-.22.91Z"/><path d="M90.24,69.74v-7l-3.11,5.41h-.49l-3.11-5.41v7h-.84V61.22h.86l3.32,5.83,3.35-5.83h.85v8.52Z"/><path d="M94.56,69.86a2.22,2.22,0,0,1-.82-.15,2.07,2.07,0,0,1-.66-.41,1.86,1.86,0,0,1-.59-1.38,1.54,1.54,0,0,1,.19-.76,1.83,1.83,0,0,1,.54-.6,2.64,2.64,0,0,1,.83-.39A3.8,3.8,0,0,1,95.1,66a5.8,5.8,0,0,1,1,.08,4.22,4.22,0,0,1,.88.24v-.56a1.82,1.82,0,0,0-.47-1.31,1.72,1.72,0,0,0-1.3-.49,2.76,2.76,0,0,0-1,.19,4.76,4.76,0,0,0-1,.55l-.29-.54a4.22,4.22,0,0,1,2.35-.82,2.53,2.53,0,0,1,1.85.66,2.44,2.44,0,0,1,.67,1.82v2.82q0,.34.3.34v.72l-.31,0a.7.7,0,0,1-.49-.16.58.58,0,0,1-.19-.43l0-.49a2.83,2.83,0,0,1-1.09.86A3.34,3.34,0,0,1,94.56,69.86Zm.19-.62A2.82,2.82,0,0,0,95.92,69a1.91,1.91,0,0,0,.81-.64.76.76,0,0,0,.16-.23.61.61,0,0,0,.05-.23v-1a5.06,5.06,0,0,0-.85-.24,4.73,4.73,0,0,0-.89-.08,2.49,2.49,0,0,0-1.4.36,1.1,1.1,0,0,0-.54.95,1.29,1.29,0,0,0,.11.54,1.36,1.36,0,0,0,.31.44,1.46,1.46,0,0,0,.47.29A1.6,1.6,0,0,0,94.75,69.24Z"/><path d="M104.78,69.74H104V66.25a3,3,0,0,0-.33-1.62,1.13,1.13,0,0,0-1-.5,2.08,2.08,0,0,0-.72.13,2.43,2.43,0,0,0-.67.37,2.86,2.86,0,0,0-.55.57,2.24,2.24,0,0,0-.35.71v3.83h-.82V63.49h.74v1.42a2.94,2.94,0,0,1,1.1-1.1,3,3,0,0,1,1.55-.42,1.84,1.84,0,0,1,.88.19,1.49,1.49,0,0,1,.58.54,2.49,2.49,0,0,1,.31.85,6,6,0,0,1,.1,1.12Z"/><path d="M108.1,69.86a2.22,2.22,0,0,1-.82-.15,2.07,2.07,0,0,1-.66-.41,1.86,1.86,0,0,1-.59-1.38,1.54,1.54,0,0,1,.19-.76,1.83,1.83,0,0,1,.54-.6,2.64,2.64,0,0,1,.83-.39,3.8,3.8,0,0,1,1.06-.14,5.8,5.8,0,0,1,1,.08,4.22,4.22,0,0,1,.88.24v-.56a1.82,1.82,0,0,0-.47-1.31,1.72,1.72,0,0,0-1.3-.49,2.76,2.76,0,0,0-1,.19,4.76,4.76,0,0,0-1,.55l-.29-.54a4.22,4.22,0,0,1,2.35-.82,2.53,2.53,0,0,1,1.85.66,2.44,2.44,0,0,1,.67,1.82v2.82q0,.34.3.34v.72l-.31,0a.7.7,0,0,1-.49-.16.58.58,0,0,1-.19-.43l0-.49a2.83,2.83,0,0,1-1.09.86A3.34,3.34,0,0,1,108.1,69.86Zm.19-.62a2.82,2.82,0,0,0,1.17-.24,1.91,1.91,0,0,0,.81-.64.76.76,0,0,0,.16-.23.61.61,0,0,0,.05-.23v-1a5.06,5.06,0,0,0-.85-.24,4.73,4.73,0,0,0-.89-.08,2.49,2.49,0,0,0-1.4.36,1.1,1.1,0,0,0-.54.95,1.29,1.29,0,0,0,.11.54,1.36,1.36,0,0,0,.31.44,1.46,1.46,0,0,0,.47.29A1.6,1.6,0,0,0,108.29,69.24Z"/><path d="M115.57,69.83a2.58,2.58,0,0,1-1.18-.27,3.06,3.06,0,0,1-.92-.71,3.28,3.28,0,0,1-.61-1,3.36,3.36,0,0,1-.22-1.19,3.7,3.7,0,0,1,.21-1.24,3.2,3.2,0,0,1,.59-1,2.9,2.9,0,0,1,.92-.71,2.63,2.63,0,0,1,1.18-.26,2.41,2.41,0,0,1,1.39.4,3.86,3.86,0,0,1,1,1V63.49h.73v6.28a2.55,2.55,0,0,1-.25,1.15,2.46,2.46,0,0,1-.66.83,2.8,2.8,0,0,1-1,.5,4.07,4.07,0,0,1-1.18.17,3.44,3.44,0,0,1-1.74-.38,3.07,3.07,0,0,1-1.07-1l.5-.4a2.25,2.25,0,0,0,1,.88,3.11,3.11,0,0,0,1.32.28,2.91,2.91,0,0,0,.86-.13,2.13,2.13,0,0,0,.71-.37,1.76,1.76,0,0,0,.49-.62,2,2,0,0,0,.18-.88V68.53a2.61,2.61,0,0,1-1,.95A2.64,2.64,0,0,1,115.57,69.83Zm.23-.68a2,2,0,0,0,.71-.13,2.37,2.37,0,0,0,.63-.35,2.33,2.33,0,0,0,.47-.5,1.55,1.55,0,0,0,.25-.56V65.66a2.46,2.46,0,0,0-.36-.62,2.49,2.49,0,0,0-.52-.49,2.61,2.61,0,0,0-.62-.32,1.94,1.94,0,0,0-.67-.12,2,2,0,0,0-.94.22,2.24,2.24,0,0,0-.7.58,2.59,2.59,0,0,0-.44.82,2.94,2.94,0,0,0-.15.92,2.6,2.6,0,0,0,.18,1,2.52,2.52,0,0,0,.5.8,2.39,2.39,0,0,0,.74.54A2.11,2.11,0,0,0,115.8,69.14Z"/><path d="M123.18,69.86a3,3,0,0,1-1.25-.26,3.06,3.06,0,0,1-1-.71,3.27,3.27,0,0,1-.65-1A3.37,3.37,0,0,1,120,66.6a3.3,3.3,0,0,1,.23-1.24,3.21,3.21,0,0,1,.65-1,3.08,3.08,0,0,1,1-.7,3.16,3.16,0,0,1,2.5,0,3,3,0,0,1,1,.7,3.3,3.3,0,0,1,.86,2.24v.19a.49.49,0,0,1,0,.13H120.9a2.64,2.64,0,0,0,.23.93,2.56,2.56,0,0,0,.51.74,2.28,2.28,0,0,0,.71.49,2.13,2.13,0,0,0,.86.17,2.21,2.21,0,0,0,.6-.08,2.44,2.44,0,0,0,.55-.23,2.06,2.06,0,0,0,.46-.35,1.53,1.53,0,0,0,.31-.46l.71.19a2.09,2.09,0,0,1-.41.63,2.85,2.85,0,0,1-.61.49,3,3,0,0,1-.77.32A3.33,3.33,0,0,1,123.18,69.86Zm2.3-3.58a2.53,2.53,0,0,0-.23-.92,2.5,2.5,0,0,0-.5-.71,2.23,2.23,0,0,0-.71-.47,2.21,2.21,0,0,0-.86-.17,2.25,2.25,0,0,0-.86.17,2.22,2.22,0,0,0-.71.47,2.3,2.3,0,0,0-.49.72,2.72,2.72,0,0,0-.22.91Z"/><path d="M136.82,69.74H136V66.25a2.93,2.93,0,0,0-.35-1.61,1.17,1.17,0,0,0-1-.52,1.75,1.75,0,0,0-.68.13,2.08,2.08,0,0,0-.59.37,2.56,2.56,0,0,0-.47.57,2.73,2.73,0,0,0-.31.73v3.82h-.82V66.25a3,3,0,0,0-.34-1.62,1.15,1.15,0,0,0-1-.5,1.84,1.84,0,0,0-1.26.49,2.75,2.75,0,0,0-.79,1.3v3.83h-.82V63.49h.74v1.42a3,3,0,0,1,1-1.12,2.5,2.5,0,0,1,1.38-.4,1.78,1.78,0,0,1,1.27.44A1.93,1.93,0,0,1,132.5,65a2.67,2.67,0,0,1,2.41-1.61,1.91,1.91,0,0,1,.89.19,1.51,1.51,0,0,1,.59.55,2.57,2.57,0,0,1,.32.85,5.56,5.56,0,0,1,.1,1.11Z"/><path d="M141.25,69.86A3,3,0,0,1,140,69.6a3.06,3.06,0,0,1-1-.71,3.27,3.27,0,0,1-.65-1,3.37,3.37,0,0,1-.23-1.26,3.3,3.3,0,0,1,.23-1.24,3.21,3.21,0,0,1,.65-1,3.08,3.08,0,0,1,1-.7,3.16,3.16,0,0,1,2.5,0,3,3,0,0,1,1,.7,3.3,3.3,0,0,1,.86,2.24v.19a.49.49,0,0,1,0,.13H139a2.64,2.64,0,0,0,.23.93,2.56,2.56,0,0,0,.51.74,2.28,2.28,0,0,0,.71.49,2.13,2.13,0,0,0,.86.17,2.21,2.21,0,0,0,.6-.08,2.44,2.44,0,0,0,.55-.23,2.06,2.06,0,0,0,.46-.35,1.53,1.53,0,0,0,.31-.46l.71.19a2.09,2.09,0,0,1-.41.63,2.85,2.85,0,0,1-.61.49,3,3,0,0,1-.77.32A3.33,3.33,0,0,1,141.25,69.86Zm2.3-3.58a2.53,2.53,0,0,0-.23-.92,2.5,2.5,0,0,0-.5-.71,2.23,2.23,0,0,0-.71-.47,2.21,2.21,0,0,0-.86-.17,2.25,2.25,0,0,0-.86.17,2.22,2.22,0,0,0-.71.47,2.3,2.3,0,0,0-.49.72,2.72,2.72,0,0,0-.22.91Z"/><path d="M150.85,69.74H150V66.25a3,3,0,0,0-.33-1.62,1.13,1.13,0,0,0-1-.5,2.08,2.08,0,0,0-.72.13,2.43,2.43,0,0,0-.67.37,2.86,2.86,0,0,0-.55.57,2.24,2.24,0,0,0-.35.71v3.83h-.82V63.49h.74v1.42a2.94,2.94,0,0,1,1.1-1.1,3,3,0,0,1,1.55-.42,1.84,1.84,0,0,1,.88.19,1.49,1.49,0,0,1,.58.54,2.49,2.49,0,0,1,.31.85,6,6,0,0,1,.1,1.12Z"/><path d="M155.53,69.44l-.21.1-.32.12-.41.11a2.34,2.34,0,0,1-.48,0,1.75,1.75,0,0,1-.5-.07,1.17,1.17,0,0,1-.42-.22,1.09,1.09,0,0,1-.29-.38,1.22,1.22,0,0,1-.11-.53V64.14h-.86v-.65h.86V61.38h.82v2.11h1.44v.65h-1.44v4.25a.65.65,0,0,0,.25.51.84.84,0,0,0,.51.16,1.53,1.53,0,0,0,.61-.11l.34-.16Z"/><path d="M216.06,51.38V42.86h.84v8.52Z"/><path d="M224.12,51.38h-.82V47.89a3,3,0,0,0-.33-1.62,1.13,1.13,0,0,0-1-.5,2.08,2.08,0,0,0-.72.13,2.42,2.42,0,0,0-.67.37,2.86,2.86,0,0,0-.55.57,2.25,2.25,0,0,0-.35.71v3.83h-.82V45.13h.74v1.42a2.94,2.94,0,0,1,1.1-1.1,3,3,0,0,1,1.55-.42,1.84,1.84,0,0,1,.88.19,1.49,1.49,0,0,1,.58.54,2.49,2.49,0,0,1,.31.85,6,6,0,0,1,.1,1.12Z"/><path d="M228.43,51.5a2.7,2.7,0,0,1-1.2-.27,3.07,3.07,0,0,1-.95-.71,3.28,3.28,0,0,1-.62-1,3.38,3.38,0,0,1-.22-1.22,3.65,3.65,0,0,1,.22-1.25,3.36,3.36,0,0,1,.59-1,2.8,2.8,0,0,1,.9-.7A2.56,2.56,0,0,1,228.3,45a2.45,2.45,0,0,1,1.4.41,3.13,3.13,0,0,1,1,1V42.62h.82v7.7q0,.34.29.34v.72l-.29,0a.75.75,0,0,1-.5-.19.58.58,0,0,1-.22-.45v-.61a2.73,2.73,0,0,1-1,1A2.65,2.65,0,0,1,228.43,51.5Zm.18-.72a2,2,0,0,0,.64-.12,2.66,2.66,0,0,0,.64-.33,2.18,2.18,0,0,0,.51-.49,1.32,1.32,0,0,0,.26-.61V47.3a2.13,2.13,0,0,0-.35-.61,2.8,2.8,0,0,0-.52-.5,2.45,2.45,0,0,0-.63-.34,2,2,0,0,0-.66-.12,1.92,1.92,0,0,0-.91.22,2.31,2.31,0,0,0-.7.57,2.54,2.54,0,0,0-.45.81,2.89,2.89,0,0,0-.16.94,2.59,2.59,0,0,0,.18,1,2.57,2.57,0,0,0,.49.8,2.37,2.37,0,0,0,.74.55A2.1,2.1,0,0,0,228.61,50.78Z"/><path d="M235.28,51.5a1.76,1.76,0,0,1-1.52-.68,3.4,3.4,0,0,1-.5-2V45.13h.82v3.53q0,2.12,1.45,2.12a2.15,2.15,0,0,0,.71-.12,2.24,2.24,0,0,0,.64-.35,2.82,2.82,0,0,0,.53-.54,2.71,2.71,0,0,0,.38-.71V45.13h.82v5.2q0,.34.29.34v.72l-.23,0h-.13a.65.65,0,0,1-.47-.2.72.72,0,0,1-.18-.52V50a2.91,2.91,0,0,1-1.11,1.13A3,3,0,0,1,235.28,51.5Z"/><path d="M242.53,51.5a4.34,4.34,0,0,1-1.43-.24,3.42,3.42,0,0,1-1.2-.7l.37-.55a4,4,0,0,0,1.07.65,3.16,3.16,0,0,0,1.17.22,2.11,2.11,0,0,0,1.21-.31,1,1,0,0,0,.45-.87.76.76,0,0,0-.12-.44,1,1,0,0,0-.35-.31,2.76,2.76,0,0,0-.59-.23l-.82-.21q-.54-.13-.94-.26a2.85,2.85,0,0,1-.65-.3,1.08,1.08,0,0,1-.38-.41,1.35,1.35,0,0,1-.13-.62,1.78,1.78,0,0,1,.19-.83,1.68,1.68,0,0,1,.5-.59,2.29,2.29,0,0,1,.74-.35,3.36,3.36,0,0,1,.91-.12,3.51,3.51,0,0,1,1.31.23,2.58,2.58,0,0,1,.95.62l-.4.48a2.19,2.19,0,0,0-.85-.54,3,3,0,0,0-1-.18,2.58,2.58,0,0,0-.6.07,1.45,1.45,0,0,0-.49.21,1,1,0,0,0-.33.37,1.08,1.08,0,0,0-.12.52.85.85,0,0,0,.08.41.71.71,0,0,0,.28.27,2.26,2.26,0,0,0,.49.2l.71.19q.6.14,1.06.29a3.31,3.31,0,0,1,.76.34,1.33,1.33,0,0,1,.46.47,1.35,1.35,0,0,1,.16.67A1.63,1.63,0,0,1,244.3,51,2.86,2.86,0,0,1,242.53,51.5Z"/><path d="M249.3,51.08l-.21.1-.32.12-.41.11a2.37,2.37,0,0,1-.48,0,1.75,1.75,0,0,1-.5-.07,1.18,1.18,0,0,1-.42-.22,1.09,1.09,0,0,1-.29-.38,1.22,1.22,0,0,1-.11-.53V45.78h-.86v-.65h.86V43h.82v2.11h1.44v.65h-1.44V50a.65.65,0,0,0,.25.51.84.84,0,0,0,.51.16,1.54,1.54,0,0,0,.61-.11l.34-.16Z"/><path d="M253.44,45.85a2.58,2.58,0,0,0-1.44.46,2.3,2.3,0,0,0-.86,1.19v3.89h-.82V45.13h.77v1.5A2.85,2.85,0,0,1,252,45.5a2.17,2.17,0,0,1,1.26-.41h.16Z"/><path d="M254.89,53.3l.19,0h.17a.81.81,0,0,0,.34-.06.64.64,0,0,0,.25-.26,4.24,4.24,0,0,0,.27-.59q.15-.38.43-1l-2.72-6.25h.84l2.32,5.5,2.15-5.5h.78l-3.24,8.06a1.46,1.46,0,0,1-.44.61,1.25,1.25,0,0,1-.83.26h-.23l-.26,0Z"/><path d="M232.42,63.59a2,2,0,0,1-.19.88,2.24,2.24,0,0,1-.52.7,2.33,2.33,0,0,1-.76.46,2.62,2.62,0,0,1-.92.16h-4V57.26h4.1a1.68,1.68,0,0,1,.8.19,2,2,0,0,1,.61.5,2.27,2.27,0,0,1,.39.7,2.34,2.34,0,0,1,.14.79,2.24,2.24,0,0,1-.32,1.18,2,2,0,0,1-.9.8,2.13,2.13,0,0,1,1.16.8A2.27,2.27,0,0,1,232.42,63.59ZM226.86,58v3.14h2.93a1.31,1.31,0,0,0,.58-.13,1.49,1.49,0,0,0,.46-.35,1.65,1.65,0,0,0,.41-1.09,1.81,1.81,0,0,0-.1-.61,1.48,1.48,0,0,0-.29-.5,1.44,1.44,0,0,0-.44-.34,1.22,1.22,0,0,0-.55-.13Zm4.73,5.45a1.74,1.74,0,0,0-.11-.61,1.58,1.58,0,0,0-.77-.88,1.26,1.26,0,0,0-.58-.14h-3.26V65H230a1.41,1.41,0,0,0,.61-.13,1.61,1.61,0,0,0,.49-.35,1.66,1.66,0,0,0,.33-.52A1.59,1.59,0,0,0,231.58,63.44Z"/><path d="M236.54,65.9a3,3,0,0,1-1.25-.26,3,3,0,0,1-1-.71,3.29,3.29,0,0,1-.65-1,3.38,3.38,0,0,1-.23-1.26,3.3,3.3,0,0,1,.23-1.24,3.21,3.21,0,0,1,.65-1,3.08,3.08,0,0,1,1-.7,3,3,0,0,1,3.48.7,3.3,3.3,0,0,1,.86,2.24v.19a.49.49,0,0,1,0,.13h-5.35a2.62,2.62,0,0,0,.23.93,2.55,2.55,0,0,0,.51.74,2.26,2.26,0,0,0,.71.49,2.13,2.13,0,0,0,.86.17,2.23,2.23,0,0,0,.6-.08,2.46,2.46,0,0,0,.55-.23,2,2,0,0,0,.46-.35,1.54,1.54,0,0,0,.31-.46l.71.19a2.08,2.08,0,0,1-.41.63,2.81,2.81,0,0,1-.61.49,3,3,0,0,1-.77.32A3.33,3.33,0,0,1,236.54,65.9Zm2.3-3.58a2.53,2.53,0,0,0-.23-.92,2.49,2.49,0,0,0-.5-.71,2.22,2.22,0,0,0-1.57-.64,2.26,2.26,0,0,0-.86.17,2.21,2.21,0,0,0-.71.47,2.3,2.3,0,0,0-.49.72,2.71,2.71,0,0,0-.22.91Z"/><path d="M243,65.9a4.35,4.35,0,0,1-1.43-.24,3.42,3.42,0,0,1-1.2-.7l.37-.55a4,4,0,0,0,1.07.65,3.14,3.14,0,0,0,1.17.22,2.11,2.11,0,0,0,1.21-.31,1,1,0,0,0,.45-.87.75.75,0,0,0-.12-.44,1,1,0,0,0-.35-.31,2.81,2.81,0,0,0-.59-.23l-.82-.21q-.54-.13-.94-.26a2.84,2.84,0,0,1-.65-.3,1.07,1.07,0,0,1-.38-.41,1.34,1.34,0,0,1-.13-.62,1.78,1.78,0,0,1,.19-.83,1.69,1.69,0,0,1,.5-.59,2.3,2.3,0,0,1,.74-.35,3.33,3.33,0,0,1,.91-.12,3.5,3.5,0,0,1,1.31.23,2.57,2.57,0,0,1,.95.62l-.4.48a2.19,2.19,0,0,0-.85-.54,3,3,0,0,0-1-.18,2.58,2.58,0,0,0-.6.07,1.46,1.46,0,0,0-.49.21,1.05,1.05,0,0,0-.33.37,1.08,1.08,0,0,0-.12.52.87.87,0,0,0,.08.41.72.72,0,0,0,.28.27,2.26,2.26,0,0,0,.49.2l.71.19q.6.15,1.06.29a3.35,3.35,0,0,1,.76.34,1.32,1.32,0,0,1,.46.47,1.34,1.34,0,0,1,.16.67,1.63,1.63,0,0,1-.66,1.37A2.85,2.85,0,0,1,243,65.9Z"/><path d="M249.73,65.48l-.21.1-.32.12-.41.11a2.32,2.32,0,0,1-.48,0,1.75,1.75,0,0,1-.5-.07,1.16,1.16,0,0,1-.42-.22,1.09,1.09,0,0,1-.29-.38,1.23,1.23,0,0,1-.11-.53V60.18h-.86v-.65H247V57.42h.82v2.11h1.44v.65h-1.44v4.25a.65.65,0,0,0,.25.51.84.84,0,0,0,.51.16,1.53,1.53,0,0,0,.61-.11l.34-.16Z"/><path d="M216,80.18V71.66h3.53a2.22,2.22,0,0,1,1,.23,2.68,2.68,0,0,1,.8.61,2.91,2.91,0,0,1,.53.86,2.59,2.59,0,0,1,.19,1,2.89,2.89,0,0,1-.18,1,2.75,2.75,0,0,1-.5.86,2.51,2.51,0,0,1-.77.6,2.18,2.18,0,0,1-1,.23h-2.76v3.14Zm.84-3.89h2.72a1.42,1.42,0,0,0,.68-.16,1.65,1.65,0,0,0,.52-.43,2,2,0,0,0,.34-.62,2.28,2.28,0,0,0,.12-.74,2.05,2.05,0,0,0-.14-.75,2,2,0,0,0-.37-.62,1.71,1.71,0,0,0-.55-.41,1.55,1.55,0,0,0-.67-.15h-2.65Z"/><path d="M226.42,74.65a2.58,2.58,0,0,0-1.44.46,2.3,2.3,0,0,0-.86,1.19v3.89h-.82V73.93h.77v1.5A2.85,2.85,0,0,1,225,74.3a2.17,2.17,0,0,1,1.26-.41h.16Z"/><path d="M229,80.3a2.21,2.21,0,0,1-.82-.15,2.08,2.08,0,0,1-.66-.41,1.86,1.86,0,0,1-.59-1.38,1.54,1.54,0,0,1,.19-.76,1.84,1.84,0,0,1,.54-.6,2.64,2.64,0,0,1,.83-.39,3.79,3.79,0,0,1,1.06-.14,5.81,5.81,0,0,1,1,.08,4.28,4.28,0,0,1,.88.24v-.56a1.82,1.82,0,0,0-.47-1.31,1.71,1.71,0,0,0-1.3-.49,2.76,2.76,0,0,0-1,.19,4.75,4.75,0,0,0-1,.55l-.29-.54a4.22,4.22,0,0,1,2.35-.82,2.52,2.52,0,0,1,1.85.66,2.44,2.44,0,0,1,.67,1.82v2.82q0,.34.3.34v.72l-.31,0a.7.7,0,0,1-.49-.16.58.58,0,0,1-.19-.43l0-.49a2.83,2.83,0,0,1-1.09.86A3.33,3.33,0,0,1,229,80.3Zm.19-.62a2.82,2.82,0,0,0,1.17-.24,1.91,1.91,0,0,0,.81-.64.76.76,0,0,0,.16-.23.62.62,0,0,0,.05-.23v-1a5,5,0,0,0-.85-.24,4.7,4.7,0,0,0-.89-.08,2.49,2.49,0,0,0-1.4.36,1.1,1.1,0,0,0-.54.95,1.29,1.29,0,0,0,.11.54,1.38,1.38,0,0,0,.31.44,1.47,1.47,0,0,0,.47.29A1.61,1.61,0,0,0,229.19,79.68Z"/><path d="M233.53,77a3.41,3.41,0,0,1,.23-1.25,3.12,3.12,0,0,1,.64-1,3,3,0,0,1,1-.69,3.14,3.14,0,0,1,1.27-.25,2.92,2.92,0,0,1,1.55.4,2.59,2.59,0,0,1,1,1.09l-.79.25a1.91,1.91,0,0,0-.74-.75,2.09,2.09,0,0,0-1-.27,2.12,2.12,0,0,0-.89.19,2.31,2.31,0,0,0-.72.52,2.38,2.38,0,0,0-.48.79,2.88,2.88,0,0,0,0,2,2.54,2.54,0,0,0,.49.81,2.33,2.33,0,0,0,.73.54,2,2,0,0,0,.88.2,2.16,2.16,0,0,0,.59-.08,2.25,2.25,0,0,0,.55-.23,2,2,0,0,0,.43-.34,1.1,1.1,0,0,0,.25-.41l.8.24a2.05,2.05,0,0,1-.38.62,2.69,2.69,0,0,1-.59.49,2.91,2.91,0,0,1-.76.32,3.22,3.22,0,0,1-.86.11,3,3,0,0,1-2.26-1,3.28,3.28,0,0,1-.65-1A3.37,3.37,0,0,1,233.53,77Z"/><path d="M243.55,79.88l-.21.1-.32.12-.41.11a2.37,2.37,0,0,1-.48,0,1.75,1.75,0,0,1-.5-.07,1.18,1.18,0,0,1-.42-.22,1.09,1.09,0,0,1-.29-.38,1.22,1.22,0,0,1-.11-.53V74.58H240v-.65h.86V71.82h.82v2.11h1.44v.65h-1.44v4.25a.65.65,0,0,0,.25.51.84.84,0,0,0,.51.16,1.54,1.54,0,0,0,.61-.11l.34-.16Z"/><path d="M244.57,72.62v-1.2h.82v1.2Zm0,7.56V73.93h.82v6.25Z"/><path d="M246.76,77a3.41,3.41,0,0,1,.23-1.25,3.12,3.12,0,0,1,.64-1,3,3,0,0,1,1-.69,3.14,3.14,0,0,1,1.27-.25,2.92,2.92,0,0,1,1.55.4,2.59,2.59,0,0,1,1,1.09l-.79.25a1.91,1.91,0,0,0-.74-.75,2.09,2.09,0,0,0-1-.27,2.12,2.12,0,0,0-.89.19,2.31,2.31,0,0,0-.72.52,2.38,2.38,0,0,0-.48.79,2.88,2.88,0,0,0,0,2,2.54,2.54,0,0,0,.49.81,2.33,2.33,0,0,0,.73.54,2,2,0,0,0,.88.2,2.16,2.16,0,0,0,.59-.08,2.25,2.25,0,0,0,.55-.23,2,2,0,0,0,.43-.34,1.1,1.1,0,0,0,.25-.41l.8.24a2.05,2.05,0,0,1-.38.62,2.69,2.69,0,0,1-.59.49,2.91,2.91,0,0,1-.76.32,3.22,3.22,0,0,1-.86.11,3,3,0,0,1-2.26-1,3.28,3.28,0,0,1-.65-1A3.37,3.37,0,0,1,246.76,77Z"/><path d="M256.42,80.3a3,3,0,0,1-1.25-.26,3.06,3.06,0,0,1-1-.71,3.28,3.28,0,0,1-.65-1,3.37,3.37,0,0,1-.23-1.26,3.29,3.29,0,0,1,.23-1.24,3.21,3.21,0,0,1,.65-1,3.07,3.07,0,0,1,1-.7,3.16,3.16,0,0,1,2.5,0,3,3,0,0,1,1,.7A3.3,3.3,0,0,1,259.5,77v.19a.48.48,0,0,1,0,.13h-5.35a2.63,2.63,0,0,0,.23.93,2.56,2.56,0,0,0,.51.74,2.28,2.28,0,0,0,.71.49,2.13,2.13,0,0,0,.86.17,2.19,2.19,0,0,0,.6-.08,2.42,2.42,0,0,0,.55-.23,2.05,2.05,0,0,0,.46-.35,1.53,1.53,0,0,0,.31-.46l.71.19a2.11,2.11,0,0,1-.41.63,2.87,2.87,0,0,1-.61.49,3,3,0,0,1-.77.32A3.33,3.33,0,0,1,256.42,80.3Zm2.3-3.58a2.54,2.54,0,0,0-.23-.92,2.5,2.5,0,0,0-.5-.71,2.23,2.23,0,0,0-.71-.47,2.19,2.19,0,0,0-.86-.17,2.24,2.24,0,0,0-.86.17,2.21,2.21,0,0,0-.71.47,2.31,2.31,0,0,0-.49.72,2.71,2.71,0,0,0-.22.91Z"/><path d="M279.37,143a2.59,2.59,0,0,0-1-.66A3.5,3.5,0,0,0,277,142a2.57,2.57,0,0,0-1.64.43,1.42,1.42,0,0,0-.52,1.16,1.27,1.27,0,0,0,.14.63,1.2,1.2,0,0,0,.43.43,3,3,0,0,0,.74.31q.45.13,1.06.26a11.42,11.42,0,0,1,1.23.32,3.55,3.55,0,0,1,.93.45,1.88,1.88,0,0,1,.59.65,2,2,0,0,1,.2,1,2.16,2.16,0,0,1-.23,1,2,2,0,0,1-.64.72,2.83,2.83,0,0,1-1,.43,5.21,5.21,0,0,1-1.24.14,5.08,5.08,0,0,1-3.42-1.24l.42-.68a3.28,3.28,0,0,0,.55.46,3.88,3.88,0,0,0,.71.38,4.42,4.42,0,0,0,.83.25,4.66,4.66,0,0,0,.94.09,2.93,2.93,0,0,0,1.59-.37,1.23,1.23,0,0,0,.57-1.11,1.28,1.28,0,0,0-.16-.67,1.41,1.41,0,0,0-.49-.47,3.44,3.44,0,0,0-.8-.34q-.48-.15-1.12-.29t-1.18-.32a3.14,3.14,0,0,1-.85-.42,1.63,1.63,0,0,1-.52-.61,2,2,0,0,1-.17-.87,2.4,2.4,0,0,1,.22-1.05,2.06,2.06,0,0,1,.63-.77,3,3,0,0,1,1-.47,4.32,4.32,0,0,1,1.22-.16,4.18,4.18,0,0,1,1.52.26,4.08,4.08,0,0,1,1.21.73Z"/><path d="M284.17,150a3,3,0,0,1-1.25-.26,3.06,3.06,0,0,1-1-.7,3.19,3.19,0,0,1-.64-1,3.39,3.39,0,0,1-.23-1.24,3.34,3.34,0,0,1,.23-1.25,3.28,3.28,0,0,1,.65-1,3.15,3.15,0,0,1,1-.71,2.88,2.88,0,0,1,1.24-.26,2.92,2.92,0,0,1,1.24.26,3.14,3.14,0,0,1,1,.71,3.28,3.28,0,0,1,.65,1,3.34,3.34,0,0,1,.23,1.25,3.39,3.39,0,0,1-.23,1.24,3.18,3.18,0,0,1-.64,1,3,3,0,0,1-1,.7A3,3,0,0,1,284.17,150Zm-2.27-3.22a2.61,2.61,0,0,0,.18,1,2.66,2.66,0,0,0,.49.79,2.2,2.2,0,0,0,.72.53,2.07,2.07,0,0,0,.88.19,2,2,0,0,0,.88-.2,2.36,2.36,0,0,0,.73-.54,2.58,2.58,0,0,0,.49-.8,2.76,2.76,0,0,0,0-2,2.57,2.57,0,0,0-.49-.8,2.34,2.34,0,0,0-.73-.54,2,2,0,0,0-.88-.2,2,2,0,0,0-.88.2,2.33,2.33,0,0,0-.72.55,2.63,2.63,0,0,0-.49.81A2.7,2.7,0,0,0,281.9,146.78Z"/><path d="M288.85,149.88v-5.6H288v-.65h.86v-.17a3,3,0,0,1,.49-1.81,1.59,1.59,0,0,1,1.34-.65,2.41,2.41,0,0,1,.72.11,2.1,2.1,0,0,1,.6.29l-.25.59a1.23,1.23,0,0,0-.41-.2,1.77,1.77,0,0,0-.5-.07,1,1,0,0,0-.88.44,2.29,2.29,0,0,0-.3,1.28v.19h1.73v.65h-1.73v5.6Z"/><path d="M295.51,149.58l-.21.1-.32.12-.41.11a2.31,2.31,0,0,1-.48,0,1.75,1.75,0,0,1-.5-.07,1.16,1.16,0,0,1-.42-.22,1.09,1.09,0,0,1-.29-.38,1.22,1.22,0,0,1-.11-.53v-4.48h-.86v-.65h.86v-2.11h.82v2.11H295v.65h-1.44v4.25a.65.65,0,0,0,.25.51.84.84,0,0,0,.51.16,1.53,1.53,0,0,0,.61-.11l.34-.16Z"/><path d="M304.4,143.63h.8l-2.69,6.25h-.67l-1.34-3.19-1.33,3.19h-.67l-2.69-6.25h.79l2.28,5.41,1.19-2.86L299,143.64h.68l.82,2,.82-2h.7l-1.07,2.54,1.19,2.86Z"/><path d="M307.71,150a2.22,2.22,0,0,1-.82-.15,2.07,2.07,0,0,1-.66-.41,1.86,1.86,0,0,1-.59-1.38,1.54,1.54,0,0,1,.19-.76,1.83,1.83,0,0,1,.54-.6,2.64,2.64,0,0,1,.83-.39,3.82,3.82,0,0,1,1.06-.14,5.8,5.8,0,0,1,1,.08,4.16,4.16,0,0,1,.88.24v-.56a1.82,1.82,0,0,0-.47-1.31,1.72,1.72,0,0,0-1.3-.49,2.76,2.76,0,0,0-1,.19,4.79,4.79,0,0,0-1,.55l-.29-.54a4.22,4.22,0,0,1,2.35-.82,2.53,2.53,0,0,1,1.85.66,2.44,2.44,0,0,1,.67,1.82v2.82c0,.22.1.34.3.34v.72l-.31,0a.7.7,0,0,1-.49-.16.58.58,0,0,1-.19-.43l0-.49a2.82,2.82,0,0,1-1.09.86A3.34,3.34,0,0,1,307.71,150Zm.19-.62a2.82,2.82,0,0,0,1.17-.24,1.91,1.91,0,0,0,.81-.64.76.76,0,0,0,.16-.23.6.6,0,0,0,.05-.23v-1a5.1,5.1,0,0,0-.85-.24,4.77,4.77,0,0,0-.89-.08,2.49,2.49,0,0,0-1.4.36,1.09,1.09,0,0,0-.54.95,1.29,1.29,0,0,0,.11.54,1.36,1.36,0,0,0,.31.44,1.46,1.46,0,0,0,.47.29A1.59,1.59,0,0,0,307.9,149.38Z"/><path d="M315.79,144.35a2.56,2.56,0,0,0-1.44.46,2.3,2.3,0,0,0-.86,1.19v3.89h-.82v-6.25h.77v1.5a2.84,2.84,0,0,1,.94-1.13,2.17,2.17,0,0,1,1.26-.41h.16Z"/><path d="M319.27,150a3,3,0,0,1-1.25-.26,3.05,3.05,0,0,1-1-.71,3.28,3.28,0,0,1-.65-1,3.38,3.38,0,0,1-.23-1.26,3.3,3.3,0,0,1,.23-1.24,3.21,3.21,0,0,1,.65-1,3.09,3.09,0,0,1,1-.7,3,3,0,0,1,3.48.7,3.3,3.3,0,0,1,.86,2.24v.19a.49.49,0,0,1,0,.13H317a2.63,2.63,0,0,0,.23.93,2.55,2.55,0,0,0,.51.74,2.27,2.27,0,0,0,.71.49,2.14,2.14,0,0,0,.86.17,2.23,2.23,0,0,0,.6-.08,2.47,2.47,0,0,0,.55-.23,2.06,2.06,0,0,0,.46-.35,1.54,1.54,0,0,0,.31-.46l.71.19a2.08,2.08,0,0,1-.41.63,2.82,2.82,0,0,1-.61.49,3,3,0,0,1-.77.32A3.33,3.33,0,0,1,319.27,150Zm2.3-3.58a2.52,2.52,0,0,0-.23-.92,2.49,2.49,0,0,0-.5-.71,2.22,2.22,0,0,0-1.57-.64,2.26,2.26,0,0,0-.86.17,2.22,2.22,0,0,0-.71.47,2.3,2.3,0,0,0-.49.72,2.72,2.72,0,0,0-.22.91Z"/><path d="M285.48,163.52a4,4,0,0,1-1.07.6,3.74,3.74,0,0,1-2.88-.16,4.16,4.16,0,0,1-1.27-1,4.33,4.33,0,0,1-.82-1.38,4.57,4.57,0,0,1-.29-1.6,4.42,4.42,0,0,1,.31-1.63,4.49,4.49,0,0,1,.85-1.38,4.09,4.09,0,0,1,1.27-1,3.58,3.58,0,0,1,1.58-.35,3.52,3.52,0,0,1,1.63.38,4.08,4.08,0,0,1,1.26,1,4.58,4.58,0,0,1,.81,1.39,4.5,4.5,0,0,1,.29,1.58,4.47,4.47,0,0,1-1.2,3.06l1,1.19h-.83Zm-2.33.06a2.77,2.77,0,0,0,1-.17,3.2,3.2,0,0,0,.84-.47l-1.07-1.27h.83l.68.82a3.72,3.72,0,0,0,.65-1.15,3.93,3.93,0,0,0,0-2.65,3.66,3.66,0,0,0-.65-1.13,3.31,3.31,0,0,0-1-.79,2.71,2.71,0,0,0-1.27-.3,2.79,2.79,0,0,0-1.31.31,3.12,3.12,0,0,0-1,.81,3.76,3.76,0,0,0-.63,1.15,4,4,0,0,0,0,2.64,3.62,3.62,0,0,0,.65,1.14,3.16,3.16,0,0,0,1,.79A2.78,2.78,0,0,0,283.15,163.58Z"/><path d="M290.5,164.4a1.76,1.76,0,0,1-1.52-.68,3.4,3.4,0,0,1-.5-2V158h.82v3.53q0,2.12,1.45,2.12a2.15,2.15,0,0,0,.71-.12,2.25,2.25,0,0,0,.64-.35,2.83,2.83,0,0,0,.53-.54A2.71,2.71,0,0,0,293,162V158h.82v5.2q0,.34.29.34v.72l-.23,0h-.13a.65.65,0,0,1-.47-.2.72.72,0,0,1-.18-.52v-.72A2.91,2.91,0,0,1,292,164,3,3,0,0,1,290.5,164.4Z"/><path d="M297.24,164.4a2.22,2.22,0,0,1-.82-.15,2.08,2.08,0,0,1-.66-.41,1.86,1.86,0,0,1-.59-1.38,1.54,1.54,0,0,1,.19-.76,1.83,1.83,0,0,1,.54-.6,2.64,2.64,0,0,1,.83-.39,3.78,3.78,0,0,1,1.06-.14,5.8,5.8,0,0,1,1,.08,4.28,4.28,0,0,1,.88.24v-.56a1.81,1.81,0,0,0-.47-1.31,1.71,1.71,0,0,0-1.3-.49,2.76,2.76,0,0,0-1,.19,4.74,4.74,0,0,0-1,.55l-.29-.54a4.22,4.22,0,0,1,2.35-.82,2.53,2.53,0,0,1,1.85.66,2.44,2.44,0,0,1,.67,1.82v2.82q0,.34.3.34v.72l-.31,0a.7.7,0,0,1-.49-.16.58.58,0,0,1-.19-.43l0-.49a2.83,2.83,0,0,1-1.09.86A3.34,3.34,0,0,1,297.24,164.4Zm.19-.62a2.82,2.82,0,0,0,1.17-.24,1.91,1.91,0,0,0,.81-.64.75.75,0,0,0,.16-.23.61.61,0,0,0,.05-.23v-1a5,5,0,0,0-.85-.24,4.69,4.69,0,0,0-.89-.08,2.49,2.49,0,0,0-1.4.36,1.1,1.1,0,0,0-.54.95,1.29,1.29,0,0,0,.11.54,1.37,1.37,0,0,0,.31.44,1.46,1.46,0,0,0,.47.29A1.61,1.61,0,0,0,297.43,163.78Z"/><path d="M302.25,155.52h.82v7.34a.75.75,0,0,0,.19.55.71.71,0,0,0,.54.2,1.59,1.59,0,0,0,.31,0,2,2,0,0,0,.34-.1l.14.66a2.72,2.72,0,0,1-.56.16,3.33,3.33,0,0,1-.57.06,1.21,1.21,0,0,1-.89-.32,1.2,1.2,0,0,1-.32-.89Z"/><path d="M305.47,156.72v-1.2h.82v1.2Zm0,7.56V158h.82v6.25Z"/><path d="M311.09,164l-.21.1-.32.12-.41.11a2.38,2.38,0,0,1-.48,0,1.75,1.75,0,0,1-.5-.07,1.18,1.18,0,0,1-.42-.22,1.09,1.09,0,0,1-.29-.38,1.23,1.23,0,0,1-.11-.53v-4.48h-.86V158h.86v-2.11h.82V158h1.44v.65h-1.44v4.25a.65.65,0,0,0,.25.51.84.84,0,0,0,.51.16,1.53,1.53,0,0,0,.61-.11l.34-.16Z"/><path d="M312.47,166.2l.19,0h.17a.8.8,0,0,0,.34-.06.64.64,0,0,0,.25-.26,4.29,4.29,0,0,0,.27-.59q.15-.38.43-1L311.39,158h.84l2.32,5.5,2.15-5.5h.78l-3.24,8.06a1.47,1.47,0,0,1-.44.61,1.25,1.25,0,0,1-.83.26h-.23l-.26,0Z"/><path d="M272.68,170.16h.71l3.54,8.52H276l-1.1-2.66h-3.83L270,178.68h-.9Zm2.06,5.2L273,171.14l-1.74,4.21Z"/><path d="M280,178.8a4.35,4.35,0,0,1-1.43-.24,3.42,3.42,0,0,1-1.2-.7l.37-.55a4,4,0,0,0,1.07.65,3.14,3.14,0,0,0,1.17.22,2.11,2.11,0,0,0,1.21-.31,1,1,0,0,0,.45-.87.75.75,0,0,0-.12-.44,1,1,0,0,0-.35-.31,2.78,2.78,0,0,0-.59-.23l-.82-.21q-.54-.13-.94-.26a2.85,2.85,0,0,1-.65-.3,1.07,1.07,0,0,1-.38-.41,1.34,1.34,0,0,1-.13-.62,1.78,1.78,0,0,1,.19-.83,1.69,1.69,0,0,1,.5-.59,2.31,2.31,0,0,1,.74-.35,3.33,3.33,0,0,1,.91-.12,3.51,3.51,0,0,1,1.31.23,2.57,2.57,0,0,1,.95.62l-.4.48a2.2,2.2,0,0,0-.85-.54,3,3,0,0,0-1-.18,2.58,2.58,0,0,0-.6.07,1.46,1.46,0,0,0-.49.21,1,1,0,0,0-.33.37,1.08,1.08,0,0,0-.12.52.86.86,0,0,0,.08.41.72.72,0,0,0,.28.27,2.26,2.26,0,0,0,.49.2l.71.19q.6.15,1.06.29a3.35,3.35,0,0,1,.76.34,1.32,1.32,0,0,1,.46.47,1.34,1.34,0,0,1,.16.67,1.63,1.63,0,0,1-.66,1.37A2.85,2.85,0,0,1,280,178.8Z"/><path d="M285.84,178.8a4.35,4.35,0,0,1-1.43-.24,3.42,3.42,0,0,1-1.2-.7l.37-.55a4,4,0,0,0,1.07.65,3.14,3.14,0,0,0,1.17.22,2.11,2.11,0,0,0,1.21-.31,1,1,0,0,0,.45-.87.75.75,0,0,0-.12-.44,1,1,0,0,0-.35-.31,2.78,2.78,0,0,0-.59-.23l-.82-.21q-.54-.13-.94-.26a2.85,2.85,0,0,1-.65-.3,1.07,1.07,0,0,1-.38-.41,1.34,1.34,0,0,1-.13-.62,1.78,1.78,0,0,1,.19-.83,1.69,1.69,0,0,1,.5-.59,2.31,2.31,0,0,1,.74-.35,3.33,3.33,0,0,1,.91-.12,3.51,3.51,0,0,1,1.31.23,2.57,2.57,0,0,1,.95.62l-.4.48a2.2,2.2,0,0,0-.85-.54,3,3,0,0,0-1-.18,2.58,2.58,0,0,0-.6.07,1.46,1.46,0,0,0-.49.21,1,1,0,0,0-.33.37,1.08,1.08,0,0,0-.12.52.86.86,0,0,0,.08.41.72.72,0,0,0,.28.27,2.26,2.26,0,0,0,.49.2l.71.19q.6.15,1.06.29a3.35,3.35,0,0,1,.76.34,1.32,1.32,0,0,1,.46.47,1.34,1.34,0,0,1,.16.67,1.63,1.63,0,0,1-.66,1.37A2.85,2.85,0,0,1,285.84,178.8Z"/><path d="M291.56,178.8a1.76,1.76,0,0,1-1.52-.68,3.4,3.4,0,0,1-.5-2v-3.67h.82V176q0,2.12,1.45,2.12a2.15,2.15,0,0,0,.71-.12,2.2,2.2,0,0,0,.64-.35,2.8,2.8,0,0,0,.53-.54,2.69,2.69,0,0,0,.38-.71v-3.94h.82v5.2c0,.22.1.34.29.34v.72l-.23,0h-.13a.65.65,0,0,1-.47-.2.72.72,0,0,1-.18-.52v-.72a2.91,2.91,0,0,1-1.11,1.13A3,3,0,0,1,291.56,178.8Z"/><path d="M299.85,173.15a2.56,2.56,0,0,0-1.44.46,2.3,2.3,0,0,0-.86,1.19v3.89h-.82v-6.25h.77v1.5a2.84,2.84,0,0,1,.94-1.13,2.17,2.17,0,0,1,1.26-.41h.16Z"/><path d="M302.43,178.8a2.22,2.22,0,0,1-.82-.15,2.07,2.07,0,0,1-.66-.41,1.86,1.86,0,0,1-.59-1.38,1.54,1.54,0,0,1,.19-.76,1.83,1.83,0,0,1,.54-.6,2.64,2.64,0,0,1,.83-.39A3.82,3.82,0,0,1,303,175a5.8,5.8,0,0,1,1,.08,4.16,4.16,0,0,1,.88.24v-.56a1.82,1.82,0,0,0-.47-1.31,1.72,1.72,0,0,0-1.3-.49,2.76,2.76,0,0,0-1,.19,4.79,4.79,0,0,0-1,.55l-.29-.54a4.22,4.22,0,0,1,2.35-.82A2.53,2.53,0,0,1,305,173a2.44,2.44,0,0,1,.67,1.82v2.82c0,.22.1.34.3.34v.72l-.31,0a.7.7,0,0,1-.49-.16.58.58,0,0,1-.19-.43l0-.49a2.82,2.82,0,0,1-1.09.86A3.34,3.34,0,0,1,302.43,178.8Zm.19-.62a2.82,2.82,0,0,0,1.17-.24,1.91,1.91,0,0,0,.81-.64.76.76,0,0,0,.16-.23.6.6,0,0,0,.05-.23v-1a5.1,5.1,0,0,0-.85-.24,4.77,4.77,0,0,0-.89-.08,2.49,2.49,0,0,0-1.4.36,1.09,1.09,0,0,0-.54.95,1.29,1.29,0,0,0,.11.54,1.36,1.36,0,0,0,.31.44,1.46,1.46,0,0,0,.47.29A1.59,1.59,0,0,0,302.62,178.18Z"/><path d="M312.65,178.68h-.82v-3.49a3,3,0,0,0-.33-1.62,1.13,1.13,0,0,0-1-.5,2.08,2.08,0,0,0-.72.13,2.43,2.43,0,0,0-.67.37,2.86,2.86,0,0,0-.55.57,2.23,2.23,0,0,0-.35.71v3.83h-.82v-6.25h.74v1.42a2.94,2.94,0,0,1,1.1-1.1,3,3,0,0,1,1.55-.42,1.84,1.84,0,0,1,.88.19,1.49,1.49,0,0,1,.58.54,2.48,2.48,0,0,1,.31.85,6,6,0,0,1,.1,1.12Z"/><path d="M314,175.54a3.43,3.43,0,0,1,.23-1.25,3.12,3.12,0,0,1,.64-1,3,3,0,0,1,1-.69,3.14,3.14,0,0,1,1.27-.25,2.91,2.91,0,0,1,1.55.4,2.58,2.58,0,0,1,1,1.09l-.79.25a1.9,1.9,0,0,0-.74-.75,2.17,2.17,0,0,0-1.94-.08,2.27,2.27,0,0,0-.72.52,2.39,2.39,0,0,0-.48.79,2.77,2.77,0,0,0-.17,1,2.74,2.74,0,0,0,.18,1,2.54,2.54,0,0,0,.49.81,2.36,2.36,0,0,0,.73.54,2,2,0,0,0,.88.2,2.13,2.13,0,0,0,.59-.08,2.3,2.3,0,0,0,.55-.23,2,2,0,0,0,.43-.34,1.11,1.11,0,0,0,.25-.41l.8.24a2,2,0,0,1-.38.62,2.63,2.63,0,0,1-.59.49,2.9,2.9,0,0,1-.76.32,3.22,3.22,0,0,1-.86.11,3,3,0,0,1-2.26-1,3.28,3.28,0,0,1-.65-1A3.38,3.38,0,0,1,314,175.54Z"/><path d="M323.62,178.8a3,3,0,0,1-1.25-.26,3.05,3.05,0,0,1-1-.71,3.28,3.28,0,0,1-.65-1,3.38,3.38,0,0,1-.23-1.26,3.3,3.3,0,0,1,.23-1.24,3.21,3.21,0,0,1,.65-1,3.09,3.09,0,0,1,1-.7,3,3,0,0,1,3.48.7,3.3,3.3,0,0,1,.86,2.24v.19a.49.49,0,0,1,0,.13h-5.35a2.63,2.63,0,0,0,.23.93,2.55,2.55,0,0,0,.51.74,2.27,2.27,0,0,0,.71.49,2.14,2.14,0,0,0,.86.17,2.23,2.23,0,0,0,.6-.08,2.47,2.47,0,0,0,.55-.23,2.06,2.06,0,0,0,.46-.35,1.54,1.54,0,0,0,.31-.46l.71.19a2.08,2.08,0,0,1-.41.63,2.82,2.82,0,0,1-.61.49,3,3,0,0,1-.77.32A3.33,3.33,0,0,1,323.62,178.8Zm2.3-3.58a2.52,2.52,0,0,0-.23-.92,2.49,2.49,0,0,0-.5-.71,2.22,2.22,0,0,0-1.57-.64,2.26,2.26,0,0,0-.86.17,2.22,2.22,0,0,0-.71.47,2.3,2.3,0,0,0-.49.72,2.72,2.72,0,0,0-.22.91Z"/><path d="M40.77,146a2.59,2.59,0,0,0-1-.66,3.5,3.5,0,0,0-1.37-.25,2.57,2.57,0,0,0-1.64.43,1.42,1.42,0,0,0-.52,1.16,1.27,1.27,0,0,0,.14.63,1.2,1.2,0,0,0,.43.43,3,3,0,0,0,.74.31q.45.13,1.06.26a11.42,11.42,0,0,1,1.23.32,3.55,3.55,0,0,1,.93.45,1.88,1.88,0,0,1,.59.65,2,2,0,0,1,.2,1,2.16,2.16,0,0,1-.23,1,2,2,0,0,1-.64.72,2.83,2.83,0,0,1-1,.43,5.21,5.21,0,0,1-1.24.14,5.08,5.08,0,0,1-3.42-1.24l.42-.68a3.28,3.28,0,0,0,.55.46,3.88,3.88,0,0,0,.71.38,4.42,4.42,0,0,0,.83.25,4.66,4.66,0,0,0,.94.09,2.93,2.93,0,0,0,1.59-.37,1.23,1.23,0,0,0,.57-1.11,1.28,1.28,0,0,0-.16-.67,1.41,1.41,0,0,0-.49-.47,3.44,3.44,0,0,0-.8-.34q-.48-.15-1.12-.29T37,148.67a3.14,3.14,0,0,1-.85-.42,1.63,1.63,0,0,1-.52-.61,2,2,0,0,1-.17-.87,2.4,2.4,0,0,1,.22-1.05,2.06,2.06,0,0,1,.63-.77,3,3,0,0,1,1-.47,4.32,4.32,0,0,1,1.22-.16,4.18,4.18,0,0,1,1.52.26,4.08,4.08,0,0,1,1.21.73Z"/><path d="M43.05,154.82l.19,0h.17a.81.81,0,0,0,.34-.06.64.64,0,0,0,.25-.26,4.35,4.35,0,0,0,.27-.59q.15-.39.43-1L42,146.65h.84l2.32,5.5,2.15-5.5h.78l-3.24,8.06a1.46,1.46,0,0,1-.44.61,1.25,1.25,0,0,1-.83.26h-.23l-.26,0Z"/><path d="M51.13,153a4.35,4.35,0,0,1-1.43-.24,3.42,3.42,0,0,1-1.2-.7l.37-.55a4,4,0,0,0,1.07.65,3.14,3.14,0,0,0,1.17.22,2.11,2.11,0,0,0,1.21-.31,1,1,0,0,0,.45-.87.75.75,0,0,0-.12-.44,1,1,0,0,0-.35-.31,2.78,2.78,0,0,0-.59-.23l-.82-.21q-.54-.13-.94-.26a2.85,2.85,0,0,1-.65-.3,1.07,1.07,0,0,1-.38-.41,1.34,1.34,0,0,1-.13-.62,1.78,1.78,0,0,1,.19-.83,1.69,1.69,0,0,1,.5-.59,2.31,2.31,0,0,1,.74-.35,3.33,3.33,0,0,1,.91-.12,3.51,3.51,0,0,1,1.31.23,2.57,2.57,0,0,1,.95.62l-.4.48a2.2,2.2,0,0,0-.85-.54,3,3,0,0,0-1-.18,2.58,2.58,0,0,0-.6.07,1.46,1.46,0,0,0-.49.21,1,1,0,0,0-.33.37,1.08,1.08,0,0,0-.12.52.86.86,0,0,0,.08.41.72.72,0,0,0,.28.27,2.26,2.26,0,0,0,.49.2l.71.19q.6.15,1.06.29a3.35,3.35,0,0,1,.76.34,1.32,1.32,0,0,1,.46.47,1.34,1.34,0,0,1,.16.67,1.63,1.63,0,0,1-.66,1.37A2.85,2.85,0,0,1,51.13,153Z"/><path d="M57.9,152.6l-.21.1-.32.12-.41.11a2.31,2.31,0,0,1-.48,0,1.75,1.75,0,0,1-.5-.07,1.16,1.16,0,0,1-.42-.22,1.09,1.09,0,0,1-.29-.38,1.22,1.22,0,0,1-.11-.53V147.3H54.3v-.65h.86v-2.11H56v2.11h1.44v.65H56v4.25a.65.65,0,0,0,.25.51.84.84,0,0,0,.51.16,1.53,1.53,0,0,0,.61-.11l.34-.16Z"/><path d="M61.46,153a3,3,0,0,1-1.25-.26,3.05,3.05,0,0,1-1-.71,3.28,3.28,0,0,1-.65-1,3.38,3.38,0,0,1-.23-1.26,3.3,3.3,0,0,1,.23-1.24,3.21,3.21,0,0,1,.65-1,3.09,3.09,0,0,1,1-.7,3,3,0,0,1,3.48.7,3.3,3.3,0,0,1,.86,2.24v.19a.49.49,0,0,1,0,.13H59.18a2.63,2.63,0,0,0,.23.93,2.55,2.55,0,0,0,.51.74,2.27,2.27,0,0,0,.71.49,2.14,2.14,0,0,0,.86.17,2.23,2.23,0,0,0,.6-.08,2.47,2.47,0,0,0,.55-.23,2.06,2.06,0,0,0,.46-.35,1.54,1.54,0,0,0,.31-.46l.71.19a2.08,2.08,0,0,1-.41.63,2.82,2.82,0,0,1-.61.49,3,3,0,0,1-.77.32A3.33,3.33,0,0,1,61.46,153Zm2.3-3.58a2.52,2.52,0,0,0-.23-.92,2.49,2.49,0,0,0-.5-.71,2.22,2.22,0,0,0-1.57-.64,2.26,2.26,0,0,0-.86.17,2.22,2.22,0,0,0-.71.47,2.3,2.3,0,0,0-.49.72,2.72,2.72,0,0,0-.22.91Z"/><path d="M75.11,152.9h-.82v-3.49a2.93,2.93,0,0,0-.35-1.61,1.16,1.16,0,0,0-1-.52,1.75,1.75,0,0,0-.68.13,2.08,2.08,0,0,0-.59.37,2.56,2.56,0,0,0-.47.57,2.73,2.73,0,0,0-.31.73v3.82H70v-3.49a3,3,0,0,0-.34-1.62,1.15,1.15,0,0,0-1-.5,1.84,1.84,0,0,0-1.26.49,2.74,2.74,0,0,0-.79,1.3v3.83h-.82v-6.25h.74v1.42a3,3,0,0,1,1-1.12,2.49,2.49,0,0,1,1.38-.4,1.78,1.78,0,0,1,1.27.44,1.93,1.93,0,0,1,.58,1.16,2.67,2.67,0,0,1,2.41-1.61,1.91,1.91,0,0,1,.89.19,1.51,1.51,0,0,1,.59.55,2.57,2.57,0,0,1,.32.85,5.56,5.56,0,0,1,.1,1.11Z"/><path d="M78.91,153a4.35,4.35,0,0,1-1.43-.24,3.42,3.42,0,0,1-1.2-.7l.37-.55a4,4,0,0,0,1.07.65,3.14,3.14,0,0,0,1.17.22,2.11,2.11,0,0,0,1.21-.31,1,1,0,0,0,.45-.87.75.75,0,0,0-.12-.44,1,1,0,0,0-.35-.31,2.78,2.78,0,0,0-.59-.23l-.82-.21q-.54-.13-.94-.26a2.85,2.85,0,0,1-.65-.3,1.07,1.07,0,0,1-.38-.41,1.34,1.34,0,0,1-.13-.62,1.78,1.78,0,0,1,.19-.83,1.69,1.69,0,0,1,.5-.59,2.31,2.31,0,0,1,.74-.35,3.33,3.33,0,0,1,.91-.12,3.51,3.51,0,0,1,1.31.23,2.57,2.57,0,0,1,.95.62l-.4.48a2.2,2.2,0,0,0-.85-.54,3,3,0,0,0-1-.18,2.58,2.58,0,0,0-.6.07,1.46,1.46,0,0,0-.49.21,1,1,0,0,0-.33.37,1.08,1.08,0,0,0-.12.52.86.86,0,0,0,.08.41.72.72,0,0,0,.28.27,2.26,2.26,0,0,0,.49.2l.71.19q.6.15,1.06.29a3.35,3.35,0,0,1,.76.34,1.32,1.32,0,0,1,.46.47,1.34,1.34,0,0,1,.16.67,1.63,1.63,0,0,1-.66,1.37A2.85,2.85,0,0,1,78.91,153Z"/><path d="M50.22,167.42a2.22,2.22,0,0,1-.82-.15,2.08,2.08,0,0,1-.66-.41,1.86,1.86,0,0,1-.59-1.38,1.54,1.54,0,0,1,.19-.76,1.83,1.83,0,0,1,.54-.6,2.64,2.64,0,0,1,.83-.39,3.78,3.78,0,0,1,1.06-.14,5.8,5.8,0,0,1,1,.08,4.28,4.28,0,0,1,.88.24v-.56a1.81,1.81,0,0,0-.47-1.31,1.71,1.71,0,0,0-1.3-.49,2.76,2.76,0,0,0-1,.19,4.74,4.74,0,0,0-1,.55l-.29-.54a4.22,4.22,0,0,1,2.35-.82,2.53,2.53,0,0,1,1.85.66,2.44,2.44,0,0,1,.67,1.82v2.82q0,.34.3.34v.72l-.31,0a.7.7,0,0,1-.49-.16.58.58,0,0,1-.19-.43l0-.49a2.83,2.83,0,0,1-1.09.86A3.34,3.34,0,0,1,50.22,167.42Zm.19-.62a2.82,2.82,0,0,0,1.17-.24,1.91,1.91,0,0,0,.81-.64.75.75,0,0,0,.16-.23.61.61,0,0,0,.05-.23v-1a5,5,0,0,0-.85-.24,4.69,4.69,0,0,0-.89-.08,2.49,2.49,0,0,0-1.4.36,1.1,1.1,0,0,0-.54.95A1.29,1.29,0,0,0,49,166a1.37,1.37,0,0,0,.31.44,1.46,1.46,0,0,0,.47.29A1.61,1.61,0,0,0,50.42,166.8Z"/><path d="M60.45,167.3h-.82v-3.49a3,3,0,0,0-.33-1.62,1.13,1.13,0,0,0-1-.5,2.08,2.08,0,0,0-.72.13,2.43,2.43,0,0,0-.67.37,2.86,2.86,0,0,0-.55.57,2.24,2.24,0,0,0-.35.71v3.83h-.82v-6.25h.74v1.42a2.94,2.94,0,0,1,1.1-1.1,3,3,0,0,1,1.55-.42,1.84,1.84,0,0,1,.88.19,1.5,1.5,0,0,1,.58.54,2.49,2.49,0,0,1,.31.85,6,6,0,0,1,.1,1.12Z"/><path d="M64.76,167.42a2.7,2.7,0,0,1-1.2-.27,3.07,3.07,0,0,1-.95-.71,3.29,3.29,0,0,1-.62-1,3.38,3.38,0,0,1-.22-1.22,3.64,3.64,0,0,1,.22-1.25,3.35,3.35,0,0,1,.59-1,2.8,2.8,0,0,1,.9-.7,2.55,2.55,0,0,1,1.15-.26,2.45,2.45,0,0,1,1.4.41,3.13,3.13,0,0,1,1,1v-3.82h.82v7.7q0,.34.29.34v.72l-.29,0a.75.75,0,0,1-.5-.19.57.57,0,0,1-.22-.45v-.61a2.73,2.73,0,0,1-1,1A2.64,2.64,0,0,1,64.76,167.42Zm.18-.72a1.94,1.94,0,0,0,.64-.12,2.66,2.66,0,0,0,.64-.33,2.2,2.2,0,0,0,.51-.49,1.33,1.33,0,0,0,.26-.61v-1.93a2.14,2.14,0,0,0-.35-.61,2.79,2.79,0,0,0-.52-.5,2.45,2.45,0,0,0-.63-.34,2,2,0,0,0-.66-.12,1.92,1.92,0,0,0-.91.22,2.31,2.31,0,0,0-.7.57,2.54,2.54,0,0,0-.45.81,2.88,2.88,0,0,0-.16.94,2.62,2.62,0,0,0,.67,1.76,2.37,2.37,0,0,0,.74.55A2.1,2.1,0,0,0,64.94,166.7Z"/><path d="M41.76,174.78a2.59,2.59,0,0,0-1-.66,3.5,3.5,0,0,0-1.37-.25,2.57,2.57,0,0,0-1.64.43,1.42,1.42,0,0,0-.52,1.16,1.27,1.27,0,0,0,.14.63,1.2,1.2,0,0,0,.43.43,3,3,0,0,0,.74.31q.45.13,1.06.26a11.42,11.42,0,0,1,1.23.32,3.55,3.55,0,0,1,.93.45,1.88,1.88,0,0,1,.59.65,2,2,0,0,1,.2,1,2.16,2.16,0,0,1-.23,1,2,2,0,0,1-.64.72,2.83,2.83,0,0,1-1,.43,5.21,5.21,0,0,1-1.24.14,5.08,5.08,0,0,1-3.42-1.24l.42-.68a3.28,3.28,0,0,0,.55.46,3.88,3.88,0,0,0,.71.38,4.42,4.42,0,0,0,.83.25,4.66,4.66,0,0,0,.94.09,2.93,2.93,0,0,0,1.59-.37,1.23,1.23,0,0,0,.57-1.11,1.28,1.28,0,0,0-.16-.67,1.41,1.41,0,0,0-.49-.47,3.44,3.44,0,0,0-.8-.34q-.48-.15-1.12-.29T38,177.47a3.15,3.15,0,0,1-.85-.42,1.63,1.63,0,0,1-.52-.61,2,2,0,0,1-.17-.87,2.4,2.4,0,0,1,.22-1.05,2.06,2.06,0,0,1,.63-.77,3,3,0,0,1,1-.47,4.32,4.32,0,0,1,1.22-.16,4.18,4.18,0,0,1,1.52.26,4.08,4.08,0,0,1,1.21.73Z"/><path d="M46.6,181.82a3,3,0,0,1-1.25-.26,3.05,3.05,0,0,1-1-.71,3.28,3.28,0,0,1-.65-1,3.38,3.38,0,0,1-.23-1.26,3.3,3.3,0,0,1,.23-1.24,3.21,3.21,0,0,1,.65-1,3.09,3.09,0,0,1,1-.7,3,3,0,0,1,3.48.7,3.3,3.3,0,0,1,.86,2.24v.19a.49.49,0,0,1,0,.13H44.32a2.63,2.63,0,0,0,.23.93,2.55,2.55,0,0,0,.51.74,2.27,2.27,0,0,0,.71.49,2.14,2.14,0,0,0,.86.17,2.23,2.23,0,0,0,.6-.08,2.47,2.47,0,0,0,.55-.23,2.06,2.06,0,0,0,.46-.35,1.54,1.54,0,0,0,.31-.46l.71.19a2.08,2.08,0,0,1-.41.63,2.82,2.82,0,0,1-.61.49,3,3,0,0,1-.77.32A3.33,3.33,0,0,1,46.6,181.82Zm2.3-3.58a2.52,2.52,0,0,0-.23-.92,2.49,2.49,0,0,0-.5-.71A2.22,2.22,0,0,0,46.6,176a2.26,2.26,0,0,0-.86.17,2.22,2.22,0,0,0-.71.47,2.3,2.3,0,0,0-.49.72,2.72,2.72,0,0,0-.22.91Z"/><path d="M50.51,178.56a3.43,3.43,0,0,1,.23-1.25,3.12,3.12,0,0,1,.64-1,3,3,0,0,1,1-.69,3.14,3.14,0,0,1,1.27-.25,2.91,2.91,0,0,1,1.55.4,2.58,2.58,0,0,1,1,1.09l-.79.25a1.9,1.9,0,0,0-.74-.75,2.17,2.17,0,0,0-1.94-.08,2.27,2.27,0,0,0-.72.52,2.39,2.39,0,0,0-.48.79,2.77,2.77,0,0,0-.17,1,2.74,2.74,0,0,0,.18,1,2.54,2.54,0,0,0,.49.81,2.36,2.36,0,0,0,.73.54,2,2,0,0,0,.88.2,2.13,2.13,0,0,0,.59-.08,2.3,2.3,0,0,0,.55-.23,2,2,0,0,0,.43-.34,1.11,1.11,0,0,0,.25-.41l.8.24a2,2,0,0,1-.38.62,2.63,2.63,0,0,1-.59.49,2.9,2.9,0,0,1-.76.32,3.22,3.22,0,0,1-.86.11,3,3,0,0,1-2.26-1,3.28,3.28,0,0,1-.65-1A3.38,3.38,0,0,1,50.51,178.56Z"/><path d="M59.49,181.82a1.76,1.76,0,0,1-1.52-.68,3.4,3.4,0,0,1-.5-2v-3.67h.82V179q0,2.12,1.45,2.12a2.15,2.15,0,0,0,.71-.12,2.2,2.2,0,0,0,.64-.35,2.8,2.8,0,0,0,.53-.54,2.69,2.69,0,0,0,.38-.71v-3.94h.82v5.2c0,.22.1.34.29.34v.72l-.23,0h-.13a.65.65,0,0,1-.47-.2.72.72,0,0,1-.18-.52v-.72A2.91,2.91,0,0,1,61,181.42,3,3,0,0,1,59.49,181.82Z"/><path d="M67.78,176.17a2.56,2.56,0,0,0-1.44.46,2.3,2.3,0,0,0-.86,1.19v3.89h-.82v-6.25h.77V177a2.84,2.84,0,0,1,.94-1.13,2.17,2.17,0,0,1,1.26-.41h.16Z"/><path d="M68.87,174.14v-1.2h.82v1.2Zm0,7.56v-6.25h.82v6.25Z"/><path d="M74.49,181.4l-.21.1-.32.12-.41.11a2.31,2.31,0,0,1-.48,0,1.75,1.75,0,0,1-.5-.07,1.16,1.16,0,0,1-.42-.22,1.09,1.09,0,0,1-.29-.38,1.22,1.22,0,0,1-.11-.53V176.1h-.86v-.65h.86v-2.11h.82v2.11H74v.65H72.57v4.25a.65.65,0,0,0,.25.51.84.84,0,0,0,.51.16,1.53,1.53,0,0,0,.61-.11l.34-.16Z"/><path d="M75.87,183.62l.19,0h.17a.81.81,0,0,0,.34-.06.64.64,0,0,0,.25-.26,4.35,4.35,0,0,0,.27-.59q.15-.39.43-1l-2.72-6.25h.84l2.32,5.5,2.15-5.5h.78l-3.24,8.06a1.46,1.46,0,0,1-.44.61,1.25,1.25,0,0,1-.83.26h-.23l-.26,0Z"/><path d="M219,251.63a2.6,2.6,0,0,0-1-.66,3.5,3.5,0,0,0-1.37-.25,2.57,2.57,0,0,0-1.64.43,1.42,1.42,0,0,0-.52,1.16,1.27,1.27,0,0,0,.14.63,1.21,1.21,0,0,0,.43.43,3,3,0,0,0,.74.31q.45.13,1.06.26a11.66,11.66,0,0,1,1.23.32,3.55,3.55,0,0,1,.93.45,1.87,1.87,0,0,1,.59.65,2,2,0,0,1,.2,1,2.16,2.16,0,0,1-.23,1,2,2,0,0,1-.64.72,2.83,2.83,0,0,1-1,.43,5.21,5.21,0,0,1-1.24.14,5.08,5.08,0,0,1-3.42-1.24l.42-.68a3.32,3.32,0,0,0,.55.46,4,4,0,0,0,.71.38,4.42,4.42,0,0,0,.83.25,4.73,4.73,0,0,0,.94.09,2.93,2.93,0,0,0,1.59-.37,1.23,1.23,0,0,0,.57-1.11,1.27,1.27,0,0,0-.16-.67,1.41,1.41,0,0,0-.49-.47,3.48,3.48,0,0,0-.8-.34q-.48-.14-1.12-.29t-1.18-.32a3.15,3.15,0,0,1-.85-.42,1.64,1.64,0,0,1-.52-.61,2,2,0,0,1-.17-.87,2.39,2.39,0,0,1,.22-1,2.07,2.07,0,0,1,.63-.77,3,3,0,0,1,1-.47,4.36,4.36,0,0,1,1.22-.16,4.16,4.16,0,0,1,1.52.26,4.06,4.06,0,0,1,1.21.73Z"/><path d="M224,258.25l-.21.1-.32.12-.41.11a2.38,2.38,0,0,1-.48,0,1.75,1.75,0,0,1-.5-.07,1.18,1.18,0,0,1-.42-.22,1.09,1.09,0,0,1-.29-.38,1.23,1.23,0,0,1-.11-.53V253h-.86v-.65h.86v-2.11h.82v2.11h1.44V253h-1.44v4.25a.65.65,0,0,0,.25.51.84.84,0,0,0,.51.16,1.53,1.53,0,0,0,.61-.11l.34-.16Z"/><path d="M228.18,253a2.58,2.58,0,0,0-1.44.46,2.3,2.3,0,0,0-.86,1.19v3.89h-.82V252.3h.77v1.5a2.85,2.85,0,0,1,.94-1.13,2.17,2.17,0,0,1,1.26-.41h.16Z"/><path d="M230.76,258.67a2.22,2.22,0,0,1-.82-.15,2.08,2.08,0,0,1-.66-.41,1.86,1.86,0,0,1-.59-1.38,1.54,1.54,0,0,1,.19-.76,1.83,1.83,0,0,1,.54-.6,2.64,2.64,0,0,1,.83-.39,3.78,3.78,0,0,1,1.06-.14,5.8,5.8,0,0,1,1,.08,4.28,4.28,0,0,1,.88.24v-.56a1.81,1.81,0,0,0-.47-1.31,1.71,1.71,0,0,0-1.3-.49,2.76,2.76,0,0,0-1,.19,4.74,4.74,0,0,0-1,.55l-.29-.54a4.22,4.22,0,0,1,2.35-.82,2.53,2.53,0,0,1,1.85.66,2.44,2.44,0,0,1,.67,1.82v2.82q0,.34.3.34v.72l-.31,0a.7.7,0,0,1-.49-.16.58.58,0,0,1-.19-.43l0-.49a2.83,2.83,0,0,1-1.09.86A3.34,3.34,0,0,1,230.76,258.67Zm.19-.62a2.82,2.82,0,0,0,1.17-.24,1.91,1.91,0,0,0,.81-.64.75.75,0,0,0,.16-.23.61.61,0,0,0,.05-.23v-1a5,5,0,0,0-.85-.24,4.69,4.69,0,0,0-.89-.08,2.49,2.49,0,0,0-1.4.36,1.1,1.1,0,0,0-.54.95,1.29,1.29,0,0,0,.11.54,1.37,1.37,0,0,0,.31.44,1.46,1.46,0,0,0,.47.29A1.61,1.61,0,0,0,230.95,258.05Z"/><path d="M238.68,258.25l-.21.1-.32.12-.41.11a2.38,2.38,0,0,1-.48,0,1.75,1.75,0,0,1-.5-.07,1.18,1.18,0,0,1-.42-.22A1.09,1.09,0,0,1,236,258a1.23,1.23,0,0,1-.11-.53V253h-.86v-.65h.86v-2.11h.82v2.11h1.44V253h-1.44v4.25a.65.65,0,0,0,.25.51.84.84,0,0,0,.51.16,1.53,1.53,0,0,0,.61-.11l.34-.16Z"/><path d="M242.24,258.67a3,3,0,0,1-1.25-.26,3.07,3.07,0,0,1-1-.71,3.27,3.27,0,0,1-.65-1,3.37,3.37,0,0,1-.23-1.26,3.29,3.29,0,0,1,.23-1.24,3.21,3.21,0,0,1,.65-1,3.07,3.07,0,0,1,1-.7,3.16,3.16,0,0,1,2.5,0,3,3,0,0,1,1,.7,3.29,3.29,0,0,1,.86,2.24v.19a.48.48,0,0,1,0,.13H240a2.64,2.64,0,0,0,.23.93,2.56,2.56,0,0,0,.51.74,2.29,2.29,0,0,0,.71.49,2.13,2.13,0,0,0,.86.17,2.19,2.19,0,0,0,.6-.08,2.42,2.42,0,0,0,.55-.23,2.06,2.06,0,0,0,.46-.35,1.53,1.53,0,0,0,.31-.46l.71.19a2.1,2.1,0,0,1-.41.63,2.88,2.88,0,0,1-.61.49,3,3,0,0,1-.77.32A3.33,3.33,0,0,1,242.24,258.67Zm2.3-3.58a2.51,2.51,0,0,0-.74-1.63,2.23,2.23,0,0,0-.71-.47,2.2,2.2,0,0,0-.86-.17,2.24,2.24,0,0,0-.86.17,2.21,2.21,0,0,0-.71.47,2.31,2.31,0,0,0-.49.72,2.72,2.72,0,0,0-.22.91Z"/><path d="M249.09,258.64a2.59,2.59,0,0,1-1.18-.27,3.07,3.07,0,0,1-.92-.71,3.28,3.28,0,0,1-.61-1,3.36,3.36,0,0,1-.22-1.19,3.69,3.69,0,0,1,.21-1.24,3.19,3.19,0,0,1,.59-1,2.89,2.89,0,0,1,.92-.71,2.63,2.63,0,0,1,1.18-.26,2.41,2.41,0,0,1,1.39.4,3.87,3.87,0,0,1,1,1V252.3h.73v6.28a2.55,2.55,0,0,1-.25,1.15,2.46,2.46,0,0,1-.66.83,2.79,2.79,0,0,1-1,.5,4.07,4.07,0,0,1-1.18.17,3.44,3.44,0,0,1-1.74-.38,3.06,3.06,0,0,1-1.07-1l.5-.4a2.24,2.24,0,0,0,1,.88,3.11,3.11,0,0,0,1.32.28,2.91,2.91,0,0,0,.86-.13,2.13,2.13,0,0,0,.71-.37,1.76,1.76,0,0,0,.49-.62,2,2,0,0,0,.18-.88v-1.24a2.61,2.61,0,0,1-1,.95A2.64,2.64,0,0,1,249.09,258.64Zm.23-.68a2,2,0,0,0,.71-.13,2.36,2.36,0,0,0,.63-.35,2.31,2.31,0,0,0,.47-.5,1.55,1.55,0,0,0,.25-.56v-1.93a2.46,2.46,0,0,0-.36-.62,2.5,2.5,0,0,0-.52-.49,2.6,2.6,0,0,0-.62-.32,1.94,1.94,0,0,0-.67-.12,2,2,0,0,0-.94.22,2.25,2.25,0,0,0-.7.58,2.6,2.6,0,0,0-.44.82,2.93,2.93,0,0,0-.15.92,2.6,2.6,0,0,0,.18,1,2.52,2.52,0,0,0,.5.8,2.38,2.38,0,0,0,.74.54A2.11,2.11,0,0,0,249.32,258Z"/><path d="M254,251v-1.2h.82V251Zm0,7.56V252.3h.82v6.25Z"/><path d="M256.19,255.41a3.42,3.42,0,0,1,.23-1.25,3.12,3.12,0,0,1,.64-1,3,3,0,0,1,1-.69,3.14,3.14,0,0,1,1.27-.25,2.92,2.92,0,0,1,1.55.4,2.59,2.59,0,0,1,1,1.09l-.79.25a1.91,1.91,0,0,0-.74-.75,2.09,2.09,0,0,0-1-.27,2.11,2.11,0,0,0-.89.19,2.3,2.3,0,0,0-.72.52,2.39,2.39,0,0,0-.48.79,2.89,2.89,0,0,0,0,2,2.54,2.54,0,0,0,.49.81,2.33,2.33,0,0,0,.73.54,2,2,0,0,0,.88.2,2.17,2.17,0,0,0,.59-.08,2.26,2.26,0,0,0,.55-.23,2,2,0,0,0,.43-.34,1.1,1.1,0,0,0,.25-.41l.8.24a2.07,2.07,0,0,1-.38.62,2.68,2.68,0,0,1-.59.49,2.9,2.9,0,0,1-.76.32,3.22,3.22,0,0,1-.86.11,3,3,0,0,1-2.26-1,3.27,3.27,0,0,1-.65-1A3.37,3.37,0,0,1,256.19,255.41Z"/><path d="M213.32,273a3.61,3.61,0,0,1-1.63-.37,4,4,0,0,1-1.27-1,4.41,4.41,0,0,1-.82-1.39,4.58,4.58,0,0,1-.29-1.6,4.43,4.43,0,0,1,.31-1.63,4.51,4.51,0,0,1,.85-1.38,4.11,4.11,0,0,1,1.27-1,3.6,3.6,0,0,1,1.58-.35,3.52,3.52,0,0,1,1.63.38,4.08,4.08,0,0,1,1.26,1,4.57,4.57,0,0,1,.81,1.39,4.49,4.49,0,0,1,.29,1.58,4.42,4.42,0,0,1-.31,1.63,4.49,4.49,0,0,1-.84,1.37,4.08,4.08,0,0,1-1.27.95A3.6,3.6,0,0,1,213.32,273Zm-3.16-4.32a4,4,0,0,0,.23,1.34,3.63,3.63,0,0,0,.65,1.14,3.19,3.19,0,0,0,1,.79,2.78,2.78,0,0,0,1.28.29,2.75,2.75,0,0,0,1.31-.31,3.2,3.2,0,0,0,1-.82,3.79,3.79,0,0,0,.63-1.14,3.92,3.92,0,0,0,0-2.63,3.66,3.66,0,0,0-.65-1.13,3.23,3.23,0,0,0-1-.79,2.92,2.92,0,0,0-2.58,0,3.12,3.12,0,0,0-1,.81,3.77,3.77,0,0,0-.63,1.14A3.91,3.91,0,0,0,210.17,268.7Z"/><path d="M220.69,273.07a1.76,1.76,0,0,1-1.52-.68,3.4,3.4,0,0,1-.5-2V266.7h.82v3.53q0,2.12,1.45,2.12a2.15,2.15,0,0,0,.71-.12,2.2,2.2,0,0,0,.64-.35,2.8,2.8,0,0,0,.53-.54,2.69,2.69,0,0,0,.38-.71V266.7H224v5.2c0,.22.1.34.29.34V273l-.23,0h-.13a.65.65,0,0,1-.47-.2.72.72,0,0,1-.18-.52v-.72a2.91,2.91,0,0,1-1.11,1.13A3,3,0,0,1,220.69,273.07Z"/><path d="M228.86,272.65l-.21.1-.32.12-.41.11a2.31,2.31,0,0,1-.48,0,1.75,1.75,0,0,1-.5-.07,1.16,1.16,0,0,1-.42-.22,1.09,1.09,0,0,1-.29-.38,1.22,1.22,0,0,1-.11-.53v-4.48h-.86v-.65h.86v-2.11h.82v2.11h1.44v.65h-1.44v4.25a.65.65,0,0,0,.25.51.84.84,0,0,0,.51.16,1.53,1.53,0,0,0,.61-.11l.34-.16Z"/><path d="M229.29,269.81a3.43,3.43,0,0,1,.23-1.25,3.12,3.12,0,0,1,.64-1,3,3,0,0,1,1-.69,3.14,3.14,0,0,1,1.27-.25,2.91,2.91,0,0,1,1.55.4,2.58,2.58,0,0,1,1,1.09l-.79.25a1.9,1.9,0,0,0-.74-.75,2.17,2.17,0,0,0-1.94-.08,2.27,2.27,0,0,0-.72.52,2.39,2.39,0,0,0-.48.79,2.77,2.77,0,0,0-.17,1,2.74,2.74,0,0,0,.18,1,2.54,2.54,0,0,0,.49.81,2.36,2.36,0,0,0,.73.54,2,2,0,0,0,.88.2,2.13,2.13,0,0,0,.59-.08,2.3,2.3,0,0,0,.55-.23,2,2,0,0,0,.43-.34,1.11,1.11,0,0,0,.25-.41l.8.24a2,2,0,0,1-.38.62,2.63,2.63,0,0,1-.59.49,2.9,2.9,0,0,1-.76.32,3.22,3.22,0,0,1-.86.11,3,3,0,0,1-2.26-1,3.28,3.28,0,0,1-.65-1A3.38,3.38,0,0,1,229.29,269.81Z"/><path d="M238.92,273.07a3,3,0,0,1-1.25-.26,3.06,3.06,0,0,1-1-.7,3.19,3.19,0,0,1-.64-1,3.39,3.39,0,0,1-.23-1.24,3.34,3.34,0,0,1,.23-1.25,3.28,3.28,0,0,1,.65-1,3.15,3.15,0,0,1,1-.71,2.88,2.88,0,0,1,1.24-.26,2.92,2.92,0,0,1,1.24.26,3.14,3.14,0,0,1,1,.71,3.28,3.28,0,0,1,.65,1,3.34,3.34,0,0,1,.23,1.25,3.39,3.39,0,0,1-.23,1.24,3.18,3.18,0,0,1-.64,1,3,3,0,0,1-1,.7A3,3,0,0,1,238.92,273.07Zm-2.27-3.22a2.61,2.61,0,0,0,.18,1,2.66,2.66,0,0,0,.49.79,2.2,2.2,0,0,0,.72.53,2.07,2.07,0,0,0,.88.19,2,2,0,0,0,.88-.2,2.36,2.36,0,0,0,.73-.54,2.58,2.58,0,0,0,.49-.8,2.76,2.76,0,0,0,0-2,2.57,2.57,0,0,0-.49-.8,2.34,2.34,0,0,0-.73-.54,2,2,0,0,0-.88-.2,2,2,0,0,0-.88.2,2.33,2.33,0,0,0-.72.55,2.63,2.63,0,0,0-.49.81A2.7,2.7,0,0,0,236.65,269.86Z"/><path d="M252.69,273h-.82v-3.49a2.93,2.93,0,0,0-.35-1.61,1.16,1.16,0,0,0-1-.52,1.75,1.75,0,0,0-.68.13,2.08,2.08,0,0,0-.59.37,2.56,2.56,0,0,0-.47.57,2.73,2.73,0,0,0-.31.73V273h-.82v-3.49a3,3,0,0,0-.34-1.62,1.15,1.15,0,0,0-1-.5,1.84,1.84,0,0,0-1.26.49,2.74,2.74,0,0,0-.79,1.3V273h-.82V266.7h.74v1.42a3,3,0,0,1,1-1.12,2.49,2.49,0,0,1,1.38-.4,1.78,1.78,0,0,1,1.27.44,1.93,1.93,0,0,1,.58,1.16,2.67,2.67,0,0,1,2.41-1.61,1.91,1.91,0,0,1,.89.19,1.51,1.51,0,0,1,.59.55,2.57,2.57,0,0,1,.32.85,5.56,5.56,0,0,1,.1,1.11Z"/><path d="M257.12,273.07a3,3,0,0,1-1.25-.26,3.05,3.05,0,0,1-1-.71,3.28,3.28,0,0,1-.65-1,3.38,3.38,0,0,1-.23-1.26,3.3,3.3,0,0,1,.23-1.24,3.21,3.21,0,0,1,.65-1,3.09,3.09,0,0,1,1-.7,3,3,0,0,1,3.48.7,3.3,3.3,0,0,1,.86,2.24V270a.49.49,0,0,1,0,.13h-5.35a2.63,2.63,0,0,0,.23.93,2.55,2.55,0,0,0,.51.74,2.27,2.27,0,0,0,.71.49,2.14,2.14,0,0,0,.86.17,2.23,2.23,0,0,0,.6-.08,2.47,2.47,0,0,0,.55-.23,2.06,2.06,0,0,0,.46-.35,1.54,1.54,0,0,0,.31-.46l.71.19a2.08,2.08,0,0,1-.41.63,2.82,2.82,0,0,1-.61.49,3,3,0,0,1-.77.32A3.33,3.33,0,0,1,257.12,273.07Zm2.3-3.58a2.52,2.52,0,0,0-.23-.92,2.49,2.49,0,0,0-.5-.71,2.22,2.22,0,0,0-1.57-.64,2.26,2.26,0,0,0-.86.17,2.22,2.22,0,0,0-.71.47,2.3,2.3,0,0,0-.49.72,2.72,2.72,0,0,0-.22.91Z"/><path d="M263.54,273.07a4.35,4.35,0,0,1-1.43-.24,3.42,3.42,0,0,1-1.2-.7l.37-.55a4,4,0,0,0,1.07.65,3.14,3.14,0,0,0,1.17.22,2.11,2.11,0,0,0,1.21-.31,1,1,0,0,0,.45-.87.75.75,0,0,0-.12-.44,1,1,0,0,0-.35-.31,2.78,2.78,0,0,0-.59-.23l-.82-.21q-.54-.13-.94-.26a2.85,2.85,0,0,1-.65-.3,1.07,1.07,0,0,1-.38-.41,1.34,1.34,0,0,1-.13-.62,1.78,1.78,0,0,1,.19-.83,1.69,1.69,0,0,1,.5-.59,2.31,2.31,0,0,1,.74-.35,3.33,3.33,0,0,1,.91-.12,3.51,3.51,0,0,1,1.31.23,2.57,2.57,0,0,1,.95.62l-.4.48a2.2,2.2,0,0,0-.85-.54,3,3,0,0,0-1-.18,2.58,2.58,0,0,0-.6.07,1.46,1.46,0,0,0-.49.21,1,1,0,0,0-.33.37,1.08,1.08,0,0,0-.12.52.86.86,0,0,0,.08.41.72.72,0,0,0,.28.27,2.26,2.26,0,0,0,.49.2l.71.19q.6.15,1.06.29a3.35,3.35,0,0,1,.76.34,1.32,1.32,0,0,1,.46.47,1.34,1.34,0,0,1,.16.67,1.63,1.63,0,0,1-.66,1.37A2.85,2.85,0,0,1,263.54,273.07Z"/><path d="M90.09,246.08h.79l1.2,3,1.21-3h.8l-1.49,3.64,1.63,3.85L97.33,246h.91l-3.61,8.52h-.74l-1.79-4.21-1.8,4.21h-.73L86,246h.9l3.1,7.55,1.62-3.85Z"/><path d="M101.17,254.66a3,3,0,0,1-1.25-.26,3.07,3.07,0,0,1-1-.7,3.18,3.18,0,0,1-.64-1,3.39,3.39,0,0,1-.23-1.24,3.34,3.34,0,0,1,.23-1.25,3.26,3.26,0,0,1,.65-1,3.14,3.14,0,0,1,1-.71,2.88,2.88,0,0,1,1.24-.26,2.92,2.92,0,0,1,1.24.26,3.12,3.12,0,0,1,1,.71,3.26,3.26,0,0,1,.65,1,3.34,3.34,0,0,1,.23,1.25,3.39,3.39,0,0,1-.23,1.24,3.17,3.17,0,0,1-.64,1,3,3,0,0,1-1,.7A3,3,0,0,1,101.17,254.66Zm-2.27-3.22a2.6,2.6,0,0,0,.18,1,2.64,2.64,0,0,0,.49.79,2.19,2.19,0,0,0,.72.53,2.07,2.07,0,0,0,.88.19,2,2,0,0,0,.88-.2,2.33,2.33,0,0,0,.73-.54,2.57,2.57,0,0,0,.49-.8,2.76,2.76,0,0,0,0-2,2.56,2.56,0,0,0-.49-.8,2.33,2.33,0,0,0-.73-.54,2,2,0,0,0-.88-.2,2,2,0,0,0-.88.2,2.31,2.31,0,0,0-.72.55,2.63,2.63,0,0,0-.49.81A2.71,2.71,0,0,0,98.9,251.45Z"/><path d="M108.76,249a2.58,2.58,0,0,0-1.44.46,2.3,2.3,0,0,0-.86,1.19v3.89h-.82v-6.25h.77v1.5a2.85,2.85,0,0,1,.94-1.13,2.17,2.17,0,0,1,1.26-.41h.16Z"/><path d="M109.89,245.78h.82v7.34a.75.75,0,0,0,.19.55.71.71,0,0,0,.54.2,1.59,1.59,0,0,0,.31,0,2,2,0,0,0,.34-.1l.14.66a2.72,2.72,0,0,1-.56.16,3.33,3.33,0,0,1-.57.06,1.21,1.21,0,0,1-.89-.32,1.2,1.2,0,0,1-.32-.89Z"/><path d="M115.69,254.66a2.7,2.7,0,0,1-1.2-.27,3.07,3.07,0,0,1-.95-.71,3.29,3.29,0,0,1-.62-1,3.38,3.38,0,0,1-.22-1.22,3.64,3.64,0,0,1,.22-1.25,3.35,3.35,0,0,1,.59-1,2.8,2.8,0,0,1,.9-.7,2.55,2.55,0,0,1,1.15-.26,2.45,2.45,0,0,1,1.4.41,3.13,3.13,0,0,1,1,1v-3.82h.82v7.7q0,.34.29.34v.72l-.29,0a.75.75,0,0,1-.5-.19.57.57,0,0,1-.22-.45v-.61a2.73,2.73,0,0,1-1,1A2.64,2.64,0,0,1,115.69,254.66Zm.18-.72a1.94,1.94,0,0,0,.64-.12,2.66,2.66,0,0,0,.64-.33,2.2,2.2,0,0,0,.51-.49,1.33,1.33,0,0,0,.26-.61v-1.93a2.14,2.14,0,0,0-.35-.61,2.79,2.79,0,0,0-.52-.5,2.45,2.45,0,0,0-.63-.34,2,2,0,0,0-.66-.12,1.92,1.92,0,0,0-.91.22,2.31,2.31,0,0,0-.7.57,2.54,2.54,0,0,0-.45.81,2.88,2.88,0,0,0-.16.94,2.62,2.62,0,0,0,.67,1.76,2.37,2.37,0,0,0,.74.55A2.1,2.1,0,0,0,115.87,253.95Z"/><path d="M123.25,250.23a4.56,4.56,0,0,1,.27-1.53,4.25,4.25,0,0,1,.79-1.36,4,4,0,0,1,1.27-1,3.78,3.78,0,0,1,1.72-.38,3.56,3.56,0,0,1,2,.52,3.14,3.14,0,0,1,1.19,1.34l-.66.41a2.53,2.53,0,0,0-.5-.71,2.77,2.77,0,0,0-.63-.47,2.64,2.64,0,0,0-.7-.26,3.29,3.29,0,0,0-.71-.08,2.85,2.85,0,0,0-1.36.31,3.12,3.12,0,0,0-1,.82,3.56,3.56,0,0,0-.61,1.13,4.13,4.13,0,0,0-.2,1.28,3.78,3.78,0,0,0,.25,1.36,3.84,3.84,0,0,0,.67,1.15,3.23,3.23,0,0,0,1,.79,2.76,2.76,0,0,0,1.27.29,3.2,3.2,0,0,0,.74-.09,2.87,2.87,0,0,0,.73-.29,3.08,3.08,0,0,0,.65-.49,2.55,2.55,0,0,0,.5-.71l.7.36a2.62,2.62,0,0,1-.58.85,3.79,3.79,0,0,1-.83.62,4.13,4.13,0,0,1-1,.38,4,4,0,0,1-1,.13,3.41,3.41,0,0,1-1.61-.38,4.22,4.22,0,0,1-1.26-1,4.65,4.65,0,0,1-.82-1.4A4.54,4.54,0,0,1,123.25,250.23Z"/><path d="M131.91,245.78h.82v7.34a.75.75,0,0,0,.19.55.71.71,0,0,0,.54.2,1.59,1.59,0,0,0,.31,0,2,2,0,0,0,.34-.1l.14.66a2.72,2.72,0,0,1-.56.16,3.33,3.33,0,0,1-.57.06,1.21,1.21,0,0,1-.89-.32,1.2,1.2,0,0,1-.32-.89Z"/><path d="M136.71,254.66a2.22,2.22,0,0,1-.82-.15,2.08,2.08,0,0,1-.66-.41,1.86,1.86,0,0,1-.59-1.38,1.54,1.54,0,0,1,.19-.76,1.83,1.83,0,0,1,.54-.6,2.64,2.64,0,0,1,.83-.39,3.78,3.78,0,0,1,1.06-.14,5.8,5.8,0,0,1,1,.08,4.28,4.28,0,0,1,.88.24v-.56a1.81,1.81,0,0,0-.47-1.31,1.71,1.71,0,0,0-1.3-.49,2.76,2.76,0,0,0-1,.19,4.74,4.74,0,0,0-1,.55L135,249a4.22,4.22,0,0,1,2.35-.82,2.53,2.53,0,0,1,1.85.66,2.44,2.44,0,0,1,.67,1.82v2.82q0,.34.3.34v.72l-.31,0a.7.7,0,0,1-.49-.16.58.58,0,0,1-.19-.43l0-.49a2.83,2.83,0,0,1-1.09.86A3.34,3.34,0,0,1,136.71,254.66Zm.19-.62a2.82,2.82,0,0,0,1.17-.24,1.91,1.91,0,0,0,.81-.64.75.75,0,0,0,.16-.23.61.61,0,0,0,.05-.23v-1a5,5,0,0,0-.85-.24,4.69,4.69,0,0,0-.89-.08,2.49,2.49,0,0,0-1.4.36,1.1,1.1,0,0,0-.54.95,1.29,1.29,0,0,0,.11.54,1.37,1.37,0,0,0,.31.44,1.46,1.46,0,0,0,.47.29A1.61,1.61,0,0,0,136.9,254Z"/><path d="M143.75,254.66a4.35,4.35,0,0,1-1.43-.24,3.42,3.42,0,0,1-1.2-.7l.37-.55a4,4,0,0,0,1.07.65,3.16,3.16,0,0,0,1.17.22,2.11,2.11,0,0,0,1.21-.31,1,1,0,0,0,.45-.87.76.76,0,0,0-.12-.44,1,1,0,0,0-.35-.31,2.78,2.78,0,0,0-.59-.23l-.82-.21q-.54-.13-.94-.26a2.85,2.85,0,0,1-.65-.3,1.08,1.08,0,0,1-.38-.41,1.35,1.35,0,0,1-.13-.62,1.78,1.78,0,0,1,.19-.83,1.68,1.68,0,0,1,.5-.59,2.29,2.29,0,0,1,.74-.35,3.36,3.36,0,0,1,.91-.12,3.51,3.51,0,0,1,1.31.23,2.59,2.59,0,0,1,.95.62l-.4.48a2.18,2.18,0,0,0-.85-.54,3,3,0,0,0-1-.18,2.58,2.58,0,0,0-.6.07,1.44,1.44,0,0,0-.49.21,1,1,0,0,0-.33.37,1.08,1.08,0,0,0-.12.52.86.86,0,0,0,.08.41.71.71,0,0,0,.28.27,2.26,2.26,0,0,0,.49.2l.71.19q.6.14,1.06.29a3.31,3.31,0,0,1,.76.34,1.32,1.32,0,0,1,.46.47,1.35,1.35,0,0,1,.16.67,1.63,1.63,0,0,1-.66,1.37A2.85,2.85,0,0,1,143.75,254.66Z"/><path d="M149.6,254.66a4.35,4.35,0,0,1-1.43-.24,3.42,3.42,0,0,1-1.2-.7l.37-.55a4,4,0,0,0,1.07.65,3.16,3.16,0,0,0,1.17.22,2.11,2.11,0,0,0,1.21-.31,1,1,0,0,0,.45-.87.76.76,0,0,0-.12-.44,1,1,0,0,0-.35-.31,2.78,2.78,0,0,0-.59-.23l-.82-.21q-.54-.13-.94-.26a2.85,2.85,0,0,1-.65-.3,1.08,1.08,0,0,1-.38-.41,1.35,1.35,0,0,1-.13-.62,1.78,1.78,0,0,1,.19-.83,1.68,1.68,0,0,1,.5-.59,2.29,2.29,0,0,1,.74-.35,3.36,3.36,0,0,1,.91-.12,3.51,3.51,0,0,1,1.31.23,2.59,2.59,0,0,1,.95.62l-.4.48a2.18,2.18,0,0,0-.85-.54,3,3,0,0,0-1-.18,2.58,2.58,0,0,0-.6.07,1.44,1.44,0,0,0-.49.21,1,1,0,0,0-.33.37,1.08,1.08,0,0,0-.12.52.86.86,0,0,0,.08.41.71.71,0,0,0,.28.27,2.26,2.26,0,0,0,.49.2l.71.19q.6.14,1.06.29a3.31,3.31,0,0,1,.76.34,1.32,1.32,0,0,1,.46.47,1.35,1.35,0,0,1,.16.67,1.63,1.63,0,0,1-.66,1.37A2.85,2.85,0,0,1,149.6,254.66Z"/><path d="M86.73,268.95v-8.52h3.53a2.21,2.21,0,0,1,1,.23,2.68,2.68,0,0,1,.8.61,2.91,2.91,0,0,1,.53.86,2.6,2.6,0,0,1,.19,1,2.91,2.91,0,0,1-.18,1,2.73,2.73,0,0,1-.5.86,2.53,2.53,0,0,1-.77.6,2.18,2.18,0,0,1-1,.23H87.57v3.14Zm.84-3.89h2.72a1.43,1.43,0,0,0,.68-.16,1.65,1.65,0,0,0,.52-.43,2,2,0,0,0,.34-.62,2.28,2.28,0,0,0,.12-.74,2.05,2.05,0,0,0-.14-.75,2,2,0,0,0-.37-.62,1.69,1.69,0,0,0-.55-.41,1.53,1.53,0,0,0-.67-.15H87.57Z"/><path d="M97.14,263.41a2.56,2.56,0,0,0-1.44.46,2.3,2.3,0,0,0-.86,1.19v3.89H94v-6.25h.77v1.5a2.84,2.84,0,0,1,.94-1.13,2.17,2.17,0,0,1,1.26-.41h.16Z"/><path d="M100.59,269.07a3,3,0,0,1-1.25-.26,3.06,3.06,0,0,1-1-.7,3.19,3.19,0,0,1-.64-1,3.39,3.39,0,0,1-.23-1.24,3.34,3.34,0,0,1,.23-1.25,3.28,3.28,0,0,1,.65-1,3.15,3.15,0,0,1,1-.71,2.88,2.88,0,0,1,1.24-.26,2.92,2.92,0,0,1,1.24.26,3.14,3.14,0,0,1,1,.71,3.28,3.28,0,0,1,.65,1,3.34,3.34,0,0,1,.23,1.25,3.39,3.39,0,0,1-.23,1.24,3.18,3.18,0,0,1-.64,1,3,3,0,0,1-1,.7A3,3,0,0,1,100.59,269.07Zm-2.27-3.22a2.61,2.61,0,0,0,.18,1,2.66,2.66,0,0,0,.49.79,2.2,2.2,0,0,0,.72.53,2.07,2.07,0,0,0,.88.19,2,2,0,0,0,.88-.2,2.36,2.36,0,0,0,.73-.54,2.58,2.58,0,0,0,.49-.8,2.76,2.76,0,0,0,0-2,2.57,2.57,0,0,0-.49-.8,2.34,2.34,0,0,0-.73-.54,2,2,0,0,0-.88-.2,2,2,0,0,0-.88.2A2.33,2.33,0,0,0,99,264a2.63,2.63,0,0,0-.49.81A2.7,2.7,0,0,0,98.32,265.85Z"/><path d="M105.27,268.95v-5.6h-.86v-.65h.86v-.17a3,3,0,0,1,.49-1.81,1.59,1.59,0,0,1,1.34-.65,2.41,2.41,0,0,1,.72.11,2.1,2.1,0,0,1,.6.29l-.25.59a1.23,1.23,0,0,0-.41-.2,1.77,1.77,0,0,0-.5-.07,1,1,0,0,0-.88.44,2.29,2.29,0,0,0-.3,1.28v.19h1.73v.65h-1.73v5.6Z"/><path d="M111.31,269.07a3,3,0,0,1-1.25-.26,3.05,3.05,0,0,1-1-.71,3.28,3.28,0,0,1-.65-1,3.38,3.38,0,0,1-.23-1.26,3.3,3.3,0,0,1,.23-1.24,3.21,3.21,0,0,1,.65-1,3.09,3.09,0,0,1,1-.7,3,3,0,0,1,3.48.7,3.3,3.3,0,0,1,.86,2.24V266a.49.49,0,0,1,0,.13H109a2.63,2.63,0,0,0,.23.93,2.55,2.55,0,0,0,.51.74,2.27,2.27,0,0,0,.71.49,2.14,2.14,0,0,0,.86.17,2.23,2.23,0,0,0,.6-.08,2.47,2.47,0,0,0,.55-.23,2.06,2.06,0,0,0,.46-.35,1.54,1.54,0,0,0,.31-.46l.71.19a2.08,2.08,0,0,1-.41.63,2.82,2.82,0,0,1-.61.49,3,3,0,0,1-.77.32A3.33,3.33,0,0,1,111.31,269.07Zm2.3-3.58a2.52,2.52,0,0,0-.23-.92,2.49,2.49,0,0,0-.5-.71,2.22,2.22,0,0,0-1.57-.64,2.26,2.26,0,0,0-.86.17,2.22,2.22,0,0,0-.71.47,2.3,2.3,0,0,0-.49.72,2.72,2.72,0,0,0-.22.91Z"/><path d="M117.73,269.07a4.35,4.35,0,0,1-1.43-.24,3.42,3.42,0,0,1-1.2-.7l.37-.55a4,4,0,0,0,1.07.65,3.14,3.14,0,0,0,1.17.22,2.11,2.11,0,0,0,1.21-.31,1,1,0,0,0,.45-.87.75.75,0,0,0-.12-.44,1,1,0,0,0-.35-.31,2.78,2.78,0,0,0-.59-.23l-.82-.21q-.54-.13-.94-.26a2.85,2.85,0,0,1-.65-.3,1.07,1.07,0,0,1-.38-.41,1.34,1.34,0,0,1-.13-.62,1.78,1.78,0,0,1,.19-.83,1.69,1.69,0,0,1,.5-.59,2.31,2.31,0,0,1,.74-.35,3.33,3.33,0,0,1,.91-.12,3.51,3.51,0,0,1,1.31.23,2.57,2.57,0,0,1,.95.62l-.4.48a2.2,2.2,0,0,0-.85-.54,3,3,0,0,0-1-.18,2.58,2.58,0,0,0-.6.07,1.46,1.46,0,0,0-.49.21,1,1,0,0,0-.33.37,1.08,1.08,0,0,0-.12.52.86.86,0,0,0,.08.41.72.72,0,0,0,.28.27,2.26,2.26,0,0,0,.49.2l.71.19q.6.15,1.06.29a3.35,3.35,0,0,1,.76.34,1.32,1.32,0,0,1,.46.47,1.34,1.34,0,0,1,.16.67,1.63,1.63,0,0,1-.66,1.37A2.85,2.85,0,0,1,117.73,269.07Z"/><path d="M123.58,269.07a4.35,4.35,0,0,1-1.43-.24,3.42,3.42,0,0,1-1.2-.7l.37-.55a4,4,0,0,0,1.07.65,3.14,3.14,0,0,0,1.17.22,2.11,2.11,0,0,0,1.21-.31,1,1,0,0,0,.45-.87.75.75,0,0,0-.12-.44,1,1,0,0,0-.35-.31,2.78,2.78,0,0,0-.59-.23l-.82-.21q-.54-.13-.94-.26a2.85,2.85,0,0,1-.65-.3,1.07,1.07,0,0,1-.38-.41,1.34,1.34,0,0,1-.13-.62,1.78,1.78,0,0,1,.19-.83,1.69,1.69,0,0,1,.5-.59,2.31,2.31,0,0,1,.74-.35,3.33,3.33,0,0,1,.91-.12,3.51,3.51,0,0,1,1.31.23,2.57,2.57,0,0,1,.95.62l-.4.48a2.2,2.2,0,0,0-.85-.54,3,3,0,0,0-1-.18,2.58,2.58,0,0,0-.6.07,1.46,1.46,0,0,0-.49.21,1,1,0,0,0-.33.37,1.08,1.08,0,0,0-.12.52.86.86,0,0,0,.08.41.72.72,0,0,0,.28.27,2.26,2.26,0,0,0,.49.2l.71.19q.6.15,1.06.29a3.35,3.35,0,0,1,.76.34,1.32,1.32,0,0,1,.46.47,1.34,1.34,0,0,1,.16.67,1.63,1.63,0,0,1-.66,1.37A2.85,2.85,0,0,1,123.58,269.07Z"/><path d="M127.34,261.38v-1.2h.82v1.2Zm0,7.56v-6.25h.82v6.25Z"/><path d="M132.63,269.07a3,3,0,0,1-1.25-.26,3.06,3.06,0,0,1-1-.7,3.19,3.19,0,0,1-.64-1,3.39,3.39,0,0,1-.23-1.24,3.34,3.34,0,0,1,.23-1.25,3.28,3.28,0,0,1,.65-1,3.15,3.15,0,0,1,1-.71,2.88,2.88,0,0,1,1.24-.26,2.92,2.92,0,0,1,1.24.26,3.14,3.14,0,0,1,1,.71,3.28,3.28,0,0,1,.65,1,3.34,3.34,0,0,1,.23,1.25,3.39,3.39,0,0,1-.23,1.24,3.18,3.18,0,0,1-.64,1,3,3,0,0,1-1,.7A3,3,0,0,1,132.63,269.07Zm-2.27-3.22a2.61,2.61,0,0,0,.18,1,2.66,2.66,0,0,0,.49.79,2.2,2.2,0,0,0,.72.53,2.07,2.07,0,0,0,.88.19,2,2,0,0,0,.88-.2,2.36,2.36,0,0,0,.73-.54,2.58,2.58,0,0,0,.49-.8,2.76,2.76,0,0,0,0-2,2.57,2.57,0,0,0-.49-.8,2.34,2.34,0,0,0-.73-.54,2,2,0,0,0-.88-.2,2,2,0,0,0-.88.2,2.33,2.33,0,0,0-.72.55,2.63,2.63,0,0,0-.49.81A2.7,2.7,0,0,0,130.36,265.85Z"/><path d="M142.36,268.95h-.82v-3.49a3,3,0,0,0-.33-1.62,1.13,1.13,0,0,0-1-.5,2.08,2.08,0,0,0-.72.13,2.43,2.43,0,0,0-.67.37,2.86,2.86,0,0,0-.55.57,2.23,2.23,0,0,0-.35.71v3.83h-.82v-6.25h.74v1.42a2.94,2.94,0,0,1,1.1-1.1,3,3,0,0,1,1.55-.42,1.84,1.84,0,0,1,.88.19,1.49,1.49,0,0,1,.58.54,2.48,2.48,0,0,1,.31.85,6,6,0,0,1,.1,1.12Z"/><path d="M145.67,269.07a2.22,2.22,0,0,1-.82-.15,2.07,2.07,0,0,1-.66-.41,1.86,1.86,0,0,1-.59-1.38,1.54,1.54,0,0,1,.19-.76,1.83,1.83,0,0,1,.54-.6,2.64,2.64,0,0,1,.83-.39,3.82,3.82,0,0,1,1.06-.14,5.8,5.8,0,0,1,1,.08,4.16,4.16,0,0,1,.88.24V265a1.82,1.82,0,0,0-.47-1.31,1.72,1.72,0,0,0-1.3-.49,2.76,2.76,0,0,0-1,.19,4.79,4.79,0,0,0-1,.55l-.29-.54a4.22,4.22,0,0,1,2.35-.82,2.53,2.53,0,0,1,1.85.66,2.44,2.44,0,0,1,.67,1.82v2.82c0,.22.1.34.3.34v.72l-.31,0a.7.7,0,0,1-.49-.16.58.58,0,0,1-.19-.43l0-.49a2.82,2.82,0,0,1-1.09.86A3.34,3.34,0,0,1,145.67,269.07Zm.19-.62a2.82,2.82,0,0,0,1.17-.24,1.91,1.91,0,0,0,.81-.64.76.76,0,0,0,.16-.23.6.6,0,0,0,.05-.23v-1a5.1,5.1,0,0,0-.85-.24,4.77,4.77,0,0,0-.89-.08,2.49,2.49,0,0,0-1.4.36,1.09,1.09,0,0,0-.54.95,1.29,1.29,0,0,0,.11.54,1.36,1.36,0,0,0,.31.44,1.46,1.46,0,0,0,.47.29A1.59,1.59,0,0,0,145.86,268.44Z"/><path d="M150.67,260.19h.82v7.34a.75.75,0,0,0,.19.55.72.72,0,0,0,.54.2,1.67,1.67,0,0,0,.31,0,2,2,0,0,0,.34-.1l.14.66a2.66,2.66,0,0,1-.56.16,3.24,3.24,0,0,1-.57.06,1.21,1.21,0,0,1-.89-.32,1.2,1.2,0,0,1-.32-.89Z"/><path d="M101.71,276.42a2.6,2.6,0,0,0-1-.66,3.5,3.5,0,0,0-1.37-.25,2.57,2.57,0,0,0-1.64.43,1.42,1.42,0,0,0-.52,1.16,1.27,1.27,0,0,0,.14.63,1.21,1.21,0,0,0,.43.43,3,3,0,0,0,.74.31q.45.13,1.06.26a11.66,11.66,0,0,1,1.23.32,3.55,3.55,0,0,1,.93.45,1.87,1.87,0,0,1,.59.65,2,2,0,0,1,.2,1,2.16,2.16,0,0,1-.23,1,2,2,0,0,1-.64.72,2.83,2.83,0,0,1-1,.43,5.21,5.21,0,0,1-1.24.14A5.08,5.08,0,0,1,96,282.18l.42-.68A3.32,3.32,0,0,0,97,282a4,4,0,0,0,.71.38,4.42,4.42,0,0,0,.83.25,4.73,4.73,0,0,0,.94.09,2.93,2.93,0,0,0,1.59-.37,1.23,1.23,0,0,0,.57-1.11,1.27,1.27,0,0,0-.16-.67,1.41,1.41,0,0,0-.49-.47,3.48,3.48,0,0,0-.8-.34q-.48-.14-1.12-.29t-1.18-.32a3.14,3.14,0,0,1-.85-.42,1.64,1.64,0,0,1-.52-.61,2,2,0,0,1-.17-.87,2.39,2.39,0,0,1,.22-1,2.07,2.07,0,0,1,.63-.77,3,3,0,0,1,1-.47,4.36,4.36,0,0,1,1.22-.16,4.16,4.16,0,0,1,1.52.26,4.06,4.06,0,0,1,1.21.73Z"/><path d="M106.54,283.46a3,3,0,0,1-1.25-.26,3.07,3.07,0,0,1-1-.71,3.27,3.27,0,0,1-.65-1,3.37,3.37,0,0,1-.23-1.26,3.29,3.29,0,0,1,.23-1.24,3.21,3.21,0,0,1,.65-1,3.07,3.07,0,0,1,1-.7,3.16,3.16,0,0,1,2.5,0,3,3,0,0,1,1,.7,3.29,3.29,0,0,1,.86,2.24v.19a.48.48,0,0,1,0,.13h-5.35a2.64,2.64,0,0,0,.23.93,2.56,2.56,0,0,0,.51.74,2.29,2.29,0,0,0,.71.49,2.13,2.13,0,0,0,.86.17,2.19,2.19,0,0,0,.6-.08,2.42,2.42,0,0,0,.55-.23,2.06,2.06,0,0,0,.46-.35,1.53,1.53,0,0,0,.31-.46l.71.19a2.1,2.1,0,0,1-.41.63,2.88,2.88,0,0,1-.61.49,3,3,0,0,1-.77.32A3.33,3.33,0,0,1,106.54,283.46Zm2.3-3.58a2.51,2.51,0,0,0-.74-1.63,2.23,2.23,0,0,0-.71-.47,2.2,2.2,0,0,0-.86-.17,2.24,2.24,0,0,0-.86.17,2.21,2.21,0,0,0-.71.47,2.31,2.31,0,0,0-.49.72,2.72,2.72,0,0,0-.22.91Z"/><path d="M114,277.81a2.58,2.58,0,0,0-1.44.46,2.3,2.3,0,0,0-.86,1.19v3.89h-.82v-6.25h.77v1.5a2.85,2.85,0,0,1,.94-1.13,2.17,2.17,0,0,1,1.26-.41H114Z"/><path d="M117,283.34l-2.54-6.25h.84l2.15,5.5,2.16-5.5h.79l-2.54,6.25Z"/><path d="M121.49,275.78v-1.2h.82v1.2Zm0,7.56v-6.25h.82v6.25Z"/><path d="M123.68,280.2a3.42,3.42,0,0,1,.23-1.25,3.12,3.12,0,0,1,.64-1,3,3,0,0,1,1-.69,3.14,3.14,0,0,1,1.27-.25,2.92,2.92,0,0,1,1.55.4,2.59,2.59,0,0,1,1,1.09l-.79.25a1.91,1.91,0,0,0-.74-.75,2.09,2.09,0,0,0-1-.27,2.11,2.11,0,0,0-.89.19,2.3,2.3,0,0,0-.72.52,2.39,2.39,0,0,0-.48.79,2.89,2.89,0,0,0,0,2,2.54,2.54,0,0,0,.49.81,2.33,2.33,0,0,0,.73.54,2,2,0,0,0,.88.2,2.17,2.17,0,0,0,.59-.08,2.26,2.26,0,0,0,.55-.23,2,2,0,0,0,.43-.34,1.1,1.1,0,0,0,.25-.41l.8.24a2.07,2.07,0,0,1-.38.62,2.68,2.68,0,0,1-.59.49,2.9,2.9,0,0,1-.76.32,3.22,3.22,0,0,1-.86.11,3,3,0,0,1-2.26-1,3.27,3.27,0,0,1-.65-1A3.37,3.37,0,0,1,123.68,280.2Z"/><path d="M133.34,283.46a3,3,0,0,1-1.25-.26,3.07,3.07,0,0,1-1-.71,3.27,3.27,0,0,1-.65-1,3.37,3.37,0,0,1-.23-1.26,3.29,3.29,0,0,1,.23-1.24,3.21,3.21,0,0,1,.65-1,3.07,3.07,0,0,1,1-.7,3.16,3.16,0,0,1,2.5,0,3,3,0,0,1,1,.7,3.29,3.29,0,0,1,.86,2.24v.19a.48.48,0,0,1,0,.13h-5.35a2.64,2.64,0,0,0,.23.93,2.56,2.56,0,0,0,.51.74,2.29,2.29,0,0,0,.71.49,2.13,2.13,0,0,0,.86.17,2.19,2.19,0,0,0,.6-.08,2.42,2.42,0,0,0,.55-.23,2.06,2.06,0,0,0,.46-.35,1.53,1.53,0,0,0,.31-.46l.71.19a2.1,2.1,0,0,1-.41.63,2.88,2.88,0,0,1-.61.49,3,3,0,0,1-.77.32A3.33,3.33,0,0,1,133.34,283.46Zm2.3-3.58a2.51,2.51,0,0,0-.74-1.63,2.23,2.23,0,0,0-.71-.47,2.2,2.2,0,0,0-.86-.17,2.24,2.24,0,0,0-.86.17,2.21,2.21,0,0,0-.71.47,2.31,2.31,0,0,0-.49.72,2.72,2.72,0,0,0-.22.91Z"/><path d="M139.76,283.46a4.35,4.35,0,0,1-1.43-.24,3.42,3.42,0,0,1-1.2-.7l.37-.55a4,4,0,0,0,1.07.65,3.16,3.16,0,0,0,1.17.22,2.11,2.11,0,0,0,1.21-.31,1,1,0,0,0,.45-.87.76.76,0,0,0-.12-.44,1,1,0,0,0-.35-.31,2.78,2.78,0,0,0-.59-.23l-.82-.21q-.54-.13-.94-.26a2.85,2.85,0,0,1-.65-.3,1.08,1.08,0,0,1-.38-.41,1.35,1.35,0,0,1-.13-.62,1.78,1.78,0,0,1,.19-.83,1.68,1.68,0,0,1,.5-.59,2.29,2.29,0,0,1,.74-.35,3.36,3.36,0,0,1,.91-.12,3.51,3.51,0,0,1,1.31.23,2.59,2.59,0,0,1,.95.62l-.4.48a2.18,2.18,0,0,0-.85-.54,3,3,0,0,0-1-.18,2.58,2.58,0,0,0-.6.07,1.44,1.44,0,0,0-.49.21,1,1,0,0,0-.33.37,1.08,1.08,0,0,0-.12.52.86.86,0,0,0,.08.41.71.71,0,0,0,.28.27,2.26,2.26,0,0,0,.49.2l.71.19q.6.14,1.06.29a3.31,3.31,0,0,1,.76.34,1.32,1.32,0,0,1,.46.47,1.35,1.35,0,0,1,.16.67,1.63,1.63,0,0,1-.66,1.37A2.85,2.85,0,0,1,139.76,283.46Z"/><path class="cls-1" d="M108.28,319.28s1.51,3.55,7,5.24c0,0-3.54.13-8.55-3.36L68.34,299.28a16.38,16.38,0,0,1-7.4-12.16l.17-48.4a16.77,16.77,0,0,1,1.38-6s-1.08,5.68,0,6.24Z"/><path class="cls-2" d="M62.15,291.29a17.1,17.1,0,0,1,2.78-11.1l33.26-57.39,11.52-18.85a18.1,18.1,0,0,1,6-4.15s-1.68-.68-5.66,1.87L72.14,223.54s-11.38,5-11.22,16.37l-.34,44.79S60.77,290,62.15,291.29Z"/><path class="cls-1" d="M177.35,239.44l-.21,44.23s1,12.16-10.28,17.74l-38,21.73s-3.83,2.19-6.25,2.12l1.62-.8a9.23,9.23,0,0,0,3.14-2s1.15-.42,3.58-4.5l44.23-75.43s1.94-4.75,1.1-7.55C176.24,234.94,176.52,231.39,177.35,239.44Z"/><path class="cls-2" d="M176.94,284.39l.3-43.89s1.44-10.22-9.48-16.55l-39.44-22.43a14.45,14.45,0,0,0-8.4-1.84s4.72.71,5.37,1.45c0,0,3.76,1.7,4.81,4.28l43.77,75s3.17,5.83,1.73,11C175.61,291.42,176.9,290.28,176.94,284.39Z"/><path class="cls-2" d="M66.23,296.1s2.2,2.44,7.62,3.56l54,.26,37.47-.34s5.6-.51,8-4.06c0,0-2.83,5.05-6.56,5.83L130.55,322a18.85,18.85,0,0,1-21.26.53L72.57,301.74S67.36,298.81,66.23,296.1Z"/><path class="cls-3" d="M67.22,227.07a15.34,15.34,0,0,1,10.39-2.55l88.78-.12s5.05,1.63,7.57,4.89a13.4,13.4,0,0,0-5.55-5.75L130,201.71s-10.52-6.53-19.89.17l-37.53,21.3A23.66,23.66,0,0,0,67.22,227.07Z"/><path class="cls-4" d="M109,120.48s1.52,3.54,7,5.21c0,0-3.54.14-8.57-3.32l-38.47-21.7a16.38,16.38,0,0,1-7.46-12.13l-.06-48.4a16.77,16.77,0,0,1,1.35-6s-1.05,5.69.07,6.24Z"/><path class="cls-5" d="M62.69,92.7a17.1,17.1,0,0,1,2.72-11.12L98.4,24l11.43-18.9A18.1,18.1,0,0,1,115.78,1s-1.68-.67-5.65,1.9L72.36,24.91S61,30,61.22,41.33l-.13,44.79S61.31,91.43,62.69,92.7Z"/><path class="cls-4" d="M177.64,40.31V84.54s1.1,12.16-10.2,17.78l-37.93,21.91s-3.82,2.2-6.24,2.15l1.61-.8a9.23,9.23,0,0,0,3.13-2.06s1.14-.42,3.56-4.51l43.87-75.64s1.91-4.76,1.07-7.55C176.52,35.82,176.78,32.27,177.64,40.31Z"/><path class="cls-5" d="M177.45,85.27l.1-43.89s1.4-10.22-9.56-16.5L128.44,2.63A14.45,14.45,0,0,0,120,.83s4.72.69,5.38,1.43c0,0,3.77,1.68,4.83,4.26l44.13,74.82s3.2,5.82,1.78,11C176.15,92.3,177.43,91.15,177.45,85.27Z"/><path class="cls-5" d="M66.8,97.49S69,99.92,74.43,101h54l37.47-.51s5.59-.54,8-4.1c0,0-2.81,5.07-6.53,5.86l-36.18,20.8a18.85,18.85,0,0,1-21.26.64L73.16,103.1S67.93,100.2,66.8,97.49Z"/><path class="cls-4" d="M67.46,28.46a15.34,15.34,0,0,1,10.38-2.6l88.78-.54s5.06,1.6,7.59,4.86a13.4,13.4,0,0,0-5.58-5.72L130.11,2.8s-10.55-6.48-19.89.27L72.78,24.54A23.66,23.66,0,0,0,67.46,28.46Z"/><path class="cls-4" d="M226,319.33s1.52,3.54,7,5.21c0,0-3.54.14-8.57-3.32l-38.47-21.7a16.38,16.38,0,0,1-7.46-12.13l-.06-48.4a16.77,16.77,0,0,1,1.35-6s-1.05,5.69.07,6.24Z"/><path class="cls-5" d="M179.71,291.56a17.1,17.1,0,0,1,2.72-11.12l33-57.55L226.85,204a18.1,18.1,0,0,1,5.95-4.18s-1.68-.67-5.65,1.9l-37.77,22.05s-11.36,5.06-11.15,16.42L178.11,285S178.33,290.28,179.71,291.56Z"/><path class="cls-4" d="M294.67,239.16V283.4s1.1,12.16-10.2,17.78l-37.93,21.91s-3.82,2.2-6.24,2.15l1.61-.8a9.23,9.23,0,0,0,3.13-2.06s1.14-.42,3.56-4.51l43.87-75.64s1.91-4.76,1.07-7.55C293.54,234.68,293.8,231.13,294.67,239.16Z"/><path class="cls-5" d="M294.47,284.12l.1-43.89S296,230,285,223.73l-39.55-22.25a14.45,14.45,0,0,0-8.41-1.8s4.72.69,5.38,1.43c0,0,3.77,1.68,4.83,4.26l44.13,74.82s3.2,5.82,1.78,11C293.17,291.16,294.46,290,294.47,284.12Z"/><path class="cls-5" d="M183.82,296.35s2.21,2.43,7.63,3.52h54l37.47-.51s5.59-.54,8-4.1c0,0-2.81,5.07-6.53,5.86l-36.18,20.8a18.85,18.85,0,0,1-21.26.64L190.19,302S185,299.06,183.82,296.35Z"/><path class="cls-4" d="M184.49,227.31a15.34,15.34,0,0,1,10.38-2.6l88.78-.54s5.06,1.6,7.59,4.86a13.4,13.4,0,0,0-5.58-5.72l-38.52-21.65s-10.55-6.48-19.89.27L189.81,223.4A23.66,23.66,0,0,0,184.49,227.31Z"/><path class="cls-1" d="M226.23,121s1.51,3.55,7,5.24c0,0-3.54.13-8.55-3.36L186.29,101a16.38,16.38,0,0,1-7.4-12.16l.17-48.4a16.77,16.77,0,0,1,1.38-6s-1.08,5.68,0,6.24Z"/><path class="cls-2" d="M180.09,93a17.1,17.1,0,0,1,2.78-11.1l33.26-57.39L227.64,5.62a18.1,18.1,0,0,1,6-4.15S231.94.79,228,3.35L190.08,25.22s-11.38,5-11.22,16.37l-.34,44.79S178.71,91.69,180.09,93Z"/><path class="cls-1" d="M295.29,41.12l-.21,44.23s1,12.16-10.28,17.74l-38,21.73s-3.83,2.19-6.25,2.12l1.62-.8a9.23,9.23,0,0,0,3.14-2s1.15-.42,3.58-4.5l44.23-75.43s1.94-4.75,1.1-7.55C294.19,36.63,294.46,33.08,295.29,41.12Z"/><path class="cls-2" d="M294.88,86.08l.3-43.89s1.44-10.22-9.48-16.55L246.26,3.21a14.45,14.45,0,0,0-8.4-1.84s4.72.71,5.37,1.45c0,0,3.76,1.7,4.81,4.28l43.77,75s3.17,5.83,1.73,11C293.55,93.11,294.84,92,294.88,86.08Z"/><path class="cls-2" d="M184.18,97.78s2.2,2.44,7.62,3.56l54,.26,37.47-.34s5.6-.51,8-4.06c0,0-2.83,5.05-6.56,5.83l-36.28,20.63a18.85,18.85,0,0,1-21.26.53l-36.72-20.78S185.3,100.5,184.18,97.78Z"/><path class="cls-3" d="M185.17,28.75a15.34,15.34,0,0,1,10.39-2.55l88.78-.12s5.05,1.63,7.57,4.89a13.4,13.4,0,0,0-5.55-5.75L247.93,3.39S237.41-3.14,228,3.56L190.5,24.86A23.66,23.66,0,0,0,185.17,28.75Z"/></g><g id="Layer_2_Image" data-name="Layer 2 Image"><rect class="cls-6" x="127.16" y="159.77" width="2.37" height="2.37" rx="1.19" ry="1.19" transform="translate(1.11 -0.88) rotate(0.39)"/><rect class="cls-7" x="124.72" y="162.37" width="2.37" height="2.37" rx="1.19" ry="1.19" transform="translate(1.13 -0.86) rotate(0.39)"/><rect class="cls-7" x="122.27" y="165" width="2.37" height="2.37" rx="1.19" ry="1.19" transform="translate(1.15 -0.85) rotate(0.39)"/><rect class="cls-7" x="124.68" y="167.67" width="2.37" height="2.37" rx="1.19" ry="1.19" transform="translate(1.17 -0.86) rotate(0.39)"/><rect class="cls-7" x="124.68" y="167.67" width="2.37" height="2.37" rx="1.19" ry="1.19" transform="translate(1.17 -0.86) rotate(0.39)"/><rect class="cls-7" x="124.68" y="167.67" width="2.37" height="2.37" rx="1.19" ry="1.19" transform="translate(1.17 -0.86) rotate(0.39)"/><rect class="cls-7" x="127.14" y="170.31" width="2.37" height="2.37" rx="1.19" ry="1.19" transform="translate(1.18 -0.88) rotate(0.39)"/><rect class="cls-7" x="228.47" y="160.4" width="2.37" height="2.37" rx="1.19" ry="1.19" transform="translate(1.12 -1.58) rotate(0.39)"/><rect class="cls-7" x="230.97" y="163.12" width="2.37" height="2.37" rx="1.19" ry="1.19" transform="translate(1.14 -1.6) rotate(0.39)"/><rect class="cls-7" x="233.38" y="165.76" width="2.37" height="2.37" rx="1.19" ry="1.19" transform="translate(1.16 -1.61) rotate(0.39)"/><rect class="cls-7" x="230.93" y="168.34" width="2.37" height="2.37" rx="1.19" ry="1.19" transform="translate(1.17 -1.6) rotate(0.39)"/><rect class="cls-7" x="228.39" y="170.92" width="2.37" height="2.37" rx="1.19" ry="1.19" transform="translate(1.19 -1.58) rotate(0.39)"/><path class="cls-8" d="M134,163.41s-1,1,0,1.32l4.63,0s1.57.5,1.35,1.77l-.89,3.36a1.28,1.28,0,0,1-1.06.85l-8.07-.06.7-2.24,6.49.07a1,1,0,0,0,.37-1.56h-4.6a1.91,1.91,0,0,1-1.44-2.51s.83-3.09,1.35-3.3l8.43.06-.58,2.25Z"/><path class="cls-9" d="M150.63,167h.22s4.45-2.41,1.52-5.74l-8.55-.06s-.69-.22-.95,1.27-1.31,4.78-1.31,4.78-1.16,2.48.69,3.51l8.79.06.69-2.18-8-.09s-.77-.49-.14-1.58Zm-5.74-3.55,6,0c1.06.41-.2,1.33-.2,1.33l-6.5,0C144.24,163.4,144.89,163.47,144.89,163.47Z"/><path class="cls-9" d="M153,170.84h1.95l1.86-6.64a.79.79,0,0,1,.78-.66l5.9,0,.65-2.25-7.46-.05h-.33s-.56-.08-.87,1Z"/><path class="cls-10" d="M165.19,161.35h1.94l0,7.14a4.23,4.23,0,0,0,3,0l4.1-7.12h2l-3.87,6.8a10.43,10.43,0,0,1-1.65,2.07c-.51.29-.19.4-2.51.65h-1.22a2.23,2.23,0,0,1-1.8-1.6l.05-8Z"/><polygon class="cls-8" points="176.98 161.43 179.02 161.45 176.41 171 174.43 170.99 176.98 161.43"/><path class="cls-9" d="M187.3,168.88l-5.9,0s-.79-.16-.53-1.18l1.05-3.52a.61.61,0,0,1,.52-.42l6.18,0,.72-2.25-7.84-.05h-.3s-.52-.16-.83.86-1.72,6.26-1.72,6.26-.42,2.1,1.22,2.45l6.71,0Z"/><path class="cls-9" d="M198.25,167.34h.22s4.45-2.41,1.52-5.74l-8.55-.06s-.69-.22-.95,1.27-1.31,4.78-1.31,4.78-1.16,2.48.69,3.51l8.79.06.69-2.18-8-.09s-.77-.49-.14-1.58Zm-5.74-3.55,6,0c1.06.41-.2,1.33-.2,1.33l-6.5,0C191.85,163.73,192.51,163.79,192.51,163.79Z"/><polygon class="cls-11" points="205.19 171.2 207.92 161.64 209.73 161.66 207.16 171.22 205.19 171.2"/><path class="cls-12" d="M210,163.93l.56-2.19,8.62.06-.52,2.2-3,0s-.48-.1-.5.3l-1.87,7h-2l2-7s.12-.33-.19-.3Z"/><path class="cls-10" d="M221.14,166.43h2l.59-2.4s0-.28.28-.25h2.39l.59-2.11-2.21,0s-.32,0-.19-.45l.66-2.31h-2l-.62,2.55s0,.3-.45.25H220l-.6,2.07,2.25,0s.34-.06.18.4S221.14,166.43,221.14,166.43Z"/><path class="cls-13" d="M177.51,187.74"/><path class="cls-14" d="M286.25,219.55s1.5,3.55,7,5.25c0,0-3.54.12-8.55-3.38l-38.32-22A16.38,16.38,0,0,1,239,187.29l.28-48.4a16.77,16.77,0,0,1,1.39-6s-1.09,5.68,0,6.24Z"/><path class="cls-15" d="M240.17,191.45a17.1,17.1,0,0,1,2.8-11.1L276.36,123l11.56-18.82a18.1,18.1,0,0,1,6-4.14s-1.67-.69-5.66,1.86l-37.92,21.79s-11.39,5-11.26,16.35l-.44,44.78S238.8,190.17,240.17,191.45Z"/><path class="cls-14" d="M355.49,139.86l-.31,44.23s1,12.16-10.32,17.71l-38.08,21.65s-3.84,2.18-6.25,2.11l1.62-.79a9.23,9.23,0,0,0,3.14-2s1.15-.42,3.59-4.49l44.4-75.33s1.95-4.75,1.12-7.55C354.39,135.36,354.68,131.82,355.49,139.86Z"/><path class="cls-15" d="M355,184.81l.4-43.89s1.47-10.21-9.44-16.57l-39.39-22.52a14.45,14.45,0,0,0-8.4-1.85s4.72.72,5.37,1.46c0,0,3.76,1.71,4.8,4.29l43.61,75.13s3.16,5.84,1.71,11C353.63,191.84,354.93,190.7,355,184.81Z"/><path class="cls-15" d="M244.25,196.28s2.19,2.45,7.61,3.58l54,.38,37.47-.25s5.6-.5,8-4c0,0-2.84,5-6.57,5.82L308.51,222.3a18.85,18.85,0,0,1-21.26.49l-36.67-20.86S245.37,199,244.25,196.28Z"/><path class="cls-14" d="M245.39,127.25a15.34,15.34,0,0,1,10.39-2.53l88.78.08s5,1.64,7.56,4.91a13.4,13.4,0,0,0-5.54-5.76L308.21,102s-10.5-6.55-19.89.13l-37.58,21.22A23.66,23.66,0,0,0,245.39,127.25Z"/><path class="cls-14" d="M47.63,220.17s1.5,3.55,7,5.25c0,0-3.54.12-8.55-3.38l-38.32-22A16.38,16.38,0,0,1,.36,187.9l.28-48.4a16.77,16.77,0,0,1,1.39-6s-1.09,5.68,0,6.24Z"/><path class="cls-15" d="M1.56,192.07A17.1,17.1,0,0,1,4.36,181l33.38-57.32L49.3,104.83a18.1,18.1,0,0,1,6-4.14s-1.67-.69-5.66,1.86L11.7,124.34S.31,129.33.44,140.69L0,185.47S.18,190.79,1.56,192.07Z"/><path class="cls-14" d="M116.87,140.48l-.31,44.23s1,12.16-10.32,17.71L68.17,224.07s-3.84,2.18-6.25,2.11l1.62-.79a9.23,9.23,0,0,0,3.14-2s1.15-.42,3.59-4.49l44.4-75.33s1.95-4.75,1.12-7.55C115.78,136,116.06,132.43,116.87,140.48Z"/><path class="cls-15" d="M116.36,185.43l.4-43.89s1.47-10.21-9.44-16.57L67.93,102.45a14.45,14.45,0,0,0-8.4-1.85s4.72.72,5.37,1.46c0,0,3.76,1.71,4.8,4.29l43.61,75.13s3.16,5.84,1.71,11C115,192.46,116.31,191.32,116.36,185.43Z"/><path class="cls-15" d="M5.63,196.89s2.19,2.45,7.61,3.58l54,.38,37.47-.25s5.6-.5,8-4c0,0-2.84,5-6.57,5.82L69.89,222.92a18.85,18.85,0,0,1-21.26.49L12,202.54S6.75,199.61,5.63,196.89Z"/><path class="cls-14" d="M6.77,127.86a15.34,15.34,0,0,1,10.39-2.53l88.78.08s5,1.64,7.56,4.91a13.4,13.4,0,0,0-5.54-5.76L69.59,102.64s-10.5-6.55-19.89.13L12.12,124A23.66,23.66,0,0,0,6.77,127.86Z"/></g></g></svg>