<svg xmlns="http://www.w3.org/2000/svg" viewBox="0 0 357.31 328.11"><defs><style>.cls-1{fill:#888787;}.cls-1,.cls-3,.cls-4,.cls-6{opacity:0.8;}.cls-2,.cls-3{fill:#6d6d6d;}.cls-2,.cls-5,.cls-7{opacity:0.9;}.cls-4,.cls-5{fill:#24a1b7;}.cls-6,.cls-7{fill:#e26623;}.cls-8{font-size:12px;font-family:Raleway-Regular, Raleway;}.cls-9{letter-spacing:-0.03em;}.cls-10{letter-spacing:-0.01em;}.cls-11{letter-spacing:0em;}.cls-12{letter-spacing:-0.03em;}.cls-13{letter-spacing:-0.01em;}.cls-14{letter-spacing:0em;}.cls-15{letter-spacing:-0.01em;}.cls-16{letter-spacing:-0.01em;}.cls-17{letter-spacing:-0.03em;}.cls-18{letter-spacing:-0.03em;}.cls-19{letter-spacing:-0.01em;}.cls-20{letter-spacing:-0.02em;}.cls-21{letter-spacing:-0.01em;}.cls-22{letter-spacing:0em;}.cls-23{letter-spacing:-0.06em;}.cls-24{letter-spacing:0em;}.cls-25{letter-spacing:-0.03em;}.cls-26{letter-spacing:-0.01em;}.cls-27{letter-spacing:-0.03em;}.cls-28{fill:#989898;}.cls-29{fill:#989897;}.cls-30{fill:#f26921;}.cls-31{fill:#f26a23;}.cls-32{fill:#f26a24;}.cls-33{fill:#2c327a;}.cls-34{fill:#2b337a;}.cls-35{fill:#fff;}</style></defs><title>Asset 9</title><g id="Layer_2" data-name="Layer 2"><g id="Gray_Image" data-name="Gray Image"><path class="cls-1" d="M228.41,120.83s1.65,3.49,7.18,5c0,0-3.53.27-8.68-3l-39.2-20.35a16.38,16.38,0,0,1-7.87-11.86L178.1,42.19a16.77,16.77,0,0,1,1.14-6.09s-.85,5.72.29,6.23Z"/><path class="cls-2" d="M181.21,94.67a17.1,17.1,0,0,1,2.34-11.21l31-58.66L225.28,5.52a18.1,18.1,0,0,1,5.8-4.38s-1.7-.62-5.58,2.09l-37,23.35S177.34,32,177.95,43.38l1.43,44.76S179.78,93.45,181.21,94.67Z"/><path class="cls-1" d="M294.27,38.32l1.53,44.21s1.52,12.11-9.57,18.13l-37.14,23.22s-3.74,2.34-6.16,2.37l1.58-.86a9.23,9.23,0,0,0,3.05-2.17s1.13-.46,3.4-4.64l41.22-77.11s1.75-4.83.8-7.59C293,33.88,293.13,30.32,294.27,38.32Z"/><path class="cls-2" d="M295.64,83.26l-1.43-43.87s1-10.27-10.12-16.16L243.79,2.37a14.45,14.45,0,0,0-8.47-1.5s4.74.52,5.42,1.24c0,0,3.82,1.55,5,4.09l46.7,73.25s3.4,5.7,2.16,10.9C294.58,90.34,295.83,89.14,295.64,83.26Z"/><path class="cls-2" d="M185.48,99.32s2.29,2.35,7.75,3.26l54-1.87,37.43-1.81s5.57-.73,7.87-4.37c0,0-2.63,5.16-6.32,6.08l-35.44,22A18.85,18.85,0,0,1,229.54,124L192,104.7S186.71,102,185.48,99.32Z"/><path class="cls-3" d="M183.74,30.3a15.34,15.34,0,0,1,10.28-3l88.71-3.62s5.11,1.43,7.75,4.59a13.4,13.4,0,0,0-5.78-5.52L245.46,2.49s-10.77-6.11-19.87,1L188.92,26.21A23.66,23.66,0,0,0,183.74,30.3Z"/><path class="cls-4" d="M110.46,120.79s1.65,3.49,7.18,5c0,0-3.53.27-8.68-3l-39.2-20.35a16.38,16.38,0,0,1-7.87-11.86L60.15,42.16a16.77,16.77,0,0,1,1.14-6.09s-.85,5.72.29,6.23Z"/><path class="cls-5" d="M63.26,94.64a17.1,17.1,0,0,1,2.34-11.21l31-58.66L107.33,5.48a18.1,18.1,0,0,1,5.8-4.38s-1.7-.62-5.58,2.09l-37,23.35S59.39,32,60,43.35l1.43,44.76S61.83,93.41,63.26,94.64Z"/><path class="cls-4" d="M176.32,38.29l1.53,44.21s1.52,12.11-9.57,18.13l-37.14,23.22s-3.74,2.34-6.16,2.37l1.58-.86a9.23,9.23,0,0,0,3.05-2.17s1.13-.46,3.4-4.64l41.22-77.11s1.75-4.83.8-7.59C175,33.84,175.18,30.28,176.32,38.29Z"/><path class="cls-5" d="M177.69,83.22l-1.43-43.87s1-10.27-10.12-16.16L125.84,2.33a14.45,14.45,0,0,0-8.47-1.5s4.74.52,5.42,1.24c0,0,3.82,1.55,5,4.09l46.7,73.25s3.4,5.7,2.16,10.9C176.63,90.3,177.88,89.11,177.69,83.22Z"/><path class="cls-5" d="M67.53,99.29s2.29,2.35,7.75,3.26l54-1.87,37.43-1.81s5.57-.73,7.87-4.37c0,0-2.63,5.16-6.32,6.08l-35.44,22A18.85,18.85,0,0,1,111.59,124L74.08,104.67S68.76,102,67.53,99.29Z"/><path class="cls-4" d="M65.79,30.27a15.34,15.34,0,0,1,10.28-3l88.71-3.62s5.11,1.43,7.75,4.59a13.4,13.4,0,0,0-5.78-5.52L127.51,2.45s-10.77-6.11-19.87,1L71,26.17A23.66,23.66,0,0,0,65.79,30.27Z"/><path class="cls-6" d="M289.84,220.49s1.65,3.49,7.18,5c0,0-3.53.27-8.68-3l-39.2-20.35a16.38,16.38,0,0,1-7.87-11.86l-1.74-48.37a16.77,16.77,0,0,1,1.14-6.09s-.85,5.72.29,6.23Z"/><path class="cls-7" d="M242.64,194.33A17.1,17.1,0,0,1,245,183.13l31-58.66,10.77-19.29a18.1,18.1,0,0,1,5.8-4.38s-1.7-.62-5.58,2.09l-37,23.35s-11.17,5.45-10.57,16.8l1.43,44.76S241.21,193.11,242.64,194.33Z"/><path class="cls-6" d="M355.71,138l1.53,44.21s1.52,12.11-9.57,18.13l-37.14,23.22s-3.74,2.34-6.16,2.37l1.58-.86a9.23,9.23,0,0,0,3.05-2.17s1.13-.46,3.4-4.64l41.22-77.11s1.75-4.83.8-7.59C354.43,133.53,354.56,130,355.71,138Z"/><path class="cls-7" d="M357.07,182.92,355.64,139s1-10.27-10.12-16.16L305.22,102a14.45,14.45,0,0,0-8.47-1.5s4.74.52,5.42,1.24c0,0,3.82,1.55,5,4.09l46.7,73.25s3.4,5.7,2.16,10.9C356,190,357.26,188.8,357.07,182.92Z"/><path class="cls-7" d="M246.91,199s2.29,2.35,7.75,3.26l54-1.87,37.43-1.81s5.57-.73,7.87-4.37c0,0-2.63,5.16-6.32,6.08l-35.44,22A18.85,18.85,0,0,1,291,223.68l-37.51-19.32S248.14,201.65,246.91,199Z"/><path class="cls-6" d="M245.18,130a15.34,15.34,0,0,1,10.28-3l88.71-3.62s5.11,1.43,7.75,4.59a13.4,13.4,0,0,0-5.78-5.52l-39.25-20.3S296.13,96,287,103.1l-36.67,22.76A23.66,23.66,0,0,0,245.18,130Z"/><path class="cls-6" d="M50.48,222.08s1.65,3.49,7.18,5c0,0-3.53.27-8.68-3L9.79,203.68a16.38,16.38,0,0,1-7.87-11.86L.18,143.45a16.77,16.77,0,0,1,1.14-6.09s-.85,5.72.29,6.23Z"/><path class="cls-7" d="M3.28,195.93a17.1,17.1,0,0,1,2.34-11.21l31-58.66,10.77-19.29a18.1,18.1,0,0,1,5.8-4.38s-1.7-.62-5.58,2.09l-37,23.35S-.58,133.29,0,144.64L1.45,189.4S1.85,194.7,3.28,195.93Z"/><path class="cls-6" d="M116.35,139.58l1.53,44.21s1.52,12.11-9.57,18.13L71.16,225.13s-3.74,2.34-6.16,2.37l1.58-.86a9.23,9.23,0,0,0,3.05-2.17s1.13-.46,3.4-4.64l41.22-77.11s1.75-4.83.8-7.59C115.07,135.13,115.2,131.57,116.35,139.58Z"/><path class="cls-7" d="M117.71,184.52l-1.43-43.87s1-10.27-10.12-16.16l-40.3-20.86a14.45,14.45,0,0,0-8.47-1.5s4.74.52,5.42,1.24c0,0,3.82,1.55,5,4.09l46.7,73.25s3.4,5.7,2.16,10.9C116.66,191.59,117.9,190.4,117.71,184.52Z"/><path class="cls-7" d="M7.55,200.58s2.29,2.35,7.75,3.26l54-1.87,37.43-1.81s5.57-.73,7.87-4.37c0,0-2.63,5.16-6.32,6.08l-35.44,22a18.85,18.85,0,0,1-21.22,1.37L14.11,206S8.78,203.24,7.55,200.58Z"/><path class="cls-6" d="M5.82,131.56a15.34,15.34,0,0,1,10.28-3L104.81,125s5.11,1.43,7.75,4.59a13.4,13.4,0,0,0-5.78-5.52l-39.25-20.3s-10.77-6.11-19.87,1L11,127.46A23.66,23.66,0,0,0,5.82,131.56Z"/><path class="cls-1" d="M110.85,322.29s1.65,3.49,7.18,5c0,0-3.53.27-8.68-3l-39.2-20.35A16.38,16.38,0,0,1,62.28,292l-1.74-48.37a16.77,16.77,0,0,1,1.14-6.09s-.85,5.72.29,6.23Z"/><path class="cls-2" d="M63.65,296.13A17.1,17.1,0,0,1,66,284.93l31-58.66L107.72,207a18.1,18.1,0,0,1,5.8-4.38s-1.7-.62-5.58,2.09L71,228s-11.17,5.45-10.57,16.8l1.43,44.76S62.22,294.91,63.65,296.13Z"/><path class="cls-1" d="M176.71,239.78,178.25,284s1.52,12.11-9.57,18.13l-37.14,23.22s-3.74,2.34-6.16,2.37l1.58-.86a9.23,9.23,0,0,0,3.05-2.17s1.13-.46,3.4-4.64l41.22-77.11s1.75-4.83.8-7.59C175.43,235.34,175.57,231.78,176.71,239.78Z"/><path class="cls-2" d="M178.08,284.72l-1.43-43.87s1-10.27-10.12-16.16l-40.3-20.86a14.45,14.45,0,0,0-8.47-1.5s4.74.52,5.42,1.24c0,0,3.82,1.55,5,4.09l46.7,73.25s3.4,5.7,2.16,10.9C177,291.8,178.27,290.6,178.08,284.72Z"/><path class="cls-2" d="M67.92,300.78s2.29,2.35,7.75,3.26l54-1.87,37.43-1.81s5.57-.73,7.87-4.37c0,0-2.63,5.16-6.32,6.08l-35.44,22A18.85,18.85,0,0,1,112,325.48L74.48,306.16S69.15,303.45,67.92,300.78Z"/><path class="cls-3" d="M66.19,231.76a15.34,15.34,0,0,1,10.28-3l88.71-3.62s5.11,1.43,7.75,4.59a13.4,13.4,0,0,0-5.78-5.52L127.9,204s-10.77-6.11-19.87,1L71.37,227.67A23.66,23.66,0,0,0,66.19,231.76Z"/><path class="cls-4" d="M229.57,321.29s1.65,3.49,7.18,5c0,0-3.53.27-8.68-3l-39.2-20.35A16.38,16.38,0,0,1,181,291l-1.74-48.37a16.77,16.77,0,0,1,1.14-6.09s-.85,5.72.29,6.23Z"/><path class="cls-5" d="M182.36,295.13a17.1,17.1,0,0,1,2.34-11.21l31-58.66L226.43,206a18.1,18.1,0,0,1,5.8-4.38s-1.7-.62-5.58,2.09l-37,23.35s-11.17,5.45-10.57,16.8l1.43,44.76S180.94,293.91,182.36,295.13Z"/><path class="cls-4" d="M295.43,238.78,297,283s1.52,12.11-9.57,18.13l-37.14,23.22s-3.74,2.34-6.16,2.37l1.58-.86a9.23,9.23,0,0,0,3.05-2.17s1.13-.46,3.4-4.64l41.22-77.11s1.75-4.83.8-7.59C294.15,234.34,294.28,230.78,295.43,238.78Z"/><path class="cls-5" d="M296.79,283.72l-1.43-43.87s1-10.27-10.12-16.16l-40.3-20.86a14.45,14.45,0,0,0-8.47-1.5s4.74.52,5.42,1.24c0,0,3.82,1.55,5,4.09l46.7,73.25s3.4,5.7,2.16,10.9C295.74,290.8,297,289.6,296.79,283.72Z"/><path class="cls-5" d="M186.63,299.78s2.29,2.35,7.75,3.26l54-1.87,37.43-1.81s5.57-.73,7.87-4.37c0,0-2.63,5.16-6.32,6.08l-35.44,22a18.85,18.85,0,0,1-21.22,1.37l-37.51-19.32S187.86,302.45,186.63,299.78Z"/><path class="cls-4" d="M184.9,230.76a15.34,15.34,0,0,1,10.28-3l88.71-3.62s5.11,1.43,7.75,4.59a13.4,13.4,0,0,0-5.78-5.52L246.62,203s-10.77-6.11-19.87,1l-36.67,22.76A23.66,23.66,0,0,0,184.9,230.76Z"/><text class="cls-8" transform="translate(91.98 58.59)">I<tspan class="cls-9" x="2.98" y="0">T</tspan><tspan x="9.96" y="0" xml:space="preserve"> Servi</tspan><tspan class="cls-10" x="40.57" y="0">c</tspan><tspan x="47.1" y="0">e</tspan><tspan class="cls-10" x="-9.94" y="14.4">M</tspan><tspan x="0.52" y="14.4">anageme</tspan><tspan class="cls-10" x="53.13" y="14.4">n</tspan><tspan class="cls-11" x="60.07" y="14.4">t</tspan></text><text class="cls-8" transform="translate(216.59 54.28)">Industr<tspan class="cls-12" x="38.64" y="0">y</tspan><tspan x="9.96" y="14.4">Best</tspan><tspan x="-0.05" y="28.8">P</tspan><tspan class="cls-13" x="7.41" y="28.8">r</tspan><tspan x="11.54" y="28.8">acti</tspan><tspan class="cls-14" x="31.3" y="28.8">c</tspan><tspan x="37.83" y="28.8">e</tspan></text><text class="cls-8" transform="translate(275.74 150.13)">S<tspan class="cls-15" x="7.28" y="0">o</tspan><tspan x="14.33" y="0">ft</tspan><tspan class="cls-16" x="22.31" y="0">w</tspan><tspan x="31.91" y="0">a</tspan><tspan class="cls-17" x="38.45" y="0">r</tspan><tspan x="42.35" y="0">e</tspan><tspan x="5.33" y="14.4">Qualit</tspan><tspan class="cls-18" x="37.88" y="14.4">y</tspan><tspan class="cls-19" x="-4.35" y="28.8">A</tspan><tspan class="cls-11" x="3.69" y="28.8">ssu</tspan><tspan class="cls-13" x="22.51" y="28.8">r</tspan><tspan x="26.63" y="28.8">an</tspan><tspan class="cls-10" x="40.17" y="28.8">c</tspan><tspan x="46.7" y="28.8">e</tspan></text><text class="cls-8" transform="translate(36.14 156.15)"><tspan class="cls-20">S</tspan><tspan class="cls-21" x="7.07" y="0">y</tspan><tspan x="13.43" y="0">s</tspan><tspan class="cls-16" x="19.27" y="0">t</tspan><tspan x="23.14" y="0">ems</tspan><tspan x="13.03" y="14.4">and</tspan><tspan x="0.99" y="28.8">Securit</tspan><tspan class="cls-12" x="39.88" y="28.8">y</tspan></text><text class="cls-8" transform="translate(214.34 261.81)"><tspan class="cls-19">S</tspan><tspan x="7.21" y="0">t</tspan><tspan class="cls-13" x="11.23" y="0">r</tspan><tspan class="cls-22" x="15.36" y="0">a</tspan><tspan class="cls-16" x="21.85" y="0">t</tspan><tspan class="cls-11" x="25.72" y="0">egic</tspan><tspan x="-4.1" y="14.4">Ou</tspan><tspan class="cls-16" x="12.04" y="14.4">t</tspan><tspan class="cls-14" x="15.9" y="14.4">c</tspan><tspan x="22.43" y="14.4">omes</tspan></text><text class="cls-8" transform="translate(86.23 255.8)"><tspan class="cls-23">W<tspan class="cls-24" x="11.78" y="0">orld Class</tspan></tspan><tspan x="-0.16" y="14.4">P</tspan><tspan class="cls-25" x="7.3" y="14.4">r</tspan><tspan class="cls-26" x="11.2" y="14.4">o</tspan><tspan class="cls-25" x="18.25" y="14.4">f</tspan><tspan x="21.89" y="14.4">essiona</tspan><tspan class="cls-27" x="63.92" y="14.4">l</tspan><tspan x="9.84" y="28.8">Servi</tspan><tspan class="cls-14" x="37.39" y="28.8">c</tspan><tspan x="43.92" y="28.8">es</tspan></text></g><g id="Layer_2_Image" data-name="Layer 2 Image"><rect class="cls-28" x="127.57" y="160.02" width="2.37" height="2.37" rx="1.19" ry="1.19" transform="translate(1.11 -0.88) rotate(0.39)"/><rect class="cls-29" x="125.13" y="162.62" width="2.37" height="2.37" rx="1.19" ry="1.19" transform="translate(1.13 -0.87) rotate(0.39)"/><rect class="cls-29" x="122.68" y="165.25" width="2.37" height="2.37" rx="1.19" ry="1.19" transform="translate(1.15 -0.85) rotate(0.39)"/><rect class="cls-29" x="125.09" y="167.92" width="2.37" height="2.37" rx="1.19" ry="1.19" transform="translate(1.17 -0.87) rotate(0.39)"/><rect class="cls-29" x="125.09" y="167.92" width="2.37" height="2.37" rx="1.19" ry="1.19" transform="translate(1.17 -0.87) rotate(0.39)"/><rect class="cls-29" x="125.09" y="167.92" width="2.37" height="2.37" rx="1.19" ry="1.19" transform="translate(1.17 -0.87) rotate(0.39)"/><rect class="cls-29" x="127.55" y="170.56" width="2.37" height="2.37" rx="1.19" ry="1.19" transform="translate(1.19 -0.88) rotate(0.39)"/><rect class="cls-29" x="228.88" y="160.65" width="2.37" height="2.37" rx="1.19" ry="1.19" transform="translate(1.12 -1.58) rotate(0.39)"/><rect class="cls-29" x="231.38" y="163.37" width="2.37" height="2.37" rx="1.19" ry="1.19" transform="translate(1.14 -1.6) rotate(0.39)"/><rect class="cls-29" x="233.79" y="166.01" width="2.37" height="2.37" rx="1.19" ry="1.19" transform="translate(1.16 -1.62) rotate(0.39)"/><rect class="cls-29" x="231.35" y="168.59" width="2.37" height="2.37" rx="1.19" ry="1.19" transform="translate(1.18 -1.6) rotate(0.39)"/><rect class="cls-29" x="228.81" y="171.17" width="2.37" height="2.37" rx="1.19" ry="1.19" transform="translate(1.19 -1.58) rotate(0.39)"/><path class="cls-30" d="M134.43,163.66s-1,1,0,1.32l4.63,0s1.57.5,1.35,1.77l-.89,3.36a1.28,1.28,0,0,1-1.06.85l-8.07-.06.7-2.24,6.49.07a1,1,0,0,0,.37-1.56h-4.6a1.91,1.91,0,0,1-1.44-2.51s.83-3.09,1.35-3.3l8.43.06-.58,2.25Z"/><path class="cls-31" d="M151,167.27h.22s4.45-2.41,1.52-5.74l-8.55-.06s-.69-.22-.95,1.27-1.31,4.78-1.31,4.78-1.16,2.48.69,3.51l8.79.06.69-2.18-8-.09s-.77-.49-.14-1.58Zm-5.74-3.55,6,0c1.06.41-.2,1.33-.2,1.33l-6.5,0C144.65,163.65,145.31,163.72,145.31,163.72Z"/><path class="cls-31" d="M153.39,171.09h1.95l1.86-6.64a.79.79,0,0,1,.78-.66l5.9,0,.65-2.25-7.46-.05h-.33s-.56-.08-.87,1Z"/><path class="cls-32" d="M165.6,161.6h1.94l0,7.14a4.23,4.23,0,0,0,3,0l4.1-7.12h2l-3.87,6.8a10.43,10.43,0,0,1-1.65,2.07c-.51.29-.19.4-2.51.65h-1.22a2.23,2.23,0,0,1-1.8-1.6l.05-8Z"/><polygon class="cls-30" points="177.4 161.68 179.43 161.7 176.83 171.25 174.84 171.24 177.4 161.68"/><path class="cls-31" d="M187.71,169.13l-5.9,0s-.79-.16-.53-1.18l1.05-3.52a.61.61,0,0,1,.52-.42l6.18,0,.72-2.25-7.84-.05h-.3s-.52-.16-.83.86-1.72,6.26-1.72,6.26-.42,2.1,1.22,2.45l6.71,0Z"/><path class="cls-31" d="M198.67,167.59h.22s4.45-2.41,1.52-5.74l-8.55-.06s-.69-.22-.95,1.27-1.31,4.78-1.31,4.78-1.16,2.48.69,3.51l8.79.06.69-2.18-8-.09s-.77-.49-.14-1.58ZM192.92,164l6,0c1.06.41-.2,1.33-.2,1.33l-6.5,0C192.27,164,192.92,164,192.92,164Z"/><polygon class="cls-33" points="205.6 171.45 208.33 161.89 210.14 161.91 207.57 171.47 205.6 171.45"/><path class="cls-34" d="M210.42,164.18,211,162l8.62.06-.52,2.2-3,0s-.48-.1-.5.3l-1.87,7h-2l2-7s.12-.33-.19-.3Z"/><path class="cls-32" d="M221.55,166.68h2l.59-2.4s0-.28.28-.25h2.39l.59-2.11-2.21,0s-.32,0-.19-.45l.66-2.31h-2l-.62,2.55s0,.3-.45.25h-2.15l-.6,2.07,2.25,0s.34-.06.18.4S221.55,166.68,221.55,166.68Z"/><path class="cls-35" d="M177.92,188"/></g></g></svg>