<svg xmlns="http://www.w3.org/2000/svg" viewBox="0 0 115.03 111.28"><defs><style>.cls-1{fill:#f16a21;}</style></defs><title>Asset 15</title><g id="Layer_2" data-name="Layer 2"><g id="Layer_1-2" data-name="Layer 1"><path class="cls-1" d="M22,47.8s-.26-1.42.94-1.54h5.75s1.12,0,1.12,1.54V68.35s0,1-1.16,1h-6a1,1,0,0,1-.71-1.12Z"/><path class="cls-1" d="M31.66,65.17V50.72s3.82-3.09,13.81-3.09A25,25,0,0,1,59.73,51.9l.51.32s3.73-1,13.51,1.67c0,0,4,.41,4.18,3.9,0,0-.32,3.24-3.15,4L58,61.1s1.87,2.38,7.66,3c0,0,10.23.26,13-2,0,0,4.5-3.93,5.66-3.86,0,0,2.81-.88,4.44.45a2.38,2.38,0,0,1,0,3.86s2.49,0,.39,3.22l-9,6.52-1.54.86a45,45,0,0,1-4.68,1c-2.7.43-9.22,1.72-9.22,1.72s-7.64,1.16-10-.56L42.12,69.33,37.06,67.1a7.56,7.56,0,0,0-3-.83A2.65,2.65,0,0,1,31.66,65.17Z"/><path class="cls-1" d="M91.2,30.73,86.05,30a3.78,3.78,0,0,0-.71-3l4.12-3.6-3-4.63-4.57,1.87s-1.87-2.25-2.7-2.38l2.12-4.7-4.76-3-3.15,3.93s-2.45-1-3.28-.71L68.94,8.78H63.79l-.9,4.76a17.07,17.07,0,0,0-3.28,1l-3.22-3.93-5.15,2.9,2.12,4.7a6,6,0,0,0-2.57,2.25l-4.7-1.8-2.83,4.76,4.05,3.28a12.78,12.78,0,0,0-1.09,3.47L41,30.79v5.47L45.9,37s1,2.77,1.29,3.22l-4,3.41,1.42,2.6a24.3,24.3,0,0,1,15.27,4s17.59.77,18.79,5.23L81.25,54l-1.8-5.06a13.72,13.72,0,0,0,2.49-2.06L86.31,49l3.09-5-4.12-3.86s1.09-.88.9-3.26h5ZM66.53,45.13A11.51,11.51,0,1,1,78,33.62,11.51,11.51,0,0,1,66.53,45.13Z"/><path class="cls-1" d="M102.48,0H12.55A12.58,12.58,0,0,0,0,12.55V73.9A12.58,12.58,0,0,0,12.55,86.45H44.38V96.65h-19a6.54,6.54,0,0,0-6.52,6.52v1.59a6.54,6.54,0,0,0,6.52,6.52H90.11a6.54,6.54,0,0,0,6.52-6.52v-1.59a6.54,6.54,0,0,0-6.52-6.52H70.82V86.45h31.66A12.58,12.58,0,0,0,115,73.9V12.55A12.58,12.58,0,0,0,102.48,0Zm6.19,67.21A12.58,12.58,0,0,1,96.13,79.76H18.91A12.58,12.58,0,0,1,6.36,67.21V18.71A12.58,12.58,0,0,1,18.91,6.17H96.13a12.58,12.58,0,0,1,12.55,12.55Z"/></g></g></svg>