<svg xmlns="http://www.w3.org/2000/svg" viewBox="0 0 217.67 217.67"><defs><style>.cls-1{fill:none;stroke:#0289de;stroke-miterlimit:10;stroke-width:2px;}.cls-2{fill:#0289de;}</style></defs><title>Asset 2</title><g id="Layer_2" data-name="Layer 2"><g id="Layer_1-2" data-name="Layer 1"><circle class="cls-1" cx="108.83" cy="108.83" r="107.83"/><path class="cls-2" d="M40.83,119.5s-.5-2.75,1.83-3H53.83s2.17-.08,2.17,3v39.92s.08,1.92-2.25,1.92H42.17a1.87,1.87,0,0,1-1.38-2.17Z"/><path class="cls-2" d="M59.67,153.25V125.17s7.42-6,26.83-6a48.58,48.58,0,0,1,27.71,8.29l1,.63s7.25-1.87,26.25,3.25c0,0,7.75.79,8.13,7.58,0,0-.62,6.29-6.12,7.79l-32.62-1.37s3.63,4.63,14.88,5.75c0,0,19.88.5,25.25-3.87,0,0,8.75-7.62,11-7.5,0,0,5.46-1.71,8.63.88,0,0,4.5,3.67,0,7.5,0,0,4.83,0,.75,6.25L153.83,167l-3,1.67a87.36,87.36,0,0,1-9.08,1.92c-5.25.83-17.92,3.33-17.92,3.33s-14.83,2.25-19.5-1.08L80,161.33,70.17,157a14.68,14.68,0,0,0-5.77-1.6A5.16,5.16,0,0,1,59.67,153.25Z"/><path class="cls-2" d="M175.33,86.33l-10-1.37s.75-2.5-1.37-5.75l8-7-5.87-9-8.87,3.63s-3.62-4.37-5.25-4.62l4.13-9.12-9.25-5.75L140.71,55s-4.75-2-6.37-1.37l-2.25-9.87h-10L120.33,53S115,54.08,114,54.83l-6.25-7.62-10,5.63L101.83,62s-3.62,1.63-5,4.38l-9.12-3.5-5.5,9.25,7.88,6.38s-2,4.25-2.12,6.75L77.83,86.46V97.08l9.5,1.5s2,5.37,2.5,6.25l-7.75,6.63,2.75,5a47.21,47.21,0,0,1,29.67,7.83s34.17,1.5,36.5,10.17l5-3-3.5-9.83a26.65,26.65,0,0,0,4.83-4l8.5,4.17,6-9.67-8-7.5s2.13-1.71,1.75-6.33h9.75Zm-47.92,28A22.36,22.36,0,1,1,149.78,92,22.36,22.36,0,0,1,127.42,114.32Z"/></g></g></svg>