<svg xmlns="http://www.w3.org/2000/svg" viewBox="0 0 120.16 97.37"><defs><style>.cls-1{fill:#f16a21;}</style></defs><title>Asset 10</title><g id="Layer_2" data-name="Layer 2"><g id="Layer_1-2" data-name="Layer 1"><path class="cls-1" d="M34.55,0A34.55,34.55,0,1,0,69.11,34.55,34.55,34.55,0,0,0,34.55,0Zm.37,62a27,27,0,1,1,27-27A27,27,0,0,1,34.92,62Z"/><path class="cls-1" d="M39.44,68.59l9.17,26.32s1,3.17,5.49,2.31c0,0,4.8-.94,4.29-5.4L48.93,65.46Z"/><path class="cls-1" d="M51,34.55A24.81,24.81,0,0,0,40.55,24.29c-5.85,7.59-16.08,9.39-16.08,9.39A24.15,24.15,0,0,0,24.86,41c.69,4,4.63,8.36,4.63,8.36a10.83,10.83,0,0,0,6.77,1.59c9.47-1.67,14.41-9.7,14.41-9.7C52.39,37.11,51,34.55,51,34.55Zm-2.06,6.13s-2.51,5.66-12.09,8.42a9.62,9.62,0,0,1-6.62-1.44S26,45,25.83,35c0,0,5.14-.9,6.75-2.44h1L40.3,44s1.16.9,1.22-.64L34.9,31.87l.19-.9s4.88-3.16,5.72-4.63c0,0,6.3,2.83,8.49,8.94A6.77,6.77,0,0,1,48.91,40.68Z"/><path class="cls-1" d="M41.26,22.74s-.19,1.16,1.09,1l2.12-5.47s-.45-.58,1-.64h3.67s.9-1,0-1.48H44.28s-.68,0-.84.53S41.26,22.74,41.26,22.74Z"/><path class="cls-1" d="M48.08,21s1.74-.35,1,1.25l-4.4,3s-1.38.06-.93-1Z"/><path class="cls-1" d="M46.08,26.34a1,1,0,0,0,1.16,1l2.26-1.83s.24-.45.63,0l5,4.44s1.54.42,1.22-1.09l-5.72-5.15a1.14,1.14,0,0,0-1.36.14Z"/><path class="cls-1" d="M18.37,40.27s-1.58.19-1-1.32l4.89-2.48s1.77.2.84,1.3Z"/><path class="cls-1" d="M19.78,41s-1.13,0-.93,1.41l1.43,7.33s1.24,1,1.53-.42L20.56,43s-.26-.29.51-.8L23.61,41s.74-1.13-.58-1.38Z"/><path class="cls-1" d="M16.86,34.16s-.77-.45-1.16.55l-1.54,2.93s-1.35.54-1.19-.94l1.94-3.92s.22-.55,1.34-.26l6.59,1.09s.71,1.11-.19,1.47Z"/><path class="cls-1" d="M27.16,20.19s-5.78,2-4.82,11.65c0,0,10.13,1.82,17.31-10C39.65,21.84,33.51,15.87,27.16,20.19Zm-3.26,10c-.77-7.3,3.86-8.84,3.86-8.84,5.08-3.28,10,1.25,10,1.25C32,31.55,23.9,30.17,23.9,30.17Z"/><path class="cls-1" d="M99.37,4.37H85.48L64.73,62.67H77.25L80.85,51h23.06l3.94,11.69h12.3ZM84.28,41.07l8.23-24.95,8.23,24.95Z"/></g></g></svg>