<svg xmlns="http://www.w3.org/2000/svg" viewBox="0 0 217.67 217.67"><defs><style>.cls-1{fill:#760991;}.cls-2{fill:none;stroke:#760991;stroke-miterlimit:10;stroke-width:2px;}</style></defs><title>Asset 4</title><g id="Layer_2" data-name="Layer 2"><g id="Layer_1-2" data-name="Layer 1"><path class="cls-1" d="M76.29,54.16a44,44,0,1,0,44,44A44,44,0,0,0,76.29,54.16Zm.47,79a34.48,34.48,0,1,1,34.48-34.48A34.48,34.48,0,0,1,76.76,133.15Z"/><path class="cls-1" d="M82.52,141.6l11.69,33.55s1.31,4,7,3c0,0,6.12-1.2,5.46-6.89l-12.05-33.6Z"/><path class="cls-1" d="M97.22,98.21A31.62,31.62,0,0,0,83.94,85.12c-7.46,9.67-20.49,12-20.49,12a30.78,30.78,0,0,0,.49,9.32c.87,5.08,5.9,10.66,5.9,10.66a13.81,13.81,0,0,0,8.63,2c12.08-2.13,18.37-12.36,18.37-12.36C99,101.47,97.22,98.21,97.22,98.21ZM94.6,106s-3.2,7.21-15.41,10.74a12.26,12.26,0,0,1-8.44-1.83s-5.33-3.42-5.57-16.12c0,0,6.56-1.15,8.61-3.11H75l8.61,14.51s1.48,1.15,1.56-.82L76.73,94.79,77,93.65s6.22-4,7.3-5.9c0,0,8,3.61,10.82,11.4A8.62,8.62,0,0,1,94.6,106Z"/><path class="cls-1" d="M84.84,83.15s-.25,1.48,1.39,1.23l2.7-7s-.57-.74,1.23-.82h4.67s1.15-1.23,0-1.89H88.7s-.86,0-1.07.68S84.84,83.15,84.84,83.15Z"/><path class="cls-1" d="M93.53,81s2.21-.45,1.27,1.6l-5.61,3.81s-1.76.08-1.19-1.27Z"/><path class="cls-1" d="M91,87.74a1.22,1.22,0,0,0,1.48,1.31l2.89-2.34s.31-.57.8,0l6.35,5.66s2,.53,1.56-1.39l-7.3-6.57a1.46,1.46,0,0,0-1.73.18Z"/><path class="cls-1" d="M55.66,105.49s-2,.25-1.31-1.68l6.23-3.16s2.25.25,1.07,1.66Z"/><path class="cls-1" d="M57.47,106.47s-1.43,0-1.19,1.8l1.82,9.34s1.58,1.27,1.95-.53L58.45,109s-.33-.37.66-1l3.24-1.52s.94-1.43-.74-1.76Z"/><path class="cls-1" d="M53.74,97.7s-1-.57-1.48.7l-2,3.74s-1.72.69-1.52-1.2l2.47-5s.27-.7,1.71-.33L61.36,97s.9,1.42-.25,1.88Z"/><path class="cls-1" d="M66.87,79.9s-7.37,2.59-6.14,14.85c0,0,12.91,2.32,22.07-12.74C82.8,82,75,74.39,66.87,79.9ZM62.71,92.62c-1-9.3,4.92-11.27,4.92-11.27,6.48-4.18,12.75,1.6,12.75,1.6C73,94.38,62.71,92.62,62.71,92.62Z"/><path class="cls-1" d="M158.92,59.74h-17.7l-26.45,74.32h16l4.59-14.9h29.4l5,14.9h15.68Zm-19.24,46.78,10.49-31.8,10.49,31.8Z"/><circle class="cls-2" cx="108.83" cy="108.83" r="107.83"/></g></g></svg>