<svg xmlns="http://www.w3.org/2000/svg" viewBox="0 0 252 210"><defs><style>.cls-1{fill:#f16a21;}</style></defs><title>Asset 23</title><g id="Layer_2" data-name="Layer 2"><g id="Layer_1-2" data-name="Layer 1"><path class="cls-1" d="M184,157V89c0-8-7-8-7-8h-4V42C162,0,124,4,124,4,85,5,78,44,78,44V80c-10,0-11,8-11,8v9H77l4,6c0,4-5,5-5,5H67v3H77c4,0,4,6,4,6,0,4-5,5-5,5H67v3H77c4,0,4,6,4,6,0,4-5,5-5,5H67v3h9c5,0,5,6,5,6,0,4-5,5-5,5H67v9c0,6,8,7,8,7H177C185,166,184,157,184,157Zm-52-29,2,9H117l3-9h0a10,10,0,1,1,12,0Zm29-48H90V47c6-31,36-30,36-30,32-1,35,30,35,30Z"/><path class="cls-1" d="M59,110H54.44a15,15,0,1,0,0,8H59ZM40,121a7,7,0,1,1,7-7A7,7,0,0,1,40,121Z"/><path class="cls-1" d="M61,74H29.44a15,15,0,1,0,.25,7H61l1-1,6-6ZM15,85a7,7,0,1,1,7-7A7,7,0,0,1,15,85Z"/><path class="cls-1" d="M52,149h7v-7H51s-11,1-11,12v26.56a15,15,0,1,0,7-.25V155S47,149,52,149Zm-1,46a7,7,0,1,1-7-7A7,7,0,0,1,51,195Z"/><path class="cls-1" d="M62,38V29.44a15,15,0,1,0-7,.25V40c0,8,10,10,10,10h5V43C61,44,62,38,62,38ZM51,15a7,7,0,1,1,7,7A7,7,0,0,1,51,15Z"/><path class="cls-1" d="M212,99a15,15,0,0,0-14.44,11H193v8h4.56A15,15,0,1,0,212,99Zm0,22a7,7,0,1,1,7-7A7,7,0,0,1,212,121Z"/><path class="cls-1" d="M209,15a15,15,0,1,0-19,14.44V37c0,6-4,6-4,6h-4v7h3c9,0,12-9,12-9V29.7A15,15,0,0,0,209,15Zm-15,7a7,7,0,1,1,7-7A7,7,0,0,1,194,22Z"/><path class="cls-1" d="M237,62a15,15,0,0,0-14.7,12H183l7,7h32.56A15,15,0,1,0,237,62Zm0,22a7,7,0,1,1,7-7A7,7,0,0,1,237,84Z"/><path class="cls-1" d="M212,180.56V155c0-14-12-13-12-13h-7v7h7c5,0,4,6,4,6v25.56a15,15,0,1,0,8,0ZM208,202a7,7,0,1,1,7-7A7,7,0,0,1,208,202Z"/></g></g></svg>