<svg xmlns="http://www.w3.org/2000/svg" viewBox="0 0 113.53 113.17"><defs><style>.cls-1{fill:#f16a21;}</style></defs><title>Asset 9</title><g id="Layer_2" data-name="Layer 2"><g id="Layer_1-2" data-name="Layer 1"><circle class="cls-1" cx="22.68" cy="11.05" r="11.05"/><circle class="cls-1" cx="53.18" cy="33.65" r="11.05"/><circle class="cls-1" cx="83.17" cy="11.05" r="11.05"/><path class="cls-1" d="M22.68,82.88H0V36.25A6.94,6.94,0,0,1,7.23,30c6.64,0,27.05,0,27.05,0s-2,8.8,3.53,15.1c0,0-12.22-.95-15.12,11.91Z"/><path class="cls-1" d="M105.94,58.18l0-20.92s-.63-6-5.8-7.23H71.89s1.33,9.25-3.71,14.67l-.13.25s5.08-.08,4.41,1c0,0-12.1,3-13.95,6.72l-21.3.4s-5.46-.95-6.89,6.7l-.08,45.87H58.05s20.67,16.47,41.67.67C99.72,106.32,126.1,87.84,105.94,58.18ZM79.39,105.12a26,26,0,1,1,26-26A26,26,0,0,1,79.39,105.12Z"/><path class="cls-1" d="M91.24,75.57s1.6-15-12-15.12c0,0-12.33-.63-11.83,15l-3.19.13V94h30V75.57Zm-7.31-4v3.59H75.11V71.48c-.5-4.47,4.41-3.72,4.41-3.72C84.18,67.88,83.93,71.6,83.93,71.6Z"/></g></g></svg>