<svg xmlns="http://www.w3.org/2000/svg" viewBox="0 0 217.67 217.67"><defs><style>.cls-1{fill:#4b0051;stroke:#000;stroke-width:0.25px;}.cls-1,.cls-2{stroke-miterlimit:10;}.cls-2{fill:none;stroke:#4b0051;stroke-width:2px;}</style></defs><title>Asset 6</title><g id="Layer_2" data-name="Layer 2"><g id="Layer_1-2" data-name="Layer 1"><path class="cls-1" d="M94.82,155.28h35.82a1.81,1.81,0,0,0-.75,1.61l-.16,26a7.21,7.21,0,0,1-2,3.49,7.86,7.86,0,0,1-4.67,2.41H100.45s-4.08.32-5-5.15Z"/><circle class="cls-1" cx="67.56" cy="129.32" r="7.71"/><circle class="cls-1" cx="163.99" cy="106.44" r="7.71"/><path class="cls-1" d="M97.28,32.75A7.71,7.71,0,1,0,105,40.46,7.71,7.71,0,0,0,97.28,32.75Zm0,12.33a4.28,4.28,0,1,1,4.28-4.28A4.28,4.28,0,0,1,97.31,45.08Z"/><path class="cls-1" d="M123.51,108.57s-6.54-.8-10,7.45l-.16,1.18-.05,4.67H110.9v-5.31s-.64-6.85-9.17-8c0,0-7.19-1-8.37,7.58,0,0-1.82,9.28,12.28,10.94v23.06h5.26V126.21h2.57v23.92h5.15V127s12.33-.21,12.87-9.44C131.5,117.58,132.46,108.68,123.51,108.57Zm-17.75,13.88c-10.15-2.22-7.44-7.18-7.44-7.18,3.79-5.11,7.44,1.85,7.44,1.85Zm13.19.15v-5.51s3.63-7.2,7.4-1.91C126.35,115.18,129.05,120.31,118.95,122.6Z"/><path class="cls-1" d="M160.81,53.72s-8.87-1.72-28.17,4.15c0,0-3.86-25-15.44-31.89,0,0-6.68-6-15,3.15l3.15,1.93s6.86-7.94,12.66.5c0,0,7.94,7.58,10.65,28,0,0-9.72,2.72-17.16,7.36,0,0-14-7.44-17.45-7.51l1.64-6.51-3.36-1.22-1.86,6.15s-23.31-7.79-32.53-3.15c0,0-14.09,6.13-1.5,22.87,0,0,7.86,9.31,14.3,15.74l.07.5s-19.45,15.44-20,28.21A12.67,12.67,0,0,0,56,131.15v-5.68S48.7,118.71,73.58,96.4l.39-.29,2.77,2.22,1.95-3.16-1.63-1.82s5.52-7.88,33.41-21.68a3,3,0,0,1,1.72,0c.86.29,24.45,10.8,33.46,21.52l-1.56,1.61L146.51,98l2.2-2s.56-.05.72.29l3.86,4L156,97.12l-3.75-3.75a75.4,75.4,0,0,0,18.53-23S176.54,56.29,160.81,53.72ZM89.67,63.44,88.38,79.1a2.51,2.51,0,0,1-1.14,1.72L75.58,89.39a2.36,2.36,0,0,1-3.43,0c-21-20.81-16.52-27-16.52-27,5-10.87,33-.64,33-.64A1.31,1.31,0,0,1,89.67,63.44ZM92.6,77.17l.93-13.58,12.94,5.29Zm24.09-7.94,12.73-5.65,1.22,13.58Zm33.46,20.52c-1.14,1.22-2.09.54-2.09.54l-12.39-9.65a3.07,3.07,0,0,1-.86-3l-1.47-13.65c-.57-1.64,1.36-2.43,1.36-2.43,29.68-9.8,32.81,1.5,32.81,1.5C170.86,71.47,150.16,89.75,150.16,89.75Z"/><path class="cls-1" d="M167,118.49l3.5-2s6.22,12.8-8.15,16.66c0,0-12.23,1.5-18-.86l2.22-3.93s9.58,2.57,15.09.79C161.67,129.15,171.11,127.64,167,118.49Z"/><path class="cls-1" d="M130.64,150.81s-.14-9.8,8.87-21.49c0,0,10.25-17.92-2.57-34.85,0,0-7.44-12.44-26.74-13.3,0,0-20.16-.71-28.46,20.45,0,0-5.15,11.55,0,23.44,0,0,5.31,8.88,8.42,14.35,0,0,2.63,2,3.7,11.4A1.62,1.62,0,0,0,95.26,152c1.27.25,1.95-1.18,1.95-1.18s.89-1.5-2.07-9.29a83,83,0,0,0-6.83-12.23S78.62,116.13,84,105.52c0,0,4.58-15.88,19.09-19.63,0,0,25.42-6,34.43,16.41,0,0,8.15,15.55-3.86,30,0,0-5.79,8.26-6.54,17.8,0,0,0,1.72,1.39,2.07S130.64,150.81,130.64,150.81Z"/><path class="cls-1" d="M90.74,107.29s5.31-13.24,15-13.83a1.23,1.23,0,0,0,1.18-1.66s-.16-2.84-3.41-1.57c0,0-11.71,3.11-15.5,15a2,2,0,0,0,.71,2.43S90.12,108.65,90.74,107.29Z"/><circle class="cls-2" cx="108.83" cy="108.83" r="107.83"/></g></g></svg>