<svg xmlns="http://www.w3.org/2000/svg" viewBox="0 0 139.22 146.79"><defs><style>.cls-1{fill:#f16a24;}.cls-2{fill:#fff;}</style></defs><title>Asset 2</title><g id="Layer_2" data-name="Layer 2"><g id="Layer_1-2" data-name="Layer 1"><ellipse class="cls-1" cx="69.61" cy="73.39" rx="69.61" ry="73.39"/><path class="cls-2" d="M68.9,119.17A117.9,117.9,0,0,1,88,83.07a87.07,87.07,0,0,0,7.72-13.21s6.28-16.61-7.46-29c0,0-10.2-11.9-30.87-5.1,0,0-13.47,4.19-16.74,21.19a25.6,25.6,0,0,0,2.88,15.17s3,6.8,5.23,9.55a81.77,81.77,0,0,1,5.1,7.59s9,12.95,11.25,20.4C65.11,109.62,67.59,115.24,68.9,119.17Z"/><ellipse class="cls-1" cx="68.8" cy="61.95" rx="11.84" ry="12.95"/></g></g></svg>