<svg xmlns="http://www.w3.org/2000/svg" viewBox="0 0 114.21 114.21"><defs><style>.cls-1{fill:#5cc8e8;}.cls-2{fill:#fff;}</style></defs><title>Asset 2</title><g id="Layer_2" data-name="Layer 2"><g id="OBJECTS"><g id="_Group_" data-name="&lt;Group&gt;"><circle id="_Path_" data-name="&lt;Path&gt;" class="cls-1" cx="57.11" cy="57.11" r="57.11"/><path id="_Path_2" data-name="&lt;Path&gt;" class="cls-2" d="M90.19,34.87A22.43,22.43,0,0,1,83,36.73a13.78,13.78,0,0,0,6-7.59,27.46,27.46,0,0,1-8.72,3.33A13.74,13.74,0,0,0,57,45,39,39,0,0,1,28.68,30.64,13.74,13.74,0,0,0,32.92,49a13.67,13.67,0,0,1-6.22-1.72c0,.06,0,.12,0,.17a13.73,13.73,0,0,0,11,13.46,13.71,13.71,0,0,1-6.2.24,13.74,13.74,0,0,0,12.82,9.53,27.53,27.53,0,0,1-17,5.88A27.83,27.83,0,0,1,24,76.33s5.06,7,22.73,9.44,48.09-9.48,37.32-44.11A23.94,23.94,0,0,0,90.19,34.87Z"/></g></g></g></svg>