<svg xmlns="http://www.w3.org/2000/svg" viewBox="0 0 140.19 152.48"><defs><style>.cls-1{fill:#f16a21;}</style></defs><title>Asset 8</title><g id="Layer_2" data-name="Layer 2"><g id="Layer_1-2" data-name="Layer 1"><path class="cls-1" d="M103.19,101.24S81.84,108.5,86,135.43a30.37,30.37,0,0,0,8.35,14.32L0,149.7s1.32-37.47,9.68-41.59l31-12.56a4.44,4.44,0,0,0,1.41-.77c.77-.6,6.54-5.51,6.54-5.51s2.77-2.12,5.47-.39L64.92,99.47l10-9.81a4.54,4.54,0,0,1,6.43-.19l6.82,5.72Z"/><path class="cls-1" d="M116.06,104.22a24.13,24.13,0,1,0,24.13,24.13A24.13,24.13,0,0,0,116.06,104.22ZM131.65,140l-3.82,3.64c-.86.69-1.29,0-1.29,0l-7.29-7.25-.34.47c-.47.39-1.16-.21-1.16-.21L116,134.91a1.2,1.2,0,0,1-.09-1.07l1.89-1.84-1.59-1.67-4.16,4.07c1.71,7.89-5.92,8.23-5.92,8.23-.64-.13-.3-1-.3-1l1.63-1.63-1-3.77-3.77-1-1.84,1.84a.77.77,0,0,1-.86-.64c.77-7.67,8.34-5.85,8.34-5.85l4-4.12L106.85,121l-3.42-2.23a2.65,2.65,0,0,1-.54-.53l-1.49-2.71.08-.09,1.7-1.74s2.22,1.25,2.7,1.45a1.32,1.32,0,0,1,.68.64l2.25,3.5,5.5,5.34,3.57-3.57c-1.67-7.85,5.69-8.26,5.69-8.26,1.19-.06.68.93.68.93l-1.8,1.7,1.13,3.89,3.86.93,1.86-1.86c1.13-.06.64,1.33.64,1.33-1.37,7.29-8.26,5.1-8.26,5.1l-3.59,3.73,1.65,1.54,1.8-1.82a.74.74,0,0,1,1,0l2.06,2a.5.5,0,0,1,0,.77l-.51.43s7.2,7,7.55,7.59A.77.77,0,0,1,131.65,140Z"/><path class="cls-1" d="M103.38,31.78C97.31-2.06,63.66,0,63.66,0,29.19,2.5,26.47,31.85,26.47,31.85c-2.7.26-3,4.31-3,4.31V51.59c.51,5.53,5.19,6.07,5.19,6.07l6.9.24c7.89,32.22,30.35,28.87,30.35,28.87,18.91.13,24.87-17.62,24.87-17.62C81.54,76,73.48,75.47,73.48,75.47a3.91,3.91,0,0,1-2.89,1.86H66.47c-4.67-.41-4.12-4.07-4.12-4.07.34-3.94,3.69-4,3.69-4s2.84-.06,4.5,0a4,4,0,0,1,2.73,1.43A24.17,24.17,0,0,0,94.18,57.83l6.52,0c5.23-.26,5.66-5.74,5.66-5.74V36.65A5.89,5.89,0,0,0,103.38,31.78Zm-9.32.51c-6.3-20.13-29.15-19-29.15-19-24.31.09-29.11,19-29.11,19a2.85,2.85,0,0,0-2-1.22C38.17,6.9,64.6,7.22,64.6,7.22,92.13,7,96.07,31.08,96.07,31.08A4.31,4.31,0,0,0,94.06,32.3Z"/></g></g></svg>