<svg xmlns="http://www.w3.org/2000/svg" viewBox="0 0 150.65 125.27"><defs><style>.cls-1,.cls-2,.cls-3{fill:#f16a21;}.cls-2,.cls-3{stroke:#fff;stroke-miterlimit:10;}.cls-2{stroke-width:3px;}.cls-3{stroke-width:4px;}</style></defs><title>Asset 23</title><g id="Layer_2" data-name="Layer 2"><g id="Layer_1-2" data-name="Layer 1"><path class="cls-1" d="M14.19,89.76H132.5s25.41-7.91,16.1-34.45a24.69,24.69,0,0,0-20-15.53s.28-22.87-21.74-34.45c0,0-39.53-21.18-59.86,20.9,0,0-20-6.78-29.93,11.86,0,0-4.84,6.71-2.82,17.51,0,0-14.4,1.48-14.19,18.64C0,74.23.21,87.39,14.19,89.76Z"/><circle class="cls-1" cx="78.82" cy="80.98" r="30.17"/><path class="cls-2" d="M56.77,86.62a2.28,2.28,0,0,0-2.15,0l-5.5,2.75h-5V95.1h6.82s.61-.22,1,.83l2,4.29a1.43,1.43,0,0,1-.11,1.49L49,106.6l11.94,12,4.79-4.51s1.38-1,2.31-.11l3.3,1.49a1.7,1.7,0,0,1,1.16,1.65v6.66H89.79v-7.48s.2-.83.94-.83l4.07-1.72a1.26,1.26,0,0,1,1.43.33l5,4.59,4.33-4.11-4-3.74s-1.06-.51-1.83-5.74l-5.28-2.66a2.39,2.39,0,0,0-2.16,0s-7.48,7.59-20.1,1.5c0,0-9.13-4.22-10.49-14.23,0,0-.15-1.14-.81-1.5Z"/><path class="cls-3" d="M101.32,102.25s1.83.72,1.67,2.39a9.9,9.9,0,0,0,6.47,8.39,12.64,12.64,0,0,0,11.08-1l-7.41-5.32a3.89,3.89,0,0,1-.73-4.22c1.14-2.27,3.33-5.55,5.39-5.74a5.45,5.45,0,0,1,3.22.3l6.8,4.51a11,11,0,0,0-1.57-8.28s-3.63-5.78-8.53-6.22c0,0-5.26-1-9.24,2.39,0,0-1.16,1.51-3.81.3L60.46,70.88a2.44,2.44,0,0,1-1.17-2.24s.07-9.61-11.74-9.54c0,0-5,.39-6,1.57l7,5.06s1.82,1,1.24,4.84c0,0-2.56,5.59-5.26,5.59,0,0-3.25.25-4-.41l-6.08-4.35a12.75,12.75,0,0,0,4.6,12s5.58,4.7,12,1.5l3.26-1.87s1.72-.73,2.57,0S99.65,99.86,101.32,102.25Z"/><path class="cls-2" d="M62.16,66.65a1.72,1.72,0,0,0,.58,1.62L68.27,71a2.63,2.63,0,0,0,1.57-.41,19.37,19.37,0,0,1,20.55-1.17s8.73,4.62,9.83,14a1.79,1.79,0,0,0,.93,1.44l4.59,1.79A4.34,4.34,0,0,0,108,86s4.46-2.48,6.41-2.34h3.8V77.9L111,78a1,1,0,0,1-1-.61c-.3-.72-1.79-4.48-1.79-4.48a1.32,1.32,0,0,1,.47-1.54c.85-.8,4.1-4,4.1-4s.36-1.21-.28-1.79L102.2,55.22a2.89,2.89,0,0,0-2.49.29l-3.15,3.23a1.77,1.77,0,0,1-2.13.66l-4-1.85s-.83-.15-.72-.92.11-6.27.11-6.27.28-.72-1.16-.77-15.08,0-15.08,0-1.43-.11-1.38,1.1l.11,5.56s-.28,1-.88,1.35L67.53,59.3a1.73,1.73,0,0,1-2-.33l-3.69-3.8s-.52-1-1.73.06l-2.67,2.64a.77.77,0,0,0,0,1.24S62.36,63.11,62.16,66.65Z"/></g></g></svg>