<svg xmlns="http://www.w3.org/2000/svg" viewBox="0 0 187.5 127.82"><defs><style>.cls-1{fill:#f16a21;}.cls-2,.cls-3,.cls-4{fill:#fff;}.cls-3{opacity:0.83;}.cls-4{opacity:0.42;}.cls-5{fill:#fafdff;}</style></defs><title>Asset 10</title><g id="Layer_2" data-name="Layer 2"><g id="Layer_1-2" data-name="Layer 1"><circle class="cls-1" cx="91.49" cy="78.01" r="10.85"/><path class="cls-1" d="M101.2,88.11c-1.32-1.24-2.06,0-2.06,0-7.25,6-14.51.75-14.51.75-1.51-.86-1.81,0-1.81,0-11.13,8.79-9.27,22.25-9.27,22.25,12,8.53,19.54,7,19.54,7,9.89-.12,18.42-9.27,18.42-9.27C111.5,93.92,101.2,88.11,101.2,88.11Z"/><path class="cls-1" d="M168.93,74.23a1.63,1.63,0,0,0-1.64,1.37,1.7,1.7,0,0,0,.87,1.39v2h1.42V77a1.42,1.42,0,0,0,.9-1.26A1.52,1.52,0,0,0,168.93,74.23Z"/><path class="cls-1" d="M168.93,69.45a1.52,1.52,0,0,0-1.56,1.2v2.08h3.12V70.64A1.71,1.71,0,0,0,168.93,69.45Z"/><path class="cls-1" d="M168.6,54.91a18.91,18.91,0,0,0-18.05,24.51l-21,7.57,0,1.8a37.1,37.1,0,0,0-19.87-31L121,36.65l-.27-.12a18.69,18.69,0,1,0-2.21-1h0L107.66,56.87a37.08,37.08,0,0,0-30.46,0L68,36.1l-.15.06a19,19,0,1,0-1.73.67l-.15.06,9.21,21a37.1,37.1,0,0,0-19.6,29.3L36.6,80.45l-.11.24a19,19,0,1,0-.61,1.39l-.15.33L55.4,89.52c0,.4,0,.8,0,1.2a37.1,37.1,0,0,0,74.21,0c0-.43,0-.86,0-1.29l21.94-7.63-.07-.18a18.9,18.9,0,1,0,17.2-26.71ZM92.47,125.4a34.68,34.68,0,1,1,34.68-34.68A34.68,34.68,0,0,1,92.47,125.4ZM177,83.71a12.6,12.6,0,0,1-15.74.44s-4.34-2.87-4.84-9.92a12.69,12.69,0,0,1,7.62-11.52,12.1,12.1,0,0,1,10.9.66l1.23-1.63,2,5.4-5.45-.78,1.35-1.76s-7.61-4.59-14,3c0,0-6.25,8.46,2.56,15.8,0,0,7.75,5.08,14.18-1.6A11.08,11.08,0,0,0,179,70.1l1.46-.66A12.29,12.29,0,0,1,177,83.71Zm-3.47-9.33-.05,4.44c-.12,1.46-1.18,1.58-1.18,1.58h-6.89c-1.18,0-1.16-1.52-1.16-1.52V74.24c0-1.35,1.54-1.51,1.54-1.51V70.87c0-2.92,3-3,3-3A2.9,2.9,0,0,1,172,71.09v1.64C173.45,72.77,173.55,74.38,173.55,74.38Z"/><polygon class="cls-2" points="117.64 18.77 115.5 15.69 121.78 15.69 124 18.77 121.84 21.96 115.5 21.96 117.64 18.77"/><polygon class="cls-3" points="125.6 18.77 123.45 15.69 129.74 15.69 131.96 18.77 129.79 21.96 123.45 21.96 125.6 18.77"/><polygon class="cls-4" points="133.5 18.77 131.35 15.69 137.63 15.69 139.85 18.77 137.69 21.96 131.35 21.96 133.5 18.77"/><path class="cls-2" d="M133.39,22.79h2.36s-.14,7.69-7.72,7.69A6.74,6.74,0,0,1,121.78,27L121.06,30l-2.29-.66,1.7-6.79,6.79,1.75-.54,2.06-3.13-.78a5.27,5.27,0,0,0,4.57,2.65S133.32,28.82,133.39,22.79Z"/><path class="cls-2" d="M118.82,14.09h2.29a5,5,0,0,1,5.27-5s3.14-.18,4.6,2.29l-3.12-.6-.44,1.92,6.75,1.35,1.42-6-2-.44L133,10.3a7.44,7.44,0,0,0-6.36-3.12S119.91,6.67,118.82,14.09Z"/><path class="cls-2" d="M28.59,63.91h-17a2.63,2.63,0,0,0-2.37,2.25V80.31a2.63,2.63,0,0,0,2.21,2.33h2.4a5.31,5.31,0,0,1-.42,2.4s-.5.71-.85.83a.5.5,0,0,0-.24.53.52.52,0,0,0,.45.42,5.47,5.47,0,0,0,4.41-2.09,9.8,9.8,0,0,0,1.16-2.08H28.79a2.55,2.55,0,0,0,2.26-2.4l0-13.66A2.55,2.55,0,0,0,28.59,63.91ZM30.07,80.1a1.63,1.63,0,0,1-1.46,1.52H18.29a.57.57,0,0,0-.73.39,5.35,5.35,0,0,1-3.32,3.59,3.68,3.68,0,0,0,.64-2.07l0-1.39a.55.55,0,0,0-.56-.52H11.62a1.58,1.58,0,0,1-1.4-1.53V66.39A1.62,1.62,0,0,1,12,64.91H28.6a1.74,1.74,0,0,1,1.47,1.61Z"/><path class="cls-2" d="M20.88,75.85,22.72,74,26,77.33a1.28,1.28,0,0,1,0,1.76,1.31,1.31,0,0,1-1.94,0Z"/><path class="cls-2" d="M20.34,71.24l-6,6a1.3,1.3,0,1,0,1.87,1.8l6-6a3,3,0,0,0,3-.48,3.21,3.21,0,0,0,1.14-3,2,2,0,0,0-.28-.79l-2.32,2.34-1.48-1.5,2.34-2.29a3,3,0,0,0-3.29.4A3.12,3.12,0,0,0,20.34,71.24Z"/><polygon class="cls-2" points="15.75 69.6 18.11 71.98 18.84 71.25 16.48 68.91 16.5 68.14 14.64 67.03 13.91 67.75 15 69.59 15.75 69.6"/><path class="cls-5" d="M51.3,29.43c-.64,0-.57-.78-.57-.78l0-18.06c0-.67.43-.74.43-.74s14.74,0,15.38,0a.57.57,0,0,1,.6.63l0,5.45.81.07s0-4.21,0-5.55A1.34,1.34,0,0,0,66.73,9S51.66,9,50.9,9s-1,1.12-1,1.12,0,17.92,0,19a1.51,1.51,0,0,0,1,1.39H63.1V29.43S51.95,29.42,51.3,29.43Z"/><polygon class="cls-5" points="59.86 13.65 58.14 13.65 58.29 22.68 59.65 22.68 59.86 13.65"/><ellipse class="cls-5" cx="59" cy="25.29" rx="0.99" ry="1.09"/><path class="cls-5" d="M75.24,24a.67.67,0,0,0-.52-.73H73.32a4.89,4.89,0,0,0-.76-2l.94-.86a.79.79,0,0,0,.06-.91.56.56,0,0,0-.85-.21l-1,1a4,4,0,0,0-1.91-.86V18a.64.64,0,0,0-.61-.45.68.68,0,0,0-.71.53v1.39a4,4,0,0,0-1.83.88l-1.22-1s-.36-.35-.76.23c0,0-.5.61,0,1l1,.88A4.92,4.92,0,0,0,65,23.31H63.39s-.48,0-.48.69c0,0-.07.82.54.79H65a4.92,4.92,0,0,0,.58,1.71L64.44,27.7s-.37.33.09.87c0,0,.47.64.89.16l1-1.1a4,4,0,0,0,2,1V30s0,.53.63.53c0,0,.74.07.72-.61V28.65a4,4,0,0,0,2-1l1.05,1.08s.32.39.78-.15c0,0,.55-.55.09-1l-1-1a4.93,4.93,0,0,0,.63-1.81h1.4C75.35,24.8,75.24,24,75.24,24Zm-6.08,3.29a3.15,3.15,0,0,1-3-3.29,3,3,0,1,1,6,0A3.15,3.15,0,0,1,69.16,27.34Z"/></g></g></svg>