<svg xmlns="http://www.w3.org/2000/svg" viewBox="0 0 165.18 166.6"><defs><style>.cls-1{fill:#f16a21;}</style></defs><title>Asset 25</title><g id="Layer_2" data-name="Layer 2"><g id="Layer_1-2" data-name="Layer 1"><path class="cls-1" d="M63,0a63,63,0,1,0,63,63A63,63,0,0,0,63,0Zm0,119.16A56.16,56.16,0,1,1,119.16,63,56.16,56.16,0,0,1,63,119.16Z"/><path class="cls-1" d="M95.07,126s-1.92-3.5.68-5.43c0,0,3.05-2.49,5.31,0l34.7,34.14s8.59,7.8,17.52.57c0,0,7.23-4.52,1.92-15.37L117.79,102.3s-1.73-1.88,1-4.37a4.05,4.05,0,0,1,5-.26l35.64,35.87s8.29,8.29,5,19.14c0,0-4.14,11.53-14.69,13.56,0,0-10.1,2.34-17.78-4.9l-29.39-28.18Z"/><path class="cls-1" d="M74.5,44.52h2.92V21.75H48.57V44.51l2.35,0V46.2l-2.35,3.4V54l28.84-.07V49.56l-2.9-3.37Zm-1-3.78H52.6a1.15,1.15,0,0,1-1.15-1.15V24.67a1.15,1.15,0,0,1,1.15-1.15h20.9a1.15,1.15,0,0,1,1.15,1.15V39.59A1.15,1.15,0,0,1,73.49,40.74Z"/><polygon class="cls-1" points="56.18 57.27 47.5 65.78 45.15 63.47 45.15 70.43 51.99 70.43 49.51 67.95 58.15 59.32 60.63 61.63 60.63 55.17 54 55.17 56.18 57.27"/><polygon class="cls-1" points="56.79 75.05 68.94 75.19 69.04 71.9 73.86 76.93 68.92 81.66 69 78.15 56.79 77.89 56.6 81.27 52.14 76.61 56.92 72.03 56.79 75.05"/><polygon class="cls-1" points="69.73 57.27 78.41 65.78 80.76 63.47 80.76 70.43 73.92 70.43 76.4 67.95 67.77 59.32 65.29 61.63 65.29 55.17 71.91 55.17 69.73 57.27"/><path class="cls-1" d="M108.11,81.27H111V58.5H82.18V81.27l2.35,0V83l-2.35,3.4v4.39L111,90.67V86.32l-2.9-3.37Zm-1-3.78H86.2a1.15,1.15,0,0,1-1.15-1.15V61.43a1.15,1.15,0,0,1,1.15-1.15h20.9a1.15,1.15,0,0,1,1.15,1.15V76.34A1.15,1.15,0,0,1,107.1,77.49Z"/><path class="cls-1" d="M40.9,81.27h2.92V58.5H15V81.27l2.35,0V83L15,86.35v4.39l28.84-.07V86.32l-2.9-3.37Zm-1-3.78H19a1.15,1.15,0,0,1-1.15-1.15V61.43A1.15,1.15,0,0,1,19,60.28h20.9A1.15,1.15,0,0,1,41,61.43V76.34A1.15,1.15,0,0,1,39.89,77.49Z"/></g></g></svg>