<svg xmlns="http://www.w3.org/2000/svg" viewBox="0 0 126.01 152.45"><defs><style>.cls-1{fill:#f16a21;}</style></defs><title>Asset 26</title><g id="Layer_2" data-name="Layer 2"><g id="Layer_1-2" data-name="Layer 1"><path class="cls-1" d="M0,20.87S32.41,21.27,61.79,0c0,0,20.87,18.44,60.57,20.87,0,0,1.55,37.21-2.77,44,0,0-7.9-3.92-14.11-2.57,0,0,3.38-19.92,3.51-29.88,0,0-18.5,1.25-47-17,0,0-5.67,7.7-38.76,15.67l65.5,41.06-5.17,5.71L73.43,67.66a22.82,22.82,0,0,0-23.5-2.43,9,9,0,0,1-5-1.82c-2.63-1.87-27.14-17.15-27.14-17.15s2.3,45,30.52,68.2a38.18,38.18,0,0,0-8.74,10S2,112,0,20.87Z"/><path class="cls-1" d="M80.31,139.25,55.47,114.54l-10.8,10.94s-7.16,15.13,3.51,22.69c0,0,10.13,8,20.26,2.16Z"/><path class="cls-1" d="M87.61,82l24.21,24.92,10.23-9.82s8.91-12.56,0-22.59c0,0-4.24-6.68-15.24-5.77,0,0-6.64.3-10.89,4.76Z"/><path class="cls-1" d="M120.13,121.95l-50.64-50c-2.68-2.65-8.13-3.23-8.13-3.23C47.61,68,43.15,80.17,43.15,80.17c-4,7.85,3.44,17.54,3.44,17.54l49.28,49.46a17.19,17.19,0,0,0,7,4.25c13.83,4.81,21.2-8.95,21.2-8.95C129.38,130.26,120.13,121.95,120.13,121.95ZM83.85,95a2,2,0,1,1-2,2A2,2,0,0,1,83.85,95ZM70.45,112.57a2,2,0,1,1,2-2A2,2,0,0,1,70.45,112.57Zm6.72,6.62a2,2,0,1,1,2-2A2,2,0,0,1,77.16,119.19Zm0-13.56a2,2,0,1,1,2-2A2,2,0,0,1,77.16,105.63Zm6.69,20.2a2,2,0,1,1,2-2A2,2,0,0,1,83.85,125.83Zm1.66-14.14a2,2,0,1,1-.52-2.8A2,2,0,0,1,85.51,111.7Zm5.1,7.49a2,2,0,1,1,2-2A2,2,0,0,1,90.61,119.19Zm0-13.56a2,2,0,1,1,2-2A2,2,0,0,1,90.61,105.63Zm6.65,6.94a2,2,0,1,1,2-2A2,2,0,0,1,97.27,112.57Z"/></g></g></svg>