<svg xmlns="http://www.w3.org/2000/svg" viewBox="0 0 168.97 137.81"><defs><style>.cls-1,.cls-2{fill:#f16a21;}.cls-2{stroke:#fff;stroke-miterlimit:10;stroke-width:3px;}.cls-3{fill:#fff;}.cls-4{fill:#fafcff;}</style></defs><title>Asset 27</title><g id="Layer_2" data-name="Layer 2"><g id="Layer_1-2" data-name="Layer 1"><rect class="cls-1" width="168.97" height="137.81" rx="12" ry="12"/><rect class="cls-2" x="19.81" y="22.47" width="131.83" height="95.87" rx="12" ry="12"/><circle class="cls-3" cx="17.12" cy="10.52" r="3.79"/><circle class="cls-4" cx="26.99" cy="10.52" r="3.79"/><circle class="cls-4" cx="36.99" cy="10.52" r="3.79"/><path class="cls-3" d="M102,61.47V53s1.56-16.15-16.51-16.44c0,0-15.73.14-15.8,15.3v9.64s-8,.85-8,7.83V93.42s-.07,7.79,6,7.86H103.4s5.46-.64,6.09-8.22l.28-23S109.28,61.68,102,61.47ZM89.23,83.57V94.06H81.86V83.57S77,80.88,77.33,76.35c0,0,1.28-7.36,8.5-7.08,0,0,7.93,0,8.08,7.79C93.9,77.05,93.62,82.3,89.23,83.57Zm4.68-22.1H77.75V50.7s1-6.09,8.08-6.23c0,0,6.45.21,8.08,6.16Z"/></g></g></svg>