<svg xmlns="http://www.w3.org/2000/svg" viewBox="0 0 170.2 145.86"><defs><style>.cls-1{fill:#f16a21;}</style></defs><title>Asset 28</title><g id="Layer_2" data-name="Layer 2"><g id="Layer_1-2" data-name="Layer 1"><path class="cls-1" d="M162.18,46.06c-18.66-18.86-37.73-7.3-37.73-7.3-21.5,10.35-16.33,34.38-16.33,34.38L60.65,119.84a4,4,0,0,0-.72,2.51v19.7c-.08,3.84,2.85,3.8,2.85,3.8H82.56c3.12,0,4.11-3.42,4.11-3.42l-.11-7.26a3.52,3.52,0,0,1,2.85-2.74h7.68c3.16.11,3.58-3.31,3.58-3.31l0-8.52c.15-1.67,2.5-2.74,2.5-2.74l8.93-.05c3.65-.1,3.75-3.85,3.75-3.85l.05-8.22,1.83-2,.86.1h7.3l6.54-6.54c19.47,2.89,29.72-9.69,29.72-9.69C180.23,63.91,162.18,46.06,162.18,46.06Zm-92.4,82-2.64-2.54,41.58-42,2.94,3Z"/><path class="cls-1" d="M131.34,137.24s5.17-.91,5.27-5.58V121.31s.46-2.54-3.3-5.68l-7.25-6.39h-4.72v6s-2.79,8-8.72,8h-6.49v6.34s.2,5.12-6.19,7.66Z"/><path class="cls-1" d="M54.57,137.34V121.52s-.1-2.43,4.26-6.8S88.44,85,88.44,85,85,80.67,86.21,71.77c0,0,5.55-2.74,6.54-12.78,0,0,6.09-5.17,6.85-12.25,0,0-.3-5.55-2.81-6.24,0,0-.76-.13-.05-.89s5.2-4.72,1.24-23.28c0,0-4-11.26-14.2-11.77,0,0-15.82-10.75-35,.71,0,0-11.06,5-10.85,21.81a13,13,0,0,0,2.74,7.1l.61,5.68s-7.1,1.93-2.94,11.46a42.9,42.9,0,0,0,5.17,8.42s.2,6.29,6.69,12.37a23.91,23.91,0,0,1-.41,8.72A21.59,21.59,0,0,1,38.74,92.92S13.49,105.39,0,118.68v13.9s.51,4.67,4.67,4.77Z"/></g></g></svg>