<svg xmlns="http://www.w3.org/2000/svg" viewBox="0 0 145.58 144.97"><defs><style>.cls-1{fill:#f16a21;}</style></defs><title>Asset 29</title><g id="Layer_2" data-name="Layer 2"><g id="Layer_1-2" data-name="Layer 1"><path class="cls-1" d="M9.78,134.84H73.05s2.38,4.1,11.36,9.78H4.62S.18,144.4.31,138.45s0-53.77,0-53.77L0,4.72S.07.1,5.68,0,98.81,0,98.81,0s1.42-.36,6.54,4.85,13.19,13.35,13.19,13.35.88.62.75,3.21,0,45.14,0,45.14l-9.66-2.73,0-38-11.85-.09s-4.43.07-4.54-6.39l0-9.91L9.84,9.74Z"/><path class="cls-1" d="M108.19,70.19a37.39,37.39,0,1,0,37.39,37.39A37.39,37.39,0,0,0,108.19,70.19Zm10.38,33.11a18.43,18.43,0,0,1-5.65,4.28v23l-4.72,2.06-4.06-1.6s-2-1.4-.27-2.93L105.2,127s1.53-1.33.07-2.19l-1.73-1.13s-.93-1.26.27-1.66l1.46-.93s1.13-1.2.13-1.86l-1.53-1.46s-1.8-1,.13-2.13l1.4-1a1.25,1.25,0,0,0,.13-1.66l-2.42-1.8v-3.57A15.94,15.94,0,0,1,97.35,103s-4.59-8.31,0-13.83c0,0,4.26-5.65,10-5.92,0,0,9.78-.47,12.64,7.38A14.36,14.36,0,0,1,118.57,103.3Z"/><circle class="cls-1" cx="108.08" cy="92.46" r="3.98"/><rect class="cls-1" x="15.41" y="14.32" width="25.8" height="6.96" rx="3.48" ry="3.48"/><rect class="cls-1" x="44.39" y="14.32" width="10.22" height="6.96" rx="3.48" ry="3.48"/><rect class="cls-1" x="57.77" y="14.32" width="31.7" height="6.96" rx="3.48" ry="3.48"/><rect class="cls-1" x="15.41" y="23.21" width="47.82" height="6.96" rx="3.48" ry="3.48"/><rect class="cls-1" x="66.3" y="23.21" width="23.18" height="6.96" rx="3.48" ry="3.48"/><rect class="cls-1" x="15.41" y="32.11" width="15.32" height="6.96" rx="3.48" ry="3.48"/><rect class="cls-1" x="33.64" y="32.11" width="26.01" height="6.96" rx="3.48" ry="3.48"/><rect class="cls-1" x="63.23" y="32.11" width="39.63" height="6.96" rx="3.48" ry="3.48"/><rect class="cls-1" x="15.41" y="41" width="87.45" height="6.96" rx="3.48" ry="3.48"/><rect class="cls-1" x="15.41" y="50.6" width="20.7" height="6.96" rx="3.48" ry="3.48"/><rect class="cls-1" x="39.32" y="50.6" width="37.61" height="6.96" rx="3.48" ry="3.48"/><rect class="cls-1" x="79.97" y="50.6" width="22.9" height="6.96" rx="3.48" ry="3.48"/><rect class="cls-1" x="15.41" y="60.2" width="29.68" height="6.96" rx="3.48" ry="3.48"/><rect class="cls-1" x="48.26" y="60.2" width="12.86" height="6.96" rx="3.48" ry="3.48"/><rect class="cls-1" x="65.17" y="60.4" width="16.82" height="6.96" rx="3.48" ry="3.48"/><rect class="cls-1" x="86.48" y="60.4" width="16.38" height="6.96" rx="3.48" ry="3.48"/><rect class="cls-1" x="15.41" y="70.19" width="66.58" height="6.96" rx="3.48" ry="3.48"/><rect class="cls-1" x="15.41" y="80.19" width="75.37" height="6.96" rx="3.48" ry="3.48"/></g></g></svg>