<svg xmlns="http://www.w3.org/2000/svg" viewBox="0 0 179.15 97.67"><defs><style>.cls-1{fill:#f16a21;}</style></defs><title>Asset 30</title><g id="Layer_2" data-name="Layer 2"><g id="Layer_1-2" data-name="Layer 1"><path class="cls-1" d="M177.42,89.74H162.34L162.28,53l-.36-48.21s0-2.2-1.07-3L158.72,0H22a4.1,4.1,0,0,0-3.25,1.16S17.29,2.55,17.2,3.49L16.93,26.6v31L17,89.74H2s-2.36,0-1.91,1.78c0,0,.18,3.38,1.65,4.76l1.74,1.38H175.55s2.55-1.22,3.15-3.44a13,13,0,0,0,.45-3S179.35,89.86,177.42,89.74Zm-24.19-83a.7.7,0,0,1-.3,1s-1.42,1.22-1,2.11a1.07,1.07,0,0,0,1.6.12l1-.68s.68-.59.89,0c0,0,.24.09-.47.77a35.77,35.77,0,0,1-5.61,5.22,8,8,0,0,1-1.87,1.16s-.59-.06.12-1c0,0,1.42-1.25,1.31-1.72a1.13,1.13,0,0,0-1.22-1S146.22,13.8,146.1,14c0,0-.71.24-.8-.18,0,0-.06-.27.33-.71,0,0,6.53-6.06,6.68-6.15S152.93,6.29,153.22,6.77Zm-2.56-.86a18.59,18.59,0,0,1-1.54,1.42c-.38.31-.39.3-.86.68-.86.71-1.46,1.27-1.9,1.69l-3.06,2.89a1.83,1.83,0,0,0-.23.85,1.81,1.81,0,0,0,.1.63l.86,1v.05s.52.34-.34,1l-3.21,2.54a.41.41,0,0,1-.35.06c-.31-.35-.62-.67-.92-1a1.42,1.42,0,0,0-.57-.55,1.21,1.21,0,0,0-.77-.15,1.18,1.18,0,0,0-.69.39l-9.24,6.81a1.51,1.51,0,0,0-.1,2l.44.64c.09.74-2.86,2.73-3.82,3.36a16.76,16.76,0,0,0-1.25-1.31,1.83,1.83,0,0,0-2-.5l-9.72,5.11a1.31,1.31,0,0,0-.64.77,1.34,1.34,0,0,0,.09,1,2,2,0,0,1,0,1.52,1.17,1.17,0,0,1-.18.31,1.65,1.65,0,0,1-.73.45,5.92,5.92,0,0,1-.91.34,2.05,2.05,0,0,1-.83.12c-.74-.14-1-1.42-1.07-1.54a19.37,19.37,0,0,0-6-7.87,20.79,20.79,0,0,0-11.67-4c-7.23,0-14.73,5.27-17.74,12.57h0c-.81,1.45-1.56,1-1.56,1l-1.69-.71c-.62-.18-.32-1.28-.32-1.28h0l.1-.37a2.43,2.43,0,0,0-.1-1.05,2.5,2.5,0,0,0-1-1.26L57.9,29a2.09,2.09,0,0,0-1.91.31l-.65.84h0c-.49.63-.78.25-.78.34s-3.09-2.32-3.09-2.32a1,1,0,0,1-.25-1.3l.06-.09a2,2,0,0,0,.3-1.36,1.82,1.82,0,0,0-.47-.89,58.39,58.39,0,0,0-5.34-4.33c-1.2-1-2.55-1.71-3.8-2.61a1.62,1.62,0,0,0-.83-.33,1.71,1.71,0,0,0-1,.3L39,18.83c-.08.06-.25.11-.57-.25l-3.56-2.92,0-.06c.33-.47.61-.91.84-1.29a1.34,1.34,0,0,0-.25-2.12c-1.93-1.92-4.06-3.9-6.41-5.9l-.46-.39ZM133,25.48c-.62-.58-1.71.19-1.71.19a1.39,1.39,0,0,1-1.6.37c-.45-.33.16-.73.16-.73.32-.5,7.46-5.48,7.46-5.48.6-.51,1-.11,1-.11.24.29-.18.73-.18.73a8.83,8.83,0,0,0-1,1,1.28,1.28,0,0,0-.27,1.63c.27.4,1.09-.07,1.09-.07l.87-.45c.76-.62,1.2-.29,1.2-.29.76.29,0,.8,0,.8-.58.94-6.89,5-6.89,5-1.39,1-1.53.51-1.53.51-.27-.4.8-1.34.8-1.34A1.34,1.34,0,0,0,133,25.48ZM116.14,36.26c-.31-.58-1.47-.31-1.47-.31a5.76,5.76,0,0,0-.91.36.57.57,0,0,1-.8-.21c-.18-.39,1-1.22,1-1.22-.06-.18,6.68-3.56,6.68-3.56,1.1-.53,1.34-.15,1.34-.15.24.27-.36.74-.36.74l-1,1a1.26,1.26,0,0,0-.33,1.22c.5.59,1.34.15,1.34.15l.86-.53c.8-.53,1.13,0,1.13,0,.36.56-.28.92-.28.92C121.62,36,115.17,39,115.17,39a.69.69,0,0,1-.94,0c-.36-.53.45-1,.45-1l.73-.4C116.5,37.11,116.14,36.26,116.14,36.26Zm-10,7.64A16.62,16.62,0,1,1,89.49,27.28,16.62,16.62,0,0,1,106.11,43.9ZM62.68,36.63a2,2,0,0,0,1.22,1.1s1.6,1,.68,1.4c0,0-.77.18-2.49-1l-6.35-3.41s-.95-.77,0-1l1.45.47a1.35,1.35,0,0,0,1.47,0,.68.68,0,0,0,0-1.16,7.3,7.3,0,0,1-1.47-1.34s-.45-.47,0-.59c0,0,.27-.5,4.75,2.14,0,0,2.82,1.45,3.5,1.84,0,0,1.31.89.5,1.22,0,0-.36.12-1.45-.3C64.49,36,62.35,35.71,62.68,36.63ZM45.94,26.54c1.48,1.28,1.63,1.78,1.63,1.78-.15.89-1.48-.15-1.48-.15-.92-.36-6.14-4.35-6.14-4.35-1.36-.92-1.19-1.06-1.19-1.06,0-1.17,1.4-.39,1.4-.39,1.06,1.11,1.83.77,1.83.77,1-.66,0-1.67,0-1.67-1.38-1-1.28-1.35-1.28-1.35-.09-.95,1-.33,1-.33.71.33,6.83,4.85,6.83,4.85,1.35.89,1,1.34,1,1.34-.71.59-1.72-.22-1.72-.22a1.32,1.32,0,0,0-1-.55C45.55,25.28,45.94,26.54,45.94,26.54Zm-22-17.46s.71-.21,1.32.77c0,0,.86.77,1.54.25,0,0,.58-.36.12-1.4a6.83,6.83,0,0,0-1.07-1.25s-.49-.92.27-.92c0,0,.55-.1,1.29,1,0,0,5.76,4.87,5.82,5s1.25,1.16.24,1.51c0,0-.28.27-1.64-1.05a.83.83,0,0,0-1.27.11,1,1,0,0,0,.18,1.4s1.45,1.4,1,2c0,0-.14.58-1.88-1,0,0-5.28-4.65-5.74-5.45C24,10,23.27,9.23,23.89,9.08Zm-1.5,2.57,1.13.94c1.24,1.07,2.37,2.11,4.32,3.63,1.05.82,1.94,1.47,2.54,1.89a1.75,1.75,0,0,0,1.11.53A2.08,2.08,0,0,0,33,17.9l.26-.27a1.24,1.24,0,0,1,1.24.24l2.4,1.91s.8.42.39,1.11l-.42.51a1.86,1.86,0,0,0,.29,2.38c2.43,2,5,4,7.84,6l1.52,1.05a1.54,1.54,0,0,0,1.13.27,1.57,1.57,0,0,0,1.07-.77l.12-.16A1.5,1.5,0,0,1,50.6,30l2.72,1.8c.4.26.39.53.32.69l-.1.16h0a6.25,6.25,0,0,0-.33.59,2.16,2.16,0,0,0-.21.83,2.1,2.1,0,0,0,.24,1,22.07,22.07,0,0,0,4,2.79c.84.46,1.4.69,3,1.42,1.78.82,3.19,1.51,4.09,1.94a1.16,1.16,0,0,0,1,.17A1.14,1.14,0,0,0,66,40.8q.23-.3.45-.63l.12-.19h0a.91.91,0,0,1,1.26-.38l2.09.58c.54.14.73.41.76.69s-.06.35-.09.53a1.81,1.81,0,0,1-.19.34l.14-.08a17.34,17.34,0,0,0-.19,2.25,18.75,18.75,0,0,0,3.73,11.33h0s.51.84-.16,1.32l-1.62,1.38a.66.66,0,0,1-.72-.1l-.12-.12h0a9.14,9.14,0,0,0-1-.81.91.91,0,0,0-.57-.4.93.93,0,0,0-.69.12Q66.76,58,64.25,59.55,61.91,61,59.68,62.4A1.55,1.55,0,0,0,59,64.63l.09.16h0l.09.14a1.14,1.14,0,0,1-.63,1.68l-2.36,1.22s-1.06.64-1.37-.2a3.55,3.55,0,0,0-.21-.41A3,3,0,0,0,54,66.5a2.82,2.82,0,0,0-.73-.49q-1.23.41-2.49.89a67.26,67.26,0,0,0-8.94,4.17,1,1,0,0,0-.55,1.28l.62,1.41c.05.17,0,.66-1.64,1.06l-3,1.1s-.25.16-.77-.8h0l-.44-1a.71.71,0,0,0-.23-.31.93.93,0,0,0-.77-.07q-2.67.7-5.56,1.61c-1.85.59-3.61,1.2-5.27,1.82a3.4,3.4,0,0,1-.44.27c-.22.11-.3.12-.37.22s-.06.11-.09.46c0,.15,0,.28,0,.37a5.2,5.2,0,0,1,0,1.23c-.35,1.21-.5,1.13-.5,1.13-.26.22-.4-.32-.46-.62ZM64.46,64.22c-.18-.88-1.54,0-1.54,0-1.1.77-1.6.56-1.6.56-.62-.39.27-1.13.27-1.13.43-.55,6.83-4.41,6.83-4.41,1.36-.89,1.54-.27,1.54-.27.4.71-1.47,1.65-1.47,1.65-.71.45,0,1.47,0,1.47.47.6,1.6-.36,1.6-.36,1.2-.82,1.38-.6,1.38-.6.58,0,.17.85.17.85-1.07,1.19-7.39,4.93-7.39,4.93-1.42.92-1.75.18-1.75.18-.27-.47,1.1-1.22,1.1-1.22A1.33,1.33,0,0,0,64.46,64.22Zm-17.8,8.62c-.45-.82-1.8,0-1.8,0-1.54.65-1.4-.4-1.4-.4,0-.24,5.61-2.6,7.19-3.3a9.32,9.32,0,0,1,2.16-.76c.87.16.13.87.13.87a10.3,10.3,0,0,1-1.45.76c-1,.42-.29,1.42-.29,1.42.58.78,2-.11,2-.11,1.07-.45,1.27,0,1.27,0,.24.58-.45.91-.45.91l-7.95,3.61c-1.18.56-1.4-.13-1.4-.13-.07-.94,1.74-1.45,1.74-1.45A.84.84,0,0,0,46.66,72.84ZM24.24,84.28a1.84,1.84,0,0,1-1.76-1.34,2.69,2.69,0,0,1,1.7-.43,4.59,4.59,0,0,1,.19.6,5.48,5.48,0,0,1,.11.56c0,.17.05.37.07.61Zm2.2-2.4a1.87,1.87,0,0,1,1.22-.49s1-.36.8-1.25c0,0-.2-.47-1.18-.4a10,10,0,0,1-1.63,0s-1.07-.18-.36-.58A44.77,44.77,0,0,1,33.9,76s2-.27,1,.6c0,0-.24.42-1.58,1a.85.85,0,0,0-.24,1.2,1.1,1.1,0,0,0,1.14.2s1.64-.62,1.9-.11c0,0,.61.79-.72,1.07,0,0-7.35,2.38-8.66,2.87C26.73,82.91,25.5,83.08,26.44,81.88Zm78.31,8.63-1.6,1.84h-27l-1.74-1.6s-.28-.6,0-.79c0,0,0-.27,1.25-.36,0,0,7.39-1,28.59,0,0,0,.18,0,.71.22A.58.58,0,0,1,104.75,90.51ZM28.64,84.28c1.14-.43,2.1-.75,2.86-1l2.57-.84c.95-.3,1.84-.77,2.78-1.09A1.8,1.8,0,0,0,38,80.57a1.3,1.3,0,0,0,.09-.81l0,0s-.64-2.08,1.11-2.62l2.35-.81s1.14-.63,2.07,1.26a1.43,1.43,0,0,0,.82.57,1.48,1.48,0,0,0,1.2-.26L56,73.29a1.46,1.46,0,0,0,.39-1.66l-.12-.29s-.49-1.44.55-1.82l2.92-1.34a1.25,1.25,0,0,1,1.6.41l.06.09a1.84,1.84,0,0,0,1.26,1,1.56,1.56,0,0,0,.71-.06A51.66,51.66,0,0,0,70,65.72c1.33-.91,2.53-1.83,3.62-2.73a1.58,1.58,0,0,0,.45-.92,1.65,1.65,0,0,0-.45-1.28c-.07-.15-.14-.32-.23-.49h0l-.1-.2c-.06-.21,0-.57.55-.95.94-.6,1.89-1.31,1.89-1.31a.51.51,0,0,1,.64,0A18.67,18.67,0,0,0,89.49,63a20.07,20.07,0,0,0,13.1-5,.85.85,0,0,1,1,.14l1.65,1.32a1,1,0,0,1,.35,1.14l-.42.61a1.72,1.72,0,0,0-.19.88,1.82,1.82,0,0,0,.64,1.24c1.34,1,2.82,2.08,4.44,3.13,1.83,1.18,3.6,2.19,5.25,3.06a1.51,1.51,0,0,0,1.07.21,1.57,1.57,0,0,0,1.07-.86l.34-.64s.31-.55,1.07-.15L122,69.73a1.23,1.23,0,0,1,.68,1.35l-.35.82a1.18,1.18,0,0,0,0,.9,1.21,1.21,0,0,0,.63.65c1.65.88,3.49,1.77,5.5,2.62s3.81,1.51,5.55,2.07a1.71,1.71,0,0,0,.8-.2,1.75,1.75,0,0,0,.76-.83l.13-.3c.15-.3.58-.83,1.52-.36l2.36.78a1.71,1.71,0,0,1,1,1l0,.08a5.87,5.87,0,0,0-.12,1.4,1.57,1.57,0,0,0,.18.83,1.34,1.34,0,0,0,.68.53q1.92.82,4,1.6c1.54.59,3,1.12,4.51,1.6ZM109.5,60s-1-.47-.62-.89c0,0,.12-.68,1-.21,0,0,6.76,4.16,7.18,4.63,0,0,.9.8.63,1.16a.61.61,0,0,1-.89.09l-1.07-.71a1,1,0,0,0-1.22,0,.83.83,0,0,0,0,1.37,5.91,5.91,0,0,1,1.22.86s1,.8.53,1.25c0,0-.26.47-2.13-.95l-6.53-4.1s-.86-.42-.47-.86a.89.89,0,0,1,1.13,0,10.4,10.4,0,0,0,1.54.77s1,0,1-1C110.83,61.46,110.77,60.71,109.5,60ZM127.23,70s-1.54-.62-1.42-1.14,1.51,0,1.51,0c1.14.27,7.17,3.14,7.17,3.14a1.07,1.07,0,0,1,.85.8c-.27.8-1.07.36-1.07.36a10,10,0,0,0-1.65-.71c-1,0-1,1.14-1,1.14-.07.33,1.45,1.11,1.45,1.11,1.65.73.94,1.31.94,1.31-.33.22-1.11,0-1.11,0-1.25-.29-7.66-3.56-7.66-3.56-.89-.47-.94-.8-.94-.8-.07-.69.8-.45.8-.45a9.08,9.08,0,0,1,1.09.51c1.14.49,1.53-.16,1.53-.16C128.32,70.66,127.23,70,127.23,70Zm26.45,9.53c0,.36-.91.3-.91.3a11.35,11.35,0,0,0-1.81-.3c-.46-.05-.7.61-.7.61-.24.94,1,1.23,1,1.23s1.11.25,1.35.83-.86.53-.86.53c-1,.12-8.49-2.91-8.49-2.91-1.22-.63-.5-1-.5-1,.31-.27,1.56.16,1.56.16,1.31.37,1.53-.5,1.53-.5.39-.79-1.31-1.26-1.31-1.26s-1-.39-.88-1,1.47,0,1.47,0c1.93.43,7.56,2.61,7.56,2.61C154,79.19,153.68,79.5,153.68,79.5ZM155,84.28h-.69c0-.13.07-.25.09-.35s.06-.31.09-.52c.09-.56.06-.52.09-.65a1.13,1.13,0,0,1,.15-.32l1,.26a1.37,1.37,0,0,1,1,.36A1.84,1.84,0,0,1,155,84.28Zm1.84-4.61c-.37,1.34-.92,1.11-.92,1.11-.22-.08-.35-.5-.44-.93.07-.7.21-1.92-.1-2.25a1,1,0,0,0-.6-.28c-1-.17-1.81-.7-2.74-.94-2.13-.55-6.59-2.5-8.09-2.78a1.14,1.14,0,0,0-.82.08c-.19.12-.25.27-.52.6a6.09,6.09,0,0,1-.5.56l-.35.83a1.69,1.69,0,0,1-.9,0l-3.25-1.25s-.54.18-.27-1.74h0c0-.1,0-.19,0-.27a2,2,0,0,0,0-.67,1.76,1.76,0,0,0-.25-.65,97.21,97.21,0,0,0-9-4l-2.14-.8a1.18,1.18,0,0,0-1.55.62l-.12.29h0l-.24.56c-.21.22-.59.36-1.31,0L119.51,66a1,1,0,0,1-.3-.45l.17-.31a2.25,2.25,0,0,0,.33-.63h0a2.09,2.09,0,0,0,.09-.39,2.23,2.23,0,0,0-.3-1.42c-5-3.2-8.75-5.45-9.62-5.85a1.82,1.82,0,0,0-1.23-.17,1.61,1.61,0,0,0-.76.49l-.41.59c-.2.23-.63.49-1.33,0l-1.62-1.25s-.4-.18.36-1.1h0a15.72,15.72,0,0,0,1.18-1.81,23.92,23.92,0,0,0,2.55-9.8,25.27,25.27,0,0,0-.06-3.68l1.28-.47c.77-.3,1.51-.62,2.2-.94a10.32,10.32,0,0,0,.6,1,3,3,0,0,0,.56.61,2.08,2.08,0,0,0,.83.47,1.83,1.83,0,0,0,1.07-.06c1.53-.65,3.14-1.4,4.81-2.26,1.87-1,3.59-1.94,5.17-2.91a3,3,0,0,0,1.07-2.26c-.16-.24-.4-.62-.65-1.1l0,0a2.21,2.21,0,0,1,.67-.67l2.58-1.65a1.52,1.52,0,0,1,1.78.29,1.74,1.74,0,0,0,1.25.77,1.62,1.62,0,0,0,.92-.21c1.55-1,3.18-2.16,4.87-3.47s3-2.43,4.24-3.59a1.38,1.38,0,0,0,.45-2.08c-.2-.36-.43-.72-.68-1.1h0a.46.46,0,0,1,.24-.39l3-2.35a1,1,0,0,1,1.42-.09h0l.49.59a1.06,1.06,0,0,0,1.48.13,15.28,15.28,0,0,0,1.64-1c1-.71,1.41-1.2,2.73-2.35.67-.58,1-.8,1.57-1.31s1.6-1.35,2.7-2.35Z"/><path class="cls-1" d="M89.17,29.44c-7.65.05-8.59,7.5-8.59,7.5v4.34l3,3.23V47h1.8v-.73a.57.57,0,0,1,.57-.48.73.73,0,0,1,.7.47V47h1.76v-.71a.52.52,0,0,1,.59-.52c.59,0,.64.45.64.45V47h1.84V46.2s.06-.47.7-.48.61.47.61.47V47h1.72V44.64l3.15-3.37V37.17S96.82,29.38,89.17,29.44ZM84.84,40.81a1.73,1.73,0,1,1,1.73-1.73A1.73,1.73,0,0,1,84.84,40.81Zm3.05,1.89S88,41,89.1,41s1.09,1.75,1.09,1.75Zm5.44-1.89a1.73,1.73,0,1,1,1.73-1.73A1.73,1.73,0,0,1,93.33,40.81Z"/><path class="cls-1" d="M100.67,47.05a5.37,5.37,0,0,0,.07-1.1c-.19-1.31-1.77-1.1-1.77-1.1-1.8.24-1.24,2.21-1.24,2.21l-8.61,3.15-8.53-3.12h0L80.36,47a1.4,1.4,0,0,0-1.25-2.07s-1.49-.27-1.68.85A3,3,0,0,0,77.52,47a1.43,1.43,0,0,0-.83,1.51s.06,1.75,1.59,1.39a1.84,1.84,0,0,0,1.46-1l6.53,2.39-3.93,1.44h0s-.2-1.53-2-1.12A1.84,1.84,0,0,0,79.1,53.5a1.26,1.26,0,0,0,.83,1s-.89,1.16.79,2.06A1.72,1.72,0,0,0,83,55.89a3.64,3.64,0,0,0,.38-1.49l5.75-2.11,6,2.19a2.59,2.59,0,0,0,.17,1.58c.61,1.07,2.38.34,2.38.34,1.21-.58.47-1.84.47-1.84A1.71,1.71,0,0,0,99,53.39a1.67,1.67,0,0,0-1.17-1.8,1.74,1.74,0,0,0-2.14,1L92,51.25l6.47-2.37a1.34,1.34,0,0,0,.79,1,1.7,1.7,0,0,0,2.16-.7C102.16,47.36,100.67,47.05,100.67,47.05Z"/></g></g></svg>