<svg xmlns="http://www.w3.org/2000/svg" viewBox="0 0 141.44 141.22"><defs><style>.cls-1{fill:#f16a21;stroke:#f16a21;stroke-miterlimit:10;stroke-width:2px;}</style></defs><title>Asset 38</title><g id="Layer_2" data-name="Layer 2"><g id="Layer_1-2" data-name="Layer 1"><path class="cls-1" d="M51.69,134.72l4.31,3.5s23.92-31.36,17.92-67H68.73S74.26,107.5,51.69,134.72Z"/><path class="cls-1" d="M42.86,133s20-23,18-52.15c0,0-2.43-20.42,8.69-20.62,0,0,11.72-1.51,12.74,11,0,0,4.85,35.93-15.57,66l4.4,2.63s16.22-21,17.23-58c0,0,2.12-28.1-17.23-26.68,0,0-16.52.31-15.72,16,0,0,5.26,34.51-16.17,58Z"/><path class="cls-1" d="M31.14,126.16s6.67-7.28,8.09-11.72l-4-2.83s-4.65,7.88-7.28,10.31Z"/><path class="cls-1" d="M82.48,136.07l4.85,2.83s10-15.9,11.59-31.67L93.46,106S91,123.4,82.48,136.07Z"/><path class="cls-1" d="M38.31,102.81l5.26,1.91A52,52,0,0,0,48,81.89s-2.83-16.31,1.62-21.83c0,0,10.11-19,30.32-11.19l1.35-5.26S62.87,37.28,50.2,50.09a31.86,31.86,0,0,0-8,27.49S43.67,96.65,38.31,102.81Z"/><path class="cls-1" d="M17.73,113l3.91,3.37S33.36,103.32,34.3,84.32c0,0-2.43-22.64,1.75-27l-4.58-2.21S26.35,62.89,29,82.7C29,82.7,30,100.08,17.73,113Z"/><path class="cls-1" d="M9.37,101.3,14,104.73a46.43,46.43,0,0,0,6.87-22S15,52.24,35.25,34.86l-3.5-3.91A54.77,54.77,0,0,0,14.63,71.23S17.46,96.85,9.37,101.3Z"/><path class="cls-1" d="M2,79.47s-2.16-13.61,0-19l4.85.94s-1.75,13.21,0,18.06Z"/><path class="cls-1" d="M41.65,47.73S64.29,18,95,42.05l3.91-3.82s-31-26.68-61.12,6.06Z"/><path class="cls-1" d="M40.43,24.08,43.26,28s24.12-15.63,47.44-3.9l2.21-4.36A54.54,54.54,0,0,0,40.43,24.08Z"/><path class="cls-1" d="M99.87,28s25.88,14.09,23.45,56.74h5.26S134,42.07,102.29,23.87Z"/><path class="cls-1" d="M95.82,93.21h5.26s4.45-33.15-9.5-43.26l-3.17,3.44S99.66,61.68,95.82,93.21Z"/><polygon class="cls-1" points="122.3 96.85 127.86 96.85 124.53 116.36 119.58 115.25 122.3 96.85"/><path class="cls-1" d="M102.34,50l4.3-3.39S117,56.62,115.43,84.72c0,0-1.21,37.73-10.11,46.9l-4.58-2.29S121.06,76.64,102.34,50Z"/><path class="cls-1" d="M9.91,50.63,4.59,48.54S19,1.64,72,1c0,0,26.89-2,52.76,24.8l.4.57L121,29.59S98.64,5.13,71.11,5.88C71.11,5.88,26.89,5.21,9.91,50.63Z"/><path class="cls-1" d="M126.25,37.85l4.65-3.06s8.79,13.65,9.5,28.1l-4.85.81S134.43,47.49,126.25,37.85Z"/></g></g></svg>