<svg xmlns="http://www.w3.org/2000/svg" viewBox="0 0 168.93 145.11"><defs><style>.cls-1,.cls-2{fill:#f16a21;}.cls-2{stroke:#fff;stroke-miterlimit:10;stroke-width:3px;}</style></defs><title>Asset 32</title><g id="Layer_2" data-name="Layer 2"><g id="Layer_1-2" data-name="Layer 1"><rect class="cls-1" x="16.76" width="11.71" height="31.33" rx="5.85" ry="5.85"/><rect class="cls-1" x="52.96" width="11.71" height="31.33" rx="5.85" ry="5.85"/><rect class="cls-1" x="89.61" width="11.71" height="31.33" rx="5.85" ry="5.85"/><rect class="cls-1" x="125.61" width="11.71" height="31.33" rx="5.85" ry="5.85"/><path class="cls-1" d="M148.7,19.08h-9l.22,9.11s-.65,5.42-8.46,5.31c0,0-5.85.65-8.67-4.34l.11-10.08H103.49V29.16s-1,4.34-8.73,4.34c0,0-8.51-.49-8.29-5.15l.11-9.27H67.66l-.11,10s-1.91,4.39-8.73,4.45c0,0-5.14.43-8.23-3.58l.22-10.84H31.29V29.43s-1.57,3.9-8.67,4c0,0-5.91.33-8.35-4l.05-10.35H5s-5-.16-5,5.45V133.46a5.74,5.74,0,0,0,5.92,5.3H148s6.12-.75,6.12-6.6V24.39S153.69,19.19,148.7,19.08Zm-3.36,108.09a4.46,4.46,0,0,1-4.45,4.45H13.4A4.46,4.46,0,0,1,9,127.17V47.59a4.46,4.46,0,0,1,4.45-4.44h127.5a4.46,4.46,0,0,1,4.45,4.44Z"/><rect class="cls-1" x="55.95" y="46.24" width="19.51" height="14.8"/><rect class="cls-1" x="77.73" y="46.24" width="19.51" height="14.8"/><rect class="cls-1" x="99.37" y="46.24" width="19.51" height="14.8"/><rect class="cls-1" x="121" y="46.24" width="19.51" height="14.8"/><rect class="cls-1" x="12.2" y="63.1" width="19.51" height="14.8"/><rect class="cls-1" x="12.2" y="79.36" width="19.51" height="14.8"/><rect class="cls-1" x="12.2" y="96.27" width="19.51" height="14.8"/><rect class="cls-1" x="12.2" y="113.19" width="19.51" height="14.8"/><rect class="cls-1" x="33.98" y="63.1" width="19.51" height="14.8"/><rect class="cls-1" x="33.98" y="79.36" width="19.51" height="14.8"/><rect class="cls-1" x="33.98" y="96.27" width="19.51" height="14.8"/><rect class="cls-1" x="33.98" y="113.19" width="19.51" height="14.8"/><rect class="cls-1" x="55.95" y="63.1" width="19.51" height="14.8"/><rect class="cls-1" x="55.95" y="79.36" width="19.51" height="14.8"/><rect class="cls-1" x="55.95" y="96.27" width="19.51" height="14.8"/><rect class="cls-1" x="55.95" y="113.19" width="19.51" height="14.8"/><rect class="cls-1" x="77.73" y="63.1" width="19.51" height="14.8"/><rect class="cls-1" x="77.73" y="79.36" width="19.51" height="14.8"/><rect class="cls-1" x="77.73" y="96.27" width="19.51" height="14.8"/><rect class="cls-1" x="77.73" y="113.19" width="19.51" height="14.8"/><rect class="cls-1" x="99.37" y="63.1" width="19.51" height="14.8"/><rect class="cls-1" x="99.37" y="79.36" width="19.51" height="14.8"/><rect class="cls-1" x="99.37" y="96.27" width="19.51" height="14.8"/><rect class="cls-1" x="99.37" y="113.19" width="19.51" height="14.8"/><rect class="cls-1" x="121" y="63.1" width="19.51" height="14.8"/><rect class="cls-1" x="121" y="79.36" width="19.51" height="14.8"/><rect class="cls-1" x="121" y="96.27" width="19.51" height="14.8"/><circle class="cls-2" cx="135.84" cy="112.02" r="31.59"/><rect class="cls-1" x="134.33" y="86.95" width="2.55" height="6.15"/><rect class="cls-1" x="118.83" y="93.51" width="2.55" height="6.15" transform="translate(-33.94 101.21) rotate(-40.53)"/><rect class="cls-1" x="149.81" y="124.45" width="2.55" height="6.15" transform="translate(-46.62 128.76) rotate(-40.53)"/><rect class="cls-1" x="134.27" y="130.94" width="2.55" height="6.15"/><rect class="cls-1" x="154.69" y="111.03" width="6.15" height="2.55" transform="matrix(1, -0.01, 0.01, 1, -0.92, 1.3)"/><rect class="cls-1" x="110.84" y="110.59" width="6.15" height="2.55" transform="matrix(1, -0.01, 0.01, 1, -0.92, 0.94)"/><rect class="cls-1" x="116.89" y="126.25" width="6.15" height="2.55" transform="translate(-54.93 135.63) rotate(-49.4)"/><path class="cls-1" d="M152.22,118.24l-11.88-5.09a4.83,4.83,0,0,0-1.11-3.7l11.29-15.72-2.73-2.29-10.91,16s-6.07-1.33-7,4.83c0,0-.66,5.87,5.76,5.65A2.69,2.69,0,0,0,138,116.4l12.47,4.8Z"/></g></g></svg>