<svg xmlns="http://www.w3.org/2000/svg" viewBox="0 0 167 194.25"><defs><style>.cls-1{fill:#f16a21;}.cls-2{fill:#fff;}.cls-2,.cls-3{stroke:#fff;stroke-miterlimit:10;}.cls-3{fill:none;}</style></defs><title>Asset 58</title><g id="Layer_2" data-name="Layer 2"><g id="Layer_1-2" data-name="Layer 1"><path class="cls-1" d="M156.81,57.89H10.19A10.22,10.22,0,0,0,0,68.08V76A10.22,10.22,0,0,0,10.19,86.14H156.81A10.22,10.22,0,0,0,167,76V68.08A10.22,10.22,0,0,0,156.81,57.89ZM17,73.46a3.34,3.34,0,0,1-3.33,3.33H11.3A3.34,3.34,0,0,1,8,73.46V71.08a3.34,3.34,0,0,1,3.33-3.33h2.38A3.34,3.34,0,0,1,17,71.08Zm16,0a3.34,3.34,0,0,1-3.33,3.33H27.31A3.34,3.34,0,0,1,24,73.46V71.08a3.34,3.34,0,0,1,3.33-3.33h2.38A3.34,3.34,0,0,1,33,71.08Zm105.82,6.77a2.17,2.17,0,0,1-2.17,2.17h-1.5A2.17,2.17,0,0,1,133,80.23v-16a2.17,2.17,0,0,1,2.17-2.17h1.5a2.17,2.17,0,0,1,2.17,2.17Zm8.42,0a2.17,2.17,0,0,1-2.17,2.17h-1.5a2.17,2.17,0,0,1-2.17-2.17v-16a2.17,2.17,0,0,1,2.17-2.17h1.5a2.17,2.17,0,0,1,2.17,2.17Zm8.5,0a2.17,2.17,0,0,1-2.17,2.17h-1.5a2.17,2.17,0,0,1-2.17-2.17v-16a2.17,2.17,0,0,1,2.17-2.17h1.5a2.17,2.17,0,0,1,2.17,2.17Z"/><path class="cls-1" d="M156.81,89.39H10.19A10.22,10.22,0,0,0,0,99.58v7.87a10.22,10.22,0,0,0,10.19,10.19H156.81A10.22,10.22,0,0,0,167,107.46V99.58A10.22,10.22,0,0,0,156.81,89.39ZM17,105a3.34,3.34,0,0,1-3.33,3.33H11.3A3.34,3.34,0,0,1,8,105v-2.37a3.34,3.34,0,0,1,3.33-3.33h2.38A3.34,3.34,0,0,1,17,102.58Zm16,0a3.34,3.34,0,0,1-3.33,3.33H27.31A3.34,3.34,0,0,1,24,105v-2.37a3.34,3.34,0,0,1,3.33-3.33h2.38A3.34,3.34,0,0,1,33,102.58Zm105.82,6.77a2.17,2.17,0,0,1-2.17,2.17h-1.5a2.17,2.17,0,0,1-2.17-2.17v-16a2.17,2.17,0,0,1,2.17-2.17h1.5a2.17,2.17,0,0,1,2.17,2.17Zm8.42,0a2.17,2.17,0,0,1-2.17,2.17h-1.5a2.17,2.17,0,0,1-2.17-2.17v-16a2.17,2.17,0,0,1,2.17-2.17h1.5a2.17,2.17,0,0,1,2.17,2.17Zm8.5,0a2.17,2.17,0,0,1-2.17,2.17h-1.5a2.17,2.17,0,0,1-2.17-2.17v-16a2.17,2.17,0,0,1,2.17-2.17h1.5a2.17,2.17,0,0,1,2.17,2.17Z"/><path class="cls-1" d="M6.75,55.14H160.5s-7.62-9.56-15.62-11c0,0,6.38-42.25-40.75-44.12,0,0-22.12-1.5-35,21.5l-.25.47S44,16.39,33.63,43.14A28.83,28.83,0,0,0,6.75,55.14Z"/><rect class="cls-1" x="26.75" y="119.83" width="7.44" height="3.19"/><rect class="cls-1" x="62.63" y="119.83" width="7.44" height="7.44"/><rect class="cls-1" x="99.5" y="119.83" width="7.44" height="4.13"/><rect class="cls-1" x="134.5" y="119.83" width="7.44" height="6.19"/><path class="cls-1" d="M150.67,141.6A12.45,12.45,0,1,0,138.22,154,12.45,12.45,0,0,0,150.67,141.6Zm-21,0a8.53,8.53,0,1,1,8.53,8.53A8.53,8.53,0,0,1,129.69,141.6Z"/><circle class="cls-1" cx="138.22" cy="137.01" r="2.17"/><polygon class="cls-1" points="142.01 155.35 135.93 155.35 135.93 184.28 139.78 184.28 139.78 184.36 147.31 184.36 147.31 180.08 142.01 180.08 142.01 175.29 147.31 175.29 147.31 171.01 142.01 171.01 142.01 155.35"/><path class="cls-1" d="M103.91,126.92a12.26,12.26,0,1,0,12.26,12.26A12.26,12.26,0,0,0,103.91,126.92Zm.69,10.61a3.61,3.61,0,1,1,3.61-3.61A3.61,3.61,0,0,1,104.6,137.52Z"/><circle class="cls-1" cx="104.6" cy="133.91" r="1.84"/><path class="cls-1" d="M102.23,163.15l-.05,1-1.37.71-.16,1.59,2.79,1.81.16,1.23L100.81,171l-.11,2.19,2.63,2.68L100.76,178l-.05,1.37,1.2.66.11,1.09-1.2.57v2.38l3,2.52H105l3.39-3.78-.05-25.34a6.6,6.6,0,0,1,2.52-5.09H97.47Z"/><path class="cls-1" d="M77.48,144.86c-.22-7.45-5.11-13.4-11.14-13.4s-10.93,6-11.14,13.4h0v10H77.5v-10Zm-19.5-1c.84-5.26,4.26-9.21,8.37-9.21s7.52,3.94,8.37,9.21Z"/><ellipse class="cls-1" cx="66.35" cy="139.24" rx="2.54" ry="2.36"/><path class="cls-1" d="M60.84,170.74l2.48,4.61a2.54,2.54,0,0,1-.42,3.43v4.16l3.45,3.71h1.33l1.81-4.44.06-2.3A4.21,4.21,0,0,1,68,177.32c-.6-3.77,3-5.56,3-5.56v-15H60.84Z"/><path class="cls-1" d="M30.47,125.21a12.92,12.92,0,1,0,12.92,12.92A12.92,12.92,0,0,0,30.47,125.21Zm.73,11.17A3.81,3.81,0,1,1,35,132.57,3.81,3.81,0,0,1,31.2,136.38Z"/><circle class="cls-1" cx="31.2" cy="132.57" r="1.93"/><path class="cls-1" d="M29.6,153.59,24.7,151H23.9l-2.59,4.8c2.83-.23,2.54,17.65,2.54,17.65l-.92.12v1.15L25,175l.06,1-2.88,2,.06,3.63.75.17.12,3.34,4.5,2.88,2.71-3.46,1.1-18.86c.69-7.5,4.5-8.82,4.5-8.82l-2-5.25Z"/><line class="cls-2" x1="25.75" y1="194.21" x2="28.17" y2="166.89"/><line class="cls-3" x1="105.63" y1="170.14" x2="105.75" y2="184.89"/></g></g></svg>