<svg xmlns="http://www.w3.org/2000/svg" viewBox="0 0 157.69 160.37"><defs><style>.cls-1,.cls-3,.cls-4{fill:#f16a21;}.cls-2{fill:#fff;}.cls-3,.cls-4{stroke:#fff;stroke-miterlimit:10;}.cls-3{stroke-width:3px;}.cls-4{stroke-width:2px;}</style></defs><title>Asset 34</title><g id="Layer_2" data-name="Layer 2"><g id="Layer_1-2" data-name="Layer 1"><path class="cls-1" d="M135.1,11.73c-1.84-.11-6.61-1-11.91-6.54L117.76,0H63.33L54.94,7.9a19.34,19.34,0,0,1-9.5,3.83H22.72V156.88h135V11.73Zm7.23,130H37.54V26.91H61.85L71.23,37H110l9.87-10.12h22.46Z"/><rect class="cls-2" x="19.14" y="107.51" width="58.26" height="51.84"/><path class="cls-3" d="M54.78,117.33a24.4,24.4,0,0,0-3.5-8.43l2.64-4.74-5-5-4.74,2.64a24.4,24.4,0,0,0-8.43-3.5l-1.48-5.21H27.21l-1.48,5.21a24.4,24.4,0,0,0-8.43,3.5l-4.74-2.64-5,5,2.64,4.74a24.4,24.4,0,0,0-3.5,8.43L1.5,118.81v7.06l5.21,1.48a24.4,24.4,0,0,0,3.5,8.43l-2.64,4.74,5,5,4.74-2.64a24.4,24.4,0,0,0,8.43,3.5l1.48,5.21h7.06l1.48-5.21a24.4,24.4,0,0,0,8.43-3.5l4.74,2.64,5-5-2.64-4.74a24.4,24.4,0,0,0,3.5-8.43L60,125.87v-7.06Zm-24,17.07A12.06,12.06,0,1,1,42.8,122.34,12.06,12.06,0,0,1,30.74,134.4Z"/><path class="cls-4" d="M85.89,144.2a15.07,15.07,0,0,0-.07-5.64l2.6-2.11-1.72-4-3.32.43a15.07,15.07,0,0,0-4-3.94l.35-3.33L75.63,124l-2,2.65a15.07,15.07,0,0,0-5.64.07l-2.11-2.6-4,1.72.43,3.32a15.07,15.07,0,0,0-3.94,4L55,132.84l-1.62,4.05,2.65,2a15.07,15.07,0,0,0,.07,5.64l-2.6,2.11,1.72,4,3.32-.43a15.08,15.08,0,0,0,4,3.94l-.35,3.33,4.05,1.62,2-2.65a15.07,15.07,0,0,0,5.64-.07l2.11,2.6,4-1.72L79.65,154a15.07,15.07,0,0,0,3.94-4l3.33.35,1.62-4.05Zm-17.7,4.28a7.45,7.45,0,1,1,9.68-4.15A7.45,7.45,0,0,1,68.18,148.49Z"/><path class="cls-1" d="M48.84,51.15a19,19,0,0,1,4.29,2.52s4-5.29,9.27-7.92a3.49,3.49,0,0,0,.44,1s-4,2.58-9.09,12.19a45.5,45.5,0,0,0-6.15-6.45Z"/><rect class="cls-1" x="68.76" y="44.8" width="60.97" height="5.18"/><rect class="cls-1" x="68.76" y="53.69" width="45.5" height="5.18"/><path class="cls-1" d="M48.84,71.89a19,19,0,0,1,4.29,2.52s4-5.29,9.27-7.92a3.49,3.49,0,0,0,.44,1s-4,2.58-9.09,12.19a45.5,45.5,0,0,0-6.15-6.45Z"/><rect class="cls-1" x="68.76" y="65.54" width="60.97" height="5.18"/><rect class="cls-1" x="68.76" y="74.43" width="45.5" height="5.18"/><path class="cls-1" d="M48.84,92.62a19,19,0,0,1,4.29,2.52s4-5.29,9.27-7.92a3.49,3.49,0,0,0,.44,1s-4,2.58-9.09,12.19a45.5,45.5,0,0,0-6.15-6.45Z"/><rect class="cls-1" x="68.76" y="86.28" width="60.97" height="5.18"/><rect class="cls-1" x="68.76" y="95.16" width="45.5" height="5.18"/></g></g></svg>