<svg xmlns="http://www.w3.org/2000/svg" viewBox="0 0 138.7 139.08"><defs><style>.cls-1{fill:#f16a21;}.cls-2{fill:#fff;}</style></defs><title>Asset 36</title><g id="Layer_2" data-name="Layer 2"><g id="Layer_1-2" data-name="Layer 1"><rect class="cls-1" x="66.95" y="49.89" width="5.12" height="38.95" rx="2.56" ry="2.56" transform="translate(17.2 -13.74) rotate(12.87)"/><polygon class="cls-1" points="79.56 62.66 79.56 55.66 104.39 66.68 104.39 72.71 79.56 83.47 79.56 76.82 96.78 69.56 79.56 62.66"/><polygon class="cls-1" points="59.27 62.66 59.27 55.66 34.44 66.68 34.44 72.71 59.27 83.47 59.27 76.82 42.04 69.56 59.27 62.66"/><path class="cls-1" d="M69.35,0A69.35,69.35,0,1,0,138.7,69.36,69.35,69.35,0,0,0,69.35,0Zm0,119.16a49.8,49.8,0,1,1,49.8-49.8A49.8,49.8,0,0,1,69.35,119.17Z"/><polygon class="cls-2" points="57.26 128.15 63.82 118.36 69.41 118.82 62.76 128.18 69.29 139.08 64.6 138.86 57.26 128.15"/><polygon class="cls-2" points="80.27 10.04 74.5 0.01 68.89 0 74.77 9.62 67.41 19.67 72.1 19.84 80.27 10.04"/></g></g></svg>