<svg xmlns="http://www.w3.org/2000/svg" viewBox="0 0 919.62 1006.6"><defs><style>.cls-1{fill:#f16a21;}</style></defs><title>Asset 49</title><g id="Layer_2" data-name="Layer 2"><g id="Layer_1-2" data-name="Layer 1"><path class="cls-1" d="M734.18,744H863.92c-18.1,39.29-71.25,141.57-184.32,207.56-143.59,83.79-282,49.6-315.63,40.19-36.43-8-163.62-41-261.44-171.63C11.38,698.33,1.81,566.66.32,524.22c-1.59-47.21.54-157,60.28-272.88C112.43,150.81,182.27,94.81,218.51,69.67,257.94,45.22,344.71-.76,461.61,0,556.4.64,629.19,31.73,668.66,52.43a449.3,449.3,0,0,1,120.56,96.94A492.23,492.23,0,0,1,870.47,277.2l49.14-25.13-51.76,158.7L721.73,348.29l51.76-23.7c-14.34-32.1-56.39-115.22-146.77-168C497.25,80.9,369.81,126.59,347.59,135c-30,12.16-118.48,52.83-180.84,158-69.52,117.22-60,235.95-56.35,268.57C116,598.46,132,672,183.79,744c65,90.48,147.26,123.92,179.53,135,34,8.27,118.23,23.5,214.92-15.8C660.76,829.62,711.43,773,734.18,744Z"/><path class="cls-1" d="M728.93,394.21S719.86,332,651.29,324.8c0,0-51-7.25-82.18,37.91,0,0-19.84,27.73-13.32,66.55L421.48,561.88V622.5s-.21,5.64,6.8,6.06h58.23s10,.21,9.78-9.2l-.43-20.28s0-6.9,8.5-6.9l23,.42s8.5,1,9.35-10l.21-22.16s-.85-7.32,7.65-7.94l23.8-.42s10.84.84,10.63-11.29V520.9s.42-7.53,7.65-7.53l20,.63,18.49-19s22.1,4.39,41.23-.63C666.31,494.35,738.56,475.33,728.93,394.21ZM449.74,580.69l-8.29-8.78,117-115.54,8.5,8.78Zm222.51-182a17,17,0,1,1,17.29-17A17.15,17.15,0,0,1,672.26,398.67Z"/><path class="cls-1" d="M535,605.36h87.35s14.88,2.09,14.66-14.22V560a19.22,19.22,0,0,0-4.68-9.2l-25.93-22.58h-13l.21,16.31s-3.19,22.46-23.17,22.31H550.9l.21,19.71S548.14,604.11,535,605.36Z"/><path class="cls-1" d="M406.17,605.45H268.46S254,604.52,254,592.82v-34.7s-.43-2.93,7.23-9.62c0,0,47.18-43.07,112.64-70.24,0,0,28.05-19.65,22.1-51.85,0,0-14.45-6.27-20.4-34.7,0,0-21.68-24.25-17-37.63,0,0,.85-13.8,12.75-16.31,0,0-4.25-8-1.28-13.39,0,0-20-29.68-3-57.27,0,0,23-43.48,82.88-39.3,0,0,27.63,3.34,36.55,11.71,0,0,33.15,3.34,41.65,33.45,0,0,14,41.39-4.68,65.65,0,0,17,10,3,35.12,0,0-5.1,12.54-11.48,18,0,0-2.13,18.82-18.7,35.54,0,0-4.68,25.92,6.38,35.12l-90.54,87.81s-5.1,4.48-4.68,16.66Z"/><path class="cls-1" d="M633.95,640.54H266.61a70.26,70.26,0,1,0,0,140.53H633.95a70.26,70.26,0,0,0,0-140.53ZM216.34,710.8a50.32,50.32,0,0,1,50.27-50.26h276V761.07h-276A50.32,50.32,0,0,1,216.34,710.8Zm417.6,50.27h-71.3V660.54h71.3a50.26,50.26,0,0,1,0,100.53Z"/><path class="cls-1" d="M627.71,680.65a10,10,0,0,0-15.32,12.85l6.12,7.3H598.56a10,10,0,0,0,0,20H618.5l-6.12,7.3A10,10,0,1,0,627.71,741l19.9-23.73a10,10,0,0,0,0-12.85Z"/><path class="cls-1" d="M299,690.74a10,10,0,0,0-14.14,0L279,696.66,273,690.74a10,10,0,0,0-14.14,14.14l5.92,5.91-5.92,5.92A10,10,0,0,0,273,730.87l5.92-5.92,5.91,5.92A10,10,0,1,0,299,716.72l-5.92-5.92,5.92-5.91A10,10,0,0,0,299,690.74Z"/><path class="cls-1" d="M371.34,690.74a10,10,0,0,0-14.14,0l-5.92,5.92-5.91-5.92a10,10,0,0,0-14.14,14.14l5.92,5.91-5.92,5.92a10,10,0,0,0,14.14,14.14l5.91-5.92,5.92,5.92a10,10,0,1,0,14.14-14.14l-5.92-5.92,5.92-5.91A10,10,0,0,0,371.34,690.74Z"/><path class="cls-1" d="M443.66,690.74a10,10,0,0,0-14.14,0l-5.92,5.92-5.91-5.92a10,10,0,0,0-14.14,14.14l5.92,5.91-5.92,5.92a10,10,0,0,0,14.14,14.14l5.91-5.92,5.92,5.92a10,10,0,1,0,14.14-14.14l-5.92-5.92,5.92-5.91A10,10,0,0,0,443.66,690.74Z"/><path class="cls-1" d="M510.06,710.8l5.92-5.91a10,10,0,0,0-14.14-14.14l-5.92,5.92L490,690.74a10,10,0,0,0-14.14,14.14l5.92,5.91-5.92,5.92A10,10,0,0,0,490,730.87l5.91-5.92,5.92,5.92A10,10,0,1,0,516,716.72Z"/></g></g></svg>