<svg xmlns="http://www.w3.org/2000/svg" viewBox="0 0 244.08 267.17"><defs><style>.cls-1{fill:#f16a21;}</style></defs><title>Asset 31</title><g id="Layer_2" data-name="Layer 2"><g id="Layer_1-2" data-name="Layer 1"><path class="cls-1" d="M194.86,197.46H229.3c-4.81,10.43-18.91,37.58-48.92,55.09-38.11,22.24-74.84,13.17-83.77,10.67-9.67-2.12-43.43-10.88-69.39-45.55C3,185.35.48,150.4.08,139.14c-.42-12.53.14-41.67,16-72.43A132.11,132.11,0,0,1,58,18.49C68.46,12,91.49-.2,122.52,0a120.34,120.34,0,0,1,55,13.91,119.25,119.25,0,0,1,32,25.73A130.65,130.65,0,0,1,231,73.57l13-6.67L230.34,109,191.56,92.44l13.74-6.29c-3.81-8.52-15-30.58-39-44.6-34.37-20.08-68.19-8-74.09-5.72a100,100,0,0,0-48,41.93c-18.45,31.11-15.92,62.62-15,71.28a112.71,112.71,0,0,0,19.48,48.41,98.23,98.23,0,0,0,47.65,35.83,93.2,93.2,0,0,0,57-4.19C175.38,220.2,188.83,205.16,194.86,197.46Z"/><path class="cls-1" d="M208.38,122.27s-3-20.8-25.55-23.22c0,0-16.79-2.42-27,12.68A32.23,32.23,0,0,0,151.41,134l-44.2,44.37v20.28s-.07,1.89,2.24,2h19.16s3.29.07,3.22-3.08l-.14-6.78s0-2.31,2.8-2.31l7.55.14s2.8.35,3.08-3.36l.07-7.41a2.42,2.42,0,0,1,2.52-2.66l7.83-.14s3.57.28,3.5-3.78v-6.64s.14-2.52,2.52-2.52l6.57.21,6.08-6.36s7.27,1.47,13.57-.21C187.77,155.77,211.55,149.4,208.38,122.27Zm-91.88,62.39-2.73-2.94,38.51-38.65,2.8,2.94Zm73.23-60.89a5.69,5.69,0,1,1,5.69-5.69A5.69,5.69,0,0,1,189.73,123.76Z"/><path class="cls-1" d="M144.55,192.91H173.3s4.9.7,4.83-4.76V177.73a6.48,6.48,0,0,0-1.54-3.08l-8.53-7.55h-4.27l.07,5.46s-1,7.51-7.62,7.46H149.8l.07,6.59S148.89,192.49,144.55,192.91Z"/><path class="cls-1" d="M102.17,192.93H56.85s-4.76-.31-4.76-4.23V177.1s-.14-1,2.38-3.22a141.68,141.68,0,0,1,37.07-23.5s9.23-6.57,7.27-17.34c0,0-4.76-2.1-6.71-11.61,0,0-7.13-8.11-5.6-12.59,0,0,.28-4.62,4.2-5.46,0,0-1.4-2.66-.42-4.48,0,0-6.57-9.93-1-19.16,0,0,7.55-14.55,27.28-13.15,0,0,9.09,1.12,12,3.92,0,0,10.91,1.12,13.71,11.19,0,0,4.62,13.85-1.54,22,0,0,5.6,3.36,1,11.75,0,0-1.68,4.2-3.78,6a22.28,22.28,0,0,1-6.15,11.89s-1.54,8.67,2.1,11.75l-29.79,29.37s-1.68,1.5-1.54,5.57Z"/></g></g></svg>