<svg xmlns="http://www.w3.org/2000/svg" viewBox="0 0 243.84 264.58"><title>Asset 122</title><g id="Layer_2" data-name="Layer 2"><g id="Layer_1-2" data-name="Layer 1"><path d="M233.65,60.88s-35.09-76.59-138.93-58c0,0-58.25,11.38-71.64,71.07,0,0-4.7,19.66.36,29,0,0,1.45,8.62-1.81,9L2.83,137.46s-10.13,12.07,8,26.22c0,0,6.51.69,4.7,13.11,0,0-.72,4.83,3.89,19.06l.27,13.71S18,229.23,49.77,236.21c0,0,21.71,1.81,28.22,2.33,0,0,1.63-.26,1.9,7,0,0,2.44,24.06,29.58,18.11l84.39-16.56s12.75-4.14,12.21-16.3c0,0-1.36-53,18.18-73.65C224.25,157.13,261.15,110.9,233.65,60.88Zm-34,103.49c-10.49,19.32-11.49,60.2-11.49,60.2-.54,5.17-4.34,5.17-4.34,5.17l-81.4,14.75c-5.7,1-5-3.62-5-3.62l-.13-5.69c1.09-7-5.16-12.68-5.16-12.68-4.88-6.47-35.28-4.92-35.28-4.92-18.45.52-18.18-11.64-18.18-11.64-.81-6.21-2.17-14.49-2.17-14.49-4.34-6.47-3.8-24.84-3.8-24.84,9.23-11.9-7.06-14.49-7.06-14.49-11.13-.78-6.24-9.57-6.24-9.57a50.21,50.21,0,0,0,19.27-26.39,24.2,24.2,0,0,0,.72-17.34C31,64.33,62.52,37.76,62.52,37.76c81.4-58,144,14.49,144,14.49,33.29,33.81,14.83,74.52,14.83,74.52Z" style="fill:#f06a21"/><path d="M103.6,155,66.09,127.35V114A13.55,13.55,0,0,0,76,101.17c0-7.43-6.32-13.45-14.11-13.45s-14.11,6-14.11,13.45A13.55,13.55,0,0,0,57.67,114v17.27h0L95.17,158.9v29.9a2.12,2.12,0,0,0,2.17,2.07h4.07a2.12,2.12,0,0,0,2.17-2.07V155ZM55.28,101.17a6.61,6.61,0,1,1,6.6,6.29A6.45,6.45,0,0,1,55.28,101.17Z" style="fill:#f06a21"/><path d="M97,100.07v-31A13.6,13.6,0,0,0,107.83,56c0-7.43-6.32-13.45-14.11-13.45S79.61,48.54,79.61,56a13.48,13.48,0,0,0,9,12.52V104h0l20,14.72V188.8a2.12,2.12,0,0,0,2.17,2.07h4.12A2.12,2.12,0,0,0,117,188.8v-74ZM93.72,49.68A6.3,6.3,0,1,1,87.12,56,6.45,6.45,0,0,1,93.72,49.68Z" style="fill:#f06a21"/><path d="M153.05,43.9c0-7.43-6.32-13.45-14.11-13.45s-14.11,6-14.11,13.45a13.55,13.55,0,0,0,9.9,12.85V88.57l-13.67,13,.11.11V188.8a2.12,2.12,0,0,0,2.17,2.07h4.12a2.12,2.12,0,0,0,2.17-2.07v-84l13.51-12.88-.06-.05h.06V56.75A13.55,13.55,0,0,0,153.05,43.9Zm-14.11,6.29a6.3,6.3,0,1,1,6.6-6.29A6.45,6.45,0,0,1,138.94,50.19Z" style="fill:#f06a21"/><path d="M181.27,67.7c0-7.43-6.32-13.45-14.11-13.45s-14.11,6-14.11,13.45A13.55,13.55,0,0,0,163,80.55v20.16l-28.47,27.14h0V188.8a2.12,2.12,0,0,0,2.17,2.07h4.07a2.12,2.12,0,0,0,2.17-2.07V131.19L171.37,104l0,0h0V80.55A13.55,13.55,0,0,0,181.27,67.7ZM167.16,74a6.3,6.3,0,1,1,6.6-6.29A6.45,6.45,0,0,1,167.16,74Z" style="fill:#f06a21"/><path d="M209.49,92.89c0-7.43-6.32-13.45-14.11-13.45s-14.11,6-14.11,13.45a13.55,13.55,0,0,0,9.9,12.85v10l-43.78,41.75h0V188.8a2.12,2.12,0,0,0,2.17,2.07h4.07a2.12,2.12,0,0,0,2.17-2.07v-28l43.81-41.77,0,0h0V105.73A13.55,13.55,0,0,0,209.49,92.89Zm-14.11,6.29a6.3,6.3,0,1,1,6.6-6.29A6.45,6.45,0,0,1,195.38,99.18Z" style="fill:#f06a21"/></g></g></svg>