<svg xmlns="http://www.w3.org/2000/svg" viewBox="0 0 278.7 249.52"><defs><style>.cls-1{fill:#f16a21;}.cls-2{fill:#fff;}</style></defs><title>Asset 36</title><g id="Layer_2" data-name="Layer 2"><g id="Layer_1-2" data-name="Layer 1"><rect class="cls-1" width="218" height="171.58"/><rect class="cls-2" x="9.97" y="7.85" width="198.06" height="155.88"/><circle class="cls-1" cx="171.76" cy="21.2" r="3.44"/><circle class="cls-1" cx="182.73" cy="21.2" r="3.44"/><circle class="cls-1" cx="193.79" cy="21.2" r="3.44"/><rect class="cls-1" x="30.95" y="38.44" width="218" height="171.58"/><rect class="cls-2" x="40.92" y="46.29" width="198.06" height="155.88"/><circle class="cls-1" cx="202.71" cy="59.65" r="3.44"/><circle class="cls-1" cx="213.68" cy="59.65" r="3.44"/><circle class="cls-1" cx="224.74" cy="59.65" r="3.44"/><rect class="cls-1" x="60.69" y="77.94" width="218" height="171.58"/><circle class="cls-2" cx="171.31" cy="162.74" r="19.18"/><path class="cls-2" d="M226.41,162.74c0-1.67-.09-3.33-.23-5l10.92-5.41-3.77-14.3-12.23,1.06a55,55,0,0,0-4.59-7.89l6.4-9.39-10.3-10.62-9.53,6.5a55,55,0,0,0-8.53-5l.55-11.52-14.33-3.67-4.61,10.27c-1.6-.14-3.22-.22-4.85-.22s-3.54.09-5.28.26l-5-10.48L146.65,101l.89,12a55,55,0,0,0-8.13,4.8l-9.72-6.61-10.61,10.3,6.83,10A55,55,0,0,0,121,140.2l-11.61-1-4.19,14.18,11.13,5.5c-.09,1.27-.15,2.56-.15,3.85,0,1.79.09,3.56.26,5.3l-9.93,4.11,2.79,14.52,12.23-.23a55,55,0,0,0,4.78,8.12l-6.57,9,9.93,11L139.93,208a55,55,0,0,0,7.76,4.51l-.88,11.31L161,227.93l5-10.35c1.74.17,3.49.26,5.27.26,1.51,0,3-.08,4.47-.2l4.56,10.61,14.48-3-.41-12.5a55,55,0,0,0,8.43-4.85l9.07,6.59,10.93-10-6.46-10.11a55,55,0,0,0,4.83-8.3l11.84.78L237,172.64l-10.78-5.06C226.33,166,226.41,164.37,226.41,162.74Zm-55.1,41.54a41.54,41.54,0,1,1,41.54-41.54A41.54,41.54,0,0,1,171.31,204.28Z"/><circle class="cls-2" cx="236.49" cy="97.54" r="3.44"/><circle class="cls-2" cx="247.47" cy="97.54" r="3.44"/><circle class="cls-2" cx="258.53" cy="97.54" r="3.44"/></g></g></svg>