<svg xmlns="http://www.w3.org/2000/svg" viewBox="0 0 457.48 387.92"><defs><style>.cls-1,.cls-2{fill:#f16a21;}.cls-2{stroke:#fff;stroke-miterlimit:10;stroke-width:2px;}</style></defs><title>Asset 77</title><g id="Layer_2" data-name="Layer 2"><g id="Layer_1-2" data-name="Layer 1"><path class="cls-1" d="M209.44,136.41A81.24,81.24,0,0,0,137.18,254.8L72.4,341.56h0l7.35,46h.06l.05.31,48.51-7.75h0l11.69-43h0l17.92-.62,12.9-18.89H177v-7.52h16.55v-5.24h5.24V298.2a81.25,81.25,0,1,0,10.66-161.79ZM191.76,301.09h-5.24v6.55H166.59L152,327.43H134.43l-3.09,7.34h0L121.2,372.12l-33.84,5.4L82,343.91l60.2-80.63A81.32,81.32,0,0,0,191.76,297Zm17.69-14.26a69.17,69.17,0,1,1,69.17-69.17A69.17,69.17,0,0,1,209.44,286.84Z"/><path class="cls-2" d="M319.11,313.28V283.83H306.56a57.14,57.14,0,0,0-6.33-14.74L309,260.2l-21-20.64L279,248.64a57.16,57.16,0,0,0-13.74-5.43l-.11-12.68-29.44.26.11,12.67a57.22,57.22,0,0,0-14.09,6l-9-8.85-20.67,21,9,8.88a57.2,57.2,0,0,0-5.55,13.38h-13v29.45h12.81a57.13,57.13,0,0,0,5.9,14.45l-9,9.18,21,20.64,8.82-9a57.11,57.11,0,0,0,14.76,6l.11,12.68,29.44-.26-.11-12.67a57.13,57.13,0,0,0,14-5.92l9.08,8.95,20.67-21-9-8.92a57.14,57.14,0,0,0,5.77-14.24Zm-68,17.17a31.53,31.53,0,1,1,31.53-31.53A31.53,31.53,0,0,1,251.07,330.45Z"/><path class="cls-1" d="M417.66,237.41a20,20,0,0,1-3.89,11.41,4,4,0,0,0,.67,5.77,3.9,3.9,0,0,0,4.83-.81,28.54,28.54,0,0,0,4.36-24.94,30.32,30.32,0,0,0-4.36-9.14,4.14,4.14,0,0,0-5.5,0,4.08,4.08,0,0,0-.81,4.56A20.22,20.22,0,0,1,417.66,237.41Z"/><path class="cls-1" d="M431.48,212.85c-2.12-2.91-5.44-3.22-6.71-2-1,1-1,3.17.1,5.2a36.69,36.69,0,0,1,6.49,23.14,36,36,0,0,1-5.73,17c-1.74,2.06-1.53,4.83-.18,6,1.53,1.39,4.89,1.08,6.58-1.61a44.48,44.48,0,0,0,6.71-21.34A45,45,0,0,0,431.48,212.85Z"/><path class="cls-1" d="M369.48,286.93h21.87l3.76-4.83H366.53Z"/><path class="cls-1" d="M422,271.63c-.52-1.43-1.68-2-3.92-3.46a59.47,59.47,0,0,1-7.49-5.53,16.38,16.38,0,0,1-4.43-8.45V227.91a17.31,17.31,0,0,0-4.7-11.7,17.66,17.66,0,0,0-13.69-5.1h-.1a6.44,6.44,0,1,0-12.69,0h-.09a19,19,0,0,0-14,6.17,18.41,18.41,0,0,0-4.43,11.28V254a19.1,19.1,0,0,1-5.9,9.13c-2.5,2-5.9,4.29-5.9,4.29-2.3,1.53-3.25,2-4,3.22A8.31,8.31,0,0,0,340,277l80.78.26C421.56,276,422.72,273.71,422,271.63Zm-21.44-43.15c-.18.28-.65,1-1.28.88a1.31,1.31,0,0,1-1-1,9.63,9.63,0,0,0-3.29-8,9.45,9.45,0,0,0-7.6-1.83,1.6,1.6,0,0,1-.67-1.55,1.67,1.67,0,0,1,2-1.19,11.43,11.43,0,0,1,7.56,2.07,11.69,11.69,0,0,1,4.6,8.16A3.14,3.14,0,0,1,400.51,228.48Z"/><path class="cls-1" d="M446,92.37H351a11.56,11.56,0,0,0-11.52,11.52v58.3A11.56,11.56,0,0,0,351,173.72h95a11.56,11.56,0,0,0,11.52-11.52V103.9A11.56,11.56,0,0,0,446,92.37Zm3,69.91a4.84,4.84,0,0,1-4.83,4.83h-93a4.84,4.84,0,0,1-4.83-4.83V129H448.94Zm0-53.39H346.23v-4.58a4.84,4.84,0,0,1,4.83-4.83h93a4.84,4.84,0,0,1,4.83,4.83Z"/><rect class="cls-1" x="414.87" y="139.4" width="24.41" height="20.85"/><rect class="cls-1" x="357.16" y="154.4" width="42.71" height="5.85"/><rect class="cls-1" x="357.16" y="148.18" width="42.71" height="2.92"/><path class="cls-1" d="M340,4.16H237.56a4.28,4.28,0,0,0-4.27,4.27V84.58a4.28,4.28,0,0,0,4.27,4.27H340a4.28,4.28,0,0,0,4.27-4.27V8.43A4.28,4.28,0,0,0,340,4.16ZM329,13.9l-36.13,37a5.89,5.89,0,0,1-7.11-.23l-37-36.34Zm-83.77,6,25.85,25a3.63,3.63,0,0,1,0,4.94L245.19,74Zm5.58,57.34L276.24,52.3a15.19,15.19,0,0,0,14.67,7.07c7.19-1,10.69-7.05,11.07-7.73L329,76.58ZM335,74l-25.85-25a3.63,3.63,0,0,1,0-4.94L335,19.9Z"/><polygon class="cls-1" points="0 91.04 22.77 91.04 22.77 68.27 0 91.04"/><path class="cls-1" d="M29.15,66.48q0,14.62.09,29.25H0v67.79H38.18a35,35,0,0,1-9.82-20.46,32.79,32.79,0,0,1-.15-3.87H13.62a1.79,1.79,0,0,1,0-3.57h14.8a35.27,35.27,0,0,1,2.49-9.67H13.62a1.79,1.79,0,1,1,0-3.57H31.92a1.77,1.77,0,0,1,.65.13,36.13,36.13,0,0,1,2.7-4.23,31.24,31.24,0,0,1,5.71-5.8H13.17a1.79,1.79,0,0,1,0-3.57H46.79a29.38,29.38,0,0,1,5.45-2,30.9,30.9,0,0,1,21,2.23q.11-21.32.22-42.64Z"/><path class="cls-1" d="M78.08,134.24a33,33,0,0,0-1.17-9.93,14.25,14.25,0,0,0-5-6.7A14.47,14.47,0,0,0,63,115a15.68,15.68,0,0,0-10.72,4.5,15,15,0,0,0-3.35,5.36c-.21,1.14-.4,2.34-.56,3.59-.26,2-.42,4-.5,5.79h-4.3v26H81.6v-26ZM64.8,146.41v8.14H60v-8.14a4.5,4.5,0,0,1-2.18-3.8,4.58,4.58,0,0,1,9.15,0A4.5,4.5,0,0,1,64.8,146.41Zm8.65-12.17H53.25a10.83,10.83,0,0,1,1-8.26c2.92-4.94,8.75-5.13,9.1-5.13a11.28,11.28,0,0,1,7.76,3.8A11.52,11.52,0,0,1,73.45,134.24Z"/><circle class="cls-1" cx="126.42" cy="42.11" r="9.05"/><path class="cls-1" d="M185.23,8.14H163.52v-5A3.18,3.18,0,0,0,160.35,0H131.63a3.18,3.18,0,0,0-3.17,3.17v5H105.93A10.55,10.55,0,0,0,95.37,18.69V77.19a10.55,10.55,0,0,0,10.55,10.55h79.3a10.55,10.55,0,0,0,10.55-10.55V18.69A10.55,10.55,0,0,0,185.23,8.14Zm2.41,59.4a10.55,10.55,0,0,1-10.55,10.55H114.37a10.55,10.55,0,0,1-10.55-10.55V27.14a10.55,10.55,0,0,1,10.55-10.55h14.1v4.9a3.18,3.18,0,0,0,3.17,3.17h28.72a3.18,3.18,0,0,0,3.17-3.17v-4.9h13.57a10.55,10.55,0,0,1,10.55,10.55Z"/><path class="cls-1" d="M138.56,61.47a15,15,0,0,0-1-3.64A7.62,7.62,0,0,0,135.86,55a6.07,6.07,0,0,0-4.79-1.28h-10.3A6.08,6.08,0,0,0,116,55a7.63,7.63,0,0,0-1.66,2.78,15,15,0,0,0-1,3.64c-.17,1-.32,2.12-.42,3.32a36.88,36.88,0,0,0-.1,3.85l13.16.11,13.16-.11a36.82,36.82,0,0,0-.1-3.85C138.88,63.59,138.74,62.48,138.56,61.47Z"/><path class="cls-1" d="M176.26,39.42H148.89a1.51,1.51,0,1,0,0,3h27.36a1.51,1.51,0,0,0,0-3Z"/><path class="cls-1" d="M176.48,50.5H148.67a1.28,1.28,0,1,0,0,2.56h27.81a1.28,1.28,0,0,0,0-2.56Z"/><rect class="cls-1" x="147.39" y="59.1" width="30.38" height="5.35" rx="1.06" ry="1.06"/><path class="cls-1" d="M221.91,179.05a18.2,18.2,0,1,0,18.2,18.2A18.2,18.2,0,0,0,221.91,179.05Zm0,25.29a7.09,7.09,0,1,1,7.09-7.09A7.09,7.09,0,0,1,221.91,204.34Z"/><rect class="cls-1" x="164.18" y="147.46" width="10.87" height="10.87" transform="translate(-26.98 36.72) rotate(-11.45)"/><rect class="cls-1" x="160.96" y="131.56" width="10.87" height="10.87" transform="translate(-23.89 35.76) rotate(-11.45)"/><rect class="cls-1" x="157.77" y="115.8" width="10.87" height="10.87" transform="translate(-20.82 34.82) rotate(-11.45)"/><rect class="cls-1" x="154.75" y="100.91" width="10.87" height="10.87" transform="translate(-17.92 33.92) rotate(-11.45)"/><rect class="cls-1" x="151.74" y="86.02" width="10.87" height="10.87" transform="translate(-15.03 33.02) rotate(-11.45)"/><rect class="cls-1" x="242.65" y="147.06" width="10.87" height="10.87" transform="translate(82 -86.71) rotate(23.65)"/><rect class="cls-1" x="249.16" y="132.2" width="10.87" height="10.87" transform="translate(76.59 -90.57) rotate(23.65)"/><rect class="cls-1" x="255.61" y="117.47" width="10.87" height="10.87" transform="translate(71.22 -94.39) rotate(23.65)"/><rect class="cls-1" x="261.7" y="103.55" width="10.87" height="10.87" transform="translate(66.15 -98) rotate(23.65)"/><rect class="cls-1" x="267.8" y="89.63" width="10.87" height="10.87" transform="matrix(0.92, 0.4, -0.4, 0.92, 61.08, -101.62)"/><rect class="cls-1" x="139.51" y="172.12" width="10.87" height="10.87" transform="translate(-70.99 254.42) rotate(-70.37)"/><rect class="cls-1" x="124.23" y="166.67" width="10.87" height="10.87" transform="translate(-76 236.41) rotate(-70.37)"/><rect class="cls-1" x="109.09" y="161.27" width="10.87" height="10.87" transform="translate(-80.97 218.56) rotate(-70.37)"/><rect class="cls-1" x="94.78" y="156.16" width="10.87" height="10.87" transform="translate(-85.66 201.69) rotate(-70.37)"/><rect class="cls-1" x="80.47" y="151.06" width="10.87" height="10.87" transform="translate(-90.35 184.83) rotate(-70.37)"/><rect class="cls-1" x="332.1" y="139.72" width="10.87" height="10.87" transform="translate(358.89 511.96) rotate(-116.6)"/><rect class="cls-1" x="317.59" y="146.99" width="10.87" height="10.87" transform="translate(331.39 509.51) rotate(-116.6)"/><rect class="cls-1" x="303.21" y="154.19" width="10.87" height="10.87" transform="translate(304.14 507.08) rotate(-116.6)"/><rect class="cls-1" x="289.63" y="160.99" width="10.87" height="10.87" transform="translate(278.39 504.78) rotate(-116.6)"/><rect class="cls-1" x="276.05" y="167.79" width="10.87" height="10.87" transform="translate(252.64 502.48) rotate(-116.6)"/><rect class="cls-1" x="288.09" y="211.18" width="10.87" height="10.87" transform="translate(574.12 -16.52) rotate(103.85)"/><rect class="cls-1" x="303.84" y="215.06" width="10.87" height="10.87" transform="translate(597.41 -27) rotate(103.85)"/><rect class="cls-1" x="319.46" y="218.91" width="10.87" height="10.87" transform="translate(620.5 -37.39) rotate(103.85)"/><rect class="cls-1" x="334.21" y="222.55" width="10.87" height="10.87" transform="translate(642.31 -47.2) rotate(103.85)"/><rect class="cls-1" x="348.96" y="226.19" width="10.87" height="10.87" transform="translate(664.12 -57.01) rotate(103.85)"/></g></g></svg>