<svg xmlns="http://www.w3.org/2000/svg" viewBox="0 0 706.75 512.13"><defs><style>.cls-1{fill:#f16a21;}</style></defs><title>Asset 74</title><g id="Layer_2" data-name="Layer 2"><g id="Layer_1-2" data-name="Layer 1"><path class="cls-1" d="M706.74,481.6V467.7h-.21V33.78c.39-32.66-43-33.78-43-33.78H42C-2.57.5,0,34.91,0,34.91V472.7H.26v7.95C.26,504,40.1,512.13,40.1,512.13h628C708.25,511.46,706.74,481.6,706.74,481.6ZM329.4,39.91H640.67c11.44.48,20.26,8.81,19.71,18.61-.52,9.14-9,16.44-19.71,16.89H331.41c-11.44.48-21.16-7.08-21.71-16.89S318,40.39,329.4,39.91Zm-85.5,0v0c11.45,0,20.73,8,20.73,17.77s-9.25,17.74-20.69,17.77-20.73-8-20.73-17.77S232.45,39.87,243.9,39.87Zm-88.34,0v0c11.45,0,20.73,8,20.73,17.77s-9.13,17.65-20.49,17.77h-.24c-11.45,0-20.73-8-20.73-17.77S144.11,39.87,155.56,39.87Zm-89.45,0v0c11.45,0,20.73,8,20.73,17.77S77.56,75.4,66.11,75.4s-20.73-8-20.73-17.77S54.65,39.87,66.11,39.87ZM660.5,472.94H291.43L45.7,473V467.7h-.3L45.18,114l615.1.33V472.7h.23v.24ZM594.71,179.18l13.83-10.83a4.61,4.61,0,0,1,6.5-.45l0,0,2.26,2.72a4.89,4.89,0,0,0,6.82.6,70.44,70.44,0,0,0,7.56-4.61c4.61-3.27,6.5-5.53,12.59-10.83,3.09-2.67,4.61-3.69,7.24-6,2.45-2.19,6.75-5.72,11.44-9.92V126a11.63,11.63,0,0,0-11.59-11.59H634.29c-1.88,1.87-3.83,3.67-5.87,5.35-1.75,1.43-1.8,1.38-4,3.13-4,3.27-6.73,5.85-8.76,7.79L601.58,144a8.44,8.44,0,0,0-1.06,3.92,8.34,8.34,0,0,0,.46,2.9l4,4.61v.23s2.4,1.57-1.57,4.61l-14.8,11.71a1.89,1.89,0,0,1-1.61.28c-1.43-1.61-2.86-3.09-4.24-4.61a6.55,6.55,0,0,0-2.63-2.54,5.58,5.58,0,0,0-3.55-.69,5.44,5.44,0,0,0-3.18,1.8l-42.6,31.39a7,7,0,0,0-.46,9.22l2,3c.41,3.41-13.18,12.59-17.61,15.49a77.29,77.29,0,0,0-5.76-6,8.44,8.44,0,0,0-9.22-2.31l-44.81,23.56a6,6,0,0,0-3,3.55,6.18,6.18,0,0,0,.41,4.61,9.22,9.22,0,0,1,0,7,5.39,5.39,0,0,1-.83,1.43,7.61,7.61,0,0,1-3.37,2.07,27.31,27.31,0,0,1-4.2,1.57,9.45,9.45,0,0,1-3.83.55c-3.41-.65-4.61-6.55-4.93-7.1a89.3,89.3,0,0,0-27.66-36.28,95.84,95.84,0,0,0-53.8-18.44c-33.33,0-67.91,24.29-81.78,57.95-3.73,6.68-7.19,4.61-7.19,4.61L257,258.7c-2.86-.83-1.48-5.9-1.48-5.9l.46-1.71a11.2,11.2,0,0,0-.46-4.84,11.53,11.53,0,0,0-4.61-5.81l-43.1-20.7a9.63,9.63,0,0,0-8.81,1.43L196,225c-2.26,2.9-3.6,1.15-3.6,1.57s-14.25-10.7-14.25-10.7a4.61,4.61,0,0,1-1.15-6l.28-.42a9.22,9.22,0,0,0,1.38-6.27,8.39,8.39,0,0,0-2.17-4.1,269.13,269.13,0,0,0-24.62-20c-5.53-4.61-11.76-7.88-17.52-12a7.47,7.47,0,0,0-3.83-1.52A7.88,7.88,0,0,0,126,167l-5.26,5.85c-.37.28-1.15.51-2.63-1.15l-16.41-13.46V158c1.52-2.17,2.81-4.2,3.87-5.95a6.18,6.18,0,0,0-1.15-9.77c-8.9-8.85-18.72-18-29.55-27.2l-.82-.7H56.87a11.51,11.51,0,0,0-2.08.2l-2.64-2.9a4.14,4.14,0,0,0-5.83-.27l-1.22,1.11a4.14,4.14,0,0,0-.27,5.83l1.88,2.07A11.49,11.49,0,0,0,45.28,126v14.57l4.3,3.58c5.72,4.93,10.93,9.73,19.92,16.73,4.84,3.78,8.94,6.78,11.71,8.71A8.07,8.07,0,0,0,86.32,172a9.59,9.59,0,0,0,6.73-3.41l1.2-1.24a5.72,5.72,0,0,1,5.72,1.11L111,177.24s3.69,1.94,1.8,5.12l-1.94,2.35a8.57,8.57,0,0,0,1.34,11c11.2,9.22,23.05,18.44,36.14,27.66l7,4.84a7.1,7.1,0,0,0,5.21,1.24,7.24,7.24,0,0,0,4.93-3.55l.55-.74a6.92,6.92,0,0,1,8.11-.78l12.54,8.3c1.84,1.2,1.8,2.44,1.48,3.18l-.46.74a28.84,28.84,0,0,0-1.52,2.72,10,10,0,0,0-1,3.83,9.68,9.68,0,0,0,1.11,4.61,101.75,101.75,0,0,0,18.44,12.86c3.87,2.12,6.45,3.18,13.83,6.55,8.21,3.78,14.71,7,18.85,8.94a5.35,5.35,0,0,0,4.61.78,5.26,5.26,0,0,0,3.09-2.72q1.06-1.38,2.07-2.9l.55-.88a4.19,4.19,0,0,1,5.64-1.84l.17.09,9.63,2.67c2.49.65,3.37,1.89,3.5,3.18a5.83,5.83,0,0,1-.41,2.44,8.34,8.34,0,0,1-.88,1.57l.65-.37a80,80,0,0,0-.88,10.37,86.44,86.44,0,0,0,17.2,52.23s2.35,3.87-.74,6.09l-7.47,6.36a3,3,0,0,1-3.32-.46l-.55-.55a42.12,42.12,0,0,0-4.61-3.73,4.19,4.19,0,0,0-2.63-1.84,4.29,4.29,0,0,0-3.18.55q-11.25,6.32-22.82,13.46-10.79,6.68-21.07,13.14A7.15,7.15,0,0,0,212.91,384l.41.74.41.65a5.26,5.26,0,0,1-2.9,7.74L200,398.75s-4.89,3-6.32-.92a16.37,16.37,0,0,0-1-1.89,13.83,13.83,0,0,0-2.81-3.32,13,13,0,0,0-3.37-2.26q-5.67,1.89-11.48,4.1a310.07,310.07,0,0,0-41.21,19.22,4.61,4.61,0,0,0-2.54,5.9l2.86,6.5c.23.78,0,3-7.56,4.89L112.74,436s-1.15.74-3.55-3.69l-2-4.61a3.27,3.27,0,0,0-1.06-1.43,4.29,4.29,0,0,0-3.55-.32q-12.31,3.23-25.63,7.42-12.79,4.08-24.29,8.39a15.67,15.67,0,0,1-2,1.24c-1,.51-1.38.55-1.71,1s-.28.51-.41,2.12v1.71a24,24,0,0,1,0,5.67c-1.61,5.58-2.31,5.21-2.31,5.21a.68.68,0,0,1-.89.11v2.91a11.49,11.49,0,0,0,1.4,5.51,12.39,12.39,0,0,1,5.71-.88,21.16,21.16,0,0,1,.88,2.77,25.24,25.24,0,0,1,.51,2.58,8.6,8.6,0,0,0,.12,1.21,11.48,11.48,0,0,0,3,.4H76.19c3.85-1.4,7.19-2.51,9.95-3.41L98,466.1c4.38-1.38,8.48-3.55,12.82-5a8.3,8.3,0,0,0,5.3-3.6,6,6,0,0,0,.41-3.73s-3-9.59,5.12-12.08l10.83-3.73s5.26-2.9,9.54,5.81a6.59,6.59,0,0,0,3.78,2.63,6.82,6.82,0,0,0,5.53-1.2l47.76-21.25a6.73,6.73,0,0,0,1.8-7.65l-.55-1.34s-2.26-6.64,2.54-8.39l13.46-6.18a5.76,5.76,0,0,1,7.38,1.89l.28.41a8.48,8.48,0,0,0,5.81,4.61,7.19,7.19,0,0,0,3.27-.28,238.17,238.17,0,0,0,30.56-18c6.13-4.2,11.66-8.44,16.69-12.59a7.28,7.28,0,0,0,2.07-4.24,7.61,7.61,0,0,0-2.07-5.9c-.32-.69-.65-1.48-1.06-2.26l-.46-.92c-.28-1,0-2.63,2.54-4.38,4.33-2.77,8.71-6,8.71-6a2.35,2.35,0,0,1,3,0,86.07,86.07,0,0,0,60.48,23.79,92.52,92.52,0,0,0,60.39-23.05,3.92,3.92,0,0,1,4.61.65l7.61,6.09a4.61,4.61,0,0,1,1.61,5.26l-1.94,2.81a7.93,7.93,0,0,0-.88,4.06,8.39,8.39,0,0,0,3,5.72c6.18,4.61,13,9.59,20.47,14.43,8.44,5.44,16.6,10.1,24.2,14.11a7,7,0,0,0,4.93,1,7.24,7.24,0,0,0,4.93-4l1.57-3s1.43-2.54,4.93-.69l14.48,7.61a5.67,5.67,0,0,1,3.13,6.22l-1.61,3.78a5.44,5.44,0,0,0,0,4.15,5.58,5.58,0,0,0,2.9,3c7.61,4.06,16.09,8.16,25.36,12.08s17.56,7,25.59,9.54a7.88,7.88,0,0,0,3.69-.92,8.07,8.07,0,0,0,3.5-3.83l.6-1.38c.69-1.38,2.67-3.83,7-1.66l10.88,3.6A7.88,7.88,0,0,1,589,446.7v.37a27.06,27.06,0,0,0-.55,6.45,7.24,7.24,0,0,0,.83,3.83,6.18,6.18,0,0,0,3.13,2.44q8.85,3.78,18.44,7.38c5.9,2.26,11.56,4.32,17.29,6.23H651.4a11.65,11.65,0,0,0,1.21-.06,2.85,2.85,0,0,0,.1-.35c.09-.46.28-1.43.41-2.4.41-2.58.28-2.4.41-3a5.21,5.21,0,0,1,.69-1.48l4.61,1.2a6.32,6.32,0,0,1,2.52.38A11.48,11.48,0,0,0,663,461.8V456c-1.56,3.19-3.28,2.48-3.28,2.48-1-.37-1.61-2.3-2-4.29.32-3.23,1-8.85-.46-10.37a4.61,4.61,0,0,0-2.77-1.29c-4.61-.78-8.34-3.23-12.63-4.33-9.82-2.54-30.38-11.53-37.3-12.82a5.26,5.26,0,0,0-3.78.37c-.88.55-1.15,1.24-2.4,2.77a28.09,28.09,0,0,1-2.31,2.58l-1.61,3.83a7.79,7.79,0,0,1-4.15,0l-15-5.76s-2.49.83-1.24-8v-1.24a9.22,9.22,0,0,0,0-3.09,8.11,8.11,0,0,0-1.15-3,448.14,448.14,0,0,0-41.49-18.44l-9.87-3.69a5.44,5.44,0,0,0-7.14,2.85h0l-.55,1.34-1.11,2.58c-1,1-2.72,1.66-6,0l-14.84-8.11a4.61,4.61,0,0,1-1.38-2.07l.78-1.43a10.37,10.37,0,0,0,1.52-2.9,9.64,9.64,0,0,0,.41-1.8,10.28,10.28,0,0,0-1.38-6.55c-23.05-14.75-40.34-25.12-44.35-27a8.39,8.39,0,0,0-5.67-.78,7.42,7.42,0,0,0-3.5,2.26l-1.89,2.72c-.92,1.06-2.9,2.26-6.13,0L422.81,347s-1.84-.83,1.66-5.07a72.49,72.49,0,0,0,5.44-8.34,110.27,110.27,0,0,0,11.76-45.18,116.51,116.51,0,0,0-.28-17l5.9-2.17c3.55-1.38,7-2.86,10.14-4.33a47.54,47.54,0,0,0,2.77,4.61,13.83,13.83,0,0,0,2.58,2.81,9.59,9.59,0,0,0,3.83,2.17,8.44,8.44,0,0,0,4.93-.28c7.05-3,14.48-6.45,22.17-10.42,8.62-4.61,16.55-8.94,23.83-13.42A13.83,13.83,0,0,0,522.48,240a55.07,55.07,0,0,1-3-5.07,10.19,10.19,0,0,1,3.09-3.09l11.89-7.61a7,7,0,0,1,8.21,1.34,8,8,0,0,0,5.76,3.55,7.47,7.47,0,0,0,4.24-1c7.15-4.61,14.66-10,22.45-16S589,201,594.67,195.63a6.36,6.36,0,0,0,2.07-9.59c-.92-1.66-2-3.32-3.13-5.07A2.12,2.12,0,0,1,594.71,179.18Zm17.56-31.69s30.1-27.94,30.79-28.35,2.86-3.09,4.2-.88l0-.14a3.23,3.23,0,0,1-1.06,4.44l-.32.17s-6.55,5.62-4.61,9.73a4.93,4.93,0,0,0,7.38.55l4.61-3.13s3.13-2.72,4.1,0c0,0,1.11.42-2.17,3.55a164.9,164.9,0,0,1-25.86,24.06,36.88,36.88,0,0,1-8.62,5.35s-2.72-.28.55-4.61c0,0,6.55-5.76,6-7.93a5.21,5.21,0,0,0-5.62-4.61s-6.73,5-7.28,5.9c0,0-3.27,1.11-3.69-.83C610.76,150.77,610.48,149.52,612.28,147.49ZM95.22,151.78s-1.29,1.24-7.56-4.84a3.83,3.83,0,0,0-5.85.51,4.61,4.61,0,0,0,.83,6.45s6.68,6.45,4.61,9.22c0,0-.65,2.67-8.67-4.61,0,0-24.34-21.44-26.46-25.12-.55-.23-3.92-3.78-1.06-4.47h.23s3.27-1,6.09,3.55c0,0,4,3.55,7.1,1.15,0,0,2.67-1.66.55-6.45a31.48,31.48,0,0,0-4.79-5.63l-.16-.18c-.2-.4-2.05-4.2,1.27-4.2,0,0,2.54-.46,5.95,4.61,0,0,26.55,22.45,26.83,23.05S99.88,150.17,95.22,151.78Zm74.08,55c-3.27,2.72-7.93-1-7.93-1a6.09,6.09,0,0,0-4.61-2.54c-5.85.32-4.06,6.13-4.06,6.13,6.82,5.9,7.51,8.21,7.51,8.21-.69,4.1-6.82-.69-6.82-.69-4.24-1.66-28.31-20.05-28.31-20.05-6.27-4.24-5.49-4.89-5.49-4.89,0-5.39,6.45-1.8,6.45-1.8,4.89,5.12,8.44,3.55,8.44,3.55,4.61-3,0-7.7,0-7.7-6.36-4.61-5.9-6.22-5.9-6.22-.41-4.38,4.61-1.52,4.61-1.52,3.27,1.52,31.49,22.36,31.49,22.36C170.92,204.75,169.3,206.82,169.3,206.82Zm75.6,47.58s-1.66.55-6.68-1.38c0,0-9.87-1.34-8.34,2.9A9.22,9.22,0,0,0,235.5,261s7.38,4.61,3.13,6.45c0,0-3.55.83-11.48-4.61l-29.27-15.72s-4.38-3.55,0-4.61l6.68,2.17a6.22,6.22,0,0,0,6.78,0,3.13,3.13,0,0,0,0-5.35,33.65,33.65,0,0,1-6.78-6.18s-2.07-2.17,0-2.72c0,0,1.24-2.3,21.9,9.87,0,0,13,6.68,16.14,8.48C242.6,248.77,248.64,252.88,244.91,254.4ZM104.12,455.67s-33.88,11-39.92,13.23c0,.37-5.72,1.15-1.38-4.38a8.62,8.62,0,0,1,5.62-2.26s4.61-1.66,3.69-5.76c0,0-.92-2.17-5.44-1.84a46.08,46.08,0,0,1-7.51,0s-4.93-.83-1.66-2.67A206.41,206.41,0,0,1,97.2,437.42s9.22-1.24,4.61,2.77c0,0-1.11,1.94-7.28,4.61a3.92,3.92,0,0,0-1.19,5.41l.08.12a5.07,5.07,0,0,0,5.26.92s7.56-2.86,8.76-.51C107.44,450.74,110.25,454.38,104.12,455.67ZM190,420,153.3,436.68c-5.44,2.58-6.45-.6-6.45-.6-.32-4.33,8-6.68,8-6.68a3.87,3.87,0,0,0,1.15-6.55c-2.07-3.78-8.3,0-8.3,0-7.1,3-6.45-1.84-6.45-1.84,0-1.11,25.86-12,33.15-15.21a43,43,0,0,1,10-3.5c4,.74.6,4,.6,4a47.48,47.48,0,0,1-6.68,3.5c-4.61,1.94-1.34,6.55-1.34,6.55,2.67,3.6,9.22-.51,9.22-.51,4.93-2.07,5.85,0,5.85,0C193.14,418.51,190,420,190,420Zm81.23-47.25c-4.93,5.49-34.07,22.73-34.07,22.73-6.55,4.24-8.07.83-8.07.83-1.24-2.17,5.07-5.62,5.07-5.62a6.13,6.13,0,0,0,4-7.61c-.83-4.06-7.1,0-7.1,0-5.07,3.55-7.38,2.58-7.38,2.58-2.86-1.8,1.24-5.21,1.24-5.21,2-2.54,31.49-20.33,31.49-20.33,6.27-4.1,7.1-1.24,7.1-1.24,1.84,3.27-6.78,7.61-6.78,7.61-3.27,2.07,0,6.78,0,6.78,2.17,2.77,7.38-1.66,7.38-1.66,5.53-3.78,6.36-2.77,6.36-2.77C273.07,368.87,271.18,372.78,271.18,372.78ZM599,450.42c1.43-1.24,7.19.74,7.19.74,6,1.71,7.05-2.31,7.05-2.31,1.8-3.64-6-5.81-6-5.81s-4.61-1.8-4.06-4.61,6.78,0,6.78,0c8.9,2,34.85,12,34.85,12,6,1.66,4.56,3.09,4.56,3.09v.14c0,1.66-4.2,1.38-4.2,1.38a52.31,52.31,0,0,0-8.34-1.38c-2.12-.23-3.23,2.81-3.23,2.81-1.11,4.33,4.61,5.67,4.61,5.67s5.12,1.15,6.22,3.83-4,2.44-4,2.44C635.88,469,601.35,455,601.35,455,595.73,452.12,599,450.42,599,450.42Zm-81.41-35.13a41.87,41.87,0,0,1,5,2.35c5.26,2.26,7.05-.74,7.05-.74,2.77-4.1-2.26-7.15-2.26-7.15s-7.1-2.86-6.55-5.26,7,0,7,0c5.26,1.24,33.05,14.48,33.05,14.48a4.93,4.93,0,0,1,3.92,3.69c-1.24,3.69-4.93,1.66-4.93,1.66a46.08,46.08,0,0,0-7.61-3.27c-4.61,0-4.61,5.26-4.61,5.26-.32,1.52,6.68,5.12,6.68,5.12,7.61,3.37,4.33,6,4.33,6-1.52,1-5.12,0-5.12,0-5.76-1.34-35.31-16.41-35.31-16.41-4.1-2.17-4.33-3.69-4.33-3.69C513.62,414.18,517.63,415.29,517.63,415.29Zm-82.84-44.07a4.1,4.1,0,0,1,5.21,0,47.93,47.93,0,0,0,7.1,3.55s4.61,0,4.61-4.61c.14.23-.14-3.23-6-6.5,0,0-4.61-2.17-2.86-4.1,0,0,.55-3.13,4.61-1,0,0,31.16,19.18,33.1,21.34,0,0,4.15,3.69,2.9,5.35a2.81,2.81,0,0,1-3.94.55l-.16-.13-4.93-3.27a4.61,4.61,0,0,0-5.62,0,3.83,3.83,0,0,0,0,6.32,27.26,27.26,0,0,1,5.62,4s4.61,3.69,2.44,5.76c0,0-1.2,2.17-9.82-4.38L437,375.18S433,373.24,434.79,371.22Zm-81.18-5.16a76.62,76.62,0,1,1,76.48-76.62h.14A76.62,76.62,0,0,1,353.61,366.05ZM509.52,246.88c-7.93,6.13-37.66,20-37.66,20a3.18,3.18,0,0,1-4.33,0c-1.66-2.44,2.07-4.61,2.07-4.61l3.37-1.84c5-2.26,3.37-6.18,3.37-6.18-1.43-2.67-6.78-1.43-6.78-1.43a26.53,26.53,0,0,0-4.2,1.66,2.63,2.63,0,0,1-3.62-.85l-.07-.12c-.83-1.8,4.61-5.62,4.61-5.62-.28-.83,30.79-16.41,30.79-16.41,5.07-2.44,6.18-.69,6.18-.69,1.11,1.24-1.66,3.41-1.66,3.41L497,238.77a5.81,5.81,0,0,0-1.52,5.62c2.3,2.72,6.18.69,6.18.69l4-2.44c3.69-2.44,5.21,0,5.21,0C512.47,245.22,509.52,246.88,509.52,246.88Zm76.9-53.48c-2.67,4.33-31.76,23.05-31.76,23.05-6.41,4.61-7.05,2.35-7.05,2.35-1.24-1.84,3.69-6.18,3.69-6.18a6.18,6.18,0,0,0,2.77-8.11c-2.86-2.67-7.88.88-7.88.88a6.41,6.41,0,0,1-7.38,1.71c-2.07-1.52.74-3.37.74-3.37,1.48-2.3,34.39-25.26,34.39-25.26,2.77-2.35,4.61-.51,4.61-.51,1.11,1.34-.83,3.37-.83,3.37a40.72,40.72,0,0,0-4.61,4.61,5.9,5.9,0,0,0-1.24,7.51c1.24,1.84,5-.32,5-.32l4-2.07c3.5-2.86,5.53-1.34,5.53-1.34C589.92,191.06,586.42,193.41,586.42,193.41ZM406.15,280.8a14.16,14.16,0,0,0-7.82-3.91h-6.61V254.23a39,39,0,0,0-9-24.07c-11.13-13.13-27.15-13.38-30.44-13.35-2.8,0-18.23.49-29.56,13.22a40.11,40.11,0,0,0-9.85,24.08V276.9h-6.24a13.17,13.17,0,0,0-11.93,11.33v12.12h48.36c0-4.47,4.17-8.09,9.32-8.09s9.32,3.62,9.32,8.09h48.42V288.62A14.16,14.16,0,0,0,406.15,280.8Zm-81.91-3.91V258.37a30.18,30.18,0,0,1,5.71-19.27,29.41,29.41,0,0,1,37.58-7.19,26.93,26.93,0,0,1,7.86,7.11c5.75,7.9,5.15,16.75,4.86,19.45V276.9Zm80,26.55H302.5a11.82,11.82,0,0,0-11.78,11.78v11a11.82,11.82,0,0,0,11.78,11.78H404.25A11.82,11.82,0,0,0,416,326.27v-11A11.82,11.82,0,0,0,404.25,303.44Zm8.07,23.77a7,7,0,0,1-7,7H301.66a7,7,0,0,1-7-7V314.29a7,7,0,0,1,7-7H405.34a7,7,0,0,1,7,7Zm-95.91-8.37h-3.11l2.24-2.15a.63.63,0,0,0,0-.89l-1.36-1.42a.63.63,0,0,0-.89,0l-2.42,2.31v-3.35a.63.63,0,0,0-.63-.63h-2a.63.63,0,0,0-.63.63v3.23l-2.28-2.28a.63.63,0,0,0-.89,0l-1.39,1.39a.63.63,0,0,0,0,.89l2.28,2.28h-3.23a.63.63,0,0,0-.63.63v2a.63.63,0,0,0,.63.63h3.11L303,324.21a.63.63,0,0,0,0,.89l1.36,1.42a.63.63,0,0,0,.89,0l2.42-2.31v3.35a.63.63,0,0,0,.63.63h2a.63.63,0,0,0,.63-.63v-3.23l2.28,2.28a.63.63,0,0,0,.89,0l1.39-1.39a.63.63,0,0,0,0-.89l-2.28-2.28h3.23a.63.63,0,0,0,.63-.63v-2A.63.63,0,0,0,316.42,318.83Zm22.93,0h-3.11l2.24-2.15a.63.63,0,0,0,0-.89l-1.36-1.42a.63.63,0,0,0-.89,0l-2.42,2.31v-3.35a.63.63,0,0,0-.63-.63h-2a.63.63,0,0,0-.63.63v3.23l-2.28-2.28a.63.63,0,0,0-.89,0L326,315.66a.63.63,0,0,0,0,.89l2.28,2.28h-3.23a.63.63,0,0,0-.63.63v2a.63.63,0,0,0,.63.63h3.11l-2.24,2.15a.63.63,0,0,0,0,.89l1.36,1.42a.63.63,0,0,0,.89,0l2.42-2.31v3.35a.63.63,0,0,0,.63.63h2a.63.63,0,0,0,.63-.63v-3.23l2.28,2.28a.63.63,0,0,0,.89,0l1.39-1.39a.63.63,0,0,0,0-.89l-2.28-2.28h3.23a.63.63,0,0,0,.63-.63v-2A.63.63,0,0,0,339.34,318.83Zm22.94,0h-3.11l2.24-2.15a.63.63,0,0,0,0-.89l-1.36-1.42a.63.63,0,0,0-.89,0l-2.42,2.31v-3.35a.63.63,0,0,0-.63-.63h-2a.63.63,0,0,0-.63.63v3.23l-2.28-2.28a.63.63,0,0,0-.89,0L349,315.66a.63.63,0,0,0,0,.89l2.28,2.28H348a.63.63,0,0,0-.63.63v2a.63.63,0,0,0,.63.63h3.11l-2.24,2.15a.63.63,0,0,0,0,.89l1.36,1.42a.63.63,0,0,0,.89,0l2.42-2.31v3.35a.63.63,0,0,0,.63.63h2a.63.63,0,0,0,.63-.63v-3.23l2.28,2.28a.63.63,0,0,0,.89,0l1.39-1.39a.63.63,0,0,0,0-.89l-2.28-2.28h3.23a.63.63,0,0,0,.63-.63v-2A.63.63,0,0,0,362.29,318.83Zm23,0h-3.11l2.24-2.15a.63.63,0,0,0,0-.89L383,314.37a.63.63,0,0,0-.89,0l-2.42,2.31v-3.35a.63.63,0,0,0-.63-.63h-2a.63.63,0,0,0-.63.63v3.23l-2.28-2.28a.63.63,0,0,0-.89,0l-1.39,1.39a.63.63,0,0,0,0,.89l2.28,2.28H371a.63.63,0,0,0-.63.63v2a.63.63,0,0,0,.63.63h3.11l-2.24,2.15a.63.63,0,0,0,0,.89l1.36,1.42a.63.63,0,0,0,.89,0l2.42-2.31v3.35a.63.63,0,0,0,.63.63h2a.63.63,0,0,0,.63-.63v-3.23l2.28,2.28a.63.63,0,0,0,.89,0l1.39-1.39a.63.63,0,0,0,0-.89L382,322.07h3.23a.63.63,0,0,0,.63-.63v-2A.63.63,0,0,0,385.25,318.83Zm19,11.2h-10.2a1.44,1.44,0,0,1-1.44-1.44v-.25a1.44,1.44,0,0,1,1.44-1.44h10.2a1.44,1.44,0,0,1,1.44,1.44v.25A1.44,1.44,0,0,1,404.28,330Z"/></g></g></svg>