<svg xmlns="http://www.w3.org/2000/svg" viewBox="0 0 706.5 608.15"><defs><style>.cls-1{fill:#f16a21;}</style></defs><title>Asset 68</title><g id="Layer_2" data-name="Layer 2"><g id="Layer_1-2" data-name="Layer 1"><g id="Layer_2-2" data-name="Layer 2"><g id="Layer_1-2-2" data-name="Layer 1-2"><path class="cls-1" d="M552.76,269.94s-6.51-44.6-55.71-49.8c0,0-36.6-5.2-59,27.2,0,0-14.23,19.9-9.56,47.75l-96.38,95.16v43.5S332,437.8,337,438.1h41.78s7.17.15,7-6.6l-.3-14.55s0-5,6.1-5l16.47.3s6.1.75,6.71-7.2l.15-15.9s-.61-5.25,5.49-5.7l17.08-.3s7.78.6,7.62-8.1V360.85s.3-5.4,5.49-5.4l14.33.45,13.27-13.65s15.86,3.15,29.58-.45C507.83,341.8,559.68,328.14,552.76,269.94ZM352.43,403.75l-5.95-6.3,84-82.91,6.1,6.3ZM512.1,273.14a12.2,12.2,0,1,1,12.4-12.2A12.3,12.3,0,0,1,512.1,273.14Z"/><path class="cls-1" d="M413.58,421.45h62.68s10.67,1.5,10.52-10.2V388.9a13.79,13.79,0,0,0-3.36-6.6l-18.6-16.2h-9.3l.15,11.7s-2.29,16.11-16.62,16H425l.15,14.14S423,420.55,413.58,421.45Z"/><path class="cls-1" d="M321.17,421.51H222.35S212,420.85,212,412.45v-24.9s-.3-2.1,5.18-6.9c0,0,33.85-30.9,80.82-50.4,0,0,20.13-14.1,15.86-37.2,0,0-10.37-4.5-14.64-24.9,0,0-15.55-17.4-12.2-27,0,0,.61-9.9,9.15-11.7,0,0-3-5.71-.91-9.61,0,0-14.33-21.29-2.13-41.1,0,0,16.47-31.2,59.47-28.2,0,0,19.82,2.4,26.23,8.4,0,0,23.79,2.4,29.89,24,0,0,10.06,29.7-3.35,47.1,0,0,12.2,7.2,2.13,25.2,0,0-3.66,9-8.23,12.9,0,0-1.52,13.5-13.42,25.5,0,0-3.35,18.6,4.57,25.2l-65,63s-3.66,3.21-3.35,12Z"/><path class="cls-1" d="M484.61,446.7H221a50.42,50.42,0,1,0,0,100.84H484.61a50.42,50.42,0,0,0,0-100.84ZM185,497.11A36.11,36.11,0,0,1,221,461H419.09v72.13H221A36.11,36.11,0,0,1,185,497.11Zm299.65,36.07H433.44V461h51.16a36.07,36.07,0,0,1,0,72.13Z"/><path class="cls-1" d="M489.13,475.48a7.18,7.18,0,0,0-11,9.22l4.39,5.24H468.22a7.18,7.18,0,0,0,0,14.35h14.31l-4.39,5.24a7.18,7.18,0,1,0,11,9.22l14.28-17a7.18,7.18,0,0,0,0-9.22Z"/><path class="cls-1" d="M253.28,482.72a7.18,7.18,0,0,0-10.15,0L238.89,487l-4.24-4.25a7.18,7.18,0,1,0-10.15,10.15l4.25,4.24-4.25,4.25a7.18,7.18,0,0,0,10.15,10.15l4.25-4.25,4.24,4.25a7.18,7.18,0,1,0,10.15-10.15L249,497.11l4.25-4.24A7.18,7.18,0,0,0,253.28,482.72Z"/><path class="cls-1" d="M305.17,482.72a7.18,7.18,0,0,0-10.15,0L290.78,487l-4.24-4.25a7.18,7.18,0,1,0-10.15,10.15l4.25,4.24-4.25,4.25a7.18,7.18,0,0,0,10.15,10.15l4.24-4.25,4.25,4.25a7.18,7.18,0,1,0,10.15-10.15l-4.25-4.25,4.25-4.24A7.18,7.18,0,0,0,305.17,482.72Z"/><path class="cls-1" d="M357.07,482.72a7.18,7.18,0,0,0-10.15,0L342.67,487l-4.24-4.25a7.18,7.18,0,0,0-10.15,10.15l4.25,4.24-4.25,4.25a7.18,7.18,0,0,0,10.15,10.15l4.24-4.25,4.25,4.25a7.18,7.18,0,1,0,10.15-10.15l-4.25-4.25,4.25-4.24A7.18,7.18,0,0,0,357.07,482.72Z"/><path class="cls-1" d="M404.72,497.11l4.25-4.24a7.18,7.18,0,1,0-10.15-10.15L394.57,487l-4.24-4.25a7.18,7.18,0,0,0-10.15,10.15l4.25,4.24-4.25,4.25a7.18,7.18,0,0,0,10.15,10.15l4.24-4.25,4.25,4.25A7.18,7.18,0,1,0,409,501.36Z"/><path class="cls-1" d="M706.5,550.53V92.41h0V33.78c.39-32.66-43-33.78-43-33.78H41.93C-2.6.5,0,34.91,0,34.91V576.62C0,600,39.84,608.1,39.84,608.1H291.17v0H667.84c40.15-.67,38.64-30.53,38.64-30.53V550.53ZM329.37,39.91q1,0,2,0H640.64c11.44.48,20.26,8.81,19.71,18.61-.52,9.14-9,16.44-19.71,16.89H331.38c-11.44.48-21.16-7.08-21.71-16.89S317.93,40.39,329.37,39.91Zm-85.5,0c11.45,0,20.73,8,20.73,17.77s-9.25,17.74-20.69,17.77h0c-11.45,0-20.73-8-20.73-17.77S232.42,39.87,243.87,39.87Zm-88.34,0c11.45,0,20.73,8,20.73,17.77s-9.13,17.65-20.49,17.77h-.24c-11.45,0-20.73-8-20.73-17.77S144.08,39.87,155.53,39.87Zm-89.46,0c11.45,0,20.73,8,20.73,17.77S77.53,75.4,66.08,75.4s-20.73-8-20.73-17.77S54.62,39.87,66.08,39.87Zm594.17,529H291.17L45.44,569l-.29-455,615.1.33V568.82Z"/></g></g></g></g></svg>