<svg xmlns="http://www.w3.org/2000/svg" viewBox="0 0 451.85 424.47"><defs><style>.cls-1{fill:#f16a21;}</style></defs><title>Asset 34</title><g id="Layer_2" data-name="Layer 2"><g id="Layer_1-2" data-name="Layer 1"><path class="cls-1" d="M19,369H32.48V388H9.94S0,387.28,0,376.91V10.22S-1,0,12.19,0H212.37S176.6,11.42,169.69,19.54H19.41Z"/><path class="cls-1" d="M57,41.48S45.86,39.37,46.16,53.8l.08,363.68s-1.06,6.76,5.33,7l280.28-.23s5,.9,4.73-5V304.89L318,286.29l.11,123.53H65.39V60L127.61,60s8.79-15.54,15.1-18.59Z"/><path class="cls-1" d="M123.7,262.09H94.55s-6.16-.38-6.16,4.58c0,0-.23,5.18,5.18,5h73.94s-11-6.71-12.4-9.56Z"/><rect class="cls-1" x="88.38" y="298.76" width="206.04" height="9.32" rx="4.66" ry="4.66"/><rect class="cls-1" x="88.35" y="336.18" width="206.04" height="9.32" rx="4.66" ry="4.66"/><rect class="cls-1" x="88.38" y="373.6" width="206.04" height="9.32" rx="4.66" ry="4.66"/><path class="cls-1" d="M251.15,98.37a47.46,47.46,0,1,0,47.46,47.46A47.46,47.46,0,0,0,251.15,98.37Zm0,86.14a38.67,38.67,0,1,1,38.67-38.67A38.67,38.67,0,0,1,251.15,184.51Z"/><path class="cls-1" d="M442,290.19l-62-62a27.7,27.7,0,0,0-10.55-6.61,139.23,139.23,0,1,0-45,43.47,27.25,27.25,0,0,0,6.79,11.28L392.87,338A34.83,34.83,0,0,0,442,338h0A33.92,33.92,0,0,0,442,290.19ZM132.16,145.66a120.5,120.5,0,1,1,207.76,83.1l-4.16,4.16a120.5,120.5,0,0,1-203.6-87.26Z"/><rect class="cls-1" x="150.3" y="141.27" width="42.83" height="9.77"/><rect class="cls-1" x="185.99" y="75.49" width="42.83" height="9.77" transform="translate(157.87 -136.47) rotate(55.95)"/><path class="cls-1" d="M184.08,71.23a104.71,104.71,0,0,0-32.24,60.53h9a85.26,85.26,0,0,1,28.29-52.41Z"/><path class="cls-1" d="M206.85,56l5.52,7.78c5.34-2.56,36.59-17,72.14-3.16,28.73,11.15,42.38,33.78,46.1,40.46L338.72,97c-4-7.09-20-33.36-53.76-45.42C246.2,37.77,213,53,206.85,56Z"/><path class="cls-1" d="M246.41,236.92v9.47c-8.16-.57-42.38-3.87-69-32.46a103.49,103.49,0,0,1-26.07-53.88h9.77a93.41,93.41,0,0,0,27.13,51.4C211.51,233.75,238.88,236.43,246.41,236.92Z"/><path class="cls-1" d="M255.5,203.22v43.17c5.25-.14,50.46-2.09,78.3-40.8,20.69-28.77,24-67,8.87-100l-37.87,18.94c.67,1.72,11.64,31.43-7.36,56.39C282.22,200.92,259.15,203,255.5,203.22Z"/></g></g></svg>