<svg xmlns="http://www.w3.org/2000/svg" viewBox="0 0 172.04 136.85"><defs><style>.cls-1{fill:#f16a21;}</style></defs><title>Asset 79</title><g id="Layer_2" data-name="Layer 2"><g id="Layer_1-2" data-name="Layer 1"><path class="cls-1" d="M113.12,25a2,2,0,0,0-.49-1.25,2.28,2.28,0,0,0-1.34-.68c-1-.19-3.46-.55-6.83-1a22.46,22.46,0,0,0-1.16-2.63L107,14.37a2,2,0,0,0,.58-1.39,2,2,0,0,0-.49-1.25L101,5.4a2,2,0,0,0-1.23-.54,2.28,2.28,0,0,0-1.43.46c-.84.57-2.85,2.05-5.53,4.13A22.38,22.38,0,0,0,90,8.38L89,2.1A2,2,0,0,0,88.44.71,2,2,0,0,0,87.21.17L78.44,0a2,2,0,0,0-1.25.49,2.28,2.28,0,0,0-.68,1.34c-.19,1-.56,3.48-1,6.87a22.45,22.45,0,0,0-2.59,1.13l-5.1-3.72a2,2,0,0,0-1.39-.59A2,2,0,0,0,65.2,6l-6.36,6a2,2,0,0,0-.54,1.23,2.28,2.28,0,0,0,.46,1.43c.56.84,2,2.86,4.11,5.54a22.39,22.39,0,0,0-1.14,2.92l-6.23,1a2,2,0,0,0-1.39.58A2,2,0,0,0,53.56,26l-.15,8.77A2,2,0,0,0,53.9,36a2.28,2.28,0,0,0,1.34.68c1,.19,3.46.55,6.83,1a22.46,22.46,0,0,0,1.16,2.63l-3.69,5.12A2,2,0,0,0,59,46.82a2,2,0,0,0,.49,1.25l6.07,6.33a2,2,0,0,0,1.23.54,2.28,2.28,0,0,0,1.43-.46c.84-.57,2.85-2.05,5.53-4.13a22.41,22.41,0,0,0,2.81,1.09l1,6.19A2,2,0,0,0,78.11,59a2,2,0,0,0,1.23.54l8.77.17a2,2,0,0,0,1.25-.49A2.28,2.28,0,0,0,90,57.9c.19-1,.55-3.44,1-6.79A22.47,22.47,0,0,0,93.59,50l5.1,3.72a2,2,0,0,0,1.39.59,2,2,0,0,0,1.25-.48l6.36-6a2,2,0,0,0,.54-1.23,2.28,2.28,0,0,0-.46-1.43c-.56-.84-2-2.86-4.11-5.54a22.39,22.39,0,0,0,1.14-2.92l6.23-1a2,2,0,0,0,1.39-.58,2,2,0,0,0,.54-1.23ZM83,41.49A11.59,11.59,0,1,1,94.85,30.13,11.59,11.59,0,0,1,83,41.49Z"/><path class="cls-1" d="M48.31,32V27.36H24.88a3.88,3.88,0,0,0-2.11,1,3.23,3.23,0,0,0-.91,1.55V72.66A6.85,6.85,0,0,0,16.94,79c0,3.74,3.35,6.78,7.49,6.78s7.49-3,7.49-6.78a6.86,6.86,0,0,0-5-6.38V32Z"/><path class="cls-1" d="M152.31,92.88H87.37V86.31c3.82-.81,6.64-3.62,6.64-7s-2.82-6.18-6.64-7V63.05H82.25v9.46c-3.47,1-6,3.66-6,6.82s2.5,5.84,6,6.82v6.74h-64a5.19,5.19,0,0,0-2.83,1,3.54,3.54,0,0,0-1.29,2,2.88,2.88,0,0,0,0,1.19v7.38a.79.79,0,0,0,.26.56,1.2,1.2,0,0,0,.68.3h3.18a1.2,1.2,0,0,0,.71-.25.77.77,0,0,0,.29-.66V97.06h63v7.37a.75.75,0,0,0,.24.59,1.23,1.23,0,0,0,.86.29h3.14a1,1,0,0,0,.62-.18.68.68,0,0,0,.27-.69q0-3.69,0-7.38h64.94l0,7.34a.87.87,0,0,0,.34.65,1.31,1.31,0,0,0,.72.26h2.92a1.21,1.21,0,0,0,.89-.23.73.73,0,0,0,.27-.67V95.33a2.37,2.37,0,0,0-.75-1.53,3.82,3.82,0,0,0-2.5-.92Z"/><path class="cls-1" d="M119,32V27.36h23.43a3.88,3.88,0,0,1,2.11,1,3.23,3.23,0,0,1,.91,1.55V72.66A6.85,6.85,0,0,1,150.36,79c0,3.74-3.35,6.78-7.49,6.78s-7.49-3-7.49-6.78a6.86,6.86,0,0,1,5-6.38V32Z"/><circle class="cls-1" cx="154.84" cy="117.59" r="4.48"/><path class="cls-1" d="M150.52,122.37a5.85,5.85,0,0,0,4.32,1.87,5.29,5.29,0,0,0,4.48-1.87A8.64,8.64,0,0,1,162,125.6a8.29,8.29,0,0,1,.6,1.7,2.22,2.22,0,0,1,0,1.18,3,3,0,0,1-1.71,1.62,5.2,5.2,0,0,1-2.56.53h-6.93a6.63,6.63,0,0,1-2.66-.51,2.87,2.87,0,0,1-1.55-1.11,2.43,2.43,0,0,1-.28-1.57,8.81,8.81,0,0,1,3.58-5.06Z"/><path class="cls-1" d="M165.63,102.76h-5.76a3.74,3.74,0,0,1,.08.76c0,2.4-2.29,4.35-5.11,4.35s-5.11-1.95-5.11-4.35a3.74,3.74,0,0,1,.08-.76H144a6.42,6.42,0,0,0-6.41,6.41v21a6.42,6.42,0,0,0,6.41,6.41h21.59a6.42,6.42,0,0,0,6.41-6.41v-21A6.42,6.42,0,0,0,165.63,102.76Zm3.16,27.15a3.45,3.45,0,0,1-3.44,3.44h-21a3.45,3.45,0,0,1-3.44-3.44V109.3a3.45,3.45,0,0,1,3.44-3.44h2.75c.42,2.81,3.74,5,7.78,5s7.36-2.19,7.78-5h2.67a3.45,3.45,0,0,1,3.44,3.44Z"/><circle class="cls-1" cx="85" cy="117.67" r="4.53"/><path class="cls-1" d="M80.63,122.5A5.91,5.91,0,0,0,85,124.39a5.35,5.35,0,0,0,4.53-1.89,8.73,8.73,0,0,1,2.75,3.25,8.38,8.38,0,0,1,.61,1.72,2.24,2.24,0,0,1,0,1.19,3,3,0,0,1-1.73,1.63,5.26,5.26,0,0,1-2.59.54h-7a6.7,6.7,0,0,1-2.68-.51,2.9,2.9,0,0,1-1.56-1.12,2.45,2.45,0,0,1-.28-1.59,8.9,8.9,0,0,1,3.62-5.11Z"/><path class="cls-1" d="M95.9,102.68H90.08a3.78,3.78,0,0,1,.08.76c0,2.43-2.31,4.4-5.16,4.4s-5.16-2-5.16-4.4a3.78,3.78,0,0,1,.08-.76H74.09a6.49,6.49,0,0,0-6.47,6.47v21.23a6.49,6.49,0,0,0,6.47,6.47H95.9a6.49,6.49,0,0,0,6.47-6.47V109.15A6.49,6.49,0,0,0,95.9,102.68Zm3.19,27.42a3.49,3.49,0,0,1-3.48,3.48H74.43a3.49,3.49,0,0,1-3.48-3.48V109.29a3.49,3.49,0,0,1,3.48-3.48H77.2c.42,2.84,3.78,5.06,7.86,5.06s7.43-2.21,7.86-5.06h2.7a3.49,3.49,0,0,1,3.48,3.48Z"/><circle class="cls-1" cx="16.7" cy="117.34" r="4.35"/><path class="cls-1" d="M12.51,122a5.68,5.68,0,0,0,4.19,1.82A5.14,5.14,0,0,0,21.05,122a8.39,8.39,0,0,1,2.65,3.13,8.05,8.05,0,0,1,.58,1.65,2.16,2.16,0,0,1,0,1.14,2.86,2.86,0,0,1-1.66,1.57,5.05,5.05,0,0,1-2.49.52H13.38a6.44,6.44,0,0,1-2.58-.49,2.79,2.79,0,0,1-1.5-1.08A2.36,2.36,0,0,1,9,126.9,8.55,8.55,0,0,1,12.51,122Z"/><path class="cls-1" d="M27.18,102.94H21.59a3.63,3.63,0,0,1,.08.74c0,2.33-2.22,4.23-5,4.23s-5-1.89-5-4.23a3.63,3.63,0,0,1,.08-.74H6.22A6.24,6.24,0,0,0,0,109.16v20.4a6.24,6.24,0,0,0,6.22,6.22h21a6.24,6.24,0,0,0,6.22-6.22v-20.4A6.24,6.24,0,0,0,27.18,102.94Zm3.07,26.36a3.35,3.35,0,0,1-3.34,3.34H6.54A3.35,3.35,0,0,1,3.2,129.3v-20a3.35,3.35,0,0,1,3.34-3.34H9.21c.41,2.73,3.63,4.86,7.55,4.86s7.15-2.13,7.55-4.86h2.59a3.35,3.35,0,0,1,3.34,3.34Z"/></g></g></svg>