<svg xmlns="http://www.w3.org/2000/svg" viewBox="0 0 233.67 165.56"><defs><style>.cls-1{fill:#f16a21;}</style></defs><title>Asset 71</title><g id="Layer_2" data-name="Layer 2"><g id="Layer_1-2" data-name="Layer 1"><path class="cls-1" d="M233.67,147.84V0H0V147.84H108.53v5.07c-25,.49-44,3.12-44,6.28,0,3.52,23.49,6.37,52.46,6.37s52.46-2.85,52.46-6.37c0-3.24-19.91-5.91-45.68-6.31v-5ZM13.84,131.23V13.29H220.93V131.23Z"/><rect class="cls-1" x="135.02" y="31.56" width="75.58" height="3.88"/><rect class="cls-1" x="135.02" y="42.64" width="70.88" height="3.88"/><rect class="cls-1" x="135.02" y="53.85" width="79.73" height="3.88"/><rect class="cls-1" x="135.02" y="65.06" width="75.58" height="3.88"/><rect class="cls-1" x="135.02" y="76" width="68.8" height="3.88"/><rect class="cls-1" x="135.02" y="87.07" width="70.88" height="3.88"/><rect class="cls-1" x="135.02" y="98.15" width="66.03" height="3.88"/><rect class="cls-1" x="135.02" y="109.22" width="75.58" height="3.88"/><polygon class="cls-1" points="121.5 52.19 131.74 40.77 121.5 29.35 121.5 52.19"/><path class="cls-1" d="M110,34.16h-83c-14.91,0,0,19.87,0,19.87l35.86,53.58c6,8,13,0,13,0L110,56C125.35,35,110,34.16,110,34.16ZM68.92,95.3a6.7,6.7,0,1,1,6.7-6.7A6.7,6.7,0,0,1,68.92,95.3Zm7.83-34.14L74.37,71.74c-3.89,12.53-9.94,0-9.94,0L61.63,61.59c-2.81-10.15-1.94-16-1.94-16,8.43-9.51,17.07-.86,17.07-.86C80.2,48,76.75,61.16,76.75,61.16Z"/></g></g></svg>