<svg xmlns="http://www.w3.org/2000/svg" viewBox="0 0 198.64 240.59"><defs><style>.cls-1{fill:#f16a21;}</style></defs><title>Asset 26</title><g id="Layer_2" data-name="Layer 2"><g id="Layer_1-2" data-name="Layer 1"><path class="cls-1" d="M100.08,0S57,33,0,28.61V139.79s1.14,31.15,20.51,50c0,0,36.84,40.56,76,50.7,0,0,16,3.26,52.79-24.63,0,0,44.82-30.42,49.38-67.36V28.61S150.78,34.77,100.08,0Zm81.47,143.54c-3.74,30.3-40.5,55.25-40.5,55.25-30.22,22.87-43.3,20.2-43.3,20.2-32.09-8.32-62.31-41.59-62.31-41.59-15.89-15.45-16.82-41-16.82-41V45.21c46.73,3.56,82.09-23.47,82.09-23.47,41.59,28.52,80.85,23.47,80.85,23.47Z"/><path class="cls-1" d="M158.57,82s-18.42-40.2-72.92-30.42c0,0-30.57,6-37.6,37.3,0,0-2.47,10.32.19,15.21,0,0,.76,4.53-.95,4.71l-9.88,13.4s-5.32,6.34,4.18,13.76c0,0,3.42.36,2.47,6.88,0,0-.38,2.54,2,10l.14,7.2s-.85,10.32,15.81,14c0,0,11.39,1,14.81,1.22,0,0,.85-.14,1,3.67,0,0,1.28,12.63,15.52,9.51l44.3-8.69s6.69-2.17,6.41-8.56c0,0-.71-27.8,9.54-38.66C153.63,132.55,173,108.28,158.57,82Zm-17.85,54.32c-5.51,10.14-6,31.6-6,31.6-.28,2.72-2.28,2.72-2.28,2.72l-42.73,7.74c-3,.54-2.64-1.9-2.64-1.9l-.07-3c.57-3.67-2.71-6.65-2.71-6.65-2.56-3.4-18.52-2.58-18.52-2.58-9.69.27-9.54-6.11-9.54-6.11-.43-3.26-1.14-7.61-1.14-7.61-2.28-3.4-2-13-2-13,4.84-6.25-3.7-7.61-3.7-7.61-5.84-.41-3.28-5-3.28-5A26.35,26.35,0,0,0,56.21,111a12.7,12.7,0,0,0,.38-9.1C52.22,83.84,68.75,69.9,68.75,69.9c42.73-30.42,75.58,7.61,75.58,7.61,17.47,17.75,7.79,39.11,7.79,39.11Z"/><path class="cls-1" d="M90.31,131.42l-19.69-14.5v-7a7.11,7.11,0,0,0,5.2-6.74,7.41,7.41,0,0,0-14.81,0,7.11,7.11,0,0,0,5.2,6.74V119h0l19.68,14.49v15.69A1.11,1.11,0,0,0,87,150.26h2.14a1.11,1.11,0,0,0,1.14-1.09V131.43ZM64.94,103.18a3.47,3.47,0,1,1,3.47,3.3A3.39,3.39,0,0,1,64.94,103.18Z"/><path class="cls-1" d="M86.83,102.6V86.32a7.14,7.14,0,0,0,5.69-6.86,7.41,7.41,0,0,0-14.81,0A7.08,7.08,0,0,0,82.42,86v18.64h0l10.49,7.72v36.78a1.11,1.11,0,0,0,1.14,1.09h2.16a1.11,1.11,0,0,0,1.14-1.09V110.34ZM85.12,76.15a3.31,3.31,0,1,1-3.47,3.3A3.39,3.39,0,0,1,85.12,76.15Z"/><path class="cls-1" d="M116.26,73.12a7.41,7.41,0,0,0-14.81,0,7.11,7.11,0,0,0,5.2,6.74v16.7l-7.18,6.84.06.06v45.71a1.11,1.11,0,0,0,1.14,1.09h2.16a1.11,1.11,0,0,0,1.14-1.09v-44.1l7.09-6.76,0,0h0V79.86A7.11,7.11,0,0,0,116.26,73.12Zm-7.41,3.3a3.31,3.31,0,1,1,3.47-3.3A3.39,3.39,0,0,1,108.86,76.42Z"/><path class="cls-1" d="M131.08,85.61a7.41,7.41,0,0,0-14.81,0,7.11,7.11,0,0,0,5.2,6.74v10.58l-14.94,14.25h0v32a1.11,1.11,0,0,0,1.14,1.09h2.14a1.11,1.11,0,0,0,1.14-1.09V118.93l14.95-14.25,0,0h0V92.35A7.11,7.11,0,0,0,131.08,85.61Zm-7.41,3.3a3.31,3.31,0,1,1,3.47-3.3A3.39,3.39,0,0,1,123.67,88.92Z"/><path class="cls-1" d="M145.89,98.83a7.41,7.41,0,0,0-14.81,0,7.11,7.11,0,0,0,5.2,6.74v5.25l-23,21.91h0v16.44a1.11,1.11,0,0,0,1.14,1.09h2.14a1.11,1.11,0,0,0,1.14-1.09V134.49l23-21.93,0,0h0v-7A7.11,7.11,0,0,0,145.89,98.83Zm-7.41,3.3a3.31,3.31,0,1,1,3.47-3.3A3.39,3.39,0,0,1,138.48,102.13Z"/></g></g></svg>