<svg xmlns="http://www.w3.org/2000/svg" viewBox="0 0 461.19 321.38"><defs><style>.cls-1,.cls-2{fill:#f16a21;}.cls-2{stroke:#fff;stroke-miterlimit:10;stroke-width:5px;}.cls-3{fill:#ef9122;}.cls-4{fill:#fff;}</style></defs><title>Asset 38</title><g id="Layer_2" data-name="Layer 2"><g id="Layer_1-2" data-name="Layer 1"><path class="cls-1" d="M417.58,222.21H244.17a9.53,9.53,0,0,0-9.5,9.5v78a9.53,9.53,0,0,0,9.5,9.5H417.58a9.53,9.53,0,0,0,9.5-9.5v-78A9.53,9.53,0,0,0,417.58,222.21Zm-.5,88.17H244.92v-78.5H417.08Z"/><path class="cls-1" d="M183.52,52.79H10.1a9.53,9.53,0,0,0-9.5,9.5v78a9.53,9.53,0,0,0,9.5,9.5H92.19v52.28L80,189.92V202.5l16.78,16.78h0l16.78-16.78V189.92l-12,12V149.79h81.83a9.53,9.53,0,0,0,9.5-9.5v-78A9.53,9.53,0,0,0,183.52,52.79ZM183,141H10.85V62.46H183Z"/><path class="cls-1" d="M166.72,220l0,0v0h-140L0,270.69l0,0,26.58,50.66.06,0v0h140v0l.09,0,26.58-50.66,0,0Zm15.93,51.71L159,313.13l-.08,0v0H34.64v0l-.05,0L11,271.75l0,0,23.7-41.36H159l23.7,41.36Z"/><path class="cls-2" d="M232.77,72.88,246,72.64l-.43-23.12-12.23.22a46.84,46.84,0,0,0-5-13L237.06,28,220.71,11.69,212.3,20.1a46.9,46.9,0,0,0-13-5.61V2.5H176.19V14.3a46.89,46.89,0,0,0-13.34,5.52l-8.14-8.14L138.36,28l8.29,8.29a46.85,46.85,0,0,0-5.24,13.21l-12.18.22.43,23.12,12.24-.23a46.9,46.9,0,0,0,5.56,12.59l-8.77,9.1,16.65,16,8.86-9.19a46.84,46.84,0,0,0,12.75,4.92l.23,12.56,23.12-.43-.23-12.71a46.88,46.88,0,0,0,11.11-4.71l8.73,8.73,16.35-16.35-8.58-8.58A46.91,46.91,0,0,0,232.77,72.88Z"/><circle class="cls-3" cx="187.36" cy="60.13" r="35.54"/><circle class="cls-4" cx="187.36" cy="60.13" r="25.13"/><path class="cls-2" d="M445.39,238.47l13.25-.24-.43-23.12-12.23.22a46.84,46.84,0,0,0-5-13l8.73-8.73-16.35-16.35-8.41,8.41a46.9,46.9,0,0,0-13-5.61v-12H388.8v11.8a46.89,46.89,0,0,0-13.34,5.52l-8.14-8.14L351,193.63l8.29,8.29A46.85,46.85,0,0,0,354,215.13l-12.18.22.43,23.12,12.24-.23a46.9,46.9,0,0,0,5.56,12.59l-8.77,9.1,16.65,16,8.86-9.19a46.84,46.84,0,0,0,12.75,4.92l.23,12.56,23.12-.43-.23-12.71a46.88,46.88,0,0,0,11.11-4.71l8.73,8.73,16.35-16.35-8.58-8.58A46.91,46.91,0,0,0,445.39,238.47Z"/><circle class="cls-3" cx="399.98" cy="225.72" r="35.54"/><circle class="cls-4" cx="399.98" cy="225.72" r="25.13"/><polygon class="cls-1" points="234.67 270.84 218.56 253.96 206.42 253.88 217.89 265.9 182.02 265.69 182.02 275.19 218.03 275.4 206.22 287.48 218.37 287.54 234.67 270.85 234.66 270.85 234.67 270.84"/></g></g></svg>