<svg xmlns="http://www.w3.org/2000/svg" viewBox="0 0 339.1 339.1"><defs><style>.cls-1{fill:#f16a21;}</style></defs><title>Asset 41</title><g id="Layer_2" data-name="Layer 2"><g id="Layer_1-2" data-name="Layer 1"><path class="cls-1" d="M317.22,266.27V106.18l12.54,12.54,7.73-7.73L315.62,89.11a5.46,5.46,0,0,0-7.73,0L286,111l7.73,7.73,12.54-12.54V263a38.32,38.32,0,1,0,10.94,3.31Zm-16.41,61.88a27.35,27.35,0,1,1,27.35-27.35A27.38,27.38,0,0,1,300.81,328.16Z"/><path class="cls-1" d="M21.88,72.82V232.92L9.34,220.37,1.6,228.11,23.48,250a5.47,5.47,0,0,0,7.73,0l21.88-21.88-7.73-7.73L32.82,232.92V76.13a38.32,38.32,0,1,0-10.94-3.31ZM38.29,10.94A27.35,27.35,0,1,1,10.94,38.29,27.38,27.38,0,0,1,38.29,10.94Z"/><path class="cls-1" d="M153.14,246.12a5.47,5.47,0,0,0,5.47,5.47h21.88a5.47,5.47,0,0,0,5.47-5.47v-7.44a69.84,69.84,0,0,0,20.3-8.27l3.18,3.17a5.46,5.46,0,0,0,7.73,0l16.41-16.41a5.47,5.47,0,0,0,0-7.73l-3.17-3.17A69.93,69.93,0,0,0,238.68,186h7.44a5.47,5.47,0,0,0,5.47-5.47V158.61a5.47,5.47,0,0,0-5.47-5.47h-7.45a70.12,70.12,0,0,0-8.31-20.26l3.22-3.22a5.46,5.46,0,0,0,0-7.73l-16.41-16.41a5.46,5.46,0,0,0-7.73,0l-3.22,3.22A70.12,70.12,0,0,0,186,100.43V93a5.47,5.47,0,0,0-5.47-5.47H158.61A5.47,5.47,0,0,0,153.14,93v7.44a69.79,69.79,0,0,0-20.31,8.27l-3.17-3.17a5.46,5.46,0,0,0-7.73,0l-16.41,16.41a5.46,5.46,0,0,0,0,7.73l3.17,3.17a69.93,69.93,0,0,0-8.27,20.31H93a5.47,5.47,0,0,0-5.47,5.47v21.88A5.47,5.47,0,0,0,93,186h7.45a70.15,70.15,0,0,0,8.31,20.25l-3.22,3.23a5.46,5.46,0,0,0,0,7.73l16.41,16.41a5.46,5.46,0,0,0,7.73,0l3.22-3.22a70.12,70.12,0,0,0,20.26,8.31Zm-17.87-27.25a5.47,5.47,0,0,0-7,.62L125.79,222l-8.67-8.67,2.49-2.49a5.47,5.47,0,0,0,.62-7,59.4,59.4,0,0,1-9.94-24.25A5.47,5.47,0,0,0,104.9,175H98.45V164.08h6.45a5.47,5.47,0,0,0,5.39-4.56,59.34,59.34,0,0,1,9.88-24.29,5.47,5.47,0,0,0-.62-7l-2.43-2.44,8.67-8.67,2.43,2.43a5.47,5.47,0,0,0,7,.62,59.37,59.37,0,0,1,24.29-9.88,5.47,5.47,0,0,0,4.57-5.39V98.45H175v6.45a5.47,5.47,0,0,0,4.56,5.39,59.34,59.34,0,0,1,24.25,9.94,5.47,5.47,0,0,0,7-.62l2.49-2.49,8.67,8.67-2.49,2.49a5.47,5.47,0,0,0-.62,7,59.34,59.34,0,0,1,9.94,24.25,5.47,5.47,0,0,0,5.39,4.56h6.45V175h-6.45a5.47,5.47,0,0,0-5.39,4.56,59.34,59.34,0,0,1-9.88,24.29,5.47,5.47,0,0,0,.62,7L222,213.3,213.3,222l-2.44-2.43a5.47,5.47,0,0,0-7-.62,59.41,59.41,0,0,1-24.29,9.88,5.46,5.46,0,0,0-4.56,5.39v6.45H164.08v-6.45a5.47,5.47,0,0,0-4.56-5.39A59.47,59.47,0,0,1,135.27,218.87Z"/><path class="cls-1" d="M218.77,169.55a49.22,49.22,0,1,0-49.22,49.22A49.28,49.28,0,0,0,218.77,169.55Zm-87.51,0a38.29,38.29,0,1,1,38.29,38.29A38.33,38.33,0,0,1,131.26,169.55Z"/><path class="cls-1" d="M169.55,295.34a16.39,16.39,0,0,0,15.77-12.13,114.81,114.81,0,0,0,12.93-224.9l-2.72,10.59a103.87,103.87,0,0,1-11,203.37,16.4,16.4,0,1,0-15,23.06Zm0-21.88a5.47,5.47,0,1,1-5.47,5.47A5.48,5.48,0,0,1,169.55,273.47Z"/><path class="cls-1" d="M65.63,169.55A103.42,103.42,0,0,1,154.58,66.82a16.46,16.46,0,1,0-.8-10.93,114.81,114.81,0,0,0-12.94,224.9l2.73-10.6A103.84,103.84,0,0,1,65.63,169.55ZM169.55,54.69a5.47,5.47,0,1,1-5.47,5.47A5.48,5.48,0,0,1,169.55,54.69Z"/><path class="cls-1" d="M111,53.09l7.73-7.73L106.18,32.82H263a38.32,38.32,0,1,0,3.31-10.94H106.18L118.72,9.34,111,1.6,89.11,23.48a5.46,5.46,0,0,0,0,7.73ZM300.81,10.94a27.35,27.35,0,1,1-27.35,27.35A27.38,27.38,0,0,1,300.81,10.94Z"/><path class="cls-1" d="M228.11,286l-7.73,7.73,12.54,12.54H76.13a38.32,38.32,0,1,0-3.31,10.94H232.92l-12.54,12.54,7.73,7.73L250,315.62a5.46,5.46,0,0,0,0-7.73ZM38.29,328.16a27.35,27.35,0,1,1,27.35-27.35A27.38,27.38,0,0,1,38.29,328.16Z"/></g></g></svg>