<svg xmlns="http://www.w3.org/2000/svg" viewBox="0 0 469.5 395.05"><defs><style>.cls-1{fill:#ff9769;}.cls-2{fill:#f16a21;}.cls-3{fill:#ff8a57;}.cls-4{fill:#fff;}</style></defs><title>Asset 30</title><g id="Layer_2" data-name="Layer 2"><g id="Layer_1-2" data-name="Layer 1"><rect class="cls-1" x="169.93" y="314.34" width="132.88" height="63.59" rx="12" ry="12"/><path class="cls-2" d="M48,135.68A90.2,90.2,0,0,1,72.76,74l-5-5.6a89.81,89.81,0,0,0-25.66,67.28Z"/><path class="cls-2" d="M77.75,68.4c4.53-4.2,29.51-26.56,67-24.57C176,45.48,196.24,63,201.84,68.17l5.21-4.7c-5.72-5.31-28.46-25.21-63.64-26.36-39.26-1.29-65.08,21.7-70.11,26.36Z"/><path class="cls-2" d="M207,73.38a93,93,0,0,1,24.68,62.21H239a96.79,96.79,0,0,0-26.36-67.2Z"/><path class="cls-3" d="M64.73,134.67h7.64A55.77,55.77,0,0,1,92.52,93.28L83.12,84a72.38,72.38,0,0,0-18.39,50.63Z"/><path class="cls-3" d="M88.49,78.25l10,10.33a55.28,55.28,0,0,1,73.88,9.07l17.8-17.55a76.63,76.63,0,0,0-45.76-20.49C113.62,57.13,92.47,74.8,88.49,78.25Z"/><path class="cls-3" d="M177.49,104.61l18.14-19.14a78,78,0,0,1,19.81,49.2H184.21a42.27,42.27,0,0,0-6.72-30.06Z"/><rect class="cls-2" x="72.76" y="163.72" width="129.41" height="7.89" rx="3.95" ry="3.95"/><rect class="cls-2" x="60.89" y="220.14" width="76.58" height="7.89" rx="3.95" ry="3.95"/><rect class="cls-2" x="60.89" y="245.83" width="76.58" height="7.89" rx="3.95" ry="3.95"/><rect class="cls-2" x="60.89" y="267.66" width="54.64" height="7.89" rx="3.95" ry="3.95"/><rect class="cls-2" x="302.81" y="192.1" width="117.65" height="7.89" rx="3.95" ry="3.95"/><path class="cls-2" d="M411.87,262.45a15.38,15.38,0,0,0-11.47,5.11L361.64,246,360,244.76a15.42,15.42,0,1,0-30-.33l-32.11,13.41a15.42,15.42,0,0,0-23.58-2.3l-26.23-14.32a15.42,15.42,0,1,0-29.55.84l-28.2,22.63a15.43,15.43,0,1,0,5.13,5.8l27.67-21.55a15.41,15.41,0,0,0,21.1-.94l26,14.67a15.42,15.42,0,1,0,30.36,3.85c0-.47,0-.93-.07-1.39l33.46-13.41a15.41,15.41,0,0,0,22.18,0L396.71,275a15.42,15.42,0,1,0,15.16-12.59Z"/><path class="cls-1" d="M336.17,140.21A41.42,41.42,0,0,0,384,142.73l16.62,22.5a69.56,69.56,0,0,1-83.12-6.55Z"/><path class="cls-2" d="M392.43,136.52,409,158.85a64,64,0,0,0,23.84-53.06l-27.37,1.85a31.71,31.71,0,0,1-13.1,28.88Z"/><path class="cls-1" d="M395.11,77.41A40.23,40.23,0,0,1,405,97.73l27-1.85a51.39,51.39,0,0,0-18.47-37.95Z"/><path class="cls-2" d="M386.55,70.69a19,19,0,0,0-18.64-7.05V35.77a50.53,50.53,0,0,1,36.77,14.94Z"/><path class="cls-1" d="M357.5,36.77v27a38.84,38.84,0,0,0-20.82,8.56L317.53,52.89a59.57,59.57,0,0,1,40-16.12Z"/><path class="cls-2" d="M309.81,60.11l19.31,19.14a43.93,43.93,0,0,0,0,53.06l-19.31,19.14a70,70,0,0,1,0-91.35Z"/><path class="cls-2" d="M454.05,0H15.45A15.49,15.49,0,0,0,0,15.45V307A15.49,15.49,0,0,0,15.45,322.4h438.6A15.49,15.49,0,0,0,469.5,307V15.45A15.49,15.49,0,0,0,454.05,0Zm-.67,307.63H15.78V14.44h437.6Z"/><rect class="cls-2" x="122.24" y="363.93" width="226.35" height="31.12" rx="8.67" ry="8.67"/><path class="cls-4" d="M183.93,68.75l-6.06-3.5L156,96.41l10.29,5.94Z"/><path class="cls-2" d="M178.67,71.2l-38,47.17h-.52a14.58,14.58,0,1,0,12.66,7.35Z"/></g></g></svg>