<svg xmlns="http://www.w3.org/2000/svg" viewBox="0 0 460 459.95"><defs><style>.cls-1{fill:#f16a21;}</style></defs><title>Asset 62</title><g id="Layer_2" data-name="Layer 2"><g id="Layer_1-2" data-name="Layer 1"><g id="_Group_" data-name="&lt;Group&gt;"><path id="_Compound_Path_" data-name="&lt;Compound Path&gt;" class="cls-1" d="M263.9,196.09a56.91,56.91,0,0,0-94.85,56.25l-34.49,34.49h0L92.68,328.72a7.55,7.55,0,0,0-1.82,7.73l7,20.94a7.55,7.55,0,0,0,4.78,4.77l20.94,7a7.55,7.55,0,0,0,7.73-1.82l76.37-76.37a56.91,56.91,0,0,0,56.25-94.85Zm-10.68,69.8a41.83,41.83,0,0,1-44.84,9.36,7.56,7.56,0,0,0-8.09,1.69l-76.39,76.4L111,349l-4.31-12.93,12.3-12.3,1.64,1.64a7.55,7.55,0,1,0,10.68-10.68l-1.64-1.64,10.26-10.26,1.64,1.64a7.55,7.55,0,1,0,10.68-10.68l-1.64-1.64,10.26-10.26,1.64,1.64a7.55,7.55,0,1,0,10.68-10.68l-1.64-1.64,11.54-11.54a7.55,7.55,0,0,0,1.69-8.09,41.81,41.81,0,1,1,68.48,14.29Z"/><path id="_Compound_Path_2" data-name="&lt;Compound Path&gt;" class="cls-1" d="M230.65,208.48a20.74,20.74,0,0,0-14.76,6.11h0a20.88,20.88,0,1,0,14.76-6.12Zm4.09,25a5.78,5.78,0,1,1-8.17-8.17h0a5.78,5.78,0,1,1,8.17,8.17Z"/><path id="_Compound_Path_3" data-name="&lt;Compound Path&gt;" class="cls-1" d="M457.79,96.52,363.48,2.21a7.55,7.55,0,0,0-10.68,0L285.6,69.42l-12.8-12.8a7.55,7.55,0,0,0-10.68,0L28.75,290a98.15,98.15,0,0,0,0,138.8l2.45,2.45h0a98.26,98.26,0,0,0,138.81,0L403.38,197.88a7.55,7.55,0,0,0,0-10.68l-12.8-12.8,67.21-67.21A7.55,7.55,0,0,0,457.79,96.52ZM159.33,420.57a83.14,83.14,0,0,1-117.45,0l-2.46-2.45a83,83,0,0,1,0-117.45L237.77,102.33l119.9,119.9Zm209-209L248.45,91.65l19-19,119.9,119.9Zm11.55-47.83L296.27,80.1l61.87-61.87,83.63,83.63Z"/><path id="_Compound_Path_4" data-name="&lt;Compound Path&gt;" class="cls-1" d="M318.2,73.91a7.55,7.55,0,0,0,0,10.68l14.51,14.51a7.55,7.55,0,0,0,10.68,0l36.27-36.27a7.55,7.55,0,0,0,0-10.68L365.15,37.63a7.55,7.55,0,0,0-10.68,0Zm45.44-16.42L338,83.08l-3.83-3.83,25.6-25.6Z"/><path id="_Compound_Path_5" data-name="&lt;Compound Path&gt;" class="cls-1" d="M361.73,128.11l14.51,14.51a7.55,7.55,0,0,0,10.68,0l36.27-36.27a7.55,7.55,0,0,0,0-10.68L408.68,81.16a7.55,7.55,0,0,0-10.68,0l-36.27,36.27A7.55,7.55,0,0,0,361.73,128.11Zm41.61-30.93,3.83,3.83-25.6,25.6-3.83-3.83Z"/></g></g></g></svg>