<svg xmlns="http://www.w3.org/2000/svg" viewBox="0 0 284.21 284.21"><defs><style>.cls-1{fill:#f16a21;}</style></defs><title>Asset 66</title><g id="Layer_2" data-name="Layer 2"><g id="Layer_1-2" data-name="Layer 1"><g id="surface1"><path class="cls-1" d="M18.95,284.21H246.31a19,19,0,0,0,18.95-18.95V251.05a4.74,4.74,0,0,0-4.74-4.74h-9.47V170.53h-9.47v75.79H232.1V170.53h-9.47v75.79H162.17a13.22,13.22,0,0,0-11.9,7.36,3.8,3.8,0,0,1-3.43,2.12h-27.3a3.79,3.79,0,0,1-3.42-2.12,13.23,13.23,0,0,0-11.9-7.36H42.63V127.89a4.74,4.74,0,0,1,4.74-4.74h85.26v-9.47H47.37a14.21,14.21,0,0,0-14.21,14.21V246.31H23.68V118.42a14.21,14.21,0,0,1,14.21-14.21h94.74V94.74H37.89a23.71,23.71,0,0,0-23.68,23.68V246.31H4.74A4.74,4.74,0,0,0,0,251.05v14.21A19,19,0,0,0,18.95,284.21ZM9.47,255.79h94.74a3.82,3.82,0,0,1,3.43,2.11,13.22,13.22,0,0,0,11.9,7.36h27.3a13.23,13.23,0,0,0,11.9-7.36,3.79,3.79,0,0,1,3.42-2.11h93.62v9.47a9.47,9.47,0,0,1-9.47,9.47H18.95a9.47,9.47,0,0,1-9.47-9.47Z"/><path class="cls-1" d="M61.58,175.26v37.89a4.74,4.74,0,0,0,4.74,4.74H198.95a4.74,4.74,0,0,0,4.74-4.74V175.26a4.74,4.74,0,0,0-4.74-4.74H66.32A4.74,4.74,0,0,0,61.58,175.26ZM71.05,180H194.21v28.42H71.05Z"/><path class="cls-1" d="M80.53,189.47H90v9.47H80.53Z"/><path class="cls-1" d="M99.47,189.47h9.47v9.47H99.47Z"/><path class="cls-1" d="M118.42,189.47h9.47v9.47h-9.47Z"/><path class="cls-1" d="M137.37,189.47h9.47v9.47h-9.47Z"/><path class="cls-1" d="M270,71.23V56.84a56.84,56.84,0,0,0-113.68,0V71.23A15.89,15.89,0,0,0,142.1,87v58.15A16,16,0,0,0,158,161.05H268.28a16,16,0,0,0,15.93-15.92V87A15.89,15.89,0,0,0,270,71.23ZM165.79,56.84a47.37,47.37,0,1,1,94.74,0V71.05h-9.47V56.84a37.89,37.89,0,1,0-75.79,0V71.05h-9.47Zm18.95,14.21V56.84a28.42,28.42,0,0,1,56.84,0V71.05Zm90,74.07a6.46,6.46,0,0,1-6.46,6.45H158a6.46,6.46,0,0,1-6.46-6.45V87A6.46,6.46,0,0,1,158,80.53H268.28A6.46,6.46,0,0,1,274.74,87Z"/><path class="cls-1" d="M213.16,99.47A14.18,14.18,0,0,0,208.42,127v10.35h9.47V127a14.18,14.18,0,0,0-4.74-27.55Zm0,18.95a4.74,4.74,0,1,1,4.74-4.74A4.74,4.74,0,0,1,213.16,118.42Z"/><path class="cls-1" d="M85.26,75.79h9.47v9.47H85.26Z"/><path class="cls-1" d="M85.26,56.84h9.47v9.47H85.26Z"/><path class="cls-1" d="M85.26,37.89h9.47v9.47H85.26Z"/><path class="cls-1" d="M85.26,18.95h9.47v9.47H85.26Z"/><path class="cls-1" d="M104.21,18.95h9.47v9.47h-9.47Z"/><path class="cls-1" d="M123.16,18.95h9.47v9.47h-9.47Z"/><path class="cls-1" d="M142.1,18.95h9.47v9.47H142.1Z"/></g></g></g></svg>