<svg xmlns="http://www.w3.org/2000/svg" viewBox="0 0 244.73 240.07"><defs><style>.cls-1{fill:#f16a21;}</style></defs><title>Asset 46</title><g id="Layer_2" data-name="Layer 2"><g id="Layer_1-2" data-name="Layer 1"><path class="cls-1" d="M244.73,50a15.15,15.15,0,0,0-15.3-15H209V45h20.39a5.05,5.05,0,0,1,5.1,5V183.5l-25.41-24.93a55.35,55.35,0,0,0-9.48-67.11l-.8-.77V5a5.05,5.05,0,0,0-5.1-5H86.68a5.2,5.2,0,0,0-.81.07l-.17,0-.23.05-.26.06L85,.27l-.31.11-.12.06-.33.15-.11.06-.32.19L83.69,1l-.24.18q-.2.16-.38.34l-35.69,35A5,5,0,0,0,45.89,40V140H35.69v10H105.3a57.18,57.18,0,0,0,53.89,37.23,58.08,58.08,0,0,0,28-7.17l15.23,15H15.3a5.05,5.05,0,0,1-5.1-5V50a5.05,5.05,0,0,1,5.1-5H35.69V35H15.3A15.15,15.15,0,0,0,0,50v140a15.15,15.15,0,0,0,15.3,15H89c-2.48,24-22.82,25-25.24,25a5,5,0,1,0,0,10H181a5,5,0,1,0,0-10c-1,0-22.65-.3-25.24-25h56.82l5.65,5.55a15.68,15.68,0,0,0,21.94-.05,15,15,0,0,0,4.53-10.5h0Zm-88.26,180H88.26a39.24,39.24,0,0,0,11.17-25H145.3A39.24,39.24,0,0,0,156.47,230.06ZM56.08,140v-98l25.49-25V35H71.38V45h15.3a5.05,5.05,0,0,0,5.1-5V10h96.87V83a58.26,58.26,0,0,0-53.1-3H71.38V90h48.87a56.47,56.47,0,0,0-11.72,15H71.38v10h33a55.39,55.39,0,0,0-1.68,25H56.08Zm56.09-8.89c0-25.47,21-46.12,47-46.13a47.17,47.17,0,0,1,33.25,13.5,45.5,45.5,0,0,1,.21,65l-.43.42a47.34,47.34,0,0,1-33,13.3C133.23,177.27,112.18,156.62,112.17,131.15Zm91.23,36,7.52,7.37-7.53,7.39-7.52-7.37Zm22,36.39L210.6,189l7.53-7.39L233,196.17a5.16,5.16,0,0,1,1.55,3.67v0a5.16,5.16,0,0,1-1.55,3.67A5.41,5.41,0,0,1,225.45,203.56Z"/><path class="cls-1" d="M133.47,105.92l7.21,7.07a26.57,26.57,0,0,1,37,0l7.21-7.07A36.92,36.92,0,0,0,133.47,105.92Z"/><path class="cls-1" d="M20.39,160v20a5.05,5.05,0,0,0,5.1,5H45.89V175H30.59V160H20.39Z"/><rect class="cls-1" x="56.08" y="175.05" width="10.2" height="10"/><rect class="cls-1" x="71.38" y="55.01" width="101.97" height="10"/></g></g></svg>