<svg xmlns="http://www.w3.org/2000/svg" viewBox="0 0 149.97 198.84"><defs><style>.cls-1,.cls-3{fill:#f16a21;}.cls-2{fill:#fff;}.cls-3{stroke:#fff;stroke-miterlimit:10;}</style></defs><title>Asset 63</title><g id="Layer_2" data-name="Layer 2"><g id="Layer_1-2" data-name="Layer 1"><path class="cls-1" d="M74.61,112.79A27.72,27.72,0,1,0,46.88,85.07,27.72,27.72,0,0,0,74.61,112.79Zm.56-45.36A17.64,17.64,0,1,1,57.53,85.07,17.64,17.64,0,0,1,75.16,67.43Z"/><circle class="cls-1" cx="75.16" cy="85.07" r="3.28"/><circle class="cls-1" cx="86.71" cy="88.78" r="3.28"/><circle class="cls-1" cx="82.17" cy="75.14" r="3.28"/><circle class="cls-1" cx="67.87" cy="75.14" r="3.28"/><circle class="cls-1" cx="75.16" cy="97.17" r="3.28"/><circle class="cls-1" cx="63.24" cy="88.78" r="3.28"/><path class="cls-1" d="M102.33,112.46,40.55,155.17l17,9.88h15.6l31.45-51.59S105.12,110.64,102.33,112.46Z"/><path class="cls-1" d="M140.06,143.47H150V15.34A15.38,15.38,0,0,0,134.64,0H71V10.66H41.46V0H15.34A15.38,15.38,0,0,0,0,15.34V143.47H10.14a5.75,5.75,0,0,1,0,11.5H0V183.5a15.38,15.38,0,0,0,15.34,15.34h119.3A15.38,15.38,0,0,0,150,183.5V155h-9.91a5.75,5.75,0,0,1,0-11.5Zm-12.58-127a4.87,4.87,0,1,1-4.87,4.87A4.87,4.87,0,0,1,127.48,16.44Zm-104.89,0a4.87,4.87,0,1,1-4.87,4.87A4.87,4.87,0,0,1,22.59,16.44Zm-.13,166.27a4.87,4.87,0,1,1,4.87-4.87A4.87,4.87,0,0,1,22.46,182.71Zm105.15.16a4.87,4.87,0,1,1,4.87-4.87A4.87,4.87,0,0,1,127.61,182.87ZM93,143.49,79.92,165h26.84l8,18.84H57.05l-5.85-4.74-8,6.24H32.94S41.46,171,25.54,165.5v-2l1.82-3.83-7.21-4.87v-31S30,138,37.75,140.1l-.26,10,12.93-9.2A61.06,61.06,0,1,1,93,143.49Z"/><rect class="cls-1" x="65.24" y="173.5" width="25.34" height="3.9"/><circle class="cls-2" cx="73.44" cy="83.34" r="36.1"/><rect class="cls-1" x="71.36" y="70.11" width="7.58" height="5.62" rx="1.35" ry="1.35"/><path class="cls-1" d="M58.8,60.54l-8,8.12V101.2l8,8.06H91.34l8.18-8.06V68.66l-8.18-8.12ZM85.68,80.09a6.15,6.15,0,0,1-6.14,6.14h0v3.84H77.42v2.77h2.15v4.34H77.42v2.77h2.15v3.46H75.15v2.33H70.7V86.22a6.15,6.15,0,0,1-6-6.13v-7A6.15,6.15,0,0,1,70.85,67h8.69a6.15,6.15,0,0,1,6.14,6.14Z"/><path class="cls-3" d="M127.74,88.09a4.14,4.14,0,0,0-2.93,1.21H109.15V80.46h15.66a4.15,4.15,0,1,0,0-5.89H109.15V68l20-.76V63.12l-20-.86v0L97.73,50.91h0l-.86-20H92.77l-.76,20H85.2V35.24h0a4.15,4.15,0,1,0-5.89,0h0V50.91H70.48V35.24h0a4.15,4.15,0,1,0-5.89,0h0V50.91H58.06l-.86-20H53.09l-.76,20h0L41.18,62.24v0l-20,.86v4.11l20,.76v6.59H25.51a4.15,4.15,0,1,0,0,5.89H41.18v8.83H25.51a4.15,4.15,0,1,0,0,5.89H41.18v6.69l-20,.86v4.11l20,.76h0l11.15,11.24h0l.86,20H57.3l.76-20h6.51v15.66h0a4.15,4.15,0,1,0,5.89,0h0V118.89H79.3v15.66h0a4.15,4.15,0,1,0,5.89,0h0V118.89H92l.86,20H97l.76-20h0l11.42-11.24h0l20-.76v-4.11l-20-.86V95.19h15.66a4.15,4.15,0,1,0,2.93-7.1Zm0-12.51a1.94,1.94,0,1,1-1.94,1.94A1.94,1.94,0,0,1,127.74,75.58ZM22.59,79.47a1.94,1.94,0,1,1,1.94-1.94A1.94,1.94,0,0,1,22.59,79.47Zm0,14.73a1.94,1.94,0,1,1,1.94-1.94A1.94,1.94,0,0,1,22.59,94.2ZM82.25,30.38a1.94,1.94,0,1,1-1.94,1.94A1.94,1.94,0,0,1,82.25,30.38Zm-14.73,0a1.94,1.94,0,1,1-1.94,1.94A1.94,1.94,0,0,1,67.53,30.38Zm0,109a1.94,1.94,0,1,1,1.94-1.94A1.94,1.94,0,0,1,67.53,139.41Zm14.73,0a1.94,1.94,0,1,1,1.94-1.94A1.94,1.94,0,0,1,82.25,139.41Zm21.11-35.64-9.47,9.32H56.24L47,103.77V66.11l9.25-9.4H93.89l9.47,9.4Zm24.38-9.59a1.94,1.94,0,1,1,1.94-1.94A1.94,1.94,0,0,1,127.74,94.18Z"/><circle class="cls-1" cx="37.75" cy="47.7" r="3.65"/><circle class="cls-1" cx="112.02" cy="47.71" r="3.65"/><circle class="cls-1" cx="111.98" cy="122.15" r="3.65"/><circle class="cls-1" cx="37.72" cy="122.12" r="3.65"/><circle class="cls-2" cx="82.22" cy="137.38" r="1.69"/><circle class="cls-2" cx="67.6" cy="137.71" r="1.8"/></g></g></svg>