<svg xmlns="http://www.w3.org/2000/svg" viewBox="0 0 199.98 151.59"><defs><style>.cls-1,.cls-3{fill:#f16a21;}.cls-2{fill:#fff;}.cls-3{stroke:#fff;stroke-miterlimit:10;}</style></defs><title>Asset 65</title><g id="Layer_2" data-name="Layer 2"><g id="Layer_1-2" data-name="Layer 1"><path class="cls-1" d="M86.61,75.55a27.72,27.72,0,1,0,27.46-28A27.72,27.72,0,0,0,86.61,75.55Zm45.36.12a17.64,17.64,0,1,1-17.8-17.46A17.64,17.64,0,0,1,132,75.66Z"/><circle class="cls-1" cx="114.34" cy="75.84" r="3.28" transform="translate(-0.73 1.11) rotate(-0.55)"/><circle class="cls-1" cx="110.74" cy="87.42" r="3.28" transform="translate(-0.84 1.07) rotate(-0.55)"/><circle class="cls-1" cx="124.34" cy="82.75" r="3.28" transform="translate(-0.79 1.2) rotate(-0.55)"/><circle class="cls-1" cx="124.2" cy="68.44" r="3.28" transform="translate(-0.66 1.2) rotate(-0.55)"/><circle class="cls-1" cx="102.24" cy="75.95" r="3.28" transform="translate(-0.73 0.99) rotate(-0.55)"/><circle class="cls-1" cx="110.52" cy="63.95" r="3.28" transform="translate(-0.61 1.07) rotate(-0.55)"/><path class="cls-1" d="M87.22,103.27,43.91,41.9,34.2,59l.15,15.59,51.9,31S89.06,106,87.22,103.27Z"/><path class="cls-1" d="M56.57,141.29l.1,9.91L184.79,150A15.38,15.38,0,0,0,200,134.48l-.62-63.68-10.66.1-.28-29.5,10.66-.1-.25-26.12A15.38,15.38,0,0,0,183.35,0L55.21,1.24l.1,10.14a5.75,5.75,0,0,1-11.5.11l-.1-10.14-28.52.28A15.38,15.38,0,0,0,0,17.11L1.15,136.4a15.38,15.38,0,0,0,15.48,15.19l28.52-.28-.1-9.91a5.75,5.75,0,0,1,11.5-.11Zm126.91-13.81a4.87,4.87,0,1,1-4.92-4.83A4.87,4.87,0,0,1,183.47,127.48Zm-1-104.89a4.87,4.87,0,1,1-4.92-4.83A4.87,4.87,0,0,1,182.46,22.6ZM16.2,24.08a4.87,4.87,0,1,1,4.92,4.83A4.87,4.87,0,0,1,16.2,24.08Zm.85,105.15A4.87,4.87,0,1,1,22,134.05,4.87,4.87,0,0,1,17.05,129.23Zm39-35L34.41,81.37l.26,26.84-18.77,8.17-.56-57.7L20,52.78l-6.31-7.93-.1-10.27S28.06,43,33.43,27l2,0,3.85,1.78,4.8-7.26,31-.3S61,31.2,59,39l-10-.16,9.33,12.84A61.06,61.06,0,1,1,56.09,94.2Z"/><rect class="cls-1" x="22.05" y="66.78" width="3.9" height="25.34" transform="translate(-0.77 0.24) rotate(-0.55)"/><circle class="cls-2" cx="114.34" cy="75.95" r="61.18" transform="matrix(1, -0.01, 0.01, 1, -0.73, 1.11)"/><rect class="cls-1" x="110.85" y="60.6" width="7.58" height="5.62" rx="1.35" ry="1.35" transform="translate(-0.61 1.11) rotate(-0.55)"/><path class="cls-1" d="M98.18,51.19l-7.91,8.2.31,32.54,8.07,8,32.54-.31,8.1-8.13L139,58.92l-8.26-8Zm27.06,19.28a6.15,6.15,0,0,1-6.08,6.2h0l0,3.84-2.15,0,0,2.77,2.15,0,0,4.34-2.15,0,0,2.77,2.15,0,0,3.46-2.15,0-2.27,0,0,2.33-4.45,0-.19-19.52a6.15,6.15,0,0,1-6-6.07l-.07-7a6.15,6.15,0,0,1,6.08-6.2l8.69-.08a6.15,6.15,0,0,1,6.2,6.08Z"/><path class="cls-3" d="M167.38,78.07a4.14,4.14,0,0,0-2.91,1.24h0l-15.66.15-.09-8.83,15.66-.15h0a4.15,4.15,0,1,0-.06-5.89h0l-15.66.15-.06-6.58,20-1,0-4.11-20-.66v0L137,41.19h0l-1.05-20-4.11,0-.57,20-6.8.07-.15-15.67h0a4.15,4.15,0,1,0-5.89.06h0l.15,15.67-8.83.09-.15-15.67h0a4.15,4.15,0,1,0-5.89.06h0l.15,15.67-6.52.06-1.05-20-4.11,0-.57,20h0l-11,11.44v0l-20,1.05,0,4.11,20,.57.06,6.59L65,65.56h0a4.15,4.15,0,1,0,.06,5.89h0l15.66-.15.09,8.83-15.66.15h0a4.15,4.15,0,1,0,.06,5.89h0L80.89,86,81,92.73,61,93.78l0,4.11,20,.57h0L92.27,109.6h0l1.05,20,4.11,0,.57-20,6.51-.06.15,15.66h0a4.15,4.15,0,1,0,5.89-.06h0l-.15-15.66,8.83-.09L119.4,125h0a4.15,4.15,0,1,0,5.89-.06h0l-.15-15.66,6.79-.07,1.05,20,4.11,0,.57-20h0L149,97.81h0l20-1,0-4.11-20-.66-.06-6.72,15.66-.15h0a4.15,4.15,0,1,0,2.86-7.13Zm-.12-12.51a1.94,1.94,0,1,1-1.92,2A1.94,1.94,0,0,1,167.26,65.56ZM62.15,70.47a1.94,1.94,0,1,1,1.92-2A1.94,1.94,0,0,1,62.15,70.47Zm.14,14.73a1.94,1.94,0,1,1,1.92-2A1.94,1.94,0,0,1,62.29,85.2Zm59-64.39a1.94,1.94,0,1,1-1.92,2A1.94,1.94,0,0,1,121.34,20.81Zm-14.73.14a1.94,1.94,0,1,1-1.92,2A1.94,1.94,0,0,1,106.61,20.95Zm1.05,109a1.94,1.94,0,1,1,1.92-2A1.94,1.94,0,0,1,107.67,130Zm14.73-.14a1.94,1.94,0,1,1,1.92-2A1.94,1.94,0,0,1,122.39,129.83ZM143.16,94l-9.38,9.41-37.65.36-9.34-9.23-.36-37.65,9.16-9.48L133.23,47l9.56,9.3Zm24.29-9.82a1.94,1.94,0,1,1,1.92-2A1.94,1.94,0,0,1,167.44,84.16Z"/><circle class="cls-1" cx="77" cy="38.56" r="3.65" transform="translate(-0.37 0.75) rotate(-0.55)"/><circle class="cls-1" cx="151.28" cy="37.85" r="3.65" transform="translate(-0.36 1.46) rotate(-0.55)"/><circle class="cls-1" cx="151.95" cy="112.29" r="3.65" transform="translate(-1.08 1.47) rotate(-0.55)"/><circle class="cls-1" cx="77.69" cy="112.97" r="3.65" transform="translate(-1.09 0.76) rotate(-0.55)"/><circle class="cls-2" cx="62.1" cy="83.39" r="1.69" transform="translate(-0.8 0.6) rotate(-0.55)"/><circle class="cls-2" cx="61.63" cy="68.78" r="1.8" transform="translate(-0.66 0.6) rotate(-0.55)"/></g></g></svg>