<svg xmlns="http://www.w3.org/2000/svg" viewBox="0 0 317.67 296.05"><title>Asset 121</title><g id="Layer_2" data-name="Layer 2"><g id="Layer_1-2" data-name="Layer 1"><path d="M310.43,111.48h-14V36.25c.24-7.76-7.76-9.4-7.76-9.4l-163.85.35L110.14,2.52A5.19,5.19,0,0,0,105,0H28.81c-8-.35-7.52,11.28-7.52,11.28V111.48h-13s-9.58-.38-8.08,9.4L26.34,291.31s-.94,4.47,6.11,4.7h252s5.11.94,6.7-6.29l26.36-168.84S319.36,111.36,310.43,111.48Zm-206.51-100,13.4,22.21c2.47,4.06,6.11,2.76,6.11,2.76H286.33l.69,75h-6.1V91.73h-5.64V74.81h-5.64V59.06H48.2V74.81H42.32V91.73h-4v19.75H32.15l-.69-100ZM265.23,84.44v7.29H52.37V84.44Zm-207-9.64V67.52H259.59v7.29Zm212.62,25.39v11.28H46.44V100.19ZM282,287.08H35.51L10.82,122.41H306.31Z" style="fill:#f06a21"/><rect x="20.65" y="128.43" width="4.88" height="19.59" rx="1.63" ry="1.63" style="fill:#f06a21"/><rect x="32.6" y="128.43" width="4.88" height="19.59" rx="1.63" ry="1.63" style="fill:#f06a21"/><path d="M49.24,128.43h0A7.28,7.28,0,0,0,42,135.71v5A7.28,7.28,0,0,0,49.24,148h0a7.28,7.28,0,0,0,7.28-7.28v-5A7.28,7.28,0,0,0,49.24,128.43Zm2.52,12.39a2.59,2.59,0,1,1-5.18,0v-5.23a2.59,2.59,0,0,1,5.18,0Z" style="fill:#f06a21"/><rect x="62.21" y="128.43" width="4.88" height="19.59" rx="1.63" ry="1.63" style="fill:#f06a21"/><path d="M78,128.43h0a7.28,7.28,0,0,0-7.28,7.28v5A7.28,7.28,0,0,0,78,148h0a7.28,7.28,0,0,0,7.28-7.28v-5A7.28,7.28,0,0,0,78,128.43Zm2.52,12.39a2.59,2.59,0,1,1-5.18,0v-5.23a2.59,2.59,0,1,1,5.18,0Z" style="fill:#f06a21"/><rect x="90.74" y="128.43" width="4.88" height="19.59" rx="1.63" ry="1.63" style="fill:#f06a21"/><rect x="102.69" y="128.43" width="4.88" height="19.59" rx="1.63" ry="1.63" style="fill:#f06a21"/><path d="M215.26,128.43h0a7.28,7.28,0,0,0-7.28,7.28v5a7.28,7.28,0,0,0,7.28,7.28h0a7.28,7.28,0,0,0,7.28-7.28v-5A7.28,7.28,0,0,0,215.26,128.43Zm2.52,12.39a2.59,2.59,0,0,1-5.18,0v-5.23a2.59,2.59,0,0,1,5.18,0Z" style="fill:#f06a21"/><rect x="227.84" y="128.43" width="4.88" height="19.59" rx="1.63" ry="1.63" style="fill:#f06a21"/><path d="M244.48,128.43h0a7.28,7.28,0,0,0-7.28,7.28v5a7.28,7.28,0,0,0,7.28,7.28h0a7.28,7.28,0,0,0,7.28-7.28v-5A7.28,7.28,0,0,0,244.48,128.43ZM247,140.82a2.59,2.59,0,0,1-5.18,0v-5.23a2.59,2.59,0,0,1,5.18,0Z" style="fill:#f06a21"/><rect x="257.45" y="128.43" width="4.88" height="19.59" rx="1.63" ry="1.63" style="fill:#f06a21"/><rect x="270.12" y="128.43" width="4.88" height="19.59" rx="1.63" ry="1.63" style="fill:#f06a21"/><rect x="282.07" y="128.43" width="4.88" height="19.59" rx="1.63" ry="1.63" style="fill:#f06a21"/><rect x="292.94" y="128.43" width="4.88" height="19.59" rx="1.63" ry="1.63" style="fill:#f06a21"/><path d="M27.93,155.86h0a7.28,7.28,0,0,0-7.28,7.28v5a7.28,7.28,0,0,0,7.28,7.28h0a7.28,7.28,0,0,0,7.28-7.28v-5A7.28,7.28,0,0,0,27.93,155.86Zm2.52,12.39a2.59,2.59,0,1,1-5.18,0V163a2.59,2.59,0,1,1,5.18,0Z" style="fill:#f06a21"/><rect x="40.63" y="155.86" width="4.88" height="19.59" rx="1.63" ry="1.63" style="fill:#f06a21"/><rect x="52.66" y="155.86" width="4.88" height="19.59" rx="1.63" ry="1.63" style="fill:#f06a21"/><rect x="64.61" y="155.86" width="4.88" height="19.59" rx="1.63" ry="1.63" style="fill:#f06a21"/><path d="M81.77,155.86h0a7.28,7.28,0,0,0-7.28,7.28v5a7.28,7.28,0,0,0,7.28,7.28h0A7.28,7.28,0,0,0,89,168.18v-5A7.28,7.28,0,0,0,81.77,155.86Zm2.52,12.39a2.59,2.59,0,0,1-5.18,0V163a2.59,2.59,0,1,1,5.18,0Z" style="fill:#f06a21"/><rect x="94.34" y="155.86" width="4.88" height="19.59" rx="1.63" ry="1.63" style="fill:#f06a21"/><rect x="135.89" y="155.86" width="4.88" height="19.59" rx="1.63" ry="1.63" style="fill:#f06a21"/><rect x="147.84" y="155.86" width="4.88" height="19.59" rx="1.63" ry="1.63" style="fill:#f06a21"/><path d="M183.92,155.86h0a7.28,7.28,0,0,0-7.28,7.28v5a7.28,7.28,0,0,0,7.28,7.28h0a7.28,7.28,0,0,0,7.28-7.28v-5A7.28,7.28,0,0,0,183.92,155.86Zm2.52,12.39a2.59,2.59,0,0,1-5.18,0V163a2.59,2.59,0,0,1,5.18,0Z" style="fill:#f06a21"/><path d="M165,155.86h0a7.28,7.28,0,0,0-7.28,7.28v5a7.28,7.28,0,0,0,7.28,7.28h0a7.28,7.28,0,0,0,7.28-7.28v-5A7.28,7.28,0,0,0,165,155.86Zm2.52,12.39a2.59,2.59,0,0,1-5.18,0V163a2.59,2.59,0,1,1,5.18,0Z" style="fill:#f06a21"/><path d="M225.13,155.86h0a7.28,7.28,0,0,0-7.28,7.28v5a7.28,7.28,0,0,0,7.28,7.28h0a7.28,7.28,0,0,0,7.28-7.28v-5A7.28,7.28,0,0,0,225.13,155.86Zm2.52,12.39a2.59,2.59,0,0,1-5.18,0V163a2.59,2.59,0,1,1,5.18,0Z" style="fill:#f06a21"/><rect x="237.7" y="155.86" width="4.88" height="19.59" rx="1.63" ry="1.63" style="fill:#f06a21"/><rect x="249.11" y="155.86" width="4.88" height="19.59" rx="1.63" ry="1.63" style="fill:#f06a21"/><rect x="261.78" y="155.86" width="4.88" height="19.59" rx="1.63" ry="1.63" style="fill:#f06a21"/><path d="M279.66,155.86h0a7.28,7.28,0,0,0-7.28,7.28v5a7.28,7.28,0,0,0,7.28,7.28h0a7.28,7.28,0,0,0,7.28-7.28v-5A7.28,7.28,0,0,0,279.66,155.86Zm2.52,12.39a2.59,2.59,0,1,1-5.18,0V163a2.59,2.59,0,1,1,5.18,0Z" style="fill:#f06a21"/><rect x="291.63" y="155.86" width="4.88" height="19.59" rx="1.63" ry="1.63" style="fill:#f06a21"/><rect x="27.32" y="181.77" width="4.88" height="19.59" rx="1.63" ry="1.63" style="fill:#f06a21"/><rect x="39.27" y="181.77" width="4.88" height="19.59" rx="1.63" ry="1.63" style="fill:#f06a21"/><path d="M56.43,181.77h0A7.28,7.28,0,0,0,49.15,189v5a7.28,7.28,0,0,0,7.28,7.28h0a7.28,7.28,0,0,0,7.28-7.28v-5A7.28,7.28,0,0,0,56.43,181.77ZM59,194.15a2.59,2.59,0,0,1-5.18,0v-5.23a2.59,2.59,0,1,1,5.18,0Z" style="fill:#f06a21"/><rect x="70.8" y="181.77" width="4.88" height="19.59" rx="1.63" ry="1.63" style="fill:#f06a21"/><rect x="81.5" y="181.77" width="4.88" height="19.59" rx="1.63" ry="1.63" style="fill:#f06a21"/><path d="M130.07,181.77h0A7.28,7.28,0,0,0,122.8,189v5a7.28,7.28,0,0,0,7.28,7.28h0a7.28,7.28,0,0,0,7.28-7.28v-5A7.28,7.28,0,0,0,130.07,181.77Zm2.52,12.39a2.59,2.59,0,0,1-5.18,0v-5.23a2.59,2.59,0,1,1,5.18,0Z" style="fill:#f06a21"/><rect x="142.78" y="181.77" width="4.88" height="19.59" rx="1.63" ry="1.63" style="fill:#f06a21"/><rect x="153.94" y="181.77" width="4.88" height="19.59" rx="1.63" ry="1.63" style="fill:#f06a21"/><rect x="166.61" y="181.77" width="4.88" height="19.59" rx="1.63" ry="1.63" style="fill:#f06a21"/><rect x="178.56" y="181.77" width="4.88" height="19.59" rx="1.63" ry="1.63" style="fill:#f06a21"/><rect x="191.03" y="181.77" width="4.88" height="19.59" rx="1.63" ry="1.63" style="fill:#f06a21"/><rect x="232.12" y="180.86" width="4.88" height="19.59" rx="1.63" ry="1.63" style="fill:#f06a21"/><rect x="243.53" y="180.86" width="4.88" height="19.59" rx="1.63" ry="1.63" style="fill:#f06a21"/><path d="M261.59,181.77h0a7.28,7.28,0,0,0-7.28,7.28v5a7.28,7.28,0,0,0,7.28,7.28h0a7.28,7.28,0,0,0,7.28-7.28v-5A7.28,7.28,0,0,0,261.59,181.77Zm2.52,12.39a2.59,2.59,0,0,1-5.18,0v-5.23a2.59,2.59,0,0,1,5.18,0Z" style="fill:#f06a21"/><rect x="274.16" y="181.77" width="4.88" height="19.59" rx="1.63" ry="1.63" style="fill:#f06a21"/><rect x="285.57" y="181.77" width="4.88" height="19.59" rx="1.63" ry="1.63" style="fill:#f06a21"/><rect x="29.6" y="206.23" width="4.88" height="19.59" rx="1.63" ry="1.63" style="fill:#f06a21"/><path d="M65.67,206.23h0a7.28,7.28,0,0,0-7.28,7.28v5a7.28,7.28,0,0,0,7.28,7.28h0a7.28,7.28,0,0,0,7.28-7.28v-5A7.28,7.28,0,0,0,65.67,206.23Zm2.52,12.39a2.59,2.59,0,1,1-5.18,0v-5.23a2.59,2.59,0,1,1,5.18,0Z" style="fill:#f06a21"/><rect x="78.37" y="206.23" width="4.88" height="19.59" rx="1.63" ry="1.63" style="fill:#f06a21"/><path d="M46.76,206.23h0a7.28,7.28,0,0,0-7.28,7.28v5a7.28,7.28,0,0,0,7.28,7.28h0A7.28,7.28,0,0,0,54,218.55v-5A7.28,7.28,0,0,0,46.76,206.23Zm2.52,12.39a2.59,2.59,0,0,1-5.18,0v-5.23a2.59,2.59,0,1,1,5.18,0Z" style="fill:#f06a21"/><path d="M119.51,206.23h0a7.28,7.28,0,0,0-7.28,7.28v5a7.28,7.28,0,0,0,7.28,7.28h0a7.28,7.28,0,0,0,7.28-7.28v-5A7.28,7.28,0,0,0,119.51,206.23ZM122,218.62a2.59,2.59,0,0,1-5.18,0v-5.23a2.59,2.59,0,1,1,5.18,0Z" style="fill:#f06a21"/><rect x="132.09" y="206.23" width="4.88" height="19.59" rx="1.63" ry="1.63" style="fill:#f06a21"/><path d="M148.73,206.23h0a7.28,7.28,0,0,0-7.28,7.28v5a7.28,7.28,0,0,0,7.28,7.28h0a7.28,7.28,0,0,0,7.28-7.28v-5A7.28,7.28,0,0,0,148.73,206.23Zm2.52,12.39a2.59,2.59,0,0,1-5.18,0v-5.23a2.59,2.59,0,0,1,5.18,0Z" style="fill:#f06a21"/><rect x="161.7" y="206.23" width="4.88" height="19.59" rx="1.63" ry="1.63" style="fill:#f06a21"/><rect x="174.37" y="206.23" width="4.88" height="19.59" rx="1.63" ry="1.63" style="fill:#f06a21"/><rect x="190.23" y="206.23" width="4.88" height="19.59" rx="1.63" ry="1.63" style="fill:#f06a21"/><rect x="201.1" y="206.23" width="4.88" height="19.59" rx="1.63" ry="1.63" style="fill:#f06a21"/><path d="M238.43,206.23h0a7.28,7.28,0,0,0-7.28,7.28v5a7.28,7.28,0,0,0,7.28,7.28h0a7.28,7.28,0,0,0,7.28-7.28v-5A7.28,7.28,0,0,0,238.43,206.23ZM241,218.62a2.59,2.59,0,0,1-5.18,0v-5.23a2.59,2.59,0,0,1,5.18,0Z" style="fill:#f06a21"/><rect x="251.13" y="206.23" width="4.88" height="19.59" rx="1.63" ry="1.63" style="fill:#f06a21"/><rect x="263.16" y="206.23" width="4.88" height="19.59" rx="1.63" ry="1.63" style="fill:#f06a21"/><path d="M281.35,206.23h0a7.28,7.28,0,0,0-7.28,7.28v5a7.28,7.28,0,0,0,7.28,7.28h0a7.28,7.28,0,0,0,7.28-7.28v-5A7.28,7.28,0,0,0,281.35,206.23Zm2.52,12.39a2.59,2.59,0,1,1-5.18,0v-5.23a2.59,2.59,0,1,1,5.18,0Z" style="fill:#f06a21"/><path d="M41.49,232.27h0a7.28,7.28,0,0,0-7.28,7.28v5a7.28,7.28,0,0,0,7.28,7.28h0a7.28,7.28,0,0,0,7.28-7.28v-5A7.28,7.28,0,0,0,41.49,232.27ZM44,244.65a2.59,2.59,0,1,1-5.18,0v-5.23a2.59,2.59,0,1,1,5.18,0Z" style="fill:#f06a21"/><rect x="54.19" y="232.27" width="4.88" height="19.59" rx="1.63" ry="1.63" style="fill:#f06a21"/><rect x="66.22" y="232.27" width="4.88" height="19.59" rx="1.63" ry="1.63" style="fill:#f06a21"/><path d="M85.17,232.27h0a7.28,7.28,0,0,0-7.28,7.28v5a7.28,7.28,0,0,0,7.28,7.28h0a7.28,7.28,0,0,0,7.28-7.28v-5A7.28,7.28,0,0,0,85.17,232.27Zm2.52,12.39a2.59,2.59,0,1,1-5.18,0v-5.23a2.59,2.59,0,1,1,5.18,0Z" style="fill:#f06a21"/><rect x="109.9" y="232.27" width="4.88" height="19.59" rx="1.63" ry="1.63" style="fill:#f06a21"/><rect x="122.12" y="232.27" width="4.88" height="19.59" rx="1.63" ry="1.63" style="fill:#f06a21"/><rect x="132.83" y="232.27" width="4.88" height="19.59" rx="1.63" ry="1.63" style="fill:#f06a21"/><rect x="144.78" y="232.27" width="4.88" height="19.59" rx="1.63" ry="1.63" style="fill:#f06a21"/><path d="M163.57,232.27h0a7.28,7.28,0,0,0-7.28,7.28v5a7.28,7.28,0,0,0,7.28,7.28h0a7.28,7.28,0,0,0,7.28-7.28v-5A7.28,7.28,0,0,0,163.57,232.27Zm2.52,12.39a2.59,2.59,0,0,1-5.18,0v-5.23a2.59,2.59,0,0,1,5.18,0Z" style="fill:#f06a21"/><rect x="176.14" y="232.27" width="4.88" height="19.59" rx="1.63" ry="1.63" style="fill:#f06a21"/><rect x="187.55" y="232.27" width="4.88" height="19.59" rx="1.63" ry="1.63" style="fill:#f06a21"/><rect x="199.22" y="232.72" width="4.88" height="19.59" rx="1.63" ry="1.63" style="fill:#f06a21"/><rect x="211.17" y="232.72" width="4.88" height="19.59" rx="1.63" ry="1.63" style="fill:#f06a21"/><rect x="234.5" y="232.27" width="4.88" height="19.59" rx="1.63" ry="1.63" style="fill:#f06a21"/><path d="M254.44,232.27h0a7.28,7.28,0,0,0-7.28,7.28v5a7.28,7.28,0,0,0,7.28,7.28h0a7.28,7.28,0,0,0,7.28-7.28v-5A7.28,7.28,0,0,0,254.44,232.27ZM257,244.65a2.59,2.59,0,0,1-5.18,0v-5.23a2.59,2.59,0,1,1,5.18,0Z" style="fill:#f06a21"/><rect x="267.14" y="232.27" width="4.88" height="19.59" rx="1.63" ry="1.63" style="fill:#f06a21"/><rect x="279.17" y="232.27" width="4.88" height="19.59" rx="1.63" ry="1.63" style="fill:#f06a21"/><rect x="40.86" y="259.66" width="4.88" height="19.59" rx="1.63" ry="1.63" style="fill:#f06a21"/><rect x="52.79" y="259.66" width="4.88" height="19.59" rx="1.63" ry="1.63" style="fill:#f06a21"/><rect x="64.75" y="259.66" width="4.88" height="19.59" rx="1.63" ry="1.63" style="fill:#f06a21"/><path d="M81.91,259.66h0a7.28,7.28,0,0,0-7.28,7.28v5a7.28,7.28,0,0,0,7.28,7.28h0A7.28,7.28,0,0,0,89.18,272v-5A7.28,7.28,0,0,0,81.91,259.66ZM84.43,272a2.59,2.59,0,1,1-5.18,0v-5.23a2.59,2.59,0,1,1,5.18,0Z" style="fill:#f06a21"/><rect x="233.63" y="259.66" width="4.88" height="19.59" rx="1.63" ry="1.63" style="fill:#f06a21"/><path d="M252.29,259.66h0a7.28,7.28,0,0,0-7.28,7.28v5a7.28,7.28,0,0,0,7.28,7.28h0a7.28,7.28,0,0,0,7.28-7.28v-5A7.28,7.28,0,0,0,252.29,259.66ZM254.81,272a2.59,2.59,0,1,1-5.18,0v-5.23a2.59,2.59,0,1,1,5.18,0Z" style="fill:#f06a21"/><rect x="265" y="259.66" width="4.88" height="19.59" rx="1.63" ry="1.63" style="fill:#f06a21"/><rect x="276.61" y="259.66" width="4.88" height="19.59" rx="1.63" ry="1.63" style="fill:#f06a21"/><path d="M205.06,184.34V161.73a38.46,38.46,0,0,0-38.35-38.35h-15a38.46,38.46,0,0,0-38.35,38.35v23a29.61,29.61,0,0,0-19.22,27.73v43.06a29.61,29.61,0,0,0,29.61,29.61h71.88a29.61,29.61,0,0,0,29.6-29.61V212.41A29.61,29.61,0,0,0,205.06,184.34Z" style="fill:#fff"/><path d="M190.62,189.5H128.16a25.73,25.73,0,0,0-25.73,25.73v37.42a25.73,25.73,0,0,0,25.73,25.73h62.46a25.73,25.73,0,0,0,25.73-25.73V215.23A25.73,25.73,0,0,0,190.62,189.5Zm12.61,62.29a15.58,15.58,0,0,1-15.58,15.58h-56A15.58,15.58,0,0,1,116,251.79v-34.6a15.58,15.58,0,0,1,15.58-15.58h56a15.58,15.58,0,0,1,15.58,15.58Z" style="fill:#f06a21"/><path d="M183.64,208.62H135.76A10.42,10.42,0,0,0,125.34,219v29.72a10.42,10.42,0,0,0,10.42,10.42h47.88a10.42,10.42,0,0,0,10.42-10.42V219A10.42,10.42,0,0,0,183.64,208.62Zm-14.45,19.3a9.29,9.29,0,0,1-3.92,7.56v8.95a5.89,5.89,0,1,1-11.77,0v-9a9.29,9.29,0,0,1-3.91-7.55v-1a9.31,9.31,0,0,1,9.29-9.29h1a9.31,9.31,0,0,1,9.29,9.29Z" style="fill:#f06a21"/><path d="M137,184.79H121.42V165.7c.29-2.6,2.16-17.37,15.27-27.14a39.22,39.22,0,0,1,49.74,2.89,38.41,38.41,0,0,1,11.45,23.32v20H182.4l.1-16.61a22.89,22.89,0,0,0-7.74-16,22.52,22.52,0,0,0-14.34-5.26,21.85,21.85,0,0,0-23.63,19.19Z" style="fill:#f06a21"/></g></g></svg>