<svg xmlns="http://www.w3.org/2000/svg" viewBox="0 0 489.44 393.23"><defs><style>.cls-1,.cls-2{fill:#f16a21;}.cls-2{stroke:#fff;stroke-miterlimit:10;stroke-width:4px;}</style></defs><title>Asset 70</title><g id="Layer_2" data-name="Layer 2"><g id="Layer_1-2" data-name="Layer 1"><path class="cls-1" d="M481.52,121.83H466.24V39.62c.26-8.48-8.48-10.28-8.48-10.28l-179.06.39-16.06-27A5.67,5.67,0,0,0,257,0H173.75c-8.73-.39-8.22,12.33-8.22,12.33V121.83H151.27s-10.47-.41-8.83,10.28l28.61,186.26s-1,4.88,6.68,5.14h275.4s5.59,1,7.32-6.87l28.81-184.52S491.29,121.7,481.52,121.83ZM255.83,12.58l14.64,24.28c2.7,4.43,6.68,3,6.68,3h178l.75,82h-6.66V100.25h-6.17V81.75H437V64.54h-242V81.75h-6.42v18.5h-4.37v21.58H177.4l-.76-109.25Zm176.3,79.7v8H199.51v-8ZM205.93,81.75v-8H426v8ZM438.3,109.5v12.33H193V109.5Zm12.14,204.24H181.07l-27-180H477Z"/><rect class="cls-1" x="208.76" y="167.19" width="88.99" height="13.72" rx="2.85" ry="2.85"/><rect class="cls-1" x="208.76" y="188.6" width="101.37" height="13.72" rx="2.85" ry="2.85"/><rect class="cls-1" x="208.76" y="211.35" width="106.38" height="13.72" rx="2.85" ry="2.85"/><rect class="cls-1" x="208.76" y="230.75" width="31.78" height="13.72" rx="2.85" ry="2.85"/><rect class="cls-1" x="247.07" y="230.75" width="69.42" height="13.72" rx="2.85" ry="2.85"/><rect class="cls-1" x="208.76" y="253.5" width="31.78" height="13.72" rx="2.85" ry="2.85"/><rect class="cls-1" x="247.07" y="253.5" width="63.06" height="13.72" rx="2.85" ry="2.85"/><rect class="cls-1" x="208.09" y="276.25" width="32.45" height="13.72" rx="2.85" ry="2.85"/><rect class="cls-1" x="247.07" y="276.25" width="49.34" height="13.72" rx="2.85" ry="2.85"/><rect class="cls-1" x="208.09" y="144.1" width="66.24" height="13.72" rx="2.85" ry="2.85"/><rect class="cls-1" x="276.01" y="147.78" width="58.04" height="6.02" rx="1.25" ry="1.25"/><rect class="cls-1" x="300.43" y="170.49" width="115.67" height="6.02" rx="1.25" ry="1.25"/><rect class="cls-1" x="311.22" y="192.44" width="105.51" height="6.02" rx="1.25" ry="1.25"/><rect class="cls-1" x="314.35" y="215.19" width="65.86" height="6.02" rx="1.25" ry="1.25"/><rect class="cls-1" x="313.35" y="234.6" width="20.2" height="6.02" rx="1.25" ry="1.25"/><rect class="cls-1" x="343.08" y="234.6" width="11.67" height="6.02" rx="1.25" ry="1.25"/><rect class="cls-1" x="364.91" y="234.6" width="15.31" height="6.02" rx="1.25" ry="1.25"/><rect class="cls-1" x="387.62" y="234.6" width="29.11" height="6.02" rx="1.25" ry="1.25"/><rect class="cls-1" x="313.35" y="257.35" width="20.2" height="6.02" rx="1.25" ry="1.25"/><rect class="cls-1" x="343.08" y="257.35" width="11.67" height="6.02" rx="1.25" ry="1.25"/><rect class="cls-1" x="364.91" y="257.35" width="15.31" height="6.02" rx="1.25" ry="1.25"/><rect class="cls-1" x="387.62" y="257.35" width="29.11" height="6.02" rx="1.25" ry="1.25"/><rect class="cls-1" x="298.92" y="280.09" width="34.5" height="6.02" rx="1.25" ry="1.25"/><rect class="cls-1" x="342.96" y="280.09" width="11.67" height="6.02" rx="1.25" ry="1.25"/><rect class="cls-1" x="364.79" y="280.09" width="15.31" height="6.02" rx="1.25" ry="1.25"/><rect class="cls-1" x="387.49" y="280.09" width="29.11" height="6.02" rx="1.25" ry="1.25"/><rect class="cls-1" x="278.19" y="298.26" width="23.18" height="6.02" rx="1.25" ry="1.25"/><path class="cls-2" d="M277.77,142.35A87.6,87.6,0,0,0,165.17,265l-16.35,10.7L145,269.83a15,15,0,0,0-20.71-4.33L8.76,341.08A15,15,0,0,0,4.43,361.8l14.84,22.68A15,15,0,0,0,40,388.81L155.5,313.23a15,15,0,0,0,4.33-20.71L156,286.67l16.42-10.75A87.6,87.6,0,1,0,277.77,142.35ZM40.05,374.28a9.81,9.81,0,0,1-13.54-2.83l-7.22-11a9.81,9.81,0,0,1,2.83-13.54l36-23.58L76.09,350.7Zm45.77-29.95L67.89,316.92l14.81-9.69a1.64,1.64,0,0,0,.1.26l17.74,27.12.06.06Zm57.91-37.89-33.57,22s0-.06,0-.08L92.39,301.21a1.61,1.61,0,0,0-.19-.2l33.6-22a9.81,9.81,0,0,1,13.54,2.83l7.22,11A9.81,9.81,0,0,1,143.74,306.45Zm69.95-22.89A67.47,67.47,0,1,1,303,250,67.47,67.47,0,0,1,213.68,283.56Z"/></g></g></svg>