<svg xmlns="http://www.w3.org/2000/svg" viewBox="0 0 474.34 411.36"><title>Asset 125</title><g id="Layer_2" data-name="Layer 2"><g id="Layer_1-2" data-name="Layer 1"><path d="M313,68.75a5.62,5.62,0,0,0-1.36-3.43A6.26,6.26,0,0,0,308,63.45c-2.74-.52-9.51-1.51-18.78-2.64A61.74,61.74,0,0,0,286,53.57l10.15-14.06a5.41,5.41,0,0,0,1.6-3.82,5.35,5.35,0,0,0-1.34-3.44L279.76,14.84a5.62,5.62,0,0,0-3.38-1.48,6.26,6.26,0,0,0-3.93,1.27c-2.31,1.55-7.83,5.64-15.19,11.36a61.52,61.52,0,0,0-7.64-3L246.79,5.77a5.41,5.41,0,0,0-1.58-3.83A5.35,5.35,0,0,0,241.84.46L217.72,0a5.62,5.62,0,0,0-3.43,1.35A6.26,6.26,0,0,0,212.41,5c-.53,2.74-1.54,9.56-2.68,18.88A61.7,61.7,0,0,0,202.6,27l-14-10.21a5.41,5.41,0,0,0-3.81-1.61,5.35,5.35,0,0,0-3.45,1.32L163.84,33.14a5.62,5.62,0,0,0-1.49,3.37,6.26,6.26,0,0,0,1.25,3.94c1.54,2.32,5.61,7.85,11.3,15.24a61.55,61.55,0,0,0-3.14,8l-17.12,2.83a5.41,5.41,0,0,0-3.82,1.58,5.35,5.35,0,0,0-1.48,3.38l-.42,24.12a5.62,5.62,0,0,0,1.36,3.43,6.26,6.26,0,0,0,3.69,1.87c2.74.52,9.51,1.51,18.78,2.64a61.72,61.72,0,0,0,3.19,7.24l-10.15,14.06a5.41,5.41,0,0,0-1.6,3.82,5.35,5.35,0,0,0,1.34,3.44l16.69,17.41A5.62,5.62,0,0,0,185.6,151a6.26,6.26,0,0,0,3.93-1.27c2.31-1.55,7.83-5.64,15.19-11.36a61.59,61.59,0,0,0,7.73,3l2.78,17a5.41,5.41,0,0,0,1.58,3.83,5.35,5.35,0,0,0,3.38,1.48l24.12.46a5.62,5.62,0,0,0,3.43-1.35,6.26,6.26,0,0,0,1.88-3.68c.53-2.72,1.52-9.46,2.66-18.68a61.77,61.77,0,0,0,7.11-3.1l14,10.21a5.41,5.41,0,0,0,3.81,1.61,5.35,5.35,0,0,0,3.45-1.32l17.48-16.62a5.62,5.62,0,0,0,1.49-3.37,6.26,6.26,0,0,0-1.25-3.94c-1.54-2.32-5.61-7.85-11.3-15.24a61.54,61.54,0,0,0,3.14-8l17.12-2.83a5.41,5.41,0,0,0,3.82-1.58,5.35,5.35,0,0,0,1.48-3.38ZM230.38,114A31.84,31.84,0,1,1,262.83,82.8,31.84,31.84,0,0,1,230.38,114Z" style="fill:#f06a21"/><path d="M134.92,88V75.19H70.52a10.68,10.68,0,0,0-5.8,2.71,8.87,8.87,0,0,0-2.51,4.25V199.72c-7.89,2.61-13.53,9.44-13.53,17.49,0,10.29,9.21,18.63,20.58,18.63s20.58-8.34,20.58-18.63c0-8.1-5.72-15-13.7-17.54V88Z" style="fill:#f06a21"/><path d="M420.76,255.3H242.27V237.24c10.49-2.21,18.25-10,18.25-19.2s-7.76-17-18.25-19.2V173.31H228.19v26c-9.54,2.69-16.4,10.06-16.4,18.74s6.86,16.05,16.4,18.74V255.3H52.27a14.27,14.27,0,0,0-7.79,2.8,9.73,9.73,0,0,0-3.55,5.41,7.93,7.93,0,0,0,0,3.26v20.29a2.18,2.18,0,0,0,.71,1.55,3.31,3.31,0,0,0,1.88.83h8.75a3.3,3.3,0,0,0,1.94-.7,2.12,2.12,0,0,0,.8-1.81V266.78H228.19V287a2.05,2.05,0,0,0,.67,1.63,3.39,3.39,0,0,0,2.36.78h8.63a2.87,2.87,0,0,0,1.71-.49,1.88,1.88,0,0,0,.74-1.89q0-10.14,0-20.29H420.76q0,10.09,0,20.18a2.38,2.38,0,0,0,.94,1.78,3.61,3.61,0,0,0,2,.72l8,0a3.34,3.34,0,0,0,2.45-.63,2,2,0,0,0,.73-1.85V262a6.52,6.52,0,0,0-2.06-4.2,10.49,10.49,0,0,0-6.87-2.52Z" style="fill:#f06a21"/><path d="M329.15,88V75.19h64.4a10.68,10.68,0,0,1,5.8,2.71,8.87,8.87,0,0,1,2.51,4.25V199.72c7.89,2.61,13.53,9.44,13.53,17.49,0,10.29-9.21,18.63-20.58,18.63s-20.58-8.34-20.58-18.63c0-8.1,5.72-15,13.7-17.54V88Z" style="fill:#f06a21"/><path d="M48.6,316.85a17.68,17.68,0,1,0,17.68,17.68A17.68,17.68,0,0,0,48.6,316.85Zm0,23.4a5.72,5.72,0,1,1,5.72-5.72A5.72,5.72,0,0,1,48.6,340.25Z" style="fill:#f06a21"/><path d="M96.36,345.21l-7.8-4.31-.89.71a34.3,34.3,0,0,0,.81-7.08c0-20.06-17.79-39.72-39.81-39.81-20.12-.08-34.17,16.23-37.88,27.54a44.52,44.52,0,0,0-1.92,12.26c0,1.83,0,3.93.23,6.11L2.31,344A3.65,3.65,0,0,0,0,347.49l.28,41.19a1.39,1.39,0,0,0,.79,1.63l44.24,18.43a7.53,7.53,0,0,0,5.94.19l43-17.09s3.06-.9,3.06-3.75V348.34S97.54,345.88,96.36,345.21ZM48.6,400.74,9,385.19V354.53L48.6,370.09Zm27.3-50.93L50.32,360.23s-.62,1.07-3.61-.06l-26-10.66c-3.75-5.83-3.24-13.51-3.19-15,.47-14,12.24-31.05,31.05-31.05a31.05,31.05,0,0,1,31.05,31.05A34.47,34.47,0,0,1,75.9,349.81Z" style="fill:#f06a21"/><path d="M12.75,351.7" style="fill:none;stroke:#f06a21;stroke-miterlimit:10"/><path d="M237.69,318.79a17.68,17.68,0,1,0,17.68,17.68A17.68,17.68,0,0,0,237.69,318.79Zm0,23.4a5.72,5.72,0,1,1,5.72-5.72A5.72,5.72,0,0,1,237.69,342.19Z" style="fill:#f06a21"/><path d="M285.44,347.15l-7.8-4.31-.89.71a34.3,34.3,0,0,0,.81-7.08c0-20.06-17.79-39.72-39.81-39.81-20.12-.08-34.17,16.23-37.88,27.54a44.52,44.52,0,0,0-1.92,12.26c0,1.83,0,3.93.23,6.11l-6.78,3.36a3.65,3.65,0,0,0-2.31,3.49l.28,41.19a1.39,1.39,0,0,0,.79,1.63l44.24,18.43a7.53,7.53,0,0,0,5.94.19l43-17.09s3.06-.9,3.06-3.75V350.28S286.63,347.82,285.44,347.15Zm-47.76,55.53L198.1,387.13V356.47L237.69,372ZM265,351.75l-25.58,10.42s-.62,1.07-3.61-.06l-26-10.66c-3.75-5.83-3.24-13.51-3.19-15,.47-14,12.24-31.05,31.05-31.05a31.05,31.05,0,0,1,31.05,31.05A34.47,34.47,0,0,1,265,351.75Z" style="fill:#f06a21"/><path d="M201.83,353.64" style="fill:none;stroke:#f06a21;stroke-miterlimit:10"/><path d="M425.6,316.48a17.68,17.68,0,1,0,17.68,17.68A17.68,17.68,0,0,0,425.6,316.48Zm0,23.4a5.72,5.72,0,1,1,5.72-5.72A5.72,5.72,0,0,1,425.6,339.88Z" style="fill:#f06a21"/><path d="M473.36,344.84l-7.8-4.31-.89.71a34.3,34.3,0,0,0,.81-7.08c0-20.06-17.79-39.72-39.81-39.81-20.12-.08-34.17,16.23-37.88,27.54a44.52,44.52,0,0,0-1.92,12.26c0,1.83,0,3.93.23,6.11l-6.78,3.36a3.65,3.65,0,0,0-2.31,3.49l.28,41.19a1.39,1.39,0,0,0,.79,1.63l44.24,18.43a7.53,7.53,0,0,0,5.94.19l43-17.09s3.06-.9,3.06-3.75V348S474.54,345.52,473.36,344.84ZM425.6,400.37,386,384.82V354.17l39.59,15.55Zm27.3-50.93-25.58,10.42s-.62,1.07-3.61-.06l-26-10.66c-3.75-5.83-3.24-13.51-3.19-15,.47-14,12.24-31.05,31.05-31.05a31.05,31.05,0,0,1,31.05,31.05A34.47,34.47,0,0,1,452.9,349.44Z" style="fill:#f06a21"/><path d="M389.75,351.34" style="fill:none;stroke:#f06a21;stroke-miterlimit:10"/></g></g></svg>