<svg xmlns="http://www.w3.org/2000/svg" viewBox="0 0 384.25 412.57"><defs><style>.cls-1,.cls-2{fill:#f16a21;}.cls-1,.cls-3{stroke:#f16a21;stroke-miterlimit:10;}.cls-1{stroke-width:2px;}.cls-3{fill:none;}</style></defs><title>Asset 78</title><g id="Layer_2" data-name="Layer 2"><g id="Layer_1-2" data-name="Layer 1"><g id="Layer_2-2" data-name="Layer 2"><g id="Layer_1-2-2" data-name="Layer 1-2"><path class="cls-1" d="M267.24,214.06l5.63,4.58s31.27-41,23.43-87.59h-6.78S296.74,178.47,267.24,214.06Z"/><path class="cls-1" d="M255.69,211.81s26.15-30.07,23.53-68.18c0,0-3.18-26.7,11.36-27,0,0,15.32-2,16.66,14.38,0,0,6.34,47-20.35,86.28l5.75,3.44s21.2-27.45,22.52-75.82c0,0,2.77-36.74-22.52-34.88,0,0-21.6.41-20.55,20.92,0,0,6.88,45.12-21.14,75.82Z"/><path class="cls-1" d="M240.37,202.87s8.72-9.52,10.58-15.32l-5.23-3.7s-6.08,10.3-9.52,13.48Z"/><path class="cls-1" d="M307.49,215.82l6.34,3.7s13.07-20.79,15.15-41.4l-7.14-1.61S318.63,199.26,307.49,215.82Z"/><path class="cls-1" d="M249.75,172.34l6.88,2.5A68,68,0,0,0,262.41,145s-3.7-21.32,2.12-28.54c0,0,13.22-24.84,39.64-14.63l1.76-6.88s-24.08-8.28-40.64,8.47a41.65,41.65,0,0,0-10.46,35.94S256.75,164.29,249.75,172.34Z"/><path class="cls-1" d="M222.84,185.66l5.11,4.41s15.32-17.06,16.55-41.9c0,0-3.18-29.6,2.29-35.3l-6-2.89s-6.69,10.17-3.23,36.07C237.57,146.05,238.88,168.77,222.84,185.66Z"/><path class="cls-1" d="M211.91,170.37l6.05,4.48a60.7,60.7,0,0,0,9-28.76s-7.67-39.86,18.8-62.58l-4.58-5.11a71.6,71.6,0,0,0-22.38,52.66S222.49,164.55,211.91,170.37Z"/><path class="cls-1" d="M202.28,141.83s-2.82-17.79,0-24.84l6.34,1.23s-2.29,17.27,0,23.61Z"/><path class="cls-1" d="M254.11,100.33s29.6-38.87,69.74-7.43l5.11-5S288.44,53,249.07,95.84Z"/><path class="cls-1" d="M252.52,69.42l3.7,5.12s31.53-20.43,62-5.1l2.89-5.7A71.3,71.3,0,0,0,252.52,69.42Z"/><path class="cls-1" d="M330.22,74.54S364.06,93,360.88,148.72h6.88s7.09-55.78-34.37-79.58Z"/><path class="cls-1" d="M324.93,159.79h6.88s5.82-43.34-12.42-56.55l-4.14,4.5S329.95,118.57,324.93,159.79Z"/><polygon class="cls-1" points="359.55 164.55 366.81 164.55 362.46 190.05 355.99 188.6 359.55 164.55"/><path class="cls-1" d="M333.45,103.3l5.62-4.43s13.54,13.09,11.49,49.82c0,0-1.58,49.32-13.22,61.31l-6-3S357.93,138.13,333.45,103.3Z"/><path class="cls-1" d="M212.62,104.12l-7-2.73s18.84-61.31,88.13-62.15c0,0,35.15-2.61,69,32.42l.52.75-5.44,4.21s-29.23-32-65.22-31C292.63,45.62,234.82,44.75,212.62,104.12Z"/><path class="cls-1" d="M364.71,87.42l6.08-4s11.49,17.84,12.42,36.74l-6.34,1.06S375.4,100,364.71,87.42Z"/></g></g><path id="_Compound_Path_" data-name="&lt;Compound Path&gt;" class="cls-2" d="M121.6,0h-91A30.61,30.61,0,0,0,0,30.58V198.82A30.61,30.61,0,0,0,30.58,229.4h91a30.61,30.61,0,0,0,30.58-30.58V30.58A30.61,30.61,0,0,0,121.6,0Zm-91,8h91a22.6,22.6,0,0,1,21.81,16.81H8.77A22.6,22.6,0,0,1,30.58,8ZM8,32.85H144.15V185.34H8ZM121.6,221.38h-91A22.58,22.58,0,0,1,8,198.82v-5.46H144.15v5.46A22.58,22.58,0,0,1,121.6,221.38Z"/><path id="_Path_" data-name="&lt;Path&gt;" class="cls-2" d="M86.38,200.78H65.79a4,4,0,1,0,0,8H86.38a4,4,0,1,0,0-8Z"/><path class="cls-3" d="M123.88,62.35H33.63A12.83,12.83,0,0,0,20.84,75.14V139.8l18.61-21.32h84.43a12.83,12.83,0,0,0,12.79-12.79V75.14A12.83,12.83,0,0,0,123.88,62.35Z"/><circle class="cls-2" cx="45.61" cy="90.82" r="10.26"/><circle class="cls-2" cx="79.87" cy="90.82" r="10.26"/><circle class="cls-2" cx="114.12" cy="90.82" r="10.26"/><path class="cls-2" d="M268.94,313.39,240.4,239.32a29.23,29.23,0,0,0-24.4-9.78L3.73,315.74l26.64,69.15,5.76,14.6,55.15,13.08,168.34-68.36a28.89,28.89,0,0,0,9.32-30.82ZM16.32,320l24.57-11,5.25,12.39-24.57,11ZM24.83,340l24.57-11,5.25,12.39-24.57,11Zm179.75-31.28a14.69,14.69,0,1,1,18.17-9.67A14.55,14.55,0,0,1,204.58,308.76ZM33.43,360.63l24.57-11,5.25,12.39L38.68,373ZM47,392.69,41.77,380.3l24.57-11,5.25,12.39Z"/></g></g></svg>