<svg xmlns="http://www.w3.org/2000/svg" viewBox="0 0 301.67 311.34"><defs><style>.cls-1{fill:#f16a21;}.cls-2{fill:#fff;}</style></defs><title>Asset 28</title><g id="Layer_2" data-name="Layer 2"><g id="Layer_1-2" data-name="Layer 1"><path class="cls-1" d="M2.8,23.45S25.27.77,91.84.14c0,0,47.38-2.5,84.52,13.26,0,0,14.67,6.24,17.48,13.89,0,0,3,5-3.9,10.92,0,0-13.89,14-59.3,19.51,0,0-29.65,6.4-74.28-1.56,0,0-44.42-5.93-53.57-19.19C2.8,37-3.5,30.05,2.8,23.45Z"/><path class="cls-1" d="M194.48,48.2S168.07,71.3,97.24,70.36c0,0-58.74,2.5-97.24-22.16v67.41s13.28,28.09,97.24,27.78c0,0,44,1.56,97.24-28.09Z"/><path class="cls-1" d="M194.48,131.26s-26.41,23.09-97.24,22.16c0,0-58.74,2.5-97.24-22.16v67.41s13.28,28.09,97.24,27.78c0,0,44,1.56,97.24-28.09Z"/><path class="cls-1" d="M194.48,216.14s-26.41,23.09-97.24,22.16c0,0-58.74,2.5-97.24-22.16v67.41s13.28,28.09,97.24,27.78c0,0,44,1.56,97.24-28.09Z"/><path class="cls-1" d="M115.18,137.39l-12.15,42,17.56,6L121,197.1l-17.43,6.62,18.31,40.78,15-4.58,7.07,6.66v19.14l37.45,14.56,8.32-16.44h9.57l7,12.94,26.51-12.94L271,225.2l9.83-11.5,3.74-17.89v-20l-3.33-24.13L271,130.53l-20.55-15.86L226.28,103l-24.55-5.41-3.33,16.64-13.73-1.66-8.32-15L138.9,113.42l4.58,20.81-10,8.32Z"/><path class="cls-2" d="M206.9,262.08s-2.08-4-5.83-3.74l-13.11.83s-2.7-.42-4.16,3.54l-4.58,12.9-32.46-11.87,4.16-13.51s1.87-3.15-.39-5.41l-9.67-9.52a5.37,5.37,0,0,0-5.93-.55l-11.86,5.77-14.49-31.39,11.75-5.2s4.89-1.35,4.68-5.51l-.73-13.11s.52-3.64-3.64-4.89l-12.9-4.58,12.43-33.08,12.48,5.31a4.14,4.14,0,0,0,5.36-.42l10.82-10.92s2.08-1.27,0-5.47l-5.62-12.42,31.42-14.15,5.41,12.17s1.46,3.33,4,3.64l15.6-.52s1.87.52,4.16-4.58l4.37-12.28,32.35,12-4.89,12.38s-2,4,.94,6.66l9.57,9.27s1.35,2.69,7,.61l11.55-5.41,14,31.42-10.92,4.58s-5.62,1.77-5.41,5.72l.73,13.52s-.52,3.12,4.27,4.79l11.76,4.68-7.7,22.16-.47.47,24.39-13.58-8-69-30.43-34L195.14,91.59v14.15l-1.72,3.64-5.88-.1L181.72,94.6c-2.29-5.62-8.53-1.66-8.53-1.66s-33.5,15.5-39.53,17.79-3.22,7.39-3.22,7.39l6.45,14L132.31,137l-13.52-5c-5.93-2.08-7.91,2.81-7.91,2.81l-7.23,18.67L95.75,175c-2.65,6.14,2,8.17,2,8.17l14.51,5.2.21,6.35L97.24,202C93.69,204,96,207.68,96,207.68l8.17,18,4.86,11.4,6.79,13.5c2.22,3.71,6.79.74,6.79.74l13-5.62,4.45,4.21-5,14.43c-2,5.77,2.81,7.41,2.81,7.41l18.65,7.28L181,288a4.32,4.32,0,0,0,5.41-2.6l.88-1.92L192,269.11l2.46.1v14l38.22-18.65-20.6,8.95Z"/><path class="cls-2" d="M270.93,225.94l-27.52-23.46s9.47-30.06-8-49c0,0-20.39-25-54.09-11.23a6.25,6.25,0,0,0-5,5,6.83,6.83,0,0,0,1.66,5c2.08,2.7,23.51,23.51,23.51,23.51l-19.35,18.93-22.68-23.93s-4.79-3.74-7.91-.52c0,0-7.8,9.47-4.89,35.58a44.94,44.94,0,0,0,24.24,30.43s19.82,8.11,37.14,0l24.65,28.35,38.23-38.64Z"/><path class="cls-1" d="M297.61,263.07l-65.22-56s-1.87-2.5-.16-6.87c0,0,8.27-17.32.47-31.21,0,0-4.53-14.67-25-19,0,0-9.05-1.25-17,1.25L213,173.66s3.43,3.28.47,6.09l-27,27s-3.59,3.74-8.27-.31l-21.07-22.31s-3.74,16.85,2.34,27.15c0,0,5.93,15.29,26.84,18.1,0,0,10.77,1.21,17.94-2.91l2-1s3.77-3.21,9.21,3.12l52.74,61.48s9.67,11.86,23.41,1.56a21.86,21.86,0,0,0,10-18.72S301.67,266.66,297.61,263.07Zm-15,19.23a5.1,5.1,0,1,1,5.1-5.1A5.1,5.1,0,0,1,282.63,282.3Z"/></g></g></svg>