<svg xmlns="http://www.w3.org/2000/svg" viewBox="0 0 237.39 252.14"><title>Asset 123</title><g id="Layer_2" data-name="Layer 2"><g id="Layer_1-2" data-name="Layer 1"><path d="M59,198.76H28.09V28.8H159.43V42h27.39V21.07A21.07,21.07,0,0,0,165.75,0H21.07A21.07,21.07,0,0,0,0,21.07V206.49a21.07,21.07,0,0,0,21.07,21.07H59Z" style="fill:#f06a21"/><path d="M218.43,52.68H139.06a19,19,0,0,0-19,19v42.14h12.64V93.06h94.82v119H178.75v11a11.1,11.1,0,1,1,0,22.2v6.85h39.68a19,19,0,0,0,19-19V71.64A19,19,0,0,0,218.43,52.68ZM193.32,82H167a7.37,7.37,0,1,1,0-14.75h26.34a7.37,7.37,0,0,1,0,14.75Z" style="fill:#f06a21"/><path d="M181.33,178.39a3.44,3.44,0,0,0-.63-1.42,4,4,0,0,0-1.51-1.09,114.28,114.28,0,0,0-11.95-2.21,48.15,48.15,0,0,0-5.93-14.28c4-5.46,6.53-9.15,6.93-10a3.6,3.6,0,0,0,.36-1.47,3.44,3.44,0,0,0-.59-1.79,37,37,0,0,0-9.18-9.18,3.44,3.44,0,0,0-1.45-.56,4,4,0,0,0-1.84.29,114.34,114.34,0,0,0-10,6.89,48.15,48.15,0,0,0-14.27-5.91c-1.07-6.74-1.87-11.22-2.16-12.07a3.6,3.6,0,0,0-.79-1.29,3.44,3.44,0,0,0-1.68-.85,37,37,0,0,0-13,0,3.44,3.44,0,0,0-1.42.63,4,4,0,0,0-1.09,1.51,116,116,0,0,0-2.23,12.09,48.15,48.15,0,0,0-14.26,5.93c-5.46-4-9.15-6.53-10-6.93a3.6,3.6,0,0,0-1.47-.36,3.44,3.44,0,0,0-1.79.59,37,37,0,0,0-9.18,9.18,3.44,3.44,0,0,0-.56,1.45,4,4,0,0,0,.29,1.84,114.33,114.33,0,0,0,6.89,10,48.15,48.15,0,0,0-5.91,14.29c-6.66,1.06-11.08,1.85-11.93,2.14a3.6,3.6,0,0,0-1.29.79,3.44,3.44,0,0,0-.85,1.68,37,37,0,0,0,0,13,3.44,3.44,0,0,0,.63,1.42A4,4,0,0,0,61,193.84,114.28,114.28,0,0,0,73,196.05a48.15,48.15,0,0,0,5.93,14.28c-4,5.46-6.53,9.15-6.93,10a3.6,3.6,0,0,0-.36,1.47,3.44,3.44,0,0,0,.59,1.79,37,37,0,0,0,9.18,9.18,3.44,3.44,0,0,0,1.45.56,4,4,0,0,0,1.84-.29,114.34,114.34,0,0,0,10-6.89A48.15,48.15,0,0,0,109,232c1.05,6.58,1.83,10.95,2.12,11.79a3.6,3.6,0,0,0,.79,1.29,3.44,3.44,0,0,0,1.68.85,37,37,0,0,0,13,0,3.44,3.44,0,0,0,1.42-.63,4,4,0,0,0,1.09-1.51A112.59,112.59,0,0,0,131.27,232a48.15,48.15,0,0,0,14.3-5.94c5.46,4,9.15,6.53,10,6.93a3.6,3.6,0,0,0,1.47.36,3.44,3.44,0,0,0,1.79-.59,37,37,0,0,0,9.18-9.18,3.44,3.44,0,0,0,.56-1.45,4,4,0,0,0-.29-1.84,114.33,114.33,0,0,0-6.89-10A48.15,48.15,0,0,0,167.26,196c6.66-1.06,11.08-1.85,11.93-2.14a3.6,3.6,0,0,0,1.29-.79,3.44,3.44,0,0,0,.85-1.68A37,37,0,0,0,181.33,178.39Zm-61.23,32a25.54,25.54,0,1,1,25.54-25.54A25.54,25.54,0,0,1,120.1,210.4Z" style="fill:#f06a21"/></g></g></svg>