<svg xmlns="http://www.w3.org/2000/svg" viewBox="0 0 445.57 460"><defs><style>.cls-1{fill:#f16a21;}</style></defs><title>Asset 54</title><g id="Layer_2" data-name="Layer 2"><g id="Layer_1-2" data-name="Layer 1"><g id="_Group_" data-name="&lt;Group&gt;"><path id="_Compound_Path_" data-name="&lt;Compound Path&gt;" class="cls-1" d="M227.89,0H57.31A57.37,57.37,0,0,0,0,57.31V372.62a57.37,57.37,0,0,0,57.31,57.31H227.89a57.37,57.37,0,0,0,57.31-57.31V57.31A57.37,57.37,0,0,0,227.89,0ZM57.31,15H227.89a42.35,42.35,0,0,1,40.88,31.5H16.43A42.35,42.35,0,0,1,57.31,15ZM15,61.57H270.16V347.35H15ZM227.89,414.89H57.31A42.32,42.32,0,0,1,15,372.62V362.39H270.16v10.23A42.32,42.32,0,0,1,227.89,414.89Z"/><path id="_Path_" data-name="&lt;Path&gt;" class="cls-1" d="M161.9,376.3H123.3a7.52,7.52,0,1,0,0,15h38.6a7.52,7.52,0,1,0,0-15Z"/><path id="_Compound_Path_2" data-name="&lt;Compound Path&gt;" class="cls-1" d="M387.44,144.26h-19a58.2,58.2,0,0,0-58.14,58.13V452.48a7.52,7.52,0,0,0,7.52,7.52H438.06a7.52,7.52,0,0,0,7.52-7.52V202.4A58.2,58.2,0,0,0,387.44,144.26ZM430.54,445H325.29V202.4a43.15,43.15,0,0,1,43.1-43.1h19a43.15,43.15,0,0,1,43.1,43.1V445Z"/><path id="_Compound_Path_3" data-name="&lt;Compound Path&gt;" class="cls-1" d="M395.21,174.34H360.62a26.34,26.34,0,0,0-26.31,26.31v46.86a7.52,7.52,0,0,0,7.52,7.52H414a7.52,7.52,0,0,0,7.52-7.52V200.65A26.34,26.34,0,0,0,395.21,174.34ZM406.48,240H349.35V200.65a11.29,11.29,0,0,1,11.28-11.28h34.58a11.29,11.29,0,0,1,11.28,11.28Z"/><path id="_Path_2" data-name="&lt;Path&gt;" class="cls-1" d="M414,264.55H341.83a7.52,7.52,0,1,0,0,15H414a7.52,7.52,0,0,0,0-15Z"/><path id="_Path_3" data-name="&lt;Path&gt;" class="cls-1" d="M202.1,126.72a77.06,77.06,0,0,0-55.31-22.55c-42.51.32-77.09,35.56-77.09,78.56v39.21a47.66,47.66,0,0,0,47.61,47.61h10a7.52,7.52,0,0,0,0-15h-10a32.61,32.61,0,0,1-32.58-32.58V182.73c0-34.77,27.89-63.27,62.17-63.53h.48A62.64,62.64,0,0,1,210,181.85V252a7.52,7.52,0,1,0,15,0V181.85A77.15,77.15,0,0,0,202.1,126.72Z"/><path id="_Path_4" data-name="&lt;Path&gt;" class="cls-1" d="M147.38,149.28a7.52,7.52,0,0,0,0-15,47.66,47.66,0,0,0-47.61,47.61v31.74a25.92,25.92,0,0,0,25.89,25.89h1.67a7.52,7.52,0,0,0,0-15h-1.67a10.87,10.87,0,0,1-10.86-10.86V181.85A32.61,32.61,0,0,1,147.38,149.28Z"/><path id="_Path_5" data-name="&lt;Path&gt;" class="cls-1" d="M149.38,164.31a22.58,22.58,0,0,0-22.55,22.55v15a7.52,7.52,0,0,0,15,0v-15a7.52,7.52,0,1,1,15,0v30.07a7.53,7.53,0,0,1-7.52,7.52,7.52,7.52,0,0,0,0,15,22.58,22.58,0,0,0,22.55-22.55V186.87A22.58,22.58,0,0,0,149.38,164.31Z"/><path id="_Path_6" data-name="&lt;Path&gt;" class="cls-1" d="M182.06,151.86a7.52,7.52,0,0,0-9.29,11.82A22.1,22.1,0,0,1,180,178.15V228a7.52,7.52,0,0,0,15,0V177.84c0-.19,0-.38,0-.58A37.42,37.42,0,0,0,182.06,151.86Z"/></g></g></g></svg>