<svg xmlns="http://www.w3.org/2000/svg" viewBox="0 0 496 496"><defs><style>.cls-1{fill:#f16a21;}</style></defs><title>Asset 44</title><g id="Layer_2" data-name="Layer 2"><g id="Layer_1-2" data-name="Layer 1"><path class="cls-1" d="M48,160H80v16H48Z"/><path class="cls-1" d="M472,128a24,24,0,0,0,24-24V24A24,24,0,0,0,472,0H360a24,24,0,0,0-24,24v80a24,24,0,0,0,24,24h24v16H368v16h40v80H375a55.93,55.93,0,0,0-23-13.62c0-.81.05-1.59.05-2.37a64,64,0,0,0-117.9-34.39A63.67,63.67,0,0,0,208,184a64.35,64.35,0,0,0-59.81,41.28A55.62,55.62,0,0,0,131.3,232H72V208h32a24,24,0,0,0,24-24V24A24,24,0,0,0,104,0H24A24,24,0,0,0,0,24V184a24,24,0,0,0,24,24H56v40h58.29a55.69,55.69,0,0,0-7.78,16H72v88H40a24,24,0,0,0-24,24v72H0v24a24,24,0,0,0,24,24H152a24,24,0,0,0,24-24V448H160V376a24,24,0,0,0-24-24H88V280h16a56.07,56.07,0,0,0,56,56H336a56,56,0,0,0,55.36-48H424v64H368V496H496V352H440V272H391.33a55.37,55.37,0,0,0-5-16H424V160h40V144H448V128Zm-360,0H16V48h96ZM24,16h80a8,8,0,0,1,8,8v8H16V24A8,8,0,0,1,24,16ZM16,184V144h96v40a8,8,0,0,1-8,8H24A8,8,0,0,1,16,184ZM160,472a8,8,0,0,1-8,8H24a8,8,0,0,1-8-8v-8H160Zm-16-96v72H32V376a8,8,0,0,1,8-8h96A8,8,0,0,1,144,376ZM384,480V432h96v48Zm96-64H384V368h96ZM336,320H160a40,40,0,0,1-4.8-79.68l5.25-.63,1.48-5.08a47.86,47.86,0,0,1,71.18-27.45l7.64,4.71,3.81-8.14a47.89,47.89,0,0,1,90.82,27.66l-1.21,7.91,7.91,1.2A40,40,0,0,1,336,320ZM360,16H472a8,8,0,0,1,8,8V80H352V24A8,8,0,0,1,360,16Zm-8,88V96H480v8a8,8,0,0,1-8,8H360A8,8,0,0,1,352,104Zm80,40H400V128h32Z"/><path class="cls-1" d="M400,384h16v16H400Z"/><path class="cls-1" d="M448,448h16v16H448Z"/><path class="cls-1" d="M432,384h32v16H432Z"/><path class="cls-1" d="M400,448h32v16H400Z"/></g></g></svg>