<svg xmlns="http://www.w3.org/2000/svg" viewBox="0 0 483.62 389.84"><title>Asset 124</title><g id="Layer_2" data-name="Layer 2"><g id="Layer_1-2" data-name="Layer 1"><path d="M465.83,191.36H256.42a17.84,17.84,0,0,0-17.79,17.79V339.82a17.84,17.84,0,0,0,17.79,17.79h86.76a3.15,3.15,0,0,0-3.15,3.15v11.79H320a7.37,7.37,0,0,0-7.37,7.37v2.54a7.37,7.37,0,0,0,7.37,7.37h81.83a7.37,7.37,0,0,0,7.37-7.37v-2.54a7.37,7.37,0,0,0-7.37-7.37H381.71V360.76a3.15,3.15,0,0,0-3.15-3.15h87.27a17.84,17.84,0,0,0,17.79-17.79V209.15A17.84,17.84,0,0,0,465.83,191.36ZM460,334.19H262V214.74H460Z" style="fill:#f06a21"/><path d="M227.2,0H17.79A17.84,17.84,0,0,0,0,17.79V148.46a17.84,17.84,0,0,0,17.79,17.79h86.76a3.15,3.15,0,0,0-3.15,3.15V181.2H81.32A7.37,7.37,0,0,0,74,188.57v2.54a7.37,7.37,0,0,0,7.37,7.37h81.83a7.37,7.37,0,0,0,7.37-7.37v-2.54a7.37,7.37,0,0,0-7.37-7.37H143.08V169.4a3.15,3.15,0,0,0-3.15-3.15H227.2A17.84,17.84,0,0,0,245,148.46V17.79A17.84,17.84,0,0,0,227.2,0Zm-5.78,142.82h-198V23.38h198Z" style="fill:#f06a21"/><circle cx="284.88" cy="71.67" r="9.53" style="fill:#f06a21"/><circle cx="326.05" cy="71.67" r="9.53" style="fill:#f06a21"/><circle cx="366.71" cy="71.67" r="9.53" style="fill:#f06a21"/><circle cx="366.71" cy="112.84" r="9.53" style="fill:#f06a21"/><circle cx="366.71" cy="155.53" r="9.53" style="fill:#f06a21"/><circle cx="120.46" cy="236.6" r="9.53" style="fill:#f06a21"/><circle cx="120.46" cy="279.04" r="9.53" style="fill:#f06a21"/><circle cx="120.46" cy="320.21" r="9.53" style="fill:#f06a21"/><circle cx="160.24" cy="320.21" r="9.53" style="fill:#f06a21"/><circle cx="202.62" cy="320.21" r="9.53" style="fill:#f06a21"/><path d="M184,67.6l-2.23-4.45c-.85-1.44-2.71-.41-2.71-.41l-8.71,2.92a34.62,34.62,0,0,0-4.71-5l3.68-9.29a1.21,1.21,0,0,0-.72-1.7l-4.23-2.61c-1.48-.78-2.52,1.08-2.52,1.08l-5.6,6.71a35.08,35.08,0,0,0-6.83-2.07L147.86,43a1.21,1.21,0,0,0-1.48-1.11l-5-.13c-1.67.07-1.64,2.2-1.64,2.2l-1.44,8.51a34.72,34.72,0,0,0-7.05,1.66l-6.12-7.78a1.21,1.21,0,0,0-1.83-.23l-4.39,2.34c-1.42.88-.34,2.72-.34,2.72l3,8.16a34.62,34.62,0,0,0-5.15,4.83l-9.29-3.58a1.21,1.21,0,0,0-1.7.74l-2.58,4.25c-.77,1.48,1.1,2.51,1.1,2.51l6.63,5.44a35.07,35.07,0,0,0-2.2,7.45l-9.27,1.29A1.21,1.21,0,0,0,98,83.72l-.19,5c0,1.67,2.18,1.66,2.18,1.66l8.18,1.49A34.74,34.74,0,0,0,110,99l-7.38,5.51a1.21,1.21,0,0,0-.28,1.83l2.23,4.45c.85,1.44,2.71.41,2.71.41l8-2.67a34.62,34.62,0,0,0,4.91,5.11l-3.51,8.8a1.21,1.21,0,0,0,.72,1.7l4.23,2.62c1.47.78,2.53-1.07,2.53-1.07l5.36-6.39a35.07,35.07,0,0,0,7.12,2.08l1.43,9.54A1.21,1.21,0,0,0,139.5,132l5,.14c1.67-.07,1.64-2.2,1.64-2.2l1.44-8.38a34.75,34.75,0,0,0,7.08-1.77l6.1,7.79a1.21,1.21,0,0,0,1.83.24l4.39-2.33c1.42-.88.34-2.72.34-2.72l-3-8.34a34.63,34.63,0,0,0,5.15-5l9,3.82a1.21,1.21,0,0,0,1.72-.68l2.72-4.16c.82-1.46-1-2.55-1-2.55L175.12,100a35.07,35.07,0,0,0,1.94-6.79l10-1.26a1.21,1.21,0,0,0,1.14-1.45l.25-5c0-1.67-2.16-1.69-2.16-1.69l-9-1.76a34.74,34.74,0,0,0-1.64-6.62l8.05-6A1.21,1.21,0,0,0,184,67.6ZM165.19,94.15,164.5,96a3.22,3.22,0,0,1-4.13,1.89l-23.5-8.72-2.74,7.33c-1.08,1.71-2.68.16-2.68.16l-10-16.44c-1.06-1.9,1.14-2.3,1.14-2.3l16.95-5.4c3.67-1.26,3,1.49,3,1.49l-2.73,7.29L163.29,90A3.22,3.22,0,0,1,165.19,94.15Z" style="fill:#f06a21"/><path d="M105.48,50.2l-6.9.53A22.19,22.19,0,0,0,94,44.42L97,37.15a1.22,1.22,0,0,0-.52-1.65L92.37,33c-1.05-.66-2.11.78-2.11.78L85.5,39.24A22.28,22.28,0,0,0,78,38.12l-2.88-7a1.22,1.22,0,0,0-1.53-.82L68.9,31.35c-1.21.26-1,2-1,2l.38,7.22A22.16,22.16,0,0,0,62.39,45L55,42.37a1.22,1.22,0,0,0-1.63.59l-2.3,4.19c-.62,1.08.87,2.08.87,2.08l5.39,4.36a22.29,22.29,0,0,0-1.06,7.17L48.36,64.5a1.22,1.22,0,0,0-.73,1.57L49,70.65c.32,1.2,2.09.86,2.09.86l7.72-.83a22.16,22.16,0,0,0,4.1,5.56L59.7,84.11a1.22,1.22,0,0,0,.52,1.65l4.09,2.46c1.05.66,2.12-.78,2.12-.78l5.17-5.9a22.29,22.29,0,0,0,6.94,1.11l3.34,7.8a1.22,1.22,0,0,0,1.54.79l4.63-1.17C89.26,89.8,89,88,89,88l-.54-7.72a22.18,22.18,0,0,0,5.86-4.23l7.7,3.11a1.22,1.22,0,0,0,1.65-.52l2.46-4.1c.66-1.05-.78-2.12-.78-2.12l-5.72-5a22.3,22.3,0,0,0,1.16-7L108,57.29a1.22,1.22,0,0,0,.78-1.55l-1.2-4.62C107.25,49.91,105.48,50.2,105.48,50.2ZM91.63,66.58l-11.1,3.58c-2.4.84-2-1-2-1l1.77-4.79L64.93,58.74A2.11,2.11,0,0,1,63.68,56l.45-1.21a2.11,2.11,0,0,1,2.7-1.25l15.43,5.66L84,54.42c.71-1.12,1.76-.11,1.76-.11l6.58,10.76C93.07,66.31,91.63,66.58,91.63,66.58Z" style="fill:#ee9022"/></g></g></svg>