<svg xmlns="http://www.w3.org/2000/svg" viewBox="0 0 523.62 342.74"><title>Asset 126</title><g id="Layer_2" data-name="Layer 2"><g id="Layer_1-2" data-name="Layer 1"><g id="_Group_" data-name="&lt;Group&gt;"><path id="_Compound_Path_" data-name="&lt;Compound Path&gt;" d="M259.71,129.43a34.43,34.43,0,0,0-28.36,33.85v1.59h-176V25.8H259.71ZM28.61,11.62A11.63,11.63,0,0,1,40.23,0H274.84a11.63,11.63,0,0,1,11.62,11.62V128.9h-12.8V18.82a7,7,0,0,0-7-7H48.39a7,7,0,0,0-7,7v146H28.61Zm-10.94,189A17.7,17.7,0,0,1,0,183v-4.13H231.35v21.81H17.68Z" style="fill:#f06a21"/><path d="M260.46,160.92a7,7,0,0,1,7-7h218.3a7,7,0,0,1,7,7V307.1h12.8V153.73a11.63,11.63,0,0,0-11.62-11.62H259.28a11.63,11.63,0,0,0-11.62,11.62V307h12.8Z" style="fill:#f06a21"/><polygon points="479.17 307.33 479.17 168.26 478.76 168.26 478.76 167.9 274.41 167.9 274.41 306.97 409.83 306.97 409.83 307.33 479.17 307.33" style="fill:#f06a21"/><path d="M292.27,320.43v.49H219v4.13a17.7,17.7,0,0,0,17.68,17.68H450.4v-.49h55.55a17.7,17.7,0,0,0,17.68-17.68v-4.13Z" style="fill:#f06a21"/><path d="M151.5,172a61.52,61.52,0,0,0-4.67,60.33A83,83,0,0,0,166.18,256c21,17.62,44.86,19.46,53.62,19.69l-4.39,27.61,62.07-38.53L230.42,211.5l-5,30a117.24,117.24,0,0,1-20.15-1.89c-10-1.82-18.73-3.4-27.58-9.42a51,51,0,0,1-15.32-16.64A88.61,88.61,0,0,1,151.5,172Z" style="fill:#f06a21;stroke:#fff;stroke-miterlimit:10;stroke-width:5px"/><path d="M381,172a61.52,61.52,0,0,0,5.07-60.3,83,83,0,0,0-19.19-23.76c-20.9-17.76-44.73-19.75-53.49-20L318,40.28,255.65,78.4l46.7,53.53,5.23-30a117.24,117.24,0,0,1,20.14,2c10,1.88,18.7,3.53,27.52,9.6a51,51,0,0,1,15.21,16.74A88.61,88.61,0,0,1,381,172Z" style="fill:#f06a21;stroke:#fff;stroke-miterlimit:10;stroke-width:5px"/></g><path d="M211.05,112.65l-.17-4.83c-.17-1.61-2.23-1.46-2.23-1.46l-8.88-1a33.67,33.67,0,0,0-2.15-6.31l7-6.72a1.18,1.18,0,0,0,.05-1.8l-2.68-4c-1-1.29-2.67-.07-2.67-.07l-7.67,3.66a34.11,34.11,0,0,0-5.19-4.59l2.67-9.3a1.18,1.18,0,0,0-.86-1.58l-4.34-2.13c-1.5-.61-2.34,1.28-2.34,1.28l-4.72,6.93A33.76,33.76,0,0,0,170,79.36L167.72,70a1.18,1.18,0,0,0-1.53-.95l-4.83.29c-1.61.21-1.4,2.27-1.4,2.27L159.27,80a33.67,33.67,0,0,0-6.51,2.18L146,75.28a1.18,1.18,0,0,0-1.8,0l-4,2.71c-1.28,1,0,2.67,0,2.67l3.66,7.5a34.1,34.1,0,0,0-5,5.69l-8.71-2.62a1.18,1.18,0,0,0-1.59.84l-2.18,4.32c-.63,1.49,1.25,2.36,1.25,2.36l6.63,4.63a33.79,33.79,0,0,0-1.33,7.08l-8.76,1.88a1.18,1.18,0,0,0-1,1.5l.17,4.83c.17,1.61,2.23,1.46,2.23,1.46l8.15.88a33.67,33.67,0,0,0,2.27,6.51l-6.67,6.36a1.18,1.18,0,0,0-.06,1.8l2.67,4c1,1.29,2.67.08,2.67.08l7.33-3.48a34.1,34.1,0,0,0,5.45,4.72l-2.61,9a1.18,1.18,0,0,0,.86,1.58l4.34,2.14c1.5.62,2.34-1.28,2.34-1.28l4.67-6.82a33.79,33.79,0,0,0,7,1.31l2.23,9.36a1.18,1.18,0,0,0,1.52,1l4.83-.28c1.61-.2,1.41-2.27,1.41-2.27l.73-8.59a33.67,33.67,0,0,0,6.58-2.32l6.4,7a1.18,1.18,0,0,0,1.8.1l4.09-2.58c1.31-1,.14-2.66.14-2.66l-3.56-8a34.1,34.1,0,0,0,4.47-5.21l9.34,2.93a1.18,1.18,0,0,0,1.6-.82l2.24-4.29c.65-1.49-1.22-2.37-1.22-2.37l-7.27-5.22a33.78,33.78,0,0,0,1.24-6.51l9.56-2.05A1.18,1.18,0,0,0,211.05,112.65ZM183.7,128.51l-1.36,1.36a3.13,3.13,0,0,1-4.42,0l-17.24-17.24L155.3,118c-1.65,1.07-2.43-.95-2.43-.95l-2.15-18.57c-.17-2.1,1.94-1.57,1.94-1.57L169.82,99c3.76.37,2,2.52,2,2.52l-5.37,5.34,17.22,17.22A3.13,3.13,0,0,1,183.7,128.51Z" style="fill:#f06a21;stroke:#fff;stroke-miterlimit:10;stroke-width:2px"/><path d="M145.38,62.87l-6.31-2.33a21.58,21.58,0,0,0-1.45-7.42l5.55-5.24a1.19,1.19,0,0,0,.21-1.67l-2.62-3.84c-.66-1-2.19-.17-2.19-.17l-6.4,2.87A21.67,21.67,0,0,0,126,41l.31-7.4a1.19,1.19,0,0,0-1-1.34l-4.55-.92c-1.18-.26-1.68,1.41-1.68,1.41l-2.59,6.53a21.55,21.55,0,0,0-7,1.51l-5.46-5.35a1.19,1.19,0,0,0-1.68-.14L98.53,38.1c-1,.7-.08,2.19-.08,2.19l3,6a21.67,21.67,0,0,0-3.85,5.91l-8.49.11a1.19,1.19,0,0,0-1.28,1.09L87.15,58c-.2,1.19,1.5,1.6,1.5,1.6L95.8,62a21.55,21.55,0,0,0,1.37,6.58l-6,5.67A1.19,1.19,0,0,0,91,75.94l2.62,3.84c.66,1,2.19.17,2.19.17l7-3.12a21.68,21.68,0,0,0,5.68,3.79l-.21,8.25a1.19,1.19,0,0,0,1,1.32l4.57.85c1.18.24,1.66-1.43,1.66-1.43l2.66-7a21.57,21.57,0,0,0,6.9-1.36l5.54,5.87a1.19,1.19,0,0,0,1.67.21l3.84-2.62c1-.66.17-2.19.17-2.19l-3-6.74A21.68,21.68,0,0,0,137.08,70l7.62.14a1.19,1.19,0,0,0,1.32-1l.81-4.58C147.06,63.34,145.38,62.87,145.38,62.87ZM126.5,71.73l-11.26-1.34c-2.46-.23-1.33-1.65-1.33-1.65l3.51-3.52L106.08,54a2.05,2.05,0,0,1,0-2.9l.89-.89a2.05,2.05,0,0,1,2.9,0l11.34,11.27,3.52-3.53c1.08-.71,1.6.62,1.6.62l1.45,12.18C127.88,72.07,126.5,71.73,126.5,71.73Z" style="fill:#ee9022;stroke:#fff;stroke-miterlimit:10;stroke-width:2px"/></g></g></svg>