<svg xmlns="http://www.w3.org/2000/svg" viewBox="0 0 523.62 342.74"><title>Asset 127</title><g id="Layer_2" data-name="Layer 2"><g id="Layer_1-2" data-name="Layer 1"><g id="_Group_" data-name="&lt;Group&gt;"><path id="_Compound_Path_" data-name="&lt;Compound Path&gt;" d="M259.71,129.43a34.43,34.43,0,0,0-28.36,33.85v1.59h-176V25.8H259.71ZM28.61,11.62A11.63,11.63,0,0,1,40.23,0H274.84a11.63,11.63,0,0,1,11.62,11.62V128.9h-12.8V18.82a7,7,0,0,0-7-7H48.39a7,7,0,0,0-7,7v146H28.61Zm-10.94,189A17.7,17.7,0,0,1,0,183v-4.13H231.35v21.81H17.68Z" style="fill:#f06a21"/><path d="M260.46,160.92a7,7,0,0,1,7-7h218.3a7,7,0,0,1,7,7V307.1h12.8V153.73a11.63,11.63,0,0,0-11.62-11.62H259.28a11.63,11.63,0,0,0-11.62,11.62V307h12.8Z" style="fill:#f06a21"/><polygon points="479.17 307.33 479.17 168.26 478.76 168.26 478.76 167.9 274.41 167.9 274.41 306.97 409.83 306.97 409.83 307.33 479.17 307.33" style="fill:#f06a21"/><path d="M292.27,320.43v.49H219v4.13a17.7,17.7,0,0,0,17.68,17.68H450.4v-.49h55.55a17.7,17.7,0,0,0,17.68-17.68v-4.13Z" style="fill:#f06a21"/><path d="M151.5,172a61.52,61.52,0,0,0-4.67,60.33A83,83,0,0,0,166.18,256c21,17.62,44.86,19.46,53.62,19.69l-4.39,27.61,62.07-38.53L230.42,211.5l-5,30a117.24,117.24,0,0,1-20.15-1.89c-10-1.82-18.73-3.4-27.58-9.42a51,51,0,0,1-15.32-16.64A88.61,88.61,0,0,1,151.5,172Z" style="fill:#f06a21;stroke:#fff;stroke-miterlimit:10;stroke-width:5px"/><path d="M381,172a61.52,61.52,0,0,0,5.07-60.3,83,83,0,0,0-19.19-23.76c-20.9-17.76-44.73-19.75-53.49-20L318,40.28,255.65,78.4l46.7,53.53,5.23-30a117.24,117.24,0,0,1,20.14,2c10,1.88,18.7,3.53,27.52,9.6a51,51,0,0,1,15.21,16.74A88.61,88.61,0,0,1,381,172Z" style="fill:#f06a21;stroke:#fff;stroke-miterlimit:10;stroke-width:5px"/></g><path d="M206.91,98.8q0-7.27,0-14.54-6.45-.87-13.28-1.58a46,46,0,0,0-7.06-17.08q4.33-5.32,8.29-10.5L184.59,44.8q-5.17,4-10.5,8.28A46,46,0,0,0,157,46q-.7-6.83-1.57-13.29H140.91Q140,39.18,139.34,46a46,46,0,0,0-17,7q-5.32-4.34-10.49-8.3L101.56,55q3.95,5.18,8.27,10.51a46,46,0,0,0-7.09,17.06q-6.83.69-13.29,1.55l0,14.54q6.45.87,13.28,1.58a46,46,0,0,0,7.06,17.08q-4.33,5.32-8.29,10.5l10.28,10.29q5.17-4,10.5-8.28a46,46,0,0,0,17.06,7.07q.7,6.83,1.57,13.29h14.54q.86-6.45,1.57-13.29a46,46,0,0,0,17-7q5.32,4.34,10.49,8.3l10.3-10.27q-3.95-5.18-8.27-10.51a46,46,0,0,0,7.09-17.06Q200.45,99.65,206.91,98.8Zm-58.73,20.32a27.66,27.66,0,1,1,27.66-27.66A27.66,27.66,0,0,1,148.18,119.12Z" style="fill:#f06a21;stroke:#fff;stroke-miterlimit:10;stroke-width:5px"/></g></g></svg>