<svg xmlns="http://www.w3.org/2000/svg" viewBox="0 0 201.38 231.21"><defs><style>.cls-1{fill:#f16a21;}</style></defs><title>Asset 67</title><g id="Layer_2" data-name="Layer 2"><g id="Layer_1-2" data-name="Layer 1"><path class="cls-1" d="M182.73,63.4H145.44V52.21H85.77V37.29a14.92,14.92,0,0,1,29.83,0v7.46H138V37.29a37.29,37.29,0,0,0-74.58,0V52.21H55.94V63.4H18.65A18.67,18.67,0,0,0,0,82V190.19a18.67,18.67,0,0,0,18.65,18.65H48.48v14.92H33.56v7.46H167.81v-7.46H152.9V208.83h29.83a18.67,18.67,0,0,0,18.65-18.65V82A18.67,18.67,0,0,0,182.73,63.4Zm0,7.46A11.2,11.2,0,0,1,193.92,82v89.5h-7.46V85.77A7.47,7.47,0,0,0,179,78.31H145.44V70.85ZM89.5,134.25v7.54a18.65,18.65,0,1,0,22.38,0v-7.54h33.56V85.77H179v85.77H147.62l-14.92,14.92H22.38V85.77H55.94v48.48ZM106.27,147a11.07,11.07,0,0,1,5.6,9.63,11.19,11.19,0,0,1-22.37,0A11.07,11.07,0,0,1,95.1,147L97,145.92V97h7.46v49ZM70.85,37.29a29.83,29.83,0,1,1,59.67,0h-7.46a22.38,22.38,0,1,0-44.75,0V52.21H70.85ZM63.4,59.67H138v67.13h-26.1V89.5H89.5V97H78.31v7.46H89.5v7.46H78.31v7.46H89.5v7.46H63.4ZM18.65,70.85H55.94v7.46H22.38a7.47,7.47,0,0,0-7.46,7.46V186.46H7.46V82A11.2,11.2,0,0,1,18.65,70.85Zm126.79,152.9H55.94V208.83h89.5Zm37.29-22.37H18.65a11.17,11.17,0,0,1-10.5-7.46H135.79L150.71,179h43.21v11.19A11.2,11.2,0,0,1,182.73,201.38Z"/><path class="cls-1" d="M97,152.9h7.46v7.46H97Z"/><path class="cls-1" d="M100.69,74.58A7.47,7.47,0,0,1,108.15,82h7.46a14.92,14.92,0,0,0-29.83,0h7.46A7.47,7.47,0,0,1,100.69,74.58Z"/><path class="cls-1" d="M164.08,186.46h7.46v7.46h-7.46Z"/><path class="cls-1" d="M179,186.46h7.46v7.46H179Z"/><path class="cls-1" d="M149.17,186.46h7.46v7.46h-7.46Z"/><path class="cls-1" d="M123.06,67.13h7.46v7.46h-7.46Z"/><path class="cls-1" d="M70.85,67.13h7.46v7.46H70.85Z"/></g></g></svg>