<svg xmlns="http://www.w3.org/2000/svg" viewBox="0 0 421.83 363.51"><defs><style>.cls-1{fill:#f16a21;}</style></defs><title>Asset 73</title><g id="Layer_2" data-name="Layer 2"><g id="Layer_1-2" data-name="Layer 1"><path class="cls-1" d="M363.06,180.74a40,40,0,0,0-22.08-11H322.31v-64c-.24-9.88-2.23-40.72-25.37-68C265.5.63,220.26-.08,211,0c-7.91.07-51.49,1.37-83.5,37.34-24.15,27.14-27.25,58-27.83,68V169.7H82a37.21,37.21,0,0,0-33.7,32v34.23H184.91c0-12.61,11.79-22.84,26.33-22.84s26.33,10.23,26.33,22.84H374.33V202.82A40,40,0,0,0,363.06,180.74Zm-231.35-11V117.37c-.37-8.38-.31-32.59,16.12-54.43a77.74,77.74,0,0,1,63-31.22c6.87-.11,24.66-.15,43.16,10.92a76,76,0,0,1,22.2,20.08C292.4,85,290.71,110,289.9,117.66v52Z"/><path class="cls-1" d="M382.17,247H39.67A39.78,39.78,0,0,0,0,286.68v37.17a39.78,39.78,0,0,0,39.67,39.67h342.5a39.78,39.78,0,0,0,39.67-39.67V286.68A39.78,39.78,0,0,0,382.17,247Zm27.17,80a23.57,23.57,0,0,1-23.5,23.5h-349A23.57,23.57,0,0,1,13.33,327v-43.5A23.57,23.57,0,0,1,36.83,260h349a23.57,23.57,0,0,1,23.5,23.5Z"/><path class="cls-1" d="M86.52,298.82H76.06l7.55-7.23a2.13,2.13,0,0,0,.07-3L79.1,283.8a2.13,2.13,0,0,0-3-.07L68,291.53V280.26a2.13,2.13,0,0,0-2.12-2.12H59.21a2.13,2.13,0,0,0-2.12,2.13v10.87l-7.69-7.69a2.13,2.13,0,0,0-3,0l-4.68,4.68a2.13,2.13,0,0,0,0,3l7.69,7.69H38.52a2.13,2.13,0,0,0-2.12,2.13v6.63a2.13,2.13,0,0,0,2.13,2.13H49l-7.55,7.23a2.13,2.13,0,0,0-.07,3l4.58,4.79a2.13,2.13,0,0,0,3,.07L57.08,317v11.27a2.13,2.13,0,0,0,2.13,2.13h6.62A2.13,2.13,0,0,0,68,328.26V317.39l7.69,7.69a2.13,2.13,0,0,0,3,0l4.68-4.68a2.13,2.13,0,0,0,0-3l-7.69-7.69H86.52a2.13,2.13,0,0,0,2.13-2.12v-6.62A2.13,2.13,0,0,0,86.52,298.82Z"/><path class="cls-1" d="M163.69,298.82H153.23l7.55-7.23a2.13,2.13,0,0,0,.07-3l-4.58-4.79a2.13,2.13,0,0,0-3-.07l-8.14,7.79V280.26a2.13,2.13,0,0,0-2.12-2.12h-6.62a2.13,2.13,0,0,0-2.12,2.13v10.87l-7.69-7.69a2.13,2.13,0,0,0-3,0l-4.68,4.68a2.13,2.13,0,0,0,0,3l7.69,7.69H115.69a2.13,2.13,0,0,0-2.12,2.13v6.63a2.13,2.13,0,0,0,2.13,2.13h10.46l-7.55,7.23a2.13,2.13,0,0,0-.07,3l4.58,4.79a2.13,2.13,0,0,0,3,.07l8.14-7.79v11.27a2.13,2.13,0,0,0,2.13,2.13H143a2.13,2.13,0,0,0,2.13-2.12V317.39l7.69,7.69a2.13,2.13,0,0,0,3,0l4.68-4.68a2.13,2.13,0,0,0,0-3l-7.69-7.69h10.87a2.13,2.13,0,0,0,2.13-2.12v-6.62A2.13,2.13,0,0,0,163.69,298.82Z"/><path class="cls-1" d="M240.91,298.82H230.46l7.55-7.23a2.13,2.13,0,0,0,.07-3l-4.58-4.79a2.13,2.13,0,0,0-3-.07l-8.14,7.79V280.26a2.13,2.13,0,0,0-2.12-2.12H213.6a2.13,2.13,0,0,0-2.12,2.13v10.87l-7.69-7.69a2.13,2.13,0,0,0-3,0l-4.68,4.68a2.13,2.13,0,0,0,0,3l7.69,7.69H192.91a2.13,2.13,0,0,0-2.12,2.13v6.63a2.13,2.13,0,0,0,2.13,2.13h10.46l-7.55,7.23a2.13,2.13,0,0,0-.07,3l4.58,4.79a2.13,2.13,0,0,0,3,.07l8.14-7.79v11.27a2.13,2.13,0,0,0,2.13,2.13h6.63a2.13,2.13,0,0,0,2.13-2.12V317.39l7.69,7.69a2.13,2.13,0,0,0,3,0l4.68-4.68a2.13,2.13,0,0,0,0-3L230,309.7h10.87a2.13,2.13,0,0,0,2.13-2.12v-6.62A2.13,2.13,0,0,0,240.91,298.82Z"/><path class="cls-1" d="M318.19,298.82H307.73l7.55-7.23a2.13,2.13,0,0,0,.07-3l-4.58-4.79a2.13,2.13,0,0,0-3-.07l-8.14,7.79V280.26a2.13,2.13,0,0,0-2.12-2.12h-6.62a2.13,2.13,0,0,0-2.12,2.13v10.87l-7.69-7.69a2.13,2.13,0,0,0-3,0l-4.68,4.68a2.13,2.13,0,0,0,0,3l7.69,7.69H270.19a2.13,2.13,0,0,0-2.12,2.13v6.63a2.13,2.13,0,0,0,2.13,2.13h10.46l-7.55,7.23a2.13,2.13,0,0,0-.07,3l4.58,4.79a2.13,2.13,0,0,0,3,.07l8.14-7.79v11.27a2.13,2.13,0,0,0,2.13,2.13h6.63a2.13,2.13,0,0,0,2.13-2.12V317.39l7.69,7.69a2.13,2.13,0,0,0,3,0l4.68-4.68a2.13,2.13,0,0,0,0-3l-7.69-7.69h10.87a2.13,2.13,0,0,0,2.13-2.12v-6.62A2.13,2.13,0,0,0,318.19,298.82Z"/><rect class="cls-1" x="343.08" y="326.01" width="44" height="10.5" rx="2.31" ry="2.31"/></g></g></svg>