<svg xmlns="http://www.w3.org/2000/svg" viewBox="0 0 301.09 252.01"><defs><style>.cls-1{fill:#f16a21;}</style></defs><title>Asset 80</title><g id="Layer_2" data-name="Layer 2"><g id="Layer_1-2" data-name="Layer 1"><path class="cls-1" d="M102.3,28.85a63.63,63.63,0,1,0,63.63,63.63A63.63,63.63,0,0,0,102.3,28.85Zm0,119.17a55.54,55.54,0,1,1,55.54-55.54A55.54,55.54,0,0,1,102.3,148Z"/><circle class="cls-1" cx="102.3" cy="76.81" r="2.07"/><circle class="cls-1" cx="102.3" cy="60.65" r="2.07"/><circle class="cls-1" cx="102.3" cy="44.48" r="2.07"/><circle class="cls-1" cx="150.83" cy="93.31" r="2.07" transform="translate(57.05 243.85) rotate(-89.82)"/><circle class="cls-1" cx="134.67" cy="93.26" r="2.07" transform="translate(40.99 227.64) rotate(-89.82)"/><circle class="cls-1" cx="118.51" cy="93.21" r="2.07" transform="translate(24.93 211.43) rotate(-89.82)"/><circle class="cls-1" cx="102.3" cy="141.86" r="2.07"/><circle class="cls-1" cx="102.3" cy="125.7" r="2.07"/><circle class="cls-1" cx="102.3" cy="109.54" r="2.07"/><circle class="cls-1" cx="86.06" cy="93.03" r="2.07" transform="translate(-1.04 0.97) rotate(-0.65)"/><circle class="cls-1" cx="69.89" cy="93.21" r="2.07" transform="translate(-1.05 0.79) rotate(-0.65)"/><circle class="cls-1" cx="53.73" cy="93.4" r="2.07" transform="translate(-1.05 0.61) rotate(-0.65)"/><circle class="cls-1" cx="71.97" cy="119.01" r="8.27"/><path class="cls-1" d="M81.29,125.7l-2.82,2.9c16.4,10.49,37.51,9.19,51.66-2.87,12.34-10.52,17.53-27.65,13.33-43.89a1.9,1.9,0,0,0-.6-1.06,2.06,2.06,0,0,0-1.8-.38,2,2,0,0,0-1.28,1,1.89,1.89,0,0,0-.16,1.28c4.34,16.76-2.45,34.3-16.52,43.25A39.33,39.33,0,0,1,81.29,125.7Z"/><path class="cls-1" d="M127.94,86.36a1.94,1.94,0,0,0-.59-1.21,2,2,0,0,0-2-.36,2.29,2.29,0,0,0-1.08.86,2.33,2.33,0,0,0-.34,1.67c.35,1.41,2.53,10.76-3.43,19.1a22.81,22.81,0,0,1-28.81,6.94,22.84,22.84,0,0,1-7.44-34.19L94.65,89.61a8.37,8.37,0,1,0,4-4.12l-29-29.19-4.15.27-.64,3.19,5.29,5.3-.94,1a41.46,41.46,0,0,0-5.73,45.13l3.17-2.55a38.5,38.5,0,0,1,5.27-40l.85-.95,8.56,8.57a27.91,27.91,0,0,0-5.86,18.11A27.43,27.43,0,0,0,80.57,109,27.82,27.82,0,0,0,95,118.62c11.59,3.13,21-2.75,22.5-3.75a27.16,27.16,0,0,0,10.43-28.51ZM102.3,88.42A4.62,4.62,0,1,1,97.69,93,4.62,4.62,0,0,1,102.3,88.42Z"/><path class="cls-1" d="M293.24,0H7.85A7.87,7.87,0,0,0,0,7.85V187.17A7.87,7.87,0,0,0,7.85,195h285.4a7.87,7.87,0,0,0,7.85-7.85V7.85A7.87,7.87,0,0,0,293.24,0ZM150.54,188.81a7,7,0,1,1,7-7A7,7,0,0,1,150.54,188.81Zm132.8-27.08a6.67,6.67,0,0,1-6.65,6.65H24.42a6.67,6.67,0,0,1-6.65-6.65V24.37a6.67,6.67,0,0,1,6.65-6.65H276.69a6.67,6.67,0,0,1,6.65,6.65Z"/><path class="cls-1" d="M210.95,229.26h-27.2v-24H117.68v24H90.32A7.27,7.27,0,0,0,83,236.54v8.19A7.27,7.27,0,0,0,90.32,252H210.95a7.27,7.27,0,0,0,7.27-7.28v-8.19A7.27,7.27,0,0,0,210.95,229.26Z"/><path class="cls-1" d="M258.67,42.15H244V31.93a5.39,5.39,0,0,0-5.39-5.39H218.84a5.39,5.39,0,0,0-5.39,5.39v2.23a3,3,0,0,0,2.12,2.92l12,2.62s1.7.32,1.63,1.24c0,0,.32,1.24-2.05,1.24l-13.68,0H198.7a10.8,10.8,0,0,0-10.8,10.8v92.36a10.8,10.8,0,0,0,10.8,10.8h60a10.8,10.8,0,0,0,10.8-10.8V52.94A10.8,10.8,0,0,0,258.67,42.15Zm-3,52.85-47.45,37.89c-.85.72-1.27.16-1.27.16a1.3,1.3,0,0,1,0-1.46l14.85-22.25c1.46-2.17,5.33-2.55,5.33-2.55l2.31-.47s1.72-.17,1.82-1-1.72-.75-1.72-.75l-24.38.31c-7.26.09-2.06-3.64-2.06-3.64l46.68-39.13c.85-.75,1.3-.19,1.3-.19.66.54-.24,1.72-.24,1.72L237.35,85.84c-2.09,4-4.7,4.28-4.7,4.28a22.29,22.29,0,0,1-3.37.47c-1.32.12-1.16.73-1.16.73-.09.87,1.1.88,1.1.88h25.67c1.45,0,1.59.89,1.59.89C256.8,94.08,255.63,95,255.63,95Z"/></g></g></svg>