<svg xmlns="http://www.w3.org/2000/svg" viewBox="0 0 153 153.38"><defs><style>.cls-1{fill:#f16a21;}</style></defs><title>Asset 35</title><g id="Layer_2" data-name="Layer 2"><g id="Layer_1-2" data-name="Layer 1"><path class="cls-1" d="M153,75.78a104.32,104.32,0,0,0-.88-11.37l-13.37.23a63.08,63.08,0,0,0-10-24l9.62-9.84a104.31,104.31,0,0,0-17.08-16.69l-9.51,9.73a63.08,63.08,0,0,0-23.54-9.66V.69a104.31,104.31,0,0,0-23.88,0V14.2A63.08,63.08,0,0,0,40.69,24l-9.3-9.45a104.31,104.31,0,0,0-17,16.75L23.83,41A63.08,63.08,0,0,0,14.1,64.44L.49,64.68A104.31,104.31,0,0,0,.91,88.56l13.15-.23a63.09,63.09,0,0,0,10,24l-9.39,9.27a104.31,104.31,0,0,0,16.77,17L41,129.15a63.08,63.08,0,0,0,23.39,9.64l.09,14a104.31,104.31,0,0,0,23.88-.16l-.09-13.82A63.08,63.08,0,0,0,112,129l9.5,9.48a104.31,104.31,0,0,0,16.87-16.9l-9.47-9.45a63.08,63.08,0,0,0,9.82-23.62l13.82-.24A104.33,104.33,0,0,0,153,75.78ZM92.06,80.59,75.77,84.44l8.46,21.76c2.24,5.35-2.61,6-2.61,6a3.9,3.9,0,0,1-4.48-1.25L58,79.72C53.51,72.26,62,72,62,72l15-3.48L68.85,47.26C66.78,41.87,70,41,70,41c3.73-1.78,5.31,1.16,5.31,1.16l19.9,31.26C99.15,79.84,92.06,80.59,92.06,80.59Z"/></g></g></svg>