<svg xmlns="http://www.w3.org/2000/svg" viewBox="0 0 327.39 327.39"><defs><style>.cls-1{fill:#f16a21;}</style></defs><title>Asset 43</title><g id="Layer_2" data-name="Layer 2"><g id="Layer_1-2" data-name="Layer 1"><path class="cls-1" d="M327.39,273.4V233.52l-15.28-3.9-.32-.77,8-13.55-28.2-28.2-13.55,8-.77-.32-3.9-15.27H233.52l-3.9,15.28-.77.32-13.55-8-28.2,28.2,8,13.55-.32.77-15.27,3.9v39.88l15.28,3.9.32.77-8,13.55,28.2,28.2,13.55-8,.77.32,3.9,15.27h39.88l3.9-15.28.77-.32,13.55,8,28.2-28.2-8-13.55.32-.77ZM306.57,290,290,306.57l-11.29-6.7-2.54,1.21a52.83,52.83,0,0,1-5,2.09l-2.66.94-3.24,12.71H241.72l-3.24-12.71-2.66-.94a49.78,49.78,0,0,1-5-2.09l-2.54-1.21L217,306.57,200.36,290l6.7-11.29-1.21-2.54a52.83,52.83,0,0,1-2.09-5l-.94-2.66-12.72-3.24V241.72l12.71-3.24.94-2.66a49.78,49.78,0,0,1,2.09-5l1.21-2.54L200.36,217l16.6-16.6,11.29,6.7,2.54-1.21a52.83,52.83,0,0,1,5-2.09l2.66-.94,3.24-12.72H265.2l3.24,12.71,2.66.94a49.78,49.78,0,0,1,5,2.09l2.54,1.21,11.29-6.7,16.6,16.6-6.7,11.29,1.21,2.54a52.83,52.83,0,0,1,2.09,5l.94,2.66,12.72,3.24V265.2l-12.71,3.24-.94,2.66a49.78,49.78,0,0,1-2.09,5l-1.21,2.54Z"/><path class="cls-1" d="M253.46,211.22a42.24,42.24,0,1,0,42.24,42.24A42.29,42.29,0,0,0,253.46,211.22Zm0,73.93a31.68,31.68,0,1,1,31.68-31.68A31.71,31.71,0,0,1,253.46,285.15Z"/><path class="cls-1" d="M253.46,232.34a21.12,21.12,0,1,0,21.12,21.12A21.14,21.14,0,0,0,253.46,232.34Zm0,31.68A10.56,10.56,0,1,1,264,253.46,10.57,10.57,0,0,1,253.46,264Z"/><path class="cls-1" d="M133.73,89.41a31.74,31.74,0,0,0,8.84,13.35v4.48l-25.11,9.41a26.52,26.52,0,0,0-17.14,24.72V169H227.06V141.37a26.53,26.53,0,0,0-17.13-24.72l-25.11-9.41v-4.47a31.67,31.67,0,0,0,8.84-13.35,21.11,21.11,0,0,0,17.56-20.76V47.52a47.52,47.52,0,1,0-95,0V68.65A21.11,21.11,0,0,0,133.73,89.41Zm40.53,20L163.7,127l-10.56-17.6V109a31.09,31.09,0,0,0,21.12,0Zm-28.67,8,10.65,17.74-10.58,5.29-6.83-20.49Zm70.91,24v17H110.89v-17a15.91,15.91,0,0,1,10.28-14.83l7.76-2.91,10.56,31.67,24.21-12.1,24.21,12.1,10.56-31.67,7.77,2.91A15.9,15.9,0,0,1,216.5,141.37Zm-27.93-21.45-6.83,20.49-10.58-5.29,10.65-17.74ZM163.7,100.33a21.14,21.14,0,0,1-21.12-21.12V57.73A40.88,40.88,0,0,0,163.7,49.3a40.83,40.83,0,0,0,21.12,8.43V79.21A21.14,21.14,0,0,1,163.7,100.33Zm31.68-22.59V59.56a10.47,10.47,0,0,1,0,18.18ZM163.7,10.56a37,37,0,0,1,37,37v2.94a20.89,20.89,0,0,0-10.56-2.94h-.91a30.56,30.56,0,0,1-21.76-9l-3.73-3.74L160,38.51a30.57,30.57,0,0,1-21.76,9h-.91a20.89,20.89,0,0,0-10.56,2.94V47.52A37,37,0,0,1,163.7,10.56ZM132,59.55V77.74a10.47,10.47,0,0,1,0-18.18Z"/><path class="cls-1" d="M0,327.39H105.61V190.1H0ZM10.56,200.66H95V316.83H10.56Z"/><path class="cls-1" d="M21.12,211.22H84.49v10.56H21.12Z"/><path class="cls-1" d="M21.12,232.34H31.68V242.9H21.12Z"/><path class="cls-1" d="M42.24,232.34H84.49V242.9H42.24Z"/><path class="cls-1" d="M21.12,253.46H84.49V264H21.12Z"/><path class="cls-1" d="M21.12,274.59H84.49v10.56H21.12Z"/><path class="cls-1" d="M73.93,295.71H84.49v10.56H73.93Z"/><path class="cls-1" d="M21.12,295.71H63.37v10.56H21.12Z"/><path class="cls-1" d="M141,236.08l-7.47-7.47L108.7,253.46l24.86,24.86,7.47-7.47-12.11-12.11H169V248.18H128.92Z"/><path class="cls-1" d="M58.09,84.49a5.29,5.29,0,0,1,5.28-5.28H87.58L75.47,91.32l7.47,7.47L107.8,73.93,82.94,49.07l-7.47,7.47L87.58,68.65H63.37A15.86,15.86,0,0,0,47.52,84.49v95H58.09Z"/><path class="cls-1" d="M253.46,84.49v66.46l-12.11-12.11-7.47,7.47,24.86,24.86,24.86-24.86-7.47-7.47L264,150.95V84.49a15.86,15.86,0,0,0-15.84-15.84h-26.4V79.21h26.4A5.29,5.29,0,0,1,253.46,84.49Z"/></g></g></svg>