<svg xmlns="http://www.w3.org/2000/svg" viewBox="0 0 302.67 243.98"><defs><style>.cls-1{fill:#f16a21;}</style></defs><title>Asset 32</title><g id="Layer_2" data-name="Layer 2"><g id="Layer_1-2" data-name="Layer 1"><path class="cls-1" d="M291.53,119.76H160.48a11.17,11.17,0,0,0-11.13,11.13v81.78a11.17,11.17,0,0,0,11.13,11.13h54.3a2,2,0,0,0-2,2v7.38H200.24a4.61,4.61,0,0,0-4.61,4.61v1.59a4.61,4.61,0,0,0,4.61,4.61h51.21a4.61,4.61,0,0,0,4.61-4.61v-1.59a4.61,4.61,0,0,0-4.61-4.61H238.89v-7.38a2,2,0,0,0-2-2h54.62a11.17,11.17,0,0,0,11.13-11.13V130.9A11.17,11.17,0,0,0,291.53,119.76Zm-3.62,89.38H164V134.39H287.91Z"/><path class="cls-1" d="M142.19,0H11.13A11.17,11.17,0,0,0,0,11.13V92.91A11.17,11.17,0,0,0,11.13,104h54.3a2,2,0,0,0-2,2v7.38H50.9A4.61,4.61,0,0,0,46.28,118v1.59a4.61,4.61,0,0,0,4.61,4.61h51.21a4.61,4.61,0,0,0,4.61-4.61V118a4.61,4.61,0,0,0-4.61-4.61H89.54V106a2,2,0,0,0-2-2h54.62a11.17,11.17,0,0,0,11.13-11.13V11.13A11.17,11.17,0,0,0,142.19,0Zm-3.62,89.38H14.63V14.63H138.57Z"/><circle class="cls-1" cx="178.29" cy="44.85" r="5.96"/><circle class="cls-1" cx="204.06" cy="44.85" r="5.96"/><circle class="cls-1" cx="229.5" cy="44.85" r="5.96"/><circle class="cls-1" cx="229.5" cy="70.62" r="5.96"/><circle class="cls-1" cx="229.5" cy="97.34" r="5.96"/><circle class="cls-1" cx="75.39" cy="148.07" r="5.96"/><circle class="cls-1" cx="75.39" cy="174.63" r="5.96"/><circle class="cls-1" cx="75.39" cy="200.4" r="5.96"/><circle class="cls-1" cx="100.28" cy="200.4" r="5.96"/><circle class="cls-1" cx="126.81" cy="200.4" r="5.96"/></g></g></svg>