<svg xmlns="http://www.w3.org/2000/svg" viewBox="0 0 332.7 214"><defs><style>.cls-1{fill:#f16a21;}.cls-2{fill:#fff;}</style></defs><title>Asset 29</title><g id="Layer_2" data-name="Layer 2"><g id="Layer_1-2" data-name="Layer 1"><path class="cls-1" d="M189.67,84.56a60.12,60.12,0,0,0-45.65.62L110.69,9.72a169,169,0,0,1,112-.33Z"/><path class="cls-1" d="M126,89.36a60.1,60.1,0,0,0-32,32.59L17.24,91.85A168.92,168.92,0,0,1,96.51,12.74Z"/><path class="cls-1" d="M86.49,135.88a59.37,59.37,0,0,0,1.78,46L11.36,214a158.08,158.08,0,0,1-3-109.46Z"/><path class="cls-1" d="M236.69,13.38a125,125,0,0,1,22.67,10.33c34,19.8,50.1,50.94,57,67.32l-74.67,29.66a59.87,59.87,0,0,0-35-32.33Z"/><path class="cls-2" d="M270.72,48.05l11.09-9,9.87,10.18-55.57,65.45S229.67,102.22,212.63,93Z"/><path class="cls-1" d="M246.69,133.69l76.67-29.33a149.38,149.38,0,0,1-1.67,108.31l-75-30.66a98.75,98.75,0,0,0,0-48.32Z"/><path class="cls-1" d="M250.69,78.37l-72.08,57.47A23.34,23.34,0,1,0,190,150.11Z"/></g></g></svg>