<svg xmlns="http://www.w3.org/2000/svg" viewBox="0 0 495.94 497"><defs><style>.cls-1{fill:#f16a21;}</style></defs><title>Asset 50</title><g id="Layer_2" data-name="Layer 2"><g id="Layer_1-2" data-name="Layer 1"><path class="cls-1" d="M248,256a80,80,0,1,0,80,80A80.08,80.08,0,0,0,248,256Zm0,144a64,64,0,1,1,64-64A64.07,64.07,0,0,1,248,399.95Z"/><path class="cls-1" d="M243.78,364.91l-24.23-12.12-7.15,14.32L252.16,387l35.24-88.05-14.86-6Z"/><path class="cls-1" d="M495.94,0h-48V240h-16V32H384V240H352.18c-.09-2.21-.23-4.43-.23-6.65V216h-8a56.93,56.93,0,0,1-8-.62V80h16V200h16V64H320V210.09c-5-3-8-6.61-8-10.11v-8H232V138.78L186.4,118.53A87.93,87.93,0,1,0,16.41,80H0v8A104.11,104.11,0,0,0,104,192h8v-16.4A88,88,0,0,0,179.48,133L216,149.18V192H184v8c0,7.55-13.69,16-32,16h-8v17.35a160.42,160.42,0,0,1-22.85,82.52L120,317.74V320a181,181,0,0,0,96,160L248,497l32-17.06a181,181,0,0,0,96-160v-2.21l-1.14-1.91A160.36,160.36,0,0,1,353.6,256H495.94ZM175.5,80H143.17A40.12,40.12,0,0,0,112,48.8V16.47A72.09,72.09,0,0,1,175.5,80ZM104,112a24,24,0,1,1,24-24A24,24,0,0,1,104,112ZM96,16.47V48.8A40.12,40.12,0,0,0,64.8,80H32.47A72.09,72.09,0,0,1,96,16.47ZM16.36,96H64.8A40.12,40.12,0,0,0,96,127.18v48.44A88.13,88.13,0,0,1,16.36,96ZM112,159.51V127.18A40.12,40.12,0,0,0,143.17,96H175.5A72.09,72.09,0,0,1,112,159.51ZM272.44,465.82,248,478.88l-24.47-13A165,165,0,0,1,136,322.13a176.52,176.52,0,0,0,24-88.8v-1.78c19-2,34-11.3,38.54-23.57h98.89c4.57,12.28,19.51,21.52,38.54,23.57v1.78a176.52,176.52,0,0,0,24,88.8A165,165,0,0,1,272.44,465.82ZM399.95,48h16V240h-16Zm80,192h-16V16h16Z"/></g></g></svg>