<svg xmlns="http://www.w3.org/2000/svg" viewBox="0 0 371.25 291.25"><defs><style>.cls-1,.cls-2,.cls-3{fill:#f16a21;}.cls-2,.cls-5{stroke:#f16a21;}.cls-2,.cls-3,.cls-5{stroke-miterlimit:10;}.cls-2{stroke-width:0.25px;}.cls-3{stroke:#fff;stroke-width:10px;}.cls-4{fill:#fc814c;}.cls-5{fill:none;}.cls-6{fill:#fff;}</style></defs><title>Asset 37</title><g id="Layer_2" data-name="Layer 2"><g id="Layer_1-2" data-name="Layer 1"><path class="cls-1" d="M353.88,254.25H244.13a6.93,6.93,0,0,0-5.75,2.94l-7.44,8.13a6,6,0,0,1-5.19,1.94H145.08a8.87,8.87,0,0,1-4.5-1.83l-7-7.58c-2.28-2.51-4.21-3.34-5.49-3.58H17.38A17.43,17.43,0,0,0,0,271.63v2.25a17.43,17.43,0,0,0,17.38,17.38h336.5a17.43,17.43,0,0,0,17.38-17.37v-2.25A17.43,17.43,0,0,0,353.88,254.25ZM43,283H23V263H43Zm297.25-3H300a7.25,7.25,0,0,1,0-14.5h40.25a7.25,7.25,0,0,1,0,14.5Z"/><path class="cls-1" d="M324.84,0H45.59A17.21,17.21,0,0,0,28.44,17.16V220.59a17.21,17.21,0,0,0,17.16,17.16H324.84A17.21,17.21,0,0,0,342,220.59V17.16A17.21,17.21,0,0,0,324.84,0ZM185.22,2.14a6.28,6.28,0,1,1-6.28,6.28A6.28,6.28,0,0,1,185.22,2.14ZM332.17,221.5H38.25V16.38H332.17Z"/><path class="cls-2" d="M236.25,152.24a8.15,8.15,0,0,0,7.25-5.79L268.8,83.64h0a8,8,0,0,0,.49-2.75,8.15,8.15,0,0,0-8.12-8.12H136.64l-9-33.28a6.43,6.43,0,0,0-.3-.84A5.73,5.73,0,0,0,126,36.38a6.4,6.4,0,0,0-1.58-1.12,8.56,8.56,0,0,0-3.87-1H99.42a6.42,6.42,0,0,0,0,12.83h17l33.78,125.42a18.81,18.81,0,1,0,32.19,7.37h24.53a18.8,18.8,0,1,0,18.69-13.72v0H164.31a18.88,18.88,0,0,0-2.47.18l-2.45-9.11Z"/><circle class="cls-3" cx="192.91" cy="112.79" r="30.17"/><circle class="cls-4" cx="192.91" cy="112.79" r="14.85"/><circle class="cls-1" cx="192.91" cy="112.79" r="9.52"/><path class="cls-5" d="M294.28,174.1l-8.31-15a5.26,5.26,0,0,0-.52-1.25L267,125.91a5.31,5.31,0,0,0-9.2,5.31l5.31,9.19c.38.78.79,2.05-.29,2.65l-3,1.79-.71.34s-.61.42-1.37-.89l-1.74-3-7.61-13.18a5.31,5.31,0,0,0-9.2,5.31l3.86,6.69h0l1.8,3.12h0l.13.23a2.17,2.17,0,0,1-.63,3L242,147.81l-.9.49s-.85.78-1.85-1l0-.07-2.37-4.1h0l-5.72-9.9a5.33,5.33,0,0,0-7.25-1.94h0a5.33,5.33,0,0,0-1.94,7.25l5.7,9.87h0l2.65,4.6h0l.49.86c.38.82.66,2-.45,2.77l-2.05,1.44s-2,1-2.78-.37h0l-23.71-41.07a6,6,0,0,0-8.21-2.2h0a6,6,0,0,0-2.2,8.21l39.24,68,.14.22v0l-28.16-6.18a8.61,8.61,0,0,0-8.74,4.48s-2.35,4.26,3.25,5.83c0,0,4.37,2,13.33,1.57,0,0,20.87,1.9,35.29,16.47,0,0,6.2,6.8,20.69-1.27,0,0,17.06-12.06,26.25-16.54C292.71,195.27,301.56,187.65,294.28,174.1Z"/><path class="cls-6" d="M191.39,134.77l-5.49-9.3s-3.64-11.26,3.58-15.63c.28-.06,10.64-6.5,16.24,2.18s6.55,10.87,6.55,10.87l4.14,6.67s3.81-5.27,9-5.27c0,0,4.54-.34,7.45,1.9,0,0,4.79-7.51,11-6.95,0,0,5.37.22,8.45,4,0,0,3.64-5.77,9.69-5.6a12.39,12.39,0,0,1,10.92,6l25.15,43.13s10.45,25.77-.93,32.82l-31.29,19.49s-14.24,6.27-22,0c0,0-17.6-16.28-36.12-16.43,0,0-10.26.75-17.15-4,0,0-8-6,0-15.83,0,0,4.31-6,16.55-3.58l11.35,2.54Z"/><path class="cls-1" d="M294.28,174.1l-8.31-15a5.26,5.26,0,0,0-.52-1.25L267,125.91a5.31,5.31,0,0,0-9.2,5.31l5.31,9.19c.38.78.79,2.05-.29,2.65l-3,1.79-.71.34s-.61.42-1.37-.89l-1.74-3-7.61-13.18a5.31,5.31,0,0,0-9.2,5.31l3.86,6.69h0l1.8,3.12h0l.13.23a2.17,2.17,0,0,1-.63,3L242,147.81l-.9.49s-.85.78-1.85-1l0-.07-2.37-4.1h0l-5.72-9.9a5.33,5.33,0,0,0-7.25-1.94h0a5.33,5.33,0,0,0-1.94,7.25l5.7,9.87h0l2.65,4.6h0l.49.86c.38.82.66,2-.45,2.77l-2.05,1.44s-2,1-2.78-.37h0l-23.71-41.07a6,6,0,0,0-8.21-2.2h0a6,6,0,0,0-2.2,8.21l39.24,68,.14.22v0l-28.16-6.18a8.61,8.61,0,0,0-8.74,4.48s-2.35,4.26,3.25,5.83c0,0,4.37,2,13.33,1.57,0,0,20.87,1.9,35.29,16.47,0,0,6.2,6.8,20.69-1.27,0,0,17.06-12.06,26.25-16.54C292.71,195.27,301.56,187.65,294.28,174.1Z"/></g></g></svg>