<svg xmlns="http://www.w3.org/2000/svg" viewBox="0 0 333.82 242.61"><defs><style>.cls-1{fill:#f16a21;}.cls-2{fill:none;stroke:#f16a21;stroke-miterlimit:10;}.cls-3{fill:#fff;}</style></defs><title>Asset 61</title><g id="Layer_2" data-name="Layer 2"><g id="Layer_1-2" data-name="Layer 1"><path class="cls-1" d="M294.78,211.79H203.36a5.77,5.77,0,0,0-4.79,2.45l-6.2,6.77a5,5,0,0,1-4.32,1.61h-67.2a7.39,7.39,0,0,1-3.75-1.53l-5.83-6.32a8.57,8.57,0,0,0-4.57-3H14.47A14.52,14.52,0,0,0,0,226.26v1.87a14.52,14.52,0,0,0,14.47,14.47h280.3a14.52,14.52,0,0,0,14.47-14.47v-1.87A14.52,14.52,0,0,0,294.78,211.79Zm-259,23.95H19.16V219.08H35.82Zm247.61-2.5H249.9a6,6,0,1,1,0-12.08h33.53a6,6,0,1,1,0,12.08Z"/><path class="cls-1" d="M270.59,0H38A14.33,14.33,0,0,0,23.69,14.29V183.75A14.33,14.33,0,0,0,38,198H270.59a14.33,14.33,0,0,0,14.29-14.29V14.29A14.33,14.33,0,0,0,270.59,0ZM154.29,1.78A5.23,5.23,0,1,1,149.05,7,5.23,5.23,0,0,1,154.29,1.78ZM276.69,184.51H31.86V13.64H276.69Z"/><g id="_Group_" data-name="&lt;Group&gt;"><path id="_Compound_Path_" data-name="&lt;Compound Path&gt;" class="cls-1" d="M138.33,100.46h40a11.83,11.83,0,0,0,11.81-11.81V64a3.05,3.05,0,0,0-3.05-3.05H182V51.78a23.61,23.61,0,1,0-47.21,0v9.14h-5.17A3.05,3.05,0,0,0,126.52,64V88.65A11.82,11.82,0,0,0,138.33,100.46Zm2.52-48.68a17.5,17.5,0,0,1,35,0v9.14h-2.93V53.17a14.57,14.57,0,0,0-29.14,0v7.75h-2.93V51.78Zm9,9.14V53.17a8.46,8.46,0,1,1,16.92,0v7.75ZM132.63,67h51.43V88.65a5.71,5.71,0,0,1-5.7,5.7h-40a5.71,5.71,0,0,1-5.7-5.7V67Z"/><path id="_Path_" data-name="&lt;Path&gt;" class="cls-1" d="M158.35,87.85a3.05,3.05,0,0,0,3.05-3.05V76.58a3.05,3.05,0,0,0-6.11,0V84.8A3.05,3.05,0,0,0,158.35,87.85Z"/><path id="_Compound_Path_2" data-name="&lt;Compound Path&gt;" class="cls-1" d="M240.85,106.22H88.11A17.13,17.13,0,0,0,71,123.33v29.44a17.13,17.13,0,0,0,17.11,17.11H240.85A17.13,17.13,0,0,0,258,152.77V123.33A17.13,17.13,0,0,0,240.85,106.22ZM77.11,152.77V123.33a11,11,0,0,1,11-11H210.75v51.43H88.11A11,11,0,0,1,77.11,152.77Zm174.74,0a11,11,0,0,1-11,11h-24V112.33h24a11,11,0,0,1,11,11Z"/><path id="_Path_2" data-name="&lt;Path&gt;" class="cls-1" d="M234.46,125.61a3.06,3.06,0,1,0-4.32,4.32l8.12,8.12-8.12,8.12a3.06,3.06,0,1,0,4.32,4.32l10.28-10.28a3.06,3.06,0,0,0,0-4.32Z"/><path id="_Compound_Path_3" data-name="&lt;Compound Path&gt;" class="cls-1" d="M99.44,127a11,11,0,1,0,11,11A11,11,0,0,0,99.44,127Zm0,16a4.92,4.92,0,1,1,4.92-4.92A4.93,4.93,0,0,1,99.44,143Z"/><path id="_Compound_Path_4" data-name="&lt;Compound Path&gt;" class="cls-1" d="M123.38,127a11,11,0,1,0,11,11A11,11,0,0,0,123.38,127Zm0,16A4.92,4.92,0,1,1,128.3,138,4.93,4.93,0,0,1,123.38,143Z"/><path id="_Compound_Path_5" data-name="&lt;Compound Path&gt;" class="cls-1" d="M147.31,127a11,11,0,1,0,11,11A11,11,0,0,0,147.31,127Zm0,16a4.92,4.92,0,1,1,4.92-4.92A4.93,4.93,0,0,1,147.31,143Z"/><path id="_Path_3" data-name="&lt;Path&gt;" class="cls-1" d="M180.92,135H168.59a3.05,3.05,0,1,0,0,6.11h12.33a3.05,3.05,0,0,0,0-6.11Z"/></g><path class="cls-2" d="M327,188.43l-6.92-12.49a4.38,4.38,0,0,0-.43-1l-15.36-26.61a4.42,4.42,0,0,0-7.66,4.42l4.42,7.66c.32.65.66,1.71-.24,2.21l-2.52,1.49-.59.28s-.51.35-1.14-.75l-1.45-2.52-6.34-11a4.42,4.42,0,0,0-7.66,4.42l3.22,5.57h0l1.5,2.6h0l.11.19a1.81,1.81,0,0,1-.52,2.51l-1.93,1.12-.75.4s-.71.65-1.54-.79l0-.06-2-3.41h0l-4.76-8.25a4.44,4.44,0,0,0-6-1.62h0a4.44,4.44,0,0,0-1.62,6l4.75,8.22h0l2.21,3.83h0l.41.71a1.71,1.71,0,0,1-.37,2.31l-1.71,1.2s-1.66.83-2.32-.3h0L250,140.6a5,5,0,0,0-6.84-1.83h0a5,5,0,0,0-1.83,6.84L274,202.23l.12.19v0l-23.46-5.15a7.17,7.17,0,0,0-7.28,3.73s-2,3.55,2.71,4.85c0,0,3.64,1.68,11.1,1.31,0,0,17.39,1.59,29.39,13.72,0,0,5.16,5.66,17.23-1.06,0,0,14.22-10,21.87-13.78C325.69,206.06,333.06,199.72,327,188.43Z"/><path class="cls-3" d="M241.29,155.67l-4.57-7.75s-3-9.38,3-13c.23,0,8.86-5.41,13.53,1.82s5.46,9.05,5.46,9.05l3.45,5.55s3.17-4.39,7.47-4.39c0,0,3.78-.28,6.21,1.59,0,0,4-6.25,9.2-5.79,0,0,4.47.19,7,3.31,0,0,3-4.81,8.07-4.67a10.32,10.32,0,0,1,9.1,5l20.95,35.93s8.71,21.46-.78,27.34l-26.07,16.24s-11.86,5.23-18.31,0c0,0-14.66-13.56-30.09-13.69,0,0-8.54.62-14.29-3.36,0,0-6.7-5,0-13.19,0,0,3.59-5,13.79-3l9.46,2.12Z"/><path class="cls-1" d="M327,188.43l-6.92-12.49a4.38,4.38,0,0,0-.43-1l-15.36-26.61a4.42,4.42,0,0,0-7.66,4.42l4.42,7.66c.32.65.66,1.71-.24,2.21l-2.52,1.49-.59.28s-.51.35-1.14-.75l-1.45-2.52-6.34-11a4.42,4.42,0,0,0-7.66,4.42l3.22,5.57h0l1.5,2.6h0l.11.19a1.81,1.81,0,0,1-.52,2.51l-1.93,1.12-.75.4s-.71.65-1.54-.79l0-.06-2-3.41h0l-4.76-8.25a4.44,4.44,0,0,0-6-1.62h0a4.44,4.44,0,0,0-1.62,6l4.75,8.22h0l2.21,3.83h0l.41.71a1.71,1.71,0,0,1-.37,2.31l-1.71,1.2s-1.66.83-2.32-.3h0L250,140.6a5,5,0,0,0-6.84-1.83h0a5,5,0,0,0-1.83,6.84L274,202.23l.12.19v0l-23.46-5.15a7.17,7.17,0,0,0-7.28,3.73s-2,3.55,2.71,4.85c0,0,3.64,1.68,11.1,1.31,0,0,17.39,1.59,29.39,13.72,0,0,5.16,5.66,17.23-1.06,0,0,14.22-10,21.87-13.78C325.69,206.06,333.06,199.72,327,188.43Z"/></g></g></svg>