<svg xmlns="http://www.w3.org/2000/svg" viewBox="0 0 334.24 334.24"><defs><style>.cls-1{fill:#f16a21;}</style></defs><title>Asset 39</title><g id="Layer_2" data-name="Layer 2"><g id="Layer_1-2" data-name="Layer 1"><path class="cls-1" d="M328.67,178.26H178.26a5.57,5.57,0,0,0-5.57,5.57v46.3a21,21,0,0,0-20.63,1.61l-29.51,19.67V156H156a5.57,5.57,0,0,0,5.57-5.57V5.57A5.57,5.57,0,0,0,156,0H5.57A5.57,5.57,0,0,0,0,5.57V150.41A5.57,5.57,0,0,0,5.57,156h78v13a19.41,19.41,0,0,0-9.86-1.82,19.66,19.66,0,0,0-16.86,13.55A19.25,19.25,0,0,0,29,191.87a19.57,19.57,0,0,0-11.22-2.4A20.16,20.16,0,0,0,0,209.88v90.7s0,.07,0,.11,0,.08,0,.12v27.85a5.57,5.57,0,0,0,5.57,5.57H117a5.57,5.57,0,0,0,5.57-5.57V303.59L172.69,266v62.67a5.57,5.57,0,0,0,5.57,5.57H328.67a5.57,5.57,0,0,0,5.57-5.57V183.83A5.57,5.57,0,0,0,328.67,178.26ZM11.14,144.84V11.14H150.41V144.84H122.56V133.69a5.57,5.57,0,0,0,5.57-5.57V27.85a5.57,5.57,0,0,0-5.57-5.57H39a5.57,5.57,0,0,0-5.57,5.57V128.12A5.57,5.57,0,0,0,39,133.69H83.56v11.14ZM117,33.42v78.31a19.4,19.4,0,0,0-33.14,10.82H44.57V33.42H117Zm-5.57,289.67H11.14V306.38H111.42Zm58.21-68.76c-.19.17-.38.33-.58.48h0l-53.93,40.44h-104V209.88a9.09,9.09,0,0,1,7.59-9.31,8.36,8.36,0,0,1,9.08,7.56c0,.25,0,.51,0,.76v19.5H39V198.74a9.09,9.09,0,0,1,7.59-9.31A8.36,8.36,0,0,1,55.67,197c0,.25,0,.51,0,.76v25.07H66.85V187.6a9.07,9.07,0,0,1,7.69-9.32,8.67,8.67,0,0,1,9,6.29v27.11H94.7V125.34a8.36,8.36,0,0,1,16.71,0V261.82a5.57,5.57,0,0,0,8.66,4.63L158.24,241a9.41,9.41,0,0,1,12.07,1h0A8.74,8.74,0,0,1,169.62,254.33ZM323.1,323.09H183.83V189.4H323.1Z"/><path class="cls-1" d="M328.67,0H178.26a5.57,5.57,0,0,0-5.57,5.57V150.41a5.57,5.57,0,0,0,5.57,5.57H328.67a5.57,5.57,0,0,0,5.57-5.57V5.57A5.57,5.57,0,0,0,328.67,0ZM323.1,144.84H183.83V11.14H323.1Z"/><rect class="cls-1" x="55.71" y="44.56" width="50.14" height="11.14"/><rect class="cls-1" x="55.71" y="66.85" width="50.14" height="11.14"/><path class="cls-1" d="M272.37,59.87a22.28,22.28,0,1,0-32.23,0,33.44,33.44,0,0,0-17.31,29.26v39a5.57,5.57,0,0,0,5.57,5.57H284.1a5.57,5.57,0,0,0,5.57-5.57v-39A33.44,33.44,0,0,0,272.37,59.87ZM256.25,33.42a11.14,11.14,0,1,1-11.14,11.14A11.14,11.14,0,0,1,256.25,33.42Zm22.28,89.13H234V89.13a22.28,22.28,0,0,1,44.56,0Z"/><path class="cls-1" d="M256.25,206.11a50.14,50.14,0,1,0,50.14,50.14A50.14,50.14,0,0,0,256.25,206.11Zm0,11.14a38.85,38.85,0,0,1,27.24,11.14H229A38.85,38.85,0,0,1,256.25,217.25Zm-35.18,22.28h70.36a38.61,38.61,0,0,1,3.37,11.14H217.7A38.61,38.61,0,0,1,221.07,239.54Zm35.18,55.71A38.85,38.85,0,0,1,229,284.1h54.48A38.85,38.85,0,0,1,256.25,295.24ZM291.43,273H221.07a38.61,38.61,0,0,1-3.37-11.14h77.1A38.61,38.61,0,0,1,291.43,273Z"/><rect class="cls-1" x="55.71" y="89.13" width="33.42" height="11.14"/></g></g></svg>