<svg xmlns="http://www.w3.org/2000/svg" viewBox="0 0 356.03 294.57"><defs><style>.cls-1,.cls-3{fill:#f16a21;}.cls-2{fill:#fff;}.cls-3{stroke:#fff;stroke-miterlimit:10;stroke-width:5px;}</style></defs><title>Asset 53</title><g id="Layer_2" data-name="Layer 2"><g id="Layer_1-2" data-name="Layer 1"><path class="cls-1" d="M341.23,0H14.8C6.66,0,0,5.92,0,13.15V225.31c0,7.23,6.66,13.15,14.8,13.15H134.46V252.3H120.3c-10.78,0-23.47,8.27-23.47,8.27-8.67,4.51-13.53,20.29-13.53,20.29-4.44,14.09,7,13.71,7,13.71H265.12c19,.19,0-27.62,0-27.62-8.25-14.28-30-14.65-30-14.65H220.93V238.46h120.3c8.14,0,14.8-5.92,14.8-13.15V13.15C356,5.92,349.37,0,341.23,0Zm-85,280.85H99.37c6.77-11.84,20.72-14.47,20.72-14.47H234.68C247.57,266.39,256.24,280.85,256.24,280.85ZM206.13,252.3H149.26V238.46h56.87Zm133.41-28.37H16.07V13.9H339.54Z"/><rect class="cls-1" x="35.62" y="138.87" width="284.78" height="15.65" rx="6.98" ry="6.98"/><rect class="cls-1" x="40.28" y="39.63" width="107.71" height="90.21" rx="12" ry="12"/><rect class="cls-1" x="154.97" y="40.54" width="164.7" height="13.46" rx="6" ry="6"/><rect class="cls-1" x="155.71" y="64.94" width="164.7" height="13.46" rx="6" ry="6"/><rect class="cls-1" x="250.32" y="89.73" width="69.35" height="13.46" rx="6" ry="6"/><rect class="cls-1" x="237.32" y="114.3" width="79.39" height="13.46" rx="6" ry="6"/><rect class="cls-1" x="35.62" y="159.93" width="284.78" height="15.65" rx="6.98" ry="6.98"/><rect class="cls-1" x="35.62" y="181.5" width="284.78" height="15.65" rx="6.98" ry="6.98"/><circle class="cls-2" cx="232.37" cy="138.61" r="76.67"/><path class="cls-3" d="M341.48,221,305,184.51a16.31,16.31,0,0,0-6.21-3.89,82,82,0,1,0-26.51,25.6,16,16,0,0,0,4,6.64l36.3,36.3a20.51,20.51,0,0,0,28.92,0h0A20,20,0,0,0,341.48,221Zm-182.42-85.1a70.95,70.95,0,1,1,122.32,48.93l-2.45,2.45a70.94,70.94,0,0,1-119.87-51.37Z"/><path class="cls-1" d="M291.76,133.69c-27.76-24.52-59.87-22.74-59.87-22.74-41.2,1-61.24,23.61-61.24,23.61-2.93,3-.31,6.6-.31,6.6L194,158.27c3.67,2.05,5.41,0,5.41,0,2.12-2.12-1-4.92-1-4.92-4-3-14.23-13.53-14.23-13.53,8-8.38,27.63-13.55,27.63-13.55l-.08.44c-9.44,15-.12,28.38-.12,28.38,18.92,24.27,40.29,1.58,40.29,1.58,12.16-14.48,1.24-30,1.24-30,14.94,3.57,28.28,14.69,28.28,14.69l-.23.19A176.24,176.24,0,0,0,264.82,155a2.12,2.12,0,0,0,.12,3.21c.87,1.18,3.3.32,3.3.32,7.05-1.83,24.4-15,24.4-15C299.48,138.42,291.76,133.69,291.76,133.69Zm-59.4,18.55a10.46,10.46,0,1,1,10.46-10.46A10.46,10.46,0,0,1,232.37,152.24Z"/></g></g></svg>