<svg xmlns="http://www.w3.org/2000/svg" viewBox="0 0 679.34 435.85"><defs><style>.cls-1{fill:#f16a21;}.cls-2{fill:none;stroke:#f16a21;stroke-miterlimit:10;}</style></defs><title>Asset 33</title><g id="Layer_2" data-name="Layer 2"><g id="Layer_1-2" data-name="Layer 1"><path class="cls-1" d="M339.67,230.5a39.22,39.22,0,1,0,39.22,39.22A39.22,39.22,0,0,0,339.67,230.5Zm0,51.91a12.69,12.69,0,1,1,12.69-12.69A12.69,12.69,0,0,1,339.67,282.4Z"/><path class="cls-1" d="M445.61,293.4l-17.31-9.56-2,1.57a76.09,76.09,0,0,0,1.79-15.7c0-44.51-39.47-88.1-88.3-88.3-44.64-.18-75.79,36-84,61.1-4.3,13.12-4.27,27.2-4.27,27.2,0,4.06,0,8.72.51,13.54l-15,7.46a8.1,8.1,0,0,0-5.12,7.75l.63,91.38a3.09,3.09,0,0,0,1.75,3.63l98.12,40.88s5.25,3.08,13.17.42l95.42-37.92s6.79-2,6.79-8.31V300.34S448.23,294.9,445.61,293.4ZM339.67,416.59l-87.81-34.5v-68l87.81,34.5Zm60.56-113-56.74,23.11s-1.37,2.38-8-.12l-57.61-23.65c-8.32-12.93-7.19-30-7.09-33.24,1-30.95,27.15-68.88,68.88-68.88a68.88,68.88,0,0,1,68.88,68.88A76.46,76.46,0,0,1,400.23,303.61Z"/><path class="cls-2" d="M260.14,307.81"/><path class="cls-1" d="M146.79,320.71h-113l24.65-14.23a6.32,6.32,0,0,0,2.3-8.6l-1-1.82a6.32,6.32,0,0,0-8.6-2.3l-48,27.71A6.3,6.3,0,0,0,0,326.87S0,327,0,327v2.1a6.32,6.32,0,0,0,4.75,6.1L51.14,362a6.32,6.32,0,0,0,8.6-2.3l1-1.82a6.32,6.32,0,0,0-2.3-8.6l-24-13.86H146.79a6.32,6.32,0,0,0,6.3-6.3V327A6.32,6.32,0,0,0,146.79,320.71Z"/><path class="cls-1" d="M210.69,192.86,131.81,112l27.4,7.71a6.32,6.32,0,0,0,7.77-4.36l.57-2a6.32,6.32,0,0,0-4.36-7.77l-53.35-15a6.3,6.3,0,0,0-6.05,1.53l-.11.09-1.5,1.47a6.32,6.32,0,0,0-1,7.66l13.22,51.91a6.32,6.32,0,0,0,7.66,4.55l2-.52a6.32,6.32,0,0,0,4.55-7.66l-6.84-26.86,78.42,80.39a6.32,6.32,0,0,0,8.9.11l1.5-1.47A6.32,6.32,0,0,0,210.69,192.86Z"/><path class="cls-1" d="M347.88,146.79l-.1-113L362,58.47a6.32,6.32,0,0,0,8.6,2.3l1.82-1.05a6.32,6.32,0,0,0,2.3-8.6L347,3.14A6.3,6.3,0,0,0,341.59,0h-2.24a6.32,6.32,0,0,0-6.09,4.76L306.52,51.17a6.32,6.32,0,0,0,2.31,8.6l1.82,1a6.32,6.32,0,0,0,8.6-2.31l13.83-24,.1,112.31a6.32,6.32,0,0,0,6.3,6.29h2.1A6.32,6.32,0,0,0,347.88,146.79Z"/><path class="cls-1" d="M481.13,202l80.74-79-7.67,27.41a6.32,6.32,0,0,0,4.37,7.76l2,.57a6.32,6.32,0,0,0,7.76-4.37L583.29,101A6.3,6.3,0,0,0,581.75,95l-.09-.11-1.47-1.5a6.32,6.32,0,0,0-7.66-1l-51.89,13.3a6.32,6.32,0,0,0-4.54,7.66l.52,2a6.32,6.32,0,0,0,7.66,4.54L551.14,113l-80.28,78.54a6.32,6.32,0,0,0-.1,8.9l1.47,1.5A6.32,6.32,0,0,0,481.13,202Z"/><path class="cls-1" d="M532.54,335l113,0-24.66,14.22a6.32,6.32,0,0,0-2.31,8.6l1,1.82a6.32,6.32,0,0,0,8.6,2.31l48-27.7a6.3,6.3,0,0,0,3.14-5.4s0-.09,0-.14v-2.1a6.32,6.32,0,0,0-4.75-6.1l-46.38-26.8a6.32,6.32,0,0,0-8.6,2.3l-1.05,1.82a6.32,6.32,0,0,0,2.3,8.6l24,13.86-112.31,0a6.32,6.32,0,0,0-6.3,6.29v2.1A6.32,6.32,0,0,0,532.54,335Z"/></g></g></svg>