<svg xmlns="http://www.w3.org/2000/svg" viewBox="0 0 411.71 321.89"><defs><style>.cls-1{fill:#f16a21;}.cls-2{fill:none;stroke:#f16a21;stroke-miterlimit:10;}</style></defs><title>Asset 47</title><g id="Layer_2" data-name="Layer 2"><g id="Layer_1-2" data-name="Layer 1"><path class="cls-1" d="M205.83,154.21a32,32,0,1,0,32,32A32,32,0,0,0,205.83,154.21Zm0,42.38a10.36,10.36,0,1,1,10.36-10.36A10.36,10.36,0,0,1,205.83,196.6Z"/><path class="cls-1" d="M292.34,205.58l-14.14-7.81L276.59,199a62.13,62.13,0,0,0,1.47-12.82c0-36.34-32.23-71.94-72.1-72.1C169.5,114,144.06,143.52,137.34,164a80.64,80.64,0,0,0-3.49,22.21c0,3.31,0,7.12.42,11.06L122,203.38a6.62,6.62,0,0,0-4.18,6.33l.51,74.61a2.52,2.52,0,0,0,1.43,3l80.12,33.38s4.29,2.52,10.75.34l77.91-31s5.55-1.63,5.55-6.79v-72S294.48,206.8,292.34,205.58ZM205.83,306.17,134.13,278V222.47l71.7,28.17Zm49.45-92.26-46.33,18.87s-1.12,1.94-6.53-.1l-47-19.31c-6.79-10.56-5.87-24.48-5.79-27.14C150.44,161,171.75,130,205.83,130a56.24,56.24,0,0,1,56.24,56.24A62.44,62.44,0,0,1,255.28,213.91Z"/><path class="cls-2" d="M140.89,217.34"/><path class="cls-1" d="M97.61,243.25H22.5l16.39-9.46a4.2,4.2,0,0,0,1.53-5.72l-.7-1.21A4.2,4.2,0,0,0,34,225.33L2.09,243.75A4.19,4.19,0,0,0,0,247.34s0,.06,0,.09v1.4a4.2,4.2,0,0,0,3.16,4.05L34,270.69a4.2,4.2,0,0,0,5.72-1.53l.7-1.21a4.2,4.2,0,0,0-1.53-5.72l-16-9.21H97.61a4.2,4.2,0,0,0,4.19-4.19v-1.4A4.2,4.2,0,0,0,97.61,243.25Z"/><path class="cls-1" d="M115.37,140.24,62.93,86.48,81.14,91.6a4.2,4.2,0,0,0,5.16-2.9l.38-1.34a4.2,4.2,0,0,0-2.9-5.16l-35.47-10a4.19,4.19,0,0,0-4,1l-.07.06-1,1a4.2,4.2,0,0,0-.69,5.09l8.79,34.51a4.2,4.2,0,0,0,5.09,3l1.35-.34a4.2,4.2,0,0,0,3-5.09L56.23,93.61l52.15,53.45a4.2,4.2,0,0,0,5.92.07l1-1A4.2,4.2,0,0,0,115.37,140.24Z"/><path class="cls-1" d="M211.31,97.6l-.07-75.11,9.48,16.38a4.2,4.2,0,0,0,5.72,1.53l1.21-.7A4.2,4.2,0,0,0,229.18,34L210.72,2.09A4.19,4.19,0,0,0,207.13,0h-1.49a4.2,4.2,0,0,0-4.05,3.16L183.81,34a4.2,4.2,0,0,0,1.54,5.72l1.21.7a4.2,4.2,0,0,0,5.72-1.54l9.2-16,.07,74.68a4.2,4.2,0,0,0,4.19,4.18h1.4A4.2,4.2,0,0,0,211.31,97.6Z"/><path class="cls-1" d="M314.12,146.35l53.69-52.53L362.71,112a4.2,4.2,0,0,0,2.9,5.16l1.34.38a4.2,4.2,0,0,0,5.16-2.9L382,79.19a4.19,4.19,0,0,0-1-4l-.06-.07-1-1a4.2,4.2,0,0,0-5.09-.69l-34.5,8.84a4.2,4.2,0,0,0-3,5.1l.35,1.35a4.2,4.2,0,0,0,5.1,3l17.85-4.57-53.38,52.22a4.2,4.2,0,0,0-.06,5.92l1,1A4.2,4.2,0,0,0,314.12,146.35Z"/><path class="cls-1" d="M314.1,252.75l75.11,0-16.39,9.46a4.2,4.2,0,0,0-1.53,5.72l.7,1.21a4.2,4.2,0,0,0,5.72,1.53l31.92-18.42a4.19,4.19,0,0,0,2.09-3.59s0-.06,0-.09v-1.4a4.2,4.2,0,0,0-3.16-4.05l-30.84-17.82a4.2,4.2,0,0,0-5.72,1.53l-.7,1.21a4.2,4.2,0,0,0,1.53,5.72l16,9.22-74.68,0a4.2,4.2,0,0,0-4.19,4.19v1.4A4.2,4.2,0,0,0,314.1,252.75Z"/></g></g></svg>