<svg xmlns="http://www.w3.org/2000/svg" viewBox="0 0 304.66 298.29"><defs><style>.cls-1{fill:#f16a21;}</style></defs><title>Asset 55</title><g id="Layer_2" data-name="Layer 2"><g id="Layer_1-2" data-name="Layer 1"><g id="_Group_" data-name="&lt;Group&gt;"><path id="_Compound_Path_" data-name="&lt;Compound Path&gt;" class="cls-1" d="M280.5,100.37h-59.6V18a18,18,0,0,0-18-18H38.07a18,18,0,0,0-18,18V125.65H4.9a4.9,4.9,0,0,0-4.9,4.9v7.81a22.25,22.25,0,0,0,22.22,22.22H172.36V274.13a24.19,24.19,0,0,0,24.16,24.16h84a24.19,24.19,0,0,0,24.16-24.16V124.53A24.19,24.19,0,0,0,280.5,100.37Zm-88.21.38a24.2,24.2,0,0,0-19.93,23.78v1.11H48.71V27.93H192.29Zm-10.12,32.49H294.85V257.86H182.17Zm112.64-9.81H182.21a14.37,14.37,0,0,1,14.31-13.25h84A14.37,14.37,0,0,1,294.8,123.43ZM29.91,18a8.17,8.17,0,0,1,8.16-8.16H202.92A8.17,8.17,0,0,1,211.09,18v82.4h-9V23a4.9,4.9,0,0,0-4.9-4.9H43.8A4.9,4.9,0,0,0,38.9,23V125.65h-9ZM22.22,150.78A12.43,12.43,0,0,1,9.81,138.36v-2.9H172.36v15.32H22.22ZM280.5,288.48h-84a14.37,14.37,0,0,1-14.36-14.36v-6.46H294.85v6.46A14.37,14.37,0,0,1,280.5,288.48Z"/><path id="_Path_" data-name="&lt;Path&gt;" class="cls-1" d="M247.26,272.1h-17.5a4.9,4.9,0,1,0,0,9.8h17.5a4.9,4.9,0,0,0,0-9.8Z"/><path id="_Compound_Path_2" data-name="&lt;Compound Path&gt;" class="cls-1" d="M279.17,190.88h-6.71V178.55a33.94,33.94,0,1,0-67.88,0v12.33h-6.71a4.9,4.9,0,0,0-4.9,4.9v27.67a24.5,24.5,0,0,0,24.47,24.47H259.6a24.5,24.5,0,0,0,24.47-24.47V195.78A4.9,4.9,0,0,0,279.17,190.88Zm-64.79-12.33a24.14,24.14,0,0,1,48.27,0v12.33H214.37Zm59.89,44.9a14.68,14.68,0,0,1-14.67,14.67H217.42a14.68,14.68,0,0,1-14.67-14.67V200.68h71.51v22.77Z"/><path id="_Path_2" data-name="&lt;Path&gt;" class="cls-1" d="M238.51,208.69a4.9,4.9,0,0,0-4.9,4.9v11.62a4.9,4.9,0,1,0,9.8,0V213.59A4.9,4.9,0,0,0,238.51,208.69Z"/><path id="_Path_3" data-name="&lt;Path&gt;" class="cls-1" d="M98.1,236.19h-19a20.59,20.59,0,0,1-20.56-20.56V201.07a4.9,4.9,0,1,0-9.8,0v14.55A30.4,30.4,0,0,0,79.1,246h19a4.9,4.9,0,0,0,0-9.8Z"/><path id="_Path_4" data-name="&lt;Path&gt;" class="cls-1" d="M235.93,42.56h19A20.59,20.59,0,0,1,275.5,63.13V77.68a4.9,4.9,0,0,0,9.8,0V63.13a30.4,30.4,0,0,0-30.37-30.37h-19a4.9,4.9,0,1,0,0,9.8Z"/></g></g></g></svg>