<svg xmlns="http://www.w3.org/2000/svg" viewBox="0 0 307.46 307.46"><defs><style>.cls-1{fill:#f16a21;}</style></defs><title>Asset 57</title><g id="Layer_2" data-name="Layer 2"><g id="Layer_1-2" data-name="Layer 1"><g id="_Group_" data-name="&lt;Group&gt;"><path id="_Compound_Path_" data-name="&lt;Compound Path&gt;" class="cls-1" d="M5,68.25H24.43a5,5,0,0,0,5-5V29.46H63.22a5,5,0,0,0,5-5V5a5,5,0,0,0-5-5H5A5,5,0,0,0,0,5V63.22A5,5,0,0,0,5,68.25Zm5-58.18H58.19V19.4H24.43a5,5,0,0,0-5,5V58.19H10.07Z"/><path id="_Compound_Path_2" data-name="&lt;Compound Path&gt;" class="cls-1" d="M302.42,0H244.24a5,5,0,0,0-5,5V24.43a5,5,0,0,0,5,5H278V63.22a5,5,0,0,0,5,5h19.39a5,5,0,0,0,5-5V5A5,5,0,0,0,302.42,0Zm-5,58.18h-9.33V24.43a5,5,0,0,0-5-5H249.27V10.07h48.12Z"/><path id="_Compound_Path_3" data-name="&lt;Compound Path&gt;" class="cls-1" d="M302.42,239.2H283a5,5,0,0,0-5,5V278H244.24a5,5,0,0,0-5,5v19.39a5,5,0,0,0,5,5h58.18a5,5,0,0,0,5-5V244.24A5,5,0,0,0,302.42,239.2Zm-5,58.19H249.27v-9.33H283a5,5,0,0,0,5-5V249.27h9.33Z"/><path id="_Compound_Path_4" data-name="&lt;Compound Path&gt;" class="cls-1" d="M63.22,278H29.46V244.24a5,5,0,0,0-5-5H5a5,5,0,0,0-5,5v58.18a5,5,0,0,0,5,5H63.22a5,5,0,0,0,5-5V283A5,5,0,0,0,63.22,278Zm-5,19.4H10.07V249.27H19.4V283a5,5,0,0,0,5,5H58.19v9.33Z"/><path id="_Compound_Path_5" data-name="&lt;Compound Path&gt;" class="cls-1" d="M302.42,187.48H268.71c0-28.72-5.31-47.53-13.75-68a5,5,0,0,0-9.31,3.84c6.56,15.93,12.92,34,13,64.16H246c-.95-37-10.3-65.15-27.84-83.7-15.43-16.32-37.34-24.94-63.35-24.94-24,0-46.3,11-62.9,30.92S65.95,156.5,64.77,187.48H49.27C55.89,112.07,97.41,61.79,153.73,61.79a100,100,0,0,1,72,30.77,5,5,0,1,0,7.28-7,110.15,110.15,0,0,0-79.27-33.88c-30,0-57.71,13.26-78.12,37.34-20.54,24.23-33.1,58.19-36.46,98.43H5a5,5,0,0,0-5,5v19.39a5,5,0,0,0,5,5H302.42a5,5,0,0,0,5-5V192.52A5,5,0,0,0,302.42,187.48ZM99.6,116.21c14.65-17.6,34.24-27.29,55.16-27.29,23.51,0,42.36,7.33,56,21.79,15.74,16.65,24.17,42.47,25.09,76.78H224c2.76-29.49-6.29-48.46-14.67-59.37-9.82-12.77-20.86-17.6-21.32-17.8a5,5,0,0,0-4,9.25c.09,0,9.44,4.23,17.65,15.12,10.32,13.69,14.43,31.44,12.22,52.81h-8.5a121.46,121.46,0,0,0-1.52-34.81,5,5,0,0,0-9.85,2.1,112.38,112.38,0,0,1,1.23,32.7H184.62V173.12a5,5,0,1,0-10.07,0v14.36h-9.33V158.9a5,5,0,0,0-10.07,0v28.58H143.88c1.49-4.21,2.36-9.64,2.6-16.36a132.25,132.25,0,0,0-.64-17.65,14.36,14.36,0,0,1,28.72.26,5,5,0,1,0,10.07,0,24.43,24.43,0,0,0-48.86,0,5.09,5.09,0,0,0,0,.59c1.54,13.13.58,29.16-3.14,33.17h-9.48a88.46,88.46,0,0,0,2.43-15.37c.82-9.32.83-18,.83-18.38a5,5,0,0,0-10.07,0c0,14.55-1.7,29.36-3.75,33.75H100.56c.29-11.21,2.83-39.58,20.54-57.16,11.1-11,26.55-16,45.91-14.88a5,5,0,0,0,.6-10.05c-22.35-1.32-40.38,4.66-53.6,17.79C93.5,143.54,90.72,175,90.47,187.48H74.85C76,158.9,84.51,134.34,99.6,116.21Zm197.79,81.35v9.33H10.07v-9.33Z"/></g></g></g></svg>