<svg xmlns="http://www.w3.org/2000/svg" viewBox="0 0 259.78 265.8"><defs><style>.cls-1{fill:#f16a21;}.cls-2{fill:#ef9122;}</style></defs><title>Asset 45</title><g id="Layer_2" data-name="Layer 2"><g id="Layer_1-2" data-name="Layer 1"><path class="cls-1" d="M259.7,169.64l-.36-10.41c-.36-3.48-4.81-3.14-4.81-3.14L235.38,154a72.53,72.53,0,0,0-4.63-13.6l15.12-14.48a2.53,2.53,0,0,0,.11-3.87l-5.77-8.68c-2.13-2.77-5.75-.15-5.75-.15l-16.53,7.89a73.48,73.48,0,0,0-11.19-9.9l5.75-20a2.53,2.53,0,0,0-1.85-3.4l-9.36-4.59c-3.24-1.32-5,2.76-5,2.76l-10.17,14.94a72.74,72.74,0,0,0-14.88-3l-4.86-20.16a2.53,2.53,0,0,0-3.29-2l-10.4.62c-3.47.44-3,4.89-3,4.89l-1.49,18.14a72.53,72.53,0,0,0-14,4.69L119.55,89.11a2.53,2.53,0,0,0-3.87-.08l-8.63,5.85c-2.75,2.15-.1,5.75-.1,5.75l7.88,16.15A73.47,73.47,0,0,0,104.13,129L85.36,123.4a2.53,2.53,0,0,0-3.42,1.81l-4.7,9.3c-1.36,3.22,2.7,5.07,2.7,5.07l14.28,10a72.79,72.79,0,0,0-2.86,15.25l-18.87,4a2.53,2.53,0,0,0-2.13,3.24l.36,10.41c.36,3.48,4.81,3.15,4.81,3.15l17.56,1.89a72.53,72.53,0,0,0,4.88,14L83.6,215.26a2.53,2.53,0,0,0-.12,3.87l5.75,8.69C91.35,230.6,95,228,95,228l15.79-7.49a73.47,73.47,0,0,0,11.75,10.18l-5.62,19.41a2.53,2.53,0,0,0,1.85,3.41l9.35,4.61c3.23,1.33,5-2.75,5-2.75l10.05-14.69a72.79,72.79,0,0,0,15,2.83L163,263.65a2.53,2.53,0,0,0,3.28,2.05l10.4-.6c3.47-.44,3-4.88,3-4.88l1.56-18.5a72.54,72.54,0,0,0,14.18-5l13.78,15.13a2.53,2.53,0,0,0,3.87.21l8.82-5.55c2.83-2.06.3-5.74.3-5.74l-7.67-17.17a73.47,73.47,0,0,0,9.63-11.23l20.12,6.32a2.53,2.53,0,0,0,3.45-1.77l4.82-9.24c1.4-3.2-2.64-5.11-2.64-5.11l-15.66-11.24a72.78,72.78,0,0,0,2.67-14l20.59-4.42A2.53,2.53,0,0,0,259.7,169.64ZM200.77,203.8l-2.92,2.92a6.75,6.75,0,0,1-9.51,0L151.2,169.59l-11.62,11.56c-3.56,2.31-5.25-2-5.25-2l-4.62-40c-.36-4.53,4.18-3.38,4.18-3.38l37,4.53c8.09.8,4.36,5.42,4.36,5.42l-11.56,11.51,37.1,37.1A6.75,6.75,0,0,1,200.77,203.8Z"/><path class="cls-2" d="M125.5,67.93l-13.6-5a46.49,46.49,0,0,0-3.12-16l12-11.28a2.55,2.55,0,0,0,.44-3.6l-5.65-8.27c-1.42-2.18-4.71-.36-4.71-.36L97,29.61a46.69,46.69,0,0,0-13.38-8.73l.68-15.94A2.55,2.55,0,0,0,82.13,2l-9.81-2c-2.54-.57-3.62,3-3.62,3L63.11,17.17A46.43,46.43,0,0,0,48,20.43L36.21,8.9a2.55,2.55,0,0,0-3.62-.3l-8,6c-2.12,1.51-.17,4.72-.17,4.72l6.45,13A46.69,46.69,0,0,0,22.54,45l-18.29.23a2.55,2.55,0,0,0-2.77,2.35L0,57.5C-.39,60.06,3.26,61,3.26,61l15.42,5.16a46.43,46.43,0,0,0,3,14.17L8.69,92.49a2.55,2.55,0,0,0-.45,3.6l5.64,8.27c1.42,2.18,4.71.36,4.71.36L33.6,98a46.71,46.71,0,0,0,12.24,8.17l-.46,17.77a2.55,2.55,0,0,0,2.24,2.85l9.84,1.83c2.55.53,3.57-3.09,3.57-3.09l5.73-15.16a46.47,46.47,0,0,0,14.86-2.93l11.94,12.65a2.55,2.55,0,0,0,3.6.45l8.27-5.64c2.18-1.42.36-4.71.36-4.71L99.29,95.65a46.72,46.72,0,0,0,8.33-12.35l16.41.3a2.55,2.55,0,0,0,2.84-2.26l1.75-9.86C129.12,68.93,125.5,67.93,125.5,67.93ZM84.81,87,60.55,84.12c-5.31-.51-2.87-3.55-2.87-3.55L65.24,73,40.82,48.75a4.43,4.43,0,0,1,0-6.24l1.91-1.92a4.42,4.42,0,0,1,6.24,0L73.38,64.83,81,57.22c2.33-1.52,3.44,1.33,3.44,1.33l3.12,26.23C87.79,87.75,84.81,87,84.81,87Z"/></g></g></svg>