<svg xmlns="http://www.w3.org/2000/svg" viewBox="0 0 233.67 165.56"><defs><style>.cls-1{fill:#f16a21;}</style></defs><title>Asset 27</title><g id="Layer_2" data-name="Layer 2"><g id="Layer_1-2" data-name="Layer 1"><path class="cls-1" d="M233.67,147.84V0H0V147.84H108.53v5.07c-25,.49-44,3.12-44,6.28,0,3.52,23.49,6.37,52.46,6.37s52.46-2.85,52.46-6.37c0-3.24-19.91-5.91-45.68-6.31v-5ZM13.84,131.23V13.29H220.93V131.23Z"/><rect class="cls-1" x="129.02" y="31.56" width="75.58" height="3.88"/><rect class="cls-1" x="129.02" y="42.64" width="70.88" height="3.88"/><rect class="cls-1" x="129.02" y="53.85" width="79.73" height="3.88"/><rect class="cls-1" x="129.02" y="65.06" width="75.58" height="3.88"/><rect class="cls-1" x="129.02" y="76" width="68.8" height="3.88"/><rect class="cls-1" x="129.02" y="87.07" width="70.88" height="3.88"/><rect class="cls-1" x="129.02" y="98.15" width="66.03" height="3.88"/><rect class="cls-1" x="129.02" y="109.22" width="75.58" height="3.88"/><polygon class="cls-1" points="109.5 52.19 119.74 40.77 109.5 29.35 109.5 52.19"/><path class="cls-1" d="M86.38,46.51H33.22c-9.55,0,0,12.74,0,12.74l23,34.33c3.88,5.12,8.31,0,8.31,0L86.38,60.49C96.21,47.07,86.38,46.51,86.38,46.51ZM60,85.69a4.29,4.29,0,1,1,4.29-4.29A4.29,4.29,0,0,1,60,85.69Zm5-21.88L63.54,70.6c-2.49,8-6.37,0-6.37,0l-1.8-6.51c-1.8-6.51-1.25-10.24-1.25-10.24,5.4-6.09,10.94-.55,10.94-.55C67.28,55.37,65.06,63.82,65.06,63.82Z"/></g></g></svg>