<svg xmlns="http://www.w3.org/2000/svg" viewBox="0 0 309 309"><defs><style>.cls-1,.cls-2{fill:#f16a21;}.cls-2{stroke:#fff;stroke-miterlimit:10;stroke-width:10px;}.cls-3{fill:#fff;}</style></defs><title>Asset 48</title><g id="Layer_2" data-name="Layer 2"><g id="Layer_1-2" data-name="Layer 1"><path class="cls-1" d="M259.87,73.55H44.13A24.54,24.54,0,0,0,19.61,98.06V264.77a24.54,24.54,0,0,0,24.52,24.52H188v-9.81H44.13a14.73,14.73,0,0,1-14.71-14.71V250.06h78.45V255a14.73,14.73,0,0,0,14.71,14.71h48.78v-9.81H122.58a4.91,4.91,0,0,1-4.9-4.9v-4.9h45.71v-9.81H103V211.44a14.7,14.7,0,0,1,11.14-14.27l28.09-7V179.7a28.87,28.87,0,0,0,19.61,0v10.44l13,3.26,2.38-9.51-5.59-1.4v-8.63A29.32,29.32,0,0,0,181.42,152v-9.81a29.42,29.42,0,1,0-58.84,0V152a29.33,29.33,0,0,0,9.81,21.87v8.63l-20.66,5.17a24.47,24.47,0,0,0-18.57,23.78v28.82H49V103H255v65.45h9.81V103A9.82,9.82,0,0,0,255,93.16H49A9.82,9.82,0,0,0,39.23,103V240.26H29.42V98.06A14.73,14.73,0,0,1,44.13,83.35H259.87a14.73,14.73,0,0,1,14.71,14.71v84.37h9.81V98.06A24.54,24.54,0,0,0,259.87,73.55ZM132.39,142.19a19.61,19.61,0,0,1,39.23,0V152a19.61,19.61,0,0,1-39.23,0Z"/><path class="cls-1" d="M98.06,63.74,63.74,49h-49A14.73,14.73,0,0,1,0,34.32V14.71A14.73,14.73,0,0,1,14.71,0H83.35A14.73,14.73,0,0,1,98.06,14.71Z"/><path class="cls-2" d="M230.45,304A73.55,73.55,0,1,1,304,230.45,73.63,73.63,0,0,1,230.45,304Z"/><path class="cls-3" d="M215.74,220.65V201a14.71,14.71,0,1,1,29.42,0v9.81H255V201a24.52,24.52,0,1,0-49,0v19.61h-9.81v58.84h68.65V220.65Zm39.23,49h-49V230.45h49Z"/><path class="cls-1" d="M225.55,240.26h9.81v9.81h-9.81Z"/><path class="cls-3" d="M44.13,19.61h9.81v9.81H44.13Z"/><path class="cls-3" d="M63.74,19.61h9.81v9.81H63.74Z"/><path class="cls-3" d="M24.52,19.61h9.81v9.81H24.52Z"/><path class="cls-1" d="M205.94,63.74v-49A14.73,14.73,0,0,1,220.65,0h68.65A14.73,14.73,0,0,1,304,14.71V34.32A14.73,14.73,0,0,1,289.29,49H235.35Z"/><path class="cls-3" d="M225.55,19.61h9.81v9.81h-9.81Z"/><path class="cls-3" d="M245.16,19.61h39.23v9.81H245.16Z"/><path class="cls-1" d="M186.67,24.17a49,49,0,0,0-69.34,0l-6.93-6.93a58.83,58.83,0,0,1,83.21,0Z"/><path class="cls-1" d="M131.2,38l-6.94-6.93a39.23,39.23,0,0,1,55.48,0L172.81,38a29.42,29.42,0,0,0-41.61,0Z"/><path class="cls-1" d="M158.93,51.91a10,10,0,0,0-13.86,0L138.13,45a20.08,20.08,0,0,1,27.74,0Z"/></g></g></svg>