<svg xmlns="http://www.w3.org/2000/svg" viewBox="0 0 120.94 99.84"><defs><style>.cls-1{fill:#f16a21;}</style></defs><title>Asset 13</title><g id="Layer_2" data-name="Layer 2"><g id="Layer_1-2" data-name="Layer 1"><path class="cls-1" d="M54.87,99.84V90.78H48.14a4.68,4.68,0,0,0,.94-2.65s.31-3.86-4.08-3.9l-36.3.06A3.16,3.16,0,0,0,6,87.54a7.46,7.46,0,0,0,.64,3.23L0,90.81v9Z"/><path class="cls-1" d="M14.92,51.87,44.68,71.59s3,1.88,5.39,0l3.23-4s1.41-3.23-.61-5L22.94,43.25a3,3,0,0,0-4.17,0l-3.5,3.84A4.27,4.27,0,0,0,14.92,51.87Z"/><path class="cls-1" d="M42,9.48,71.73,29.21s3,1.88,5.39,0l3.23-4s1.41-3.23-.61-5L50,.87a3,3,0,0,0-4.17,0L42.31,4.7A4.27,4.27,0,0,0,42,9.48Z"/><path class="cls-1" d="M63.21,42.93l6.33-9L40.67,15.31,25.76,38.81,54.37,57.08l6.46-9.49,4.35,4.14-.94,1.39s38.85,28.95,47.89,31.55c0,0,4.94.72,6.55-.45,0,0,2.69-.85,2.2-4.31,0,0-1.12-5.7-2.74-6.19,0,0-23.07-18-47.84-29.17l-1.46,1.53Z"/></g></g></svg>