<svg xmlns="http://www.w3.org/2000/svg" viewBox="0 0 604.29 526"><defs><style>.cls-1{fill:#f16a21;stroke:#000;stroke-miterlimit:10;stroke-width:3px;}</style></defs><title>Asset 1</title><g id="Layer_2" data-name="Layer 2"><g id="Layer_1-2" data-name="Layer 1"><path class="cls-1" d="M212.89,429s-45.41-1.57-54.81,57.94c0,0-3.13,15.66,0,25.05,0,0,6.26,12.53,15.66,12.53H436.81s9.4-6.26,9.4-12.53c0,0,3.13-34.45-3.13-43.84,0,0-12.53-34.45-53.24-40.71V399.23h166s47-6.26,47-47V48.48s-3.13-47-53.24-47H446.21s21.92,18.79,21.92,37.58l3.13,3.13s31.32-12.53,47,3.13h34.45s9.4,0,9.4,12.53v47s12.53,25.05,0,47V189.4s12.53,25.05,0,40.71V346s0,9.4-12.53,9.4H286.49s-21.92,28.19-43.84,12.53h-3.13s-3.13,25.05-25.05,31.32Z"/><path class="cls-1" d="M324.07,39.08S333.46,10.9,346,4.63L339.73,1.5H48.48S14,4.63,1.5,39.08V358.52s3.13,40.71,47,40.71H133s-18.79-18.79-18.79-31.32c0,0-28.19,12.53-47-12.53H51.61s-9.4,0-9.4-9.4V311.54s-12.53-25.05,0-37.58V245.78s-12.53-21.92,0-40.71V57.87S39.08,45.34,54.74,45.34H277.09s18.79-18.79,43.84-3.13h3.13Z"/><path class="cls-1" d="M283.36,280.22l-15.66-9.4c6.26-9.4,0-21.92,0-21.92l18.79-9.4c12.53-6.26,3.13-21.92,3.13-21.92L267.7,183.14c-6.26-12.53-21.92-3.13-21.92-3.13l-15.66,9.4c0-9.4-15.66-12.53-15.66-12.53V158.09c0-9.4-15.66-12.53-15.66-12.53H158.09c-15.66,0-15.66,12.53-15.66,12.53v18.79c-12.53,0-15.66,12.53-15.66,12.53L111.11,180c-12.53-9.4-21.92,3.13-21.92,3.13L67.27,217.59c-9.4,12.53,3.13,21.92,3.13,21.92l18.79,9.4c-6.26,6.26,0,21.92,0,21.92L67.27,283.36c-9.4,6.26,0,18.79,0,18.79l21.92,37.58c6.26,9.4,18.79,3.13,18.79,3.13l15.66-9.4c6.26,9.4,18.79,12.53,18.79,12.53v15.66c0,12.53,12.53,15.66,12.53,15.66h40.71c15.66,0,18.79-12.53,18.79-12.53V342.86c12.53,0,15.66-9.4,15.66-9.4l12.53,6.26c12.53,9.4,21.92,0,21.92,0l25.05-37.58C295.88,289.62,283.36,280.22,283.36,280.22Zm-106.48,25.5a44.29,44.29,0,1,1,44.29-44.29A44.29,44.29,0,0,1,176.88,305.72Z"/><circle class="cls-1" cx="399.23" cy="170.61" r="53.24"/><path class="cls-1" d="M530.76,195.67,512,183.14c6.26-9.4,0-28.19,0-28.19l21.92-12.53c12.53-9.4,6.26-21.92,6.26-21.92L508.84,70.4c-9.4-12.53-25.05-3.13-25.05-3.13L465,79.79c-6.26-12.53-21.92-15.66-21.92-15.66V42.21c0-18.79-15.66-18.79-15.66-18.79h-59.5c-15.66,0-15.66,15.66-15.66,15.66V64.13c-15.66,0-21.92,15.66-21.92,15.66L311.54,67.27c-12.53-9.4-21.92,3.13-21.92,3.13l-31.32,47c-9.4,15.66,3.13,21.92,3.13,21.92L283.36,155v6.26c9.4,3.13,31.32,47,31.32,47,12.53,21.92-9.4,53.24-9.4,53.24l9.4,9.4,15.66-9.4c3.13,9.4,21.92,12.53,21.92,12.53V299c0,15.66,15.66,15.66,15.66,15.66h56.37c15.66,0,18.79-15.66,18.79-15.66V274A24.88,24.88,0,0,0,465,261.43l18.79,9.4c15.66,9.4,25.05-3.13,25.05-3.13l28.19-47C546.42,205.06,530.76,195.67,530.76,195.67ZM399.23,239.51a68.9,68.9,0,1,1,68.9-68.9A68.9,68.9,0,0,1,399.23,239.51Z"/></g></g></svg>