<svg xmlns="http://www.w3.org/2000/svg" viewBox="0 0 521.78 514.59"><defs><style>.cls-1{fill:#f16a24;stroke:#231f20;stroke-miterlimit:10;stroke-width:3px;}</style></defs><title>Asset 4</title><g id="Layer_2" data-name="Layer 2"><g id="Layer_1-2" data-name="Layer 1"><g id="Layer_2-2" data-name="Layer 2"><g id="Layer_1-2-2" data-name="Layer 1-2"><path class="cls-1" d="M260.89,1.77,5.23,161.56H516.55ZM404.7,193.51l16,32V417.22h63.92V225.47l16-32Zm-127.83,0,16,32V417.22h63.91V225.47l16-32Zm-127.83,0,16,32V417.22h63.91V225.47l16-32Zm-127.83,0,16,32V417.22H101.1V225.47l16-32Zm0,255.66-16,63.92H516.55l-16-63.92ZM292.85,97.64a32,32,0,1,1-32-32,32,32,0,0,1,32,32Z"/></g></g></g></g></svg>