<svg xmlns="http://www.w3.org/2000/svg" viewBox="0 0 430.52 416.14"><defs><style>.cls-1{fill:#f16a24;stroke:#231f20;stroke-miterlimit:10;stroke-width:6px;}</style></defs><title>Asset 1</title><g id="Layer_2" data-name="Layer 2"><g id="Layer_1-2" data-name="Layer 1"><path class="cls-1" d="M215.26,3.54l-204.8,128h409.6Zm115.2,153.6,12.8,25.6v153.6h51.2V182.74l12.8-25.6Zm-102.4,0,12.8,25.6v153.6h51.2V182.74l12.8-25.6Zm-102.4,0,12.8,25.6v153.6h51.2V182.74l12.8-25.6Zm-102.4,0,12.8,25.6v153.6h51.2V182.74l12.8-25.6Zm0,204.8-12.8,51.2h409.6l-12.8-51.2Zm217.6-281.6a25.6,25.6,0,1,1-25.6-25.6,25.6,25.6,0,0,1,25.6,25.6Zm0,0"/></g></g></svg>