<svg xmlns="http://www.w3.org/2000/svg" viewBox="0 0 664 526"><defs><style>.cls-1{fill:#f16a21;stroke:#000;stroke-miterlimit:10;stroke-width:2px;}.cls-2{fill:#fff;}.cls-3{fill:none;}</style></defs><title>Asset 3</title><g id="Layer_2" data-name="Layer 2"><g id="Layer_1-2" data-name="Layer 1"><path class="cls-1" d="M563.53,75.13H419.77c.84-35.79-32.6-38.34-32.6-38.34H357.08C356.24,3.56,324.48,1,324.48,1H292.71c-30.93.85-33.43,35.79-33.43,35.79H231.7c-15,0-24.24,11.08-24.24,11.08-12.54,11.08-10,27.27-10,27.27H54.49C4.34,75.13,1,128.8,1,128.8V426.16c0,45.16,56,52,56,52H558.52c51.82,0,57.67-53.68,57.67-53.68V132.21C611.18,77.68,563.53,75.13,563.53,75.13Zm-5,358.71H65.36s-21.73,5.11-21.73-21.3L45.3,135.62s-2.51-17,15.88-17H198.26s0,37.49,36.78,37.49L383,155.22s33.43.85,35.94-36.64H557.68s15,0,15,17V415.94S573.56,433,558.52,433.83ZM119.69,211.45s8.36-21.3,40.12-20.45c0,0,31.76-1.7,41.79,20.45,0,0,10.87,23,.84,53.68,0,0-6.69,33.23-35.94,37.49,0,0-35.11,4.26-46.81-34.93C119.69,267.69,109.66,231.9,119.69,211.45Zm-40.12,190H240.89s5.85.85,5-7.67-10-47.71-16.72-57.94c0,0-1.67-4.26-7.52-7.67L194.92,315.4a11.84,11.84,0,0,1-5-4.26l-6.69-6s-.84-2.56-2.51,0l-16.72,17-.84.85,8.36,60.49L160.65,398l-10.87-15.34L159,323.07l-17.55-17.89s-1.67-2.56-3.34,0l-9.19,8.52-26.75,12.78S93.78,329,90.44,341l-10,29s-5,17.89-4.18,23.86A8.36,8.36,0,0,0,79.57,401.46ZM506.83,237H308.46a15,15,0,0,1-14.91-14.91h0a15,15,0,0,1,14.91-14.91H506.83a15,15,0,0,1,14.91,14.91h0A15,15,0,0,1,506.83,237Zm0,74.13H308.46a15,15,0,0,1-14.91-14.91h0a15,15,0,0,1,14.91-14.91H506.83a15,15,0,0,1,14.91,14.91h0A15,15,0,0,1,506.83,311.14Zm0,74.13H308.46a15,15,0,0,1-14.91-14.91h0a15,15,0,0,1,14.91-14.91H506.83a15,15,0,0,1,14.91,14.91h0A15,15,0,0,1,506.83,385.27Z"/><rect class="cls-2" x="449.02" y="296.66" width="155.47" height="172.11" rx="12" ry="12"/><path class="cls-3" d="M566.63,369.08V344.13s-3.06-31.18-39.77-31.18c0,0-38.24-3.12-38.24,29.62v26.51H476.39s-7.65-1.56-7.65,7.8v76.4s0,6.24,10.71,6.24h94.84S585,458,585,448.6v-67S586.52,369.08,566.63,369.08Zm-19.88-17.15v17.15H507V350.37s-1.53-18.71,19.88-18.71S546.75,351.93,546.75,351.93Z"/><path class="cls-1" d="M526.62,247c-75.32,0-136.38,62.24-136.38,139S451.3,525,526.62,525,663,462.76,663,386,601.94,247,526.62,247ZM585,381.55v67c0,9.36-10.71,10.91-10.71,10.91H479.45c-10.71,0-10.71-6.24-10.71-6.24v-76.4c0-9.36,7.65-7.8,7.65-7.8h12.24V342.57c0-32.74,38.24-29.62,38.24-29.62,36.71,0,39.77,31.18,39.77,31.18v24.95C586.52,369.08,585,381.55,585,381.55Z"/><path class="cls-1" d="M526.87,331.66c-21.41,0-19.88,18.71-19.88,18.71v18.71h39.77V351.93S548.28,331.66,526.87,331.66Z"/></g></g></svg>