<svg xmlns="http://www.w3.org/2000/svg" viewBox="0 0 662.05 659.01"><defs><style>.cls-1{fill:#f16a21;stroke:#231f20;stroke-miterlimit:10;stroke-width:3px;}</style></defs><title>Asset 7</title><g id="Layer_2" data-name="Layer 2"><g id="Layer_1-2" data-name="Layer 1"><polygon class="cls-1" points="232.38 437.23 217.04 424.6 198.19 447.49 98.52 447.49 98.52 560.49 211.52 560.49 211.52 462.56 232.38 437.23"/><polygon class="cls-1" points="340.25 506.31 341.75 465.63 321.89 464.89 320.3 507.81 251.12 576.99 331.02 656.89 410.93 576.99 340.25 506.31"/><polygon class="cls-1" points="659.93 327.99 580.02 248.09 509.93 318.18 448.03 318.18 448.03 338.05 510.18 338.05 580.02 407.89 659.93 327.99"/><polygon class="cls-1" points="211.52 318.18 152.12 318.18 82.02 248.09 2.12 327.99 82.02 407.89 151.87 338.05 211.52 338.05 211.52 318.18"/><polygon class="cls-1" points="466.71 447.49 443.38 424.16 429.33 438.22 452.52 461.41 452.52 560.49 565.52 560.49 565.52 447.49 466.71 447.49"/><polygon class="cls-1" points="407.89 78.49 331.52 2.12 255.16 78.49 321.52 144.86 321.52 184.49 341.52 184.49 341.52 144.86 407.89 78.49"/><polygon class="cls-1" points="565.52 95.49 452.52 95.49 452.52 195.21 432.04 211.13 444.32 226.92 468.03 208.49 565.52 208.49 565.52 95.49"/><polygon class="cls-1" points="231.13 210.66 206.52 192.25 206.52 95.49 98.52 95.49 98.52 203.49 188.17 203.49 219.15 226.68 231.13 210.66"/><ellipse class="cls-1" cx="328.52" cy="258.49" rx="93" ry="19"/><path class="cls-1" d="M235.52,270.49s-1,17,93,19c0,0,89,1,93-19v135s-1,19-93,19c0,0-91-1-93-19Z"/></g></g></svg>