<svg xmlns="http://www.w3.org/2000/svg" viewBox="0 0 341.22 341.21"><defs><style>.cls-1{fill:#f16a24;stroke:#231f20;stroke-miterlimit:10;}</style></defs><title>Asset 2</title><g id="Layer_2" data-name="Layer 2"><g id="Layer_1-2" data-name="Layer 1"><g id="Layer_2-2" data-name="Layer 2"><g id="Layer_1-2-2" data-name="Layer 1-2"><path class="cls-1" d="M95,95a7.47,7.47,0,0,1,10.56,0l.44.44A7.47,7.47,0,1,1,95.5,106l-.44-.44a7.47,7.47,0,0,1,0-10.56Zm68.32-23.84v.62a7.47,7.47,0,1,0,14.94,0v-.62a7.47,7.47,0,1,0-14.94,0Zm106.06,91.75a7.47,7.47,0,0,0,0,14.94H270a7.47,7.47,0,1,0,0-14.94ZM144.71,26.4a25.9,25.9,0,1,1,25.9,25.9h0A25.93,25.93,0,0,1,144.71,26.4Zm14.94,0a11,11,0,1,0,11-11A11,11,0,0,0,159.65,26.4Zm94.62,60.55a25.93,25.93,0,1,1,18.31,7.55,25.93,25.93,0,0,1-18.31-7.55Zm7.35-18.32a10.94,10.94,0,1,0,3.21-7.75A10.94,10.94,0,0,0,261.62,68.63ZM50.32,86.95A25.9,25.9,0,1,1,68.64,94.5a25.9,25.9,0,0,1-18.32-7.55ZM60.89,76.39a11,11,0,1,0,0-15.56l0,0A11,11,0,0,0,60.89,76.39ZM240.5,108.22a7.46,7.46,0,0,0,5.29-2.19l.44-.44A7.47,7.47,0,1,0,236,94.74l-.3.3-.44.44a7.47,7.47,0,0,0,5.28,12.74Zm-44,206.59a25.9,25.9,0,1,1-25.9-25.9h0A25.93,25.93,0,0,1,196.5,314.81Zm-14.94,0a11,11,0,1,0-11,11h0A11,11,0,0,0,181.56,314.81ZM71.19,162.93a7.47,7.47,0,0,0,0,14.94h.62a7.47,7.47,0,0,0,0-14.94Zm219.7,91.33a25.9,25.9,0,0,1-36.63,36.63h0a25.9,25.9,0,0,1,36.63-36.63h0Zm-10.56,10.56a11,11,0,1,0-.06,15.56l.06-.06A11,11,0,0,0,280.33,264.82ZM246.2,235.63l-.44-.44a7.47,7.47,0,1,0-10.57,10.56l.44.44a7.47,7.47,0,0,0,10.57-10.56h0Zm94.52-65a25.9,25.9,0,1,1-25.9-25.9h0A25.93,25.93,0,0,1,340.72,170.63Zm-14.94,0a11,11,0,1,0-11,11A11,11,0,0,0,325.78,170.63Zm-79.44,4.07V158.12c0-6.87-6-12.4-15.25-14.33a65,65,0,0,0-120.87.09c-9,2-14.92,7.47-14.92,14.23v16.56c0,7.19,6.65,12.91,16.66,14.57a7.89,7.89,0,0,0,6.24-1.67,7.65,7.65,0,0,0,2.83-5.7v-14.3a49.8,49.8,0,1,1,66.37,46.84,13.65,13.65,0,0,0-8.72-3.36h-16a13.7,13.7,0,0,0,0,27.39h16A13.54,13.54,0,0,0,191.57,229a64.79,64.79,0,0,0,40.52-40.19c8.68-2.1,14.26-7.48,14.26-14.11ZM86.95,254.26a25.9,25.9,0,1,1-36.63,0A25.9,25.9,0,0,1,86.95,254.26ZM76.39,264.82a11,11,0,0,0-15.51,0h0a11,11,0,1,0,15.56.06l-.06-.06Zm-50-68.32a25.9,25.9,0,1,1,25.9-25.9h0A25.93,25.93,0,0,1,26.4,196.5Zm11-25.9a11,11,0,1,0-11,11A11,11,0,0,0,37.4,170.6Zm58.1,64.59-.44.44a7.47,7.47,0,1,0,10.26,10.86l.3-.3.44-.44A7.47,7.47,0,0,0,95.8,234.89ZM178.32,270v-.62a7.47,7.47,0,0,0-14.94,0V270a7.47,7.47,0,1,0,14.94,0Z"/></g></g></g></g></svg>