<svg xmlns="http://www.w3.org/2000/svg" viewBox="0 0 323.69 394.9"><defs><style>.cls-1,.cls-2{fill:#f16a24;stroke:#231f20;stroke-miterlimit:10;}.cls-1{stroke-width:2px;}.cls-2{stroke-width:3px;}</style></defs><title>Asset 1</title><g id="Layer_2" data-name="Layer 2"><g id="Layer_1-2" data-name="Layer 1"><path class="cls-1" d="M44.49,375.07a4,4,0,0,0,4,4h46a160.65,160.65,0,0,0,134.7,0h46a4,4,0,0,0,4-4V342.94a160.61,160.61,0,0,0,0-219.79V91a4,4,0,0,0-4-4h-46a159.83,159.83,0,0,0-50-13.77,25.31,25.31,0,0,0-50.44,2.53A160.11,160.11,0,0,0,94.51,87h-46a4,4,0,0,0-4,4v32.12a160.6,160.6,0,0,0,0,219.79Zm72.35,4h90a154.11,154.11,0,0,1-90,0ZM314.65,233a152,152,0,0,1-35.45,97.8V135.24A152.11,152.11,0,0,1,314.65,233ZM194.36,87c-3.36-1.65-6.78-3.34-9.77-4.79a5.63,5.63,0,0,0-.61-.3A151.68,151.68,0,0,1,206.75,87Zm-40.3-28.06a17.27,17.27,0,0,1,17.27,17.23c0,.1,0,.47,0,.55a18,18,0,0,1-.59,4,4,4,0,0,0,2.1,4.64l1,.49,1.59.79c.65.31,1.38.68,2.2,1.1,3.71,1.83,9.05,4.46,14.09,6.92,14.21,6.9,14.52,6.9,15.7,6.9a17.24,17.24,0,0,1,16.78,13.27H83.94a17.25,17.25,0,0,1,16.78-13.27h.51a5,5,0,0,0,.68-.1l.45-.1c.24-.06.49-.14.79-.24,2.08-.64,6-2.3,14.4-6.48v0c1-.47,1.91-.95,2.85-1.44a1,1,0,0,0,.2-.1l2.62-1.34.22-.12,5-2.6.35-.2c.63-.33,1.24-.65,1.81-1,.26-.12.49-.26.72-.38.39-.22.77-.41,1.12-.59l3-1.61,0,0a4,4,0,0,0,2.18-3.52,3.45,3.45,0,0,0-.22-.93v-.12a17.4,17.4,0,0,1-.47-2.3,16,16,0,0,1-.16-2.2,17.33,17.33,0,0,1,17.29-17.27ZM75.57,119.7a4,4,0,0,0,3.85,3.14H228.69a4.32,4.32,0,0,0,.85-.12l.29,0a5,5,0,0,0,1.16-.55,4,4,0,0,0,1.61-2.43h5.8V345.59H69.3V119.7ZM52.54,95H92a26.71,26.71,0,0,0-3.22,1.47c-.29.16-.55.34-.82.49a24.39,24.39,0,0,0-2.39,1.59c-.28.22-.57.42-.85.65a27.91,27.91,0,0,0-2.5,2.32,2.6,2.6,0,0,1-.24.24,25.4,25.4,0,0,0-2.28,2.95l-.53.89a25.3,25.3,0,0,0-1.35,2.54c-.16.31-.32.65-.45,1a26,26,0,0,0-.87,2.5H65.29a4,4,0,0,0-4,4V349.6a4,4,0,0,0,4,4H242.42a4,4,0,0,0,4-4V115.67a4,4,0,0,0-4-4H231.63c-.12-.35-.24-.72-.38-1.08s-.27-.74-.41-1.14a26.91,26.91,0,0,0-1.2-2.56c-.2-.37-.39-.74-.61-1.1a24.29,24.29,0,0,0-1.83-2.65c-.14-.16-.26-.35-.39-.53a25.41,25.41,0,0,0-2.68-2.73c-.25-.23-.53-.43-.8-.64A22.77,22.77,0,0,0,221,97.52L220,96.87a26.86,26.86,0,0,0-2.65-1.3c-.3-.14-.57-.28-.89-.39-.12,0-.22-.1-.31-.14h55V371H52.54ZM9.06,233a152,152,0,0,1,35.44-97.8V330.84A152,152,0,0,1,9.06,233Zm0,0"/><path class="cls-2" d="M110.2,191.94a28.35,28.35,0,1,0-28.35-28.35,28.38,28.38,0,0,0,28.35,28.35Zm0-50.2a21.87,21.87,0,1,1-21.86,21.86,21.9,21.9,0,0,1,21.86-21.86Zm0,0"/><path class="cls-2" d="M110.21,261a28.35,28.35,0,1,0-28.34-28.36A28.38,28.38,0,0,0,110.21,261Zm0-50.2a21.86,21.86,0,1,1-21.86,21.87,21.89,21.89,0,0,1,21.86-21.87Zm0,0"/><path class="cls-2" d="M110.21,330.05A28.35,28.35,0,1,0,81.87,301.7a28.38,28.38,0,0,0,28.35,28.35Zm0-50.21A21.86,21.86,0,1,1,88.35,301.7a21.89,21.89,0,0,1,21.86-21.86Zm0,0"/><path class="cls-2" d="M104,173.95a3.3,3.3,0,0,0,2.36,1,3.35,3.35,0,0,0,2.38-1l16-16a3.36,3.36,0,1,0-4.75-4.74l-13.6,13.6L100.49,161a3.35,3.35,0,0,0-4.74,4.74Z"/><path class="cls-2" d="M104,243.39a3.35,3.35,0,0,0,2.36,1,3.4,3.4,0,0,0,2.38-1l16-16a3.36,3.36,0,0,0-4.75-4.75l-13.58,13.58-5.85-5.85a3.35,3.35,0,1,0-4.73,4.73Z"/><path class="cls-2" d="M103.24,315.23a3.28,3.28,0,0,0,2.36,1,3.33,3.33,0,0,0,2.38-1l16-16a3.35,3.35,0,1,0-4.75-4.74L105.6,308.1l-5.85-5.85A3.35,3.35,0,0,0,95,307ZM26.78,0"/><path class="cls-2" d="M149,177.84h78.73a4.27,4.27,0,1,0,0-8.53H149a4.27,4.27,0,1,0,0,8.53Zm0-14.25"/><path class="cls-2" d="M149,156.53h78.73a4.28,4.28,0,1,0,0-8.56H149a4.28,4.28,0,1,0,0,8.56Zm0,0"/><path class="cls-2" d="M149,248.64h78.73a4.26,4.26,0,1,0,0-8.53H149a4.26,4.26,0,1,0,0,8.53Zm0,0"/><path class="cls-2" d="M151.19,320.48h78.73a4.27,4.27,0,1,0,0-8.53H151.19a4.27,4.27,0,1,0,0,8.53Z"/><path class="cls-2" d="M149,226.83h78.73a4.27,4.27,0,1,0,0-8.53H149a4.27,4.27,0,1,0,0,8.53Zm0-19.53"/><path class="cls-2" d="M154.05,82.35a8.46,8.46,0,1,0-8.47-8.45,8.45,8.45,0,0,0,8.47,8.45Zm0-25.45v4.25L154,57a.09.09,0,0,1,.09-.08Zm0,0"/></g></g></svg>