<svg xmlns="http://www.w3.org/2000/svg" viewBox="0 0 247.07 244.07"><defs><style>.cls-1{fill:#f16a24;stroke:#231f20;stroke-miterlimit:10;stroke-width:4px;}</style></defs><title>Asset 2</title><g id="Layer_2" data-name="Layer 2"><g id="Layer_1-2" data-name="Layer 1"><path class="cls-1" d="M77.67,160.52V173H90.58s5.67-7.75,11-7.33a51.2,51.2,0,0,0,7.92.17s1.42-.33-4.33-5.33Z"/><path class="cls-1" d="M77.67,106.85v12.5h54.67l3.17-4.67s-1.17-1.5-2.17-7.83Z"/><polygon class="cls-1" points="46.5 127.02 68.33 105.18 61.5 97.85 46.5 113.1 39.33 105.68 32.17 113.1 46.5 127.02"/><polygon class="cls-1" points="46.5 181.18 68.33 159.35 61.5 152.02 46.5 167.27 39.33 159.85 32.17 167.27 46.5 181.18"/><polygon class="cls-1" points="50.25 52.35 59 43.85 66 50.85 58.13 59.52 66 68.18 58.83 75.68 50.25 66.68 41.5 75.68 34.67 68.02 43.33 59.77 34.67 51.02 41.83 43.85 50.25 52.35"/><path class="cls-1" d="M91.83,234.18s-2.33-10.33,5-18.33h-76L20.5,20.35H179.17v69.5s6-6.5,18.33-3.33v-71S198.83,4.85,185.67,2H14.17S5.83,1.18,2,11.18V224.85s2,8.17,10,9.33Z"/><path class="cls-1" d="M203,140.35H143.5s-1.67-14,13.83-24.83l-7-7.5s.17-7.33,7.33-4.83l8.83,9s7.33-1.5,13,.17l10-9.69s7.83-2.48,6.17,6l-6.5,7.17S202.33,122.35,203,140.35Z"/><path class="cls-1" d="M176.17,146.52h43.5l9.83-9.33s8.17-4.33,7.5,5.67L224.17,155H211.83s11,12.17,12.67,26.83h17.17s7.67,4.83,0,9.33h-16.5s1.17,13.17-5.67,22.67h5.17l13.83,13.67s1.5,8.83-7.17,5.83l-9.5-10-7.67-.67s-17,18.83-38,19.33Z"/><path class="cls-1" d="M169.67,146.68H127l-10.48-10s-8.46-2.46-6.87,6.38l12.68,11.5h11.33s-9.83,11.88-12,27H105.58s-8.12,4.13,0,9.75h16S120,203.52,127,213.52h-5L108.5,227.35s-2.92,7.13,5.71,6.83L125,223.27l7.87.13s13,18,36.83,18.63Z"/><rect class="cls-1" x="77.67" y="53.52" width="73.54" height="12.75"/></g></g></svg>