<?xml version="1.0" encoding="utf-8"?>
<!-- Generator: Adobe Illustrator 20.1.0, SVG Export Plug-In . SVG Version: 6.00 Build 0)  -->
<svg version="1.1" id="Layer_1" xmlns="http://www.w3.org/2000/svg" xmlns:xlink="http://www.w3.org/1999/xlink" x="0px" y="0px"
	 viewBox="0 0 300 300" style="enable-background:new 0 0 300 300;" xml:space="preserve">
<style type="text/css">
	.st0{fill:#EC8248;}
	.st1{fill:#DB5C16;}
</style>
<g transform="translate(0.000000,212.000000) scale(0.100000,-0.100000)">
	<path class="st0" d="M1280.1,2063.3C482.5,1946.4-81.2,1168,56.6,373.9C163.1-236.9,639.6-716.9,1245.2-823.3
		c193.7-33.2,312.4-33.2,507.9,0c467.7,82,865.6,390.9,1069.8,832.5c103,219.9,130.9,352.5,130.9,607.3c0,226.9-20.9,347.3-97.7,541
		C2609.9,1782.3,1950.2,2161.1,1280.1,2063.3z M2164.4,1389.3c54.5-12.4,96.5-22,112.6-54.8c7.9-15.9,4.2-26.5,0.9-73.1
		c-2.6-36.8-1.2-73.6-3-110.5c-3.5-75.7,5.2-129.1,11.7-235.6c3.8-64.6,10.6-176.1,4.7-306.8c-4.7-104.2-14.1-149.6-5.2-211.7
		c2.1-14.7,5.6-32.8,0.9-57.2c-10.3-52.2-47.3-73.3-38-93.4c7.7-16.4,34.6-5.9,61.3-26.4c22.3-17.1,18-35.4,34.7-72.4
		c30.4-67.2,70.3-63.5,93.2-129.1c5.9-17.1,13.4-38.6,8.9-65.6c-8.2-48.9-51.5-87.3-93.4-101.9c-25.5-8.9-32.5-2.8-130.9-5.8
		c-30.4-0.9-43.1-1.9-64.1-3c-199.1-9.1-541-5.8-541-5.8c-369.1,3.5-292.2,10.5-474.2,8.7c-123.2-1.2-246.8,23.4-369.5,11.7
		C706-149.8,630.1-162,588.4-117C550.7-76.2,561.2-9.9,563.6,5.5c19.7,124.8,138.9,134.7,168.1,260.9c1.2,5.4-0.3-0.3-10.3,169.1
		c-8.6,144.7-9.2,181.3-8.7,221.1c0.5,32.8,1.4,48,2.3,108c0.7,47.3,0.7,82.4,0.5,115.9c0,81.5,3.5,163,0,244.3
		c-1.2,27.4-4.7,100.4,12.6,181.3c4.2,19.4,10.5,43.8,31.1,60c10.8,8.6,23.9,13.6,84.3,17.5c43.1,2.8,77.7,2.8,101.7,3
		c48.3,0,79.9,0,93,0c33.5,0,82.2,0.5,142.6,3c22.3-1.2,56.7-2.6,99-3c48.3-0.3,62.8,1,98.3,1c92.1,0.2,92.8-9.6,163.7-8.7
		c68.4,0.9,70.3,9.9,149.4,12c58.1,1.6,82.2-2.6,129.8-4.4c52-1.9,127.6-0.5,222.5,15.5C2095.4,1402.6,2136.8,1395.6,2164.4,1389.3z
		"/>
	<path class="st0" d="M737.3,1365.2c-31.4-34.9-33.2-71.6-34.9-528.8c-1.7-268.8,5.2-509.6,12.2-530.6c14-34.9,7-50.6-36.7-90.8
		C601.2,143.6,529.6-22.2,548.8-79.8c29.7-83.8,55.8-87.3,783.6-89c1090.8-5.2,1033.2-7,1085.5,45.4c34.9,34.9,41.9,54.1,33.2,99.5
		c-15.7,76.8-111.7,232.1-160.6,258.3c-36.7,19.2-38.4,22.7-14,59.3c22.7,33.2,26.2,122.2,22.7,530.6c-3.5,457.3-5.2,493.9-36.7,534
		l-33.2,43.6H1500C780.9,1401.9,770.4,1401.9,737.3,1365.2z M2227.7,1346c29.7-29.7,29.7-1028,0-1057.6
		c-29.7-29.7-1429.4-29.7-1459,0c-29.7,29.7-29.7,1028,0,1057.6C798.4,1375.7,2198.1,1375.7,2227.7,1346z M2344.7,115.6
		c85.5-137.9,94.2-178,43.6-218.2c-36.7-29.7-90.8-31.4-888.3-31.4c-740,0-853.4,3.5-888.3,27.9c-20.9,14-38.4,38.4-38.4,52.4
		c0,29.7,59.3,151.8,108.2,221.6l33.2,47.1h783.6h781.9L2344.7,115.6z"/>
	<path class="st1" d="M800.1,822.5V328.6h698.1h698.1v493.9v492.2h-698.1H800.1V822.5z M2152.7,817.2V380.9h-654.5H843.7L838.5,798
		c-1.7,230.4,0,429.3,3.5,441.5c8.7,19.2,132.6,22.7,659.7,19.2l651-5.2V817.2z"/>
	<path class="st1" d="M837.8,930.5c1.9-77.5-1.2-107.9-7.2-274.9c-8.4-232.1-5.4-253.9,15.4-272.8c22.2-20.1,91.1-17.8,229.2-13.1
		c60.6,2.1,128.3,6.8,196.3,0c7.2-0.7,26-2.8,52.4-4.4c38.4-2.3,62.3-1.9,96-2.3c71.7-0.5,66.8-3,115.9-2.8
		c66.1,0.2,66.5,4.7,122,5.1c46.6,0.2,42.6-3.1,144-8.7c62-3.5,98.1-5.4,148.3-4.4c58.8,1.2,47.3,4.5,89.5,4.4
		c68.9-0.3,105.1-9.6,120.1,11c7.7,10.5,7.3,25.3,4.4,34.9c-24.3,76.6-288.5-3.3-517.1,135.6c-26.5,16.1-46.8,31.8-59.3,41.9
		c-19.2,12.2-17.5,22.7,7,61.1c20.9,31.4,36.7,40.1,43.6,27.9c8.7-14,26.2-3.5,50.6,29.7c31.4,36.7,38.4,66.3,33.2,129.1
		c-3.5,59.3,0,78.5,17.5,73.3c12.2-5.2,20.9,5.2,20.9,22.7c0,27.9,3.5,29.7,17.5,7c24.4-38.4,20.9-169.3-7-223.4
		c-14-26.2-45.4-66.3-69.8-89c-8.4-7.7-24.1-32.3-42.9-64.9c-13.1-23-19.7-34.4-19.9-39.6c-3.7-72.8,493.4-197,540.3-99.8
		c6.1,12.7-2.1,15.2-10.3,119.4c-3,37.7-5.1,66.5-4.4,104.7c0.9,45.7,5.1,55.7,6.6,96c1.9,49-2.6,76.3-6.6,122.2
		c-7.2,83.2-5.8,148-4.4,205.2c3.7,161.6,27.1,164.6,10.6,192.7c-42.2,72.3-181.7,21.3-590.9,14.5c-115.5-1.9-193.9-3.1-303.5,1.7
		c-67,3-134.6-0.7-201.1,7.9c0,0-104.5,13.8-210.8-7.3c-11.2-2.3-34-7.3-41.5-24.1c-5.9-13.4,10.5-24.8,13.1-52.4
		c1.4-13.8-1.9-15.7-4.4-37.2c-3.1-27.9,0.9-36.1,4.4-98.3c0.9-16.6,1.4-28.6,1.7-42.2C837.5,988.1,837.1,959.3,837.8,930.5z
		 M1651.8,1052.8c45.4-27.9,64.6-31.4,82-17.5c20.9,17.5,20.9,10.5,8.7-38.4c-10.5-31.4-17.5-57.6-17.5-59.3c0,0-22.7,1.7-50.6,7
		c-34.9,5.2-48.9,15.7-41.9,31.4c10.5,29.7-64.6,48.9-137.9,34.9c-62.8-12.2-136.1-73.3-136.1-111.7c0-19.2-5.2-20.9-22.7-5.2
		c-17.5,14-29.7,12.2-45.4-3.5c-15.7-14-14-3.5,3.5,31.4C1369.1,1070.3,1527.9,1127.9,1651.8,1052.8z M1389.3,752
		c11.9-21.6,55.3-101.7,128.6-107.3c18.2-1.4,56.5,18,133.2,56.7c28.6,14.5,43.8,23.2,52.4,41.5c16.4,34.6-2.1,79.6-13.1,79.8
		c-13.6,0.2,0.3-133.9-59.3-108.2c-12.2,5.2-27.9-3.5-33.2-17.5c-15.7-41.9-122.2-36.7-160.6,7c-17.5,20.9-34.9,48.9-36.7,66.3
		c-1.7,15.7-8.7,47.1-15.7,68.1c-2.8,8.7-3.7,16.9-2.8,25c3.7,34.9,35.6,57.6,36,57.1c0.5-0.5-40-24.1-50.8-70.5
		C1357.9,809.7,1376,776,1389.3,752z M1356.9,777.1c-8.7-3.5-3.5-29.7,12.2-59.3c27.9-52.4,118.7-104.7,158.8-89
		c15.7,7,19.2,0,12.2-20.9c-7-17.5-1.7-36.7,12.2-45.4c47.1-29.7-41.9-15.7-116.9,17.5c-73.3,33.2-136.1,104.7-150.1,167.5
		c-3.5,19.2-17.5,33.2-27.9,31.4c-34.9-8.7-24.4,24.4,17.5,50.6c34.9,24.4,41.9,22.7,68.1-10.5
		C1360.3,798,1365.6,780.6,1356.9,777.1z"/>
	<path class="st1" d="M1309.7-15.3c-19.2-31.4-31.4-62.8-27.9-69.8c12.2-17.5,420.6-17.5,432.8,0c3.5,7-8.7,38.4-27.9,69.8
		l-34.9,55.8h-153.6h-153.6L1309.7-15.3z M1643.1-27.5c1.4-3.7,2.1-11.2,7.2-12.9c9.1-3,28.1,15.2,26.9,30.5
		c-1.4,19.4-35.4,30.2-43.6,32.8c-55,17.3-74.5-17.5-144-15.4c-54.6,1.7-82.2,24.6-110.1,4.7c-8.9-6.3-22.7-20.4-19-29.3
		C1374.1-50.3,1627.4,13.9,1643.1-27.5z"/>
</g>
</svg>
