<svg xmlns="http://www.w3.org/2000/svg" viewBox="0 0 520.69 619.12"><defs><style>.cls-1{fill:#f16a24;stroke:#231f20;stroke-miterlimit:10;stroke-width:3px;}</style></defs><title>Asset 5</title><g id="Layer_2" data-name="Layer 2"><g id="Layer_1-2" data-name="Layer 1"><g id="Layer_2-2" data-name="Layer 2"><g id="Layer_1-2-2" data-name="Layer 1-2"><path class="cls-1" d="M518.53,160.13c-.32-16.63-.61-32.34-.61-47.54A21.58,21.58,0,0,0,496.34,91c-92.24,0-162.43-26.52-221-83.4a21.55,21.55,0,0,0-30.07,0C186.77,64.52,116.55,91,24.28,91A21.58,21.58,0,0,0,2.76,112.58c0,15.21-.29,30.94-.61,47.57C-.76,314.94-4.86,527,253.27,616.43a21.49,21.49,0,0,0,14.13,0C525.53,527,521.49,314.94,518.53,160.16Zm-258.25,413C38.91,492.73,42.19,316.57,45.1,161c.17-9.33.35-18.41.47-27.28,86.36-3.63,155.42-29.83,214.57-81.42,59.15,51.5,128.21,77.67,214.6,81.42,0,8.87.29,17.94.47,27.25,2.91,155.63,6.31,331.78-215.18,412.22Z"/><path class="cls-1" d="M334.58,237.85,230.5,342l-44.43-44.43A21.58,21.58,0,0,0,155.6,328l59.67,59.67a21.55,21.55,0,0,0,30.47,0l0,0L365,268.47a21.58,21.58,0,0,0-29.72-31.29q-.4.38-.78.78Z"/></g></g></g></g></svg>