<?xml version="1.0" encoding="utf-8"?>
<!-- Generator: Adobe Illustrator 20.1.0, SVG Export Plug-In . SVG Version: 6.00 Build 0)  -->
<svg version="1.1" id="Layer_1" xmlns="http://www.w3.org/2000/svg" xmlns:xlink="http://www.w3.org/1999/xlink" x="0px" y="0px"
	 viewBox="0 0 300 300" style="enable-background:new 0 0 300 300;" xml:space="preserve">
<style type="text/css">
	.st0{fill:#EC8248;}
	.st1{fill:#DB5C16;}
</style>
<g transform="translate(0.000000,212.000000) scale(0.100000,-0.100000)">
	<path class="st0" d="M1289.9,1986.2c-499.5-81.8-907.1-375.2-1111.8-804.9C10.5,828.5,13.7,387.5,186.2,36.3
		c138.6-283.8,357.7-497.1,652.6-641.4c233.6-112.2,338.4-137.9,607.4-147.5c341.6-12.8,592.9,51.3,857.2,219.7
		c306.1,197.2,526.9,498.7,615.5,841.8c41.9,168.4,38.7,474.6-6.4,638.2c-143.4,508.3-522.1,872.3-1048.9,1007
		C1726.5,1989.4,1418.8,2007,1289.9,1986.2z M1531.6,1449.2c100.9-22.4,110.1-66.2,212.2-93.5c6.4-1.8-0.8,0.3,139.7-26.8
		c43.5-8.3,48-9.3,59.1-10.7c72.2-8.8,87.2,5.5,137.8-2.4c26.3-4,76.2-11.7,109.9-49.5c8.7-9.8,25.6-32.1,35.1-106
		c10.2-78.1-3.7-91.9-1-178.8c3.1-97.5,21.3-105.5,11.9-176.2c-4.2-31.9-10.3-48.1-14.5-93.6c-5-52.9-2.3-90.4-1.8-106.3
		c5.2-153.1-113.8-319.6-164.7-390.8c-19.2-26.9-33.8-47-59.1-69.4c-32.5-28.9-52.8-35-91.4-69.4c-23.7-21.3-37.1-37.8-48.3-50.8
		C1782.1-60.7,1732-62,1604.1-170.4c-53.2-45.1-69-65.4-101-64.9c-37.5,0.6-57.7,29.2-105.9,73c-71.2,64.9-71.1,42.3-186.6,132.6
		c-39.8,31.1-78,65.6-154.5,134.5c-83.6,75.4-126,113.8-153.1,147c-22.1,27.1-74,91.4-106.3,177.3c-37.1,98.1-11,123.9-14.5,449.8
		c-0.6,61.7,2.3,123.5,2.7,185.4c1.1,136.6-0.5,174,29.5,205.7c29.8,31.7,73.8,38.6,139.7,50.8c47.9,8.8,63.3,3.7,123.6,8
		c25.6,1.9,104.9,8,188,34.8c45.9,14.8,112.5,41.9,185.3,94.9C1469,1458.3,1497.6,1456.7,1531.6,1449.2z"/>
	<path class="st0" d="M1451,1458.6c-25.8-22.4-204.6-96.2-257.8-107.4c-25.8-4.8-108-12.8-180.5-16
		c-244.9-11.2-248.1-17.6-246.5-460.2c0-296.6,3.2-359.2,30.6-445.8c32.2-102.6,96.7-195.6,193.4-280.6
		c30.6-25.7,62.8-56.1,72.5-64.1c9.7-9.6,46.7-38.5,82.2-64.1s72.5-54.5,80.6-62.5c9.7-9.6,72.5-59.3,140.2-110.6
		c128.9-97.8,153.1-104.2,215.9-46.5c16.1,16,125.7,101,240.1,189.2C2097.1,203.1,2197,325,2222.8,485.3
		c19.3,113.8,17.7,718.4-1.6,753.6c-41.9,77-77.3,91.4-232,97.8c-186.9,6.4-214.3,12.8-352.9,80.2
		C1520.3,1473.1,1478.4,1482.7,1451,1458.6z M1600.8,1391.3c125.7-60.9,272.3-96.2,412.5-96.2c93.5,0,119.2-6.4,149.8-35.3
		c37.1-33.7,37.1-40.1,37.1-381.6c0-527.5-11.3-550-417.3-872.3c-149.8-120.3-277.1-218.1-282-218.1
		c-20.9,0-496.3,392.9-560.7,463.4C821,382.7,809.7,429.2,801.7,849.3l-6.4,364l41.9,41.7c35.4,35.3,53.2,40.1,151.5,40.1
		c132.1,0,335.1,48.1,428.6,102.6c35.4,20.8,70.9,38.5,75.7,40.1C1499.3,1439.4,1547.7,1418.5,1600.8,1391.3z"/>
	<path class="st1" d="M1418.8,1096.2c-99.9-44.9-128.9-96.2-135.3-235.7l-4.8-126.7h41.9c41.9,0,41.9,1.6,41.9,112.2
		c0,99.4,4.8,118.7,40.3,152.3c51.6,52.9,135.3,52.9,196.6,1.6c38.7-33.7,45.1-51.3,49.9-152.3c6.4-97.8,11.3-113.8,37.1-113.8
		c27.4,0,30.6,12.8,30.6,112.2c0,125.1-24.2,189.2-87,229.3C1573.5,1113.9,1475.2,1123.5,1418.8,1096.2z"/>
	<path class="st1" d="M1452.6,1315.9c-108-56.1-235.2-88.2-388.3-97.8l-161.1-11.2l-4.8-311.1c-4.8-357.6,12.9-461.8,98.3-572.4
		c43.5-57.7,157.9-153.9,439.9-372l67.7-52.9L1654,15.5c306.1,242.1,343.2,275.8,393.2,373.6l48.3,94.6v360.8v362.4l-153.1,9.6
		c-143.4,9.6-296.5,48.1-402.8,102.6C1505.8,1336.8,1491.3,1336.8,1452.6,1315.9z M1629.9,1240.5c106.3-44.9,304.5-80.2,380.3-70.6
		l46.7,8l-4.8-354.4c-6.4-461.8,6.4-437.7-365.8-728L1502.6-47L1347.9,73.2c-261,202-299.7,238.9-349.6,327.1l-46.7,85l-4.8,346.4
		l-6.4,346.4l48.3-8c77.3-11.2,270.7,25.7,394.8,75.4c64.5,25.7,124.1,43.3,132.1,40.1C1525.1,1283.8,1575.1,1263,1629.9,1240.5z"/>
	<path class="st1" d="M1223.8,695.4c-4.8-11.2-4.8-94.6-3.2-187.6l4.8-166.8l278.8-4.8l278.8-3.2l-4.8,187.6l-4.8,189.2l-270.7,1.6
		C1306,713,1228.6,708.2,1223.8,695.4z M1431.7,637.6c-62-36.7-93.1-93.8-84.9-147.5c0.6-3.7,8.5-20.7,23.7-54.5
		c7.6-17,13.9-30.5,28.2-39.4c1.9-1.1,16.6-10.3,22.9-5.3c6.1,4.8,1.5,21-2.7,30.3c-9.8,22-25.3,24.9-37.4,40.7
		c-8.1,10.6-15.8,28.4-12.2,59.8c-1.8,12-3.5,24.1-5.3,36.1c10.8,7.4,21.4,14.6,32.2,22c29.2,30,58.2,60,87.3,90L1431.7,637.6z
		 M1609.1,561.5c2.9-7.4,6-16.7,12.7-29.3c7.1-13,14.7-22.8,19.8-29c-9.3-11.1-18.9-22.3-28.2-33.4c-3.5-15.1-7.1-30.3-10.8-45.4
		c1.1-16.5,3.4-35.8,8.9-36.4c4.7-0.5,6.9,14.8,13.4,22.1c22.6,25.7,33.8,73.8,29,129.9c-1.6,11.2-27.4,46.5-59.6,75.4l-56.4,54.5
		c13.1-18.1,26.1-36.2,39.2-54.4C1594.7,593.5,1603.9,574.8,1609.1,561.5z M1563.8,612c12.9-6.4,35.4-30.5,48.3-56.1
		c29-54.5,12.9-110.6-43.5-149.1c-51.6-36.9-104.7-32.1-149.8,14.4C1318.9,519,1428.4,663.3,1563.8,612z"/>
	<path class="st1" d="M1326.1,678.2"/>
	<path class="st1" d="M2234.1,671.3"/>
	<path class="st0" d="M2283.5,901.3c0,0-83.3,1.8-83.3-10.7c0-12.5,35.6-131,35.6-131l98.8,24.1L2283.5,901.3z"/>
	<path class="st0" d="M1835,19.3l-96.7-82.9l24.2-88.2c0,0,161.1,88.2,153.1,85.5C1907.5-68.9,1835,19.3,1835,19.3z"/>
	<polygon class="st0" points="819.9,414.9 795.2,559.2 682.9,529.6 731.2,297.4 	"/>
	<polygon class="st0" points="1429.6,-178.4 1563.8,-269.3 1483.2,-330.7 1314,-274.6 	"/>
</g>
</svg>
