<svg xmlns="http://www.w3.org/2000/svg" viewBox="0 0 182.03 215.88"><defs><style>.cls-1{fill:#f16a24;stroke:#231f20;stroke-miterlimit:10;stroke-width:4px;}</style></defs><title>Asset 2</title><g id="Layer_2" data-name="Layer 2"><g id="Layer_1-2" data-name="Layer 1"><path class="cls-1" d="M179.81,56.55c-.11-5.72-.21-11.12-.21-16.35a7.42,7.42,0,0,0-7.42-7.42c-31.72,0-55.86-9.12-76-28.68a7.41,7.41,0,0,0-10.34,0c-20.12,19.57-44.27,28.68-76,28.68A7.42,7.42,0,0,0,2.44,40.2c0,5.23-.1,10.64-.21,16.36-1,53.23-2.41,126.14,86.36,156.91a7.39,7.39,0,0,0,4.86,0c88.77-30.77,87.38-103.68,86.36-156.91ZM91,198.59c-76.13-27.66-75-88.24-74-141.75.06-3.21.12-6.33.16-9.38,29.7-1.25,53.45-10.26,73.79-28,20.34,17.71,44.09,26.71,73.8,28,0,3.05.1,6.17.16,9.37,1,53.52,2.17,114.1-74,141.76Zm0,0"/><path class="cls-1" d="M116.55,83.28,80.76,119.08,65.48,103.8A7.42,7.42,0,0,0,55,114.29l20.52,20.52a7.41,7.41,0,0,0,10.49,0l41-41a7.42,7.42,0,1,0-10.49-10.49Zm0,0"/></g></g></svg>