<?xml version="1.0" encoding="utf-8"?>
<!-- Generator: Adobe Illustrator 20.1.0, SVG Export Plug-In . SVG Version: 6.00 Build 0)  -->
<svg version="1.1" id="Layer_1" xmlns="http://www.w3.org/2000/svg" xmlns:xlink="http://www.w3.org/1999/xlink" x="0px" y="0px"
	 viewBox="0 0 300 300" style="enable-background:new 0 0 300 300;" xml:space="preserve">
<style type="text/css">
	.st0{fill:#EC8247;}
</style>
<g>
	<g transform="translate(0.000000,212.000000) scale(0.100000,-0.100000)">
		<path class="st0" d="M1282.4,2067.1C484.3,1950.1-79.7,1171.3,58.2,376.7c106.5-611.2,583.3-1091.5,1189.3-1198
			c193.8-33.2,312.6-33.2,508.2,0c468,82.1,866.2,391.2,1070.5,833c103,220,131,352.8,131,607.7c0,227-21,347.5-97.8,541.4
			C2613.1,1786,1953,2164.9,1282.4,2067.1z M1739.8,1422.4c121.5-67.4,183.7-175,211.5-223.2c12.9-22.4,22.9-43,32.8-63.4
			c47.8-98.1,73.3-147.2,75.1-191.6c1.6-38.6-9.3-27.4-17.3-113.3c-6.5-69-0.7-88.5-19.2-108.4c-22.9-24.4-67.9-34.6-101.3-26.2
			c-12.2,3-17.8,7.5-32.3,8c-26.5,1-53.4-11.9-69.9-30.6c-18.5-21-11.9-35.6-24.1-69.2c-23.4-64.6-75.3-86.4-67.6-101.1
			c6.3-12,46.3,18.2,95.7,3.1c26.9-8.2,27.6-20.8,65.8-38.1c32.5-14.7,35.3-7,72.6-20.3c54.5-19.2,69.2-37.7,108.6-58.3
			c39.5-20.6,40.2-20.1,52.2-29.7c14.1-11.5,75.3-62.3,120.1-151.4c12.2-24.4,25.7-92.7,52.4-229.3c8.7-44.5,15.2-79.8-3.5-95.3
			c-19.4-16.2-44.5,6.8-92.4-6.1c-34.6-9.3-36.1-25.1-78.8-42.6c-29.5-12-33.5-6.5-83-17.5c-77.7-17.5-85.6-34.9-148.1-42.8
			c-17.6-2.3-36.3-2.6-73.5-1.7c-53.8,1.2-88,8.4-180,9.6c-145.8,1.9-145.6-17.3-274.9-18.5c-177.6-1.6-316.6,33.7-404.5,56.6
			C843-149.3,751.3-113.3,687.4-85.1c6.3,54.8,12.4,109.7,18.7,164.5c45.4,82.8,90.8,165.7,136.2,248.5
			c77.2,30.4,134.8,63.2,173.8,88.2c73.5,47,106,81.9,170.3,87.3c53.3,4.5,87.3-14.7,96,0c9.8,16.6-32,43.5-81.2,120.3
			c-40.9,63.7-52,107.7-76,106.7c-21-0.9-23.4-35.1-51.2-42.1c-30.4-7.7-69.2,23.2-89.4,53.6c-15,22.7-28.1,57.6-7.9,211
			c7.2,54.5,15.4,99.5,21.7,131.1c16.8,44.4,45.8,107.7,96,174.6c39.5,52.4,95,126.3,197.9,175.9c21.5,10.3,105.3,48.5,220.9,46.5
			C1574.4,1480,1657,1468.1,1739.8,1422.4z"/>
		<path class="st0" d="M1352.3,1457.7c-132.7-41.9-241-132.7-300.4-251.5c-24.4-48.9-59.4-103-76.8-120.5
			c-27.9-26.2-33.2-57.6-33.2-178.1c0-125.7,5.2-153.7,34.9-183.4c19.2-19.2,45.4-36.7,57.6-36.7c38.4-3.5,73.3,5.2,83.8,22.7
			c5.2,8.7,24.4-5.2,41.9-33.2c59.4-89.1,136.2-144.9,200.8-144.9c24.4,0,54.1-8.7,64.6-19.2c24.4-24.4,85.6-5.2,99.5,29.7
			c27.9,71.6-89.1,132.7-125.7,66.4c-12.2-22.7-26.2-24.4-83.8-8.7c-111.8,29.7-214.8,225.3-167.6,321.3
			c10.5,21,22.7,75.1,29.7,120.5c22.7,171.1,138,267.2,323.1,267.2s300.4-96,323.1-267.2c7-45.4,19.2-99.5,29.7-120.5
			c24.4-48.9,5.2-143.2-43.7-218.3c-21-33.2-54.1-89.1-71.6-125.7c-52.4-99.5-122.2-141.5-239.2-141.5c-85.6,0-108.3,7-171.1,57.6
			c-40.2,31.4-71.6,48.9-71.6,38.4c0-8.7-14-17.5-29.7-17.5c-17.5,0-73.3-15.7-125.7-36.7c-223.5-83.8-323.1-179.9-384.2-365
			c-43.7-132.7-45.4-197.3-8.7-228.8c34.9-27.9,138-66.4,207.8-76.8c29.7-5.2,71.6-12.2,96-17.5c24.4-5.2,75.1-12.2,113.5-17.5
			c80.3-10.5,632.2-12.2,724.7-1.7c227,24.4,387.7,64.6,441.8,113.5c27.9,22.7,31.4,43.7,22.7,115.3
			c-15.7,118.8-103,295.1-172.9,347.5c-76.8,57.6-307.4,167.6-354.5,167.6c-36.7,0-38.4,1.7-8.7,57.6
			c66.4,127.5,75.1,134.5,143.2,124c50.6-8.7,71.6-3.5,101.3,26.2c31.4,31.4,36.7,57.6,36.7,181.6c0,125.7-5.2,151.9-36.7,179.9
			c-19.2,17.5-52.4,69.9-71.6,115.3C1856.9,1417.5,1588,1534.5,1352.3,1457.7z M1659.6,1414c136.2-47.2,277.7-197.3,277.7-296.9
			c0-14,19.2-34.9,43.7-43.7c41.9-15.7,43.7-22.7,43.7-164.2c0-157.2-17.5-192.1-87.3-181.6c-33.2,5.2-36.7,17.5-40.2,197.3
			c-3.5,232.3-33.2,303.9-157.2,387.7c-199.1,134.5-494.2,71.6-595.5-125.7c-29.7-55.9-36.7-106.5-40.2-261.9
			c-3.5-179.9-7-192.1-40.2-197.3c-69.9-10.5-87.3,24.4-87.3,181.6c0,141.5,1.7,148.4,43.7,164.2c24.4,8.7,43.7,29.7,43.7,43.7
			c0,52.4,68.1,162.4,134.5,216.5C1322.6,1435,1504.2,1466.4,1659.6,1414z M1483.2,567c0-8.7-15.7-17.5-34.9-17.5
			c-19.2,0-34.9,8.7-34.9,17.5c0,10.5,15.7,17.5,34.9,17.5C1467.5,584.5,1483.2,577.5,1483.2,567z M1308.6,259.7
			c61.1-193.8,157.2-382.4,192.1-382.4c36.7,0,127.5,179.9,202.6,403.4l69.9,213.1l174.6-83.8c94.3-45.4,186.9-97.8,202.6-115.3
			c50.6-57.6,117-221.8,122.2-303.9c7-92.6-10.5-104.8-221.8-148.4c-379-78.6-1232.9-33.2-1320.2,71.6
			c-29.7,34.9,10.5,195.6,76.8,305.6c52.4,87.3,69.9,101.3,239.2,185.1c158.9,78.6,185.1,87.3,193.8,61.1
			C1245.7,450,1277.2,355.7,1308.6,259.7z M1429.1,401.1c57.6-12.2,57.6-12.2,17.5-33.2c-36.7-17.5-41.9-33.2-41.9-110
			c0-48.9-5.2-94.3-12.2-101.3c-10.5-10.5-101.3,249.7-101.3,291.6c0,10.5,15.7,7,40.2-8.7C1352.3,425.6,1395.9,408.1,1429.1,401.1z
			 M1701.5,406.4c-21-97.8-64.6-223.5-82.1-234c-29.7-17.5-34.9,5.2-15.7,71.6c15.7,57.6,12.2,69.9-24.4,106.5l-43.7,43.7l52.4,8.7
			c27.9,7,61.1,22.7,71.6,34.9C1694.5,479.7,1713.7,465.7,1701.5,406.4z M1568.8,264.9c-8.7-29.7-15.7-57.6-15.7-59.4
			c0-3.5-22.7-5.2-50.6-5.2c-50.6,0-71.6,24.4-71.6,87.3c0,24.4,15.7,34.9,66.4,38.4C1584.5,333,1588,331.3,1568.8,264.9z
			 M1560.1,154.9c5.2-15.7,10.5-41.9,10.5-59.4c0-38.4-52.4-157.2-69.9-157.2c-17.5,0-69.9,118.8-69.9,157.2
			c0,61.1,21,87.3,69.9,87.3C1528.6,182.8,1553.1,170.6,1560.1,154.9z"/>
	</g>
	<path class="st0" d="M157.9,177l-4.4-4.4c0,0,6.3,0,9.6-2.4l5.8-5.9l3.8,4.2l-9.6,27.9l-5.4-1l2.8-15L157.9,177z"/>
	<polygon class="st0" points="127.5,166.6 132.3,165.8 148.3,172.4 146.1,176.4 143.1,179 141.3,185.5 141.3,191.3 139.4,197.2 
		137.3,195.3 127.5,171.7 	"/>
	<polygon class="st0" points="152.3,173.5 165.4,171.2 163.2,167.2 	"/>
	<path class="st0" d="M266.7,191.3"/>
	<path class="st0" d="M222.2,232.3c4.2-1,8.4-2.1,12.7-3.1"/>
	<path class="st0" d="M302,225"/>
	<polygon class="st0" points="196,83 193.2,88.2 198.1,100.5 210,103.8 	"/>
	<polygon class="st0" points="153.6,64 168.9,68.2 177.1,73.4 193.2,68.2 153.6,54.2 	"/>
	<polygon class="st0" points="176.3,149.7 172.8,157 183.2,157 186.7,147.6 	"/>
	<polygon class="st0" points="193.2,159.5 194.3,166.6 202.5,173.5 223.9,185.5 218.7,164.2 195.5,159.5 	"/>
</g>
</svg>
