<svg xmlns="http://www.w3.org/2000/svg" viewBox="0 0 344.21 344.21"><defs><style>.cls-1{fill:#f16a24;stroke:#231f20;stroke-miterlimit:10;stroke-width:4px;}</style></defs><title>Asset 1</title><g id="Layer_2" data-name="Layer 2"><g id="Layer_1-2" data-name="Layer 1"><path class="cls-1" d="M96.53,96.52a7.47,7.47,0,0,1,10.56,0l.44.44A7.47,7.47,0,1,1,97,107.52l-.44-.44a7.47,7.47,0,0,1,0-10.56Zm68.32-23.84v.62a7.47,7.47,0,1,0,14.94,0v-.62a7.47,7.47,0,0,0-14.94,0Zm106.06,91.75a7.47,7.47,0,0,0,0,14.94h.62a7.47,7.47,0,1,0,0-14.94ZM146.21,27.9a25.9,25.9,0,1,1,25.9,25.9,25.93,25.93,0,0,1-25.9-25.9Zm14.94,0a11,11,0,1,0,11-11,11,11,0,0,0-11,11Zm94.62,60.55A25.93,25.93,0,1,1,274.08,96a25.72,25.72,0,0,1-18.31-7.57Zm7.35-18.32a10.94,10.94,0,1,0,3.21-7.75,10.89,10.89,0,0,0-3.21,7.75ZM51.82,88.45A25.9,25.9,0,1,1,70.14,96a25.93,25.93,0,0,1-18.32-7.59ZM62.39,77.89a11,11,0,1,0,0-15.51,11,11,0,0,0,0,15.51ZM242,109.72a7.46,7.46,0,0,0,5.29-2.19l.44-.44a7.47,7.47,0,1,0-10.57-10.55l-.44.44A7.47,7.47,0,0,0,242,109.72ZM198,316.31a25.9,25.9,0,1,1-25.9-25.9,25.93,25.93,0,0,1,25.9,25.9Zm-14.94,0a11,11,0,1,0-11,11,11,11,0,0,0,11-11ZM72.69,164.43a7.47,7.47,0,0,0,0,14.94h.62a7.47,7.47,0,1,0,0-14.94Zm219.7,91.33a25.9,25.9,0,0,1-36.63,36.63h0a25.9,25.9,0,0,1,36.63-36.63Zm-10.56,10.56a11,11,0,1,0,0,15.5,11,11,0,0,0,0-15.5ZM247.7,237.13l-.44-.44a7.47,7.47,0,0,0-10.57,10.56l.44.44a7.47,7.47,0,0,0,10.57-10.56Zm94.52-65a25.9,25.9,0,1,1-25.9-25.9,25.93,25.93,0,0,1,25.9,25.9Zm-14.94,0a11,11,0,1,0-11,11,11,11,0,0,0,11-11Zm-79.44,4.07V159.62c0-6.87-6-12.4-15.25-14.33a65,65,0,0,0-120.87.09c-9,2-14.92,7.47-14.92,14.23v16.56c0,7.19,6.65,12.91,16.66,14.57a7.89,7.89,0,0,0,6.24-1.67,7.65,7.65,0,0,0,2.83-5.7v-14.3a49.8,49.8,0,1,1,66.37,46.84,13.65,13.65,0,0,0-8.72-3.36h-16a13.7,13.7,0,0,0,0,27.39h16a13.54,13.54,0,0,0,12.89-9.47,64.79,64.79,0,0,0,40.52-40.19c8.68-2.1,14.26-7.48,14.26-14.11ZM88.45,255.76a25.9,25.9,0,1,1-36.63,0,25.93,25.93,0,0,1,36.63,0ZM77.89,266.32a11,11,0,0,0-15.51,0h0a11,11,0,1,0,15.5,0ZM27.9,198a25.9,25.9,0,1,1,25.9-25.9A25.93,25.93,0,0,1,27.9,198Zm11-25.9a11,11,0,1,0-11,11,11,11,0,0,0,11-11ZM97,236.69l-.44.44a7.47,7.47,0,1,0,10.56,10.56l.44-.44A7.47,7.47,0,1,0,97,236.69Zm82.82,34.84v-.62a7.47,7.47,0,1,0-14.94,0v.62a7.47,7.47,0,0,0,14.94,0Zm0,0"/></g></g></svg>