<?xml version="1.0" encoding="utf-8"?>
<!-- Generator: Adobe Illustrator 20.1.0, SVG Export Plug-In . SVG Version: 6.00 Build 0)  -->
<svg version="1.1" id="Layer_1" xmlns="http://www.w3.org/2000/svg" xmlns:xlink="http://www.w3.org/1999/xlink" x="0px" y="0px"
	 viewBox="0 0 300 300" style="enable-background:new 0 0 300 300;" xml:space="preserve">
<style type="text/css">
	.st0{fill:#FFE0A5;}
	.st1{fill:#EC8247;}
</style>
<g>
	<polygon class="st0" points="127.6,104.8 121.3,123.3 127.6,154 139.6,188.4 165.9,187.6 172.1,154 182.7,128.7 182.7,105.9 
		154.3,98.3 	"/>
	<g>
		<g transform="translate(0.000000,212.000000) scale(0.100000,-0.100000)">
			<path class="st1" d="M1283.2,2079.5C479.5,1961.7-88.6,1177.2,50.3,377C157.6-238.7,637.7-722.3,1248-829.5
				c195.3-33.4,314.9-33.4,511.8,0c471.4,82.7,872.3,393.9,1078.1,838.9c103.8,221.6,131.9,355.3,131.9,612.1
				c0,228.7-21.1,350-98.5,545.3C2623.5,1796.4,1958.6,2178,1283.2,2079.5z M2108.1,1300.3c47.9-77.4,63.1-147.4,70.4-182.8
				c7.4-35.7,20.2-100.6,9.6-183.6c-9.1-71.6-31.6-123.7-59.1-187.5c-21.9-50.9-32.5-65.3-58.7-117.3
				c-46.4-92.1-100.6-200-129.5-334.6c-19.8-91.9-11.5-121-44.4-168.5c-20.4-29.3-51.1-57.9-43.8-91.9c4.4-20.5,20.8-35.9,15-60.8
				c-1.5-6.2-4.7-13.2-11.1-27.2c-11.5-25.1-17-29.3-14.9-37.2c3.5-13.5,22.2-12.3,26-25.7c2.9-10.2-5.8-19.3-17.2-35.9
				c-19.8-28.6-12.5-28-30.9-55c-17.6-26-34.2-50.6-63.8-68.1c-16.3-9.7-32.1-14.6-46.2-33c-5.3-6.8-6.8-11.1-13.7-16.3
				c-12.6-9.6-22.8-7-39.1-14.4c-11.7-5.3-17.8-11.9-24.2-17.6c-21.4-19-56.5-37.8-79.2-44.1c-37.1-10-81.2,10.8-169.3,52.7
				c-14.1,6.7-24,11.9-39.5,19.8c-31,16-104.1,53.5-131.2,73.4c-26.9,19.8-49.4,52.4-77.7,225.7c-24.3,149.4-14.3,165.3-35.1,290.3
				c-20.2,120.2-30.2,180.4-68.5,254.6c-18.5,36.2-47.4,79.2-105.2,165.5c-45,67.3-75.7,108.8-81.2,172.9
				c-2.4,28.6,3.6,19.6,6.5,82.1c4.9,108.7-13.5,139.7,4.4,211.1c5,19.9,12.2,36.6,26.4,70.4c18.1,42.7,40.6,94.8,83,151.5
				c35.9,47.9,72.5,81,92.9,99.2c43.3,38.6,76.7,59.7,74.6,63.4c-3.2,5-74.6-32.1-72.9-35.7c2-4.6,112.5,40.6,112.8,40
				c0.3-0.8-109.1-47.4-112.8-40c-1.5,3,14.9,15.3,31.3,23.7c32.8,16.6,52.4,10.5,81.5,16.3c59.9,11.7,57.6,53.2,121.6,67.5
				c28.9,6.4,29.8-2,68.8,4.4c49.8,8.1,67.9,24.6,98.5,34.5c32.2,10.3,46.8,3.3,209.3-37.4c105.3-26.4,112.3-26.7,140.7-38.1
				c32.4-12.9,82.7-33.6,136.3-77.7c42.4-34.8,70.5-71,88-96.8C2056.5,1371.1,2082.9,1341.1,2108.1,1300.3z"/>
			<path class="st1" d="M1290.4,1615.2c-207.6-70.4-323.5-174.2-415-371.1c-40.4-88-43.9-114.3-36.9-270.8
				c5.3-154.7,12.3-183,66.9-283.1c135.4-255,160-313.1,186.5-446.8c15.8-77.4,31.6-198.8,35.1-270.8
				c3.5-80.8,15.8-144.2,33.4-172.3c28.1-43.9,175.8-156.5,188.1-144.2c3.5,3.5,24.6-10.5,49.2-31.6c61.5-59.7,195.3-56.2,235.7,3.5
				c15.8,24.6,40.4,43.9,52.7,43.9c31.6,0,133.7,84.5,133.7,110.8c0,10.5,14.1,33.4,29.9,51.1c24.6,28.1,26.4,40.4,8.8,66.9
				c-14.1,22.8-14.1,36.9-1.8,45.7c10.5,5.3,14.1,29.9,8.8,52.7c-7,26.4,0,59.7,17.6,86.2C1899,109.8,1922,189,1934.3,261
				c17.6,96.8,47.4,177.7,114.3,304.2c51.1,93.2,103.8,207.6,116.1,251.5c49.2,167,31.6,325.4-56.2,483.7
				C1948.1,1592.3,1606.9,1722.5,1290.4,1615.2z M1756.3,1571.1c130.1-49.2,270.8-179.3,336-311.2c45.7-89.7,51.1-121.4,52.7-263.8
				V834.2l-100.3-191.6c-98.5-191.6-154.7-343-154.7-422.2c0-22.8-12.3-66.9-26.4-96.8l-26.4-56.2l-284.9,3.5
				c-158.4,1.8-276.1-1.8-263.8-7c14.1-5.3,144.2-22.8,290.3-38.8c183-19.3,267.3-35.1,272.6-51.1c5.3-19.3-47.4-21.1-288.4-10.5
				c-163.5,5.3-291.9,5.3-284.9-1.8c5.3-5.3,135.4-24.6,288.4-42.2c198.8-21.1,279.6-35.1,284.9-52.7c7-21.1-38.8-22.8-267.3-15.8
				c-153,5.3-274.3,3.5-274.3-5.3s36.9-15.8,84.5-17.6c45.7,0,156.5-10.5,248-21.1l167-21.1l-70.4-49.2
				c-38.8-26.4-82.7-47.4-98.5-47.4s-31.6-15.8-36.9-35.1c-12.3-51.1-168.8-52.7-183-1.8c-5.3,17.6-29.9,36.9-54.6,42.2
				c-26.4,5.3-80.8,38.8-121.4,72.2c-73.9,63.4-73.9,63.4-80.8,209.3C1151.3,215.1,1110.9,364.6,993,595
				c-68.5,133.7-112.6,246.2-123.1,307.7c-35.1,230.4,65,459.1,258.5,592.7C1311.3,1622.2,1543.6,1650.3,1756.3,1571.1z"/>
			<path class="st1" d="M1360.6,1460.4c-93.2-26.4-165.3-75.7-242.7-161.8c-80.8-91.5-112.6-177.7-112.6-307.7
				c-1.8-119.6,3.5-133.7,135.4-369.3c61.5-112.6,102-226.9,123.1-355.3l12.3-66.9h235.7h237.4v49.2c0,75.7,61.5,255,123.1,367.6
				c130.1,232.2,131.9,235.7,131.9,383.4c0,121.4-7,151.2-47.4,221.6C1839,1421.8,1585.8,1523.7,1360.6,1460.4z M1767,929.2
				c1.1-16.6-5.5-22.6-23.1-61.2c-17.2-37.8-9.1-28.1-50.5-144.8c-24.8-69.9-31.9-85.9-41.2-125.4c-22.2-95-8.1-119.8-26-206.7
				c-5.2-25.1-3.3-50.9-4.4-76.4c-0.8-16.4-1.1-28-8.1-41.3c-9.9-18.7-27.1-29.5-24.9-32.5c1.1-1.5,5.9-0.3,9.4,2.1
				c5.3,3.8,5.2,10.9,7,12.6c67,67,21.1,135.4,21.1,135.4c4,35.1,13.4,43.9,32.2,95.3c48.6,133,19,166.7,62.8,302.1
				c25.8,79.8,39.8,97.9,44.2,121.9C1767,918.7,1767,925.6,1767,929.2c0,0,0.5,32.1-13.2,63.5c-17.3,39.5-133.7,91.2-269.9,76.9
				c-114.9-12-189.1-65-219.9-105.3c-13.7-17.8-18.4-31.6-19.6-41c-2.4-20.7,9.4-44.7,38.9-105c72.2-149.5,86.2-205.8,103.8-446.8
				c3.5-45.7,15.8-95,28.1-110.8c0.3-0.3,9.4-18.7,9.4-18.7c-24,59.4-30.5,80.1-30.7,80.2l0,0c-3.8,9.3,2,19.8,2.9,21.7
				c8.2,17-16.3,55.5-16,104.4c0.2,11.4,1.5,13.5,3.5,30.4c7.9,66.4-2.3,123.4-15.2,193.8c-5.8,31.5-8.8,47.7-15.7,68.8
				c-10.2,31.2-20.5,62.2-45.6,96.2c-34.5,46.7-60.2,49.7-63.5,74.2c-6.7,49.1,88,109,165,132.8c101.7,31.6,194.4,7.3,243.9-10.6
				C1678.8,1024.8,1763.2,986.2,1767,929.2z M1628.1,1008.4c35.1-10.5,77.4-33.4,93.2-51.1c28.1-31.6,28.1-38.8-15.8-124.9
				c-61.5-121.4-114.3-334.2-114.3-460.8v-102h-88h-88v138.9c0,147.7-45.7,328.9-107.3,429.2c-40.4,66.9-42.2,105.5-7,135.4
				C1357.1,1020.7,1520.8,1038.3,1628.1,1008.4z M1534.7,239.7c0.6,4.4-27.5,16.3-54.4,10.6c-1.4-0.3-14.9-3.2-14.7-6.4
				c0.2-4,22-6.2,33-6.8C1503.7,237,1534.1,235.3,1534.7,239.7z M1380.5,453.4c-22.5-6.7-14.4-25.1-14.4-25.1l30.1-24.2v41.8
				L1380.5,453.4z M1638.7,428.8l-19.8-10.6l5.3-39.5c0,0,37.8-7.4,34.2-4.4C1654.8,377.1,1638.7,428.8,1638.7,428.8z"/>
			<path class="st1" d="M1448.6,920.4c-26.4-15.8-26.4-24.6,3.5-109.1c17.6-51.1,31.6-110.8,33.4-131.9c0-59.7,29.9-49.2,43.9,17.6
				c7,29.9,24.6,91.5,38.8,131.9c14.1,42.2,22.8,80.8,17.6,84.5C1568.2,931,1473.2,936.2,1448.6,920.4z M1543.6,890.5
				c-30.7,17.5-62,25.2-75.7,12.8c-11.9-10.8-7.9-35.6,0-85c2.4-15.3,5.2-28,7.3-36.8c11.7-8.2,23.3-16.6,35-24.8l-24.6,56.2
				c-12.8,32.5-17.2,48.2-12.5,59.1c3.6,8.5,11.1,12.6,14.3,14.7C1510.6,902.2,1538.7,892.3,1543.6,890.5z"/>
		</g>
		<path class="st1" d="M169.8,242.9c-4.1,3-5.5,3.2-5.5,3.2l1.4,2.3c0,0,6.7,0.8,6.2,0C171.5,247.7,169.8,242.9,169.8,242.9z"/>
		<polygon class="st1" points="182.7,219.7 188.4,220.5 187.9,216.2 184.4,216.2 		"/>
		<polygon class="st1" points="184.7,211.6 186.5,215.4 189,215.4 187.6,210.1 		"/>
		<polygon class="st1" points="192.5,182.5 188.4,199.2 193.8,202.1 206.4,188.4 		"/>
		<path class="st1" d="M215.9,100.6l1.4,22.6c0,0,14.4-1.1,14.1-1.5c-0.5-0.5-3.3-29-3.3-29s-7.1-11.4-7.8-11.4s-10.3-3.3-10.3-3.3
			l0.9,7l3.8,7.8L215.9,100.6z"/>
		<polygon class="st1" points="104.3,65.9 113.4,58.9 108.9,52.8 103.6,58.6 		"/>
		<path class="st1" d="M154,154"/>
	</g>
</g>
</svg>
