<svg xmlns="http://www.w3.org/2000/svg" viewBox="0 0 471.6 471.59"><title>Asset 113</title><g id="Layer_2" data-name="Layer 2"><g id="Layer_1-2" data-name="Layer 1"><path d="M131,131a10.35,10.35,0,0,1,14.64,0l.61.61a10.35,10.35,0,1,1-14.6,14.64l-.61-.61a10.35,10.35,0,0,1,0-14.64Zm94.7-33v.86a10.35,10.35,0,0,0,20.71,0V98a10.35,10.35,0,0,0-20.71,0Zm147,127.18a10.35,10.35,0,0,0,0,20.71h.86a10.35,10.35,0,0,0,0-20.71ZM199.9,35.9a35.9,35.9,0,1,1,35.9,35.9h0A35.94,35.94,0,0,1,199.9,35.9Zm20.71,0a15.25,15.25,0,1,0,15.25-15.25A15.25,15.25,0,0,0,220.61,35.9Zm131.16,83.93a35.94,35.94,0,1,1,25.38,10.47,35.94,35.94,0,0,1-25.38-10.47ZM362,94.44a15.16,15.16,0,1,0,4.45-10.74A15.16,15.16,0,0,0,362,94.44Zm-29.28,54.88a10.34,10.34,0,0,0,7.33-3l.61-.61a10.35,10.35,0,1,0-14.24-15L326,131l-.61.61a10.35,10.35,0,0,0,7.32,17.66Zm-61,286.37a35.9,35.9,0,1,1-35.9-35.9h0A35.94,35.94,0,0,1,271.69,435.69Zm-20.71,0a15.25,15.25,0,1,0-15.25,15.25h0A15.25,15.25,0,0,0,251,435.69ZM98,225.16a10.35,10.35,0,0,0,0,20.71h.86a10.35,10.35,0,0,0,0-20.71Zm304.54,126.6a35.9,35.9,0,0,1-50.78,50.78h0a35.9,35.9,0,0,1,50.78-50.78h0Zm-14.64,14.64a15.25,15.25,0,1,0-.08,21.56l.08-.08A15.25,15.25,0,0,0,387.89,366.39Zm-47.31-40.46-.61-.61A10.36,10.36,0,1,0,325.32,340l.61.61a10.36,10.36,0,0,0,14.65-14.64h0Zm131-90.1a35.9,35.9,0,1,1-35.9-35.9h0A35.94,35.94,0,0,1,471.6,235.83Zm-20.71,0a15.25,15.25,0,1,0-15.25,15.25A15.25,15.25,0,0,0,450.89,235.83Zm-110.12,5.64v-23c0-9.52-8.32-17.19-21.14-19.86a90.1,90.1,0,0,0-167.55.12c-12.48,2.77-20.68,10.35-20.68,19.73v23c0,10,9.22,17.9,23.09,20.2a10.94,10.94,0,0,0,8.65-2.31,10.6,10.6,0,0,0,3.92-7.9V231.59a69,69,0,1,1,92,64.93A18.92,18.92,0,0,0,247,291.86H224.81a19,19,0,0,0,0,38H247a18.77,18.77,0,0,0,17.87-13.13A89.81,89.81,0,0,0,321,261c12-2.91,19.77-10.37,19.77-19.56ZM119.83,351.76a35.9,35.9,0,1,1-50.78,0A35.9,35.9,0,0,1,119.83,351.76ZM105.2,366.39a15.25,15.25,0,0,0-21.5,0h0a15.25,15.25,0,1,0,21.56.08l-.08-.08ZM35.9,271.69a35.9,35.9,0,1,1,35.9-35.9h0A35.94,35.94,0,0,1,35.9,271.69Zm15.25-35.9A15.25,15.25,0,1,0,35.9,251,15.25,15.25,0,0,0,51.15,235.79Zm80.54,89.53-.61.61a10.35,10.35,0,1,0,14.23,15l.41-.41.61-.61a10.35,10.35,0,0,0-14.23-15Zm114.8,48.29v-.86a10.35,10.35,0,0,0-20.71,0v.86a10.35,10.35,0,0,0,20.71,0ZM56.9,90.9a35.9,35.9,0,1,1,35.9,35.9h0A35.94,35.94,0,0,1,56.9,90.9Zm20.71,0A15.25,15.25,0,1,0,92.86,75.65,15.25,15.25,0,0,0,77.61,90.9Z" style="fill:#f06a24"/></g></g></svg>