<svg xmlns="http://www.w3.org/2000/svg" viewBox="0 0 816.7 816.7"><title>Asset 2</title><g id="Layer_2" data-name="Layer 2"><g id="Layer_1-2" data-name="Layer 1"><g id="Layer_2-2" data-name="Layer 2"><g id="Layer_1-2-2" data-name="Layer 1-2"><circle cx="408.85" cy="407.85" r="227.96" style="fill:#203864"/><path d="M420,396.45l155.67,90.74c43.86-93.56,3.58-205-90-248.83A187.1,187.1,0,0,0,420,221.18Z" style="fill:#5b9bd5"/><path d="M386.7,396.36V221.58C283.92,232.33,209.32,324.37,220.07,427.15a187.12,187.12,0,0,0,15.15,56.63Z" style="fill:#5b9bd5"/><path d="M403.25,425.2,251.46,512.83c58,85.47,174.4,107.7,259.87,49.65a187.08,187.08,0,0,0,47.53-46.59Z" style="fill:#5b9bd5"/><circle cx="405.16" cy="406" r="77.77" style="fill:#f16a21;stroke:#203864;stroke-miterlimit:10;stroke-width:7px"/><path d="M386.7,234.42l-19-20.21.19,10.34c-99.3,20.7-164.31,117.1-145.67,217.32a187.09,187.09,0,0,0,13,41.88l18.84-10.88A165.11,165.11,0,0,1,368.26,245l.19,10.3Z" style="fill:#f16a21"/><path d="M472.24,232.61a187,187,0,0,0-52.3-11.49v20.41a165,165,0,0,1,142,216.16l-7.53-4.4,8.35,26.44L589.91,474l-7.24-4.23C616.48,374.11,567.66,268.52,472.24,232.61Z" style="fill:#f16a21"/><path d="M538.18,503.86a165,165,0,0,1-255.94,12.33l7.68-4.78-27.3-5L255,533.14l8.11-5c65.6,78.1,182,89.28,261.28,24.6a187,187,0,0,0,34.38-36.8Z" style="fill:#f16a21"/><g style="isolation:isolate"><text transform="translate(366.53 430.66)" style="isolation:isolate;font-size:14.778590202331543px;fill:#09234c;font-family:Raleway-Bold, Raleway;font-weight:700">I</text><text transform="translate(370.76 430.66)" style="isolation:isolate;font-size:14.778590202331543px;fill:#09234c;font-family:Raleway-Bold, Raleway;font-weight:700;letter-spacing:-0.056002413452091525em">T</text><text transform="translate(379.5 430.66)" style="isolation:isolate;font-size:14.778590202331543px;fill:#09234c;font-family:Raleway-Bold, Raleway;font-weight:700"><tspan xml:space="preserve"> SE</tspan></text><text transform="translate(400.98 430.66)" style="isolation:isolate;font-size:14.778590202331543px;fill:#09234c;font-family:Raleway-Bold, Raleway;font-weight:700;letter-spacing:-0.01599124962289811em">R</text><text transform="translate(410.55 430.66)" style="isolation:isolate;font-size:14.778590202331543px;fill:#09234c;font-family:Raleway-Bold, Raleway;font-weight:700">VICE</text><text transform="translate(352.75 448.4)" style="isolation:isolate;font-size:14.778590202331543px;fill:#09234c;font-family:Raleway-Bold, Raleway;font-weight:700">MAN</text><text transform="translate(386.74 448.4)" style="isolation:isolate;font-size:14.778590202331543px;fill:#09234c;font-family:Raleway-Bold, Raleway;font-weight:700;letter-spacing:-0.056993606610535624em">A</text><text transform="translate(396.29 448.4)" style="isolation:isolate;font-size:14.778590202331543px;fill:#09234c;font-family:Raleway-Bold, Raleway;font-weight:700">GEMEN</text><text transform="translate(448.83 448.4)" style="isolation:isolate;font-size:14.778590202331543px;fill:#09234c;font-family:Raleway-Bold, Raleway;font-weight:700;letter-spacing:-0.05497818052169929em">T</text></g><path d="M294.06,387l1.85.33a91.61,91.61,0,0,0-1.29,9.24l-10.44-1a97.11,97.11,0,0,1,1.39-9.85l1.85.31c-.5,2.75-.72,4.14-1.05,6.93l2.51.31c.3-2.36.46-3.53.87-5.86l1.63.28c-.41,2.29-.57,3.45-.85,5.78l2.72.33A42.51,42.51,0,0,1,294.06,387Z" style="fill:#fff"/><path d="M290.18,381.25l6.56,1.5c-.22,1-.33,1.51-.54,2.51l-10.29-2.09c.17-.85.26-1.29.46-2.14a89.43,89.43,0,0,1,8.48-5.32l-6.59-1.85c.31-1.07.48-1.61.81-2.68l10,3c-.26.79-.37,1.18-.61,2A86.82,86.82,0,0,0,290.18,381.25Z" style="fill:#fff"/><path d="M299.91,371.62,290,368.32c.68-2,1-3,1.85-4.91a9.55,9.55,0,0,1,1.55-2.7,6.32,6.32,0,0,1,1.85-1.57,4.42,4.42,0,0,1,2-.61,4.8,4.8,0,0,1,2,.46,5,5,0,0,1,1.85,1.33,4.8,4.8,0,0,1,1,1.85,6.61,6.61,0,0,1,.17,2.31,9.68,9.68,0,0,1-.67,2.62C300.86,368.93,300.54,369.81,299.91,371.62Zm-1.7-10.18a3.44,3.44,0,0,0-1.39-.3,3,3,0,0,0-1.33.31,3.69,3.69,0,0,0-1.16.94,5.54,5.54,0,0,0-.89,1.57c-.35.89-.52,1.35-.85,2.24l6.52,2.38c.31-.85.48-1.27.79-2.11a5.28,5.28,0,0,0,.39-1.68,3.69,3.69,0,0,0-.2-1.44,3.21,3.21,0,0,0-.7-1.15A3.53,3.53,0,0,0,298.21,361.45Z" style="fill:#fff"/><path d="M304.94,359.38l-9.51-4.54c1.05-2.2,1.61-3.27,2.79-5.41a5.12,5.12,0,0,1,1.15-1.44,4.66,4.66,0,0,1,1.4-.85,3.69,3.69,0,0,1,1.44-.24,2.62,2.62,0,0,1,1.26.35,2.92,2.92,0,0,1,1,.92,3.69,3.69,0,0,1,.52,1.31,4.45,4.45,0,0,1,0,1.55,5,5,0,0,1-.57,1.64c-.61,1.13-.91,1.68-1.5,2.83L306,357.1C305.6,358,305.38,358.47,304.94,359.38Zm-3.58-4.69c.57-1.11.85-1.64,1.44-2.73a1.85,1.85,0,0,0,.18-1.29,1.61,1.61,0,0,0-.83-1,1.59,1.59,0,0,0-.7-.22,1.68,1.68,0,0,0-.67.09,1.7,1.7,0,0,0-.59.37,2.27,2.27,0,0,0-.44.57c-.59,1.07-.87,1.63-1.44,2.72Z" style="fill:#fff"/><path d="M313.6,344.65a7.74,7.74,0,0,1-1.85,1.85,7,7,0,0,1-2.11,1.05,5.65,5.65,0,0,1-2.16.22,4.42,4.42,0,0,1-1.85-.61,4.12,4.12,0,0,1-1.44-1.5,5.38,5.38,0,0,1-.68-2.12,6.91,6.91,0,0,1,.22-2.49,8.15,8.15,0,0,1,1.2-2.57,7.76,7.76,0,0,1,2-2.05,6.82,6.82,0,0,1,2.27-1,5.34,5.34,0,0,1,2.2,0,4.19,4.19,0,0,1,1.85.81,4.32,4.32,0,0,1,1.27,1.63,5.73,5.73,0,0,1,.52,2.11,7.09,7.09,0,0,1-.28,2.35A7.91,7.91,0,0,1,313.6,344.65Zm-6.58.3a3.36,3.36,0,0,0,1.26.48,3.45,3.45,0,0,0,1.37,0,3.88,3.88,0,0,0,1.33-.59,4.91,4.91,0,0,0,1.85-2.73,3.88,3.88,0,0,0,0-1.46,3.47,3.47,0,0,0-.46-1.27,3.34,3.34,0,0,0-.87-1,3.18,3.18,0,0,0-1.22-.55,3.36,3.36,0,0,0-1.39,0,3.69,3.69,0,0,0-1.39.59,5.08,5.08,0,0,0-2,2.88,3.69,3.69,0,0,0,0,1.51,3.29,3.29,0,0,0,.52,1.26,3.25,3.25,0,0,0,1,.87Z" style="fill:#fff"/><path d="M318.55,337.91l-8.17-6.54c.7-.87,1.05-1.29,1.85-2.16l8,6.78A14.73,14.73,0,0,0,318.55,337.91Z" style="fill:#fff"/><path d="M318.79,327.4l4.91,4.6L322,333.85l-7.83-7,1.46-1.61a93,93,0,0,1,10-.39l-4.73-5,2.07-1.85,7,7.76-1.53,1.42A90.35,90.35,0,0,0,318.79,327.4Z" style="fill:#fff"/><path d="M334.83,310.68c-1.5,1.07-2.24,1.63-3.69,2.75l5.36,6.85-2,1.61-5.54-6.74c-1.42,1.16-2.12,1.85-3.49,3l-1.18-1.35a100.31,100.31,0,0,1,9.53-7.57Z" style="fill:#fff"/><path d="M311.75,404.82l-6.95-.18c2,1.31,3.07,1.85,5.14,3.12V409c-2.05,1.24-3.07,1.85-5.06,3.25l6.93-.35a12.76,12.76,0,0,0,.13,2.22l-10.46.78c0-1.07-.11-1.59-.17-2.66,2.31-1.63,3.49-2.38,5.86-3.82-2.4-1.4-3.6-2.14-5.95-3.69a24.37,24.37,0,0,1,.09-2.6l10.47.54C311.79,403.42,311.77,403.93,311.75,404.82Z" style="fill:#fff"/><path d="M301.85,395.93c.09-.85.15-1.27.26-2.12A110.38,110.38,0,0,1,313.2,391c-.17.89-.22,1.31-.37,2.2l-2.73.67c-.22,1.59-.33,2.38-.48,4l2.51,1.29c0,.89-.11,1.35-.17,2.25A114,114,0,0,1,301.85,395.93Zm6.72-1.85c-1.72.41-2.59.63-4.3,1.11,1.55.89,2.33,1.33,3.9,2.16.18-1.33.18-2,.41-3.31Z" style="fill:#fff"/><path d="M307.25,386.24l6.58,1.42c-.18.85-.28,1.27-.42,2.12l-10.31-2,.37-1.85a78.14,78.14,0,0,1,8.17-4.42L305,379.7c.26-.92.39-1.39.67-2.29l10.07,3c-.2.67-.3,1-.5,1.68A75.83,75.83,0,0,0,307.25,386.24Z" style="fill:#fff"/><path d="M307.58,371.66c.3-.79.44-1.18.76-2a112.87,112.87,0,0,1,11.38,0c-.35.81-.54,1.2-.87,2H316c-.59,1.46-.87,2.22-1.4,3.69l2.12,1.85c-.3.83-.42,1.26-.7,2.11A113.66,113.66,0,0,1,307.58,371.66Zm7-.18h-4.43c1.29,1.24,2,1.85,3.27,3,.52-1.2.7-1.79,1.18-3Z" style="fill:#fff"/><path d="M322.47,361.54a4.54,4.54,0,0,1-.35,3.31,5.38,5.38,0,0,1-1.29,1.64,5.54,5.54,0,0,1-1.75,1,5.73,5.73,0,0,1-2,.33,5.36,5.36,0,0,1-2.11-.48,4.71,4.71,0,0,1-1.68-1.24,5,5,0,0,1-1-1.85,5.71,5.71,0,0,1-.2-2.16,6.67,6.67,0,0,1,2.62-4.6,4.14,4.14,0,0,1,2.35-.78,10.83,10.83,0,0,0,.13,2.05,2.92,2.92,0,0,0-1.66.54,3.69,3.69,0,0,0-1.2,1.39,3.31,3.31,0,0,0-.39,1.37,3.1,3.1,0,0,0,.2,1.31,3.4,3.4,0,0,0,.72,1.11,3.9,3.9,0,0,0,2.48,1.16,3.57,3.57,0,0,0,1.31-.15,3.38,3.38,0,0,0,1.15-.61,3.29,3.29,0,0,0,.85-1.05,4.1,4.1,0,0,0,.15-3.29l-.65-.37-1.11,2-1.4-.68c.79-1.5,1.2-2.24,2.05-3.69l4.66,2.72-.87,1.53Z" style="fill:#fff"/><path d="M328.14,351.69l1.44,1.05a61.38,61.38,0,0,0-4.25,6.35l-9-5.54c1.74-2.84,2.68-4.23,4.64-6.95l1.44,1.05c-1.39,1.85-2.05,2.86-3.33,4.84l2.12,1.37c1.07-1.66,1.63-2.48,2.77-4.08l1.35,1c-1.13,1.59-1.68,2.38-2.73,4l2.29,1.48C326.16,354.35,326.83,353.41,328.14,351.69Z" style="fill:#fff"/><path d="M336.36,344.43l-5.1-4.73c.68,2.31,1.05,3.44,1.85,5.67l-.78.91c-2.33-.46-3.51-.65-5.89-1l5.43,4.32-1.35,1.7L322.17,345c.61-.81.94-1.22,1.57-2,2.77.35,4.14.57,6.85,1.09-.91-2.6-1.33-3.93-2.09-6.63l1.75-1.85L337.8,343Z" style="fill:#fff"/><path d="M344.06,334.68l1.15,1.39a76.92,76.92,0,0,0-5.73,5.17l-7.39-7.5c2.4-2.36,3.69-3.49,6.26-5.65l1.15,1.37c-1.85,1.51-2.72,2.31-4.45,3.93l1.72,1.85c1.46-1.37,2.2-2,3.69-3.33l1.15,1.31c-1.5,1.27-2.24,1.85-3.69,3.27l1.85,2C341.46,336.91,342.31,336.14,344.06,334.68Z" style="fill:#fff"/><path d="M344.16,328.3l4.06,5.36L346.5,335l-6.54-8.2,1.48-1.16a82.37,82.37,0,0,1,9.13,1.85l-3.84-5.71,2.05-1.33,5.63,8.83-1.5,1A79.84,79.84,0,0,0,344.16,328.3Z" style="fill:#fff"/><path d="M360.08,316.19c-1.44.7-2.16,1.07-3.57,1.85l4.1,7.68-1.85,1.05-4.23-7.61c-1.39.78-2.07,1.18-3.42,2l-.94-1.51a86.11,86.11,0,0,1,9.24-5.08Z" style="fill:#fff"/><path d="M476.46,320.69l-1,1.5a70.2,70.2,0,0,0-8.76-4.9l4.58-9.44a79.08,79.08,0,0,1,9.66,5.41l-1,1.51a77.4,77.4,0,0,0-6.71-3.9l-1.18,2.24a63.15,63.15,0,0,1,5.65,3.25l-.87,1.4c-2.16-1.35-3.27-2-5.54-3.18L470.11,317A71.62,71.62,0,0,1,476.46,320.69Z" style="fill:#fff"/><path d="M483.54,319.55l-4,5.43c-.89-.65-1.35-1-2.27-1.59l5.89-8.68,2,1.39a68,68,0,0,1,2.05,10.36l4.49-5.21c.94.81,1.4,1.22,2.31,2.05L486.94,331l-1.66-1.48A65.51,65.51,0,0,0,483.54,319.55Z" style="fill:#fff"/><path d="M489.06,333l7.39-7.39c1.64,1.61,2.44,2.44,4,4.16a10.92,10.92,0,0,1,1.85,2.83,7,7,0,0,1,.65,2.57,4.38,4.38,0,0,1-1.85,3.69,4.69,4.69,0,0,1-2,.91,5,5,0,0,1-2.18-.11,7.39,7.39,0,0,1-2.22-1,11.45,11.45,0,0,1-2.16-1.85A32.79,32.79,0,0,0,489.06,333Zm10.31,3.53a3.2,3.2,0,0,0,.89-1.11,3,3,0,0,0,.28-1.37,4.06,4.06,0,0,0-.39-1.55,6.45,6.45,0,0,0-1.09-1.63,17.44,17.44,0,0,0-1.85-1.85l-5,4.77c.67.7,1,1.05,1.64,1.85a6.13,6.13,0,0,0,1.4,1.2,4.06,4.06,0,0,0,1.42.55,3.27,3.27,0,0,0,1.39,0,3.31,3.31,0,0,0,1.33-.87Z" style="fill:#fff"/><path d="M498.26,343.75l8.52-6.13c1.55,2.16,2.31,3.27,3.69,5.54a5.93,5.93,0,0,1,.78,1.85,5.12,5.12,0,0,1,.09,1.85,3.69,3.69,0,0,1-.48,1.44,2.46,2.46,0,0,1-.92.92,2.73,2.73,0,0,1-1.29.33,3.69,3.69,0,0,1-1.44-.28,5,5,0,0,1-1.4-.85,5.86,5.86,0,0,1-1.2-1.42c-.72-1.16-1.09-1.75-1.85-2.88l-2.92,2C499.2,345.08,498.89,344.62,498.26,343.75Zm5.95-.74c.74,1.11,1.11,1.66,1.85,2.81a2,2,0,0,0,1.09.89,1.55,1.55,0,0,0,1.35-.17A1.48,1.48,0,0,0,509,346a1.7,1.7,0,0,0,.24-.67,1.85,1.85,0,0,0,0-.74,2.64,2.64,0,0,0-.31-.72c-.7-1.13-1.07-1.7-1.85-2.81Z" style="fill:#fff"/><path d="M507.16,359.56a9,9,0,0,1-.74-2.73,7.83,7.83,0,0,1,.13-2.48,5.82,5.82,0,0,1,.87-2.05,4.18,4.18,0,0,1,1.5-1.37,3.86,3.86,0,0,1,2-.44,5.43,5.43,0,0,1,2.24.63,7.59,7.59,0,0,1,2.12,1.66A9.35,9.35,0,0,1,517,355.4a8.92,8.92,0,0,1,.76,3,7.39,7.39,0,0,1-.3,2.66,5.38,5.38,0,0,1-1.11,2,3.92,3.92,0,0,1-1.68,1.13,4.1,4.1,0,0,1-2.07.15,5.93,5.93,0,0,1-2.07-.81,7.94,7.94,0,0,1-1.85-1.63A9.24,9.24,0,0,1,507.16,359.56Zm3.09-6a3.18,3.18,0,0,0-1.05.83,3.49,3.49,0,0,0-.65,1.24,4.29,4.29,0,0,0-.15,1.51,5.21,5.21,0,0,0,.44,1.72,5.15,5.15,0,0,0,1,1.51,4.25,4.25,0,0,0,1.24.92,3.51,3.51,0,0,0,1.35.35,3.14,3.14,0,0,0,1.29-.18,3,3,0,0,0,1.13-.76,3.36,3.36,0,0,0,.74-1.22,4.12,4.12,0,0,0,.2-1.59,5.87,5.87,0,0,0-1.53-3.47,4.08,4.08,0,0,0-1.31-.92,3.27,3.27,0,0,0-1.39-.28A3,3,0,0,0,510.25,353.54Z" style="fill:#fff"/><path d="M510.34,367.91l10-3.12c.37,1.16.54,1.85.87,2.94l-10.1,2.81C510.82,369.46,510.67,368.95,510.34,367.91Z" style="fill:#fff"/><path d="M519,374.67,512.36,376c-.22-1.07-.33-1.61-.59-2.68L522,370.9c.22.92.33,1.4.54,2.33a72.42,72.42,0,0,1-5.54,9l6.82-.83c.15,1.24.22,1.85.33,3.09l-10.44.94a18,18,0,0,0-.22-2.24A69.74,69.74,0,0,0,519,374.67Z" style="fill:#fff"/><path d="M522.65,399.87c.15-2.05.2-3.07.24-5.12l-8.7-.17V391.8l8.7-.13a42,42,0,0,0-.2-5.06l1.85-.13a79,79,0,0,1,0,13.5Z" style="fill:#fff"/><path d="M471,331.22a2.93,2.93,0,0,0-.22-.48,5.54,5.54,0,0,0-.48-.72,7.56,7.56,0,0,0-.72-.79,5.21,5.21,0,0,0-.91-.7,2.9,2.9,0,0,0-1.48-.52,1,1,0,0,0-.87.52.79.79,0,0,0-.11.55,1.59,1.59,0,0,0,.28.59,5.41,5.41,0,0,0,.61.7l.91.89a14.78,14.78,0,0,1,1.15,1.26,4.36,4.36,0,0,1,.7,1.18,2.44,2.44,0,0,1,.17,1.15,2.51,2.51,0,0,1-.48,1.16,2.75,2.75,0,0,1-2.42,1.26,4.43,4.43,0,0,1-1.42-.28,8.07,8.07,0,0,1-1.44-.68,10.77,10.77,0,0,1-2-1.57,9.64,9.64,0,0,1-1.55-2l1.72-1.09a3.57,3.57,0,0,0,.31.57,10.11,10.11,0,0,0,.61.81,8.94,8.94,0,0,0,.85.89,6.47,6.47,0,0,0,1.05.79c1.07.65,1.85.68,2.16,0a.81.81,0,0,0,.13-.61,1.85,1.85,0,0,0-.3-.68,5.78,5.78,0,0,0-.67-.79l-.94-.94c-.42-.41-.79-.79-1.11-1.15a4.53,4.53,0,0,1-.68-1,2.12,2.12,0,0,1,0-2,2.73,2.73,0,0,1,1-1.09,3,3,0,0,1,1.39-.42,4.82,4.82,0,0,1,1.64.18,7.06,7.06,0,0,1,1.72.76,8,8,0,0,1,2,1.64,9.05,9.05,0,0,1,1.22,1.85Z" style="fill:#fff"/><path d="M476.46,343l-1.22,1.31a55.26,55.26,0,0,0-6-4.93l6.19-8.48a63.93,63.93,0,0,1,6.8,5.54L481,337.78c-1.85-1.66-2.73-2.46-4.67-4l-1.55,2a43.88,43.88,0,0,1,3.93,3.31l-1.11,1.22c-1.48-1.35-2.25-2-3.84-3.23l-1.68,2.16A56.71,56.71,0,0,1,476.46,343Z" style="fill:#fff"/><path d="M479.45,341a4.66,4.66,0,0,1,1.61-1.09,4.78,4.78,0,0,1,2-.37,5.75,5.75,0,0,1,2.24.57,6.67,6.67,0,0,1,2.14,1.64,6.24,6.24,0,0,1,1.5,2.73,4.23,4.23,0,0,1-.11,2.51l-2-.87a2.62,2.62,0,0,0,.2-.92,2.84,2.84,0,0,0-.11-.89,3.69,3.69,0,0,0-.35-.81,4.47,4.47,0,0,0-.52-.7,3.69,3.69,0,0,0-1.31-1,3.2,3.2,0,0,0-2.62,0A3.73,3.73,0,0,0,480,345a3.58,3.58,0,0,0,.17,1.31,3.25,3.25,0,0,0,.7,1.2,4.16,4.16,0,0,0,.59.54,3.4,3.4,0,0,0,.74.42,3.16,3.16,0,0,0,.83.22,2.33,2.33,0,0,0,.89,0c.17.81.26,1.22.39,2a3.31,3.31,0,0,1-1.29,0,5.34,5.34,0,0,1-1.29-.39,6.41,6.41,0,0,1-1.22-.7,6.69,6.69,0,0,1-1-.92,5.34,5.34,0,0,1-1.13-1.85,6.28,6.28,0,0,1-.31-2.09,6.11,6.11,0,0,1,.39-2A5,5,0,0,1,479.45,341Z" style="fill:#fff"/><path d="M487.42,356.25a2.79,2.79,0,0,0,.94,1,2.6,2.6,0,0,0,1.11.35,3.12,3.12,0,0,0,1.18-.15,5.73,5.73,0,0,0,1.16-.52l4.62-2.7c.5.85.74,1.27,1.2,2.14l-4.71,2.55a7.09,7.09,0,0,1-1.85.72,4.75,4.75,0,0,1-1.85,0,4.4,4.4,0,0,1-1.74-.76,6.66,6.66,0,0,1-2.38-3.75,4.51,4.51,0,0,1,0-1.85,4.69,4.69,0,0,1,.83-1.68,7.39,7.39,0,0,1,1.42-1.39l4.29-3.2c.59.79.89,1.2,1.46,2l-4.38,3.07a5.8,5.8,0,0,0-1,.85,3.12,3.12,0,0,0-.63,1,2.57,2.57,0,0,0-.15,1.15A2.77,2.77,0,0,0,487.42,356.25Z" style="fill:#fff"/><path d="M489.39,363.26l9.38-4.69c1,2,1.48,3,2.35,5.14a4.06,4.06,0,0,1,.31,1.63,4,4,0,0,1-.3,1.48,3.57,3.57,0,0,1-.78,1.16,2.88,2.88,0,0,1-1.09.7,3.23,3.23,0,0,1-1.94,0,3.36,3.36,0,0,1-1.68-1,39.62,39.62,0,0,1-2.83,3.69c-.31-.91-.48-1.37-.83-2.27,1-1.35,1.48-2,2.4-3.45-.35-.81-.54-1.22-.91-2L490.3,365C490,364.4,489.78,364,489.39,363.26Zm5.75-.3c.48,1.05.72,1.59,1.16,2.66a1.39,1.39,0,0,0,.35.5,1.53,1.53,0,0,0,.52.31,1.8,1.8,0,0,0,1.29,0,1.64,1.64,0,0,0,.59-.37,1.68,1.68,0,0,0,.37-.55,1.66,1.66,0,0,0,.13-.63,1.57,1.57,0,0,0-.11-.63c-.44-1.09-.68-1.63-1.18-2.68Z" style="fill:#fff"/><path d="M493.29,372.82l10-3.18c.3.94.44,1.42.72,2.38l-10.1,2.86C493.68,374,493.57,373.64,493.29,372.82Z" style="fill:#fff"/><path d="M504.63,384.32c-.18-1.61-.3-2.42-.57-4l-8.59,1.46c-.15-.85-.22-1.27-.39-2.11l8.53-1.74c-.31-1.57-.5-2.36-.91-3.92l1.74-.44a64,64,0,0,1,2,10.57Z" style="fill:#fff"/><path d="M506.7,387.18a55.85,55.85,0,0,1-4.88,3.38c2.07,1.16,3.09,1.85,5.1,3.12v2.77a62.55,62.55,0,0,0-6.76-4.67h-3.69V389.6l3.69-.18a67.39,67.39,0,0,0,6.41-5C506.57,385.53,506.63,386.09,506.7,387.18Z" style="fill:#fff"/><path d="M319.66,487l5.54-8.87,1.85,1.16-5.54,8.94Z" style="fill:#fff"/><path d="M323.84,489.56l5.34-9c1.42.83,2.12,1.26,3.57,2.05a6.84,6.84,0,0,1,1.85,1.53,5.21,5.21,0,0,1,1,1.85,4.69,4.69,0,0,1,.18,2,5.8,5.8,0,0,1-.61,2,5.54,5.54,0,0,1-1.35,1.74,4.43,4.43,0,0,1-1.85.92,5.26,5.26,0,0,1-2.14,0,7.19,7.19,0,0,1-2.33-.85C326.11,490.89,325.35,490.46,323.84,489.56Zm9.42-.76a4.1,4.1,0,0,0,.44-1.33,3.1,3.1,0,0,0,0-1.27,3,3,0,0,0-.61-1.13,4,4,0,0,0-1.15-.91l-1.68-.94-3.44,6,1.85,1a3.93,3.93,0,0,0,1.46.5,3,3,0,0,0,1.31-.11,3.12,3.12,0,0,0,1.11-.67A4,4,0,0,0,333.26,488.8Z" style="fill:#fff"/><path d="M342.79,497.21l-.7,1.64c-3-1.31-4.56-2-7.56-3.49l4.64-9.4c2.73,1.35,4.12,2,6.93,3.2l-.7,1.64c-2-.87-3-1.33-5-2.27l-1.09,2.29c1.75.83,2.64,1.24,4.42,2l-.67,1.51c-1.85-.78-2.68-1.18-4.45-2l-1.18,2.48C339.54,495.78,340.61,496.26,342.79,497.21Z" style="fill:#fff"/><path d="M348.39,494.18l-2.49,6.24-2.14-.94,4-9.68,1.55.65c1.13,3.42,1.74,5.14,3.09,8.55l2.33-6.47,2,.72-3.42,9.92-1.85-.61C350.22,499.24,349.57,497.63,348.39,494.18Z" style="fill:#fff"/><path d="M366.44,498.07l-3.44-1-2.44,8.35-2.18-.65,2.55-8.31-3.42-1.09.57-1.7c3.49,1.16,5.26,1.7,8.81,2.62Z" style="fill:#fff"/><path d="M365.62,506.87l2.6-10.16,2.07.52-2.46,10.2Z" style="fill:#fff"/><path d="M380.29,501.07l-3.49-.63L375.15,509l-2.22-.44,1.85-8.52-3.47-.76.41-1.74c3.57.83,5.36,1.18,9,1.85Z" style="fill:#fff"/><path d="M383.15,499.72c.78,2.16,1.18,3.23,2,5.38,1.39-1.85,2.07-2.79,3.38-4.67l2.29.24c-1.85,2.57-2.81,3.84-4.78,6.34l-.44,3.69-2.25-.3.5-3.69c-1.27-2.92-1.85-4.38-3-7.39Z" style="fill:#fff"/><path d="M397.84,501.16h1.85c1.51,4.25,2.33,6.37,4.06,10.59h-2.35l-1-2.64a32.63,32.63,0,0,1-4-.17l-1.22,2.55-2.35-.17C395,507.31,396,505.28,397.84,501.16Zm2.24,6.54c-.57-1.66-.85-2.51-1.4-4.17-.7,1.63-1.07,2.42-1.85,4Z" style="fill:#fff"/><path d="M407.26,505v6.72H405V501.32h1.64c2.31,2.73,3.51,4.08,6,6.71l-.33-6.85,2.12-.11.67,10.46-1.85.11C410.83,509.06,409.61,507.75,407.26,505Z" style="fill:#fff"/><path d="M417.64,511.34l-.81-10.46c1.59-.13,2.38-.2,4-.37a6.47,6.47,0,0,1,2.38.15,5.06,5.06,0,0,1,1.85.91,4.71,4.71,0,0,1,1.26,1.51,5.93,5.93,0,0,1,.63,2,5.54,5.54,0,0,1,0,2.2,4.45,4.45,0,0,1-.92,1.85,5.12,5.12,0,0,1-1.66,1.27A6.82,6.82,0,0,1,422,511Zm7-6a4.19,4.19,0,0,0-.39-1.35,3.12,3.12,0,0,0-.78-1,2.94,2.94,0,0,0-1.13-.57,3.69,3.69,0,0,0-1.42-.09l-1.85.18.65,6.89,2-.18a3.69,3.69,0,0,0,1.44-.42,2.94,2.94,0,0,0,1-.85,3.14,3.14,0,0,0,.52-1.16,4.06,4.06,0,0,0,.07-1.42Z" style="fill:#fff"/><path d="M434,498.52l1.85-.37c2.49,3.69,3.81,5.54,6.54,9.24l-2.29.54-1.63-2.33c-1.59.35-2.36.5-4,.81-.22,1.11-.33,1.66-.57,2.77l-2.31.41A105.4,105.4,0,0,0,434,498.52Zm3.69,5.8c-1-1.48-1.44-2.22-2.38-3.69-.3,1.74-.46,2.62-.79,4.36Z" style="fill:#fff"/><path d="M441.36,502.21a5.15,5.15,0,0,1,0-1.85,5.28,5.28,0,0,1,.65-1.85,5.54,5.54,0,0,1,1.37-1.59,5.73,5.73,0,0,1,2.11-1.05,5.43,5.43,0,0,1,2.72-.13,4.3,4.3,0,0,1,2.09,1.09L449,498.35a2.75,2.75,0,0,0-.74-.55,2.72,2.72,0,0,0-.79-.28,3.21,3.21,0,0,0-.79,0,3.9,3.9,0,0,0-.76.13,3.09,3.09,0,0,0-2.07,1.72,3.53,3.53,0,0,0-.31,1.24,4,4,0,0,0,.11,1.26,3.69,3.69,0,0,0,.57,1.24,3.42,3.42,0,0,0,1,.92,3.34,3.34,0,0,0,1.24.48,3.18,3.18,0,0,0,1.42,0,4,4,0,0,0,.78-.31,3.29,3.29,0,0,0,.7-.5,3,3,0,0,0,.54-.68,2.22,2.22,0,0,0,.3-.85l2.05.37a3.1,3.1,0,0,1-.46,1.24,5,5,0,0,1-.91,1.07,6.21,6.21,0,0,1-1.22.85,6.63,6.63,0,0,1-1.37.55,5.36,5.36,0,0,1-2.35.15,5.73,5.73,0,0,1-2.05-.74,5.54,5.54,0,0,1-1.53-1.4A4.93,4.93,0,0,1,441.36,502.21Z" style="fill:#fff"/><path d="M451.86,499.27a5.12,5.12,0,0,1-.22-1.85,5.26,5.26,0,0,1,.52-1.85,5.54,5.54,0,0,1,1.26-1.68,5.8,5.8,0,0,1,2-1.2,5.54,5.54,0,0,1,2.72-.31,4.3,4.3,0,0,1,2.16.94l-1.18,1.61a2.7,2.7,0,0,0-1.57-.72,3.25,3.25,0,0,0-.79,0,4,4,0,0,0-.76.18,3.1,3.1,0,0,0-1.94,1.85,3.51,3.51,0,0,0-.22,1.26,4,4,0,0,0,.2,1.26,3.69,3.69,0,0,0,.65,1.18,3.42,3.42,0,0,0,1,.85,3.36,3.36,0,0,0,1.27.39,3.21,3.21,0,0,0,1.42-.18,4.08,4.08,0,0,0,.74-.37,3.33,3.33,0,0,0,.67-.55,3,3,0,0,0,.5-.72,2.22,2.22,0,0,0,.24-.87l2.09.22a3.12,3.12,0,0,1-.37,1.26,5.06,5.06,0,0,1-.83,1.13,6.26,6.26,0,0,1-1.16.94,6.69,6.69,0,0,1-1.33.65,5.39,5.39,0,0,1-2.35.31,5.75,5.75,0,0,1-2.11-.59,5.54,5.54,0,0,1-1.64-1.29A4.91,4.91,0,0,1,451.86,499.27Z" style="fill:#fff"/><path d="M471.79,495.28l.76,1.63c-3,1.4-4.54,2.07-7.61,3.31L461,490.48c2.81-1.15,4.21-1.74,7-3l.76,1.63c-2,.92-3,1.39-5,2.24l1,2.33c1.85-.76,2.66-1.15,4.43-1.94l.68,1.5c-1.85.81-2.68,1.22-4.47,2l1.05,2.51C468.56,496.78,469.65,496.3,471.79,495.28Z" style="fill:#fff"/><path d="M476.7,486.18h-.5a5.17,5.17,0,0,0-.79,0,7,7,0,0,0-1,.17,4.49,4.49,0,0,0-1,.35,2.44,2.44,0,0,0-1.07.89,1,1,0,0,0,0,1,.83.83,0,0,0,.39.41,1.4,1.4,0,0,0,.61.11,4.23,4.23,0,0,0,.87-.11l1.15-.28a14.73,14.73,0,0,1,1.57-.31,4.53,4.53,0,0,1,1.31,0,2.55,2.55,0,0,1,1.07.39,2.59,2.59,0,0,1,.81.94,2.73,2.73,0,0,1,.37,1.44,2.77,2.77,0,0,1-.41,1.31,4.42,4.42,0,0,1-1,1.15,7.76,7.76,0,0,1-1.42.92,9.64,9.64,0,0,1-2.55.89,8.26,8.26,0,0,1-2.55.11c0-.81.11-1.22.17-2a3.16,3.16,0,0,0,.63,0,8,8,0,0,0,1,0,7.58,7.58,0,0,0,1.22-.2,5.89,5.89,0,0,0,1.26-.48c1.13-.57,1.53-1.2,1.2-1.85a.83.83,0,0,0-.46-.41,1.85,1.85,0,0,0-.74,0,6.39,6.39,0,0,0-1,.15l-1.26.28a11.09,11.09,0,0,1-1.5.24,3.81,3.81,0,0,1-1.16,0,2.16,2.16,0,0,1-.89-.42,2.46,2.46,0,0,1-.63-.85,3.08,3.08,0,0,1-.31-1.42,3,3,0,0,1,.35-1.31,4.19,4.19,0,0,1,.91-1.15,5.91,5.91,0,0,1,1.33-.91,7,7,0,0,1,2.11-.7,9.05,9.05,0,0,1,1.85-.11A15.29,15.29,0,0,1,476.7,486.18Z" style="fill:#fff"/><path d="M485.31,481.21h-.5a5.27,5.27,0,0,0-.81,0,7.24,7.24,0,0,0-.94.24,4.64,4.64,0,0,0-.94.42,2.48,2.48,0,0,0-1,1,1,1,0,0,0,0,1,.83.83,0,0,0,.42.39,1.42,1.42,0,0,0,.63,0A4.3,4.3,0,0,0,483,484l1.15-.35c.55-.18,1.07-.31,1.55-.42a4.58,4.58,0,0,1,1.33-.13,2.36,2.36,0,0,1,2,1.2,2.72,2.72,0,0,1,.46,1.4,2.79,2.79,0,0,1-.33,1.35,4.49,4.49,0,0,1-.94,1.22,7.87,7.87,0,0,1-1.37,1,9.79,9.79,0,0,1-2.51,1.05,8.35,8.35,0,0,1-2.57.3v-2a3.18,3.18,0,0,0,.65,0,8.11,8.11,0,0,0,1,0,7.65,7.65,0,0,0,1.22-.28,6,6,0,0,0,1.24-.55c1.11-.67,1.46-1.31,1.09-1.85a.83.83,0,0,0-.48-.37,1.85,1.85,0,0,0-.74,0,6.48,6.48,0,0,0-1,.22l-1.26.37a11.23,11.23,0,0,1-1.5.35,3.84,3.84,0,0,1-1.18,0,2.16,2.16,0,0,1-.91-.37,2.44,2.44,0,0,1-.68-.81,3.07,3.07,0,0,1-.41-1.4,3,3,0,0,1,.28-1.33,4.25,4.25,0,0,1,.83-1.2,6,6,0,0,1,1.27-1,7.08,7.08,0,0,1,2.07-.85,9.24,9.24,0,0,1,1.85-.24A6.81,6.81,0,0,1,485.31,481.21Z" style="fill:#fff"/><path d="M352.36,521.53l2.07-6.63c-1.85,1.59-2.81,2.36-4.73,3.9l-1.31-.44c-.61-2.4-.89-3.58-1.4-6l-2.36,6.52-2.4-.89,3.69-9.81,2.42.91c.57,2.75.89,4.12,1.55,6.87,2.22-1.85,3.31-2.68,5.43-4.51l2.46.74-3,10.07Z" style="fill:#fff"/><path d="M363.65,513.83l2.05.52c.83,4.53,1.31,6.78,2.36,11.31l-2.55-.57c-.24-1.13-.35-1.7-.59-2.83-1.75-.41-2.62-.63-4.38-1.09l-1.85,2.22-2.53-.7C359.29,519.21,360.78,517.43,363.65,513.83Zm1.18,6.93c-.3-1.85-.44-2.66-.72-4.42-1.09,1.42-1.64,2.14-2.79,3.55Z" style="fill:#fff"/><path d="M373.23,519.8,372,526.41l-2.49-.5,2.11-10.27,1.85.37c2,3.2,3,4.77,5.25,7.91l1.05-6.8,2.36.35-1.44,10.38-2-.3C376.34,524.51,375.27,523,373.23,519.8Z" style="fill:#fff"/><path d="M388.07,518.21l2.09.2c1.48,4.34,2.27,6.52,4,10.83l-2.66-.2c-.41-1.07-.59-1.63-1-2.7-1.85-.15-2.68-.24-4.47-.42l-1.48,2.48-2.59-.31C384.58,524.16,385.78,522.18,388.07,518.21Zm2.18,6.67c-.55-1.7-.83-2.55-1.35-4.27-.87,1.57-1.31,2.36-2.22,3.92Z" style="fill:#fff"/><path d="M404.16,528.39a5.43,5.43,0,0,1-3.69,1.2,6.67,6.67,0,0,1-2.4-.5,6,6,0,0,1-1.85-1.22A5.28,5.28,0,0,1,395,526a4.77,4.77,0,0,1-.35-2.14,4.6,4.6,0,0,1,.59-2,5.54,5.54,0,0,1,1.37-1.61,6.43,6.43,0,0,1,2-1.05,7.39,7.39,0,0,1,5.32.33,4.51,4.51,0,0,1,1.85,1.68l-1.85,1.13a3.14,3.14,0,0,0-1.31-1.22,4.23,4.23,0,0,0-1.85-.44,3.69,3.69,0,0,0-1.44.24,3.4,3.4,0,0,0-1.15.72,3.55,3.55,0,0,0-.78,1.09,3.69,3.69,0,0,0-.31,1.33,3.36,3.36,0,0,0,1,2.55,3.69,3.69,0,0,0,1.18.79,4,4,0,0,0,1.51.31,4.64,4.64,0,0,0,3.38-1.39v-.74h-2.57v-1.5h4.56v5.39H404Z" style="fill:#fff"/><path d="M417.35,527.37l.13,1.85c-3.69.26-5.41.33-9,.39l-.18-10.49c3.34,0,5-.13,8.33-.37l.13,1.85c-2.4.17-3.69.22-6,.3v2.53c2.11,0,3.18-.11,5.28-.26l.11,1.64c-2.12.13-3.2.18-5.34.26v2.73C413.45,527.61,414.72,527.54,417.35,527.37Z" style="fill:#fff"/><path d="M430,527.83,429,521c-1,2.24-1.5,3.34-2.57,5.54l-1.35.17c-1.55-1.85-2.31-2.86-3.81-4.8l.67,6.91-2.53.22-.85-10.46,2.55-.22c1.68,2.24,2.53,3.34,4.3,5.54,1.22-2.55,1.85-3.82,2.94-6.39l2.51-.37,1.63,10.36Z" style="fill:#fff"/><path d="M443.65,523.49l.39,1.74c-3.55.79-5.32,1.15-8.9,1.85l-1.85-10.35c3.31-.57,5-.89,8.22-1.63l.39,1.74c-2.36.54-3.55.78-5.93,1.22l.46,2.49c2.09-.39,3.12-.59,5.21-1.05l.35,1.61c-2.11.46-3.14.67-5.26,1.07l.5,2.7C439.87,524.34,441.14,524.08,443.65,523.49Z" style="fill:#fff"/><path d="M446.9,517.69l1.64,6.52-2.48.61-2.42-10.22,1.85-.44c3.16,2.05,4.78,3,8.13,5l-1.85-6.59,2.31-.68,3.07,10-2,.59A84.77,84.77,0,0,1,446.9,517.69Z" style="fill:#fff"/><path d="M465.75,509.6l-3.69,1.4,2.94,8.2-2.4.83-2.81-8.24c-1.51.52-2.27.78-3.81,1.26l-.54-1.7c3.93-1.24,5.87-1.85,9.74-3.42Z" style="fill:#fff"/><path d="M351.51,213a5.54,5.54,0,0,1-3.09,2.72,6.37,6.37,0,0,1-2.55.37,6.65,6.65,0,0,1-2.42-.61,7,7,0,0,1-2.09-1.48,6.78,6.78,0,0,1-1.46-2.27,6.08,6.08,0,0,1-.44-2.55,6.39,6.39,0,0,1,.63-2.48,7,7,0,0,1,1.51-2.14,7.76,7.76,0,0,1,6-1.85,5.12,5.12,0,0,1,2.72,1.31L349,206a3.69,3.69,0,0,0-1.85-.94,4.42,4.42,0,0,0-2.2.2,3.9,3.9,0,0,0-1.46.89,3.69,3.69,0,0,0-.89,1.35,4.34,4.34,0,0,0-.28,1.61,4.82,4.82,0,0,0,.31,1.68,4.69,4.69,0,0,0,.91,1.5,4.42,4.42,0,0,0,1.29,1,4.06,4.06,0,0,0,1.53.42,3.9,3.9,0,0,0,1.64-.22,4.9,4.9,0,0,0,2.84-2.86l-.3-.89-2.66.89-.61-1.85c1.85-.67,2.9-1,4.84-1.59l2,6.43-2.07.67Z" style="fill:#fff"/><path d="M361.74,211.61a6.52,6.52,0,0,1-2.73.17,7,7,0,0,1-4.34-2.51,6.52,6.52,0,0,1-1.18-2.22,6.1,6.1,0,0,1-.22-2.55,6.63,6.63,0,0,1,.79-2.44,6.84,6.84,0,0,1,1.75-2,7,7,0,0,1,2.6-1.27,6.67,6.67,0,0,1,2.92-.15,6.8,6.8,0,0,1,2.49,1,6.71,6.71,0,0,1,1.85,1.85,6.26,6.26,0,0,1,1,2.27,6.41,6.41,0,0,1,0,2.55,7,7,0,0,1-.89,2.36,6.87,6.87,0,0,1-1.7,1.85A6.59,6.59,0,0,1,361.74,211.61Zm-5.54-5.36a5,5,0,0,0,.72,1.5,4.4,4.4,0,0,0,1.15,1.13,3.93,3.93,0,0,0,1.48.61,4.1,4.1,0,0,0,3.27-.87,4,4,0,0,0,1-1.27,4.49,4.49,0,0,0,.42-1.55,5,5,0,0,0-.11-1.61,4.78,4.78,0,0,0-.67-1.53,4.34,4.34,0,0,0-1.13-1.16,3.81,3.81,0,0,0-1.5-.63,4.32,4.32,0,0,0-3.42.92,3.81,3.81,0,0,0-1,1.31,4.27,4.27,0,0,0-.37,1.57,4.86,4.86,0,0,0,.09,1.61Z" style="fill:#fff"/><path d="M368.3,196.52c2.33,3.57,3.45,5.38,5.54,9,.72-4.17,1.13-6.24,2-10.42l3-.44c-1.48,5.54-2.12,8.28-3.27,13.82l-2.16.39c-3-4.77-4.66-7.11-8-11.73Z" style="fill:#fff"/><path d="M391.21,204.2l.18,2.24c-3.69.3-5.54.5-9.24,1l-1.85-12.93c3.9-.54,5.86-.74,9.75-1.07l.18,2.24c-2.77.22-4.14.37-6.89.7l.39,3.14c2.35-.28,3.51-.41,5.86-.61l.18,2.07c-2.33.2-3.47.33-5.78.61l.41,3.4C387.16,204.57,388.51,204.42,391.21,204.2Z" style="fill:#fff"/><path d="M393.33,206.29l-.92-13.08c2.55-.18,3.81-.24,6.35-.33a4.3,4.3,0,0,1,1.85.33,4.53,4.53,0,0,1,2.42,2.36,3.93,3.93,0,0,1,.35,1.57,4.21,4.21,0,0,1-.65,2.33,3.88,3.88,0,0,1-1.85,1.53c1.31,1.94,1.85,2.92,3.18,4.88h-2.92c-1.13-1.74-1.72-2.59-2.9-4.3l-2.62.13.24,4.4Zm2.24-6.78,3.38-.15a1.51,1.51,0,0,0,.68-.18,1.85,1.85,0,0,0,.54-.46,2.27,2.27,0,0,0,.35-.68,2.49,2.49,0,0,0,.11-.83,2.24,2.24,0,0,0-.18-.85,2.18,2.18,0,0,0-.44-.67,1.85,1.85,0,0,0-.63-.42,1.7,1.7,0,0,0-.72-.13l-3.34.15Z" style="fill:#fff"/><path d="M408.68,197.5c0,3.36-.09,5-.15,8.41h-2.6V192.78h2.18c2.94,3.49,4.34,5.26,7,8.87l.48-8.57,2.79.18-.92,13.06-2.11-.13C412.84,202.65,411.51,200.91,408.68,197.5Z" style="fill:#fff"/><path d="M425.49,193.86l2.46.3c1.53,5.54,2.22,8.22,3.44,13.71l-2.66-.39c-.31-1.37-.48-2.05-.81-3.4-1.85-.24-2.84-.35-4.73-.55-.63,1.26-.94,1.85-1.55,3.12L419,206.4C421.43,201.34,422.74,198.83,425.49,193.86Zm2.18,8.37c-.5-2.14-.76-3.21-1.29-5.36-1.05,2-1.57,2.94-2.57,4.9Z" style="fill:#fff"/><path d="M436.89,200.21l-1.48,8.28-2.57-.44L435,195.11l2.14.37c2.36,3.92,3.49,5.89,5.54,9.86l1.85-8.39,2.75.61-3,12.75-2.07-.46C440.22,206,439.15,204.07,436.89,200.21Z" style="fill:#fff"/><path d="M447.77,204.35a6.28,6.28,0,0,1,1-2.2,6.17,6.17,0,0,1,1.85-1.7,6.74,6.74,0,0,1,2.53-.89,7.28,7.28,0,0,1,3.07.26,6.89,6.89,0,0,1,3.09,1.75,5.17,5.17,0,0,1,1.44,2.62l-2.44.65a3.31,3.31,0,0,0-.39-1.09,3.38,3.38,0,0,0-.67-.83,4.17,4.17,0,0,0-.83-.59,5,5,0,0,0-.92-.37,4,4,0,0,0-1.85-.13,3.82,3.82,0,0,0-1.51.63,4.27,4.27,0,0,0-1.11,1.16,5,5,0,0,0-.65,1.44,4.86,4.86,0,0,0-.15,1.7,4.51,4.51,0,0,0,.44,1.57,4.17,4.17,0,0,0,1,1.27,3.69,3.69,0,0,0,1.46.79,4.54,4.54,0,0,0,1,.17,3.84,3.84,0,0,0,1,0,3.69,3.69,0,0,0,1-.35,2.9,2.9,0,0,0,.87-.68l1.74,1.85a4,4,0,0,1-1.29,1,6.21,6.21,0,0,1-1.59.5,7.39,7.39,0,0,1-1.72.09,7.56,7.56,0,0,1-1.66-.28,6.1,6.1,0,0,1-2.38-1.27,7.22,7.22,0,0,1-1.61-2,7.39,7.39,0,0,1-.79-2.44A6.5,6.5,0,0,1,447.77,204.35Z" style="fill:#fff"/><path d="M469.17,215.8l-.83,2.09c-3.51-1.39-5.28-2-8.85-3.23l4.16-12.45c3.69,1.26,5.63,1.85,9.35,3.4l-.81,2.09c-2.62-1-3.93-1.53-6.59-2.46l-1.05,3c2.25.79,3.38,1.2,5.54,2.07l-.76,1.85c-2.2-.85-3.31-1.27-5.54-2.05l-1.13,3.23C465.38,214.31,466.62,214.79,469.17,215.8Z" style="fill:#fff"/><polygon points="250.72 351.78 252.92 345.23 263.48 344.95 264.19 355.98 249.76 354.81 250.72 351.78" style="fill:#d6d6d6"/><rect x="234.11" y="306.49" width="50.12" height="40.96" rx="2.96" ry="2.96" style="fill:#fff"/><rect x="237.9" y="310.55" width="42.73" height="26.31" rx="2.55" ry="2.55" style="fill:#5b9bd5"/><rect x="240.5" y="312.71" width="34.42" height="3.05" rx="1.35" ry="1.35" style="fill:#fff"/><rect x="262.45" y="319.14" width="12.47" height="3.05" rx="1.35" ry="1.35" style="fill:#fff"/><rect x="240.5" y="319.14" width="18.66" height="15.63" rx="2.42" ry="2.42" style="fill:#fff"/><rect x="243.53" y="353.52" width="25.14" height="3.21" rx="1.4" ry="1.4" style="fill:#fff"/><rect x="262.45" y="325.55" width="24.94" height="34.23" rx="2.6" ry="2.6" style="fill:#fff"/><rect x="265.65" y="331.28" width="18.6" height="22.24" style="fill:#5b9bd5"/><path d="M280.92,338.76l-.42-.42a1.2,1.2,0,0,0-1.68,0l-5.43,5.43-2.25-2.25a1.2,1.2,0,0,0-1.68,0l-.42.42a1.2,1.2,0,0,0,0,1.68l3.27,3.27h0l.24.24a1.2,1.2,0,0,0,1.68,0l6.71-6.71A1.23,1.23,0,0,0,280.92,338.76Z" style="fill:#fff"/><rect x="529.17" y="308.19" width="45.11" height="28.84" style="fill:#5b9bd5"/><path d="M561.44,317.2a.91.91,0,0,0-.3-.28,17.81,17.81,0,0,1-8.76-4.45,1,1,0,0,0-.83-.41,1.5,1.5,0,0,0-.92.52,18.77,18.77,0,0,1-8.59,4.32.74.74,0,0,0-.28.17.94.94,0,0,0-.24.79,16.63,16.63,0,0,0,3.57,10.38,15.2,15.2,0,0,0,6.47,4.88,13.87,13.87,0,0,0,3.45-1.85,14.1,14.1,0,0,0,4.21-4.77,19.93,19.93,0,0,0,2.35-8.85A.92.92,0,0,0,561.44,317.2ZM553,322.74v3.09a1.26,1.26,0,0,1-1.26,1.26h-.15a1.26,1.26,0,0,1-1.24-1.26v-3a2.55,2.55,0,1,1,2.68,0Z" style="fill:#fff"/><path d="M577.14,308.35a6.89,6.89,0,0,0-.57-2.46c-.83-1.48-3.14-1.63-3.47-1.63h-43a4,4,0,0,0-2.84,1.09,4.64,4.64,0,0,0-1.11,2.53,6.35,6.35,0,0,0-.11,1.4v30.35H543.5a3,3,0,0,1,1,.3,3.08,3.08,0,0,1,1.09,1h11a3.08,3.08,0,0,1,1.09-1,3,3,0,0,1,1-.3h18.6V309.2Q577.17,308.78,577.14,308.35Zm-4,27.54h-43V309.2h43Z" style="fill:#fff"/><path d="M581.08,343.23v-1a1.11,1.11,0,0,0-1.11-1.11H558.59a1.27,1.27,0,0,0-1.26,1.29h0v1a1.07,1.07,0,0,1-1.07,1.07H545.64a1.07,1.07,0,0,1-1.07-1.07h0v-.92s0-1-.83-1.29H523.42a1.11,1.11,0,0,0-1.11,1.11h0v1a4.27,4.27,0,0,0,4.66,4.54h50.21a4.32,4.32,0,0,0,2.75-1.29A4.38,4.38,0,0,0,581.08,343.23Z" style="fill:#fff"/><rect x="402.26" y="572.34" width="11.42" height="7.94" rx="0.89" ry="0.89" style="fill:#5b9bd5"/><polygon points="425.37 568.24 412.97 560.2 401.05 571.95 401.05 576.31 425.37 576.31 425.37 568.24" style="fill:#5b9bd5"/><path d="M438.44,552.53a9.61,9.61,0,0,0-8.74-7.81,10.1,10.1,0,0,0-9.24,4.27,10.71,10.71,0,0,0-1.5,7.48l-15.11,14.93v6.82a.72.72,0,0,0,.76.68h6.56s1.13,0,1.11-1v-2.29s0-.78,1-.78h2.59s1,.11,1.05-1.13v-2.49a.81.81,0,0,1,.73-.89h2.81a1.11,1.11,0,0,0,1.2-1.27v-2.24a.87.87,0,0,1,.87-.85h2.25l2.09-2.14a12,12,0,0,0,4.64,0A10,10,0,0,0,438.44,552.53Zm-31.4,21-.92-1,13.17-12.93,1,1ZM432.13,553a1.85,1.85,0,1,1,.09,0Z" style="fill:#fff"/><path d="M416.61,576.29h9.83a1.42,1.42,0,0,0,1.64-1.61v-3.51a2.16,2.16,0,0,0-.52-1l-2.83-2.53h-1.46v1.85s-.35,2.53-2.6,2.51h-2.2v2.22S418.09,576.14,416.61,576.29Z" style="fill:#fff"/><path d="M402.13,576.29h-15.5s-1.63-.11-1.63-1.42V571s0-.33.81-1.09A48.53,48.53,0,0,1,398.49,562a6.21,6.21,0,0,0,2.49-5.84s-1.63-.7-2.29-3.9c0,0-2.44-2.73-1.85-4.23a2,2,0,0,1,1.44-1.85,1.85,1.85,0,0,1-.15-1.51,6.37,6.37,0,0,1-.33-6.45,9.62,9.62,0,0,1,9.24-4.42,10.18,10.18,0,0,1,4.12,1.31,5.54,5.54,0,0,1,4.69,3.69s1.57,4.66-.52,7.39c0,0,1.85,1.13.33,4a6.47,6.47,0,0,1-1.29,2,7.39,7.39,0,0,1-2.11,4,6.8,6.8,0,0,0,.2,3.23,1.85,1.85,0,0,0,.52.72L402.79,570a2.4,2.4,0,0,0-.52,1.85Z" style="fill:#fff"/><rect x="380.77" y="582.66" width="52.63" height="10.99" rx="5.49" ry="5.49" style="fill:#5b9bd5"/><path d="M427.75,580.24H386.41a7.91,7.91,0,1,0,0,15.81h41.36a7.91,7.91,0,0,0,0-15.81Zm-47,7.91a5.67,5.67,0,0,1,5.65-5.65h31.07V593.8H386.41A5.67,5.67,0,0,1,380.75,588.15Zm47,5.65h-8V582.5h8a5.65,5.65,0,0,1,0,11.31Z" style="fill:#fff"/><path d="M427,584.77a1.13,1.13,0,0,0-1.72,1.44l.68.81h-2.25a1.13,1.13,0,1,0,0,2.25H426l-.68.81a1.13,1.13,0,1,0,1.72,1.44l2.24-2.68a1.13,1.13,0,0,0,0-1.44Z" style="fill:#fff"/><path d="M390.06,585.9a1.13,1.13,0,0,0-1.59,0l-.67.67-.67-.67a1.13,1.13,0,0,0-1.59,1.59l.67.67-.67.67a1.13,1.13,0,0,0,1.59,1.59l.67-.67.67.67a1.13,1.13,0,0,0,1.59-1.59l-.67-.67.67-.67A1.13,1.13,0,0,0,390.06,585.9Z" style="fill:#fff"/><path d="M398.19,585.9a1.13,1.13,0,0,0-1.59,0l-.67.67-.67-.67a1.13,1.13,0,0,0-1.59,1.59l.67.67-.67.67a1.13,1.13,0,0,0,1.59,1.59l.67-.67.67.67a1.13,1.13,0,0,0,1.59-1.59l-.67-.67.67-.67A1.13,1.13,0,0,0,398.19,585.9Z" style="fill:#fff"/><path d="M406.26,585.9a1.13,1.13,0,0,0-1.59,0l-.67.67-.67-.67a1.13,1.13,0,0,0-1.59,1.59l.67.67-.67.67a1.13,1.13,0,0,0,1.59,1.59l.67-.67.67.67a1.13,1.13,0,0,0,1.59-1.59l-.67-.67.67-.67A1.13,1.13,0,0,0,406.26,585.9Z" style="fill:#fff"/><path d="M413.8,588.15l.67-.67a1.13,1.13,0,0,0-1.59-1.59l-.67.67-.67-.67a1.13,1.13,0,0,0-1.59,1.59l.67.67-.67.67a1.13,1.13,0,0,0,1.59,1.59l.67-.67.67.67a1.13,1.13,0,0,0,1.59-1.59Z" style="fill:#fff"/><path d="M373.86,404.06V389.64s3.81-3.09,13.78-3.09a25,25,0,0,1,14.24,4.27l.52.31s3.69-1,13.49,1.66c0,0,4,.41,4.17,3.9a4.75,4.75,0,0,1-3.14,4L400.17,400s1.85,2.38,7.65,3c0,0,10.22.26,12.93-2,0,0,4.49-3.92,5.65-3.86a5.54,5.54,0,0,1,4.43.44,2.38,2.38,0,0,1,0,3.86s2.49,0,.39,3.21l-9,6.5-1.53.85a44.93,44.93,0,0,1-4.67,1c-2.7.42-9.24,1.72-9.24,1.72s-7.63,1.16-10-.55l-12.58-6L379.16,406a7.56,7.56,0,0,0-3-.83A2.64,2.64,0,0,1,373.86,404.06Z" style="fill:#fff"/><path d="M433.33,369.68l-5.14-.72a3.69,3.69,0,0,0-.7-3l4.12-3.6-3-4.62-4.56,1.85s-1.85-2.25-2.7-2.38l2.12-4.69-4.75-3-3.23,4s-2.44-1-3.27-.7l-1.18-5h-5.14L405,352.6a17.05,17.05,0,0,0-3.27,1l-3.21-3.92-5.19,2.81,2.2,4.75a6,6,0,0,0-2.57,2.25l-4.69-1.85-2.83,4.75,4,3.27a12.77,12.77,0,0,0-1.09,3.47l-5.21.63v5.54l4.9.74s1,2.77,1.29,3.21l-4,3.4,1.42,2.6a24.27,24.27,0,0,1,15.24,4s17.57.78,18.77,5.23l2.57-1.46L421.54,388A13.71,13.71,0,0,0,424,385.9l4.36,2.12,3.09-5-4.12-3.86a3.69,3.69,0,0,0,.91-3.25h5Zm-24.64,14.37a11.49,11.49,0,1,1,11.45-11.53h0a11.49,11.49,0,0,1-11.45,11.53Z" style="fill:#fff"/></g></g><g id="Layer_2-3" data-name="Layer 2"><g id="Layer_1-2-3" data-name="Layer 1-2"><circle cx="408.85" cy="407.85" r="407.85" style="fill:#203864"/><path d="M428.71,387.46,707.23,549.8c78.48-167.39,6.4-366.7-161-445.18A334.74,334.74,0,0,0,428.71,73.87Z" style="fill:#5b9bd5"/><path d="M369.22,387.29V74.6C185.33,93.83,51.86,258.49,71.09,442.38A334.77,334.77,0,0,0,98.2,543.69Z" style="fill:#5b9bd5"/><path d="M398.84,438.88,127.26,595.68c103.86,152.92,312,192.7,464.94,88.84a334.71,334.71,0,0,0,85-83.35Z" style="fill:#5b9bd5"/><circle cx="402.24" cy="404.54" r="139.14" style="fill:#f16a21;stroke:#203864;stroke-miterlimit:10;stroke-width:7px"/><path d="M369.22,97.57l-34-36.16.33,18.5c-177.67,37-294,209.51-260.63,388.82a334.73,334.73,0,0,0,23.29,74.93l33.71-19.47C65.87,375,133.27,200.45,282.48,134.38a295.45,295.45,0,0,1,53.76-17.85l.33,18.42Z" style="fill:#f16a21"/><path d="M522.25,94.33a334.49,334.49,0,0,0-93.57-20.56v36.52C591.1,124.77,711,268.18,696.54,430.59A295.22,295.22,0,0,1,682.76,497l-13.47-7.87,14.94,47.3,48.55-10.21-12.95-7.56C780.33,347.48,693,158.58,522.25,94.33Z" style="fill:#f16a21"/><path d="M640.24,579.62C543.71,711,358.94,739.28,227.55,642.75a295.23,295.23,0,0,1-45.21-41.06l13.73-8.55-48.85-8.86L133.63,632l14.51-9C265.51,762.7,473.73,782.71,615.61,667a334.48,334.48,0,0,0,61.52-65.85Z" style="fill:#f16a21"/><g style="isolation:isolate"><text transform="translate(333.13 448.67)" style="isolation:isolate;font-size:26.440839767456055px;fill:#09234c;font-family:Raleway-Bold, Raleway;font-weight:700">I</text><text transform="translate(340.7 448.67)" style="isolation:isolate;font-size:26.440839767456055px;fill:#09234c;font-family:Raleway-Bold, Raleway;font-weight:700;letter-spacing:-0.056010211637559em">T</text><text transform="translate(356.33 448.67)" style="isolation:isolate;font-size:26.440839767456055px;fill:#09234c;font-family:Raleway-Bold, Raleway;font-weight:700"><tspan xml:space="preserve"> SE</tspan></text><text transform="translate(394.77 448.67)" style="isolation:isolate;font-size:26.440839767456055px;fill:#09234c;font-family:Raleway-Bold, Raleway;font-weight:700;letter-spacing:-0.015992365076863205em">R</text><text transform="translate(411.89 448.67)" style="isolation:isolate;font-size:26.440839767456055px;fill:#09234c;font-family:Raleway-Bold, Raleway;font-weight:700">VICE</text><text transform="translate(308.47 480.4)" style="isolation:isolate;font-size:26.440839767456055px;fill:#09234c;font-family:Raleway-Bold, Raleway;font-weight:700">MAN</text><text transform="translate(369.29 480.4)" style="isolation:isolate;font-size:26.440839767456055px;fill:#09234c;font-family:Raleway-Bold, Raleway;font-weight:700;letter-spacing:-0.05698895915381045em">A</text><text transform="translate(386.37 480.4)" style="isolation:isolate;font-size:26.440839767456055px;fill:#09234c;font-family:Raleway-Bold, Raleway;font-weight:700">GEMEN</text><text transform="translate(480.37 480.4)" style="isolation:isolate;font-size:26.440839767456055px;fill:#09234c;font-family:Raleway-Bold, Raleway;font-weight:700;letter-spacing:-0.05499453025276977em">T</text></g><path d="M203.47,370.5l3.31.59a163.9,163.9,0,0,0-2.31,16.53l-18.67-1.85a173.75,173.75,0,0,1,2.48-17.62l3.31.56c-.89,4.92-1.29,7.4-1.88,12.39l4.49.56c.53-4.23.83-6.31,1.55-10.48l2.91.5c-.73,4.1-1,6.18-1.52,10.34l4.86.59A76.06,76.06,0,0,1,203.47,370.5Z" style="fill:#fff"/><path d="M196.53,360.26l11.73,2.68c-.4,1.78-.59,2.71-1,4.49l-18.41-3.73c.3-1.52.46-2.31.83-3.83a160,160,0,0,1,15.17-9.52L193.09,347c.56-1.92.86-2.88,1.45-4.79l18,5.45c-.46,1.42-.66,2.12-1.09,3.57A155.34,155.34,0,0,0,196.53,360.26Z" style="fill:#fff"/><path d="M213.95,343l-17.75-5.92c1.22-3.54,1.85-5.29,3.31-8.79a17.09,17.09,0,0,1,2.78-4.83,11.3,11.3,0,0,1,3.31-2.81,7.9,7.9,0,0,1,3.64-1.09,8.59,8.59,0,0,1,3.64.83,8.89,8.89,0,0,1,3.31,2.38,8.59,8.59,0,0,1,1.72,3.31,11.83,11.83,0,0,1,.3,4.13,17.32,17.32,0,0,1-1.19,4.69C215.63,338.21,215.07,339.8,213.95,343Zm-3-18.21a6.15,6.15,0,0,0-2.48-.53,5.29,5.29,0,0,0-2.38.56,6.61,6.61,0,0,0-2.08,1.69,9.92,9.92,0,0,0-1.59,2.81c-.63,1.59-.93,2.41-1.52,4l11.67,4.26c.56-1.52.86-2.28,1.42-3.77a9.45,9.45,0,0,0,.69-3,6.61,6.61,0,0,0-.36-2.58,5.75,5.75,0,0,0-1.26-2A6.31,6.31,0,0,0,210.91,324.83Z" style="fill:#fff"/><path d="M222.94,321.12l-17-8.13c1.88-3.93,2.88-5.85,5-9.68a9.16,9.16,0,0,1,2-2.58,8.33,8.33,0,0,1,2.51-1.52,6.61,6.61,0,0,1,2.58-.43,4.69,4.69,0,0,1,2.25.63,5.22,5.22,0,0,1,1.72,1.65,6.61,6.61,0,0,1,.93,2.35,8,8,0,0,1,0,2.78,8.92,8.92,0,0,1-1,2.94c-1.09,2-1.62,3-2.68,5.06l5.62,2.88C224.13,318.68,223.73,319.5,222.94,321.12Zm-6.41-8.39c1-2,1.52-2.94,2.58-4.89a3.31,3.31,0,0,0,.33-2.31,2.88,2.88,0,0,0-1.49-1.85,2.84,2.84,0,0,0-1.26-.4,3,3,0,0,0-1.19.17,3,3,0,0,0-1.06.66,4.06,4.06,0,0,0-.79,1c-1.06,1.92-1.55,2.91-2.58,4.86Z" style="fill:#fff"/><path d="M238.44,294.78a13.85,13.85,0,0,1-3.31,3.31,12.56,12.56,0,0,1-3.77,1.88,10.11,10.11,0,0,1-3.87.4,7.9,7.9,0,0,1-3.31-1.09,7.37,7.37,0,0,1-2.58-2.68,9.62,9.62,0,0,1-1.22-3.8,12.36,12.36,0,0,1,.4-4.46,14.58,14.58,0,0,1,2.15-4.59,13.88,13.88,0,0,1,3.6-3.67,12.2,12.2,0,0,1,4.07-1.82,9.55,9.55,0,0,1,3.93,0,7.5,7.5,0,0,1,3.31,1.45,7.73,7.73,0,0,1,2.28,2.91,10.25,10.25,0,0,1,.93,3.77,12.69,12.69,0,0,1-.5,4.2A14.15,14.15,0,0,1,238.44,294.78Zm-11.77.53a6,6,0,0,0,2.25.86,6.18,6.18,0,0,0,2.45,0,6.94,6.94,0,0,0,2.38-1.06,8.79,8.79,0,0,0,3.31-4.89,6.94,6.94,0,0,0,0-2.61,6.21,6.21,0,0,0-.83-2.28,6,6,0,0,0-1.55-1.75,5.68,5.68,0,0,0-2.18-1,6,6,0,0,0-2.48,0,6.61,6.61,0,0,0-2.48,1.06A9.09,9.09,0,0,0,224,288.8a6.61,6.61,0,0,0,0,2.71,5.88,5.88,0,0,0,.93,2.25,5.82,5.82,0,0,0,1.72,1.55Z" style="fill:#fff"/><path d="M247.3,282.72,232.69,271c1.26-1.55,1.88-2.31,3.31-3.87l14.31,12.13A26.36,26.36,0,0,0,247.3,282.72Z" style="fill:#fff"/><path d="M247.73,263.91l8.79,8.23-3.07,3.31-14-12.49,2.61-2.88a166.44,166.44,0,0,1,17.95-.69l-8.46-8.86,3.7-3.31,12.59,13.88-2.74,2.54A161.65,161.65,0,0,0,247.73,263.91Z" style="fill:#fff"/><path d="M276.41,234c-2.68,1.92-4,2.91-6.61,4.92l9.58,12.26-3.6,2.88L265.87,242c-2.54,2.08-3.8,3.31-6.25,5.32l-2.12-2.41a179.47,179.47,0,0,1,17.05-13.55Z" style="fill:#fff"/><path d="M235.13,402.43l-12.43-.33c3.64,2.35,5.49,3.31,9.19,5.59v2.18c-3.67,2.21-5.49,3.31-9.06,5.82l12.39-.63a22.82,22.82,0,0,0,.23,4l-18.71,1.39c0-1.92-.2-2.84-.3-4.76,4.13-2.91,6.25-4.26,10.48-6.84-4.3-2.51-6.44-3.83-10.64-6.61a43.61,43.61,0,0,1,.17-4.66l18.74,1C235.2,399.92,235.17,400.84,235.13,402.43Z" style="fill:#fff"/><path d="M217.42,386.53c.17-1.52.26-2.28.46-3.8a197.48,197.48,0,0,1,19.83-5.06c-.3,1.59-.4,2.35-.66,3.93l-4.89,1.19c-.4,2.84-.59,4.26-.86,7.14l4.49,2.31c0,1.59-.2,2.41-.3,4A203.89,203.89,0,0,1,217.42,386.53Zm12-3.31c-3.07.73-4.63,1.12-7.7,2,2.78,1.59,4.16,2.38,7,3.87.33-2.38.33-3.6.73-5.92Z" style="fill:#fff"/><path d="M227.07,369.18l11.77,2.54c-.33,1.52-.5,2.28-.76,3.8L219.63,372l.66-3.31a139.81,139.81,0,0,1,14.61-7.9l-11.83-3.31c.46-1.65.69-2.48,1.19-4.1l18,5.45c-.36,1.19-.53,1.78-.89,3A135.67,135.67,0,0,0,227.07,369.18Z" style="fill:#fff"/><path d="M227.66,343.1c.53-1.42.79-2.12,1.36-3.54a201.94,201.94,0,0,1,20.36,0c-.63,1.45-1,2.15-1.55,3.64h-5c-1.06,2.61-1.55,4-2.51,6.61l3.8,3.31c-.53,1.49-.76,2.25-1.26,3.77A203.36,203.36,0,0,1,227.66,343.1Zm12.46-.33h-7.93c2.31,2.21,3.5,3.31,5.85,5.39.93-2.15,1.26-3.21,2.12-5.39Z" style="fill:#fff"/><path d="M254.3,325a8.13,8.13,0,0,1-.63,5.92,9.62,9.62,0,0,1-2.31,2.94,9.92,9.92,0,0,1-3.14,1.82,10.25,10.25,0,0,1-3.64.59,9.58,9.58,0,0,1-3.77-.86,8.43,8.43,0,0,1-3-2.21,9,9,0,0,1-1.78-3.31,10.21,10.21,0,0,1-.36-3.87,11.93,11.93,0,0,1,4.69-8.23,7.4,7.4,0,0,1,4.2-1.39,19.38,19.38,0,0,0,.23,3.67,5.22,5.22,0,0,0-3,1,6.61,6.61,0,0,0-2.15,2.48,5.92,5.92,0,0,0-.69,2.45,5.55,5.55,0,0,0,.36,2.35,6.08,6.08,0,0,0,1.29,2,7,7,0,0,0,4.43,2.08,6.38,6.38,0,0,0,2.35-.26,6,6,0,0,0,2-1.09,5.88,5.88,0,0,0,1.52-1.88,7.34,7.34,0,0,0,.26-5.88l-1.16-.66-2,3.64L245.58,325c1.42-2.68,2.15-4,3.67-6.61l8.33,4.86L256,326Z" style="fill:#fff"/><path d="M264.45,307.37l2.58,1.88a109.81,109.81,0,0,0-7.6,11.37l-16-9.92c3.11-5.09,4.79-7.57,8.3-12.43l2.58,1.88c-2.48,3.31-3.67,5.12-5.95,8.66l3.8,2.45c1.92-3,2.91-4.43,5-7.3l2.41,1.72c-2,2.84-3,4.26-4.89,7.21l4.1,2.64C260.91,312.13,262.1,310.45,264.45,307.37Z" style="fill:#fff"/><path d="M279.16,294.39,270,285.92c1.22,4.13,1.88,6.15,3.31,10.15L272,297.69c-4.16-.83-6.28-1.16-10.54-1.75l9.72,7.73-2.41,3-14.94-11.37c1.09-1.45,1.69-2.18,2.81-3.6,5,.63,7.4,1,12.26,2-1.62-4.66-2.38-7-3.73-11.87l3.14-3.31,13.48,13.22Z" style="fill:#fff"/><path d="M292.94,276.93l2,2.48a137.63,137.63,0,0,0-10.25,9.25l-13.22-13.42c4.3-4.23,6.61-6.25,11.2-10.11l2,2.45c-3.31,2.71-4.86,4.13-8,7l3.07,3.31c2.61-2.45,3.93-3.64,6.61-5.95l2,2.35c-2.68,2.28-4,3.31-6.61,5.85l3.31,3.57C288.28,280.93,289.8,279.55,292.94,276.93Z" style="fill:#fff"/><path d="M293.11,265.53l7.27,9.58-3.07,2.38-11.7-14.67,2.64-2.08A147.37,147.37,0,0,1,304.57,264l-6.87-10.21,3.67-2.38,10.08,15.8L308.77,269A142.84,142.84,0,0,0,293.11,265.53Z" style="fill:#fff"/><path d="M321.6,243.85c-2.58,1.26-3.87,1.92-6.38,3.31l7.34,13.75-3.31,1.88-7.57-13.62c-2.48,1.39-3.7,2.12-6.11,3.6l-1.69-2.71A154.06,154.06,0,0,1,320.41,241Z" style="fill:#fff"/><path d="M529.82,251.92l-1.72,2.68a125.6,125.6,0,0,0-15.67-8.76l8.2-16.89a141.49,141.49,0,0,1,17.29,9.68l-1.72,2.71a138.48,138.48,0,0,0-12-7l-2.12,4a113,113,0,0,1,10.11,5.82l-1.55,2.51c-3.87-2.41-5.85-3.54-9.92-5.68l-2.28,4.33A128.14,128.14,0,0,1,529.82,251.92Z" style="fill:#fff"/><path d="M542.48,249.87l-7.07,9.72c-1.59-1.16-2.41-1.75-4.07-2.84l10.54-15.53,3.54,2.48a121.73,121.73,0,0,1,3.67,18.54l8-9.32c1.69,1.45,2.51,2.18,4.13,3.67l-12.69,13.82-3-2.64A117.2,117.2,0,0,0,542.48,249.87Z" style="fill:#fff"/><path d="M552.36,274l13.22-13.22c2.94,2.88,4.36,4.36,7.11,7.44a19.53,19.53,0,0,1,3.31,5.06,12.49,12.49,0,0,1,1.16,4.59,7.83,7.83,0,0,1-3.31,6.61,8.4,8.4,0,0,1-3.64,1.62,8.89,8.89,0,0,1-3.9-.2,13.22,13.22,0,0,1-4-1.85,20.49,20.49,0,0,1-3.87-3.31A58.67,58.67,0,0,0,552.36,274Zm18.44,6.31a5.72,5.72,0,0,0,1.59-2,5.29,5.29,0,0,0,.5-2.45,7.27,7.27,0,0,0-.69-2.78,11.53,11.53,0,0,0-2-2.91,31.21,31.21,0,0,0-3.31-3.31l-9,8.53c1.19,1.26,1.78,1.88,2.94,3.31a11,11,0,0,0,2.51,2.15,7.27,7.27,0,0,0,2.54,1,5.85,5.85,0,0,0,2.48,0,5.92,5.92,0,0,0,2.38-1.55Z" style="fill:#fff"/><path d="M568.82,293.16l15.24-11c2.78,3.87,4.13,5.85,6.61,9.92a10.61,10.61,0,0,1,1.39,3.31,9.15,9.15,0,0,1,.17,3.31,6.61,6.61,0,0,1-.86,2.58,4.4,4.4,0,0,1-1.65,1.65,4.89,4.89,0,0,1-2.31.59,6.61,6.61,0,0,1-2.58-.5,8.89,8.89,0,0,1-2.51-1.52,10.48,10.48,0,0,1-2.15-2.54c-1.29-2.08-2-3.14-3.31-5.16l-5.22,3.5C570.5,295.54,569.94,294.72,568.82,293.16Zm10.64-1.32c1.32,2,2,3,3.31,5a3.6,3.6,0,0,0,2,1.59,2.78,2.78,0,0,0,2.41-.3,2.64,2.64,0,0,0,1-.93,3,3,0,0,0,.43-1.19,3.31,3.31,0,0,0,0-1.32,4.73,4.73,0,0,0-.56-1.29c-1.26-2-1.92-3-3.31-5Z" style="fill:#fff"/><path d="M584.75,321.45a16.16,16.16,0,0,1-1.32-4.89,14,14,0,0,1,.23-4.43,10.41,10.41,0,0,1,1.55-3.67,7.47,7.47,0,0,1,2.68-2.45,6.91,6.91,0,0,1,3.64-.79,9.72,9.72,0,0,1,4,1.12,13.58,13.58,0,0,1,3.8,3,16.72,16.72,0,0,1,3,4.69,16,16,0,0,1,1.36,5.45,13.22,13.22,0,0,1-.53,4.76,9.62,9.62,0,0,1-2,3.57,7,7,0,0,1-3,2,7.34,7.34,0,0,1-3.7.26,10.61,10.61,0,0,1-3.7-1.45,14.21,14.21,0,0,1-3.31-2.91A16.52,16.52,0,0,1,584.75,321.45Zm5.52-10.77a5.68,5.68,0,0,0-1.88,1.49,6.25,6.25,0,0,0-1.16,2.21,7.67,7.67,0,0,0-.26,2.71,9.32,9.32,0,0,0,.79,3.07,9.22,9.22,0,0,0,1.75,2.71,7.6,7.6,0,0,0,2.21,1.65,6.28,6.28,0,0,0,2.41.63,5.62,5.62,0,0,0,2.31-.33,5.32,5.32,0,0,0,2-1.36,6,6,0,0,0,1.32-2.18,7.37,7.37,0,0,0,.36-2.84,10.51,10.51,0,0,0-2.74-6.21,7.3,7.3,0,0,0-2.35-1.65,5.85,5.85,0,0,0-2.48-.5A5.42,5.42,0,0,0,590.27,310.68Z" style="fill:#fff"/><path d="M590.43,336.39l17.91-5.59c.66,2.08,1,3.31,1.55,5.26l-18.08,5C591.29,339.17,591,338.24,590.43,336.39Z" style="fill:#fff"/><path d="M605.83,348.49,594,350.9c-.4-1.92-.59-2.88-1.06-4.79l18.24-4.36c.4,1.65.59,2.51,1,4.16A129.56,129.56,0,0,1,602.26,362l12.2-1.49c.26,2.21.4,3.31.59,5.52l-18.67,1.69a32.14,32.14,0,0,0-.4-4A124.77,124.77,0,0,0,605.83,348.49Z" style="fill:#fff"/><path d="M612.44,393.57c.26-3.67.36-5.49.43-9.16l-15.57-.3v-5l15.57-.23a75.17,75.17,0,0,0-.36-9.06l3.31-.23a141.43,141.43,0,0,1,0,24.16Z" style="fill:#fff"/><path d="M520.13,270.75a5.25,5.25,0,0,0-.4-.86,9.91,9.91,0,0,0-.86-1.29,13.52,13.52,0,0,0-1.29-1.42,9.32,9.32,0,0,0-1.62-1.26,5.19,5.19,0,0,0-2.64-.93,1.72,1.72,0,0,0-1.55.93,1.42,1.42,0,0,0-.2,1,2.84,2.84,0,0,0,.5,1.06,9.68,9.68,0,0,0,1.09,1.26l1.62,1.59a26.44,26.44,0,0,1,2,2.25,7.8,7.8,0,0,1,1.26,2.12,4.36,4.36,0,0,1,.3,2,4.49,4.49,0,0,1-.86,2.08,4.92,4.92,0,0,1-4.33,2.25,7.93,7.93,0,0,1-2.54-.5,14.44,14.44,0,0,1-2.58-1.22,19.27,19.27,0,0,1-3.6-2.81,17.25,17.25,0,0,1-2.78-3.5l3.07-1.95a6.38,6.38,0,0,0,.56,1,18.08,18.08,0,0,0,1.09,1.45,16,16,0,0,0,1.52,1.59,11.57,11.57,0,0,0,1.88,1.42c1.92,1.16,3.31,1.22,3.87,0a1.45,1.45,0,0,0,.23-1.09,3.31,3.31,0,0,0-.53-1.22,10.34,10.34,0,0,0-1.19-1.42l-1.69-1.69c-.76-.73-1.42-1.42-2-2a8.1,8.1,0,0,1-1.22-1.82,3.8,3.8,0,0,1,0-3.6,4.89,4.89,0,0,1,1.75-2,5.29,5.29,0,0,1,2.48-.76,8.63,8.63,0,0,1,2.94.33,12.63,12.63,0,0,1,3.07,1.36,14.24,14.24,0,0,1,3.54,2.94,16.19,16.19,0,0,1,2.18,3.31Z" style="fill:#fff"/><path d="M529.82,291.87l-2.18,2.35a98.86,98.86,0,0,0-10.71-8.82L528,270.23a114.39,114.39,0,0,1,12.16,9.92L538,282.49c-3.31-3-4.89-4.4-8.36-7.14l-2.78,3.57a78.5,78.5,0,0,1,7,5.92l-2,2.18c-2.64-2.41-4-3.57-6.87-5.78l-3,3.87A101.47,101.47,0,0,1,529.82,291.87Z" style="fill:#fff"/><path d="M535.17,288.27a8.33,8.33,0,0,1,2.88-1.95,8.56,8.56,0,0,1,3.64-.66,10.28,10.28,0,0,1,4,1,11.93,11.93,0,0,1,3.83,2.94,11.17,11.17,0,0,1,2.68,4.89A7.57,7.57,0,0,1,552,299l-3.57-1.55a4.69,4.69,0,0,0,.36-1.65,5.09,5.09,0,0,0-.2-1.59,6.61,6.61,0,0,0-.63-1.45,8,8,0,0,0-.93-1.26,6.61,6.61,0,0,0-2.35-1.72,5.72,5.72,0,0,0-4.69,0,6.68,6.68,0,0,0-3.87,5.59,6.41,6.41,0,0,0,.3,2.35,5.82,5.82,0,0,0,1.26,2.15,7.44,7.44,0,0,0,1.06,1,6.08,6.08,0,0,0,1.32.76,5.65,5.65,0,0,0,1.49.4,4.16,4.16,0,0,0,1.59,0c.3,1.45.46,2.18.69,3.64a5.92,5.92,0,0,1-2.31,0,9.55,9.55,0,0,1-2.31-.69,11.47,11.47,0,0,1-2.18-1.26A12,12,0,0,1,535.2,302a9.55,9.55,0,0,1-2-3.31,11.24,11.24,0,0,1-.56-3.73,10.94,10.94,0,0,1,.69-3.64A9,9,0,0,1,535.17,288.27Z" style="fill:#fff"/><path d="M549.42,315.54a5,5,0,0,0,1.69,1.72,4.66,4.66,0,0,0,2,.63,5.59,5.59,0,0,0,2.12-.26,10.25,10.25,0,0,0,2.08-.93l8.26-4.83c.89,1.52,1.32,2.28,2.15,3.83l-8.43,4.56a12.69,12.69,0,0,1-3.31,1.29,8.49,8.49,0,0,1-3.31,0,7.87,7.87,0,0,1-3.11-1.36,11.92,11.92,0,0,1-4.26-6.71,8.06,8.06,0,0,1,0-3.31,8.4,8.4,0,0,1,1.49-3,13.22,13.22,0,0,1,2.54-2.48L557,299c1.06,1.42,1.59,2.15,2.61,3.6l-7.83,5.49a10.38,10.38,0,0,0-1.72,1.52,5.59,5.59,0,0,0-1.12,1.78,4.59,4.59,0,0,0-.26,2A5,5,0,0,0,549.42,315.54Z" style="fill:#fff"/><path d="M553,328.06l16.79-8.39c1.82,3.6,2.64,5.45,4.2,9.19a7.27,7.27,0,0,1,.56,2.91,7.11,7.11,0,0,1-.53,2.64,6.38,6.38,0,0,1-1.39,2.08,5.16,5.16,0,0,1-1.95,1.26,5.78,5.78,0,0,1-3.47,0,6,6,0,0,1-3-1.85,70.88,70.88,0,0,1-5.06,6.61c-.56-1.62-.86-2.45-1.49-4.07,1.78-2.41,2.64-3.64,4.3-6.18-.63-1.45-1-2.18-1.62-3.64l-5.72,2.64C554,330.11,553.65,329.42,553,328.06Zm10.28-.53c.86,1.88,1.29,2.84,2.08,4.76a2.48,2.48,0,0,0,.63.89,2.74,2.74,0,0,0,.93.56,3.23,3.23,0,0,0,2.31,0,2.94,2.94,0,0,0,1.06-.66,3,3,0,0,0,.66-1,3,3,0,0,0,.23-1.12,2.81,2.81,0,0,0-.2-1.12c-.79-1.95-1.22-2.91-2.12-4.79Z" style="fill:#fff"/><path d="M559.93,345.19l17.88-5.68c.53,1.69.79,2.54,1.29,4.26L561,348.89C560.62,347.37,560.42,346.64,559.93,345.19Z" style="fill:#fff"/><path d="M580.22,365.74c-.33-2.88-.53-4.33-1-7.17l-15.37,2.61c-.26-1.52-.4-2.28-.69-3.77l15.27-3.11c-.56-2.81-.89-4.23-1.62-7l3.11-.79a114.42,114.42,0,0,1,3.54,18.91Z" style="fill:#fff"/><path d="M583.92,370.87a99.93,99.93,0,0,1-8.73,6c3.7,2.08,5.52,3.31,9.12,5.59v5a111.91,111.91,0,0,0-12.1-8.36h-6.61v-3.9l6.61-.33a120.57,120.57,0,0,0,11.47-9C583.69,367.92,583.79,368.92,583.92,370.87Z" style="fill:#fff"/><path d="M249.28,549.44l9.92-15.86,3.31,2.08-9.92,16Z" style="fill:#fff"/><path d="M256.75,554l9.55-16.16c2.54,1.49,3.8,2.25,6.38,3.67a12.23,12.23,0,0,1,3.31,2.74,9.32,9.32,0,0,1,1.82,3.31,8.4,8.4,0,0,1,.33,3.5,10.38,10.38,0,0,1-1.09,3.54,9.92,9.92,0,0,1-2.41,3.11,7.93,7.93,0,0,1-3.31,1.65,9.42,9.42,0,0,1-3.83,0,12.86,12.86,0,0,1-4.16-1.52C260.81,556.41,259.46,555.65,256.75,554Zm16.86-1.36a7.34,7.34,0,0,0,.79-2.38,5.55,5.55,0,0,0,0-2.28,5.39,5.39,0,0,0-1.09-2,7.14,7.14,0,0,0-2-1.62l-3-1.69-6.15,10.68,3.31,1.78a7,7,0,0,0,2.61.89,5.42,5.42,0,0,0,2.35-.2,5.59,5.59,0,0,0,2-1.19A7.07,7.07,0,0,0,273.61,552.68Z" style="fill:#fff"/><path d="M290.66,567.72l-1.26,2.94c-5.45-2.35-8.16-3.6-13.52-6.25l8.3-16.82c4.89,2.41,7.37,3.57,12.39,5.72l-1.26,2.94c-3.6-1.55-5.42-2.38-9-4.07l-1.95,4.1c3.14,1.49,4.73,2.21,7.9,3.6l-1.19,2.71c-3.31-1.39-4.79-2.12-8-3.64L281,563.39C284.84,565.17,286.76,566,290.66,567.72Z" style="fill:#fff"/><path d="M300.67,562.3l-4.46,11.17-3.83-1.69,7.24-17.32,2.78,1.16c2,6.11,3.11,9.19,5.52,15.3l4.16-11.57,3.64,1.29-6.11,17.75-3.31-1.09C303.95,571.35,302.79,568.48,300.67,562.3Z" style="fill:#fff"/><path d="M333,569.27l-6.15-1.72-4.36,14.94-3.9-1.16,4.56-14.87L317,564.51l1-3c6.25,2.08,9.42,3,15.77,4.69Z" style="fill:#fff"/><path d="M331.51,585l4.66-18.18,3.7.93L335.48,586Z" style="fill:#fff"/><path d="M357.75,574.63l-6.25-1.12-2.94,15.3-4-.79,3.31-15.24-6.21-1.36.73-3.11c6.38,1.49,9.58,2.12,16.06,3.31Z" style="fill:#fff"/><path d="M362.88,572.21c1.39,3.87,2.12,5.78,3.6,9.62,2.48-3.31,3.7-5,6-8.36l4.1.43c-3.31,4.59-5,6.87-8.56,11.34l-.79,6.61-4-.53.89-6.61c-2.28-5.22-3.31-7.83-5.35-13.22Z" style="fill:#fff"/><path d="M389.15,574.79h3.31c2.71,7.6,4.16,11.4,7.27,18.94h-4.2L393.71,589a58.38,58.38,0,0,1-7.21-.3l-2.18,4.56-4.2-.3C384,585.8,385.78,582.16,389.15,574.79Zm4,11.7c-1-3-1.52-4.49-2.51-7.47-1.26,2.91-1.92,4.33-3.31,7.24Z" style="fill:#fff"/><path d="M406,581.7v12h-4.07V575.09h2.94c4.13,4.89,6.28,7.3,10.81,12l-.59-12.26,3.8-.2,1.19,18.71-3.31.2C412.39,588.94,410.21,586.59,406,581.7Z" style="fill:#fff"/><path d="M424.58,593l-1.45-18.71c2.84-.23,4.26-.36,7.11-.66a11.57,11.57,0,0,1,4.26.26,9.06,9.06,0,0,1,3.31,1.62,8.43,8.43,0,0,1,2.25,2.71,10.61,10.61,0,0,1,1.12,3.5,9.91,9.91,0,0,1,0,3.93,8,8,0,0,1-1.65,3.31,9.15,9.15,0,0,1-3,2.28,12.2,12.2,0,0,1-4.16,1.16C429.14,592.64,427.62,592.77,424.58,593Zm12.59-10.74a7.5,7.5,0,0,0-.69-2.41,5.59,5.59,0,0,0-1.39-1.82,5.25,5.25,0,0,0-2-1,6.61,6.61,0,0,0-2.54-.17l-3.31.33,1.16,12.33,3.5-.33a6.61,6.61,0,0,0,2.58-.76,5.26,5.26,0,0,0,1.75-1.52,5.62,5.62,0,0,0,.93-2.08,7.27,7.27,0,0,0,.13-2.54Z" style="fill:#fff"/><path d="M453.8,570.06l3.31-.66c4.46,6.61,6.81,9.92,11.7,16.53l-4.1,1-2.91-4.16c-2.84.63-4.23.89-7.07,1.45-.4,2-.59,3-1,5l-4.13.73A188.58,188.58,0,0,0,453.8,570.06Zm6.61,10.38c-1.72-2.64-2.58-4-4.26-6.61-.53,3.11-.83,4.69-1.42,7.8Z" style="fill:#fff"/><path d="M467,576.67a9.22,9.22,0,0,1,0-3.31,9.45,9.45,0,0,1,1.16-3.31,9.92,9.92,0,0,1,2.45-2.84,10.25,10.25,0,0,1,3.77-1.88,9.72,9.72,0,0,1,4.86-.23,7.7,7.7,0,0,1,3.73,2l-2.31,2.71a4.92,4.92,0,0,0-1.32-1,4.86,4.86,0,0,0-1.42-.5,5.75,5.75,0,0,0-1.42,0,7,7,0,0,0-1.36.23,5.52,5.52,0,0,0-3.7,3.07,6.31,6.31,0,0,0-.56,2.21,7.17,7.17,0,0,0,.2,2.25,6.61,6.61,0,0,0,1,2.21,6.11,6.11,0,0,0,1.72,1.65,6,6,0,0,0,2.21.86,5.68,5.68,0,0,0,2.54,0,7.24,7.24,0,0,0,1.39-.56,5.88,5.88,0,0,0,1.26-.89,5.35,5.35,0,0,0,1-1.22,4,4,0,0,0,.53-1.52l3.67.66a5.55,5.55,0,0,1-.83,2.21,9,9,0,0,1-1.62,1.92,11.11,11.11,0,0,1-2.18,1.52,11.87,11.87,0,0,1-2.45,1,9.58,9.58,0,0,1-4.2.26,10.25,10.25,0,0,1-3.67-1.32,9.91,9.91,0,0,1-2.74-2.51A8.82,8.82,0,0,1,467,576.67Z" style="fill:#fff"/><path d="M485.79,571.42a9.15,9.15,0,0,1-.4-3.31,9.42,9.42,0,0,1,.93-3.31,9.92,9.92,0,0,1,2.25-3,10.38,10.38,0,0,1,3.64-2.15,9.92,9.92,0,0,1,4.86-.56,7.7,7.7,0,0,1,3.87,1.69l-2.12,2.88a4.83,4.83,0,0,0-2.81-1.29,5.82,5.82,0,0,0-1.42,0,7.1,7.1,0,0,0-1.36.33,5.55,5.55,0,0,0-3.47,3.31,6.28,6.28,0,0,0-.4,2.25,7.14,7.14,0,0,0,.36,2.25,6.61,6.61,0,0,0,1.16,2.12,6.11,6.11,0,0,0,1.82,1.52,6,6,0,0,0,2.28.69,5.75,5.75,0,0,0,2.54-.33,7.3,7.3,0,0,0,1.32-.66,6,6,0,0,0,1.19-1,5.39,5.39,0,0,0,.89-1.29,4,4,0,0,0,.43-1.55l3.73.4a5.59,5.59,0,0,1-.66,2.25,9.06,9.06,0,0,1-1.49,2,11.2,11.2,0,0,1-2.08,1.69,12,12,0,0,1-2.38,1.16,9.65,9.65,0,0,1-4.2.56,10.28,10.28,0,0,1-3.77-1.06,9.92,9.92,0,0,1-2.94-2.31A8.79,8.79,0,0,1,485.79,571.42Z" style="fill:#fff"/><path d="M521.45,564.28l1.36,2.91c-5.39,2.51-8.13,3.7-13.62,5.92l-7-17.42c5-2,7.54-3.11,12.49-5.42l1.36,2.91c-3.57,1.65-5.39,2.48-9,4l1.75,4.16c3.31-1.36,4.76-2,7.93-3.47l1.22,2.68c-3.31,1.45-4.79,2.18-8,3.54l1.88,4.49C515.67,567,517.62,566.1,521.45,564.28Z" style="fill:#fff"/><path d="M530.25,548h-.89a9.26,9.26,0,0,0-1.42,0,12.53,12.53,0,0,0-1.72.3,8,8,0,0,0-1.72.63,4.36,4.36,0,0,0-1.92,1.59,1.78,1.78,0,0,0,0,1.75,1.49,1.49,0,0,0,.69.73,2.51,2.51,0,0,0,1.09.2,7.57,7.57,0,0,0,1.55-.2l2-.5a26.35,26.35,0,0,1,2.81-.56,8.1,8.1,0,0,1,2.35,0,4.56,4.56,0,0,1,1.92.69,4.63,4.63,0,0,1,1.45,1.69,4.89,4.89,0,0,1,.66,2.58,5,5,0,0,1-.73,2.35,7.9,7.9,0,0,1-1.78,2,13.88,13.88,0,0,1-2.54,1.65,17.25,17.25,0,0,1-4.56,1.59,14.77,14.77,0,0,1-4.56.2c0-1.45.2-2.18.3-3.64a5.65,5.65,0,0,0,1.12,0,14.38,14.38,0,0,0,1.82,0,13.56,13.56,0,0,0,2.18-.36,10.54,10.54,0,0,0,2.25-.86c2-1,2.74-2.15,2.15-3.31a1.49,1.49,0,0,0-.83-.73,3.31,3.31,0,0,0-1.32,0,11.44,11.44,0,0,0-1.78.26l-2.25.5a19.83,19.83,0,0,1-2.68.43,6.81,6.81,0,0,1-2.08,0,3.87,3.87,0,0,1-1.59-.76,4.4,4.4,0,0,1-1.12-1.52,5.52,5.52,0,0,1-.56-2.54,5.32,5.32,0,0,1,.63-2.35,7.5,7.5,0,0,1,1.62-2,10.58,10.58,0,0,1,2.38-1.62,12.43,12.43,0,0,1,3.77-1.26,16.2,16.2,0,0,1,3.31-.2A27.36,27.36,0,0,1,530.25,548Z" style="fill:#fff"/><path d="M545.65,539.1h-.89a9.42,9.42,0,0,0-1.45,0,13,13,0,0,0-1.69.43,8.3,8.3,0,0,0-1.69.76,4.43,4.43,0,0,0-1.85,1.72,1.78,1.78,0,0,0,0,1.75,1.49,1.49,0,0,0,.76.69,2.55,2.55,0,0,0,1.12,0,7.7,7.7,0,0,0,1.55-.3l2-.63c1-.33,1.92-.56,2.78-.76a8.2,8.2,0,0,1,2.38-.23,4.23,4.23,0,0,1,3.54,2.15,4.86,4.86,0,0,1,.83,2.51,5,5,0,0,1-.59,2.41,8,8,0,0,1-1.69,2.18,14.08,14.08,0,0,1-2.45,1.85,17.52,17.52,0,0,1-4.49,1.88,14.94,14.94,0,0,1-4.59.53v-3.64a5.68,5.68,0,0,0,1.16,0,14.52,14.52,0,0,0,1.82,0,13.68,13.68,0,0,0,2.18-.5,10.71,10.71,0,0,0,2.21-1c2-1.19,2.61-2.35,1.95-3.31a1.49,1.49,0,0,0-.86-.66,3.31,3.31,0,0,0-1.32,0,11.6,11.6,0,0,0-1.78.4l-2.25.66a20.1,20.1,0,0,1-2.68.63,6.87,6.87,0,0,1-2.12,0A3.87,3.87,0,0,1,536,548a4.36,4.36,0,0,1-1.22-1.45A5.49,5.49,0,0,1,534,544a5.35,5.35,0,0,1,.5-2.38,7.6,7.6,0,0,1,1.49-2.15,10.78,10.78,0,0,1,2.28-1.78,12.66,12.66,0,0,1,3.7-1.52,16.53,16.53,0,0,1,3.31-.43A12.18,12.18,0,0,1,545.65,539.1Z" style="fill:#fff"/><path d="M307.78,611.25l3.7-11.87c-3.31,2.84-5,4.23-8.46,7l-2.35-.79c-1.09-4.3-1.59-6.41-2.51-10.71l-4.23,11.67-4.3-1.59,6.61-17.55,4.33,1.62c1,4.92,1.59,7.37,2.78,12.29,4-3.31,5.92-4.79,9.72-8.06l4.4,1.32-5.32,18Z" style="fill:#fff"/><path d="M328,597.46l3.67.93c1.49,8.1,2.35,12.13,4.23,20.23l-4.56-1c-.43-2-.63-3-1.06-5.06-3.14-.73-4.69-1.12-7.83-1.95l-3.31,4-4.53-1.26C320.17,607.08,322.85,603.91,328,597.46Zm2.12,12.39c-.53-3.31-.79-4.76-1.29-7.9-1.95,2.54-2.94,3.83-5,6.35Z" style="fill:#fff"/><path d="M345.13,608.14,342.88,620l-4.46-.89,3.77-18.38,3.31.66c3.57,5.72,5.45,8.53,9.39,14.15l1.88-12.16L361,604l-2.58,18.57-3.64-.53C350.68,616.57,348.76,613.79,345.13,608.14Z" style="fill:#fff"/><path d="M371.67,605.3l3.73.36c2.64,7.77,4.07,11.67,7.14,19.37l-4.76-.36c-.73-1.92-1.06-2.91-1.75-4.83-3.31-.26-4.79-.43-8-.76l-2.64,4.43-4.63-.56C365.42,615.94,367.57,612.4,371.67,605.3Zm3.9,11.93c-1-3-1.49-4.56-2.41-7.63-1.55,2.81-2.35,4.23-4,7Z" style="fill:#fff"/><path d="M400.46,623.51a9.72,9.72,0,0,1-6.61,2.15,11.93,11.93,0,0,1-4.3-.89,10.71,10.71,0,0,1-3.31-2.18,9.45,9.45,0,0,1-2.15-3.31,8.53,8.53,0,0,1-.63-3.83,8.23,8.23,0,0,1,1.06-3.57A9.91,9.91,0,0,1,387,609a11.5,11.5,0,0,1,3.5-1.88,13.22,13.22,0,0,1,9.52.59,8.06,8.06,0,0,1,3.31,3l-3.31,2a5.62,5.62,0,0,0-2.35-2.18,7.57,7.57,0,0,0-3.31-.79,6.61,6.61,0,0,0-2.58.43,6.08,6.08,0,0,0-2,1.29,6.35,6.35,0,0,0-1.39,2,6.61,6.61,0,0,0-.56,2.38,6,6,0,0,0,1.72,4.56,6.61,6.61,0,0,0,2.12,1.42,7.21,7.21,0,0,0,2.71.56,8.3,8.3,0,0,0,6-2.48v-1.32h-4.59v-2.68h8.16v9.65h-3.73Z" style="fill:#fff"/><path d="M424.05,621.69l.23,3.31c-6.61.46-9.68.59-16.16.69l-.33-18.77c6,0,9-.23,14.91-.66l.23,3.31c-4.3.3-6.61.4-10.77.53v4.53c3.77,0,5.68-.2,9.45-.46l.2,2.94c-3.8.23-5.72.33-9.55.46v4.89C417.08,622.12,419.36,622,424.05,621.69Z" style="fill:#fff"/><path d="M446.63,622.52l-1.75-12.29c-1.78,4-2.68,6-4.59,9.92l-2.41.3c-2.78-3.31-4.13-5.12-6.81-8.59l1.19,12.36-4.53.4-1.52-18.71,4.56-.4c3,4,4.53,6,7.7,9.92,2.18-4.56,3.31-6.84,5.26-11.44l4.49-.66,2.91,18.54Z" style="fill:#fff"/><path d="M471.12,614.75l.69,3.11c-6.35,1.42-9.52,2-15.93,3.31l-3.31-18.51c5.92-1,8.86-1.59,14.71-2.91l.69,3.11c-4.23,1-6.35,1.39-10.61,2.18l.83,4.46c3.73-.69,5.59-1.06,9.32-1.88l.63,2.88c-3.77.83-5.62,1.19-9.42,1.92l.89,4.83C464.34,616.27,466.62,615.81,471.12,614.75Z" style="fill:#fff"/><path d="M476.94,604.37,479.88,616l-4.43,1.09-4.33-18.28,3.31-.79c5.65,3.67,8.56,5.45,14.54,8.86l-3.31-11.8,4.13-1.22,5.49,17.91-3.54,1.06A151.67,151.67,0,0,1,476.94,604.37Z" style="fill:#fff"/><path d="M510.65,589.9c-2.68,1-4,1.52-6.61,2.51l5.26,14.67-4.3,1.49-5-14.74c-2.71.93-4.07,1.39-6.81,2.25l-1-3c7-2.21,10.51-3.31,17.42-6.11Z" style="fill:#fff"/><path d="M306.26,59.23a9.92,9.92,0,0,1-5.52,4.86,11.4,11.4,0,0,1-4.56.66,11.9,11.9,0,0,1-4.33-1.09A12.49,12.49,0,0,1,288.11,61a12.13,12.13,0,0,1-2.61-4.07,10.87,10.87,0,0,1-.79-4.56A11.44,11.44,0,0,1,285.83,48a12.43,12.43,0,0,1,2.71-3.83,13.88,13.88,0,0,1,10.81-3.31,9.16,9.16,0,0,1,4.86,2.35l-2.45,3.54A6.61,6.61,0,0,0,298.46,45a7.9,7.9,0,0,0-3.93.36A7,7,0,0,0,291.92,47a6.61,6.61,0,0,0-1.59,2.41,7.77,7.77,0,0,0-.5,2.88,8.63,8.63,0,0,0,.56,3A8.4,8.4,0,0,0,292,57.94a7.9,7.9,0,0,0,2.31,1.78,7.27,7.27,0,0,0,2.74.76,7,7,0,0,0,2.94-.4A8.76,8.76,0,0,0,305.1,55l-.53-1.59L299.81,55l-1.09-3.31c3.31-1.19,5.19-1.75,8.66-2.84l3.6,11.5-3.7,1.19Z" style="fill:#fff"/><path d="M324.57,56.75a11.67,11.67,0,0,1-4.89.3,12.43,12.43,0,0,1-7.77-4.49,11.67,11.67,0,0,1-2.12-4,10.91,10.91,0,0,1-.4-4.56,11.87,11.87,0,0,1,1.42-4.36A12.23,12.23,0,0,1,314,36a12.59,12.59,0,0,1,4.66-2.28,11.93,11.93,0,0,1,5.22-.26,12.16,12.16,0,0,1,4.46,1.72,12,12,0,0,1,3.31,3.31,11.2,11.2,0,0,1,1.82,4.07,11.47,11.47,0,0,1,0,4.56,12.56,12.56,0,0,1-1.59,4.23,12.29,12.29,0,0,1-3,3.31A11.8,11.8,0,0,1,324.57,56.75Zm-9.92-9.58a9,9,0,0,0,1.29,2.68,7.87,7.87,0,0,0,2,2,7,7,0,0,0,2.64,1.09,7.34,7.34,0,0,0,5.85-1.55,7.07,7.07,0,0,0,1.75-2.28,8,8,0,0,0,.76-2.78,9,9,0,0,0-.2-2.88,8.56,8.56,0,0,0-1.19-2.74,7.77,7.77,0,0,0-2-2.08,6.81,6.81,0,0,0-2.68-1.12,7.73,7.73,0,0,0-6.11,1.65A6.81,6.81,0,0,0,315,41.51a7.63,7.63,0,0,0-.66,2.81,8.69,8.69,0,0,0,.17,2.88Z" style="fill:#fff"/><path d="M336.3,29.75c4.16,6.38,6.18,9.62,9.92,16.13,1.29-7.47,2-11.17,3.6-18.64l5.35-.79c-2.64,9.92-3.8,14.81-5.85,24.72l-3.87.69c-5.45-8.53-8.33-12.72-14.34-21Z" style="fill:#fff"/><path d="M377.29,43.5l.33,4c-6.61.53-9.92.89-16.53,1.82l-3.31-23.14c7-1,10.48-1.32,17.45-1.92l.33,4c-5,.4-7.4.66-12.33,1.26l.69,5.62c4.2-.5,6.28-.73,10.48-1.09l.33,3.7c-4.16.36-6.21.59-10.34,1.09l.73,6.08C370,44.16,372.46,43.89,377.29,43.5Z" style="fill:#fff"/><path d="M381.09,47.23l-1.65-23.4c4.56-.33,6.81-.43,11.37-.59a7.7,7.7,0,0,1,3.31.59,8.1,8.1,0,0,1,4.33,4.23,7,7,0,0,1,.63,2.81A7.54,7.54,0,0,1,397.91,35a6.94,6.94,0,0,1-3.31,2.74c2.35,3.47,3.31,5.22,5.68,8.73h-5.22c-2-3.11-3.07-4.63-5.19-7.7l-4.69.23.43,7.87Zm4-12.13,6-.26a2.71,2.71,0,0,0,1.22-.33,3.3,3.3,0,0,0,1-.83,4.07,4.07,0,0,0,.63-1.22,4.46,4.46,0,0,0,.2-1.49,4,4,0,0,0-.33-1.52,3.9,3.9,0,0,0-.79-1.19,3.31,3.31,0,0,0-1.12-.76,3,3,0,0,0-1.29-.23l-6,.26Z" style="fill:#fff"/><path d="M408.55,31.5c0,6-.17,9-.26,15h-4.66V23.07h3.9c5.26,6.25,7.77,9.42,12.56,15.86l.86-15.34,5,.33L424.28,47.3l-3.77-.23C416,40.72,413.61,37.61,408.55,31.5Z" style="fill:#fff"/><path d="M438.63,25l4.4.53c2.74,9.92,4,14.71,6.15,24.52l-4.76-.69c-.56-2.45-.86-3.67-1.45-6.08-3.31-.43-5.09-.63-8.46-1-1.12,2.25-1.69,3.31-2.78,5.59L427,47.43C431.36,38.37,433.7,33.88,438.63,25Zm3.9,15c-.89-3.83-1.36-5.75-2.31-9.58-1.88,3.5-2.81,5.26-4.59,8.76Z" style="fill:#fff"/><path d="M459,36.36l-2.64,14.81-4.59-.79,3.77-23.14,3.83.66c4.23,7,6.25,10.54,9.92,17.65l3.31-15,4.92,1.09-5.32,22.81-3.7-.83C465,46.7,463.05,43.26,459,36.36Z" style="fill:#fff"/><path d="M478.49,43.76a11.24,11.24,0,0,1,1.82-3.93,11,11,0,0,1,3.31-3,12.06,12.06,0,0,1,4.53-1.59,13,13,0,0,1,5.49.46,12.33,12.33,0,0,1,5.52,3.14,9.25,9.25,0,0,1,2.58,4.69l-4.36,1.16a5.92,5.92,0,0,0-.69-2,6,6,0,0,0-1.19-1.49A7.47,7.47,0,0,0,494,40.16a8.86,8.86,0,0,0-1.65-.66,7.07,7.07,0,0,0-3.31-.23,6.84,6.84,0,0,0-2.71,1.12,7.63,7.63,0,0,0-2,2.08A8.89,8.89,0,0,0,483.18,45a8.69,8.69,0,0,0-.26,3,8.06,8.06,0,0,0,.79,2.81,7.47,7.47,0,0,0,1.75,2.28,6.61,6.61,0,0,0,2.61,1.42,8.13,8.13,0,0,0,1.72.3,6.87,6.87,0,0,0,1.82,0,6.61,6.61,0,0,0,1.75-.63A5.19,5.19,0,0,0,494.91,53L498,56.35a7.2,7.2,0,0,1-2.31,1.72,11.11,11.11,0,0,1-2.84.89,13.22,13.22,0,0,1-3.07.17,13.52,13.52,0,0,1-3-.5,10.91,10.91,0,0,1-4.26-2.28,12.92,12.92,0,0,1-2.88-3.6,13.22,13.22,0,0,1-1.42-4.36A11.63,11.63,0,0,1,478.49,43.76Z" style="fill:#fff"/><path d="M516.76,64.25,515.27,68c-6.28-2.48-9.45-3.64-15.83-5.78l7.44-22.28C513.49,42.17,517,43.23,523.6,46l-1.45,3.73c-4.69-1.85-7-2.74-11.8-4.4l-1.88,5.32c4,1.42,6,2.15,9.92,3.7L517,57.67c-3.93-1.52-5.92-2.28-9.92-3.67l-2,5.78C510,61.57,512.2,62.43,516.76,64.25Z" style="fill:#fff"/><polygon points="125.93 307.54 129.87 295.81 148.77 295.31 150.03 315.04 124.21 312.96 125.93 307.54" style="fill:#d6d6d6"/><rect x="96.22" y="226.5" width="89.67" height="73.27" rx="5.29" ry="5.29" style="fill:#fff"/><rect x="103" y="233.77" width="76.45" height="47.06" rx="4.56" ry="4.56" style="fill:#5b9bd5"/><rect x="107.66" y="237.64" width="61.57" height="5.45" rx="2.41" ry="2.41" style="fill:#fff"/><rect x="146.92" y="249.14" width="22.31" height="5.45" rx="2.41" ry="2.41" style="fill:#fff"/><rect x="107.66" y="249.14" width="33.38" height="27.96" rx="4.33" ry="4.33" style="fill:#fff"/><rect x="113.08" y="310.65" width="44.98" height="5.75" rx="2.51" ry="2.51" style="fill:#fff"/><rect x="146.92" y="260.61" width="44.62" height="61.24" rx="4.66" ry="4.66" style="fill:#fff"/><rect x="152.64" y="270.85" width="33.28" height="39.79" style="fill:#5b9bd5"/><path d="M180,284.24l-.76-.76a2.15,2.15,0,0,0-3,0l-9.72,9.72-4-4a2.15,2.15,0,0,0-3,0l-.76.76a2.15,2.15,0,0,0,0,3l5.85,5.85h0l.43.43a2.15,2.15,0,0,0,3,0l12-12A2.19,2.19,0,0,0,180,284.24Z" style="fill:#fff"/><rect x="624.11" y="229.54" width="80.71" height="51.59" style="fill:#5b9bd5"/><path d="M681.85,245.67a1.62,1.62,0,0,0-.53-.5,31.86,31.86,0,0,1-15.67-8,1.85,1.85,0,0,0-1.49-.73,2.68,2.68,0,0,0-1.65.93,33.58,33.58,0,0,1-15.37,7.73,1.32,1.32,0,0,0-.5.3,1.69,1.69,0,0,0-.43,1.42,29.75,29.75,0,0,0,6.38,18.57,27.2,27.2,0,0,0,11.57,8.73,24.82,24.82,0,0,0,6.18-3.31,25.22,25.22,0,0,0,7.54-8.53,35.66,35.66,0,0,0,4.2-15.83A1.65,1.65,0,0,0,681.85,245.67Zm-15.1,9.92v5.52a2.25,2.25,0,0,1-2.25,2.25h-.26A2.25,2.25,0,0,1,662,261.1v-5.32a4.56,4.56,0,1,1,4.79,0Z" style="fill:#fff"/><path d="M709.95,229.84a12.33,12.33,0,0,0-1-4.4c-1.49-2.64-5.62-2.91-6.21-2.91H625.86a7.17,7.17,0,0,0-5.09,1.95,8.3,8.3,0,0,0-2,4.53,11.37,11.37,0,0,0-.2,2.51v54.3h31.17a5.35,5.35,0,0,1,1.72.53,5.52,5.52,0,0,1,1.95,1.72H673a5.52,5.52,0,0,1,2-1.72,5.35,5.35,0,0,1,1.72-.53H710V231.36Q710,230.6,709.95,229.84Zm-7.24,49.28H625.86V231.36h76.84Z" style="fill:#fff"/><path d="M717,292.24v-1.85a2,2,0,0,0-2-2H676.76a2.28,2.28,0,0,0-2.25,2.31h0v1.78a1.92,1.92,0,0,1-1.92,1.92h-19a1.92,1.92,0,0,1-1.92-1.92h0v-1.65s0-1.85-1.49-2.31H613.83a2,2,0,0,0-2,2h0v1.82a7.63,7.63,0,0,0,8.33,8.13H710a7.73,7.73,0,0,0,4.92-2.31A7.83,7.83,0,0,0,717,292.24Z" style="fill:#fff"/><rect x="397.05" y="702.14" width="20.43" height="14.21" rx="1.59" ry="1.59" style="fill:#5b9bd5"/><polygon points="438.4 694.8 416.22 680.42 394.9 701.44 394.9 709.24 438.4 709.24 438.4 694.8" style="fill:#5b9bd5"/><path d="M461.8,666.71a17.19,17.19,0,0,0-15.63-14,18.08,18.08,0,0,0-16.53,7.63A19.17,19.17,0,0,0,427,673.75l-27,26.71v12.2a1.29,1.29,0,0,0,1.36,1.22H413s2,0,2-1.85v-4.1s0-1.39,1.72-1.39h4.63s1.72.2,1.88-2v-4.46a1.45,1.45,0,0,1,1.31-1.58h5a2,2,0,0,0,2.15-2.28v-4a1.55,1.55,0,0,1,1.55-1.52h4l3.73-3.83a21.42,21.42,0,0,0,8.3,0A17.88,17.88,0,0,0,461.8,666.71Zm-56.19,37.55L404,702.5l23.57-23.14,1.72,1.75Zm44.88-36.62a3.31,3.31,0,1,1,.17,0Z" style="fill:#fff"/><path d="M422.73,709.21h17.58a2.54,2.54,0,0,0,2.94-2.88v-6.28a3.87,3.87,0,0,0-.93-1.85l-5.06-4.53h-2.61V697s-.63,4.53-4.66,4.49h-3.93v4S425.38,708.95,422.73,709.21Z" style="fill:#fff"/><path d="M396.82,709.21H369.09s-2.91-.2-2.91-2.54v-7s0-.59,1.45-2a86.82,86.82,0,0,1,22.67-14.15,11.11,11.11,0,0,0,4.46-10.44s-2.91-1.26-4.1-7c0,0-4.36-4.89-3.31-7.57a3.64,3.64,0,0,1,2.58-3.31,3.31,3.31,0,0,1-.26-2.71,11.4,11.4,0,0,1-.59-11.53,17.22,17.22,0,0,1,16.53-7.9,18.21,18.21,0,0,1,7.37,2.35,9.92,9.92,0,0,1,8.39,6.61s2.81,8.33-.93,13.22c0,0,3.31,2,.59,7.07a11.57,11.57,0,0,1-2.31,3.64,13.22,13.22,0,0,1-3.77,7.17,12.16,12.16,0,0,0,.36,5.78,3.31,3.31,0,0,0,.93,1.29L398,698a4.3,4.3,0,0,0-.93,3.31Z" style="fill:#fff"/><rect x="358.61" y="720.61" width="94.16" height="19.67" rx="9.82" ry="9.82" style="fill:#5b9bd5"/><path d="M442.66,716.28h-74a14.15,14.15,0,0,0,0,28.29h74a14.15,14.15,0,0,0,0-28.29Zm-84.08,14.15a10.15,10.15,0,0,1,10.11-10.11h55.59v20.23H368.69A10.15,10.15,0,0,1,358.58,730.43Zm84.08,10.11H428.32V720.31h14.34a10.11,10.11,0,0,1,0,20.23Z" style="fill:#fff"/><path d="M441.41,724.38a2,2,0,0,0-3.07,2.58l1.22,1.45h-4a2,2,0,0,0,0,4h4l-1.22,1.45a2,2,0,1,0,3.07,2.58l4-4.79a2,2,0,0,0,0-2.58Z" style="fill:#fff"/><path d="M375.24,726.4a2,2,0,0,0-2.84,0l-1.19,1.19L370,726.4a2,2,0,0,0-2.84,2.84l1.19,1.19-1.19,1.19a2,2,0,0,0,2.84,2.84l1.19-1.19,1.19,1.19a2,2,0,0,0,2.84-2.84L374,730.43l1.19-1.19A2,2,0,0,0,375.24,726.4Z" style="fill:#fff"/><path d="M389.78,726.4a2,2,0,0,0-2.84,0l-1.19,1.19-1.19-1.19a2,2,0,0,0-2.84,2.84l1.19,1.19-1.19,1.19a2,2,0,0,0,2.84,2.84l1.19-1.19,1.19,1.19a2,2,0,0,0,2.84-2.84l-1.19-1.19,1.19-1.19A2,2,0,0,0,389.78,726.4Z" style="fill:#fff"/><path d="M404.22,726.4a2,2,0,0,0-2.84,0l-1.19,1.19L399,726.4a2,2,0,0,0-2.84,2.84l1.19,1.19-1.19,1.19a2,2,0,0,0,2.84,2.84l1.19-1.19,1.19,1.19a2,2,0,0,0,2.84-2.84L403,730.43l1.19-1.19A2,2,0,0,0,404.22,726.4Z" style="fill:#fff"/><path d="M417.71,730.43l1.19-1.19a2,2,0,0,0-2.84-2.84l-1.19,1.19-1.19-1.19a2,2,0,0,0-2.84,2.84l1.19,1.19-1.19,1.19a2,2,0,0,0,2.84,2.84l1.19-1.19,1.19,1.19a2,2,0,0,0,2.84-2.84Z" style="fill:#fff"/><path d="M346.25,401.07V375.26s6.81-5.52,24.66-5.52a44.65,44.65,0,0,1,25.48,7.63l.93.56s6.61-1.78,24.13,3c0,0,7.14.73,7.47,7a8.49,8.49,0,0,1-5.62,7.14l-30-1.22s3.31,4.26,13.68,5.35c0,0,18.28.46,23.14-3.57,0,0,8-7,10.11-6.91a9.92,9.92,0,0,1,7.93.79,4.26,4.26,0,0,1,0,6.91s4.46,0,.69,5.75l-16.06,11.63-2.74,1.52a80.38,80.38,0,0,1-8.36,1.78c-4.83.76-16.53,3.07-16.53,3.07s-13.65,2.08-17.88-1l-22.51-10.68-9.06-4a13.52,13.52,0,0,0-5.35-1.49A4.73,4.73,0,0,1,346.25,401.07Z" style="fill:#fff"/><path d="M452.64,339.57l-9.19-1.29a6.61,6.61,0,0,0-1.26-5.35l7.37-6.44-5.35-8.26-8.16,3.31s-3.31-4-4.83-4.26l3.8-8.39-8.49-5.35-5.78,7.17s-4.36-1.78-5.85-1.26l-2.12-8.92h-9.19L402,309a30.51,30.51,0,0,0-5.85,1.78l-5.75-7-9.29,5,3.93,8.49a10.71,10.71,0,0,0-4.59,4L372,318,367,326.51l7.24,5.85a22.84,22.84,0,0,0-1.95,6.21l-9.32,1.12v9.92l8.76,1.32s1.78,5,2.31,5.75l-7.14,6.08,2.54,4.66a43.43,43.43,0,0,1,27.27,7.14s31.43,1.39,33.58,9.35l4.59-2.61-3.31-9.06a24.53,24.53,0,0,0,4.46-3.67l7.8,3.8,5.52-8.92L442,356.55a6.61,6.61,0,0,0,1.62-5.82h8.92Zm-44.09,25.71A20.56,20.56,0,1,1,429,344.66h0a20.56,20.56,0,0,1-20.49,20.62Z" style="fill:#fff"/></g></g><circle cx="407.85" cy="408.85" r="407.85" style="fill:#e8e8e8;opacity:0.59"/><circle cx="403.24" cy="405.54" r="139.14" style="fill:#f16a21;stroke:#203864;stroke-miterlimit:10;stroke-width:7px"/><g style="isolation:isolate"><text transform="translate(334.13 449.67)" style="isolation:isolate;font-size:26.440839767456055px;fill:#09234c;font-family:Raleway-Bold, Raleway;font-weight:700">I</text><text transform="translate(341.7 449.67)" style="isolation:isolate;font-size:26.440839767456055px;fill:#09234c;font-family:Raleway-Bold, Raleway;font-weight:700;letter-spacing:-0.056010211637559em">T</text><text transform="translate(357.33 449.67)" style="isolation:isolate;font-size:26.440839767456055px;fill:#09234c;font-family:Raleway-Bold, Raleway;font-weight:700"><tspan xml:space="preserve"> SE</tspan></text><text transform="translate(395.77 449.67)" style="isolation:isolate;font-size:26.440839767456055px;fill:#09234c;font-family:Raleway-Bold, Raleway;font-weight:700;letter-spacing:-0.015992365076863205em">R</text><text transform="translate(412.89 449.67)" style="isolation:isolate;font-size:26.440839767456055px;fill:#09234c;font-family:Raleway-Bold, Raleway;font-weight:700">VICE</text><text transform="translate(309.47 481.4)" style="isolation:isolate;font-size:26.440839767456055px;fill:#09234c;font-family:Raleway-Bold, Raleway;font-weight:700">MAN</text><text transform="translate(370.29 481.4)" style="isolation:isolate;font-size:26.440839767456055px;fill:#09234c;font-family:Raleway-Bold, Raleway;font-weight:700;letter-spacing:-0.05698895915381045em">A</text><text transform="translate(387.37 481.4)" style="isolation:isolate;font-size:26.440839767456055px;fill:#09234c;font-family:Raleway-Bold, Raleway;font-weight:700">GEMEN</text><text transform="translate(481.37 481.4)" style="isolation:isolate;font-size:26.440839767456055px;fill:#09234c;font-family:Raleway-Bold, Raleway;font-weight:700;letter-spacing:-0.05499453025276977em">T</text></g><path d="M347.25,402.07V376.26s6.81-5.52,24.66-5.52a44.65,44.65,0,0,1,25.48,7.63l.93.56s6.61-1.78,24.13,3c0,0,7.14.73,7.47,7a8.49,8.49,0,0,1-5.62,7.14l-30-1.22s3.31,4.26,13.68,5.35c0,0,18.28.46,23.14-3.57,0,0,8-7,10.11-6.91a9.92,9.92,0,0,1,7.93.79,4.26,4.26,0,0,1,0,6.91s4.46,0,.69,5.75l-16.06,11.63-2.74,1.52a80.38,80.38,0,0,1-8.36,1.78c-4.83.76-16.53,3.07-16.53,3.07s-13.65,2.08-17.88-1l-22.51-10.68-9.06-4a13.52,13.52,0,0,0-5.35-1.49A4.73,4.73,0,0,1,347.25,402.07Z" style="fill:#fff"/><path d="M453.64,340.57l-9.19-1.29a6.61,6.61,0,0,0-1.26-5.35l7.37-6.44-5.35-8.26-8.16,3.31s-3.31-4-4.83-4.26l3.8-8.39-8.49-5.35-5.78,7.17s-4.36-1.78-5.85-1.26l-2.12-8.92h-9.19L403,310a30.51,30.51,0,0,0-5.85,1.78l-5.75-7-9.29,5,3.93,8.49a10.71,10.71,0,0,0-4.59,4L373,319,368,327.51l7.24,5.85a22.84,22.84,0,0,0-1.95,6.21l-9.32,1.12v9.92l8.76,1.32s1.78,5,2.31,5.75l-7.14,6.08,2.54,4.66a43.43,43.43,0,0,1,27.27,7.14s31.43,1.39,33.58,9.35l4.59-2.61-3.31-9.06a24.53,24.53,0,0,0,4.46-3.67l7.8,3.8,5.52-8.92L443,357.55a6.61,6.61,0,0,0,1.62-5.82h8.92Zm-44.09,25.71A20.56,20.56,0,1,1,430,345.66h0a20.56,20.56,0,0,1-20.49,20.62Z" style="fill:#fff"/></g></g></svg>