<svg xmlns="http://www.w3.org/2000/svg" xmlns:xlink="http://www.w3.org/1999/xlink" viewBox="0 0 486 154.85"><defs><linearGradient id="Degradado_sin_nombre_17" x1="254.16" y1="154.75" x2="254.16" y2="84.9" gradientUnits="userSpaceOnUse"><stop offset="0" stop-color="#a550ff" stop-opacity="0"/><stop offset="0.11" stop-color="#a253ff" stop-opacity="0.02"/><stop offset="0.24" stop-color="#995cff" stop-opacity="0.07"/><stop offset="0.37" stop-color="#8b6cff" stop-opacity="0.16"/><stop offset="0.5" stop-color="#7781ff" stop-opacity="0.28"/><stop offset="0.64" stop-color="#5d9dff" stop-opacity="0.44"/><stop offset="0.78" stop-color="#3dbeff" stop-opacity="0.63"/><stop offset="0.92" stop-color="#18e6ff" stop-opacity="0.85"/><stop offset="1" stop-color="aqua"/></linearGradient><linearGradient id="Degradado_sin_nombre_16" x1="254.16" y1="154.75" x2="254.16" y2="52.78" gradientUnits="userSpaceOnUse"><stop offset="0" stop-color="#a550ff" stop-opacity="0"/><stop offset="0.11" stop-color="#a750fd" stop-opacity="0.02"/><stop offset="0.24" stop-color="#ab51f7" stop-opacity="0.07"/><stop offset="0.37" stop-color="#b351ed" stop-opacity="0.16"/><stop offset="0.51" stop-color="#bd52e0" stop-opacity="0.29"/><stop offset="0.65" stop-color="#cb54ce" stop-opacity="0.45"/><stop offset="0.79" stop-color="#db55b9" stop-opacity="0.65"/><stop offset="0.93" stop-color="#ee57a0" stop-opacity="0.87"/><stop offset="1" stop-color="#f95892"/></linearGradient><linearGradient id="Degradado_sin_nombre_14" x1="254.16" y1="154.75" x2="254.16" y2="34.46" gradientUnits="userSpaceOnUse"><stop offset="0" stop-color="#a550ff" stop-opacity="0"/><stop offset="0.23" stop-color="#a550ff" stop-opacity="0.01"/><stop offset="0.36" stop-color="#a550ff" stop-opacity="0.04"/><stop offset="0.48" stop-color="#a550ff" stop-opacity="0.1"/><stop offset="0.58" stop-color="#a550ff" stop-opacity="0.18"/><stop offset="0.67" stop-color="#a550ff" stop-opacity="0.28"/><stop offset="0.75" stop-color="#a550ff" stop-opacity="0.41"/><stop offset="0.83" stop-color="#a550ff" stop-opacity="0.56"/><stop offset="0.91" stop-color="#a550ff" stop-opacity="0.73"/><stop offset="0.98" stop-color="#a550ff" stop-opacity="0.92"/><stop offset="1" stop-color="#a550ff"/></linearGradient></defs><title>Asset 2</title><g id="Layer_2" data-name="Layer 2"><g id="OBJECTS"><line y1="154.75" x2="486" y2="154.75" style="fill:none;stroke:#9891a8;stroke-miterlimit:10;stroke-width:0.190971px"/><line y1="146.16" x2="486" y2="146.16" style="fill:none;stroke:#9891a8;stroke-miterlimit:10;stroke-width:0.190971px"/><line y1="137.57" x2="486" y2="137.57" style="fill:none;stroke:#9891a8;stroke-miterlimit:10;stroke-width:0.190971px"/><line y1="128.98" x2="486" y2="128.98" style="fill:none;stroke:#9891a8;stroke-miterlimit:10;stroke-width:0.190971px"/><line y1="120.39" x2="486" y2="120.39" style="fill:none;stroke:#9891a8;stroke-miterlimit:10;stroke-width:0.190971px"/><line y1="111.79" x2="486" y2="111.79" style="fill:none;stroke:#9891a8;stroke-miterlimit:10;stroke-width:0.190971px"/><line y1="103.2" x2="486" y2="103.2" style="fill:none;stroke:#9891a8;stroke-miterlimit:10;stroke-width:0.190971px"/><line y1="94.61" x2="486" y2="94.61" style="fill:none;stroke:#9891a8;stroke-miterlimit:10;stroke-width:0.190971px"/><line y1="86.02" x2="486" y2="86.02" style="fill:none;stroke:#9891a8;stroke-miterlimit:10;stroke-width:0.190971px"/><line y1="77.43" x2="486" y2="77.43" style="fill:none;stroke:#9891a8;stroke-miterlimit:10;stroke-width:0.190971px"/><line y1="68.83" x2="486" y2="68.83" style="fill:none;stroke:#9891a8;stroke-miterlimit:10;stroke-width:0.190971px"/><line y1="60.24" x2="486" y2="60.24" style="fill:none;stroke:#9891a8;stroke-miterlimit:10;stroke-width:0.190971px"/><line y1="51.65" x2="486" y2="51.65" style="fill:none;stroke:#9891a8;stroke-miterlimit:10;stroke-width:0.190971px"/><line y1="43.06" x2="486" y2="43.06" style="fill:none;stroke:#9891a8;stroke-miterlimit:10;stroke-width:0.190971px"/><line y1="34.46" x2="486" y2="34.46" style="fill:none;stroke:#9891a8;stroke-miterlimit:10;stroke-width:0.190971px"/><line y1="25.87" x2="486" y2="25.87" style="fill:none;stroke:#9891a8;stroke-miterlimit:10;stroke-width:0.190971px"/><line y1="17.28" x2="486" y2="17.28" style="fill:none;stroke:#9891a8;stroke-miterlimit:10;stroke-width:0.190971px"/><line y1="8.69" x2="486" y2="8.69" style="fill:none;stroke:#9891a8;stroke-miterlimit:10;stroke-width:0.190971px"/><line y1="0.1" x2="486" y2="0.1" style="fill:none;stroke:#9891a8;stroke-miterlimit:10;stroke-width:0.190971px"/><path d="M32.61,111.79c24-4.94,48-17.55,73.28-17.55S155.6,103,180.45,103s57-18.12,76.71-18.12S303,102.17,322.3,102.17s51.42-15.85,70.28-15.85,42.43,16.14,83.14,16.14v52.3H32.61Z" style="opacity:0.4;fill:url(#Degradado_sin_nombre_17)"/><path d="M32.61,68.83c35.14,0,38.14,43,74.57,43s52.71-17.18,76.28-17.18,41.14,17.18,70.71,17.18c43.28,0,40.71-59,76.28-59,28.71,0,36,24.64,67.28,24.64s48-17.18,78-17.18v94.51H32.61Z" style="opacity:0.4;fill:url(#Degradado_sin_nombre_16)"/><path d="M32.61,34.46c23.78,0,29.57,43,74.57,43s47.57-17.18,77.14-17.18,44.07,34.37,73.28,34.37,41.64-25.78,76.49-25.78,43.07,25.78,63,25.78,45.42-60.15,78.64-60.15V154.75H32.61Z" style="opacity:0.4;fill:url(#Degradado_sin_nombre_14)"/><path d="M32.61,111.79c24-4.94,48-17.55,73.28-17.55S155.6,103,180.45,103s57-18.12,76.71-18.12S303,102.17,322.3,102.17s51.42-15.85,70.28-15.85,42.43,16.14,83.14,16.14" style="fill:none;stroke:aqua;stroke-linecap:round;stroke-miterlimit:10"/><path d="M32.61,68.83c35.14,0,38.14,43,74.57,43s52.71-17.18,76.28-17.18,41.14,17.18,70.71,17.18c43.28,0,40.71-59,76.28-59,28.71,0,36,24.64,67.28,24.64s48-17.18,78-17.18" style="fill:none;stroke:#f95892;stroke-linecap:round;stroke-miterlimit:10"/><path d="M32.61,34.46c23.78,0,29.57,43,74.57,43s47.57-17.18,77.14-17.18,44.07,34.37,73.28,34.37,41.64-25.78,76.49-25.78,43.07,25.78,63,25.78,45.42-60.15,78.64-60.15" style="fill:none;stroke:#a550ff;stroke-linecap:round;stroke-miterlimit:10"/></g></g></svg>