<svg xmlns="http://www.w3.org/2000/svg" xmlns:xlink="http://www.w3.org/1999/xlink" viewBox="0 0 93.04 93.13"><defs><style>.cls-1{fill:none;}.cls-2{isolation:isolate;}.cls-3{opacity:0.3;}.cls-3,.cls-6,.cls-7{mix-blend-mode:multiply;}.cls-4,.cls-6{fill:url(#radial-gradient);}.cls-5{fill:url(#linear-gradient);}.cls-7{fill:#565656;}.cls-7,.cls-80{opacity:0.5;}.cls-106,.cls-11,.cls-30,.cls-8{fill:#fff;}.cls-31,.cls-8{opacity:0.2;}.cls-9{fill:url(#linear-gradient-2);}.cls-10{fill:#00ead3;}.cls-12{fill:url(#linear-gradient-3);}.cls-13{fill:url(#linear-gradient-4);}.cls-14{fill:url(#linear-gradient-5);}.cls-15{fill:url(#linear-gradient-6);}.cls-16{fill:url(#linear-gradient-7);}.cls-17{fill:url(#linear-gradient-8);}.cls-18{fill:url(#linear-gradient-9);}.cls-19{fill:url(#linear-gradient-10);}.cls-20{fill:url(#linear-gradient-11);}.cls-21{fill:url(#linear-gradient-12);}.cls-22{fill:url(#linear-gradient-13);}.cls-23{fill:url(#linear-gradient-14);}.cls-24{fill:url(#linear-gradient-15);}.cls-25{fill:url(#linear-gradient-16);}.cls-26{fill:url(#linear-gradient-17);}.cls-27{fill:url(#linear-gradient-18);}.cls-28{fill:url(#linear-gradient-19);}.cls-29{fill:url(#linear-gradient-20);}.cls-30{opacity:0.1;}.cls-32{fill:#c0efee;}.cls-33{opacity:0.25;}.cls-34{clip-path:url(#clip-path);}.cls-35{fill:#075a83;}.cls-36{clip-path:url(#clip-path-2);}.cls-37{clip-path:url(#clip-path-3);}.cls-38{fill:#557576;}.cls-39{fill:#597a7b;}.cls-40{fill:#5c7e7f;}.cls-41{fill:#5f8384;}.cls-42{fill:#628788;}.cls-43{fill:#668b8d;}.cls-44{fill:#699091;}.cls-45{fill:#6c9596;}.cls-46{fill:#70999a;}.cls-47{fill:#739d9f;}.cls-48{fill:#76a2a3;}.cls-49{clip-path:url(#clip-path-4);}.cls-50{clip-path:url(#clip-path-5);}.cls-51{fill:#086592;}.cls-52{fill:#086897;}.cls-53{fill:#086c9c;}.cls-54{fill:#086fa1;}.cls-55{fill:#0973a6;}.cls-56{fill:#0976ab;}.cls-57{fill:#097ab0;}.cls-58{fill:#097db5;}.cls-59{clip-path:url(#clip-path-6);}.cls-60{fill:#587879;}.cls-61{clip-path:url(#clip-path-7);}.cls-62{fill:#07618d;}.cls-63{fill:#7faeb0;}.cls-64{clip-path:url(#clip-path-8);}.cls-65{fill:#0b718e;}.cls-66{fill:#0a6d89;}.cls-67{fill:#0a6984;}.cls-68{clip-path:url(#clip-path-9);}.cls-69{fill:#0b7593;}.cls-70{fill:#0b7998;}.cls-71{fill:#0c7d9d;}.cls-72{fill:#0c81a3;}.cls-73{fill:#0d85a8;}.cls-74{fill:#0d89ad;}.cls-75{fill:#0d8db2;}.cls-76{fill:#0e91b7;}.cls-77{fill:#10aedb;}.cls-78{fill:#0daefc;}.cls-79{fill:#8dc2c3;}.cls-80{mix-blend-mode:screen;}.cls-81{fill:#6e6e6e;}.cls-82{fill:#260c08;}.cls-83{fill:#73c4ff;}.cls-84{fill:#3d2c2b;}.cls-85{fill:#82a9b8;}.cls-86{fill:#241a19;}.cls-87{fill:#111b24;}.cls-88{fill:#202a33;}.cls-89{fill:#000912;}.cls-90{fill:#2a4359;}.cls-91{fill:#d6f4ff;}.cls-92{fill:#949494;}.cls-93{fill:#adadad;}.cls-94{fill:#7294a1;}.cls-95{fill:#210e00;}.cls-96{fill:#5e5e5e;}.cls-97{fill:#575757;}.cls-98{fill:#fff373;}.cls-99{fill:#00334c;}.cls-100{fill:#1f4957;}.cls-101{fill:#074361;}.cls-102{fill:#09567d;}.cls-103{fill:#ffe66e;}.cls-104{fill:#302f29;}.cls-105{fill:#45433b;}.cls-106{opacity:0.41;}</style><radialGradient id="radial-gradient" cx="61.51" cy="90.76" r="99.75" gradientTransform="translate(0.18) scale(0.7 1)" gradientUnits="userSpaceOnUse"><stop offset="0" stop-color="#5a25b5"/><stop offset="0.62" stop-color="#3c23b4"/><stop offset="1" stop-color="#a62ab6"/></radialGradient><linearGradient id="linear-gradient" x1="6.63" y1="61.7" x2="73.55" y2="48.97" gradientUnits="userSpaceOnUse"><stop offset="0" stop-color="#2827b6"/><stop offset="0.44" stop-color="#226bb5"/><stop offset="1" stop-color="#209eb4"/></linearGradient><linearGradient id="linear-gradient-2" x1="72.9" y1="57.26" x2="79.06" y2="55.71" xlink:href="#linear-gradient"/><linearGradient id="linear-gradient-3" x1="66.74" y1="55.06" x2="72.58" y2="53.96" xlink:href="#linear-gradient"/><linearGradient id="linear-gradient-4" x1="75.65" y1="51.96" x2="67.08" y2="59.83" xlink:href="#linear-gradient"/><linearGradient id="linear-gradient-5" x1="16.82" y1="25.64" x2="4.2" y2="32.81" xlink:href="#linear-gradient"/><linearGradient id="linear-gradient-6" x1="8.06" y1="33.69" x2="12.46" y2="32.59" xlink:href="#linear-gradient"/><linearGradient id="linear-gradient-7" x1="8.13" y1="33.94" x2="16.35" y2="31.88" xlink:href="#linear-gradient"/><linearGradient id="linear-gradient-8" x1="8.18" y1="34.3" x2="19.32" y2="31.5" xlink:href="#linear-gradient"/><linearGradient id="linear-gradient-9" x1="8.06" y1="36.81" x2="12.46" y2="35.7" xlink:href="#linear-gradient"/><linearGradient id="linear-gradient-10" x1="8.13" y1="37.06" x2="16.35" y2="35" xlink:href="#linear-gradient"/><linearGradient id="linear-gradient-11" x1="8.18" y1="37.42" x2="19.32" y2="34.62" xlink:href="#linear-gradient"/><linearGradient id="linear-gradient-12" x1="8.06" y1="39.93" x2="12.46" y2="38.82" xlink:href="#linear-gradient"/><linearGradient id="linear-gradient-13" x1="8.13" y1="40.18" x2="16.35" y2="38.11" xlink:href="#linear-gradient"/><linearGradient id="linear-gradient-14" x1="8.18" y1="40.53" x2="19.32" y2="37.74" xlink:href="#linear-gradient"/><linearGradient id="linear-gradient-15" x1="8.06" y1="43.04" x2="12.46" y2="41.94" xlink:href="#linear-gradient"/><linearGradient id="linear-gradient-16" x1="8.13" y1="43.29" x2="16.35" y2="41.23" xlink:href="#linear-gradient"/><linearGradient id="linear-gradient-17" x1="8.18" y1="43.65" x2="19.32" y2="40.85" xlink:href="#linear-gradient"/><linearGradient id="linear-gradient-18" x1="8.06" y1="46.16" x2="12.46" y2="45.05" xlink:href="#linear-gradient"/><linearGradient id="linear-gradient-19" x1="8.13" y1="46.41" x2="16.35" y2="44.34" xlink:href="#linear-gradient"/><linearGradient id="linear-gradient-20" x1="8.18" y1="46.77" x2="19.32" y2="43.97" xlink:href="#linear-gradient"/><clipPath id="clip-path"><path class="cls-1" d="M37.49,43.52h0V41.7h0Z"/></clipPath><clipPath id="clip-path-2"><path class="cls-1" d="M37.61,43.57l-.12-.05V41.71l.12.05Q37.61,42.67,37.61,43.57Z"/></clipPath><clipPath id="clip-path-3"><path class="cls-1" d="M51.06,47.51v1.81c0-1.55-1-3.1-3.07-4.29a16.4,16.4,0,0,0-14.91,0C31,46.23,30,47.81,30,49.38V47.57c0-1.57,1-3.15,3.11-4.35a16.4,16.4,0,0,1,14.91,0C50,44.41,51.06,46,51.06,47.51Z"/></clipPath><clipPath id="clip-path-4"><path class="cls-1" d="M37.61,43.57q0-.9,0-1.81a10.29,10.29,0,0,1,1,.52c2.37,1.37,3.55,3.17,3.55,5v1.81c0-1.8-1.19-3.6-3.55-5A10.32,10.32,0,0,0,37.61,43.57Z"/></clipPath><clipPath id="clip-path-5"><path class="cls-1" d="M51.07,49.31c0,1.57-1,3.14-3.09,4.35V51.85c2.07-1.2,3.1-2.78,3.09-4.35C51.06,48,51.06,48.77,51.07,49.31Z"/></clipPath><clipPath id="clip-path-6"><path class="cls-1" d="M48,53.65h0c0-.61,0-1.21,0-1.82Z"/></clipPath><clipPath id="clip-path-7"><path class="cls-1" d="M48,53.67A16.58,16.58,0,0,1,36.55,55V53.21a16.58,16.58,0,0,0,11.4-1.35h0C48,52.45,48,53.06,48,53.67Z"/></clipPath><clipPath id="clip-path-8"><path class="cls-1" d="M33,53.67C31,52.48,30,50.94,30,49.39V47.58c0,1.55,1,3.1,3.06,4.28a12.77,12.77,0,0,0,3.5,1.35V55A12.77,12.77,0,0,1,33,53.67Z"/></clipPath><clipPath id="clip-path-9"><path class="cls-1" d="M38.59,54.1a12.44,12.44,0,0,1-2,.91V53.21a12.43,12.43,0,0,0,2-.91c2.41-1.39,3.62-3.23,3.61-5.05V49C42.21,50.88,41,52.71,38.59,54.1Z"/></clipPath></defs><title>Asset 1</title><g class="cls-2"><g id="Layer_2" data-name="Layer 2"><g id="Object"><g class="cls-3"><path d="M48.73,20.44a4,4,0,0,0-4.69,0L1,54.25a2.23,2.23,0,0,0,0,3.69L44.31,91.75a4,4,0,0,0,4.71,0L92.08,57.92a2.22,2.22,0,0,0,0-3.67Z"/></g><path class="cls-4" d="M.55,54.6a2.17,2.17,0,0,0,.22.95v0a2.57,2.57,0,0,0,.67.84L41.93,89.73a3.19,3.19,0,0,0,1,.53l.13,0a3.67,3.67,0,0,0,1.08.17h0a3.69,3.69,0,0,0,1.13-.19l0,0a3.24,3.24,0,0,0,1-.56L86.53,56.39a2.34,2.34,0,0,0,.9-1.8l-.16,2.66a2.34,2.34,0,0,1-.9,1.8L46.17,92.37a3.13,3.13,0,0,1-.48.33l-.38.18-.14,0,0,0L45,93l-.31.07-.3,0-.3,0h-.31l-.34,0L43,93,42.87,93l-.13,0-.26-.09a3.14,3.14,0,0,1-.71-.44L1.3,59.07,1.19,59a2.67,2.67,0,0,1-.36-.4,2.39,2.39,0,0,1-.18-.29l0-.06v0L.53,58a2.17,2.17,0,0,1-.08-.25,2.12,2.12,0,0,1-.06-.5v0Z"/><path class="cls-5" d="M46,19.46a3.57,3.57,0,0,0-4.38,0L1.46,52.78a2.26,2.26,0,0,0,0,3.63L41.93,89.73a3.58,3.58,0,0,0,4.4,0L86.53,56.39a2.26,2.26,0,0,0,0-3.61Z"/><path class="cls-6" d="M.55,54.6a2.17,2.17,0,0,0,.22.95v0a2.57,2.57,0,0,0,.67.84L41.93,89.73a3.19,3.19,0,0,0,1,.53l.13,0a3.67,3.67,0,0,0,1.08.17h0a3.69,3.69,0,0,0,1.13-.19l0,0a3.24,3.24,0,0,0,1-.56L86.53,56.39a2.34,2.34,0,0,0,.9-1.8l-.16,2.66a2.34,2.34,0,0,1-.9,1.8L46.17,92.37a3.13,3.13,0,0,1-.48.33l-.38.18-.14,0,0,0L45,93l-.31.07-.3,0-.3,0h-.31l-.34,0L43,93,42.87,93l-.13,0-.26-.09a3.14,3.14,0,0,1-.71-.44L1.3,59.07,1.19,59a2.67,2.67,0,0,1-.36-.4,2.39,2.39,0,0,1-.18-.29l0-.06v0L.53,58a2.17,2.17,0,0,1-.08-.25,2.12,2.12,0,0,1-.06-.5v0Z"/><polygon class="cls-7" points="64.77 66.94 77.49 58.91 77.22 58.66 64.5 66.69 64.77 66.94"/><polygon class="cls-8" points="64.27 55.68 64.3 65.97 77.01 57.94 76.99 47.66 64.27 55.68"/><polygon class="cls-9" points="76.78 55.23 76.78 55.83 72.83 58.33 72.83 57.72 76.78 55.23"/><polygon class="cls-10" points="77.91 45.62 77.91 47.61 65.19 55.64 65.19 53.64 77.91 45.62"/><path class="cls-11" d="M65.19,55.64l12.72-8,0,8.29-12.72,8ZM66.88,59c-.26.79.09,1.31.65,1l8.06-5.09a1.75,1.75,0,0,0,.72-1.6L75.82,51c-.09-.4-.4-.46-.73-.26a1.62,1.62,0,0,0-.56.69L73.78,53a1.6,1.6,0,0,1-.56.68c-.24.15-.47.16-.62,0s-.38-.17-.62,0a1.59,1.59,0,0,0-.51.58l-.72,1.31a1.59,1.59,0,0,1-.51.58.53.53,0,0,1-.46.09l-1-.4a.53.53,0,0,0-.46.09,1.74,1.74,0,0,0-.65.9L66.88,59m9.9-3.17v-.6l-4,2.49v.6l4-2.49m-10.45-.12v.6l4-2.49v-.6l-4,2.49"/><polygon class="cls-12" points="70.29 53.21 70.29 53.81 66.34 56.31 66.34 55.71 70.29 53.21"/><path class="cls-13" d="M75.09,50.7c.32-.2.64-.14.73.26l.49,2.32a1.75,1.75,0,0,1-.72,1.6L67.54,60c-.56.35-.92-.17-.66-1l.74-2.23a1.75,1.75,0,0,1,.65-.9.54.54,0,0,1,.46-.09l1,.4a.54.54,0,0,0,.46-.09,1.6,1.6,0,0,0,.51-.58l.72-1.31a1.58,1.58,0,0,1,.51-.58c.24-.15.47-.16.61,0s.38.17.62,0a1.61,1.61,0,0,0,.56-.68l.75-1.61A1.63,1.63,0,0,1,75.09,50.7Z"/><polygon class="cls-8" points="67.22 50.93 67.25 61.22 79.97 53.19 79.94 42.91 67.22 50.93"/><polyline class="cls-8" points="14.46 29.56 15.29 29.01 15.29 27.3 4.99 34.18 5.01 55.48 15.31 48.59 15.29 29.01"/><polygon class="cls-14" points="16.74 24.31 16.75 26.02 6.45 32.91 6.45 31.2 16.74 24.31"/><path class="cls-11" d="M6.45,32.91,16.75,26l0,19.58L6.47,52.49Z"/><polygon class="cls-15" points="10.83 32.19 10.83 32.64 8.03 34.51 8.03 34.06 10.83 32.19"/><polygon class="cls-16" points="13.33 31.29 13.33 31.75 8.03 35.31 8.03 34.86 13.33 31.29"/><polygon class="cls-17" points="15.25 30.79 15.25 31.23 8.03 36.08 8.03 35.63 15.25 30.79"/><polygon class="cls-18" points="10.83 35.31 10.83 35.76 8.03 37.63 8.03 37.18 10.83 35.31"/><polygon class="cls-19" points="13.33 34.41 13.33 34.86 8.03 38.43 8.03 37.98 13.33 34.41"/><polygon class="cls-20" points="15.25 33.9 15.25 34.35 8.03 39.2 8.03 38.75 15.25 33.9"/><polygon class="cls-21" points="10.83 38.42 10.83 38.87 8.03 40.74 8.03 40.29 10.83 38.42"/><polygon class="cls-22" points="13.33 37.53 13.33 37.98 8.03 41.55 8.03 41.09 13.33 37.53"/><polygon class="cls-23" points="15.25 37.02 15.25 37.47 8.03 42.31 8.03 41.86 15.25 37.02"/><polygon class="cls-24" points="10.83 41.54 10.83 41.99 8.03 43.86 8.03 43.41 10.83 41.54"/><polygon class="cls-25" points="13.33 40.64 13.33 41.09 8.03 44.66 8.03 44.21 13.33 40.64"/><polygon class="cls-26" points="15.25 40.13 15.25 40.58 8.03 45.43 8.03 44.98 15.25 40.13"/><polygon class="cls-27" points="10.83 44.66 10.83 45.11 8.03 46.98 8.03 46.53 10.83 44.66"/><polygon class="cls-28" points="13.33 43.76 13.33 44.21 8.03 47.78 8.03 47.33 13.33 43.76"/><polygon class="cls-29" points="15.25 43.25 15.25 43.7 8.03 48.55 8.03 48.09 15.25 43.25"/><polyline class="cls-30" points="17.54 23.2 18.37 22.64 18.37 20.93 8.07 27.82 8.09 49.12 18.39 42.23 18.37 22.65"/><polygon class="cls-7" points="5.45 56.49 15.75 49.6 15.52 49.38 5.23 56.27 5.45 56.49"/><path class="cls-7" d="M43.68,83.51a2.82,2.82,0,0,1,2.56,0,.78.78,0,0,1,0,1.48,2.81,2.81,0,0,1-2.55,0A.78.78,0,0,1,43.68,83.51Z"/><path class="cls-7" d="M38.31,80.43a2.82,2.82,0,0,1,2.56,0,.78.78,0,0,1,0,1.48,2.81,2.81,0,0,1-2.55,0A.78.78,0,0,1,38.31,80.43Z"/><path class="cls-7" d="M32.78,77.31a2.82,2.82,0,0,1,2.56,0,.78.78,0,0,1,0,1.48,2.81,2.81,0,0,1-2.55,0A.78.78,0,0,1,32.78,77.31Z"/><g class="cls-31"><path class="cls-32" d="M46.49,67.31a.63.63,0,0,1,0,.19h0a.76.76,0,0,1-.09.17l0,0a1,1,0,0,1-.14.16l-.1.08-.15.11-.25.12-.08,0-.18.06-.16,0-.23,0h0l-.31,0h0l-.3,0h0l-.29,0H44l-.27-.08h0l-.28-.13a.9.9,0,0,1-.53-.74v15.5a.9.9,0,0,0,.53.74l.27.13h0l.19.06.08,0h.11l.18,0h.79l.16,0,.07,0,.16,0,.1,0,.09,0,.08,0,.25-.12.06,0,.09-.07.1-.08,0,0,.11-.12v0l0,0,0-.06,0-.1h0l0-.08a.62.62,0,0,0,0-.1h0Z"/></g><g class="cls-33"><path class="cls-32" d="M43.41,66.58a2.82,2.82,0,0,1,2.56,0,.78.78,0,0,1,0,1.48,2.81,2.81,0,0,1-2.55,0A.78.78,0,0,1,43.41,66.58Z"/></g><path class="cls-11" d="M46.49,70a.63.63,0,0,1,0,.19h0a.76.76,0,0,1-.09.17l0,0a1,1,0,0,1-.14.16l-.1.08-.15.11-.25.12-.08,0-.18.05-.16,0-.23,0h0l-.31,0h0l-.3,0h0L44,71H44l-.27-.08h0l-.28-.13a.9.9,0,0,1-.53-.74V82.82a.9.9,0,0,0,.53.74l.27.13h0l.19.06.08,0h.11l.18,0h.79l.16,0,.07,0,.16,0,.1,0,.09,0,.08,0,.25-.12.06,0,.09-.07.1-.08,0,0,.11-.12v0l0,0,0-.06,0-.1h0l0-.08a.62.62,0,0,0,0-.1h0Z"/><g class="cls-31"><path class="cls-32" d="M41.13,64.23a.63.63,0,0,1,0,.19h0a.76.76,0,0,1-.09.17l0,0a1,1,0,0,1-.14.16l-.1.08-.15.11-.25.12-.08,0-.18.06-.16,0-.23,0h0l-.31,0h0l-.3,0h0l-.29,0h-.05l-.27-.08h0L38,65a.9.9,0,0,1-.53-.74v15.5a.9.9,0,0,0,.53.74l.27.13h0l.19.06.08,0h.11l.18,0h.79l.16,0,.07,0,.16,0,.1,0,.09,0,.08,0,.25-.12.06,0,.09-.07.1-.08,0,0,.11-.12v0l0,0,0-.06,0-.1h0l0-.08a.61.61,0,0,0,0-.1h0Z"/></g><g class="cls-33"><path class="cls-32" d="M38,63.5a2.82,2.82,0,0,1,2.56,0,.78.78,0,0,1,0,1.48A2.81,2.81,0,0,1,38,65,.78.78,0,0,1,38,63.5Z"/></g><path class="cls-11" d="M41.13,69.56a.63.63,0,0,1,0,.19h0a.76.76,0,0,1-.09.17l0,0a1,1,0,0,1-.14.16l-.1.08-.15.11-.25.12-.08,0-.18.05-.16,0-.23,0h0l-.31,0h0l-.3,0h0l-.29,0h-.05l-.27-.08h0L38,70.3a.9.9,0,0,1-.53-.74V79.74a.9.9,0,0,0,.53.74l.27.13h0l.19.06.08,0h.11l.18,0h.79l.16,0,.07,0,.16,0,.1,0,.09,0,.08,0,.25-.12.06,0,.09-.07.1-.08,0,0,.11-.12v0l0,0,0-.06,0-.1h0l0-.08a.61.61,0,0,0,0-.1h0Z"/><g class="cls-31"><path class="cls-32" d="M35.59,61.12a.63.63,0,0,1,0,.19h0a.76.76,0,0,1-.09.17l0,0a1,1,0,0,1-.14.16l-.1.08-.15.11-.25.12-.08,0-.18.05-.16,0-.23,0h0l-.31,0h0l-.3,0h0l-.29,0h-.05L32.81,62h0l-.28-.13a.9.9,0,0,1-.53-.74v15.5a.9.9,0,0,0,.53.74l.27.13h0l.19.06.08,0h.11l.18,0h.79l.16,0,.07,0,.16,0,.1,0,.09,0,.08,0,.25-.12.06,0,.09-.07.1-.08,0,0,.11-.12v0l0,0,0-.06,0-.1h0l0-.08a.62.62,0,0,0,0-.1s0,0,0,0Z"/></g><g class="cls-33"><path class="cls-32" d="M32.51,60.38a2.82,2.82,0,0,1,2.56,0,.78.78,0,0,1,0,1.48,2.81,2.81,0,0,1-2.55,0A.78.78,0,0,1,32.51,60.38Z"/></g><path class="cls-11" d="M35.59,69.1a.63.63,0,0,1,0,.19h0a.76.76,0,0,1-.09.17l0,0a1,1,0,0,1-.14.16l-.1.08-.15.11-.25.12-.08,0-.18.05-.16,0-.23,0h0l-.31,0h0l-.3,0h0l-.29,0h-.05L32.81,70h0l-.28-.13a.9.9,0,0,1-.53-.74v7.51a.9.9,0,0,0,.53.74l.27.13h0l.19.06.08,0h.11l.18,0h.79l.16,0,.07,0,.16,0,.1,0,.09,0,.08,0,.25-.12.06,0,.09-.07.1-.08,0,0,.11-.12v0l0,0,0-.06,0-.1h0l0-.08a.62.62,0,0,0,0-.1s0,0,0,0Z"/><path class="cls-7" d="M48.71,57.83l1,.59,8.71,5.06a3.13,3.13,0,0,0,2.85,0,.87.87,0,0,0,0-1.64l-8.78-5.1c3.68-3,3.2-7.26-1.47-10-5.23-3-13.76-3-19,0s-5.28,8,0,11c4.84,2.81,12.48,3,17.77.64m-.81-1.83a16.57,16.57,0,0,1-11.4,1.35A12.75,12.75,0,0,1,34,56.59c-4.11-2.39-4.07-6.25,0-8.63A16.4,16.4,0,0,1,49,48C53.07,50.34,53,54.2,48.91,56.59Z"/><g class="cls-2"><g class="cls-2"><g class="cls-34"><g class="cls-2"><path class="cls-35" d="M42.19,47.25v1.81c0-1.8-1.19-3.6-3.55-5a10.62,10.62,0,0,0-1.18-.58V41.7a10.62,10.62,0,0,1,1.18.58c2.36,1.37,3.55,3.17,3.55,5"/></g></g></g><g class="cls-2"><g class="cls-36"><g class="cls-2"><path class="cls-35" d="M42.19,47.25v1.81c0-1.8-1.19-3.6-3.55-5a10.62,10.62,0,0,0-1.18-.58V41.7a10.62,10.62,0,0,1,1.18.58c2.36,1.37,3.55,3.17,3.55,5"/></g></g></g><g class="cls-2"><g class="cls-37"><g class="cls-2"><path class="cls-38" d="M51.06,47.51v1.81c0-1.55-1-3.1-3.07-4.29a11.42,11.42,0,0,0-1.6-.76V42.46a11.41,11.41,0,0,1,1.6.76c2,1.19,3.06,2.73,3.07,4.29"/><path class="cls-39" d="M46.4,42.46v1.81c-.41-.16-.84-.3-1.28-.42V42c.44.12.87.26,1.28.42"/><path class="cls-40" d="M45.12,42v1.81q-.54-.15-1.1-.26V41.77q.56.11,1.1.26"/><path class="cls-41" d="M44,41.77v1.81q-.51-.1-1-.18V41.6q.53.07,1,.18"/><path class="cls-42" d="M43,41.6v1.81q-.5-.07-1-.11V41.49l1,.11"/><path class="cls-43" d="M42,41.49V43.3l-1-.05V41.44l1,.05"/><path class="cls-44" d="M40.94,41.44v1.81q-.53,0-1.07,0V41.45q.53,0,1.07,0"/><path class="cls-45" d="M39.87,41.45v1.81q-.58,0-1.15.08V41.53q.57-.06,1.15-.08"/><path class="cls-46" d="M38.72,41.53v1.81c-.44,0-.88.11-1.31.19V41.71c.43-.08.87-.14,1.31-.19"/><path class="cls-47" d="M37.4,41.71v1.81a15.45,15.45,0,0,0-1.89.46V42.18a15.43,15.43,0,0,1,1.89-.46"/><path class="cls-48" d="M35.52,42.18V44A12.18,12.18,0,0,0,33.09,45l-.35.21V43.44l.35-.21a12.17,12.17,0,0,1,2.43-1.05"/><path class="cls-47" d="M32.73,43.44v1.81a7.93,7.93,0,0,0-1.24,1V44.4a7.92,7.92,0,0,1,1.24-1"/><path class="cls-46" d="M31.5,44.4v1.81a6,6,0,0,0-.62.69V45.09a6,6,0,0,1,.62-.69"/><path class="cls-45" d="M30.88,45.09V46.9a4.93,4.93,0,0,0-.41.63V45.72a4.9,4.9,0,0,1,.41-.63"/><path class="cls-44" d="M30.47,45.72v1.81a4.24,4.24,0,0,0-.27.6V46.31a4.24,4.24,0,0,1,.27-.6"/><path class="cls-43" d="M30.2,46.31v1.81a3.82,3.82,0,0,0-.16.59V46.9a3.83,3.83,0,0,1,.16-.59"/><path class="cls-42" d="M30,46.9v1.81a3.61,3.61,0,0,0-.06.6V47.5a3.61,3.61,0,0,1,.06-.6"/><path class="cls-41" d="M30,47.5v1.81s0,0,0,.07V47.5"/></g></g></g><g class="cls-2"><g class="cls-49"><g class="cls-2"><path class="cls-35" d="M42.19,47.25v1.81c0-1.8-1.19-3.6-3.55-5a10.62,10.62,0,0,0-1.18-.58V41.7a10.62,10.62,0,0,1,1.18.58c2.36,1.37,3.55,3.17,3.55,5"/></g></g></g><g class="cls-2"><g class="cls-50"><g class="cls-2"><path class="cls-51" d="M51.06,47.51v1.81s0,0,0,.07V47.51"/><path class="cls-52" d="M51.06,47.58v1.81A3.6,3.6,0,0,1,51,50V48.18a3.6,3.6,0,0,0,.06-.6"/><path class="cls-53" d="M51,48.18V50a3.8,3.8,0,0,1-.16.59V48.77a3.82,3.82,0,0,0,.16-.59"/><path class="cls-54" d="M50.84,48.77v1.81a4.24,4.24,0,0,1-.27.59V49.37a4.23,4.23,0,0,0,.27-.59"/><path class="cls-55" d="M50.57,49.37v1.81a4.92,4.92,0,0,1-.41.63V50a4.91,4.91,0,0,0,.41-.63"/><path class="cls-56" d="M50.16,50V51.8a6,6,0,0,1-.62.69V50.68a6,6,0,0,0,.62-.69"/><path class="cls-57" d="M49.54,50.68v1.81a8,8,0,0,1-1.24,1V51.64a8,8,0,0,0,1.24-1"/><path class="cls-58" d="M48.3,51.64v1.81l-.36.22a12.14,12.14,0,0,1-2.44,1.05V52.91a12.14,12.14,0,0,0,2.44-1.05l.36-.22"/></g></g></g><g class="cls-2"><g class="cls-59"><g class="cls-2"><path class="cls-58" d="M48.3,51.64v1.81l-.36.22a12.14,12.14,0,0,1-2.44,1.05V52.91a12.14,12.14,0,0,0,2.44-1.05l.36-.22"/></g></g></g><polygon class="cls-60" points="51.53 52.01 51.53 53.81 50.59 53.27 50.59 51.46 51.53 52.01"/><g class="cls-2"><g class="cls-61"><g class="cls-2"><path class="cls-58" d="M48.3,51.64v1.81l-.36.22a12.14,12.14,0,0,1-2.44,1.05V52.91a12.14,12.14,0,0,0,2.44-1.05l.36-.22"/><path class="cls-57" d="M45.5,52.91v1.81a15.48,15.48,0,0,1-1.86.45V53.37a15.47,15.47,0,0,0,1.86-.45"/><path class="cls-56" d="M43.64,53.37v1.81c-.43.08-.88.14-1.32.19V53.55c.45,0,.89-.11,1.32-.19"/><path class="cls-55" d="M42.32,53.55v1.81q-.57.06-1.15.08V53.63q.58,0,1.15-.08"/><path class="cls-54" d="M41.17,53.63v1.81q-.54,0-1.07,0V53.64q.54,0,1.07,0"/><path class="cls-53" d="M40.1,53.64v1.81l-1-.05V53.59l1,.05"/><path class="cls-52" d="M39.07,53.59V55.4q-.51,0-1-.11V53.48q.51.07,1,.11"/><path class="cls-51" d="M38,53.48v1.81q-.52-.07-1-.17V53.31q.51.1,1,.18"/><path class="cls-62" d="M37,53.31v1.81l-.47-.1V53.21l.47.1"/></g></g></g><polygon class="cls-63" points="50.59 51.46 50.59 53.27 47.75 54.91 47.74 53.1 50.59 51.46"/><g class="cls-2"><g class="cls-64"><g class="cls-2"><path class="cls-65" d="M36.54,53.21V55l-.63-.16V53l.63.16"/><path class="cls-66" d="M35.91,53v1.81c-.43-.12-.86-.26-1.26-.42V52.63c.41.16.83.3,1.26.42"/><path class="cls-67" d="M34.65,52.63v1.81A11.37,11.37,0,0,1,33,53.67C31,52.48,30,50.93,30,49.38V47.57c0,1.55,1,3.1,3.06,4.29a11.38,11.38,0,0,0,1.61.77"/></g></g></g><g class="cls-2"><g class="cls-68"><g class="cls-2"><path class="cls-69" d="M42.19,47.25v1.81s0,.05,0,.08V47.33s0-.05,0-.08"/><path class="cls-70" d="M42.19,47.33v1.81a4.17,4.17,0,0,1-.07.7V48a4.17,4.17,0,0,0,.07-.7"/><path class="cls-71" d="M42.12,48v1.81a4.42,4.42,0,0,1-.19.69V48.72a4.42,4.42,0,0,0,.19-.69"/><path class="cls-72" d="M41.93,48.72v1.81a4.9,4.9,0,0,1-.31.69V49.41a4.92,4.92,0,0,0,.31-.69"/><path class="cls-73" d="M41.62,49.41v1.81a5.69,5.69,0,0,1-.47.73V50.13a5.71,5.71,0,0,0,.47-.73"/><path class="cls-74" d="M41.15,50.13v1.81a6.92,6.92,0,0,1-.72.8V50.93a6.92,6.92,0,0,0,.72-.8"/><path class="cls-75" d="M40.43,50.93v1.81A9.2,9.2,0,0,1,39,53.85V52a9.19,9.19,0,0,0,1.43-1.11"/><path class="cls-76" d="M39,52v1.81l-.41.25a12.44,12.44,0,0,1-2,.91V53.21a12.44,12.44,0,0,0,2-.91L39,52"/></g></g></g><path class="cls-77" d="M33.09,43.22a13.51,13.51,0,0,1,4.37-1.52,10.62,10.62,0,0,1,1.18.58c4.76,2.76,4.73,7.24-.06,10a12.44,12.44,0,0,1-2,.91A12.77,12.77,0,0,1,33,51.86C28.93,49.47,29,45.6,33.09,43.22Z"/><polygon class="cls-60" points="48.75 53.69 48.76 55.5 47.75 54.91 47.74 53.1 48.75 53.69"/><path class="cls-78" d="M37.46,41.7A16.3,16.3,0,0,1,48,43.22c4.11,2.39,4.09,6.25,0,8.63a16.58,16.58,0,0,1-11.4,1.35,12.44,12.44,0,0,0,2-.91c4.79-2.76,4.81-7.24.06-10A10.62,10.62,0,0,0,37.46,41.7Z"/><path class="cls-38" d="M53.39,49.78l0,.08a6.47,6.47,0,0,1-.67,1c-.09.12-.2.23-.31.34a8.31,8.31,0,0,1-.85.83v1.81q.27-.22.5-.45c.13-.12.23-.26.35-.39s.21-.23.31-.34l.14-.15a6.27,6.27,0,0,0,.52-.8v0l0-.08a5.41,5.41,0,0,0,.3-.66c0-.1.05-.2.08-.3s0-.16.07-.24,0-.14.06-.21A4.6,4.6,0,0,0,54,49.4s0-.06,0-.09V47.51a4.64,4.64,0,0,1-.14,1.07c0,.08,0,.16-.07.24A5.21,5.21,0,0,1,53.39,49.78Z"/><path class="cls-38" d="M46.78,54.42c-.55.17-1.12.29-1.69.41-.21,0-.41.11-.63.15l-.22,0c-.64.11-1.28.18-1.93.23l-.46,0c-.68,0-1.37.06-2.05,0h-.28c-.73,0-1.45-.09-2.16-.19h-.07c-.67-.09-1.32-.23-2-.38l-.4-.1A17.75,17.75,0,0,1,33,54a14.5,14.5,0,0,1-2-1c-2.6-1.51-3.91-3.49-3.91-5.48v1.81c0,2,1.31,4,3.91,5.48a14.5,14.5,0,0,0,2,1l0,0c.52.2,1.07.38,1.62.54l.27.06.4.1.74.18c.4.08.81.15,1.22.21h.1q.65.09,1.3.14l.83,0H40q.68,0,1.36,0l.49,0,.45,0,.53,0c.47,0,.94-.12,1.41-.2l.22,0h.05c.2,0,.38-.1.57-.14.57-.12,1.14-.25,1.69-.41l.12,0a16.56,16.56,0,0,0,1.86-.7V53.69A16.7,16.7,0,0,1,46.78,54.42Z"/><path class="cls-38" d="M60.9,57.93a.76.76,0,0,1-.14.43h0a1.35,1.35,0,0,1-.43.38,2.47,2.47,0,0,1-.63.24l-.08,0a3.32,3.32,0,0,1-.7.08h0a3.31,3.31,0,0,1-.73-.08h0a2.44,2.44,0,0,1-.65-.25l-8.71-5.06V55.5l8.71,5.06.31.15.24.08.1,0h0l.08,0,.2,0,.19,0H59l.22,0,.25,0,.11,0,.09,0,.16,0a2.35,2.35,0,0,0,.47-.2l.07,0a1.47,1.47,0,0,0,.23-.18l.12-.13,0,0h0l.05-.08.05-.11a.73.73,0,0,0,0-.11.7.7,0,0,0,0-.11h0Z"/><path class="cls-79" d="M60.31,57.11,51.53,52c3.68-3,3.2-7.26-1.47-10-5.23-3-13.76-3-19,0s-5.28,8,0,11c4.84,2.81,12.48,3,17.77.64l-1-.59h0l1,.59,8.71,5.06a3.13,3.13,0,0,0,2.85,0A.87.87,0,0,0,60.31,57.11Zm-23.77-3.9A12.75,12.75,0,0,1,33,51.86c-4.11-2.39-4.07-6.25,0-8.63a16.4,16.4,0,0,1,14.91,0c4.11,2.39,4.09,6.25-.05,8.63A16.57,16.57,0,0,1,36.54,53.21Z"/></g><g class="cls-80"><path class="cls-78" d="M33.09,43.22a13.51,13.51,0,0,1,4.37-1.52,10.62,10.62,0,0,1,1.18.58c4.76,2.76,4.73,7.24-.06,10a12.44,12.44,0,0,1-2,.91A12.77,12.77,0,0,1,33,51.86C28.93,49.47,29,45.6,33.09,43.22Z"/></g><g class="cls-31"><path class="cls-32" d="M54.1,7.74a4.68,4.68,0,0,1-.23,1.42l0,.11a5.66,5.66,0,0,1-.66,1.3l-.12.19A7.72,7.72,0,0,1,52,11.92c-.22.2-.48.38-.73.57a10.8,10.8,0,0,1-1.13.8,14.7,14.7,0,0,1-1.89.89l-.56.21c-.43.16-.89.28-1.34.41s-.79.21-1.19.29c-.56.12-1.13.22-1.72.29l-.33,0c-.76.08-1.52.12-2.29.13h-.33c-.75,0-1.5,0-2.24-.12l-.32,0A21.16,21.16,0,0,1,35.76,15l-.4-.1a18.08,18.08,0,0,1-2-.61l-.16-.05a14.58,14.58,0,0,1-2.08-1c-2.6-1.51-3.91-3.49-3.91-5.48V47.33c0,2,1.31,4,3.91,5.48a14.53,14.53,0,0,0,2,1h0l.16.05c.46.17.94.34,1.43.47l.57.14.4.1.43.1q.65.13,1.33.22l.39,0,.32,0,.59.06q.65.05,1.31.06h1.36c.49,0,1-.05,1.47-.1l.13,0,.33,0c.41,0,.81-.1,1.21-.17.17,0,.33-.09.51-.12.41-.08.8-.18,1.19-.29.23-.06.48-.1.71-.17s.42-.16.64-.24l.56-.21a14.67,14.67,0,0,0,1.89-.89l.45-.28c.26-.17.45-.35.68-.53s.52-.37.73-.57l.17-.13a7.65,7.65,0,0,0,.79-.88l.1-.15.12-.19c.1-.15.22-.3.3-.46a5.43,5.43,0,0,0,.34-.76l0-.08,0-.11a4.91,4.91,0,0,0,.15-.57,4.58,4.58,0,0,0,.08-.77s0-.06,0-.09Z"/></g><g class="cls-33"><path class="cls-32" d="M31.17,2.28c5.27-3,13.79-3,19,0s5.19,8-.08,11-13.76,3-19,0S25.9,5.32,31.17,2.28Z"/></g><line class="cls-11" x1="42.73" y1="43.75" x2="74.48" y2="25.29"/><line class="cls-11" x1="46.66" y1="56.28" x2="78.41" y2="37.82"/><path class="cls-11" d="M33.17,29.91a.19.19,0,0,1,.09-.15l1.7-.93a.47.47,0,0,0,.22-.37L35,26.21a.21.21,0,0,1,.1-.16.07.07,0,0,1,.08,0h0l1.93,1.08,0,.13.06,1.11.15,1-.21.57L35.15,31,33.2,30h0A.06.06,0,0,1,33.17,29.91Z"/><path class="cls-81" d="M35.12,31h0c0,.05,0,.08.09,0l1.76-1a.74.74,0,0,0,.36-.59l-.2-2.31c0-.06,0-.08-.1-.05h0a.21.21,0,0,0-.1.16l.2,2.25a.47.47,0,0,1-.22.37l-1.7.93A.19.19,0,0,0,35.12,31Z"/><polygon class="cls-81" points="31.54 20.03 31.81 19.86 31.74 20.11 31.54 20.03"/><polygon class="cls-81" points="40.35 30.75 40.63 30.58 40.35 30.52 40.35 30.75"/><path class="cls-81" d="M31.65,25.27V20.19h0v0h0c0-.3.24-.41.52-.26l8.06,4.44a1.11,1.11,0,0,1,.52.84h0v0h0v5.09h0c0,.3-.24.41-.52.26l-8.06-4.44a1.11,1.11,0,0,1-.52-.84Z"/><path class="cls-11" d="M31.92,26.27,40,30.72c.29.16.52,0,.52-.29V25.37A1.1,1.1,0,0,0,40,24.5l-8.06-4.44c-.29-.16-.52,0-.52.29V25.4A1.1,1.1,0,0,0,31.92,26.27Z"/><polygon class="cls-82" points="31.39 25.44 40.5 30.46 40.5 25.34 31.39 20.32 31.39 25.44"/><polygon class="cls-83" points="31.89 25.55 40.01 30.03 40.01 25.19 31.89 20.71 31.89 25.55"/><path class="cls-82" d="M35.78,28.14a.29.29,0,0,0,.14.23c.08,0,.14,0,.14-.08a.29.29,0,0,0-.14-.23C35.84,28,35.78,28,35.78,28.14Z"/><polygon class="cls-82" points="40.5 25.34 40.76 25.21 40.76 30.29 40.5 30.46 40.5 25.34"/><polygon class="cls-81" points="28.03 30.89 28.03 31.08 28.22 30.99 28.03 30.89"/><polygon class="cls-81" points="37.47 33.53 37.47 33.69 37.27 33.61 37.47 33.53"/><path class="cls-81" d="M28.18,31.27l6.59,3.64a.8.8,0,0,0,.7,0l1.86-1c.19-.11.19-.28,0-.38l-6.59-3.64a.8.8,0,0,0-.7,0l-1.86,1C28,31,28,31.16,28.18,31.27Z"/><path class="cls-11" d="M28.18,31.09l6.59,3.64a.8.8,0,0,0,.7,0l1.86-1c.19-.11.19-.28,0-.38l-6.59-3.64a.8.8,0,0,0-.7,0l-1.86,1C28,30.81,28,31,28.18,31.09Z"/><path class="cls-84" d="M36.29,33.46l.52.29.11-.06c.1-.05.1-.14,0-.19l-.34-.19Z"/><path class="cls-84" d="M35.91,33.25l.22.12a.14.14,0,0,0,.12,0l.16-.09s0,0,0-.07l-.22-.12a.14.14,0,0,0-.12,0l-.16.09S35.87,33.23,35.91,33.25Z"/><path class="cls-84" d="M35.45,33l.22.12a.14.14,0,0,0,.12,0L36,33s0,0,0-.07l-.22-.12a.14.14,0,0,0-.12,0l-.16.09S35.42,33,35.45,33Z"/><path class="cls-84" d="M35,32.75l.22.12a.14.14,0,0,0,.12,0l.16-.09s0,0,0-.07l-.22-.12a.14.14,0,0,0-.12,0l-.16.09S35,32.73,35,32.75Z"/><path class="cls-84" d="M34.55,32.5l.22.12a.14.14,0,0,0,.12,0l.16-.09s0,0,0-.07l-.22-.12a.14.14,0,0,0-.12,0l-.16.09S34.51,32.48,34.55,32.5Z"/><path class="cls-84" d="M34.09,32.25l.22.12a.14.14,0,0,0,.12,0l.16-.09s0,0,0-.07l-.22-.12a.14.14,0,0,0-.12,0l-.16.09S34.06,32.23,34.09,32.25Z"/><path class="cls-84" d="M33.64,32l.22.12a.14.14,0,0,0,.12,0l.16-.09s0,0,0-.07l-.22-.12a.14.14,0,0,0-.12,0l-.16.09S33.61,32,33.64,32Z"/><path class="cls-84" d="M33.19,31.75l.22.12a.14.14,0,0,0,.12,0l.16-.09s0,0,0-.07l-.22-.12a.14.14,0,0,0-.12,0l-.16.09S33.16,31.73,33.19,31.75Z"/><path class="cls-84" d="M32.74,31.5l.22.12a.14.14,0,0,0,.12,0l.16-.09s0,0,0-.07L33,31.34a.14.14,0,0,0-.12,0l-.16.09S32.7,31.48,32.74,31.5Z"/><path class="cls-84" d="M32.28,31.25l.22.12a.14.14,0,0,0,.12,0l.16-.09s0,0,0-.07l-.22-.12a.14.14,0,0,0-.12,0l-.16.09S32.25,31.23,32.28,31.25Z"/><path class="cls-84" d="M35.55,33.45l.22.12a.14.14,0,0,0,.12,0l.16-.09s0,0,0-.07l-.22-.12a.14.14,0,0,0-.12,0l-.16.09S35.51,33.43,35.55,33.45Z"/><path class="cls-84" d="M35.09,33.2l.22.12a.14.14,0,0,0,.12,0l.16-.09s0,0,0-.07L35.38,33a.14.14,0,0,0-.12,0l-.16.09S35.06,33.18,35.09,33.2Z"/><path class="cls-84" d="M34.64,32.95l.22.12a.14.14,0,0,0,.12,0l.16-.09s0,0,0-.07l-.22-.12a.14.14,0,0,0-.12,0l-.16.09S34.61,32.93,34.64,32.95Z"/><path class="cls-84" d="M34.19,32.7l.22.12a.14.14,0,0,0,.12,0l.16-.09s0,0,0-.07l-.22-.12a.14.14,0,0,0-.12,0l-.16.09S34.16,32.68,34.19,32.7Z"/><path class="cls-84" d="M33.74,32.45l.22.12a.14.14,0,0,0,.12,0l.16-.09s0,0,0-.07L34,32.29a.14.14,0,0,0-.12,0l-.16.09S33.7,32.43,33.74,32.45Z"/><path class="cls-84" d="M33.28,32.2l.22.12a.14.14,0,0,0,.12,0l.16-.09s0,0,0-.07L33.56,32a.14.14,0,0,0-.12,0l-.16.09S33.25,32.18,33.28,32.2Z"/><path class="cls-84" d="M32.83,31.95l.22.12a.14.14,0,0,0,.12,0l.16-.09s0,0,0-.07l-.22-.12a.14.14,0,0,0-.12,0l-.16.09S32.8,31.93,32.83,31.95Z"/><path class="cls-84" d="M32.38,31.7l.22.12a.14.14,0,0,0,.12,0l.16-.09s0,0,0-.07l-.22-.12a.14.14,0,0,0-.12,0l-.16.09S32.34,31.68,32.38,31.7Z"/><path class="cls-84" d="M31.92,31.45l.22.12a.14.14,0,0,0,.12,0l.16-.09s0,0,0-.07l-.22-.12a.14.14,0,0,0-.12,0l-.16.09S31.89,31.43,31.92,31.45Z"/><path class="cls-84" d="M35.19,33.64l.22.12a.14.14,0,0,0,.12,0l.16-.09s0,0,0-.07l-.22-.12a.14.14,0,0,0-.12,0l-.16.09S35.16,33.63,35.19,33.64Z"/><path class="cls-84" d="M34.74,33.39l.22.12a.14.14,0,0,0,.12,0l.16-.09s0,0,0-.07L35,33.24a.14.14,0,0,0-.12,0l-.16.09S34.7,33.38,34.74,33.39Z"/><path class="cls-84" d="M34.28,33.14l.22.12a.14.14,0,0,0,.12,0l.16-.09s0,0,0-.07L34.56,33a.14.14,0,0,0-.12,0l-.16.09S34.25,33.13,34.28,33.14Z"/><path class="cls-84" d="M33.83,32.89,34,33a.14.14,0,0,0,.12,0l.16-.09s0,0,0-.07l-.22-.12a.14.14,0,0,0-.12,0l-.16.09S33.8,32.88,33.83,32.89Z"/><path class="cls-84" d="M33.38,32.64l.22.12a.14.14,0,0,0,.12,0l.16-.09s0,0,0-.07l-.22-.12a.14.14,0,0,0-.12,0l-.16.09S33.34,32.63,33.38,32.64Z"/><path class="cls-84" d="M32.92,32.4l.22.12a.14.14,0,0,0,.12,0l.16-.09s0,0,0-.07l-.22-.12a.14.14,0,0,0-.12,0l-.16.09S32.89,32.38,32.92,32.4Z"/><path class="cls-84" d="M32.47,32.15l.22.12a.14.14,0,0,0,.12,0l.16-.09s0,0,0-.07L32.75,32a.14.14,0,0,0-.12,0l-.16.09S32.44,32.13,32.47,32.15Z"/><path class="cls-84" d="M32,31.9l.22.12a.14.14,0,0,0,.12,0l.16-.09s0,0,0-.07l-.22-.12a.14.14,0,0,0-.12,0l-.16.09S32,31.88,32,31.9Z"/><path class="cls-84" d="M31.72,31.73l.09,0a.1.1,0,0,0,.08,0l.2-.11s0,0,0,0l-.09,0a.1.1,0,0,0-.08,0l-.2.11S31.69,31.72,31.72,31.73Z"/><path class="cls-84" d="M34.82,33.84l.15.08a.12.12,0,0,0,.1,0l.18-.1s0,0,0-.06l-.15-.08a.12.12,0,0,0-.1,0l-.18.1S34.79,33.82,34.82,33.84Z"/><path class="cls-84" d="M34.38,33.59l.22.12a.14.14,0,0,0,.12,0l.16-.09s0,0,0-.07l-.22-.12a.14.14,0,0,0-.12,0l-.16.09S34.34,33.57,34.38,33.59Z"/><path class="cls-84" d="M33.92,33.34l.22.12a.14.14,0,0,0,.12,0l.16-.09s0,0,0-.07l-.22-.12a.14.14,0,0,0-.12,0l-.16.09S33.89,33.32,33.92,33.34Z"/><path class="cls-84" d="M33.47,33.09l.22.12a.14.14,0,0,0,.12,0l.16-.09s0,0,0-.07l-.22-.12a.14.14,0,0,0-.12,0l-.16.09S33.44,33.07,33.47,33.09Z"/><path class="cls-84" d="M33,32.84l.22.12a.14.14,0,0,0,.12,0l.16-.09s0,0,0-.07l-.22-.12a.14.14,0,0,0-.12,0l-.16.09S33,32.82,33,32.84Z"/><path class="cls-84" d="M32.56,32.59l.22.12a.14.14,0,0,0,.12,0l.16-.09s0,0,0-.07l-.22-.12a.14.14,0,0,0-.12,0l-.16.09S32.53,32.58,32.56,32.59Z"/><path class="cls-84" d="M32.11,32.34l.22.12a.14.14,0,0,0,.12,0l.16-.09s0,0,0-.07l-.22-.12a.14.14,0,0,0-.12,0l-.16.09S32.08,32.33,32.11,32.34Z"/><path class="cls-84" d="M31.66,32.09l.22.12a.14.14,0,0,0,.12,0l.16-.09s0,0,0-.07l-.22-.12a.14.14,0,0,0-.12,0l-.16.09S31.63,32.08,31.66,32.09Z"/><path class="cls-84" d="M30.94,30.9l.22.12a.14.14,0,0,0,.12,0l.16-.09s0,0,0-.07l-.22-.12a.14.14,0,0,0-.12,0l-.16.09S30.9,30.89,30.94,30.9Z"/><path class="cls-84" d="M30.48,30.65l.22.12a.14.14,0,0,0,.12,0l.16-.09s0,0,0-.07l-.22-.12a.14.14,0,0,0-.12,0l-.16.09S30.45,30.64,30.48,30.65Z"/><path class="cls-84" d="M30,30.4l.22.12a.14.14,0,0,0,.12,0l.16-.09s0,0,0-.07l-.22-.12a.14.14,0,0,0-.12,0l-.16.09S30,30.39,30,30.4Z"/><path class="cls-84" d="M29.58,30.15l.22.12a.14.14,0,0,0,.12,0l.16-.09s0,0,0-.07L29.86,30a.14.14,0,0,0-.12,0l-.16.09S29.54,30.14,29.58,30.15Z"/><path class="cls-84" d="M30.58,31.1l.22.12a.14.14,0,0,0,.12,0l.16-.09s0,0,0-.07l-.22-.12a.14.14,0,0,0-.12,0l-.16.09S30.54,31.08,30.58,31.1Z"/><path class="cls-84" d="M30.12,30.85l.22.12a.14.14,0,0,0,.12,0l.16-.09s0,0,0-.07l-.22-.12a.14.14,0,0,0-.12,0l-.16.09S30.09,30.83,30.12,30.85Z"/><path class="cls-84" d="M29.67,30.6l.22.12a.14.14,0,0,0,.12,0l.16-.09s0,0,0-.07L30,30.45a.14.14,0,0,0-.12,0l-.16.09S29.64,30.58,29.67,30.6Z"/><path class="cls-84" d="M29.22,30.35l.22.12a.14.14,0,0,0,.12,0l.16-.09s0,0,0-.07l-.22-.12a.14.14,0,0,0-.12,0l-.16.09S29.18,30.33,29.22,30.35Z"/><path class="cls-84" d="M30.22,31.3l.22.12a.14.14,0,0,0,.12,0l.16-.09s0,0,0-.07l-.22-.12a.14.14,0,0,0-.12,0l-.16.09S30.18,31.28,30.22,31.3Z"/><path class="cls-84" d="M29.76,31l.22.12a.14.14,0,0,0,.12,0l.16-.09s0,0,0-.07L30,30.89a.14.14,0,0,0-.12,0l-.16.09S29.73,31,29.76,31Z"/><path class="cls-84" d="M29.31,30.8l.22.12a.14.14,0,0,0,.12,0l.16-.09s0,0,0-.07l-.22-.12a.14.14,0,0,0-.12,0l-.16.09S29.28,30.78,29.31,30.8Z"/><path class="cls-84" d="M28.86,30.55l.22.12a.14.14,0,0,0,.12,0l.16-.09s0,0,0-.07l-.22-.12a.14.14,0,0,0-.12,0l-.16.09S28.83,30.53,28.86,30.55Z"/><path class="cls-84" d="M31.36,31.93l.09,0a.1.1,0,0,0,.08,0l.2-.11s0,0,0,0l-.09,0a.1.1,0,0,0-.08,0l-.2.11S31.33,31.91,31.36,31.93Z"/><path class="cls-84" d="M31.83,31l.22.12a.14.14,0,0,0,.12,0l.16-.09s0,0,0-.07l-.22-.12a.14.14,0,0,0-.12,0l-.16.09S31.8,31,31.83,31Z"/><path class="cls-84" d="M31.23,30.67l.34.19.18-.1c.06,0,.06-.08,0-.12l-.23-.13Z"/><polygon class="cls-84" points="30.78 30.42 31.12 30.61 31.4 30.45 31.07 30.27 30.78 30.42"/><polygon class="cls-84" points="30.33 30.18 30.67 30.36 30.95 30.21 30.61 30.02 30.33 30.18"/><path class="cls-84" d="M29.88,29.93l.34.19L30.5,30l-.06,0a.65.65,0,0,0-.56,0Z"/><path class="cls-84" d="M36,33.7l.37.21a.17.17,0,0,0,.14,0l.14-.08s0-.06,0-.08l-.37-.21a.17.17,0,0,0-.14,0l-.14.08S36,33.68,36,33.7Z"/><path class="cls-84" d="M31.18,31.44l.11.06a.27.27,0,0,0,.23,0l.41-.23c.06,0,.06-.09,0-.13l-.11-.06a.27.27,0,0,0-.23,0l-.41.23C31.12,31.34,31.12,31.4,31.18,31.44Z"/><path class="cls-84" d="M35.64,33.9l.38.21a.16.16,0,0,0,.14,0L36.3,34s0-.06,0-.08l-.38-.21a.16.16,0,0,0-.14,0l-.14.08S35.6,33.87,35.64,33.9Z"/><path class="cls-84" d="M31.29,31.5l.15.08a.23.23,0,0,0,.2,0l.08,0c.06,0,.06-.08,0-.11l-.15-.08a.23.23,0,0,0-.2,0l-.08,0C31.24,31.42,31.24,31.47,31.29,31.5Z"/><path class="cls-84" d="M35.14,34l.52.28a.17.17,0,0,0,.15,0l.13-.07s0-.06,0-.08l-.52-.28a.17.17,0,0,0-.15,0l-.13.07S35.1,34,35.14,34Z"/><path class="cls-84" d="M30.79,31.61l.36.2a.18.18,0,0,0,.16,0l.12-.07s0-.06,0-.09l-.36-.2a.18.18,0,0,0-.16,0l-.12.07S30.74,31.59,30.79,31.61Z"/><path class="cls-84" d="M34.85,34.26l.24.13a.65.65,0,0,0,.56,0h0l-.52-.29Z"/><path class="cls-84" d="M34.48,34.05l.18.1a.18.18,0,0,0,.16,0l.12-.07s0-.06,0-.09l-.18-.1a.18.18,0,0,0-.16,0l-.12.07S34.44,34,34.48,34.05Z"/><path class="cls-84" d="M34,33.8l.18.1a.18.18,0,0,0,.16,0l.12-.07s0-.06,0-.09l-.18-.1a.18.18,0,0,0-.16,0l-.12.07S34,33.78,34,33.8Z"/><path class="cls-84" d="M33.51,33.52l.24.13a.2.2,0,0,0,.18,0l.11-.06s0-.07,0-.1l-.24-.13a.2.2,0,0,0-.18,0l-.11.06S33.46,33.49,33.51,33.52Z"/><path class="cls-84" d="M31.32,32.31l1.94,1.07a.17.17,0,0,0,.15,0l.14-.08s0-.06,0-.08L31.6,32.15a.17.17,0,0,0-.15,0l-.14.08S31.28,32.29,31.32,32.31Z"/><path class="cls-84" d="M30.88,32.07l.16.09a.21.21,0,0,0,.18,0l.1-.06c.05,0,.05-.07,0-.1l-.16-.09a.21.21,0,0,0-.18,0l-.1.06C30.83,32,30.83,32,30.88,32.07Z"/><path class="cls-84" d="M30.46,31.84l.1.06a.27.27,0,0,0,.23,0l0,0c.06,0,.06-.09,0-.13l-.1-.06a.27.27,0,0,0-.23,0l0,0C30.4,31.74,30.4,31.8,30.46,31.84Z"/><path class="cls-84" d="M29.79,31.47l.23.13a.24.24,0,0,0,.21,0l.18-.1-.34-.19Z"/><polygon class="cls-84" points="29.34 31.22 29.68 31.41 29.96 31.25 29.62 31.06 29.34 31.22"/><polygon class="cls-84" points="28.89 30.97 29.23 31.16 29.51 31 29.17 30.81 28.89 30.97"/><path class="cls-84" d="M28.61,30.82l.16.09.28-.16-.34-.19-.11.06C28.52,30.68,28.52,30.76,28.61,30.82Z"/><polygon class="cls-85" points="40.3 31.98 40.3 32.3 40.56 32.12 40.3 31.98"/><polygon class="cls-85" points="52.2 33.84 52.2 34.13 51.92 33.99 52.2 33.84"/><polygon class="cls-86" points="52.35 33.44 52.59 33.31 52.35 33.22 52.35 33.44"/><polygon class="cls-86" points="45.03 22.57 45.25 22.46 45.34 22.77 45.03 22.57"/><path class="cls-85" d="M40.44,32.07l4.08-2.7a.67.67,0,0,1,.68,0l6.86,4.53a.25.25,0,0,1,0,.45L48,37.06a.67.67,0,0,1-.68,0l-6.86-4.53A.25.25,0,0,1,40.44,32.07Z"/><path class="cls-86" d="M45.14,22.73c0-.26.16-.37.36-.24L52.32,27a.94.94,0,0,1,.36.71v5.34c0,.26-.16.37-.36.24L45.5,28.78a.94.94,0,0,1-.36-.71Z"/><path class="cls-84" d="M45.27,28.9l6.82,4.51c.2.13.36,0,.36-.24V27.83a.94.94,0,0,0-.36-.71l-6.82-4.51c-.2-.13-.36,0-.36.24v5.34A.94.94,0,0,0,45.27,28.9Z"/><polygon class="cls-83" points="45.11 28.29 52.26 33.02 52.26 27.74 45.11 23.01 45.11 28.29"/><path class="cls-87" d="M48.57,25.07a.3.3,0,0,0,.11.23c.06,0,.11,0,.11-.08a.3.3,0,0,0-.11-.23C48.62,25,48.57,25,48.57,25.07Z"/><path class="cls-88" d="M48.6,25.09a.23.23,0,0,0,.09.17s.09,0,.09-.06a.23.23,0,0,0-.09-.17S48.6,25,48.6,25.09Z"/><path class="cls-89" d="M48.64,25.12a.11.11,0,0,0,0,.09s0,0,0,0a.11.11,0,0,0,0-.09S48.64,25.08,48.64,25.12Z"/><path class="cls-90" d="M48.67,25.13a0,0,0,0,0,0,0s0,0,0,0a0,0,0,0,0,0,0S48.67,25.12,48.67,25.13Z"/><path class="cls-90" d="M48.85,25.26a.08.08,0,0,0,0,.06s0,0,0,0a.08.08,0,0,0,0-.06S48.85,25.23,48.85,25.26Z"/><path class="cls-91" d="M40.44,32.2l6.86,4.53a.67.67,0,0,0,.68,0L52.06,34a.25.25,0,0,0,0-.45L45.2,29.05a.67.67,0,0,0-.68,0l-4.08,2.7A.25.25,0,0,0,40.44,32.2Z"/><polygon class="cls-92" points="43.55 33.83 45.05 34.83 46.06 34.16 44.55 33.17 43.55 33.83"/><polygon class="cls-93" points="43.55 33.83 45.01 34.8 45.97 34.16 44.51 33.2 43.55 33.83"/><path class="cls-84" d="M44.6,29.36l7,4.62a.16.16,0,0,0,.16,0h0a.06.06,0,0,0,0-.11l-7-4.62a.16.16,0,0,0-.16,0h0A.06.06,0,0,0,44.6,29.36Z"/><path class="cls-84" d="M49.85,34.22l.49.32.1-.07a.12.12,0,0,0,0-.22L50.12,34Z"/><path class="cls-84" d="M49.48,34l.21.14a.11.11,0,0,0,.11,0L50,34a0,0,0,0,0,0-.07l-.21-.14a.11.11,0,0,0-.11,0l-.16.1A0,0,0,0,0,49.48,34Z"/><path class="cls-84" d="M49.05,33.69l.21.14a.11.11,0,0,0,.11,0l.16-.1a0,0,0,0,0,0-.07l-.21-.14a.11.11,0,0,0-.11,0l-.16.1A0,0,0,0,0,49.05,33.69Z"/><path class="cls-84" d="M48.62,33.41l.21.14a.11.11,0,0,0,.11,0l.16-.1a0,0,0,0,0,0-.07l-.21-.14a.11.11,0,0,0-.11,0l-.16.1A0,0,0,0,0,48.62,33.41Z"/><path class="cls-84" d="M48.2,33.12l.21.14a.11.11,0,0,0,.11,0l.16-.1a0,0,0,0,0,0-.07l-.21-.14a.11.11,0,0,0-.11,0l-.16.1A0,0,0,0,0,48.2,33.12Z"/><path class="cls-84" d="M47.77,32.84,48,33a.11.11,0,0,0,.11,0l.16-.1a0,0,0,0,0,0-.07L48,32.66a.11.11,0,0,0-.11,0l-.16.1A0,0,0,0,0,47.77,32.84Z"/><path class="cls-84" d="M47.34,32.56l.21.14a.11.11,0,0,0,.11,0l.16-.1a0,0,0,0,0,0-.07l-.21-.14a.11.11,0,0,0-.11,0l-.16.1A0,0,0,0,0,47.34,32.56Z"/><path class="cls-84" d="M46.91,32.27l.21.14a.11.11,0,0,0,.11,0l.16-.1a0,0,0,0,0,0-.07l-.21-.14a.11.11,0,0,0-.11,0l-.16.1A0,0,0,0,0,46.91,32.27Z"/><path class="cls-84" d="M46.48,32l.21.14a.11.11,0,0,0,.11,0L47,32a0,0,0,0,0,0-.07l-.21-.14a.11.11,0,0,0-.11,0l-.16.1A0,0,0,0,0,46.48,32Z"/><path class="cls-84" d="M46,31.7l.21.14a.11.11,0,0,0,.11,0l.16-.1a0,0,0,0,0,0-.07l-.21-.14a.11.11,0,0,0-.11,0l-.16.1A0,0,0,0,0,46,31.7Z"/><path class="cls-84" d="M49.14,34.2l.21.14a.11.11,0,0,0,.11,0l.16-.1a0,0,0,0,0,0-.07L49.41,34a.11.11,0,0,0-.11,0l-.16.1A0,0,0,0,0,49.14,34.2Z"/><path class="cls-84" d="M48.71,33.91l.21.14a.11.11,0,0,0,.11,0l.16-.1a0,0,0,0,0,0-.07L49,33.74a.11.11,0,0,0-.11,0l-.16.1A0,0,0,0,0,48.71,33.91Z"/><path class="cls-84" d="M48.28,33.63l.21.14a.11.11,0,0,0,.11,0l.16-.1a0,0,0,0,0,0-.07l-.21-.14a.11.11,0,0,0-.11,0l-.16.1A0,0,0,0,0,48.28,33.63Z"/><path class="cls-84" d="M47.86,33.35l.21.14a.11.11,0,0,0,.11,0l.16-.1a0,0,0,0,0,0-.07l-.21-.14a.11.11,0,0,0-.11,0l-.16.1A0,0,0,0,0,47.86,33.35Z"/><path class="cls-84" d="M47.43,33.06l.21.14a.11.11,0,0,0,.11,0l.16-.1a0,0,0,0,0,0-.07l-.21-.14a.11.11,0,0,0-.11,0l-.16.1A0,0,0,0,0,47.43,33.06Z"/><path class="cls-84" d="M47,32.78l.21.14a.11.11,0,0,0,.11,0l.16-.1a0,0,0,0,0,0-.07l-.21-.14a.11.11,0,0,0-.11,0l-.16.1A0,0,0,0,0,47,32.78Z"/><path class="cls-84" d="M46.57,32.5l.21.14a.11.11,0,0,0,.11,0l.16-.1a0,0,0,0,0,0-.07l-.21-.14a.11.11,0,0,0-.11,0l-.16.1A0,0,0,0,0,46.57,32.5Z"/><path class="cls-84" d="M46.14,32.21l.21.14a.11.11,0,0,0,.11,0l.16-.1a0,0,0,0,0,0-.07L46.41,32a.11.11,0,0,0-.11,0l-.16.1A0,0,0,0,0,46.14,32.21Z"/><path class="cls-84" d="M45.71,31.93l.21.14a.11.11,0,0,0,.11,0l.16-.1a0,0,0,0,0,0-.07L46,31.75a.11.11,0,0,0-.11,0l-.16.1A0,0,0,0,0,45.71,31.93Z"/><path class="cls-84" d="M45.27,31.65l.21.14a.11.11,0,0,0,.11,0l.16-.1a0,0,0,0,0,0-.07l-.21-.14a.11.11,0,0,0-.11,0l-.16.1A0,0,0,0,0,45.27,31.65Z"/><path class="cls-84" d="M48.8,34.42l.21.14a.11.11,0,0,0,.11,0l.16-.1a0,0,0,0,0,0-.07l-.21-.14a.11.11,0,0,0-.11,0l-.16.1A0,0,0,0,0,48.8,34.42Z"/><path class="cls-84" d="M48.37,34.14l.21.14a.11.11,0,0,0,.11,0l.16-.1a0,0,0,0,0,0-.07L48.64,34a.11.11,0,0,0-.11,0l-.16.1A0,0,0,0,0,48.37,34.14Z"/><path class="cls-84" d="M47.94,33.86l.21.14a.11.11,0,0,0,.11,0l.16-.1a0,0,0,0,0,0-.07l-.21-.14a.11.11,0,0,0-.11,0l-.16.1A0,0,0,0,0,47.94,33.86Z"/><path class="cls-84" d="M47.52,33.57l.21.14a.11.11,0,0,0,.11,0l.16-.1a0,0,0,0,0,0-.07l-.21-.14a.11.11,0,0,0-.11,0l-.16.1A0,0,0,0,0,47.52,33.57Z"/><path class="cls-84" d="M47.09,33.29l.21.14a.11.11,0,0,0,.11,0l.16-.1a0,0,0,0,0,0-.07l-.21-.14a.11.11,0,0,0-.11,0l-.16.1A0,0,0,0,0,47.09,33.29Z"/><path class="cls-84" d="M46.66,33l.21.14a.11.11,0,0,0,.11,0l.16-.1a0,0,0,0,0,0-.07l-.21-.14a.11.11,0,0,0-.11,0l-.16.1A0,0,0,0,0,46.66,33Z"/><path class="cls-84" d="M46.23,32.72l.21.14a.11.11,0,0,0,.11,0l.16-.1a0,0,0,0,0,0-.07l-.21-.14a.11.11,0,0,0-.11,0l-.16.1A0,0,0,0,0,46.23,32.72Z"/><path class="cls-84" d="M44.9,31.88l.21.14a.11.11,0,0,0,.11,0l.16-.1a0,0,0,0,0,0-.07l-.21-.14a.11.11,0,0,0-.11,0l-.16.1A0,0,0,0,0,44.9,31.88Z"/><path class="cls-84" d="M45.8,32.44l.21.14a.11.11,0,0,0,.11,0l.16-.1a0,0,0,0,0,0-.07l-.21-.14a.11.11,0,0,0-.11,0l-.16.1A0,0,0,0,0,45.8,32.44Z"/><path class="cls-84" d="M45.39,32.15l.21.14a.11.11,0,0,0,.11,0l.16-.1a0,0,0,0,0,0-.07L45.66,32a.11.11,0,0,0-.11,0l-.16.1A0,0,0,0,0,45.39,32.15Z"/><path class="cls-84" d="M48.45,34.64l.14.09a.09.09,0,0,0,.1,0l.17-.11a0,0,0,0,0,0-.06l-.14-.09a.09.09,0,0,0-.1,0l-.17.11A0,0,0,0,0,48.45,34.64Z"/><path class="cls-84" d="M48,34.36l.21.14a.11.11,0,0,0,.11,0l.16-.1a0,0,0,0,0,0-.07l-.21-.14a.11.11,0,0,0-.11,0l-.16.1A0,0,0,0,0,48,34.36Z"/><path class="cls-84" d="M47.6,34.08l.21.14a.11.11,0,0,0,.11,0l.16-.1a0,0,0,0,0,0-.07l-.21-.14a.11.11,0,0,0-.11,0l-.16.1A0,0,0,0,0,47.6,34.08Z"/><path class="cls-84" d="M47.18,33.8l.21.14a.11.11,0,0,0,.11,0l.16-.1a0,0,0,0,0,0-.07l-.21-.14a.11.11,0,0,0-.11,0l-.16.1A0,0,0,0,0,47.18,33.8Z"/><path class="cls-84" d="M46.75,33.51l.21.14a.11.11,0,0,0,.11,0l.16-.1a0,0,0,0,0,0-.07L47,33.34a.11.11,0,0,0-.11,0l-.16.1A0,0,0,0,0,46.75,33.51Z"/><path class="cls-84" d="M46.32,33.23l.21.14a.11.11,0,0,0,.11,0l.16-.1a0,0,0,0,0,0-.07l-.21-.14a.11.11,0,0,0-.11,0l-.16.1A0,0,0,0,0,46.32,33.23Z"/><path class="cls-84" d="M45.89,32.95l.21.14a.11.11,0,0,0,.11,0l.16-.1a0,0,0,0,0,0-.07l-.21-.14a.11.11,0,0,0-.11,0l-.16.1A0,0,0,0,0,45.89,32.95Z"/><path class="cls-84" d="M45.46,32.66l.21.14a.11.11,0,0,0,.11,0l.16-.1a0,0,0,0,0,0-.07l-.21-.14a.11.11,0,0,0-.11,0l-.16.1A0,0,0,0,0,45.46,32.66Z"/><path class="cls-84" d="M45,32.38l.21.14a.11.11,0,0,0,.11,0l.16-.1a0,0,0,0,0,0-.07l-.21-.14a.11.11,0,0,0-.11,0l-.16.1A0,0,0,0,0,45,32.38Z"/><path class="cls-84" d="M44.55,32.1l.21.14a.11.11,0,0,0,.11,0l.16-.1a0,0,0,0,0,0-.07l-.21-.14a.11.11,0,0,0-.11,0l-.16.1A0,0,0,0,0,44.55,32.1Z"/><path class="cls-84" d="M43.75,32l.21.14a.11.11,0,0,0,.11,0l.16-.1a0,0,0,0,0,0-.07L44,31.86a.11.11,0,0,0-.11,0l-.16.1A0,0,0,0,0,43.75,32Z"/><path class="cls-84" d="M44.77,31.31l.21.14a.11.11,0,0,0,.11,0l.16-.1a0,0,0,0,0,0-.07L45,31.13a.11.11,0,0,0-.11,0l-.16.1A0,0,0,0,0,44.77,31.31Z"/><path class="cls-84" d="M44.34,31l.21.14a.11.11,0,0,0,.11,0l.16-.1a0,0,0,0,0,0-.07l-.21-.14a.11.11,0,0,0-.11,0l-.16.1A0,0,0,0,0,44.34,31Z"/><path class="cls-84" d="M44.73,30.84l.21.14a.11.11,0,0,0,.11,0l.16-.1a0,0,0,0,0,0-.07L45,30.66a.11.11,0,0,0-.11,0l-.16.1A0,0,0,0,0,44.73,30.84Z"/><path class="cls-84" d="M43.91,30.74l.21.14a.11.11,0,0,0,.11,0l.16-.1a0,0,0,0,0,0-.07l-.21-.14a.11.11,0,0,0-.11,0l-.16.1A0,0,0,0,0,43.91,30.74Z"/><path class="cls-84" d="M44.29,30.51l.21.14a.11.11,0,0,0,.11,0l.16-.1a0,0,0,0,0,0-.07l-.21-.14a.11.11,0,0,0-.11,0l-.16.1A0,0,0,0,0,44.29,30.51Z"/><path class="cls-84" d="M43.49,30.46l.21.14a.11.11,0,0,0,.11,0l.16-.1a0,0,0,0,0,0-.07l-.21-.14a.11.11,0,0,0-.11,0l-.16.1A0,0,0,0,0,43.49,30.46Z"/><path class="cls-84" d="M44.43,31.54l.21.14a.11.11,0,0,0,.11,0l.16-.1a0,0,0,0,0,0-.07l-.21-.14a.11.11,0,0,0-.11,0l-.16.1A0,0,0,0,0,44.43,31.54Z"/><path class="cls-84" d="M44,31.25l.21.14a.11.11,0,0,0,.11,0l.16-.1a0,0,0,0,0,0-.07l-.21-.14a.11.11,0,0,0-.11,0l-.16.1A0,0,0,0,0,44,31.25Z"/><path class="cls-84" d="M43.57,31l.21.14a.11.11,0,0,0,.11,0l.16-.1a0,0,0,0,0,0-.07l-.21-.14a.11.11,0,0,0-.11,0l-.16.1A0,0,0,0,0,43.57,31Z"/><path class="cls-84" d="M43.15,30.68l.21.14a.11.11,0,0,0,.11,0l.16-.1a0,0,0,0,0,0-.07l-.21-.14a.11.11,0,0,0-.11,0l-.16.1A0,0,0,0,0,43.15,30.68Z"/><path class="cls-84" d="M44.08,31.77l.21.14a.11.11,0,0,0,.11,0l.16-.1a0,0,0,0,0,0-.07l-.21-.14a.11.11,0,0,0-.11,0l-.16.1A0,0,0,0,0,44.08,31.77Z"/><path class="cls-84" d="M43.66,31.48l.21.14a.11.11,0,0,0,.11,0l.16-.1a0,0,0,0,0,0-.07l-.21-.14a.11.11,0,0,0-.11,0l-.16.1A0,0,0,0,0,43.66,31.48Z"/><path class="cls-84" d="M43.34,31.74l.21.14a.11.11,0,0,0,.11,0l.16-.1a0,0,0,0,0,0-.07l-.21-.14a.11.11,0,0,0-.11,0l-.16.1A0,0,0,0,0,43.34,31.74Z"/><path class="cls-84" d="M43.23,31.19l.21.14a.11.11,0,0,0,.11,0l.16-.1a0,0,0,0,0,0-.07L43.5,31a.11.11,0,0,0-.11,0l-.16.1A0,0,0,0,0,43.23,31.19Z"/><path class="cls-84" d="M42.9,31.44l.21.14a.11.11,0,0,0,.11,0l.16-.1a0,0,0,0,0,0-.07l-.21-.14a.11.11,0,0,0-.11,0l-.16.1A0,0,0,0,0,42.9,31.44Z"/><path class="cls-84" d="M42.81,30.91,43,31a.11.11,0,0,0,.11,0l.16-.1a0,0,0,0,0,0-.07l-.21-.14a.11.11,0,0,0-.11,0l-.16.1A0,0,0,0,0,42.81,30.91Z"/><path class="cls-84" d="M45.62,31.42l.21.14a.11.11,0,0,0,.11,0l.16-.1a0,0,0,0,0,0-.07l-.21-.14a.11.11,0,0,0-.11,0l-.16.1A0,0,0,0,0,45.62,31.42Z"/><path class="cls-84" d="M45.22,31.14l.21.14a.11.11,0,0,0,.11,0l.16-.1a0,0,0,0,0,0-.07L45.48,31a.11.11,0,0,0-.11,0l-.16.1A0,0,0,0,0,45.22,31.14Z"/><path class="cls-84" d="M43.77,30.2l.32.21.27-.18-.05,0a.53.53,0,0,0-.53,0Z"/><path class="cls-84" d="M49.58,34.48l.35.23a.13.13,0,0,0,.14,0l.13-.09a.05.05,0,0,0,0-.09l-.35-.23a.13.13,0,0,0-.14,0l-.13.09A.05.05,0,0,0,49.58,34.48Z"/><path class="cls-84" d="M49.23,34.71l.36.24a.13.13,0,0,0,.13,0l.13-.09a0,0,0,0,0,0-.09l-.36-.24a.13.13,0,0,0-.13,0l-.13.09A0,0,0,0,0,49.23,34.71Z"/><path class="cls-84" d="M48.76,34.84l.49.32a.14.14,0,0,0,.14,0l.12-.08a.05.05,0,0,0,0-.09L49,34.66a.14.14,0,0,0-.14,0l-.12.08A.05.05,0,0,0,48.76,34.84Z"/><path class="cls-84" d="M48.48,35.12l.22.15a.53.53,0,0,0,.53,0h0l-.49-.32Z"/><path class="cls-84" d="M48.13,34.89l.17.11a.15.15,0,0,0,.15,0l.12-.08a.06.06,0,0,0,0-.1l-.17-.11a.15.15,0,0,0-.15,0l-.12.08A.06.06,0,0,0,48.13,34.89Z"/><path class="cls-84" d="M47.71,34.6l.17.11a.15.15,0,0,0,.15,0l.12-.08a.06.06,0,0,0,0-.1L48,34.43a.15.15,0,0,0-.15,0l-.12.08A.06.06,0,0,0,47.71,34.6Z"/><path class="cls-84" d="M47.21,34.28l.23.15a.16.16,0,0,0,.17,0l.1-.07a.06.06,0,0,0,0-.11l-.23-.15a.16.16,0,0,0-.17,0l-.1.07A.06.06,0,0,0,47.21,34.28Z"/><path class="cls-84" d="M45.14,32.91,47,34.12a.14.14,0,0,0,.14,0l.13-.09a.05.05,0,0,0,0-.09L45.4,32.73a.14.14,0,0,0-.14,0l-.13.09A.05.05,0,0,0,45.14,32.91Z"/><path class="cls-84" d="M44.73,32.64l.15.1a.17.17,0,0,0,.17,0l.09-.06a.06.06,0,0,0,0-.11l-.15-.1a.17.17,0,0,0-.17,0l-.09.06A.06.06,0,0,0,44.73,32.64Z"/><path class="cls-84" d="M44.32,32.37l.1.06a.22.22,0,0,0,.22,0l0,0a.08.08,0,0,0,0-.15l-.1-.06a.22.22,0,0,0-.22,0l0,0A.08.08,0,0,0,44.32,32.37Z"/><path class="cls-84" d="M42.57,31.21l.15.1.27-.18-.32-.21-.1.07A.12.12,0,0,0,42.57,31.21Z"/><path class="cls-84" d="M50.58,33.76l.31.21a.25.25,0,0,0,.25,0l0,0a.09.09,0,0,0,0-.17l-.31-.21a.25.25,0,0,0-.25,0l0,0A.09.09,0,0,0,50.58,33.76Z"/><path class="cls-94" d="M50.79,33.72a.06.06,0,0,0,0,.11.16.16,0,0,0,.17,0,.06.06,0,0,0,0-.11A.16.16,0,0,0,50.79,33.72Z"/><polygon class="cls-11" points="48.3 36.77 48.58 36.59 48.58 36.42 48.3 36.6 48.3 36.77"/><polygon class="cls-95" points="48.32 36.75 48.56 36.59 48.56 36.44 48.32 36.6 48.32 36.75"/><polygon class="cls-96" points="48.55 36.45 48.32 36.61 48.32 36.67 48.55 36.52 48.55 36.45"/><polygon class="cls-11" points="48.65 36.55 48.92 36.37 48.92 36.2 48.65 36.38 48.65 36.55"/><polygon class="cls-95" points="48.66 36.53 48.91 36.37 48.91 36.22 48.66 36.38 48.66 36.53"/><polygon class="cls-96" points="48.9 36.23 48.67 36.39 48.67 36.45 48.9 36.3 48.9 36.23"/><path class="cls-11" d="M50.53,35.13v.05h0c.07,0,.12,0,.12.08l.52-.34a.32.32,0,0,1,.12-.25v-.05Z"/><path class="cls-97" d="M50.59,35.11v0h0s.06.06.07.09l.48-.31a.47.47,0,0,1,0-.11l0-.09v0Z"/><polygon class="cls-98" points="51.08 34.84 51.12 34.82 51.12 34.79 51.08 34.82 51.08 34.84"/><polygon class="cls-98" points="51.03 34.88 51.07 34.85 51.07 34.83 51.03 34.85 51.03 34.88"/><polygon class="cls-98" points="50.98 34.91 51.02 34.89 51.02 34.86 50.98 34.89 50.98 34.91"/><polygon class="cls-98" points="50.92 34.95 50.96 34.92 50.96 34.9 50.92 34.92 50.92 34.95"/><polygon class="cls-98" points="50.87 34.98 50.91 34.96 50.91 34.93 50.87 34.96 50.87 34.98"/><polygon class="cls-98" points="50.82 35.02 50.86 34.99 50.86 34.97 50.82 34.99 50.82 35.02"/><polygon class="cls-98" points="50.77 35.05 50.8 35.03 50.8 35 50.77 35.03 50.77 35.05"/><polygon class="cls-98" points="50.71 35.09 50.75 35.06 50.75 35.04 50.71 35.06 50.71 35.09"/><polygon class="cls-98" points="51.06 34.9 51.1 34.88 51.1 34.85 51.06 34.88 51.06 34.9"/><polygon class="cls-98" points="51 34.94 51.04 34.91 51.04 34.88 51 34.91 51 34.94"/><polygon class="cls-98" points="50.95 34.97 50.99 34.94 50.99 34.92 50.95 34.95 50.95 34.97"/><polygon class="cls-98" points="50.9 35.01 50.94 34.98 50.94 34.95 50.9 34.98 50.9 35.01"/><polygon class="cls-98" points="50.84 35.04 50.88 35.01 50.88 34.99 50.84 35.02 50.84 35.04"/><polygon class="cls-98" points="50.79 35.08 50.83 35.05 50.83 35.02 50.79 35.05 50.79 35.08"/><polygon class="cls-98" points="50.74 35.11 50.78 35.08 50.78 35.06 50.74 35.09 50.74 35.11"/><rect class="cls-99" x="40.67" y="39.25" width="0.46" height="0.46"/><rect class="cls-99" x="52.12" y="41.14" width="0.53" height="0.46"/><path class="cls-99" d="M52.44,41.28l-6.89-4a1.12,1.12,0,0,0-1,0l-3.66,2.11a.31.31,0,0,0,0,.58l6.89,4a1.12,1.12,0,0,0,1,0l3.66-2.11A.31.31,0,0,0,52.44,41.28Z"/><path class="cls-11" d="M52.44,41.41l-3.66,2.11a1.12,1.12,0,0,1-1,0l-6.89-4a.31.31,0,0,1,0-.58l3.66-2.11a1.12,1.12,0,0,1,1,0l6.89,4A.31.31,0,0,1,52.44,41.41Z"/><polygon class="cls-99" points="52.12 40.81 47.73 43.35 41.04 39.48 45.43 36.95 52.12 40.81"/><polygon class="cls-100" points="51.74 40.71 47.55 43.13 41.42 39.59 45.61 37.17 51.74 40.71"/><path class="cls-99" d="M50.9,42l-1,.6a.26.26,0,0,1-.23,0h0a.07.07,0,0,1,0-.13l1-.6a.26.26,0,0,1,.23,0h0A.07.07,0,0,1,50.9,42Z"/><path class="cls-99" d="M43.1,38a.1.1,0,0,1,0,.18.35.35,0,0,1-.31,0,.1.1,0,0,1,0-.18A.35.35,0,0,1,43.1,38Z"/><path class="cls-101" d="M43,38.06a.05.05,0,0,1,0,.1.19.19,0,0,1-.17,0,.05.05,0,0,1,0-.1A.19.19,0,0,1,43,38.06Z"/><path class="cls-102" d="M43,38.09a0,0,0,0,1,0,0h-.06a0,0,0,0,1,0,0Z"/><path class="cls-102" d="M43.16,37.87a0,0,0,0,1,0,.06.11.11,0,0,1-.1,0,0,0,0,0,1,0-.06A.11.11,0,0,1,43.16,37.87Z"/><path class="cls-99" d="M43.14,37.88a0,0,0,0,1,0,0h-.06a0,0,0,0,1,0,0Z"/><path class="cls-11" d="M41.24,39.87l1.08.62a.24.24,0,0,1,.11.19h0c0,.07,0,.1-.11.06l-1.08-.62a.24.24,0,0,1-.11-.19h0C41.13,39.86,41.18,39.83,41.24,39.87Z"/><path class="cls-11" d="M50.12,42.91V43a.24.24,0,0,0-.1.19h0l-.41.24c0-.08,0-.1-.11-.07v-.08Z"/><path class="cls-95" d="M50.08,42.95V43a.2.2,0,0,0-.09.16h0l-.34.2c0-.06,0-.09-.1-.06v-.08Z"/><polygon class="cls-103" points="49.72 43.22 49.63 43.27 49.63 43.24 49.72 43.19 49.72 43.22"/><polygon class="cls-103" points="49.85 43.15 49.77 43.2 49.77 43.16 49.85 43.11 49.85 43.15"/><polygon class="cls-103" points="49.98 43.07 49.9 43.12 49.9 43.09 49.98 43.03 49.98 43.07"/><polygon class="cls-104" points="42.35 42.78 42.35 43.12 42.1 42.95 42.35 42.78"/><polygon class="cls-104" points="28.1 41.12 28.1 41.48 28.32 41.27 28.1 41.12"/><path class="cls-104" d="M28.31,41.16l5-3a1.08,1.08,0,0,1,1,0l7.8,4.67a.32.32,0,0,1,0,.61l-5,3a1.08,1.08,0,0,1-1,0l-7.8-4.67A.32.32,0,0,1,28.31,41.16Z"/><path class="cls-105" d="M28.31,41.42l7.8,4.67a1.08,1.08,0,0,0,1,0l5-3a.32.32,0,0,0,0-.61l-7.8-4.67a1.08,1.08,0,0,0-1,0l-5,3A.32.32,0,0,0,28.31,41.42Z"/><polygon class="cls-83" points="28.97 41 36.81 45.7 41.52 42.88 33.68 38.18 28.97 41"/><polygon class="cls-106" points="35.51 44.92 36.24 45.35 40.95 42.53 40.23 42.09 35.51 44.92"/></g></g></g></svg>