<svg xmlns="http://www.w3.org/2000/svg" xmlns:xlink="http://www.w3.org/1999/xlink" viewBox="0 0 366.71 279.93"><defs><style>.cls-1{mask:url(#mask);filter:url(#luminosity-noclip-2);}.cls-2{mix-blend-mode:multiply;fill:url(#Áåçûìÿííûé_ãðàäèåíò_6);}.cls-3{fill:none;}.cls-4,.cls-70,.cls-71,.cls-72,.cls-76,.cls-81,.cls-82,.cls-83,.cls-87{opacity:0.48;}.cls-5{fill:url(#Áåçûìÿííûé_ãðàäèåíò_254);}.cls-6{fill:url(#Áåçûìÿííûé_ãðàäèåíò_254-2);}.cls-7{fill:url(#Áåçûìÿííûé_ãðàäèåíò_254-3);}.cls-8{fill:url(#Áåçûìÿííûé_ãðàäèåíò_254-4);}.cls-9{opacity:0.67;}.cls-10{fill:#0f054c;}.cls-11{opacity:0.9;}.cls-12{fill:#080344;}.cls-13{fill:#24126a;}.cls-14{fill:url(#Áåçûìÿííûé_ãðàäèåíò_260);}.cls-15{fill:url(#Áåçûìÿííûé_ãðàäèåíò_3);}.cls-16{fill:#393091;}.cls-17{fill:#cad0f9;}.cls-18{opacity:0.51;}.cls-19{fill:#453c9e;}.cls-20{fill:#bcbeff;}.cls-21{mask:url(#mask-2);}.cls-22{opacity:0.78;fill:url(#Áåçûìÿííûé_ãðàäèåíò_14);}.cls-23{fill:url(#Áåçûìÿííûé_ãðàäèåíò_24);}.cls-24{fill:url(#Áåçûìÿííûé_ãðàäèåíò_3-2);}.cls-25{fill:url(#Áåçûìÿííûé_ãðàäèåíò_3-3);}.cls-26{fill:#3f21d3;}.cls-27{fill:url(#Áåçûìÿííûé_ãðàäèåíò_24-2);}.cls-28{fill:url(#Áåçûìÿííûé_ãðàäèåíò_24-3);}.cls-29{fill:url(#Áåçûìÿííûé_ãðàäèåíò_24-4);}.cls-30{fill:url(#Áåçûìÿííûé_ãðàäèåíò_24-5);}.cls-31{fill:url(#Áåçûìÿííûé_ãðàäèåíò_24-6);}.cls-32{fill:url(#Áåçûìÿííûé_ãðàäèåíò_24-7);}.cls-33{fill:url(#Áåçûìÿííûé_ãðàäèåíò_24-8);}.cls-34{fill:url(#Áåçûìÿííûé_ãðàäèåíò_24-9);}.cls-35{fill:url(#Áåçûìÿííûé_ãðàäèåíò_24-10);}.cls-36{fill:url(#Áåçûìÿííûé_ãðàäèåíò_24-11);}.cls-37{fill:url(#Áåçûìÿííûé_ãðàäèåíò_24-12);}.cls-38{fill:url(#Áåçûìÿííûé_ãðàäèåíò_24-13);}.cls-39{fill:url(#Áåçûìÿííûé_ãðàäèåíò_24-14);}.cls-40{fill:url(#Áåçûìÿííûé_ãðàäèåíò_24-15);}.cls-41{fill:url(#Áåçûìÿííûé_ãðàäèåíò_3-4);}.cls-42{fill:#2842a2;}.cls-43{fill:#adb1f2;}.cls-44{fill:#9198db;}.cls-45{fill:url(#Áåçûìÿííûé_ãðàäèåíò_3-5);}.cls-46{opacity:0.11;}.cls-47{clip-path:url(#clip-path);}.cls-48{fill:url(#Áåçûìÿííûé_ãðàäèåíò_3-6);}.cls-49{fill:url(#Áåçûìÿííûé_ãðàäèåíò_3-7);}.cls-50{fill:#42e8e0;}.cls-51{fill:url(#Áåçûìÿííûé_ãðàäèåíò_3-8);}.cls-52{fill:url(#Áåçûìÿííûé_ãðàäèåíò_24-16);}.cls-53{fill:url(#Áåçûìÿííûé_ãðàäèåíò_3-9);}.cls-54{fill:url(#Áåçûìÿííûé_ãðàäèåíò_24-17);}.cls-55{fill:url(#Áåçûìÿííûé_ãðàäèåíò_3-10);}.cls-56{fill:url(#Áåçûìÿííûé_ãðàäèåíò_24-18);}.cls-57{fill:url(#Áåçûìÿííûé_ãðàäèåíò_3-11);}.cls-58{fill:url(#Áåçûìÿííûé_ãðàäèåíò_24-19);}.cls-59{fill:url(#Áåçûìÿííûé_ãðàäèåíò_3-12);}.cls-60{fill:url(#Áåçûìÿííûé_ãðàäèåíò_24-20);}.cls-61{fill:url(#Áåçûìÿííûé_ãðàäèåíò_3-13);}.cls-62{fill:url(#Áåçûìÿííûé_ãðàäèåíò_24-21);}.cls-63{opacity:0.2;}.cls-64{clip-path:url(#clip-path-2);}.cls-65{fill:url(#Áåçûìÿííûé_ãðàäèåíò_18);}.cls-66{fill:#fff;}.cls-67{fill:url(#Áåçûìÿííûé_ãðàäèåíò_18-2);}.cls-68{fill:url(#Áåçûìÿííûé_ãðàäèåíò_18-3);}.cls-69{fill:url(#Áåçûìÿííûé_ãðàäèåíò_18-4);}.cls-70{fill:url(#Áåçûìÿííûé_ãðàäèåíò_254-5);}.cls-71{fill:url(#Áåçûìÿííûé_ãðàäèåíò_254-6);}.cls-72{fill:url(#Áåçûìÿííûé_ãðàäèåíò_254-7);}.cls-73{fill:url(#Áåçûìÿííûé_ãðàäèåíò_18-5);}.cls-74{fill:url(#Áåçûìÿííûé_ãðàäèåíò_18-6);}.cls-75,.cls-86{opacity:0.5;}.cls-75{fill:url(#Áåçûìÿííûé_ãðàäèåíò_254-8);}.cls-76{fill:url(#Áåçûìÿííûé_ãðàäèåíò_254-9);}.cls-77{fill:url(#Áåçûìÿííûé_ãðàäèåíò_18-7);}.cls-78{fill:url(#Áåçûìÿííûé_ãðàäèåíò_18-8);}.cls-79{fill:url(#Áåçûìÿííûé_ãðàäèåíò_18-9);}.cls-80{fill:url(#Áåçûìÿííûé_ãðàäèåíò_18-10);}.cls-81{fill:url(#Áåçûìÿííûé_ãðàäèåíò_254-10);}.cls-82{fill:url(#Áåçûìÿííûé_ãðàäèåíò_254-11);}.cls-83{fill:url(#Áåçûìÿííûé_ãðàäèåíò_254-12);}.cls-84{fill:url(#Áåçûìÿííûé_ãðàäèåíò_18-11);}.cls-85{fill:url(#Áåçûìÿííûé_ãðàäèåíò_18-12);}.cls-86{fill:url(#Áåçûìÿííûé_ãðàäèåíò_254-13);}.cls-87{fill:url(#Áåçûìÿííûé_ãðàäèåíò_254-14);}.cls-88{fill:url(#Áåçûìÿííûé_ãðàäèåíò_254-15);}.cls-89{fill:url(#Áåçûìÿííûé_ãðàäèåíò_254-16);}.cls-90{fill:url(#Áåçûìÿííûé_ãðàäèåíò_254-17);}.cls-91{fill:url(#Áåçûìÿííûé_ãðàäèåíò_254-18);}.cls-92{filter:url(#luminosity-noclip);}</style><filter id="luminosity-noclip" x="117.16" y="-8320.58" width="77.95" height="32766" filterUnits="userSpaceOnUse" color-interpolation-filters="sRGB"><feFlood flood-color="#fff" result="bg"/><feBlend in="SourceGraphic" in2="bg"/></filter><mask id="mask" x="117.16" y="-8320.58" width="77.95" height="32766" maskUnits="userSpaceOnUse"><g class="cls-92"/></mask><linearGradient id="Áåçûìÿííûé_ãðàäèåíò_6" x1="129.27" y1="35.36" x2="207.22" y2="35.36" gradientUnits="userSpaceOnUse"><stop offset="0"/><stop offset="0.05" stop-color="#2f2f2f"/><stop offset="0.1" stop-color="#5a5a5a"/><stop offset="0.15" stop-color="#828282"/><stop offset="0.22" stop-color="#a4a4a4"/><stop offset="0.28" stop-color="silver"/><stop offset="0.36" stop-color="#d7d7d7"/><stop offset="0.44" stop-color="#e9e9e9"/><stop offset="0.54" stop-color="#f6f6f6"/><stop offset="0.68" stop-color="#fdfdfd"/><stop offset="1" stop-color="#fff"/></linearGradient><linearGradient id="Áåçûìÿííûé_ãðàäèåíò_254" x1="350.39" y1="115.28" x2="366.71" y2="115.28" gradientUnits="userSpaceOnUse"><stop offset="0" stop-color="#42e8e0"/><stop offset="0.15" stop-color="#43e3e0"/><stop offset="0.33" stop-color="#45d5df"/><stop offset="0.52" stop-color="#49bddd"/><stop offset="0.72" stop-color="#4e9cdb"/><stop offset="0.93" stop-color="#5472d8"/><stop offset="1" stop-color="#5761d7"/></linearGradient><linearGradient id="Áåçûìÿííûé_ãðàäèåíò_254-2" x1="210.37" y1="49.28" x2="312" y2="49.28" xlink:href="#Áåçûìÿííûé_ãðàäèåíò_254"/><linearGradient id="Áåçûìÿííûé_ãðàäèåíò_254-3" x1="43.93" y1="53.4" x2="139.94" y2="53.4" xlink:href="#Áåçûìÿííûé_ãðàäèåíò_254"/><linearGradient id="Áåçûìÿííûé_ãðàäèåíò_254-4" x1="0" y1="119.51" x2="10.29" y2="119.51" xlink:href="#Áåçûìÿííûé_ãðàäèåíò_254"/><linearGradient id="Áåçûìÿííûé_ãðàäèåíò_260" x1="108.9" y1="189.37" x2="252.45" y2="189.37" gradientUnits="userSpaceOnUse"><stop offset="0" stop-color="#5761d7"/><stop offset="0.07" stop-color="#5472d8"/><stop offset="0.28" stop-color="#4e9cdb"/><stop offset="0.48" stop-color="#49bddd"/><stop offset="0.67" stop-color="#45d5df"/><stop offset="0.85" stop-color="#43e3e0"/><stop offset="1" stop-color="#42e8e0"/></linearGradient><linearGradient id="Áåçûìÿííûé_ãðàäèåíò_3" x1="219.99" y1="213.84" x2="219.99" y2="45.3" gradientUnits="userSpaceOnUse"><stop offset="0" stop-color="#c0bff6"/><stop offset="0.29" stop-color="#c5c4f7"/><stop offset="0.64" stop-color="#d3d2f9"/><stop offset="1" stop-color="#e9e9fd"/></linearGradient><filter id="luminosity-noclip-2" x="117.16" y="2.28" width="77.95" height="66.15" filterUnits="userSpaceOnUse" color-interpolation-filters="sRGB"><feFlood flood-color="#fff" result="bg"/><feBlend in="SourceGraphic" in2="bg"/></filter><mask id="mask-2" x="117.16" y="2.28" width="77.95" height="66.15" maskUnits="userSpaceOnUse"><g class="cls-1"><path class="cls-2" d="M166.24,2.28h-5.48L117.89,27c-.89.52-1,1.3-.22,1.74l2.08,1.2,66.6,38.45,8.75-.1Z"/></g></mask><linearGradient id="Áåçûìÿííûé_ãðàäèåíò_14" x1="129.27" y1="35.36" x2="207.22" y2="35.36" gradientUnits="userSpaceOnUse"><stop offset="0" stop-color="#e9e9fd"/><stop offset="0.04" stop-color="#d3d5f7"/><stop offset="0.11" stop-color="#b2b6ef"/><stop offset="0.18" stop-color="#969be7"/><stop offset="0.27" stop-color="#7f86e1"/><stop offset="0.36" stop-color="#6d75dd"/><stop offset="0.48" stop-color="#606ad9"/><stop offset="0.64" stop-color="#5963d8"/><stop offset="1" stop-color="#5761d7"/></linearGradient><linearGradient id="Áåçûìÿííûé_ãðàäèåíò_24" x1="125.83" y1="36.67" x2="230.18" y2="36.67" gradientUnits="userSpaceOnUse"><stop offset="0" stop-color="#5761d7"/><stop offset="0.18" stop-color="#5c66d9"/><stop offset="0.39" stop-color="#6a73df"/><stop offset="0.61" stop-color="#8289e8"/><stop offset="0.85" stop-color="#a3a7f5"/><stop offset="1" stop-color="#bcbeff"/></linearGradient><linearGradient id="Áåçûìÿííûé_ãðàäèåíò_3-2" x1="195.11" y1="55.31" x2="235.51" y2="55.31" xlink:href="#Áåçûìÿííûé_ãðàäèåíò_3"/><linearGradient id="Áåçûìÿííûé_ãðàäèåíò_3-3" x1="125.83" y1="33.95" x2="235.51" y2="33.95" xlink:href="#Áåçûìÿííûé_ãðàäèåíò_3"/><linearGradient id="Áåçûìÿííûé_ãðàäèåíò_24-2" x1="149.88" y1="18.65" x2="162.78" y2="18.65" xlink:href="#Áåçûìÿííûé_ãðàäèåíò_24"/><linearGradient id="Áåçûìÿííûé_ãðàäèåíò_24-3" x1="153.23" y1="20.58" x2="166.13" y2="20.58" xlink:href="#Áåçûìÿííûé_ãðàäèåíò_24"/><linearGradient id="Áåçûìÿííûé_ãðàäèåíò_24-4" x1="156.58" y1="22.51" x2="169.48" y2="22.51" xlink:href="#Áåçûìÿííûé_ãðàäèåíò_24"/><linearGradient id="Áåçûìÿííûé_ãðàäèåíò_24-5" x1="159.93" y1="24.44" x2="172.83" y2="24.44" xlink:href="#Áåçûìÿííûé_ãðàäèåíò_24"/><linearGradient id="Áåçûìÿííûé_ãðàäèåíò_24-6" x1="169.72" y1="30.13" x2="182.63" y2="30.13" xlink:href="#Áåçûìÿííûé_ãðàäèåíò_24"/><linearGradient id="Áåçûìÿííûé_ãðàäèåíò_24-7" x1="173.07" y1="32.06" x2="185.98" y2="32.06" xlink:href="#Áåçûìÿííûé_ãðàäèåíò_24"/><linearGradient id="Áåçûìÿííûé_ãðàäèåíò_24-8" x1="176.42" y1="33.99" x2="189.33" y2="33.99" xlink:href="#Áåçûìÿííûé_ãðàäèåíò_24"/><linearGradient id="Áåçûìÿííûé_ãðàäèåíò_24-9" x1="179.77" y1="35.91" x2="192.68" y2="35.91" xlink:href="#Áåçûìÿííûé_ãðàäèåíò_24"/><linearGradient id="Áåçûìÿííûé_ãðàäèåíò_24-10" x1="189.57" y1="41.6" x2="202.47" y2="41.6" xlink:href="#Áåçûìÿííûé_ãðàäèåíò_24"/><linearGradient id="Áåçûìÿííûé_ãðàäèåíò_24-11" x1="192.92" y1="43.53" x2="205.82" y2="43.53" xlink:href="#Áåçûìÿííûé_ãðàäèåíò_24"/><linearGradient id="Áåçûìÿííûé_ãðàäèåíò_24-12" x1="196.27" y1="45.46" x2="209.17" y2="45.46" xlink:href="#Áåçûìÿííûé_ãðàäèåíò_24"/><linearGradient id="Áåçûìÿííûé_ãðàäèåíò_24-13" x1="199.62" y1="47.39" x2="212.52" y2="47.39" xlink:href="#Áåçûìÿííûé_ãðàäèåíò_24"/><linearGradient id="Áåçûìÿííûé_ãðàäèåíò_24-14" x1="236.41" y1="138.91" x2="209.09" y2="118.61" xlink:href="#Áåçûìÿííûé_ãðàäèåíò_24"/><linearGradient id="Áåçûìÿííûé_ãðàäèåíò_24-15" x1="202.98" y1="157.79" x2="257.51" y2="157.79" xlink:href="#Áåçûìÿííûé_ãðàäèåíò_24"/><linearGradient id="Áåçûìÿííûé_ãðàäèåíò_3-4" x1="221.3" y1="155.97" x2="275.87" y2="155.97" xlink:href="#Áåçûìÿííûé_ãðàäèåíò_3"/><linearGradient id="Áåçûìÿííûé_ãðàäèåíò_3-5" x1="230.54" y1="159.07" x2="244.51" y2="159.07" xlink:href="#Áåçûìÿííûé_ãðàäèåíò_3"/><clipPath id="clip-path"><polygon class="cls-3" points="233.32 140.3 233.32 97.79 202.96 115.31 202.96 157.83 233.32 140.3"/></clipPath><linearGradient id="Áåçûìÿííûé_ãðàäèåíò_3-6" x1="200.68" y1="143.84" x2="254.98" y2="143.84" xlink:href="#Áåçûìÿííûé_ãðàäèåíò_3"/><linearGradient id="Áåçûìÿííûé_ãðàäèåíò_3-7" x1="197.1" y1="139.85" x2="211" y2="139.85" xlink:href="#Áåçûìÿííûé_ãðàäèåíò_3"/><linearGradient id="Áåçûìÿííûé_ãðàäèåíò_3-8" x1="187.07" y1="74.65" x2="190.37" y2="74.65" xlink:href="#Áåçûìÿííûé_ãðàäèåíò_3"/><linearGradient id="Áåçûìÿííûé_ãðàäèåíò_24-16" x1="186.66" y1="74.99" x2="189.4" y2="74.99" xlink:href="#Áåçûìÿííûé_ãðàäèåíò_24"/><linearGradient id="Áåçûìÿííûé_ãðàäèåíò_3-9" x1="119.49" y1="35.86" x2="122.8" y2="35.86" xlink:href="#Áåçûìÿííûé_ãðàäèåíò_3"/><linearGradient id="Áåçûìÿííûé_ãðàäèåíò_24-17" x1="119.09" y1="36.2" x2="121.83" y2="36.2" xlink:href="#Áåçûìÿííûé_ãðàäèåíò_24"/><linearGradient id="Áåçûìÿííûé_ãðàäèåíò_3-10" x1="187.07" y1="206.03" x2="190.37" y2="206.03" xlink:href="#Áåçûìÿííûé_ãðàäèåíò_3"/><linearGradient id="Áåçûìÿííûé_ãðàäèåíò_24-18" x1="186.66" y1="206.41" x2="189.4" y2="206.41" xlink:href="#Áåçûìÿííûé_ãðàäèåíò_24"/><linearGradient id="Áåçûìÿííûé_ãðàäèåíò_3-11" x1="187.07" y1="206.31" x2="190.37" y2="206.31" xlink:href="#Áåçûìÿííûé_ãðàäèåíò_3"/><linearGradient id="Áåçûìÿííûé_ãðàäèåíò_24-19" x1="186.66" y1="206.31" x2="189.4" y2="206.31" xlink:href="#Áåçûìÿííûé_ãðàäèåíò_24"/><linearGradient id="Áåçûìÿííûé_ãðàäèåíò_3-12" x1="119.49" y1="167.24" x2="122.8" y2="167.24" xlink:href="#Áåçûìÿííûé_ãðàäèåíò_3"/><linearGradient id="Áåçûìÿííûé_ãðàäèåíò_24-20" x1="119.09" y1="167.62" x2="121.83" y2="167.62" xlink:href="#Áåçûìÿííûé_ãðàäèåíò_24"/><linearGradient id="Áåçûìÿííûé_ãðàäèåíò_3-13" x1="119.5" y1="167.52" x2="122.8" y2="167.52" xlink:href="#Áåçûìÿííûé_ãðàäèåíò_3"/><linearGradient id="Áåçûìÿííûé_ãðàäèåíò_24-21" x1="119.09" y1="167.52" x2="121.83" y2="167.52" xlink:href="#Áåçûìÿííûé_ãðàäèåíò_24"/><clipPath id="clip-path-2"><polygon class="cls-3" points="120.95 35.72 188.52 74.73 188.52 206.14 120.95 167.13 120.95 35.72"/></clipPath><linearGradient id="Áåçûìÿííûé_ãðàäèåíò_18" x1="3246.08" y1="-999.72" x2="3254.06" y2="-999.72" gradientTransform="matrix(-0.87, 0.5, 1, 0.58, 3978.84, -889.3)" gradientUnits="userSpaceOnUse"><stop offset="0" stop-color="#5761d7"/><stop offset="0.16" stop-color="#5e67da"/><stop offset="0.41" stop-color="#727ae2"/><stop offset="0.69" stop-color="#9297ee"/><stop offset="1" stop-color="#bcbeff"/></linearGradient><linearGradient id="Áåçûìÿííûé_ãðàäèåíò_18-2" x1="3255.57" y1="-991.51" x2="3263.54" y2="-991.51" xlink:href="#Áåçûìÿííûé_ãðàäèåíò_18"/><linearGradient id="Áåçûìÿííûé_ãðàäèåíò_18-3" x1="3265.22" y1="-983.15" x2="3273.19" y2="-983.15" xlink:href="#Áåçûìÿííûé_ãðàäèåíò_18"/><linearGradient id="Áåçûìÿííûé_ãðàäèåíò_18-4" x1="4716.16" y1="165.93" x2="4742.86" y2="165.93" gradientTransform="matrix(-1, 0, 0, 1, 4898.7, 0)" xlink:href="#Áåçûìÿííûé_ãðàäèåíò_18"/><linearGradient id="Áåçûìÿííûé_ãðàäèåíò_254-5" x1="4729.26" y1="157.44" x2="4739.02" y2="157.44" gradientTransform="matrix(-1, 0, 0, 1, 4898.7, 0)" xlink:href="#Áåçûìÿííûé_ãðàäèåíò_254"/><linearGradient id="Áåçûìÿííûé_ãðàäèåíò_254-6" x1="4729.26" y1="166.92" x2="4739.02" y2="166.92" gradientTransform="matrix(-1, 0, 0, 1, 4898.7, 0)" xlink:href="#Áåçûìÿííûé_ãðàäèåíò_254"/><linearGradient id="Áåçûìÿííûé_ãðàäèåíò_254-7" x1="4729.26" y1="176.58" x2="4739.02" y2="176.58" gradientTransform="matrix(-1, 0, 0, 1, 4898.7, 0)" xlink:href="#Áåçûìÿííûé_ãðàäèåíò_254"/><linearGradient id="Áåçûìÿííûé_ãðàäèåíò_18-5" x1="4699.08" y1="115.7" x2="4762.19" y2="79.12" gradientTransform="matrix(-1, 0, 0, 1, 4898.7, 0)" xlink:href="#Áåçûìÿííûé_ãðàäèåíò_18"/><linearGradient id="Áåçûìÿííûé_ãðàäèåíò_18-6" x1="4768.28" y1="83.26" x2="4711.47" y2="124.86" gradientTransform="matrix(-1, 0, 0, 1, 4898.7, 0)" xlink:href="#Áåçûìÿííûé_ãðàäèåíò_18"/><linearGradient id="Áåçûìÿííûé_ãðàäèåíò_254-8" x1="4713.76" y1="100.69" x2="4758.41" y2="100.69" gradientTransform="matrix(-1, 0, 0, 1, 4898.7, 0)" xlink:href="#Áåçûìÿííûé_ãðàäèåíò_254"/><linearGradient id="Áåçûìÿííûé_ãðàäèåíò_254-9" x1="4711.82" y1="99.64" x2="4756.47" y2="99.64" gradientTransform="matrix(-1, 0, 0, 1, 4898.7, 0)" xlink:href="#Áåçûìÿííûé_ãðàäèåíò_254"/><linearGradient id="Áåçûìÿííûé_ãðàäèåíò_18-7" x1="3271.43" y1="-996.66" x2="3279.41" y2="-996.66" xlink:href="#Áåçûìÿííûé_ãðàäèåíò_18"/><linearGradient id="Áåçûìÿííûé_ãðàäèåíò_18-8" x1="3280.92" y1="-988.45" x2="3288.89" y2="-988.45" xlink:href="#Áåçûìÿííûé_ãðàäèåíò_18"/><linearGradient id="Áåçûìÿííûé_ãðàäèåíò_18-9" x1="3290.57" y1="-980.09" x2="3298.55" y2="-980.09" xlink:href="#Áåçûìÿííûé_ãðàäèåíò_18"/><linearGradient id="Áåçûìÿííûé_ãðàäèåíò_18-10" x1="4735.06" y1="180.38" x2="4761.75" y2="180.38" gradientTransform="matrix(-1, 0, 0, 1, 4898.7, 0)" xlink:href="#Áåçûìÿííûé_ãðàäèåíò_18"/><linearGradient id="Áåçûìÿííûé_ãðàäèåíò_254-10" x1="4748.15" y1="171.88" x2="4757.92" y2="171.88" gradientTransform="matrix(-1, 0, 0, 1, 4898.7, 0)" xlink:href="#Áåçûìÿííûé_ãðàäèåíò_254"/><linearGradient id="Áåçûìÿííûé_ãðàäèåíò_254-11" x1="4748.15" y1="181.37" x2="4757.92" y2="181.37" gradientTransform="matrix(-1, 0, 0, 1, 4898.7, 0)" xlink:href="#Áåçûìÿííûé_ãðàäèåíò_254"/><linearGradient id="Áåçûìÿííûé_ãðàäèåíò_254-12" x1="4748.15" y1="191.02" x2="4757.92" y2="191.02" gradientTransform="matrix(-1, 0, 0, 1, 4898.7, 0)" xlink:href="#Áåçûìÿííûé_ãðàäèåíò_254"/><linearGradient id="Áåçûìÿííûé_ãðàäèåíò_18-11" x1="4717.98" y1="130.15" x2="4781.08" y2="93.56" gradientTransform="matrix(-1, 0, 0, 1, 4898.7, 0)" xlink:href="#Áåçûìÿííûé_ãðàäèåíò_18"/><linearGradient id="Áåçûìÿííûé_ãðàäèåíò_18-12" x1="4787.18" y1="97.7" x2="4730.36" y2="139.3" gradientTransform="matrix(-1, 0, 0, 1, 4898.7, 0)" xlink:href="#Áåçûìÿííûé_ãðàäèåíò_18"/><linearGradient id="Áåçûìÿííûé_ãðàäèåíò_254-13" x1="4732.65" y1="115.14" x2="4777.3" y2="115.14" gradientTransform="matrix(-1, 0, 0, 1, 4898.7, 0)" xlink:href="#Áåçûìÿííûé_ãðàäèåíò_254"/><linearGradient id="Áåçûìÿííûé_ãðàäèåíò_254-14" x1="4730.71" y1="114.08" x2="4775.36" y2="114.08" gradientTransform="matrix(-1, 0, 0, 1, 4898.7, 0)" xlink:href="#Áåçûìÿííûé_ãðàäèåíò_254"/><linearGradient id="Áåçûìÿííûé_ãðàäèåíò_254-15" x1="0.01" y1="152.18" x2="8.8" y2="152.18" xlink:href="#Áåçûìÿííûé_ãðàäèåíò_254"/><linearGradient id="Áåçûìÿííûé_ãðàäèåíò_254-16" x1="40.91" y1="218.15" x2="135.41" y2="218.15" xlink:href="#Áåçûìÿííûé_ãðàäèåíò_254"/><linearGradient id="Áåçûìÿííûé_ãðàäèåíò_254-17" x1="205.77" y1="224.72" x2="308.59" y2="224.72" xlink:href="#Áåçûìÿííûé_ãðàäèåíò_254"/><linearGradient id="Áåçûìÿííûé_ãðàäèåíò_254-18" x1="348.4" y1="159.69" x2="366.7" y2="159.69" xlink:href="#Áåçûìÿííûé_ãðàäèåíò_254"/></defs><title>Asset 1</title><g id="Layer_2" data-name="Layer 2"><g id="Ñëîé_1" data-name="Ñëîé 1"><g class="cls-4"><path class="cls-5" d="M350.39,119.06c10.48,12.9,16.31,27.22,16.31,42.27V111.5c0-15.05-5.83-29.37-16.31-42.27v49.83Z"/><path class="cls-6" d="M210.37,10.19C249.77,13.44,285,23.67,312,38.53V88.36C285,73.5,249.77,63.27,210.37,60V10.19Z"/><path class="cls-7" d="M43.93,45c24.65-16.11,58.06-27.87,96-33V61.8c-38,5.15-71.37,16.92-96,33V45Z"/><path class="cls-8" d="M0,161.4q0-.91,0-1.82C.38,148.32,4,137.52,10.29,127.45V77.62C4,87.69.38,98.49,0,109.75q0,.91,0,1.82V161.4Z"/></g><g class="cls-9"><polygon class="cls-10" points="183.36 279.93 24.66 188.31 183.35 96.69 342.05 188.31 183.36 279.93"/></g><g class="cls-9"><polygon class="cls-10" points="183.36 265.73 49.27 188.31 183.35 110.9 317.44 188.31 183.36 265.73"/></g><g class="cls-11"><polygon class="cls-12" points="183.36 249.22 77.87 188.31 183.35 127.41 288.84 188.31 183.36 249.22"/></g><g class="cls-9"><path class="cls-13" d="M194.34,225.75l-76.67-44.26c-.77-.45-.68-1.23.22-1.74L164,153.13a3.36,3.36,0,0,1,3-.13l76.67,44.26c.77.45.68,1.23-.22,1.74l-46.09,26.61A3.36,3.36,0,0,1,194.34,225.75Z"/></g><path class="cls-14" d="M197.71,230.62a2.58,2.58,0,0,1-1.26-.28L109.27,180c-.24-.14-.37-.3-.37-.47s0-.4.62-.73l52.4-30.26a3.37,3.37,0,0,1,3-.14l87.18,50.33c.24.13.37.3.37.47s0,.4-.61.73l-52.41,30.26A3.54,3.54,0,0,1,197.71,230.62Zm-1.06-.63a3,3,0,0,0,2.58-.14l52.41-30.26c.32-.18.41-.35.41-.39s0,0-.17-.11L164.7,148.76a3,3,0,0,0-2.58.14l-52.41,30.26c-.32.18-.41.35-.42.39s0,0,.17.12Z"/><path class="cls-13" d="M194.83,65.39h8.43l-2-4.59L117.16,28V168.42s0,0,0,0v.13h0a.93.93,0,0,0,.51.67l76.67,44.26a2.08,2.08,0,0,0,.49.19Z"/><path class="cls-15" d="M244.19,45.3,195.81,72.91v84.52l0,0v56.43h0a3.47,3.47,0,0,0,1.56-.42l46.09-26.61a1.26,1.26,0,0,0,.73-1h0Z"/><path class="cls-16" d="M192.34,30.67V212.38l2,1.16a2.75,2.75,0,0,0,1.43.3c.56,0,.59-.33,1-.6l.41-.17-.45-21.56V157.73l1-127.06Z"/><path class="cls-17" d="M197.8,191.81v-120l-2,1.13v84.52l0,0v56.43h0l.35,0h.07a3.55,3.55,0,0,0,.74-.2l0,0a2.83,2.83,0,0,0,.35-.17l.43-.25Z"/><g class="cls-18"><polygon class="cls-19" points="120.95 35.72 188.52 74.73 188.52 206.14 120.95 167.13 120.95 35.72"/></g><g class="cls-18"><polygon class="cls-19" points="117.16 148.16 192.34 97.84 192.34 71.88 117.16 28 117.16 148.16"/></g><path class="cls-20" d="M194.34,73,117.68,28.78c-.77-.45-.68-1.23.22-1.74L164,.43a3.36,3.36,0,0,1,3-.13l76.67,44.26c.77.45.68,1.23-.22,1.74L197.37,72.92A3.36,3.36,0,0,1,194.34,73Z"/><g class="cls-21"><path class="cls-22" d="M166.24,2.28h-5.48L117.89,27c-.89.52-1,1.3-.22,1.74l2.08,1.2,66.6,38.45,8.75-.1Z"/></g><polygon class="cls-23" points="166.24 5.01 129.41 26.28 125.83 25.61 125.83 28.34 195.11 68.33 230.18 44.49 166.24 5.01"/><polygon class="cls-24" points="235.51 42.28 235.51 45.01 195.11 68.33 195.11 65.61 235.51 42.28"/><polygon class="cls-25" points="195.11 65.61 125.83 25.61 166.24 2.28 235.51 42.28 195.11 65.61"/><polygon class="cls-26" points="151.69 22.7 150.59 22.06 150.68 21.54 160.92 15.59 162.34 16.26 162.07 16.7 151.69 22.7"/><polygon class="cls-27" points="160.97 16.07 162.07 16.7 162.78 16.29 160.97 15.25 149.88 21.65 150.59 22.06 160.97 16.07"/><polygon class="cls-26" points="155.04 24.63 153.94 23.99 154.03 23.47 164.26 17.51 165.69 18.19 165.42 18.63 155.04 24.63"/><polygon class="cls-28" points="164.32 18 165.42 18.63 166.13 18.22 164.32 17.18 153.23 23.58 153.94 23.99 164.32 18"/><polygon class="cls-26" points="158.39 26.55 157.29 25.92 157.38 25.4 167.62 19.44 169.04 20.12 168.77 20.56 158.39 26.55"/><polygon class="cls-29" points="167.67 19.92 168.77 20.56 169.48 20.15 167.67 19.1 156.58 25.51 157.29 25.92 167.67 19.92"/><polygon class="cls-26" points="161.74 28.48 160.64 27.84 160.73 27.33 170.97 21.37 172.39 22.05 172.12 22.49 161.74 28.48"/><polygon class="cls-30" points="171.02 21.85 172.12 22.49 172.83 22.08 171.02 21.03 159.93 27.43 160.64 27.84 171.02 21.85"/><polygon class="cls-26" points="171.54 34.17 170.43 33.53 170.52 33.02 180.76 27.06 182.18 27.74 181.92 28.18 171.54 34.17"/><polygon class="cls-31" points="180.81 27.54 181.92 28.18 182.63 27.77 180.81 26.72 169.72 33.13 170.43 33.54 180.81 27.54"/><polygon class="cls-26" points="174.89 36.1 173.78 35.46 173.87 34.95 184.11 28.99 185.53 29.67 185.27 30.11 174.89 36.1"/><polygon class="cls-32" points="184.16 29.47 185.27 30.11 185.98 29.7 184.16 28.65 173.07 35.05 173.78 35.47 184.16 29.47"/><polygon class="cls-26" points="178.24 38.03 177.13 37.39 177.22 36.87 187.46 30.92 188.88 31.59 188.62 32.04 178.24 38.03"/><polygon class="cls-33" points="187.51 31.4 188.62 32.04 189.33 31.63 187.51 30.58 176.42 36.98 177.13 37.39 187.51 31.4"/><polygon class="cls-26" points="181.59 39.96 180.48 39.32 180.57 38.8 190.81 32.84 192.23 33.52 191.97 33.96 181.59 39.96"/><polygon class="cls-34" points="190.86 33.33 191.97 33.96 192.68 33.55 190.86 32.51 179.77 38.91 180.48 39.32 190.86 33.33"/><polygon class="cls-26" points="191.38 45.65 190.28 45.01 190.37 44.49 200.61 38.54 202.03 39.21 201.76 39.66 191.38 45.65"/><polygon class="cls-35" points="200.66 39.02 201.76 39.66 202.47 39.24 200.66 38.2 189.57 44.6 190.28 45.01 200.66 39.02"/><polygon class="cls-26" points="194.73 47.58 193.63 46.94 193.72 46.42 203.96 40.46 205.38 41.14 205.11 41.58 194.73 47.58"/><polygon class="cls-36" points="204.01 40.95 205.11 41.58 205.82 41.17 204.01 40.13 192.92 46.53 193.63 46.94 204.01 40.95"/><polygon class="cls-26" points="198.08 49.5 196.98 48.87 197.07 48.35 207.31 42.39 208.73 43.07 208.46 43.51 198.08 49.5"/><polygon class="cls-37" points="207.36 42.88 208.46 43.51 209.17 43.1 207.36 42.05 196.27 48.46 196.98 48.87 207.36 42.88"/><polygon class="cls-26" points="201.43 51.43 200.33 50.8 200.42 50.28 210.66 44.32 212.08 45 211.81 45.44 201.43 51.43"/><polygon class="cls-38" points="210.71 44.8 211.81 45.44 212.52 45.03 210.71 43.98 199.62 50.38 200.33 50.8 210.71 44.8"/><polygon class="cls-20" points="237.01 140.14 202.96 159.8 202.96 113.27 237.01 93.62 237.01 140.14"/><polygon class="cls-39" points="235.11 94.71 235.11 139.26 202.96 157.83 202.96 159.8 237.01 140.14 237.01 93.62 235.11 94.71"/><path class="cls-40" d="M257.51,152.15l-1.82,1L237.4,142.54a1.33,1.33,0,0,0-1.19,0L204.65,160.8c-.3-.17-1.68-.83-1.68-.83l.67,1.74h0a.4.4,0,0,0,.19.21L223.1,173a1.33,1.33,0,0,0,1.19,0l32.28-18.64a.58.58,0,0,0,.27-.29h0Z"/><path class="cls-41" d="M257.23,152.45l-33.09,19.1a1.36,1.36,0,0,1-1.22.05l-19.74-11.4c-.31-.18-.27-.5.09-.71l33.09-19.1a1.36,1.36,0,0,1,1.22-.05l19.74,11.4C257.63,151.92,257.59,152.24,257.23,152.45Z"/><path class="cls-42" d="M214.16,167.42v-.36s0-.05,0,0l1.28.74a.11.11,0,0,1,0,.09v.36s0,.05,0,0l-1.28-.74A.11.11,0,0,1,214.16,167.42Z"/><path class="cls-42" d="M216.08,168.52v-.36s0-.05,0,0l1.28.74a.11.11,0,0,1,0,.09v.36s0,.05,0,0l-1.28-.74A.11.11,0,0,1,216.08,168.52Z"/><path class="cls-43" d="M208.32,159.14l27.5-15.87a.59.59,0,0,1,.59,0l9.79,5.66a.21.21,0,0,1,0,.37l-27.48,15.87a.59.59,0,0,1-.59,0l-9.8-5.66A.21.21,0,0,1,208.32,159.14Z"/><path class="cls-44" d="M208.32,159.5l.1.06,27.4-15.82a.59.59,0,0,1,.59,0l9.69,5.61.1-.06a.21.21,0,0,0,0-.37l-9.79-5.66a.59.59,0,0,0-.59,0l-27.5,15.87A.21.21,0,0,0,208.32,159.5Z"/><polygon class="cls-13" points="237.15 144.7 213.27 158.49 212.21 157.87 236.09 144.08 237.15 144.7"/><polygon class="cls-13" points="239.75 146.2 217.35 159.13 216.29 158.52 238.69 145.59 239.75 146.2"/><polygon class="cls-13" points="241.45 147.18 215.07 162.41 214.01 161.79 240.39 146.56 241.45 147.18"/><polygon class="cls-13" points="243.15 148.16 216.77 163.38 215.71 162.77 242.08 147.54 243.15 148.16"/><polygon class="cls-13" points="244.84 149.14 218.47 164.36 217.4 163.75 243.78 148.52 244.84 149.14"/><polygon class="cls-13" points="211.82 159.32 210.76 159.93 209.7 159.32 210.76 158.71 211.82 159.32"/><polygon class="cls-13" points="215.57 160.16 213.37 161.43 212.3 160.82 214.51 159.55 215.57 160.16"/><path class="cls-45" d="M236.88,163l7.41-4.28a.32.32,0,0,0,0-.61l-5.07-2.93a1.16,1.16,0,0,0-1,0l-7.41,4.28a.32.32,0,0,0,0,.61l5.07,2.93A1.16,1.16,0,0,0,236.88,163Z"/><path class="cls-44" d="M230.76,159.69l7.41-4.28a1.16,1.16,0,0,1,1,0l5.07,2.93a.45.45,0,0,1,.18.18c.08-.15,0-.31-.18-.43l-5.07-2.93a1.16,1.16,0,0,0-1,0l-7.41,4.28c-.2.12-.26.28-.18.43A.45.45,0,0,1,230.76,159.69Z"/><polygon class="cls-13" points="235.11 94.71 202.96 113.27 202.96 157.83 235.11 139.26 235.11 94.71"/><polygon class="cls-13" points="235.11 94.71 202.96 113.27 202.96 157.83 235.11 139.26 235.11 94.71"/><g class="cls-18"><polygon class="cls-19" points="233.32 140.3 233.32 97.79 202.96 115.31 202.96 157.83 233.32 140.3"/></g><g class="cls-46"><g class="cls-47"><path class="cls-48" d="M236.44,140.33l-32.93,19a1.35,1.35,0,0,1-1.22.05l-19.65-11.35c-.31-.18-.27-.5.09-.7l32.93-19a1.35,1.35,0,0,1,1.22-.05l19.65,11.35C236.84,139.81,236.8,140.12,236.44,140.33Z"/><path class="cls-49" d="M203.41,143.74l7.38-4.26a.32.32,0,0,0,0-.6l-5-2.91a1.15,1.15,0,0,0-1,0l-7.38,4.26a.32.32,0,0,0,0,.6l5,2.91A1.15,1.15,0,0,0,203.41,143.74Z"/><path class="cls-44" d="M197.32,140.47l7.38-4.26a1.15,1.15,0,0,1,1,0l5,2.91a.45.45,0,0,1,.18.18c.08-.15,0-.31-.18-.42l-5-2.91a1.15,1.15,0,0,0-1,0l-7.38,4.26c-.2.12-.26.28-.18.42A.45.45,0,0,1,197.32,140.47Z"/><path class="cls-43" d="M194.07,150.4l27.37-15.8a.59.59,0,0,1,.59,0l9.74,5.64a.21.21,0,0,1,0,.36l-27.35,15.79a.59.59,0,0,1-.59,0l-9.76-5.63A.21.21,0,0,1,194.07,150.4Z"/><path class="cls-44" d="M194.07,150.76l.1.06,27.27-15.74a.59.59,0,0,1,.59,0l9.65,5.58.1-.06a.21.21,0,0,0,0-.36L222,134.6a.59.59,0,0,0-.59,0l-27.37,15.8A.21.21,0,0,0,194.07,150.76Z"/><polygon class="cls-13" points="229.22 139.85 205.38 153.62 206.33 154.16 230.17 140.4 229.22 139.85"/><polygon class="cls-13" points="226.71 138.4 204.05 151.49 205 152.03 227.66 138.95 226.71 138.4"/><polygon class="cls-13" points="202.36 152.46 200.24 153.69 201.19 154.23 203.3 153.01 202.36 152.46"/><polygon class="cls-13" points="204.23 154.28 202.75 155.13 203.7 155.68 205.17 154.83 204.23 154.28"/><polygon class="cls-13" points="225.14 137.5 198.67 152.78 199.61 153.32 226.08 138.04 225.14 137.5"/><polygon class="cls-13" points="223.56 136.59 197.09 151.87 198.04 152.41 224.51 137.13 223.56 136.59"/><polygon class="cls-13" points="221.99 135.68 195.52 150.96 196.47 151.5 222.93 136.22 221.99 135.68"/></g></g><polygon class="cls-50" points="211.73 118.8 209.81 119.91 209.81 118.62 211.73 117.51 211.73 118.8"/><polygon class="cls-50" points="211.73 127.51 209.81 128.62 209.81 121.08 211.73 119.97 211.73 127.51"/><polygon class="cls-50" points="211.73 131.67 209.81 132.78 209.81 129.79 211.73 128.68 211.73 131.67"/><polygon class="cls-50" points="211.73 135.99 209.81 137.1 209.81 134.11 211.73 133 211.73 135.99"/><polygon class="cls-50" points="214.6 121.31 212.68 122.42 212.68 119.43 214.6 118.32 214.6 121.31"/><polygon class="cls-50" points="214.6 127.03 212.68 128.14 212.68 123.74 214.6 122.63 214.6 127.03"/><polygon class="cls-50" points="214.6 132.29 212.68 133.4 212.68 129.63 214.6 128.52 214.6 132.29"/><polygon class="cls-50" points="211.73 140.31 209.81 141.42 209.81 138.43 211.73 137.32 211.73 140.31"/><polygon class="cls-50" points="214.6 117.14 212.68 118.25 212.68 116.97 214.6 115.86 214.6 117.14"/><polygon class="cls-50" points="213.16 143.67 209.81 145.61 209.81 144.36 213.16 142.42 213.16 143.67"/><path class="cls-51" d="M190.37,75.21A3,3,0,0,0,189,72.84a1,1,0,0,0-1-.09h0l-1,.57.6,0a1.56,1.56,0,0,0,0,.3A3,3,0,0,0,189,76a1.53,1.53,0,0,0,.29.13l-.28.52.95-.55h0A1,1,0,0,0,190.37,75.21Z"/><path class="cls-52" d="M189.4,75.78c0,.87-.61,1.22-1.37.79a3,3,0,0,1-1.37-2.37c0-.87.61-1.22,1.37-.79A3,3,0,0,1,189.4,75.78Z"/><path class="cls-26" d="M188.82,75.44c0,.5-.35.7-.79.45a1.74,1.74,0,0,1-.79-1.36c0-.5.35-.7.79-.45A1.74,1.74,0,0,1,188.82,75.44Z"/><path class="cls-53" d="M122.8,36.42a3,3,0,0,0-1.37-2.37,1,1,0,0,0-1-.09h0l-1,.57.6,0a1.56,1.56,0,0,0,0,.3,3,3,0,0,0,1.37,2.37,1.53,1.53,0,0,0,.29.13l-.28.52.95-.55h0A1,1,0,0,0,122.8,36.42Z"/><path class="cls-54" d="M121.83,37c0,.87-.61,1.22-1.37.79a3,3,0,0,1-1.37-2.37c0-.87.61-1.22,1.37-.79A3,3,0,0,1,121.83,37Z"/><path class="cls-26" d="M121.25,36.65c0,.5-.35.7-.79.45a1.74,1.74,0,0,1-.79-1.36c0-.5.35-.7.79-.45A1.74,1.74,0,0,1,121.25,36.65Z"/><path class="cls-55" d="M190.37,206.58a3,3,0,0,0-1.37-2.37,1,1,0,0,0-1-.09h0l-1,.57h0a1,1,0,0,1,1,.1,3,3,0,0,1,1.37,2.37,1,1,0,0,1-.37.86h0l.95-.55h0A1,1,0,0,0,190.37,206.58Z"/><path class="cls-56" d="M189,207.37a2.09,2.09,0,0,1-.28-.19c-.13.22-.39.27-.7.09a1.74,1.74,0,0,1-.79-1.36c0-.35.17-.55.42-.56a2.13,2.13,0,0,1,0-.35,1.56,1.56,0,0,1,0-.3l-.6,0a1,1,0,0,0-.4.89,3,3,0,0,0,1.37,2.37.94.94,0,0,0,1,.07l.27-.51A1.52,1.52,0,0,1,189,207.37Z"/><path class="cls-57" d="M189.4,207.15a3,3,0,0,0-1.37-2.37,1,1,0,0,0-1-.1l.6,0a1.56,1.56,0,0,0,0,.3,2.13,2.13,0,0,0,0,.35.69.69,0,0,1,.36.1,1.74,1.74,0,0,1,.79,1.36.69.69,0,0,1-.09.36,2.09,2.09,0,0,0,.28.19,1.52,1.52,0,0,0,.29.13L189,208A1,1,0,0,0,189.4,207.15Z"/><path class="cls-58" d="M189.4,207.15a3,3,0,0,0-1.37-2.37,1,1,0,0,0-1-.1l.6,0a1.56,1.56,0,0,0,0,.3,2.13,2.13,0,0,0,0,.35.69.69,0,0,1,.36.1,1.74,1.74,0,0,1,.79,1.36.69.69,0,0,1-.09.36,2.09,2.09,0,0,0,.28.19,1.52,1.52,0,0,0,.29.13L189,208A1,1,0,0,0,189.4,207.15Z"/><path class="cls-26" d="M187.24,205.91a1.74,1.74,0,0,0,.79,1.36c.3.18.57.12.7-.09a3.17,3.17,0,0,1-1.06-1.83C187.42,205.36,187.24,205.56,187.24,205.91Z"/><path class="cls-26" d="M188.73,207.18a.69.69,0,0,0,.09-.36,1.74,1.74,0,0,0-.79-1.36.69.69,0,0,0-.36-.1A3.17,3.17,0,0,0,188.73,207.18Z"/><path class="cls-59" d="M121.43,165.42a1,1,0,0,0-1-.09h0l-1,.57h0a1,1,0,0,1,1,.1,3,3,0,0,1,1.37,2.37,1,1,0,0,1-.37.86h0l.95-.55h0a1,1,0,0,0,.41-.89A3,3,0,0,0,121.43,165.42Z"/><path class="cls-60" d="M121.43,168.58a2.11,2.11,0,0,1-.28-.19c-.13.22-.39.27-.7.09a1.74,1.74,0,0,1-.79-1.36c0-.35.17-.55.42-.56a2.13,2.13,0,0,1,0-.35,1.56,1.56,0,0,1,0-.3l-.6,0a1,1,0,0,0-.4.89,3,3,0,0,0,1.37,2.37.94.94,0,0,0,1,.07l.27-.51A1.54,1.54,0,0,1,121.43,168.58Z"/><path class="cls-61" d="M121.83,168.36a3,3,0,0,0-1.37-2.37,1,1,0,0,0-1-.1l.6,0a1.56,1.56,0,0,0,0,.3,2.13,2.13,0,0,0,0,.35.69.69,0,0,1,.36.1,1.74,1.74,0,0,1,.79,1.36.69.69,0,0,1-.09.36,2.11,2.11,0,0,0,.28.19,1.54,1.54,0,0,0,.29.13l-.27.51A1,1,0,0,0,121.83,168.36Z"/><path class="cls-62" d="M121.83,168.36a3,3,0,0,0-1.37-2.37,1,1,0,0,0-1-.1l.6,0a1.56,1.56,0,0,0,0,.3,2.13,2.13,0,0,0,0,.35.69.69,0,0,1,.36.1,1.74,1.74,0,0,1,.79,1.36.69.69,0,0,1-.09.36,2.11,2.11,0,0,0,.28.19,1.54,1.54,0,0,0,.29.13l-.27.51A1,1,0,0,0,121.83,168.36Z"/><path class="cls-26" d="M119.67,167.12a1.74,1.74,0,0,0,.79,1.36c.3.18.57.12.7-.09a3.17,3.17,0,0,1-1.06-1.83C119.85,166.57,119.67,166.77,119.67,167.12Z"/><path class="cls-26" d="M121.16,168.39a.69.69,0,0,0,.09-.36,1.74,1.74,0,0,0-.79-1.36.69.69,0,0,0-.36-.1A3.17,3.17,0,0,0,121.16,168.39Z"/><g class="cls-63"><g class="cls-64"><path class="cls-65" d="M161.11,160.49c-1.91-1.1-1.91-2.89,0-4a7.63,7.63,0,0,1,6.91,0c1.91,1.1,1.91,2.89,0,4A7.63,7.63,0,0,1,161.11,160.49Z"/><path class="cls-66" d="M161.11,160.25a7.63,7.63,0,0,0,6.91,0,2.49,2.49,0,0,0,1.42-1.87,2.35,2.35,0,0,1-1.42,2.11,7.63,7.63,0,0,1-6.91,0,2.35,2.35,0,0,1-1.42-2.11A2.49,2.49,0,0,0,161.11,160.25Z"/><path class="cls-67" d="M161.11,170c-1.91-1.1-1.91-2.89,0-4a7.63,7.63,0,0,1,6.91,0c1.91,1.1,1.91,2.89,0,4A7.63,7.63,0,0,1,161.11,170Z"/><path class="cls-68" d="M161.11,179.63c-1.91-1.1-1.91-2.89,0-4a7.63,7.63,0,0,1,6.91,0c1.91,1.1,1.91,2.89,0,4A7.63,7.63,0,0,1,161.11,179.63Z"/><path class="cls-69" d="M169.45,158.49v-4.93a2.43,2.43,0,0,1-1.43,2,7.63,7.63,0,0,1-6.91,0,2.46,2.46,0,0,1-1.43-1.93V132.75h9.76v61.49a4.88,4.88,0,0,1-9.76,0V177.57a2.38,2.38,0,0,0,1.43,2.06,7.63,7.63,0,0,0,6.91,0,2.43,2.43,0,0,0,1.43-2h0V172.7a2.43,2.43,0,0,1-1.43,2,7.63,7.63,0,0,1-6.91,0,2.46,2.46,0,0,1-1.43-1.93v-4.85a2.38,2.38,0,0,0,1.43,2.06,7.63,7.63,0,0,0,6.91,0,2.43,2.43,0,0,0,1.43-2h0V163a2.43,2.43,0,0,1-1.43,2,7.63,7.63,0,0,1-6.91,0,2.46,2.46,0,0,1-1.43-1.93v-4.68a2.38,2.38,0,0,0,1.43,2.06,7.63,7.63,0,0,0,6.91,0,2.43,2.43,0,0,0,1.43-2h0Z"/><path class="cls-66" d="M161.11,169.73a7.63,7.63,0,0,0,6.91,0,2.49,2.49,0,0,0,1.42-1.87A2.35,2.35,0,0,1,168,170a7.63,7.63,0,0,1-6.91,0,2.35,2.35,0,0,1-1.42-2.11A2.49,2.49,0,0,0,161.11,169.73Z"/><path class="cls-66" d="M161.11,179.39a7.63,7.63,0,0,0,6.91,0,2.49,2.49,0,0,0,1.42-1.87,2.35,2.35,0,0,1-1.42,2.11,7.63,7.63,0,0,1-6.91,0,2.35,2.35,0,0,1-1.42-2.11A2.49,2.49,0,0,0,161.11,179.39Z"/><path class="cls-70" d="M161.11,155.55a7.63,7.63,0,0,0,6.91,0,2.43,2.43,0,0,0,1.43-2v4.93h0a2.43,2.43,0,0,1-1.43,2,7.63,7.63,0,0,1-6.91,0,2.38,2.38,0,0,1-1.43-2.06v-4.8A2.46,2.46,0,0,0,161.11,155.55Z"/><path class="cls-71" d="M161.11,165a7.63,7.63,0,0,0,6.91,0,2.43,2.43,0,0,0,1.43-2V168h0a2.43,2.43,0,0,1-1.43,2,7.63,7.63,0,0,1-6.91,0,2.38,2.38,0,0,1-1.43-2.06v-4.8A2.46,2.46,0,0,0,161.11,165Z"/><path class="cls-72" d="M161.11,174.69a7.63,7.63,0,0,0,6.91,0,2.43,2.43,0,0,0,1.43-2v4.93h0a2.43,2.43,0,0,1-1.43,2,7.63,7.63,0,0,1-6.91,0,2.38,2.38,0,0,1-1.43-2.06v-4.8A2.46,2.46,0,0,0,161.11,174.69Z"/><path class="cls-73" d="M182.21,125.15c.23-.12.45-.25.66-.39l2.39-13.52-3-17.95-8.32-9.07-8.57-8.32-13.65-5.66-.36-.14a10.65,10.65,0,0,0-1.83,1.17L139.31,70a18.7,18.7,0,0,1,2.06-3.81l-1.63-.64L145.84,62l.22-.13.23-.13h0c5.26-2.83,12.41-2.32,20.3,2.23,16.13,9.31,29.21,32,29.21,50.59,0,9.24-3.22,15.75-8.44,18.83h0l0,0-.18.1-6.49,3.71.33-1.88a18,18,0,0,1-2.5,0C180.3,132.23,182.73,128.72,182.21,125.15Z"/><path class="cls-74" d="M137.41,81.62c0-.25,0-.5,0-.75A28.73,28.73,0,0,1,139.31,70l10.24,1.28c-3.28,2.59-5.27,7.24-5.27,13.57,0,14.24,10,31.55,22.32,38.66,6.08,3.51,11.59,3.88,15.61,1.65.52,3.56-1.91,7.08-3.71,10.25a25,25,0,0,1-8.7-2.3l1,1.08s-12.15-4.22-12.4-4.49S144,115.15,144,115.15l-9.24-19.92Z"/><path class="cls-75" d="M140.3,87.8c0-14.24,10-20,22.32-12.89s22.32,24.43,22.32,38.66-10,20-22.32,12.89S140.3,102,140.3,87.8Z"/><path class="cls-76" d="M142.24,86.75c0-14.24,10-20,22.32-12.89s22.32,24.43,22.32,38.66-10,20-22.32,12.89S142.24,101,142.24,86.75Z"/><path class="cls-20" d="M131,84.57c0,18.63,13.08,41.28,29.21,50.59s29.21,1.76,29.21-16.86S176.31,77,160.18,67.71,131,65.94,131,84.57Zm6.89,4c0-14.24,10-20,22.32-12.89s22.32,24.43,22.32,38.66-10,20-22.32,12.89S137.86,102.78,137.86,88.55Z"/><path class="cls-20" d="M131,84.57c0,18.63,13.08,41.28,29.21,50.59s29.21,1.76,29.21-16.86S176.31,77,160.18,67.71,131,65.94,131,84.57Zm6.89,4c0-14.24,10-20,22.32-12.89s22.32,24.43,22.32,38.66-10,20-22.32,12.89S137.86,102.78,137.86,88.55Z"/><path class="cls-66" d="M188.95,118.8c0-18.63-13.08-41.28-29.21-50.59-9.93-5.73-18.7-5.07-24,.63,5.22-6.15,14.21-7,24.42-1.13,16.13,9.31,29.21,32,29.21,50.59,0,7.16-1.94,12.68-5.24,16.24C187.18,131,188.95,125.63,188.95,118.8Z"/><path class="cls-66" d="M159.74,127.71c-12.33-7.12-22.32-24.43-22.32-38.66,0-5.51,1.5-9.75,4.06-12.47-2.28,2.73-3.62,6.78-3.62,12,0,14.24,10,31.55,22.32,38.66,7.55,4.36,14.22,3.88,18.26-.42C174.46,131.54,167.57,132.23,159.74,127.71Z"/></g></g><path class="cls-77" d="M142.21,174.93c-1.91-1.1-1.91-2.89,0-4a7.63,7.63,0,0,1,6.91,0c1.91,1.1,1.91,2.89,0,4A7.63,7.63,0,0,1,142.21,174.93Z"/><path class="cls-66" d="M142.21,174.69a7.63,7.63,0,0,0,6.91,0,2.49,2.49,0,0,0,1.42-1.87,2.35,2.35,0,0,1-1.42,2.11,7.63,7.63,0,0,1-6.91,0,2.35,2.35,0,0,1-1.42-2.11A2.49,2.49,0,0,0,142.21,174.69Z"/><path class="cls-78" d="M142.21,184.42c-1.91-1.1-1.91-2.89,0-4a7.63,7.63,0,0,1,6.91,0c1.91,1.1,1.91,2.89,0,4A7.63,7.63,0,0,1,142.21,184.42Z"/><path class="cls-79" d="M142.21,194.07c-1.91-1.1-1.91-2.89,0-4a7.63,7.63,0,0,1,6.91,0c1.91,1.1,1.91,2.89,0,4A7.63,7.63,0,0,1,142.21,194.07Z"/><path class="cls-80" d="M150.55,172.94V168a2.43,2.43,0,0,1-1.43,2,7.63,7.63,0,0,1-6.91,0,2.46,2.46,0,0,1-1.43-1.93V147.19h9.76v61.49a4.88,4.88,0,0,1-9.76,0V192a2.38,2.38,0,0,0,1.43,2.06,7.63,7.63,0,0,0,6.91,0,2.43,2.43,0,0,0,1.43-2h0v-4.93a2.43,2.43,0,0,1-1.43,2,7.63,7.63,0,0,1-6.91,0,2.46,2.46,0,0,1-1.43-1.93v-4.85a2.38,2.38,0,0,0,1.43,2.06,7.63,7.63,0,0,0,6.91,0,2.43,2.43,0,0,0,1.43-2h0v-4.93a2.43,2.43,0,0,1-1.43,2,7.63,7.63,0,0,1-6.91,0,2.46,2.46,0,0,1-1.43-1.93v-4.68a2.38,2.38,0,0,0,1.43,2.06,7.63,7.63,0,0,0,6.91,0,2.43,2.43,0,0,0,1.43-2h0Z"/><path class="cls-66" d="M142.21,184.18a7.63,7.63,0,0,0,6.91,0,2.49,2.49,0,0,0,1.42-1.87,2.35,2.35,0,0,1-1.42,2.11,7.63,7.63,0,0,1-6.91,0,2.35,2.35,0,0,1-1.42-2.11A2.49,2.49,0,0,0,142.21,184.18Z"/><path class="cls-66" d="M142.21,193.83a7.63,7.63,0,0,0,6.91,0,2.49,2.49,0,0,0,1.42-1.87,2.35,2.35,0,0,1-1.42,2.11,7.63,7.63,0,0,1-6.91,0,2.35,2.35,0,0,1-1.42-2.11A2.49,2.49,0,0,0,142.21,193.83Z"/><path class="cls-81" d="M142.21,170a7.63,7.63,0,0,0,6.91,0,2.43,2.43,0,0,0,1.43-2v4.93h0a2.43,2.43,0,0,1-1.43,2,7.63,7.63,0,0,1-6.91,0,2.38,2.38,0,0,1-1.43-2.06v-4.8A2.46,2.46,0,0,0,142.21,170Z"/><path class="cls-82" d="M142.21,179.48a7.63,7.63,0,0,0,6.91,0,2.43,2.43,0,0,0,1.43-2v4.93h0a2.43,2.43,0,0,1-1.43,2,7.63,7.63,0,0,1-6.91,0,2.38,2.38,0,0,1-1.43-2.06v-4.8A2.46,2.46,0,0,0,142.21,179.48Z"/><path class="cls-83" d="M142.21,189.14a7.63,7.63,0,0,0,6.91,0,2.43,2.43,0,0,0,1.43-2v4.93h0a2.43,2.43,0,0,1-1.43,2,7.63,7.63,0,0,1-6.91,0,2.38,2.38,0,0,1-1.43-2.06v-4.8A2.46,2.46,0,0,0,142.21,189.14Z"/><path class="cls-84" d="M163.32,139.6c.23-.12.45-.25.66-.39l2.39-13.52-3-17.95-8.32-9.07-8.57-8.32-13.65-5.66-.36-.14a10.64,10.64,0,0,0-1.83,1.17l-10.24-1.28a18.7,18.7,0,0,1,2.06-3.81L120.84,80l6.11-3.52.22-.13.23-.13h0c5.26-2.83,12.41-2.32,20.3,2.23,16.13,9.31,29.21,32,29.21,50.59,0,9.24-3.22,15.75-8.44,18.83h0l0,0-.18.1-6.49,3.71.33-1.88a18,18,0,0,1-2.5,0C161.41,146.68,163.84,143.16,163.32,139.6Z"/><path class="cls-85" d="M118.51,96.07c0-.25,0-.5,0-.75a28.73,28.73,0,0,1,1.92-10.87l10.24,1.28c-3.28,2.59-5.27,7.24-5.27,13.57,0,14.24,10,31.55,22.32,38.66,6.08,3.51,11.59,3.88,15.61,1.65.52,3.56-1.91,7.08-3.71,10.25a25,25,0,0,1-8.7-2.3l1,1.08s-12.15-4.22-12.4-4.49-14.4-14.55-14.4-14.55l-9.24-19.92Z"/><path class="cls-86" d="M121.4,102.25c0-14.24,10-20,22.32-12.89S166,113.79,166,128s-10,20-22.32,12.89S121.4,116.48,121.4,102.25Z"/><path class="cls-87" d="M123.35,101.19c0-14.24,10-20,22.32-12.89S168,112.73,168,127s-10,20-22.32,12.89S123.35,115.43,123.35,101.19Z"/><path class="cls-20" d="M112.08,99c0,18.63,13.08,41.28,29.21,50.59s29.21,1.76,29.21-16.86-13.08-41.28-29.21-50.59S112.08,80.39,112.08,99Zm6.89,4c0-14.24,10-20,22.32-12.89s22.32,24.43,22.32,38.66-10,20-22.32,12.89S119,117.23,119,103Z"/><path class="cls-20" d="M112.08,99c0,18.63,13.08,41.28,29.21,50.59s29.21,1.76,29.21-16.86-13.08-41.28-29.21-50.59S112.08,80.39,112.08,99Zm6.89,4c0-14.24,10-20,22.32-12.89s22.32,24.43,22.32,38.66-10,20-22.32,12.89S119,117.23,119,103Z"/><path class="cls-66" d="M170.05,133.24c0-18.63-13.08-41.28-29.21-50.59-9.93-5.73-18.7-5.07-24,.63,5.22-6.15,14.21-7,24.42-1.13,16.13,9.31,29.21,32,29.21,50.59,0,7.16-1.94,12.68-5.24,16.24C168.29,145.41,170.05,140.08,170.05,133.24Z"/><path class="cls-66" d="M140.84,142.15c-12.33-7.12-22.32-24.43-22.32-38.66,0-5.51,1.51-9.75,4.06-12.47C120.3,93.75,119,97.8,119,103c0,14.24,10,31.55,22.32,38.66,7.55,4.36,14.22,3.88,18.26-.42C155.57,146,148.68,146.68,140.84,142.15Z"/><g class="cls-4"><path class="cls-88" d="M8.8,192.78A62.39,62.39,0,0,1,0,161.4V111.57A62.4,62.4,0,0,0,8.8,143v49.83Z"/><path class="cls-89" d="M135.41,210.44c-37.76-5.7-70.61-18-94.5-34.41v49.83c23.89,16.46,56.75,28.71,94.5,34.41V210.44Z"/><path class="cls-90" d="M308.59,186.37c-27.68,14.46-63.36,24.17-102.82,26.86v49.83c39.47-2.69,75.14-12.4,102.82-26.86V186.37Z"/><path class="cls-91" d="M366.7,163.15c-.48,15.39-7,29.92-18.29,42.91V156.23c11.29-13,17.81-27.52,18.29-42.91v49.83Z"/></g></g></g></svg>