<svg xmlns="http://www.w3.org/2000/svg" xmlns:xlink="http://www.w3.org/1999/xlink" viewBox="0 0 600 239.7"><defs><style>.cls-1{isolation:isolate;}.cls-2{fill:url(#Áåçûìÿííûé_ãðàäèåíò_25);}.cls-3,.cls-4,.cls-58,.cls-80{fill:#42e8e0;}.cls-21,.cls-4,.cls-5,.cls-52,.cls-53,.cls-54,.cls-55,.cls-56,.cls-57,.cls-60,.cls-61,.cls-62,.cls-63,.cls-64,.cls-65,.cls-67,.cls-68,.cls-69,.cls-70,.cls-71,.cls-72,.cls-74,.cls-75,.cls-76,.cls-77,.cls-78,.cls-79{opacity:0.5;}.cls-11,.cls-16,.cls-6{opacity:0.11;}.cls-7{fill:url(#Áåçûìÿííûé_ãðàäèåíò_22);}.cls-8{fill:url(#Áåçûìÿííûé_ãðàäèåíò_22-2);}.cls-9{fill:url(#Áåçûìÿííûé_ãðàäèåíò_22-3);}.cls-10{fill:url(#Áåçûìÿííûé_ãðàäèåíò_22-4);}.cls-11{fill:url(#Áåçûìÿííûé_ãðàäèåíò_22-5);}.cls-12{fill:url(#Áåçûìÿííûé_ãðàäèåíò_22-6);}.cls-13{fill:url(#Áåçûìÿííûé_ãðàäèåíò_22-7);}.cls-14{fill:url(#Áåçûìÿííûé_ãðàäèåíò_22-8);}.cls-15{fill:url(#Áåçûìÿííûé_ãðàäèåíò_22-9);}.cls-16{fill:url(#Áåçûìÿííûé_ãðàäèåíò_22-10);}.cls-17{fill:url(#Áåçûìÿííûé_ãðàäèåíò_22-11);}.cls-18{fill:url(#Áåçûìÿííûé_ãðàäèåíò_22-12);}.cls-19{fill:url(#Áåçûìÿííûé_ãðàäèåíò_22-13);}.cls-20{fill:url(#Áåçûìÿííûé_ãðàäèåíò_22-14);}.cls-21{fill:url(#Áåçûìÿííûé_ãðàäèåíò_22-15);}.cls-22{fill:url(#Áåçûìÿííûé_ãðàäèåíò_22-17);}.cls-23{fill:#180d5b;opacity:0.2;}.cls-24{fill:#160a5b;}.cls-25{fill:#24126a;}.cls-26{fill:url(#Áåçûìÿííûé_ãðàäèåíò_22-18);}.cls-27{fill:url(#Áåçûìÿííûé_ãðàäèåíò_22-19);}.cls-28{fill:#4846a5;}.cls-29{fill:#fcd1c5;}.cls-30{fill:#453c9e;}.cls-31{fill:url(#Áåçûìÿííûé_ãðàäèåíò_22-20);}.cls-32{fill:#f0f6ff;}.cls-33{fill:#aa8383;}.cls-34{fill:#c4ccd6;}.cls-35{fill:#e2b1a6;}.cls-36{fill:#1b2b3a;}.cls-37{fill:#936d6d;}.cls-38{fill:url(#Áåçûìÿííûé_ãðàäèåíò_22-21);}.cls-39{fill:url(#Áåçûìÿííûé_ãðàäèåíò_22-22);}.cls-40{fill:url(#Áåçûìÿííûé_ãðàäèåíò_22-23);}.cls-41{fill:url(#Áåçûìÿííûé_ãðàäèåíò_22-24);}.cls-42{fill:url(#Áåçûìÿííûé_ãðàäèåíò_22-25);}.cls-43{fill:url(#Áåçûìÿííûé_ãðàäèåíò_22-26);}.cls-44{fill:#722318;}.cls-45{fill:url(#Áåçûìÿííûé_ãðàäèåíò_22-27);}.cls-46{fill:url(#Áåçûìÿííûé_ãðàäèåíò_22-28);}.cls-47{fill:#8686f2;mix-blend-mode:lighten;}.cls-48{fill:url(#Áåçûìÿííûé_ãðàäèåíò_18);}.cls-49{fill:#bcbeff;}.cls-50{fill:#fff;}.cls-51{fill:#0f054c;}.cls-52{fill:url(#Áåçûìÿííûé_ãðàäèåíò_254);}.cls-53{fill:url(#Áåçûìÿííûé_ãðàäèåíò_254-2);}.cls-54{fill:url(#Áåçûìÿííûé_ãðàäèåíò_254-3);}.cls-55{fill:url(#Áåçûìÿííûé_ãðàäèåíò_254-4);}.cls-56{fill:url(#Áåçûìÿííûé_ãðàäèåíò_254-5);}.cls-57{fill:url(#Áåçûìÿííûé_ãðàäèåíò_254-6);}.cls-58{opacity:0.8;}.cls-59{fill:url(#Áåçûìÿííûé_ãðàäèåíò_18-2);}.cls-60{fill:url(#Áåçûìÿííûé_ãðàäèåíò_254-7);}.cls-61{fill:url(#Áåçûìÿííûé_ãðàäèåíò_254-8);}.cls-62{fill:url(#Áåçûìÿííûé_ãðàäèåíò_254-9);}.cls-63{fill:url(#Áåçûìÿííûé_ãðàäèåíò_254-10);}.cls-64{fill:url(#Áåçûìÿííûé_ãðàäèåíò_254-11);}.cls-65{fill:url(#Áåçûìÿííûé_ãðàäèåíò_254-12);}.cls-66{fill:url(#Áåçûìÿííûé_ãðàäèåíò_18-3);}.cls-67{fill:url(#Áåçûìÿííûé_ãðàäèåíò_254-13);}.cls-68{fill:url(#Áåçûìÿííûé_ãðàäèåíò_254-14);}.cls-69{fill:url(#Áåçûìÿííûé_ãðàäèåíò_254-15);}.cls-70{fill:url(#Áåçûìÿííûé_ãðàäèåíò_254-16);}.cls-71{fill:url(#Áåçûìÿííûé_ãðàäèåíò_254-17);}.cls-72{fill:url(#Áåçûìÿííûé_ãðàäèåíò_254-18);}.cls-73{fill:url(#Áåçûìÿííûé_ãðàäèåíò_18-4);}.cls-74{fill:url(#Áåçûìÿííûé_ãðàäèåíò_254-19);}.cls-75{fill:url(#Áåçûìÿííûé_ãðàäèåíò_254-20);}.cls-76{fill:url(#Áåçûìÿííûé_ãðàäèåíò_254-21);}.cls-77{fill:url(#Áåçûìÿííûé_ãðàäèåíò_254-22);}.cls-78{fill:url(#Áåçûìÿííûé_ãðàäèåíò_254-23);}.cls-79{fill:url(#Áåçûìÿííûé_ãðàäèåíò_254-24);}.cls-80{opacity:0.5;}</style><radialGradient id="Áåçûìÿííûé_ãðàäèåíò_25" cx="141.01" cy="153" fx="-109.05387090593098" fy="64.78987929631877" r="265.17" gradientTransform="scale(1 0.53)" gradientUnits="userSpaceOnUse"><stop offset="0" stop-color="#2b237c"/><stop offset="1" stop-color="#180d5b"/></radialGradient><linearGradient id="Áåçûìÿííûé_ãðàäèåíò_22" x1="414.84" y1="212.02" x2="509.92" y2="212.02" gradientUnits="userSpaceOnUse"><stop offset="0" stop-color="#5761d7"/><stop offset="0.07" stop-color="#5472d8"/><stop offset="0.28" stop-color="#4e9cdb"/><stop offset="0.48" stop-color="#49bddd"/><stop offset="0.67" stop-color="#45d5df"/><stop offset="0.85" stop-color="#43e3e0"/><stop offset="1" stop-color="#42e8e0"/></linearGradient><linearGradient id="Áåçûìÿííûé_ãðàäèåíò_22-2" x1="414.84" y1="204.71" x2="509.92" y2="204.71" xlink:href="#Áåçûìÿííûé_ãðàäèåíò_22"/><linearGradient id="Áåçûìÿííûé_ãðàäèåíò_22-3" x1="414.84" y1="197.4" x2="509.92" y2="197.4" xlink:href="#Áåçûìÿííûé_ãðàäèåíò_22"/><linearGradient id="Áåçûìÿííûé_ãðàäèåíò_22-4" x1="414.84" y1="190.08" x2="509.92" y2="190.08" xlink:href="#Áåçûìÿííûé_ãðàäèåíò_22"/><linearGradient id="Áåçûìÿííûé_ãðàäèåíò_22-5" x1="414.84" y1="201.05" x2="509.92" y2="201.05" xlink:href="#Áåçûìÿííûé_ãðàäèåíò_22"/><linearGradient id="Áåçûìÿííûé_ãðàäèåíò_22-6" x1="414.84" y1="181.77" x2="509.92" y2="181.77" xlink:href="#Áåçûìÿííûé_ãðàäèåíò_22"/><linearGradient id="Áåçûìÿííûé_ãðàäèåíò_22-7" x1="414.84" y1="174.45" x2="509.92" y2="174.45" xlink:href="#Áåçûìÿííûé_ãðàäèåíò_22"/><linearGradient id="Áåçûìÿííûé_ãðàäèåíò_22-8" x1="414.84" y1="167.14" x2="509.92" y2="167.14" xlink:href="#Áåçûìÿííûé_ãðàäèåíò_22"/><linearGradient id="Áåçûìÿííûé_ãðàäèåíò_22-9" x1="414.84" y1="159.83" x2="509.92" y2="159.83" xlink:href="#Áåçûìÿííûé_ãðàäèåíò_22"/><linearGradient id="Áåçûìÿííûé_ãðàäèåíò_22-10" x1="414.84" y1="170.8" x2="509.92" y2="170.8" xlink:href="#Áåçûìÿííûé_ãðàäèåíò_22"/><linearGradient id="Áåçûìÿííûé_ãðàäèåíò_22-11" x1="414.84" y1="151.51" x2="509.92" y2="151.51" xlink:href="#Áåçûìÿííûé_ãðàäèåíò_22"/><linearGradient id="Áåçûìÿííûé_ãðàäèåíò_22-12" x1="414.84" y1="144.2" x2="509.92" y2="144.2" xlink:href="#Áåçûìÿííûé_ãðàäèåíò_22"/><linearGradient id="Áåçûìÿííûé_ãðàäèåíò_22-13" x1="414.84" y1="136.88" x2="509.92" y2="136.88" xlink:href="#Áåçûìÿííûé_ãðàäèåíò_22"/><linearGradient id="Áåçûìÿííûé_ãðàäèåíò_22-14" x1="414.84" y1="129.57" x2="509.92" y2="129.57" xlink:href="#Áåçûìÿííûé_ãðàäèåíò_22"/><linearGradient id="Áåçûìÿííûé_ãðàäèåíò_22-15" x1="414.84" y1="140.54" x2="509.92" y2="140.54" xlink:href="#Áåçûìÿííûé_ãðàäèåíò_22"/><linearGradient id="Áåçûìÿííûé_ãðàäèåíò_22-17" x1="414.84" y1="142.75" x2="509.91" y2="142.75" xlink:href="#Áåçûìÿííûé_ãðàäèåíò_22"/><linearGradient id="Áåçûìÿííûé_ãðàäèåíò_22-18" x1="453.78" y1="110.34" x2="457.89" y2="110.34" xlink:href="#Áåçûìÿííûé_ãðàäèåíò_22"/><linearGradient id="Áåçûìÿííûé_ãðàäèåíò_22-19" x1="455.87" y1="101.3" x2="466.18" y2="101.3" xlink:href="#Áåçûìÿííûé_ãðàäèåíò_22"/><linearGradient id="Áåçûìÿííûé_ãðàäèåíò_22-20" x1="455.92" y1="91.14" x2="467.09" y2="91.14" xlink:href="#Áåçûìÿííûé_ãðàäèåíò_22"/><linearGradient id="Áåçûìÿííûé_ãðàäèåíò_22-21" x1="475.49" y1="186.25" x2="482.26" y2="186.25" gradientTransform="matrix(1, -0.09, 0.09, 1, -17.45, -16.03)" xlink:href="#Áåçûìÿííûé_ãðàäèåíò_22"/><linearGradient id="Áåçûìÿííûé_ãðàäèåíò_22-22" x1="483.32" y1="133.44" x2="484.27" y2="133.44" gradientTransform="matrix(1, -0.09, 0.09, 1, -17.45, -16.03)" xlink:href="#Áåçûìÿííûé_ãðàäèåíò_22"/><linearGradient id="Áåçûìÿííûé_ãðàäèåíò_22-23" x1="468.98" y1="167.39" x2="485.24" y2="167.39" gradientTransform="matrix(1, -0.09, 0.09, 1, -17.45, -16.03)" xlink:href="#Áåçûìÿííûé_ãðàäèåíò_22"/><linearGradient id="Áåçûìÿííûé_ãðàäèåíò_22-24" x1="484.4" y1="148.12" x2="488.24" y2="148.12" gradientTransform="matrix(1, -0.09, 0.09, 1, -17.45, -16.03)" xlink:href="#Áåçûìÿííûé_ãðàäèåíò_22"/><linearGradient id="Áåçûìÿííûé_ãðàäèåíò_22-25" x1="460.39" y1="182.59" x2="473.54" y2="182.59" gradientTransform="matrix(1, -0.09, 0.09, 1, -17.45, -16.03)" xlink:href="#Áåçûìÿííûé_ãðàäèåíò_22"/><linearGradient id="Áåçûìÿííûé_ãðàäèåíò_22-26" x1="467.77" y1="177.83" x2="469.45" y2="177.83" gradientTransform="matrix(1, -0.09, 0.09, 1, -17.45, -16.03)" xlink:href="#Áåçûìÿííûé_ãðàäèåíò_22"/><linearGradient id="Áåçûìÿííûé_ãðàäèåíò_22-27" x1="464.61" y1="174.66" x2="466.28" y2="174.66" gradientTransform="matrix(1, -0.09, 0.09, 1, -17.45, -16.03)" xlink:href="#Áåçûìÿííûé_ãðàäèåíò_22"/><linearGradient id="Áåçûìÿííûé_ãðàäèåíò_22-28" x1="467.81" y1="160.17" x2="480.25" y2="160.17" gradientTransform="matrix(1, -0.09, 0.09, 1, -17.45, -16.03)" xlink:href="#Áåçûìÿííûé_ãðàäèåíò_22"/><linearGradient id="Áåçûìÿííûé_ãðàäèåíò_18" x1="371.7" y1="117.34" x2="438.32" y2="117.34" gradientUnits="userSpaceOnUse"><stop offset="0" stop-color="#5761d7"/><stop offset="0.16" stop-color="#5e67da"/><stop offset="0.41" stop-color="#727ae2"/><stop offset="0.69" stop-color="#9297ee"/><stop offset="1" stop-color="#bcbeff"/></linearGradient><linearGradient id="Áåçûìÿííûé_ãðàäèåíò_254" x1="390.55" y1="108.34" x2="430.54" y2="108.34" gradientUnits="userSpaceOnUse"><stop offset="0" stop-color="#42e8e0"/><stop offset="0.15" stop-color="#43e3e0"/><stop offset="0.33" stop-color="#45d5df"/><stop offset="0.52" stop-color="#49bddd"/><stop offset="0.72" stop-color="#4e9cdb"/><stop offset="0.93" stop-color="#5472d8"/><stop offset="1" stop-color="#5761d7"/></linearGradient><linearGradient id="Áåçûìÿííûé_ãðàäèåíò_254-2" x1="410.54" y1="101.11" x2="430.54" y2="101.11" xlink:href="#Áåçûìÿííûé_ãðàäèåíò_254"/><linearGradient id="Áåçûìÿííûé_ãðàäèåíò_254-3" x1="390.55" y1="101.11" x2="410.55" y2="101.11" xlink:href="#Áåçûìÿííûé_ãðàäèåíò_254"/><linearGradient id="Áåçûìÿííûé_ãðàäèåíò_254-4" x1="390.55" y1="105.43" x2="430.54" y2="105.43" xlink:href="#Áåçûìÿííûé_ãðàäèåíò_254"/><linearGradient id="Áåçûìÿííûé_ãðàäèåíò_254-5" x1="410.55" y1="112.66" x2="430.54" y2="112.66" xlink:href="#Áåçûìÿííûé_ãðàäèåíò_254"/><linearGradient id="Áåçûìÿííûé_ãðàäèåíò_254-6" x1="390.55" y1="112.66" x2="410.55" y2="112.66" xlink:href="#Áåçûìÿííûé_ãðàäèåíò_254"/><linearGradient id="Áåçûìÿííûé_ãðàäèåíò_18-2" x1="371.7" y1="185.52" x2="438.32" y2="185.52" xlink:href="#Áåçûìÿííûé_ãðàäèåíò_18"/><linearGradient id="Áåçûìÿííûé_ãðàäèåíò_254-7" x1="390.55" y1="176.52" x2="430.54" y2="176.52" xlink:href="#Áåçûìÿííûé_ãðàäèåíò_254"/><linearGradient id="Áåçûìÿííûé_ãðàäèåíò_254-8" x1="410.54" y1="169.3" x2="430.54" y2="169.3" xlink:href="#Áåçûìÿííûé_ãðàäèåíò_254"/><linearGradient id="Áåçûìÿííûé_ãðàäèåíò_254-9" x1="390.55" y1="169.3" x2="410.55" y2="169.3" xlink:href="#Áåçûìÿííûé_ãðàäèåíò_254"/><linearGradient id="Áåçûìÿííûé_ãðàäèåíò_254-10" x1="390.55" y1="173.61" x2="430.54" y2="173.61" xlink:href="#Áåçûìÿííûé_ãðàäèåíò_254"/><linearGradient id="Áåçûìÿííûé_ãðàäèåíò_254-11" x1="410.55" y1="180.84" x2="430.54" y2="180.84" xlink:href="#Áåçûìÿííûé_ãðàäèåíò_254"/><linearGradient id="Áåçûìÿííûé_ãðàäèåíò_254-12" x1="390.55" y1="180.84" x2="410.55" y2="180.84" xlink:href="#Áåçûìÿííûé_ãðàäèåíò_254"/><linearGradient id="Áåçûìÿííûé_ãðàäèåíò_18-3" x1="475.89" y1="117.34" x2="542.51" y2="117.34" xlink:href="#Áåçûìÿííûé_ãðàäèåíò_18"/><linearGradient id="Áåçûìÿííûé_ãðàäèåíò_254-13" x1="494.74" y1="108.34" x2="534.73" y2="108.34" xlink:href="#Áåçûìÿííûé_ãðàäèåíò_254"/><linearGradient id="Áåçûìÿííûé_ãðàäèåíò_254-14" x1="514.74" y1="101.11" x2="534.73" y2="101.11" xlink:href="#Áåçûìÿííûé_ãðàäèåíò_254"/><linearGradient id="Áåçûìÿííûé_ãðàäèåíò_254-15" x1="494.74" y1="101.11" x2="514.74" y2="101.11" xlink:href="#Áåçûìÿííûé_ãðàäèåíò_254"/><linearGradient id="Áåçûìÿííûé_ãðàäèåíò_254-16" x1="494.74" y1="105.43" x2="534.73" y2="105.43" xlink:href="#Áåçûìÿííûé_ãðàäèåíò_254"/><linearGradient id="Áåçûìÿííûé_ãðàäèåíò_254-17" x1="514.74" y1="112.66" x2="534.73" y2="112.66" xlink:href="#Áåçûìÿííûé_ãðàäèåíò_254"/><linearGradient id="Áåçûìÿííûé_ãðàäèåíò_254-18" x1="494.74" y1="112.66" x2="514.74" y2="112.66" xlink:href="#Áåçûìÿííûé_ãðàäèåíò_254"/><linearGradient id="Áåçûìÿííûé_ãðàäèåíò_18-4" x1="475.89" y1="185.52" x2="542.51" y2="185.52" xlink:href="#Áåçûìÿííûé_ãðàäèåíò_18"/><linearGradient id="Áåçûìÿííûé_ãðàäèåíò_254-19" x1="494.74" y1="176.52" x2="534.73" y2="176.52" xlink:href="#Áåçûìÿííûé_ãðàäèåíò_254"/><linearGradient id="Áåçûìÿííûé_ãðàäèåíò_254-20" x1="514.74" y1="169.3" x2="534.73" y2="169.3" xlink:href="#Áåçûìÿííûé_ãðàäèåíò_254"/><linearGradient id="Áåçûìÿííûé_ãðàäèåíò_254-21" x1="494.74" y1="169.3" x2="514.74" y2="169.3" xlink:href="#Áåçûìÿííûé_ãðàäèåíò_254"/><linearGradient id="Áåçûìÿííûé_ãðàäèåíò_254-22" x1="494.74" y1="173.61" x2="534.73" y2="173.61" xlink:href="#Áåçûìÿííûé_ãðàäèåíò_254"/><linearGradient id="Áåçûìÿííûé_ãðàäèåíò_254-23" x1="514.74" y1="180.84" x2="534.73" y2="180.84" xlink:href="#Áåçûìÿííûé_ãðàäèåíò_254"/><linearGradient id="Áåçûìÿííûé_ãðàäèåíò_254-24" x1="494.74" y1="180.84" x2="514.74" y2="180.84" xlink:href="#Áåçûìÿííûé_ãðàäèåíò_254"/></defs><title>Asset 1</title><g class="cls-1"><g id="Layer_2" data-name="Layer 2"><g id="Ñëîé_1" data-name="Ñëîé 1"><rect class="cls-2" width="600" height="239.7"/><path class="cls-3" d="M534.39,64.32q2.9.75,5.69,1.57V79.64q-2.79-.81-5.69-1.56V64.32Z"/><path class="cls-4" d="M521.21,64.9c2.06.39,4.1.81,6.1,1.26V76.38c-2-.44-4-.86-6.1-1.26V64.9Z"/><path class="cls-3" d="M507.19,53.7q3.27.42,6.47.93V73.81q-3.19-.51-6.47-.93V53.7Z"/><path class="cls-4" d="M492.45,41.61c2.29.16,4.55.36,6.79.57V72q-3.36-.33-6.79-.57V41.61Z"/><path class="cls-4" d="M477.09,48c2.37,0,4.73.11,7.06.2V70.93c-2.33-.1-4.69-.16-7.06-.2V48Z"/><path class="cls-3" d="M461.58,24.21q3.48-.13,7-.19V70.73c-2.35,0-4.68.1-7,.19V24.21Z"/><path class="cls-3" d="M446.58,33.83q3.35-.31,6.75-.57V71.38q-3.4.24-6.75.57V33.83Z"/><path class="cls-3" d="M432.21,21.39q3.18-.5,6.45-.92V72.85c-2.18.28-4.33.58-6.45.92V21.39Z"/><g class="cls-5"><g class="cls-6"><path class="cls-7" d="M466.05,186.05a7.28,7.28,0,0,0-7.28,0l-43.42,25a1,1,0,0,0,0,1.77l43.78,25.28a6.42,6.42,0,0,0,6.43,0l43.84-25.25a1,1,0,0,0,0-1.78Z"/></g><g class="cls-6"><path class="cls-8" d="M466.05,178.74a7.28,7.28,0,0,0-7.28,0l-43.42,25a1,1,0,0,0,0,1.78l43.78,25.27a6.42,6.42,0,0,0,6.43,0l43.84-25.25a1,1,0,0,0,0-1.77Z"/></g><g class="cls-6"><path class="cls-9" d="M466.05,171.43a7.26,7.26,0,0,0-7.28,0l-43.42,25a1,1,0,0,0,0,1.78l43.78,25.27a6.42,6.42,0,0,0,6.43,0l43.84-25.25a1,1,0,0,0,0-1.78Z"/></g><g class="cls-6"><path class="cls-10" d="M466.05,164.11a7.28,7.28,0,0,0-7.28,0l-43.42,25a1,1,0,0,0,0,1.77l43.78,25.28a6.47,6.47,0,0,0,6.43,0l43.84-25.25a1,1,0,0,0,0-1.78Z"/></g><path class="cls-11" d="M509.4,189.14l-43.35-25a7.28,7.28,0,0,0-7.28,0l-43.42,25a1,1,0,0,0-.51.88V212a1,1,0,0,0,.51.88l43.78,25.28a6.42,6.42,0,0,0,6.43,0l43.84-25.25a1,1,0,0,0,.52-.89V190h0A1,1,0,0,0,509.4,189.14Z"/></g><g class="cls-6"><path class="cls-12" d="M466.05,155.8a7.28,7.28,0,0,0-7.28,0l-43.42,25a1,1,0,0,0,0,1.78l43.78,25.27a6.42,6.42,0,0,0,6.43,0L509.4,182.6a1,1,0,0,0,0-1.77Z"/></g><g class="cls-6"><path class="cls-13" d="M466.05,148.48a7.28,7.28,0,0,0-7.28,0l-43.42,25a1,1,0,0,0,0,1.77l43.78,25.28a6.42,6.42,0,0,0,6.43,0l43.84-25.25a1,1,0,0,0,0-1.78Z"/></g><g class="cls-6"><path class="cls-14" d="M466.05,141.17a7.28,7.28,0,0,0-7.28,0l-43.42,25a1,1,0,0,0,0,1.78l43.78,25.27a6.42,6.42,0,0,0,6.43,0L509.4,168a1,1,0,0,0,0-1.77Z"/></g><g class="cls-6"><path class="cls-15" d="M466.05,133.86a7.26,7.26,0,0,0-7.28,0l-43.42,25a1,1,0,0,0,0,1.78l43.78,25.27a6.42,6.42,0,0,0,6.43,0l43.84-25.25a1,1,0,0,0,0-1.78Z"/></g><path class="cls-16" d="M509.4,158.88l-43.35-25a7.26,7.26,0,0,0-7.28,0l-43.42,25a1,1,0,0,0-.51.89v21.94a1,1,0,0,0,.51.89l43.78,25.27a6.42,6.42,0,0,0,6.43,0L509.4,182.6a1,1,0,0,0,.52-.89V159.77h0A1,1,0,0,0,509.4,158.88Z"/><g class="cls-6"><path class="cls-17" d="M466.05,125.54a7.28,7.28,0,0,0-7.28,0l-43.42,25a1,1,0,0,0,0,1.77l43.78,25.28a6.47,6.47,0,0,0,6.43,0l43.84-25.25a1,1,0,0,0,0-1.78Z"/></g><g class="cls-6"><path class="cls-18" d="M466.05,118.23a7.31,7.31,0,0,0-7.28,0l-43.42,25a1,1,0,0,0,0,1.78l43.78,25.27a6.42,6.42,0,0,0,6.43,0L509.4,145a1,1,0,0,0,0-1.77Z"/></g><g class="cls-6"><path class="cls-19" d="M466.05,110.91a7.28,7.28,0,0,0-7.28,0l-43.42,25a1,1,0,0,0,0,1.77L459.13,163a6.42,6.42,0,0,0,6.43,0l43.84-25.25a1,1,0,0,0,0-1.78Z"/></g><g class="cls-6"><path class="cls-20" d="M466.05,103.6a7.28,7.28,0,0,0-7.28,0l-43.42,25a1,1,0,0,0,0,1.78l43.78,25.27a6.42,6.42,0,0,0,6.43,0L509.4,130.4a1,1,0,0,0,0-1.77Z"/></g><path class="cls-21" d="M509.4,128.63l-43.35-25a7.28,7.28,0,0,0-7.28,0l-43.42,25a1,1,0,0,0-.51.89v21.94a1,1,0,0,0,.51.89l43.78,25.28a6.47,6.47,0,0,0,6.43,0l43.84-25.25a1,1,0,0,0,.52-.89V129.52h0A1,1,0,0,0,509.4,128.63Z"/><g class="cls-6"><path class="cls-20" d="M466.05,103.6a7.28,7.28,0,0,0-7.28,0l-43.42,25a1,1,0,0,0,0,1.78l43.78,25.27a6.42,6.42,0,0,0,6.43,0L509.4,130.4a1,1,0,0,0,0-1.77Z"/></g><path class="cls-22" d="M509.4,129.39l-43.84,25.25a6.42,6.42,0,0,1-6.43,0l-43.78-25.27A1.06,1.06,0,0,1,415,129a1,1,0,0,0,.38,1.39l43.78,25.27a6.42,6.42,0,0,0,6.43,0L509.4,130.4a1,1,0,0,0,.38-1.39A.93.93,0,0,1,509.4,129.39Z"/><polygon class="cls-3" points="419.94 137.12 421.02 137.75 421.02 137.02 419.94 136.4 419.94 137.12"/><polygon class="cls-3" points="419.94 142.01 421.02 142.63 421.02 138.4 419.94 137.78 419.94 142.01"/><polygon class="cls-3" points="419.94 144.35 421.02 144.97 421.02 143.29 419.94 142.67 419.94 144.35"/><polygon class="cls-3" points="419.94 146.77 421.02 147.4 421.02 145.72 419.94 145.09 419.94 146.77"/><polygon class="cls-3" points="418.34 138.53 419.42 139.15 419.42 137.47 418.34 136.85 418.34 138.53"/><polygon class="cls-3" points="418.34 141.74 419.42 142.37 419.42 139.9 418.34 139.28 418.34 141.74"/><polygon class="cls-3" points="418.34 144.7 419.42 145.32 419.42 143.21 418.34 142.58 418.34 144.7"/><polygon class="cls-3" points="419.94 149.2 421.02 149.82 421.02 148.14 419.94 147.52 419.94 149.2"/><polygon class="cls-3" points="418.34 136.19 419.42 136.82 419.42 136.09 418.34 135.47 418.34 136.19"/><polygon class="cls-3" points="419.14 151.09 421.02 152.17 421.02 151.47 419.14 150.38 419.14 151.09"/><ellipse class="cls-23" cx="462.38" cy="129.57" rx="23.31" ry="13.46"/><path class="cls-24" d="M462.5,118.48l0,.21.07-.14a2.9,2.9,0,0,1,0,1.63,12.48,12.48,0,0,1-1.25,2c-.58.76-1.5,2.33-1.74,2.64a6,6,0,0,1-3.41,1.66c-1.76.18-2.21-.82-2.06-1.37a12,12,0,0,1,2.12-3.17,16,16,0,0,0,1.82-2.69Z"/><path class="cls-24" d="M457.21,113.7a8.7,8.7,0,0,1-.06,1.59c-.12.47-2.71.61-3.63.73a13.6,13.6,0,0,0-3,1c-.5.25-3.86.6-4.27-.64s1.69-2.27,3.11-2.6,3.74-1,3.74-1Z"/><path class="cls-25" d="M466.18,91.35a31.51,31.51,0,0,1-1,7.53,29.51,29.51,0,0,0-.93,7.43s1.11,5,.14,8.32-1.8,4.32-1.8,4.32a2.91,2.91,0,0,1-4.49.27,40.71,40.71,0,0,0,1.6-8.33,25.18,25.18,0,0,1-1.7-5.13s-.36,3.85-.58,5.4c0,0,.22,2.28-.39,3.2s-3.35,1.19-4.22-.41.73-.82.24-8.19a16.78,16.78,0,0,1-2.89-8.93c-.36-5.79-.33-8.09,0-9.21s5.92-5.2,5.92-5.2l3.16,4Z"/><path class="cls-26" d="M457.89,107.19c-.15-.53-.29-1.08-.39-1.61,0,0-.36,3.84-.58,5.39,0,0,.22,2.29-.39,3.21a2.82,2.82,0,0,1-2.75.64c1.17.56,2.83.24,3.28-.46.61-.92.39-3.2.39-3.2C457.58,110.22,457.77,108.45,457.89,107.19Z"/><path class="cls-27" d="M466.18,91.35l-6.91-4.9-3.16-4-.24.18,2.87,3.67,6.91,4.89a31.57,31.57,0,0,1-1,7.54,30.09,30.09,0,0,0-.93,7.43s1.11,4.94.14,8.31-1.8,4.33-1.8,4.33a3.07,3.07,0,0,1-2.93,1.14,2.94,2.94,0,0,0,3.46-1s.82-1,1.8-4.32-.14-8.32-.14-8.32a29.51,29.51,0,0,1,.93-7.43A31.51,31.51,0,0,0,466.18,91.35Z"/><path class="cls-24" d="M453.72,97.81c-.91-1.09-1.42-4.52-1.42-4.52A16.14,16.14,0,0,0,454.74,97a6.91,6.91,0,0,1,2.08,3.6c.18,1.1,1.21,5.15,1.21,5.15s-.36,3.85-.58,5.4c0,0,.22,2.28-.39,3.2a1.33,1.33,0,0,1-.6.47s.16-5.09,0-7.23S454.63,98.9,453.72,97.81Z"/><path class="cls-28" d="M474.58,68s2.41,4.71,2.65,5.08,4.76,6.11,5.2,9.44A2.42,2.42,0,0,1,481.21,85c-1.55,1.14-9.39,6.11-9.88,6.18a4.72,4.72,0,0,1-3.44-4.41s6.14-2.87,7.47-4.3a42.68,42.68,0,0,0-3.56-5.2,2.78,2.78,0,0,1-.56-1.48,8.1,8.1,0,0,1,2.62-7.09Z"/><path class="cls-25" d="M456.55,57s-3.74,1.38-5,.91S447.13,57,445,55.79s-11.53-3.62-12.92-3.7c0,0,0,0,.2.15a1.75,1.75,0,0,1,1.46,1.27,3.52,3.52,0,0,1-.47,2.5c-.16.09-.25-.3-1.15-.71a3.38,3.38,0,0,0-1.45-.39l-.34.43-.21.32a2.12,2.12,0,0,0,1.65,1.41c1.2.09,8.92,3.31,9.4,3.46s7,2.94,8.18,3.37a13.94,13.94,0,0,1,2.16,1s3.79-2.53,3.91-2.53S456.55,57,456.55,57Z"/><path class="cls-29" d="M422.8,50.52c.16,0,2.11.69,2.11.69s-.77.4-.85.75a12.52,12.52,0,0,0,.23,2.45,3,3,0,0,0,.6.46c.12.08.42.75.7.67s.37-.44.37-.44l.28-.15a5.12,5.12,0,0,1,1.93.38,3.16,3.16,0,0,0,1.94.33,9.23,9.23,0,0,0,1.21-.53,3,3,0,0,1,.75.21c.26.14,1.11.71,1.24.76s1.87-3.37-1.24-4a7.5,7.5,0,0,1-1.85-.39c-.56-.26-2.14-1.48-2.72-1.5a4.05,4.05,0,0,0-1.18.17s-3.52-1-3.81-.69S422.64,50.48,422.8,50.52Zm2.55,2.34a1,1,0,0,0,.71-.43.48.48,0,0,0,.54,0c0,.06.48.16.48.16l.49.38c.28.2-.09.79-.09.79a1.86,1.86,0,0,1-.83-.23,4.28,4.28,0,0,0-.67-.18A4.06,4.06,0,0,1,425.35,52.86Z"/><path class="cls-24" d="M450.19,87.62c.33-1.13,5.92-5.2,5.92-5.2l1.57,2L459,89.65l7.14,2.23h0s-.38,3.57-6.2,3.16-6.5-4.92-6.5-4.92S452.82,91.6,450,92A16.34,16.34,0,0,1,450.19,87.62Z"/><path class="cls-30" d="M467.5,59.9l1,2.52s4.74,4.1,6.1,5.58a28.67,28.67,0,0,0-2.78,9.22A29.44,29.44,0,0,0,469,79.8a46.27,46.27,0,0,0-2.84,5.81c-.53,1.24.95,5,.95,5s-2,3.72-5.26,3.6-5.45-2.1-5.86-5.62a19.85,19.85,0,0,1-.29-4s-1.46,4.32-3.67,4.32-5.71-3.75-5.71-3.75S443.93,83,444.15,82s5.57-9.36,5.86-10.75,1.49-6.33,1.49-6.33L456.55,57l3.07.15Z"/><path class="cls-31" d="M461.7,93.29a5.74,5.74,0,0,1-5.78-5.18c0,.14,0,.29.05.45.41,3.52,2.62,5.5,5.86,5.62s5.26-3.6,5.26-3.6-.11-.27-.26-.69C466.37,90.66,464.49,93.4,461.7,93.29Z"/><path class="cls-32" d="M467.5,59.9a8.81,8.81,0,0,1-.57,3c-.6,1.5-2.54,9.91-6.94,12.78l-1.7,1.08V71.4a20.16,20.16,0,0,1,.79-5.39,15.37,15.37,0,0,0,.72-4.63S461,61,461,61.06,467.5,59.9,467.5,59.9Z"/><path class="cls-29" d="M462.07,63.8s-.78.32-1.12-.19a3.69,3.69,0,0,1-.59-2s-2.09.1-2.5-1A1.79,1.79,0,0,1,458,58.9a8.11,8.11,0,0,1,.4-1.89l0-.27s-.42-.37-.23-.75,1.33-1.57,1.45-1.77,0-1.68.41-2.41a18.76,18.76,0,0,1,1.3-1.76s4.45-3.46,7.94,0-1.77,9.85-1.77,9.85a6,6,0,0,1-1.44,2.88C465,63.6,462.07,63.8,462.07,63.8Z"/><path class="cls-33" d="M465.32,55.37a1.2,1.2,0,0,1,.05-.38,1.82,1.82,0,0,0-.71-2.18C463.32,51.84,461,51,461,50s3.79-3.37,6.53-2.08,5.32,4.54,3.45,8-3.52,4-3.52,4-.56-.12-.06-.69,1.41-2,.66-2.48-2.07.53-2.24.75a2.11,2.11,0,0,0-.2.29.37.37,0,0,1-.47.15l-.06,0a.36.36,0,0,1-.19-.46l.32-.9a1,1,0,0,0,.07-.41Z"/><path class="cls-34" d="M462.18,64.78a5.21,5.21,0,0,1,1.57,2,6.81,6.81,0,0,0-1.65-1.31s-1.17.54-1.17.91a24.47,24.47,0,0,1-.38,3.72,42.11,42.11,0,0,0-.24,5.3l-.74.49-.35-1.81.14-3.86.68-3.52s.13-1.33.18-1.4S462.18,64.78,462.18,64.78Z"/><path class="cls-25" d="M462.18,64.78s-1.13-1.21-1.7-1.23a1,1,0,0,0-.88.35l-.55,1.95a23.45,23.45,0,0,0-1,7.11,22.64,22.64,0,0,0,.2,3.79l1.4-.89a17.52,17.52,0,0,1,.39-5.9c.76-3.17.09-3.64.45-4S462.36,65.16,462.18,64.78Z"/><path class="cls-25" d="M469,79.8a45.62,45.62,0,0,0-2.81,5.81,1.93,1.93,0,0,0-.14.77l-.22.14-.71-.69s.64-2.29,1.66-5.13,5-3.48,5-3.48A29.44,29.44,0,0,0,469,79.8Z"/><path class="cls-29" d="M467.89,86.81a13.57,13.57,0,0,0-1.52-1.89s.08.47-.57.77-4.08,1.62-4.2,1.77,0,.35.22.39a5,5,0,0,1-1,.24c-.29,0-.68.36-.48.68s.36.29.36.29-.09.35.12.43a3.26,3.26,0,0,0,.73.09.41.41,0,0,0,.18.49,10.47,10.47,0,0,0,1.67.29s1.09-.11,1.4-.12a16.14,16.14,0,0,0,2.32.26,18.68,18.68,0,0,0,2.79-.91C470.11,89.47,467.89,86.81,467.89,86.81Z"/><path class="cls-25" d="M468.71,63.24l-.15,2.26-1.22.38.82.67s-3.31,7.52-7.53,9.9c0,0,4-1.43,7.84-9.83L468,66l.85-.37Z"/><path class="cls-25" d="M457.91,63s-1.5,7.67-.22,13.45c0,0-1.53-2.78-.15-13.45Z"/><path class="cls-35" d="M424.14,51.8a2.6,2.6,0,0,1,.77-.59l1.87.77S425.14,51.81,424.14,51.8Z"/><path class="cls-35" d="M433.31,56.1l-.59-.36h0c1.06-1.43-.1-3.49-.11-3.49C435,53.16,433.43,56.14,433.31,56.1Z"/><path class="cls-35" d="M469.91,89.59a19.29,19.29,0,0,1-2.1.74,11.47,11.47,0,0,1-.41-2.77c.12-.69.41-.86.41-.86l.08.11S470.11,89.47,469.91,89.59Z"/><path class="cls-28" d="M467.89,86.72a2.39,2.39,0,0,0,.45,2.12c.81.93.9,1,.9,1h.93a10.34,10.34,0,0,0,.41-1.5Z"/><path class="cls-25" d="M459.22,65.24h0a43.66,43.66,0,0,0-.69,7.19,34.14,34.14,0,0,1,.13,4l-.28.25-.09,0a22.64,22.64,0,0,1-.2-3.79,23.45,23.45,0,0,1,1-7.11S459.13,65.58,459.22,65.24Z"/><path class="cls-24" d="M458.93,119.8a4.34,4.34,0,0,1-.8-.58,40.71,40.71,0,0,0,1.6-8.33,25.18,25.18,0,0,1-1.7-5.13,41,41,0,0,1,2.26,5.74C461,114.16,458.93,119.8,458.93,119.8Z"/><path class="cls-35" d="M465.44,59.05h0Z"/><path class="cls-35" d="M465.44,59.05a7.56,7.56,0,0,1-1.16,2.88c-.78.91-1.38,1.79-1.38,1.79-.49.06-.83.08-.83.08s-.78.32-1.12-.19a3.69,3.69,0,0,1-.59-2,11.58,11.58,0,0,0,3.89-1A2.68,2.68,0,0,0,465.44,59.05Z"/><path class="cls-36" d="M466.46,84.94a2.87,2.87,0,0,1-.18.34s-.06-.24-.06-.24.12-.26.13-.26A1.53,1.53,0,0,1,466.46,84.94Z"/><path class="cls-25" d="M458.29,76.75s-2,6.26-2.61,7.78l0,1.51S458.21,78.26,458.29,76.75Z"/><path class="cls-25" d="M456.4,79a.67.67,0,0,0,.41.85.68.68,0,0,0,.82-.47.67.67,0,0,0-.42-.85A.66.66,0,0,0,456.4,79Z"/><path class="cls-25" d="M455.4,81.69a.64.64,0,1,0,.82-.48A.67.67,0,0,0,455.4,81.69Z"/><path class="cls-37" d="M465.26,56.53a1,1,0,0,0,.07-.41v-.75a1.2,1.2,0,0,1,.05-.38,1.92,1.92,0,0,0,.11-.47s3,2.23,5,2.32c-1.63,2.6-3,3.06-3,3.06s-.56-.12-.06-.69,1.41-2,.66-2.48-2.07.53-2.24.75a2.11,2.11,0,0,0-.2.29.37.37,0,0,1-.47.15l-.06,0a.36.36,0,0,1-.19-.46Z"/><path class="cls-24" d="M471.05,138.49a16.15,16.15,0,0,1-2.72.4c-1.33.05-5,.78-4.87,2.13s2,3.32,4.36,3.61,5.44-.4,7-.36a2.17,2.17,0,0,0,2-3.06C476.22,139.71,471.05,138.49,471.05,138.49Z"/><path class="cls-24" d="M479.06,134.85s.51.82.26,1.32-.92,1.76-3.09.55-6.34-2.93-6.34-2.93-2.4-1.28-2.26-2.78,2.33-1.27,2.33-1.27Z"/><path class="cls-25" d="M465,113.53s.92,9.76,2.89,13.46,2.54,10.65,3,12a5.36,5.36,0,0,0,3.74,3.62c2,.41,2.37-1,2.27-1.81s-.66-2.17-.67-3.07a9.35,9.35,0,0,1,.23-1.73s2.33.69,2.69-1.12a5.19,5.19,0,0,1-.22-.79c0-.27.2-6.81.25-7.6a33.06,33.06,0,0,0-1-7.17c-.64-2.09-.43-6.53-.43-6.53l-6.64-.92Z"/><path class="cls-38" d="M478.08,119.29c-.64-2.09-.43-6.53-.43-6.53l-.58-.08a25.88,25.88,0,0,0,.42,6.43,33.07,33.07,0,0,1,1,7.16c-.06.8-.3,7.33-.26,7.6a5.57,5.57,0,0,0,.21.79c-.35,1.81-2.68,1.12-2.68,1.12a10.05,10.05,0,0,0-.24,1.73,31.16,31.16,0,0,0,.67,3.06c.1.84-.23,2.22-2.27,1.82l-.18-.06a3.47,3.47,0,0,0,.79.25c2,.41,2.37-1,2.27-1.81s-.66-2.17-.67-3.07a10.53,10.53,0,0,1,.23-1.81s2.33.77,2.69-1a5.19,5.19,0,0,1-.22-.79c0-.27.2-6.81.25-7.6A33.06,33.06,0,0,0,478.08,119.29Z"/><path class="cls-24" d="M475.68,113.47a7.65,7.65,0,0,1-.66,2.81,53.93,53.93,0,0,1-.52,7.81s.86,5.28,1.4,6.94a19.78,19.78,0,0,1,.47,4.94,2.22,2.22,0,0,0,.65.11c.38,0,.41-6.45-.18-7.59s-1-6.17-.8-7.71.14-5.89.43-6.66a1,1,0,0,0-.36-1.18Z"/><path class="cls-24" d="M470.09,78.25a4.78,4.78,0,0,0-1.83,3.8l1.44-.31S469.27,79.08,470.09,78.25Z"/><path class="cls-24" d="M470.84,115.6a10.66,10.66,0,0,0,6.78-1.82c0-.62,0-1,0-1l-6.64-.92L465,113.53s.18,1.92.56,4.39c1.08.11,2.14-2.54,2.14-2.54l3,.19S466.45,115.46,470.84,115.6Z"/><path class="cls-30" d="M465.8,113.67s9.57,3.91,14.19-3.5a1.31,1.31,0,0,0,.19-.73l-.06-1.73a1.77,1.77,0,0,1,.09-.64h0a2.76,2.76,0,0,0,.1-1.37c-.36-1.93-1.33-7.18-1.56-8.64-.28-1.77.66-8.88,2.25-12s-2.45-9.85-2.45-9.85a2.62,2.62,0,0,0-2.92-1s1.84,1.29.84,2.65-4,2.46-4,2.46-5.6,2.9-7.51,6.43a14.8,14.8,0,0,0-.72,4.16c-.05,2.35.2,8,.11,8.77s-.4,6.16-.37,6.41S465.8,113.67,465.8,113.67Z"/><path class="cls-39" d="M476.53,75.19a1.37,1.37,0,0,0,0-1.09,2.74,2.74,0,0,0-.87.1A3.41,3.41,0,0,1,476.53,75.19Z"/><path class="cls-25" d="M468.7,114.47s5.63-15.21,5.37-20.74-8.23,10.91-8.23,10.91l0,9A17,17,0,0,0,468.7,114.47Z"/><path class="cls-40" d="M480.05,105.59a1.89,1.89,0,0,0-.09.63l.06,1.72a1.29,1.29,0,0,1-.18.72c-4.62,7.36-14.15,3.48-14.15,3.48s-1.31-6-1.72-7.92c0,.47,0,.8,0,.86,0,.25,1.86,8.59,1.86,8.59s9.57,3.91,14.19-3.5a1.31,1.31,0,0,0,.19-.73l-.06-1.73a1.77,1.77,0,0,1,.09-.64,2.76,2.76,0,0,0,.1-1.37l-.14-.71A2.55,2.55,0,0,1,480.05,105.59Z"/><path class="cls-41" d="M480.85,83.76c-1.58,3.06-2.52,10.12-2.25,11.88,0,.16.06.38.1.62,0-2.54.89-8.43,2.3-11.16a5.12,5.12,0,0,0,.2-3.22A3.91,3.91,0,0,1,480.85,83.76Z"/><path class="cls-28" d="M465.66,96.5a26.13,26.13,0,0,0,.34-3.74c0-2.16.63-5.75,4.54-5.13,5.54.89,3.17,8.64,2.56,10s-3,7.51-3.16,7.86a108.48,108.48,0,0,1-5.31,9.83.34.34,0,0,1-.5.06c-.55-.47-1.8-1.59-2-2.31-.21-.91.59-4.23.59-4.23s2.16-8.29,2.34-8.67S465.33,98.51,465.66,96.5Z"/><path class="cls-29" d="M470.19,78.42a2,2,0,0,0-1.46-1.1c-1-.1-1.59-.39-1.69-.76a7.39,7.39,0,0,0-.35-1.39,9.57,9.57,0,0,1-.45-2s-.77-.27-.81-.61.37-1.55.32-1.64a3.09,3.09,0,0,1-.4-1.42,7.23,7.23,0,0,1,.44-2.12c.31-.7,2.46-5,8-2.78s1.36,7,1.92,10.06c0,0,.5.65-.42,1.75S471.73,77.8,470.19,78.42Z"/><path class="cls-35" d="M475.34,76.45c.92-1.1.42-1.75.42-1.75a4.21,4.21,0,0,1,0-1.37l-2.22.42s-3.27-2.91-3-1.35-.56,1.84-.56,1.84l.67.85c.17.22.07.48-.07.72-.94,1.61-3.2,1.12-3.21,1.13a3.38,3.38,0,0,0,1.38.38,2,2,0,0,1,1.46,1.1C471.73,77.8,474.41,77.56,475.34,76.45Z"/><path class="cls-33" d="M465.55,65.79s-.39,1.15.24,1.63l1.21.94v1.46a1,1,0,0,0,.18.59l.8,1.23a1.62,1.62,0,0,1,.24.8V73a.34.34,0,0,0,.3.34l.21,0a.33.33,0,0,0,.37-.3l.09-.83s.42-.66,1.34.13l.82.34a.88.88,0,0,1,.5.52,5.79,5.79,0,0,0,1.1,2.1c.5.29,2.43-.72,2.69-1.16s.91-3.39,1.32-4.8.16-4.85-4-5.74S466.12,64.54,465.55,65.79Z"/><path class="cls-37" d="M475.63,74.2c.26-.44.91-3.39,1.32-4.8a10.23,10.23,0,0,1-3.71,1.39c-2.09.32-6.24-2-6.24-2v1.07a1,1,0,0,0,.18.59l.8,1.23a1.62,1.62,0,0,1,.24.8V73a.34.34,0,0,0,.3.34l.21,0a.33.33,0,0,0,.37-.3l.09-.83s.42-.66,1.34.13l1.19.49s.73,2.19,1.23,2.47S475.37,74.64,475.63,74.2Z"/><path class="cls-32" d="M475.72,74.34s1.62,1,.81,2.42-6.69,4-7,4.33c0,0-.23-2.12.54-2.84,0,0,4.5-.88,5.2-2A2.32,2.32,0,0,0,475.72,74.34Z"/><path class="cls-34" d="M475.72,74.34a2.32,2.32,0,0,1-.43,1.88c-.53.87-3.23,1.58-4.52,1.88h0a4.69,4.69,0,0,1,1.28,1.63c1.81-.93,4-2.14,4.48-3C477.34,75.34,475.72,74.34,475.72,74.34Z"/><path class="cls-25" d="M476.81,78.87s-2.62,1.51-3.89,2.18-2.68,1.59-2.68,1.59l-.49-.49-.59,1.29a17.73,17.73,0,0,0-3,2.21,10.49,10.49,0,0,0-1.76,2.64S467,85,468.94,84l.53-.26.31-1,.48.52S476,79.77,476.81,78.87Z"/><path class="cls-42" d="M470.06,123.3h0a1.32,1.32,0,0,0-.35-.57l-10.77-9c-.28-.24-.56-.06-.61.41l-1.26,10.52a1.69,1.69,0,0,0,.42,1.34l9,7.82-.31,3,2.7-1.24h0a.66.66,0,0,0,.24-.51l1-11A1.8,1.8,0,0,0,470.06,123.3Z"/><path class="cls-30" d="M456,114.73l2.54-1.1.08,0a.36.36,0,0,1,.31.1l10.77,9a1.32,1.32,0,0,1,.35.57l-.39.18h0l-2.19,1.06L458,116.47h0Z"/><path class="cls-25" d="M454.84,127.14l11,9.59c.3.27.59.07.64-.44l1.07-11.06a1.75,1.75,0,0,0-.45-1.33l-10.75-9.09c-.28-.24-.56-.06-.62.41l-1.32,10.58A1.69,1.69,0,0,0,454.84,127.14Z"/><path class="cls-24" d="M467.85,135.64l1-11a1.72,1.72,0,0,0-.45-1.33l-10.76-9.06a.37.37,0,0,0-.25-.11.34.34,0,0,1,.34.09l10.76,9.06a1.68,1.68,0,0,1,.45,1.33l-1,11c0,.35-.17.56-.36.57C467.73,136.13,467.83,135.93,467.85,135.64Z"/><path class="cls-24" d="M463.91,119.4l.56-.28a.51.51,0,0,1,.35-.06h.05c.06,0,.08.07.08.15l0,.11-1.58.79V120a.52.52,0,0,1,.12-.26l0-.06A1.29,1.29,0,0,1,463.91,119.4Z"/><polygon class="cls-24" points="464.11 120.76 463.35 120.12 464.92 119.1 465.67 119.73 464.11 120.76"/><path class="cls-43" d="M464.67,120l.56-.28a.48.48,0,0,1,.36-.06h0c.06,0,.09.07.08.16v.1l-1.59.79v-.1a.52.52,0,0,1,.12-.26l.05-.06A1.29,1.29,0,0,1,464.67,120Z"/><polygon class="cls-44" points="465.01 120.31 465.06 119.85 465.01 119.87 464.96 120.34 465.01 120.31"/><polygon class="cls-44" points="465.06 119.85 464.27 119.22 464.23 119.24 465.01 119.87 465.06 119.85"/><path class="cls-24" d="M460.49,116.52l.56-.27a.53.53,0,0,1,.35-.07h0a.14.14,0,0,1,.08.16v.1l-1.58.78v-.1a.45.45,0,0,1,.12-.25l.05-.06A1.47,1.47,0,0,1,460.49,116.52Z"/><polygon class="cls-24" points="460.68 117.87 459.93 117.23 461.5 116.23 462.24 116.85 460.68 117.87"/><path class="cls-45" d="M461.24,117.16l.56-.28a.46.46,0,0,1,.35-.06h.05c.05,0,.08.07.07.15v.1l-1.58.79v-.1a.52.52,0,0,1,.12-.26l.05-.06A1.24,1.24,0,0,1,461.24,117.16Z"/><polygon class="cls-44" points="461.57 117.42 461.63 116.97 461.58 116.99 461.52 117.45 461.57 117.42"/><polygon class="cls-44" points="461.63 116.97 460.85 116.34 460.81 116.36 461.58 116.99 461.63 116.97"/><path class="cls-30" d="M465.36,117.64l-.2,2-.51-.43.2-1.91a1,1,0,0,0-.31-.8l-2.19-1.83c-.2-.17-.38-.08-.41.2l-.21,1.88-.5-.42.21-1.93c.07-.61.48-.81.91-.45l2.34,2A2.3,2.3,0,0,1,465.36,117.64Z"/><path class="cls-30" d="M461.58,114.5l.9-.09,2.62,2.44.11,1.5,0,1.26-.59.29,0-1.57,0-1.07-.54-.77s-1-.79-1-.81S461.58,114.5,461.58,114.5Z"/><polygon class="cls-30" points="461.15 117.01 461.73 116.72 461.88 115.33 461.33 115.38 461.16 115.41 461.15 117.01"/><polygon class="cls-30" points="461.17 114.08 461.79 113.77 461.63 114.11 461.42 114.18 461.17 114.08"/><path class="cls-24" d="M464.78,117.93l-.21,2-.51-.43.2-1.91a1,1,0,0,0-.3-.8l-2.19-1.84c-.2-.16-.38-.07-.41.2l-.21,1.89-.51-.42.22-1.94c.07-.6.48-.8.91-.44l2.33,2A2.26,2.26,0,0,1,464.78,117.93Z"/><path class="cls-29" d="M462.33,113a11.74,11.74,0,0,0-.27,2.41,3.16,3.16,0,0,0,1.58,1.58c.55.17.32-.49.45-.91a6.15,6.15,0,0,0,.1-1.31Z"/><path class="cls-35" d="M464.19,114.75,462.33,113s-.08.4-.15.87a4.59,4.59,0,0,0,2,2A7.4,7.4,0,0,0,464.19,114.75Z"/><path class="cls-28" d="M462.19,113.13s.66,2.06,2.32,2.26l-.57-2.26s-1.4-.4-1.44-.4S462.19,113.13,462.19,113.13Z"/><path class="cls-46" d="M473,88.85c1.54,4.68-2.31,12-2.86,14.07S463.7,115,463.7,115h0l-.05.1a2.58,2.58,0,0,0,.38.26,1.17,1.17,0,0,0,.26.1h0a.34.34,0,0,0,.34-.14,108.48,108.48,0,0,0,5.31-9.83c.13-.35,2.55-6.49,3.16-7.86C473.59,96.54,475.22,91.31,473,88.85Z"/><path class="cls-47" d="M410.54,133.84a2.25,2.25,0,0,1-1.09-.25L385,119.46a.87.87,0,0,1-.49-.74,1.13,1.13,0,0,1,.65-.91l24.15-13.94a2.71,2.71,0,0,1,2.47-.1l24.48,14.13a.89.89,0,0,1,.49.74,1.12,1.12,0,0,1-.66.91l-24.14,13.94A2.87,2.87,0,0,1,410.54,133.84Zm-.9-.58a2.37,2.37,0,0,0,2.1-.1l24.15-13.94c.29-.17.46-.38.46-.58a.52.52,0,0,0-.3-.41L411.57,104.1a2.35,2.35,0,0,0-2.09.1l-24.15,13.94c-.29.17-.46.38-.46.58a.52.52,0,0,0,.3.41Z"/><polygon class="cls-48" points="436.54 108.34 436.54 111.34 410.55 126.35 384.55 111.34 384.55 108.34 436.54 108.34"/><polygon class="cls-49" points="410.55 123.35 384.55 108.34 410.55 93.33 436.54 108.34 410.55 123.35"/><polygon class="cls-50" points="410.55 123 384.86 108.16 384.55 108.34 410.55 123.35 436.54 108.34 436.24 108.16 410.55 123"/><polygon class="cls-51" points="410.55 119.88 390.55 108.34 410.55 96.8 430.54 108.34 410.55 119.88"/><polygon class="cls-52" points="410.55 119.89 390.55 108.34 410.55 96.8 430.54 108.34 410.55 119.89"/><polygon class="cls-53" points="410.55 93.89 430.54 105.43 430.54 108.34 410.55 96.8 410.55 93.89"/><polygon class="cls-54" points="410.55 96.8 390.55 108.34 390.55 105.43 410.55 93.89 410.55 96.8"/><polygon class="cls-55" points="410.55 116.97 390.55 105.43 410.55 93.89 430.54 105.43 410.55 116.97"/><polygon class="cls-4" points="410.55 110.04 402.56 105.43 410.55 100.82 418.53 105.43 410.55 110.04"/><polygon class="cls-4" points="410.55 101.24 418.17 105.64 418.53 105.43 410.55 100.82 402.56 105.43 402.92 105.64 410.55 101.24"/><polygon class="cls-56" points="410.55 116.97 410.55 119.88 430.54 108.34 430.54 105.43 410.55 116.97"/><polygon class="cls-57" points="390.55 105.43 390.55 108.34 410.55 119.88 410.55 116.97 390.55 105.43"/><polygon class="cls-58" points="410.55 116.66 390.83 105.27 390.55 105.43 410.55 116.97 430.54 105.43 430.26 105.27 410.55 116.66"/><path class="cls-47" d="M410.54,202a2.25,2.25,0,0,1-1.09-.25L385,187.64a.87.87,0,0,1-.49-.74,1.13,1.13,0,0,1,.65-.91l24.15-13.94a2.71,2.71,0,0,1,2.47-.1l24.48,14.13a.89.89,0,0,1,.49.74,1.12,1.12,0,0,1-.66.91l-24.14,13.94A2.87,2.87,0,0,1,410.54,202Zm-.9-.58a2.4,2.4,0,0,0,2.1-.09l24.15-13.95c.29-.17.46-.38.46-.58a.52.52,0,0,0-.3-.41l-24.48-14.13a2.35,2.35,0,0,0-2.09.1l-24.15,13.94c-.29.17-.46.38-.46.58a.52.52,0,0,0,.3.41Z"/><polygon class="cls-59" points="436.54 176.52 436.54 179.52 410.55 194.53 384.55 179.52 384.55 176.52 436.54 176.52"/><polygon class="cls-49" points="410.55 191.53 384.55 176.52 410.55 161.51 436.54 176.52 410.55 191.53"/><polygon class="cls-50" points="410.55 191.18 384.86 176.34 384.55 176.52 410.55 191.53 436.54 176.52 436.24 176.34 410.55 191.18"/><polygon class="cls-51" points="410.55 188.06 390.55 176.52 410.55 164.98 430.54 176.52 410.55 188.06"/><polygon class="cls-60" points="410.55 188.06 390.55 176.52 410.55 164.98 430.54 176.52 410.55 188.06"/><polygon class="cls-61" points="410.55 162.07 430.54 173.61 430.54 176.52 410.55 164.98 410.55 162.07"/><polygon class="cls-62" points="410.55 164.98 390.55 176.52 390.55 173.61 410.55 162.07 410.55 164.98"/><polygon class="cls-63" points="410.55 185.16 390.55 173.61 410.55 162.07 430.54 173.61 410.55 185.16"/><polygon class="cls-4" points="410.55 178.22 402.56 173.61 410.55 169 418.53 173.61 410.55 178.22"/><polygon class="cls-4" points="410.55 169.42 418.17 173.82 418.53 173.61 410.55 169 402.56 173.61 402.92 173.82 410.55 169.42"/><polygon class="cls-64" points="410.55 185.16 410.55 188.06 430.54 176.52 430.54 173.61 410.55 185.16"/><polygon class="cls-65" points="390.55 173.61 390.55 176.52 410.55 188.06 410.55 185.16 390.55 173.61"/><polygon class="cls-58" points="410.55 184.84 390.83 173.45 390.55 173.61 410.55 185.16 430.54 173.61 430.26 173.45 410.55 184.84"/><path class="cls-47" d="M514.74,133.84a2.2,2.2,0,0,1-1.09-.25l-24.48-14.13a.87.87,0,0,1-.49-.74,1.13,1.13,0,0,1,.65-.91l24.15-13.94a2.71,2.71,0,0,1,2.47-.1l24.48,14.13a.87.87,0,0,1,.49.74,1.13,1.13,0,0,1-.65.91l-24.15,13.94A2.86,2.86,0,0,1,514.74,133.84Zm-.9-.58a2.35,2.35,0,0,0,2.09-.1l24.15-13.94c.29-.17.46-.38.46-.58a.52.52,0,0,0-.3-.41L515.76,104.1a2.35,2.35,0,0,0-2.09.1l-24.15,13.94c-.29.17-.46.38-.46.58a.52.52,0,0,0,.3.41Z"/><polygon class="cls-66" points="540.73 108.34 540.73 111.34 514.74 126.35 488.74 111.34 488.74 108.34 540.73 108.34"/><polygon class="cls-49" points="514.74 123.35 488.74 108.34 514.74 93.33 540.73 108.34 514.74 123.35"/><polygon class="cls-50" points="514.74 123 489.05 108.16 488.74 108.34 514.74 123.35 540.73 108.34 540.43 108.16 514.74 123"/><polygon class="cls-51" points="514.74 119.88 494.74 108.34 514.74 96.8 534.73 108.34 514.74 119.88"/><polygon class="cls-67" points="514.74 119.89 494.74 108.34 514.74 96.8 534.73 108.34 514.74 119.89"/><polygon class="cls-68" points="514.74 93.89 534.73 105.43 534.73 108.34 514.74 96.8 514.74 93.89"/><polygon class="cls-69" points="514.74 96.8 494.74 108.34 494.74 105.43 514.74 93.89 514.74 96.8"/><polygon class="cls-70" points="514.74 116.97 494.74 105.43 514.74 93.89 534.73 105.43 514.74 116.97"/><polygon class="cls-4" points="514.74 110.04 506.75 105.43 514.74 100.82 522.73 105.43 514.74 110.04"/><polygon class="cls-4" points="514.74 101.24 522.36 105.64 522.73 105.43 514.74 100.82 506.75 105.43 507.12 105.64 514.74 101.24"/><polygon class="cls-71" points="514.74 116.97 514.74 119.88 534.73 108.34 534.73 105.43 514.74 116.97"/><polygon class="cls-72" points="494.74 105.43 494.74 108.34 514.74 119.88 514.74 116.97 494.74 105.43"/><polygon class="cls-58" points="514.74 116.66 495.02 105.27 494.74 105.43 514.74 116.97 534.73 105.43 534.46 105.27 514.74 116.66"/><path class="cls-47" d="M514.74,202a2.2,2.2,0,0,1-1.09-.25l-24.48-14.13a.87.87,0,0,1-.49-.74,1.13,1.13,0,0,1,.65-.91l24.15-13.94A2.71,2.71,0,0,1,516,172l24.48,14.13a.87.87,0,0,1,.49.74,1.13,1.13,0,0,1-.65.91l-24.15,13.94A2.86,2.86,0,0,1,514.74,202Zm-.9-.58a2.38,2.38,0,0,0,2.09-.09l24.15-13.95c.29-.17.46-.38.46-.58a.52.52,0,0,0-.3-.41l-24.48-14.13a2.35,2.35,0,0,0-2.09.1l-24.15,13.94c-.29.17-.46.38-.46.58a.52.52,0,0,0,.3.41Z"/><polygon class="cls-73" points="540.73 176.52 540.73 179.52 514.74 194.53 488.74 179.52 488.74 176.52 540.73 176.52"/><polygon class="cls-49" points="514.74 191.53 488.74 176.52 514.74 161.51 540.73 176.52 514.74 191.53"/><polygon class="cls-50" points="514.74 191.18 489.05 176.34 488.74 176.52 514.74 191.53 540.73 176.52 540.43 176.34 514.74 191.18"/><polygon class="cls-51" points="514.74 188.06 494.74 176.52 514.74 164.98 534.73 176.52 514.74 188.06"/><polygon class="cls-74" points="514.74 188.06 494.74 176.52 514.74 164.98 534.73 176.52 514.74 188.06"/><polygon class="cls-75" points="514.74 162.07 534.73 173.61 534.73 176.52 514.74 164.98 514.74 162.07"/><polygon class="cls-76" points="514.74 164.98 494.74 176.52 494.74 173.61 514.74 162.07 514.74 164.98"/><polygon class="cls-77" points="514.74 185.16 494.74 173.61 514.74 162.07 534.73 173.61 514.74 185.16"/><polygon class="cls-4" points="514.74 178.22 506.75 173.61 514.74 169 522.73 173.61 514.74 178.22"/><polygon class="cls-4" points="514.74 169.42 522.36 173.82 522.73 173.61 514.74 169 506.75 173.61 507.12 173.82 514.74 169.42"/><polygon class="cls-78" points="514.74 185.16 514.74 188.06 534.73 176.52 534.73 173.61 514.74 185.16"/><polygon class="cls-79" points="494.74 173.61 494.74 176.52 514.74 188.06 514.74 185.16 494.74 173.61"/><polygon class="cls-58" points="514.74 184.84 495.02 173.45 494.74 173.61 514.74 185.16 534.73 173.61 534.46 173.45 514.74 184.84"/><g class="cls-5"><path class="cls-80" d="M388.76,33.14c17.95-5.41,28.64,14.94,18.15,34.56-8.91,16.65-30.62,28.67-36.3,11.19-3.34-10.29-.57-35.5,16.42-45-4.58,2.37-7.94,5.71-11.23,11.19,6.26,7.71,6.77,8.34,12.18,14.57,6.41-15.14,6.93-16.37,11.67-26.61a15.42,15.42,0,0,0-10.89.11Zm-1.26.52-.41.19.41-.19Zm.91-.39.3-.11-.3.11Zm-.43.18-.42.18.42-.18Zm0,0,.34-.14-.34.14Z"/><path class="cls-3" d="M358.39,52.44q1.58-1.66,3.37-3.25v52.38q-1.8,1.59-3.37,3.24V52.44Z"/><path class="cls-3" d="M353,77.68a40.8,40.8,0,0,1,2.46-3.47v34a40.8,40.8,0,0,0-2.46,3.47v-34Z"/><path class="cls-80" d="M348.19,117.16l.05.12.07-3.44-.12-.18v3.5Zm0,10.13V74.91c0-.33,0-.67,0-1a27,27,0,0,1,1.23-7.05v52.37a27.1,27.1,0,0,0-1.23,7.06c0,.34,0,.67,0,1Z"/><polygon class="cls-3" points="348.19 117.16 348.24 117.28 348.31 113.84 348.19 113.66 348.19 117.16 348.19 117.16"/><path class="cls-3" d="M387.09,33.85l-.06,0,.06,0Zm1.62-.69.05,0-.05,0Zm-1.15.47-.06,0,.06,0Zm.76-.32h.09l-.09,0Z"/><path class="cls-3" d="M388,33.45A15.39,15.39,0,0,1,399.65,33c-6.7,14.76-7.4,16.3-11.67,26.61-6.6-7.68-7.61-8.86-12.18-14.57,1.29-2.15,5.22-8.69,12.18-11.62Z"/><path class="cls-80" d="M429.54,162.29c-5.39,1.6-8.85-1.68-10.11-2.64-9.89-8.38-18.56-18.6-28.48-26.94-2.93-2.46-4.73-1.44-5.75-1.17-18.5,7.34-18.5,7.34-21.47,2.86-5.44-9.63-5.63-10.4-8.15-16.42-.58-1.37-2.53-3.45-3.41-3.34-4.15,1.17-3.6,2-4,2.52v-3.5c4.89-1.89,5.4-2.12,7.39,2.44,9.14,19.4,10.75,19,12.88,18.47,19.48-7.79,19.24-7.22,24.2-2.06,8.59,8.94,25.9,26.34,31.25,27.73a18.74,18.74,0,0,0,5.8-.41c18.8-6.3,26.26-10.26,44.66-18.19l1.65,2.67c-6.81,3-27.4,11.07-46.34,17Zm58.77,21.12V131q-8.69.5-17.69.42c-68.06-.54-122.43-25.76-122.43-56.54v52.38c0,30.78,54.37,56,122.43,56.54q9,.07,17.69-.42Z"/><path class="cls-3" d="M429.54,162.29c-4.85,1.24-9.43,2.41-37.94-28.26-3.61-3.63-3.61-3.63-22.12,3.75-2.11.51-5.28,1.28-14-19.6-2.7-6.17-7.21-1.08-7.25-1v-3.5a12.11,12.11,0,0,1,3.93-1.58,1.74,1.74,0,0,1,1.27.1c.62.32,1.24,1,2.32,3.35,5,10.74,5,10.74,8.67,16.62,2.14,3.17,2.14,3.17,19.52-3.72,1.19-.32,3.66-1,7.39,2,10.46,8.35,19,18.8,29.32,27.29,3.87,2.76,6.21,4.42,53.76-16.06l1.65,2.67c-6.81,3-27.53,12-46.48,18Z"/></g></g></g></g></svg>