<svg xmlns="http://www.w3.org/2000/svg" xmlns:xlink="http://www.w3.org/1999/xlink" viewBox="0 0 600 239.7"><defs><style>.cls-1{isolation:isolate;}.cls-2{fill:url(#Áåçûìÿííûé_ãðàäèåíò_25);}.cls-3{opacity:0.3;}.cls-3,.cls-4{mix-blend-mode:overlay;}.cls-5{fill:#fff;}.cls-6,.cls-60,.cls-7,.cls-82{fill:#42e8e0;}.cls-24,.cls-54,.cls-55,.cls-56,.cls-57,.cls-58,.cls-59,.cls-62,.cls-63,.cls-64,.cls-65,.cls-66,.cls-67,.cls-69,.cls-7,.cls-70,.cls-71,.cls-72,.cls-73,.cls-74,.cls-76,.cls-77,.cls-78,.cls-79,.cls-8,.cls-80,.cls-81{opacity:0.5;}.cls-14,.cls-19,.cls-9{opacity:0.11;}.cls-10{fill:url(#Áåçûìÿííûé_ãðàäèåíò_22);}.cls-11{fill:url(#Áåçûìÿííûé_ãðàäèåíò_22-2);}.cls-12{fill:url(#Áåçûìÿííûé_ãðàäèåíò_22-3);}.cls-13{fill:url(#Áåçûìÿííûé_ãðàäèåíò_22-4);}.cls-14{fill:url(#Áåçûìÿííûé_ãðàäèåíò_22-5);}.cls-15{fill:url(#Áåçûìÿííûé_ãðàäèåíò_22-6);}.cls-16{fill:url(#Áåçûìÿííûé_ãðàäèåíò_22-7);}.cls-17{fill:url(#Áåçûìÿííûé_ãðàäèåíò_22-8);}.cls-18{fill:url(#Áåçûìÿííûé_ãðàäèåíò_22-9);}.cls-19{fill:url(#Áåçûìÿííûé_ãðàäèåíò_22-10);}.cls-20{fill:url(#Áåçûìÿííûé_ãðàäèåíò_22-11);}.cls-21{fill:url(#Áåçûìÿííûé_ãðàäèåíò_22-12);}.cls-22{fill:url(#Áåçûìÿííûé_ãðàäèåíò_22-13);}.cls-23{fill:url(#Áåçûìÿííûé_ãðàäèåíò_22-14);}.cls-24{fill:url(#Áåçûìÿííûé_ãðàäèåíò_22-15);}.cls-25{fill:url(#Áåçûìÿííûé_ãðàäèåíò_22-17);}.cls-26{fill:#180d5b;opacity:0.2;}.cls-27{fill:#160a5b;}.cls-28{fill:#24126a;}.cls-29{fill:url(#Áåçûìÿííûé_ãðàäèåíò_22-18);}.cls-30{fill:url(#Áåçûìÿííûé_ãðàäèåíò_22-19);}.cls-31{fill:#4846a5;}.cls-32{fill:#fcd1c5;}.cls-33{fill:#453c9e;}.cls-34{fill:url(#Áåçûìÿííûé_ãðàäèåíò_22-20);}.cls-35{fill:#f0f6ff;}.cls-36{fill:#aa8383;}.cls-37{fill:#c4ccd6;}.cls-38{fill:#e2b1a6;}.cls-39{fill:#1b2b3a;}.cls-40{fill:#936d6d;}.cls-41{fill:url(#Áåçûìÿííûé_ãðàäèåíò_22-21);}.cls-42{fill:url(#Áåçûìÿííûé_ãðàäèåíò_22-22);}.cls-43{fill:url(#Áåçûìÿííûé_ãðàäèåíò_22-23);}.cls-44{fill:url(#Áåçûìÿííûé_ãðàäèåíò_22-24);}.cls-45{fill:url(#Áåçûìÿííûé_ãðàäèåíò_22-25);}.cls-46{fill:url(#Áåçûìÿííûé_ãðàäèåíò_22-26);}.cls-47{fill:#722318;}.cls-48{fill:url(#Áåçûìÿííûé_ãðàäèåíò_22-27);}.cls-49{fill:url(#Áåçûìÿííûé_ãðàäèåíò_22-28);}.cls-50{fill:#8686f2;mix-blend-mode:lighten;}.cls-51{fill:url(#Áåçûìÿííûé_ãðàäèåíò_18);}.cls-52{fill:#bcbeff;}.cls-53{fill:#0f054c;}.cls-54{fill:url(#Áåçûìÿííûé_ãðàäèåíò_254);}.cls-55{fill:url(#Áåçûìÿííûé_ãðàäèåíò_254-2);}.cls-56{fill:url(#Áåçûìÿííûé_ãðàäèåíò_254-3);}.cls-57{fill:url(#Áåçûìÿííûé_ãðàäèåíò_254-4);}.cls-58{fill:url(#Áåçûìÿííûé_ãðàäèåíò_254-5);}.cls-59{fill:url(#Áåçûìÿííûé_ãðàäèåíò_254-6);}.cls-60{opacity:0.8;}.cls-61{fill:url(#Áåçûìÿííûé_ãðàäèåíò_18-2);}.cls-62{fill:url(#Áåçûìÿííûé_ãðàäèåíò_254-7);}.cls-63{fill:url(#Áåçûìÿííûé_ãðàäèåíò_254-8);}.cls-64{fill:url(#Áåçûìÿííûé_ãðàäèåíò_254-9);}.cls-65{fill:url(#Áåçûìÿííûé_ãðàäèåíò_254-10);}.cls-66{fill:url(#Áåçûìÿííûé_ãðàäèåíò_254-11);}.cls-67{fill:url(#Áåçûìÿííûé_ãðàäèåíò_254-12);}.cls-68{fill:url(#Áåçûìÿííûé_ãðàäèåíò_18-3);}.cls-69{fill:url(#Áåçûìÿííûé_ãðàäèåíò_254-13);}.cls-70{fill:url(#Áåçûìÿííûé_ãðàäèåíò_254-14);}.cls-71{fill:url(#Áåçûìÿííûé_ãðàäèåíò_254-15);}.cls-72{fill:url(#Áåçûìÿííûé_ãðàäèåíò_254-16);}.cls-73{fill:url(#Áåçûìÿííûé_ãðàäèåíò_254-17);}.cls-74{fill:url(#Áåçûìÿííûé_ãðàäèåíò_254-18);}.cls-75{fill:url(#Áåçûìÿííûé_ãðàäèåíò_18-4);}.cls-76{fill:url(#Áåçûìÿííûé_ãðàäèåíò_254-19);}.cls-77{fill:url(#Áåçûìÿííûé_ãðàäèåíò_254-20);}.cls-78{fill:url(#Áåçûìÿííûé_ãðàäèåíò_254-21);}.cls-79{fill:url(#Áåçûìÿííûé_ãðàäèåíò_254-22);}.cls-80{fill:url(#Áåçûìÿííûé_ãðàäèåíò_254-23);}.cls-81{fill:url(#Áåçûìÿííûé_ãðàäèåíò_254-24);}.cls-82{opacity:0.5;}</style><radialGradient id="Áåçûìÿííûé_ãðàäèåíò_25" cx="141.01" cy="153" fx="-109.05387090593098" fy="64.78987929631877" r="265.17" gradientTransform="scale(1 0.53)" gradientUnits="userSpaceOnUse"><stop offset="0" stop-color="#2b237c"/><stop offset="1" stop-color="#180d5b"/></radialGradient><linearGradient id="Áåçûìÿííûé_ãðàäèåíò_22" x1="436.7" y1="207.08" x2="515.02" y2="207.08" gradientUnits="userSpaceOnUse"><stop offset="0" stop-color="#5761d7"/><stop offset="0.07" stop-color="#5472d8"/><stop offset="0.28" stop-color="#4e9cdb"/><stop offset="0.48" stop-color="#49bddd"/><stop offset="0.67" stop-color="#45d5df"/><stop offset="0.85" stop-color="#43e3e0"/><stop offset="1" stop-color="#42e8e0"/></linearGradient><linearGradient id="Áåçûìÿííûé_ãðàäèåíò_22-2" x1="436.7" y1="201.12" x2="515.02" y2="201.12" xlink:href="#Áåçûìÿííûé_ãðàäèåíò_22"/><linearGradient id="Áåçûìÿííûé_ãðàäèåíò_22-3" x1="436.7" y1="195.17" x2="515.02" y2="195.17" xlink:href="#Áåçûìÿííûé_ãðàäèåíò_22"/><linearGradient id="Áåçûìÿííûé_ãðàäèåíò_22-4" x1="436.7" y1="189.21" x2="515.02" y2="189.21" xlink:href="#Áåçûìÿííûé_ãðàäèåíò_22"/><linearGradient id="Áåçûìÿííûé_ãðàäèåíò_22-5" x1="436.7" y1="198.15" x2="515.02" y2="198.15" xlink:href="#Áåçûìÿííûé_ãðàäèåíò_22"/><linearGradient id="Áåçûìÿííûé_ãðàäèåíò_22-6" x1="436.7" y1="182.44" x2="515.02" y2="182.44" xlink:href="#Áåçûìÿííûé_ãðàäèåíò_22"/><linearGradient id="Áåçûìÿííûé_ãðàäèåíò_22-7" x1="436.7" y1="176.48" x2="515.02" y2="176.48" xlink:href="#Áåçûìÿííûé_ãðàäèåíò_22"/><linearGradient id="Áåçûìÿííûé_ãðàäèåíò_22-8" x1="436.7" y1="170.52" x2="515.02" y2="170.52" xlink:href="#Áåçûìÿííûé_ãðàäèåíò_22"/><linearGradient id="Áåçûìÿííûé_ãðàäèåíò_22-9" x1="436.7" y1="164.57" x2="515.02" y2="164.57" xlink:href="#Áåçûìÿííûé_ãðàäèåíò_22"/><linearGradient id="Áåçûìÿííûé_ãðàäèåíò_22-10" x1="436.7" y1="173.5" x2="515.02" y2="173.5" xlink:href="#Áåçûìÿííûé_ãðàäèåíò_22"/><linearGradient id="Áåçûìÿííûé_ãðàäèåíò_22-11" x1="436.7" y1="157.79" x2="515.02" y2="157.79" xlink:href="#Áåçûìÿííûé_ãðàäèåíò_22"/><linearGradient id="Áåçûìÿííûé_ãðàäèåíò_22-12" x1="436.7" y1="151.84" x2="515.02" y2="151.84" xlink:href="#Áåçûìÿííûé_ãðàäèåíò_22"/><linearGradient id="Áåçûìÿííûé_ãðàäèåíò_22-13" x1="436.7" y1="145.88" x2="515.02" y2="145.88" xlink:href="#Áåçûìÿííûé_ãðàäèåíò_22"/><linearGradient id="Áåçûìÿííûé_ãðàäèåíò_22-14" x1="436.7" y1="139.92" x2="515.02" y2="139.92" xlink:href="#Áåçûìÿííûé_ãðàäèåíò_22"/><linearGradient id="Áåçûìÿííûé_ãðàäèåíò_22-15" x1="436.7" y1="148.86" x2="515.02" y2="148.86" xlink:href="#Áåçûìÿííûé_ãðàäèåíò_22"/><linearGradient id="Áåçûìÿííûé_ãðàäèåíò_22-17" x1="436.7" y1="150.66" x2="515.02" y2="150.66" xlink:href="#Áåçûìÿííûé_ãðàäèåíò_22"/><linearGradient id="Áåçûìÿííûé_ãðàäèåíò_22-18" x1="468.78" y1="124.26" x2="472.17" y2="124.26" xlink:href="#Áåçûìÿííûé_ãðàäèåíò_22"/><linearGradient id="Áåçûìÿííûé_ãðàäèåíò_22-19" x1="470.5" y1="116.9" x2="478.99" y2="116.9" xlink:href="#Áåçûìÿííûé_ãðàäèåíò_22"/><linearGradient id="Áåçûìÿííûé_ãðàäèåíò_22-20" x1="470.54" y1="108.63" x2="479.74" y2="108.63" xlink:href="#Áåçûìÿííûé_ãðàäèåíò_22"/><linearGradient id="Áåçûìÿííûé_ãðàäèåíò_22-21" x1="486.23" y1="197.88" x2="491.79" y2="197.88" gradientTransform="matrix(1, -0.09, 0.09, 1, -17.45, -16.03)" xlink:href="#Áåçûìÿííûé_ãðàäèåíò_22"/><linearGradient id="Áåçûìÿííûé_ãðàäèåíò_22-22" x1="492.62" y1="154.87" x2="493.41" y2="154.87" gradientTransform="matrix(1, -0.09, 0.09, 1, -17.45, -16.03)" xlink:href="#Áåçûìÿííûé_ãðàäèåíò_22"/><linearGradient id="Áåçûìÿííûé_ãðàäèåíò_22-23" x1="480.83" y1="182.51" x2="494.23" y2="182.51" gradientTransform="matrix(1, -0.09, 0.09, 1, -17.45, -16.03)" xlink:href="#Áåçûìÿííûé_ãðàäèåíò_22"/><linearGradient id="Áåçûìÿííûé_ãðàäèåíò_22-24" x1="493.53" y1="166.83" x2="496.68" y2="166.83" gradientTransform="matrix(1, -0.09, 0.09, 1, -17.45, -16.03)" xlink:href="#Áåçûìÿííûé_ãðàäèåíò_22"/><linearGradient id="Áåçûìÿííûé_ãðàäèåíò_22-25" x1="473.77" y1="194.89" x2="484.61" y2="194.89" gradientTransform="matrix(1, -0.09, 0.09, 1, -17.45, -16.03)" xlink:href="#Áåçûìÿííûé_ãðàäèåíò_22"/><linearGradient id="Áåçûìÿííûé_ãðàäèåíò_22-26" x1="479.86" y1="191.02" x2="481.23" y2="191.02" gradientTransform="matrix(1, -0.09, 0.09, 1, -17.45, -16.03)" xlink:href="#Áåçûìÿííûé_ãðàäèåíò_22"/><linearGradient id="Áåçûìÿííûé_ãðàäèåíò_22-27" x1="477.25" y1="188.43" x2="478.62" y2="188.43" gradientTransform="matrix(1, -0.09, 0.09, 1, -17.45, -16.03)" xlink:href="#Áåçûìÿííûé_ãðàäèåíò_22"/><linearGradient id="Áåçûìÿííûé_ãðàäèåíò_22-28" x1="479.88" y1="176.63" x2="490.11" y2="176.63" gradientTransform="matrix(1, -0.09, 0.09, 1, -17.45, -16.03)" xlink:href="#Áåçûìÿííûé_ãðàäèåíò_22"/><linearGradient id="Áåçûìÿííûé_ãðàäèåíò_18" x1="401.17" y1="129.97" x2="456.04" y2="129.97" gradientUnits="userSpaceOnUse"><stop offset="0" stop-color="#5761d7"/><stop offset="0.16" stop-color="#5e67da"/><stop offset="0.41" stop-color="#727ae2"/><stop offset="0.69" stop-color="#9297ee"/><stop offset="1" stop-color="#bcbeff"/></linearGradient><linearGradient id="Áåçûìÿííûé_ãðàäèåíò_254" x1="416.7" y1="122.63" x2="449.64" y2="122.63" gradientUnits="userSpaceOnUse"><stop offset="0" stop-color="#42e8e0"/><stop offset="0.15" stop-color="#43e3e0"/><stop offset="0.33" stop-color="#45d5df"/><stop offset="0.52" stop-color="#49bddd"/><stop offset="0.72" stop-color="#4e9cdb"/><stop offset="0.93" stop-color="#5472d8"/><stop offset="1" stop-color="#5761d7"/></linearGradient><linearGradient id="Áåçûìÿííûé_ãðàäèåíò_254-2" x1="433.17" y1="116.75" x2="449.64" y2="116.75" xlink:href="#Áåçûìÿííûé_ãðàäèåíò_254"/><linearGradient id="Áåçûìÿííûé_ãðàäèåíò_254-3" x1="416.7" y1="116.75" x2="433.17" y2="116.75" xlink:href="#Áåçûìÿííûé_ãðàäèåíò_254"/><linearGradient id="Áåçûìÿííûé_ãðàäèåíò_254-4" x1="416.7" y1="120.26" x2="449.64" y2="120.26" xlink:href="#Áåçûìÿííûé_ãðàäèåíò_254"/><linearGradient id="Áåçûìÿííûé_ãðàäèåíò_254-5" x1="433.17" y1="126.15" x2="449.64" y2="126.15" xlink:href="#Áåçûìÿííûé_ãðàäèåíò_254"/><linearGradient id="Áåçûìÿííûé_ãðàäèåíò_254-6" x1="416.7" y1="126.15" x2="433.17" y2="126.15" xlink:href="#Áåçûìÿííûé_ãðàäèåíò_254"/><linearGradient id="Áåçûìÿííûé_ãðàäèåíò_18-2" x1="401.17" y1="185.5" x2="456.04" y2="185.5" xlink:href="#Áåçûìÿííûé_ãðàäèåíò_18"/><linearGradient id="Áåçûìÿííûé_ãðàäèåíò_254-7" x1="416.7" y1="178.17" x2="449.64" y2="178.17" xlink:href="#Áåçûìÿííûé_ãðàäèåíò_254"/><linearGradient id="Áåçûìÿííûé_ãðàäèåíò_254-8" x1="433.17" y1="172.28" x2="449.64" y2="172.28" xlink:href="#Áåçûìÿííûé_ãðàäèåíò_254"/><linearGradient id="Áåçûìÿííûé_ãðàäèåíò_254-9" x1="416.7" y1="172.28" x2="433.17" y2="172.28" xlink:href="#Áåçûìÿííûé_ãðàäèåíò_254"/><linearGradient id="Áåçûìÿííûé_ãðàäèåíò_254-10" x1="416.7" y1="175.8" x2="449.64" y2="175.8" xlink:href="#Áåçûìÿííûé_ãðàäèåíò_254"/><linearGradient id="Áåçûìÿííûé_ãðàäèåíò_254-11" x1="433.17" y1="181.68" x2="449.64" y2="181.68" xlink:href="#Áåçûìÿííûé_ãðàäèåíò_254"/><linearGradient id="Áåçûìÿííûé_ãðàäèåíò_254-12" x1="416.7" y1="181.68" x2="433.17" y2="181.68" xlink:href="#Áåçûìÿííûé_ãðàäèåíò_254"/><linearGradient id="Áåçûìÿííûé_ãðàäèåíò_18-3" x1="486.99" y1="129.97" x2="541.87" y2="129.97" xlink:href="#Áåçûìÿííûé_ãðàäèåíò_18"/><linearGradient id="Áåçûìÿííûé_ãðàäèåíò_254-13" x1="502.52" y1="122.63" x2="535.46" y2="122.63" xlink:href="#Áåçûìÿííûé_ãðàäèåíò_254"/><linearGradient id="Áåçûìÿííûé_ãðàäèåíò_254-14" x1="518.99" y1="116.75" x2="535.46" y2="116.75" xlink:href="#Áåçûìÿííûé_ãðàäèåíò_254"/><linearGradient id="Áåçûìÿííûé_ãðàäèåíò_254-15" x1="502.52" y1="116.75" x2="518.99" y2="116.75" xlink:href="#Áåçûìÿííûé_ãðàäèåíò_254"/><linearGradient id="Áåçûìÿííûé_ãðàäèåíò_254-16" x1="502.52" y1="120.26" x2="535.46" y2="120.26" xlink:href="#Áåçûìÿííûé_ãðàäèåíò_254"/><linearGradient id="Áåçûìÿííûé_ãðàäèåíò_254-17" x1="518.99" y1="126.15" x2="535.46" y2="126.15" xlink:href="#Áåçûìÿííûé_ãðàäèåíò_254"/><linearGradient id="Áåçûìÿííûé_ãðàäèåíò_254-18" x1="502.52" y1="126.15" x2="518.99" y2="126.15" xlink:href="#Áåçûìÿííûé_ãðàäèåíò_254"/><linearGradient id="Áåçûìÿííûé_ãðàäèåíò_18-4" x1="486.99" y1="185.5" x2="541.87" y2="185.5" xlink:href="#Áåçûìÿííûé_ãðàäèåíò_18"/><linearGradient id="Áåçûìÿííûé_ãðàäèåíò_254-19" x1="502.52" y1="178.17" x2="535.46" y2="178.17" xlink:href="#Áåçûìÿííûé_ãðàäèåíò_254"/><linearGradient id="Áåçûìÿííûé_ãðàäèåíò_254-20" x1="518.99" y1="172.28" x2="535.46" y2="172.28" xlink:href="#Áåçûìÿííûé_ãðàäèåíò_254"/><linearGradient id="Áåçûìÿííûé_ãðàäèåíò_254-21" x1="502.52" y1="172.28" x2="518.99" y2="172.28" xlink:href="#Áåçûìÿííûé_ãðàäèåíò_254"/><linearGradient id="Áåçûìÿííûé_ãðàäèåíò_254-22" x1="502.52" y1="175.8" x2="535.46" y2="175.8" xlink:href="#Áåçûìÿííûé_ãðàäèåíò_254"/><linearGradient id="Áåçûìÿííûé_ãðàäèåíò_254-23" x1="518.99" y1="181.68" x2="535.46" y2="181.68" xlink:href="#Áåçûìÿííûé_ãðàäèåíò_254"/><linearGradient id="Áåçûìÿííûé_ãðàäèåíò_254-24" x1="502.52" y1="181.68" x2="518.99" y2="181.68" xlink:href="#Áåçûìÿííûé_ãðàäèåíò_254"/></defs><title>Asset 2</title><g class="cls-1"><g id="Layer_2" data-name="Layer 2"><g id="Ñëîé_1" data-name="Ñëîé 1"><rect class="cls-2" width="600" height="239.7"/><g class="cls-3"><g class="cls-4"><path class="cls-5" d="M12.51,181H.75v-42.2H37l9.2,19.69Zm-11-.75h10.8l33-22-8.72-18.67h-35Z"/></g><g class="cls-4"><path class="cls-5" d="M86.8,158.71H46L36.73,139,64.5,122.09H100l13.06,17.14-.31.23ZM46.44,158H86.55L112,139.08,99.64,122.84H64.71l-27,16.46Z"/></g><g class="cls-4"><path class="cls-5" d="M69.06,207.15h-48l-.08-.26-8.53-26.44L46.09,158H86.88l14,22.72-.25.21Zm-47.43-.75H68.79l31.1-25.88L86.47,158.71H46.31l-33,22Z"/></g><g class="cls-4"><path class="cls-5" d="M144.38,181h-44.1l-14-22.74.28-.2,26-19.26h38l.11.13,17.67,19.45Zm-43.68-.75h43.38l23.13-21.91-17.07-18.79H112.76l-25.48,18.9Z"/></g><g class="cls-4"><path class="cls-5" d="M208.38,158.71H167.57l-.11-.12-17.69-19.47.3-.25,20.16-16.78h35.5l20.46,17ZM167.9,158h40.15l17.06-18.77-19.65-16.35h-35l-19.66,16.35Z"/></g><g class="cls-4"><path class="cls-5" d="M212,207.83H164l-20.3-26.69.24-.23,23.66-22.45H208.4l.1.1,23.79,22.58Zm-47.66-.75h47.29l19.68-25.86-23.19-22H167.85l-23.2,22Z"/></g><g class="cls-4"><path class="cls-5" d="M205.72,122.47H170.25l-15.87-15L172.3,94.17h31.38l.1.07,17.82,13.2Zm-35.17-.75h34.87l15-14.21-17-12.6H172.54l-17,12.6Z"/></g><g class="cls-4"><path class="cls-5" d="M263.58,139.53h-38l-20.49-17,15.88-15h33.34l.1.07,22.23,14.87Zm-37.72-.75h37.35l12.37-16.23L254.1,108.18H221.28l-15.05,14.27Z"/></g><g class="cls-4"><path class="cls-5" d="M254.28,107.85H221L203,94.56l14.35-11.93h29.68l.09.06,19.34,11.77Zm-33.07-.74H254l11.37-12.49L246.84,83.38H217.63L204.22,94.52Z"/></g><g class="cls-4"><path class="cls-5" d="M275.74,181h-44.1l-23.87-22.62,17.79-19.58h37.95l26.23,19.46Zm-43.8-.75h43.38l13.43-21.8-25.48-18.9H225.89l-17.08,18.79Z"/></g><g class="cls-4"><path class="cls-5" d="M330.4,158.71H289.56l-.09-.07-26.19-19.41,13-17.14h35.51l.09.06L339.62,139ZM289.81,158h40.12l8.73-18.66-27-16.46H276.69l-12.36,16.24Z"/></g><g class="cls-4"><path class="cls-5" d="M376.94,139.1H339l-.09,0-27.69-16.83,9.3-15.11,33.41,0,28.6,14.76-.1.3Zm-37.77-.74H376.4l5.19-16.08-28-14.43H320.9L312.21,122Z"/></g><g class="cls-4"><path class="cls-5" d="M311.93,122.84H276.39l-.09-.07L254,107.88l12.17-13.42h31.44l23.63,13.21Zm-35.31-.75h34.9l8.69-14.15L297.43,95.2H266.51l-11.37,12.54Z"/></g><g class="cls-4"><path class="cls-5" d="M355.33,207.15h-48l-.11-.09-31.73-26.38,14-22.72h40.8l.09.07,33.55,22.42Zm-47.7-.75h47.16L363,180.76l-33-22H289.9l-13.41,21.81Z"/></g><g class="cls-4"><path class="cls-5" d="M155.07,107.85H121.75L109.56,94.46,129,82.63h29.69L173,94.56Zm-33-.74h32.75l17-12.59L158.4,83.38H129.19L110.72,94.62Z"/></g><g class="cls-4"><path class="cls-5" d="M150.44,139.53h-38L99.38,122.37l22.33-14.94h33.34l15.88,15Zm-37.62-.75h37.35l19.63-16.33-15.05-14.27H121.93l-21.48,14.37Z"/></g><g class="cls-4"><path class="cls-5" d="M99.94,122.84H64.39l-9.33-15.17L78.68,94.46h31.44l.11.12,12.08,13.3Zm-35.13-.75h34.9l21.46-14.35L109.79,95.2H78.87L56.1,107.94Z"/></g></g><path class="cls-6" d="M535.18,86.78c1.59.41,3.16.83,4.69,1.28v11.2c-1.53-.44-3.1-.87-4.69-1.28V86.78Z"/><path class="cls-7" d="M524.32,87.25q2.55.48,5,1V96.6q-2.48-.54-5-1V87.25Z"/><path class="cls-6" d="M512.78,78.13q2.69.34,5.33.75V94.51q-2.64-.42-5.33-.76V78.13Z"/><path class="cls-7" d="M500.64,68.28c1.88.14,3.74.29,5.59.47V93c-1.85-.18-3.71-.33-5.59-.47V68.28Z"/><path class="cls-7" d="M488,73.49c2,0,3.9.08,5.82.16V92.16c-1.92-.08-3.86-.13-5.82-.16V73.49Z"/><path class="cls-6" d="M475.21,54.11C477.11,54,479,54,481,54V92c-1.93,0-3.86.08-5.76.16v-38Z"/><path class="cls-6" d="M462.85,62c1.83-.18,3.69-.33,5.56-.47V92.53c-1.87.13-3.73.29-5.56.46V62Z"/><path class="cls-6" d="M451,51.81q2.63-.41,5.31-.75V93.72q-2.69.34-5.31.75V51.81Z"/><g class="cls-8"><g class="cls-9"><path class="cls-10" d="M478.89,185.93a6.06,6.06,0,0,0-6,0l-35.76,20.36a.83.83,0,0,0,0,1.45l36.06,20.59a5.36,5.36,0,0,0,5.29,0l36.12-20.57a.84.84,0,0,0,0-1.45Z"/></g><g class="cls-9"><path class="cls-11" d="M478.89,180a6.06,6.06,0,0,0-6,0l-35.76,20.37a.82.82,0,0,0,0,1.44l36.06,20.59a5.31,5.31,0,0,0,5.29,0L514.6,201.8a.83.83,0,0,0,0-1.44Z"/></g><g class="cls-9"><path class="cls-12" d="M478.89,174a6.06,6.06,0,0,0-6,0l-35.76,20.37a.83.83,0,0,0,0,1.45l36.06,20.58a5.31,5.31,0,0,0,5.29,0l36.12-20.56a.84.84,0,0,0,0-1.45Z"/></g><g class="cls-9"><path class="cls-13" d="M478.89,168.06a6.06,6.06,0,0,0-6,0l-35.76,20.36a.83.83,0,0,0,0,1.45l36.06,20.59a5.36,5.36,0,0,0,5.29,0l36.12-20.57a.84.84,0,0,0,0-1.45Z"/></g><path class="cls-14" d="M514.6,188.44l-35.71-20.38a6.06,6.06,0,0,0-6,0l-35.76,20.36a.85.85,0,0,0-.43.73V207a.83.83,0,0,0,.43.72l36.06,20.59a5.36,5.36,0,0,0,5.29,0l36.12-20.57A.82.82,0,0,0,515,207V189.17h0A.84.84,0,0,0,514.6,188.44Z"/></g><g class="cls-9"><path class="cls-15" d="M478.89,161.29a6.08,6.08,0,0,0-6,0l-35.76,20.37a.83.83,0,0,0,0,1.45l36.06,20.58a5.31,5.31,0,0,0,5.29,0l36.12-20.56a.84.84,0,0,0,0-1.45Z"/></g><g class="cls-9"><path class="cls-16" d="M478.89,155.33a6.06,6.06,0,0,0-6,0l-35.76,20.36a.83.83,0,0,0,0,1.45l36.06,20.59a5.36,5.36,0,0,0,5.29,0l36.12-20.57a.84.84,0,0,0,0-1.45Z"/></g><g class="cls-9"><path class="cls-17" d="M478.89,149.37a6.06,6.06,0,0,0-6,0l-35.76,20.37a.82.82,0,0,0,0,1.44l36.06,20.59a5.31,5.31,0,0,0,5.29,0L514.6,171.2a.83.83,0,0,0,0-1.44Z"/></g><g class="cls-9"><path class="cls-18" d="M478.89,143.42a6.06,6.06,0,0,0-6,0l-35.76,20.37a.83.83,0,0,0,0,1.45l36.06,20.58a5.31,5.31,0,0,0,5.29,0l36.12-20.56a.84.84,0,0,0,0-1.45Z"/></g><path class="cls-19" d="M514.6,163.8l-35.71-20.38a6.06,6.06,0,0,0-6,0l-35.76,20.37a.83.83,0,0,0-.43.72v17.87a.84.84,0,0,0,.43.73l36.06,20.58a5.31,5.31,0,0,0,5.29,0l36.12-20.56a.83.83,0,0,0,.42-.73V164.52h0A.82.82,0,0,0,514.6,163.8Z"/><g class="cls-9"><path class="cls-20" d="M478.89,136.64a6.06,6.06,0,0,0-6,0L437.13,157a.83.83,0,0,0,0,1.45L473.19,179a5.31,5.31,0,0,0,5.29,0l36.12-20.57a.83.83,0,0,0,0-1.44Z"/></g><g class="cls-9"><path class="cls-21" d="M478.89,130.69a6.08,6.08,0,0,0-6,0l-35.76,20.37a.83.83,0,0,0,0,1.45l36.06,20.58a5.31,5.31,0,0,0,5.29,0l36.12-20.56a.84.84,0,0,0,0-1.45Z"/></g><g class="cls-9"><path class="cls-22" d="M478.89,124.73a6.06,6.06,0,0,0-6,0l-35.76,20.36a.83.83,0,0,0,0,1.45l36.06,20.59a5.36,5.36,0,0,0,5.29,0l36.12-20.57a.84.84,0,0,0,0-1.45Z"/></g><g class="cls-9"><path class="cls-23" d="M478.89,118.77a6.06,6.06,0,0,0-6,0l-35.76,20.37a.82.82,0,0,0,0,1.44l36.06,20.59a5.31,5.31,0,0,0,5.29,0L514.6,140.6a.83.83,0,0,0,0-1.44Z"/></g><path class="cls-24" d="M514.6,139.16l-35.71-20.39a6.06,6.06,0,0,0-6,0l-35.76,20.37a.83.83,0,0,0-.43.72v17.87a.86.86,0,0,0,.43.73L473.19,179a5.31,5.31,0,0,0,5.29,0l36.12-20.57a.82.82,0,0,0,.42-.72V139.88h0A.82.82,0,0,0,514.6,139.16Z"/><g class="cls-9"><path class="cls-23" d="M478.89,118.77a6.06,6.06,0,0,0-6,0l-35.76,20.37a.82.82,0,0,0,0,1.44l36.06,20.59a5.31,5.31,0,0,0,5.29,0L514.6,140.6a.83.83,0,0,0,0-1.44Z"/></g><path class="cls-25" d="M514.6,139.78l-36.12,20.57a5.36,5.36,0,0,1-5.29,0l-36.06-20.59a.87.87,0,0,1-.32-.31.83.83,0,0,0,.32,1.13l36.06,20.59a5.31,5.31,0,0,0,5.29,0L514.6,140.6a.82.82,0,0,0,.31-1.13A.84.84,0,0,1,514.6,139.78Z"/><polygon class="cls-6" points="440.91 146.07 441.8 146.58 441.8 145.99 440.91 145.49 440.91 146.07"/><polygon class="cls-6" points="440.91 150.06 441.8 150.56 441.8 147.12 440.91 146.61 440.91 150.06"/><polygon class="cls-6" points="440.91 151.96 441.8 152.47 441.8 151.1 440.91 150.59 440.91 151.96"/><polygon class="cls-6" points="440.91 153.94 441.8 154.44 441.8 153.08 440.91 152.57 440.91 153.94"/><polygon class="cls-6" points="439.58 147.22 440.47 147.73 440.47 146.36 439.58 145.85 439.58 147.22"/><polygon class="cls-6" points="439.58 149.84 440.47 150.34 440.47 148.34 439.58 147.83 439.58 149.84"/><polygon class="cls-6" points="439.58 152.25 440.47 152.75 440.47 151.03 439.58 150.52 439.58 152.25"/><polygon class="cls-6" points="440.91 155.91 441.8 156.42 441.8 155.05 440.91 154.54 440.91 155.91"/><polygon class="cls-6" points="439.58 145.32 440.47 145.83 440.47 145.24 439.58 144.73 439.58 145.32"/><polygon class="cls-6" points="440.25 157.45 441.8 158.33 441.8 157.76 440.25 156.88 440.25 157.45"/><ellipse class="cls-26" cx="475.86" cy="139.92" rx="19.2" ry="10.96"/><path class="cls-27" d="M476,130.89l0,.17.05-.11a2.39,2.39,0,0,1,0,1.32,10.91,10.91,0,0,1-1,1.61c-.48.62-1.24,1.9-1.44,2.15a4.85,4.85,0,0,1-2.81,1.35c-1.45.15-1.82-.67-1.7-1.11a9.85,9.85,0,0,1,1.75-2.58,12.8,12.8,0,0,0,1.5-2.2Z"/><path class="cls-27" d="M471.61,127a6.53,6.53,0,0,1-.06,1.3c-.09.38-2.22.49-3,.59a11.13,11.13,0,0,0-2.49.83c-.41.2-3.18.49-3.52-.52s1.39-1.85,2.56-2.12,3.08-.84,3.08-.84Z"/><path class="cls-28" d="M479,108.79a25.29,25.29,0,0,1-.79,6.14,24.08,24.08,0,0,0-.77,6s.91,4,.11,6.78a10.28,10.28,0,0,1-1.48,3.51,2.41,2.41,0,0,1-3.7.22,32.62,32.62,0,0,0,1.32-6.78,20.26,20.26,0,0,1-1.4-4.18s-.3,3.13-.48,4.4a5.47,5.47,0,0,1-.32,2.61,2.38,2.38,0,0,1-3.48-.34c-.72-1.3.6-.66.2-6.67a13.59,13.59,0,0,1-2.37-7.27c-.3-4.72-.27-6.59,0-7.51s4.87-4.23,4.87-4.23l2.6,3.28Z"/><path class="cls-29" d="M472.17,121.7a12.66,12.66,0,0,1-.32-1.32s-.3,3.13-.48,4.4a5.47,5.47,0,0,1-.32,2.61,2.35,2.35,0,0,1-2.27.52,2.45,2.45,0,0,0,2.7-.37,5.47,5.47,0,0,0,.32-2.61C471.91,124.16,472.06,122.72,472.17,121.7Z"/><path class="cls-30" d="M479,108.79l-5.69-4-2.6-3.28-.2.15,2.37,3,5.69,4a25.67,25.67,0,0,1-.8,6.14,23.74,23.74,0,0,0-.76,6s.91,4,.11,6.78a10.28,10.28,0,0,1-1.48,3.51,2.56,2.56,0,0,1-2.42.94,2.44,2.44,0,0,0,2.85-.79,10.28,10.28,0,0,0,1.48-3.51c.8-2.75-.11-6.78-.11-6.78a24.08,24.08,0,0,1,.77-6A25.29,25.29,0,0,0,479,108.79Z"/><path class="cls-27" d="M468.73,114.06c-.75-.89-1.17-3.68-1.17-3.68a13,13,0,0,0,2,3,5.66,5.66,0,0,1,1.71,2.94c.15.89,1,4.19,1,4.19s-.3,3.13-.48,4.4a5.47,5.47,0,0,1-.32,2.61,1.15,1.15,0,0,1-.49.38s.13-4.15,0-5.89S469.48,115,468.73,114.06Z"/><path class="cls-31" d="M485.91,89.78s2,3.83,2.19,4.13,3.92,5,4.28,7.69a2,2,0,0,1-1,2c-1.28.93-7.74,5-8.14,5a3.87,3.87,0,0,1-2.84-3.6s5.06-2.33,6.16-3.5a34.27,34.27,0,0,0-2.94-4.23,2.26,2.26,0,0,1-.46-1.21,6.56,6.56,0,0,1,2.16-5.77Z"/><path class="cls-28" d="M471.06,80.78s-3.08,1.13-4.13.75-3.62-.72-5.39-1.69-9.5-3-10.65-3c0,0,0,0,.17.12a1.44,1.44,0,0,1,1.2,1,2.77,2.77,0,0,1-.39,2c-.13.07-.2-.24-.94-.58a2.87,2.87,0,0,0-1.19-.32l-.28.35-.17.26a1.71,1.71,0,0,0,1.35,1.15c1,.08,7.35,2.7,7.75,2.82s5.74,2.39,6.74,2.75a10.8,10.8,0,0,1,1.77.81s3.12-2.06,3.22-2.06S471.06,80.78,471.06,80.78Z"/><path class="cls-32" d="M443.26,75.54c.13,0,1.74.56,1.74.56s-.64.33-.7.61a9.77,9.77,0,0,0,.19,2,2,2,0,0,0,.49.37c.1.06.35.62.58.55a.53.53,0,0,0,.3-.36l.24-.12a4,4,0,0,1,1.58.31,2.65,2.65,0,0,0,1.61.26,6.42,6.42,0,0,0,1-.43,2.63,2.63,0,0,1,.61.17c.22.12.92.58,1,.62s1.54-2.74-1-3.26a6.32,6.32,0,0,1-1.52-.32,12.32,12.32,0,0,0-2.24-1.22,3.17,3.17,0,0,0-1,.14s-2.9-.82-3.14-.57S443.13,75.51,443.26,75.54Zm2.1,1.9a.79.79,0,0,0,.58-.34.41.41,0,0,0,.45,0s.4.13.4.13.18.15.4.31-.07.65-.07.65a1.63,1.63,0,0,1-.69-.19,4.72,4.72,0,0,0-.55-.15A3.27,3.27,0,0,1,445.36,77.44Z"/><path class="cls-27" d="M465.83,105.75c.27-.92,4.87-4.23,4.87-4.23l1.29,1.63,1.11,4.26,5.89,1.81h0s-.31,2.91-5.11,2.57-5.36-4-5.36-4-.53,1.21-2.89,1.52A12.45,12.45,0,0,1,465.83,105.75Z"/><path class="cls-33" d="M480.08,83.18l.81,2s3.9,3.34,5,4.55a23,23,0,0,0-2.29,7.51,24.69,24.69,0,0,0-2.32,2.1,37.91,37.91,0,0,0-2.34,4.73c-.43,1,.78,4,.78,4s-1.66,3-4.33,2.93a4.76,4.76,0,0,1-4.83-4.58,15.81,15.81,0,0,1-.24-3.28s-1.2,3.52-3,3.52-4.7-3.05-4.7-3.05-1.95-1.75-1.77-2.54,4.59-7.63,4.83-8.76,1.22-5.16,1.22-5.16l4.16-6.47,2.53.12Z"/><path class="cls-34" d="M475.3,110.38a4.72,4.72,0,0,1-4.76-4.23c0,.12,0,.24,0,.37a4.76,4.76,0,0,0,4.83,4.58c2.67.1,4.33-2.93,4.33-2.93s-.09-.22-.21-.56C479.15,108.23,477.6,110.46,475.3,110.38Z"/><path class="cls-35" d="M480.08,83.18a7,7,0,0,1-.47,2.44c-.49,1.21-2.09,8.06-5.72,10.41l-1.39.87V92.54a16.24,16.24,0,0,1,.64-4.38,12.49,12.49,0,0,0,.6-3.78s1-.27,1-.25S480.08,83.18,480.08,83.18Z"/><path class="cls-32" d="M475.61,86.36s-.65.26-.92-.16a3,3,0,0,1-.49-1.63s-1.72.08-2.06-.81a1.45,1.45,0,0,1,.09-1.4,6.53,6.53,0,0,1,.33-1.53l0-.23s-.35-.29-.19-.61,1.1-1.28,1.19-1.44,0-1.36.34-2A15.37,15.37,0,0,1,475,75.16s3.66-2.82,6.54,0-1.46,8-1.46,8a4.86,4.86,0,0,1-1.19,2.34C478.05,86.19,475.61,86.36,475.61,86.36Z"/><path class="cls-36" d="M478.29,79.49a.8.8,0,0,1,0-.31,1.49,1.49,0,0,0-.59-1.78c-1.1-.79-3-1.5-3-2.29s3.12-2.75,5.38-1.7,4.38,3.7,2.84,6.5-2.9,3.27-2.9,3.27-.46-.1-.05-.56,1.17-1.65.54-2-1.7.43-1.84.61a1.88,1.88,0,0,0-.16.23.3.3,0,0,1-.39.12l-.05,0a.3.3,0,0,1-.16-.38l.27-.72a1,1,0,0,0,.06-.34Z"/><path class="cls-37" d="M475.7,87.15a4.25,4.25,0,0,1,1.3,1.67,5.82,5.82,0,0,0-1.37-1.07s-1,.45-1,.74a20,20,0,0,1-.31,3,32.52,32.52,0,0,0-.2,4.31l-.61.4-.29-1.47.11-3.15.57-2.86a10.55,10.55,0,0,1,.15-1.14C474.13,87.56,475.7,87.15,475.7,87.15Z"/><path class="cls-28" d="M475.7,87.15s-.93-1-1.4-1a.78.78,0,0,0-.73.29c0,.06-.45,1.59-.45,1.59a18.9,18.9,0,0,0-.79,5.78,16.82,16.82,0,0,0,.17,3.09l1.15-.72a14.25,14.25,0,0,1,.32-4.81c.63-2.58.07-3,.37-3.23S475.85,87.47,475.7,87.15Z"/><path class="cls-28" d="M481.3,99.39a36.58,36.58,0,0,0-2.31,4.73,1.44,1.44,0,0,0-.12.63l-.18.11-.58-.56s.52-1.87,1.36-4.18,4.15-2.83,4.15-2.83A24.69,24.69,0,0,0,481.3,99.39Z"/><path class="cls-32" d="M480.4,105.1a10.83,10.83,0,0,0-1.25-1.54s.07.38-.47.62-3.36,1.32-3.46,1.45,0,.28.19.32a4.33,4.33,0,0,1-.83.19c-.24,0-.56.29-.4.55s.3.24.3.24-.07.29.1.35a3,3,0,0,0,.6.07s-.09.29.15.4a8.17,8.17,0,0,0,1.38.24s.89-.09,1.15-.1a12.76,12.76,0,0,0,1.91.21,14.9,14.9,0,0,0,2.3-.74A14.48,14.48,0,0,0,480.4,105.1Z"/><path class="cls-28" d="M481.08,85.9,481,87.74l-1,.31.68.55s-2.73,6.12-6.21,8.06c0,0,3.32-1.17,6.46-8l-.43-.49.7-.31Z"/><path class="cls-28" d="M472.18,85.71S471,92,472,96.66c0,0-1.26-2.26-.12-11Z"/><path class="cls-38" d="M444.37,76.58a2.17,2.17,0,0,1,.63-.48l1.54.63S445.19,76.59,444.37,76.58Z"/><path class="cls-38" d="M451.92,80.08l-.49-.29h0c.88-1.16-.08-2.84-.09-2.84C453.28,77.69,452,80.12,451.92,80.08Z"/><path class="cls-38" d="M482.07,107.36a16.7,16.7,0,0,1-1.73.6,9.19,9.19,0,0,1-.34-2.25c.1-.57.34-.7.34-.7l.06.09A14.48,14.48,0,0,1,482.07,107.36Z"/><path class="cls-31" d="M480.4,105a2,2,0,0,0,.38,1.73l.74.86h.76a8.26,8.26,0,0,0,.34-1.23Z"/><path class="cls-28" d="M473.26,87.53h0a35.75,35.75,0,0,0-.57,5.86,26.53,26.53,0,0,1,.11,3.27l-.23.2-.07,0a16.82,16.82,0,0,1-.17-3.09,18.9,18.9,0,0,1,.79-5.78Z"/><path class="cls-27" d="M473,132a4.19,4.19,0,0,1-.66-.48,32.62,32.62,0,0,0,1.32-6.78,20.26,20.26,0,0,1-1.4-4.18,32.79,32.79,0,0,1,1.86,4.68C474.69,127.37,473,132,473,132Z"/><path class="cls-38" d="M478.39,82.49v0Z"/><path class="cls-38" d="M478.39,82.49a6.29,6.29,0,0,1-1,2.34c-.64.74-1.14,1.46-1.14,1.46l-.68.07s-.65.26-.92-.16a3,3,0,0,1-.49-1.63,9.6,9.6,0,0,0,3.2-.85A2.22,2.22,0,0,0,478.39,82.49Z"/><path class="cls-39" d="M479.23,103.57s-.13.26-.15.28-.06-.2-.06-.2l.11-.21A1.13,1.13,0,0,1,479.23,103.57Z"/><path class="cls-28" d="M472.5,96.9s-1.62,5.11-2.16,6.34l0,1.23A77,77,0,0,0,472.5,96.9Z"/><path class="cls-28" d="M470.94,98.72a.53.53,0,0,0,.34.69A.55.55,0,0,0,472,99a.53.53,0,1,0-1-.31Z"/><path class="cls-28" d="M470.12,100.92a.54.54,0,0,0,.34.69.55.55,0,0,0,.67-.38.54.54,0,0,0-.34-.69A.55.55,0,0,0,470.12,100.92Z"/><path class="cls-40" d="M478.24,80.44a1,1,0,0,0,.06-.34v-.61a.8.8,0,0,1,0-.31,1.46,1.46,0,0,0,.08-.38s2.52,1.81,4.12,1.88c-1.35,2.13-2.45,2.5-2.45,2.5s-.46-.1-.05-.56,1.17-1.65.54-2-1.7.43-1.84.61a1.88,1.88,0,0,0-.16.23.3.3,0,0,1-.39.12l-.05,0a.3.3,0,0,1-.16-.38Z"/><path class="cls-27" d="M483,147.19a12.61,12.61,0,0,1-2.23.32c-1.1,0-4.09.64-4,1.74s1.64,2.7,3.6,2.94,4.48-.32,5.76-.29a1.77,1.77,0,0,0,1.65-2.49C487.26,148.18,483,147.19,483,147.19Z"/><path class="cls-27" d="M489.6,144.23s.42.66.22,1.07-.76,1.43-2.55.44-5.22-2.38-5.22-2.38-2-1-1.86-2.26,1.92-1,1.92-1Z"/><path class="cls-28" d="M478,126.86s.76,8,2.38,11,2.09,8.68,2.44,9.75a4.38,4.38,0,0,0,3.08,3c1.68.33,2-.8,1.87-1.47s-.54-1.77-.55-2.5a7.64,7.64,0,0,1,.19-1.41s1.92.56,2.21-.91a4.79,4.79,0,0,1-.18-.65c0-.22.17-5.55.21-6.19a27,27,0,0,0-.83-5.84,21.62,21.62,0,0,1-.36-5.32l-5.47-.75Z"/><path class="cls-41" d="M488.8,131.55a21.62,21.62,0,0,1-.36-5.32l-.48-.06a21.05,21.05,0,0,0,.35,5.24,26.2,26.2,0,0,1,.83,5.83c0,.64-.24,6-.21,6.18a3.63,3.63,0,0,0,.18.65c-.3,1.47-2.22.91-2.22.91a7.93,7.93,0,0,0-.19,1.41,24.59,24.59,0,0,0,.55,2.5c.08.67-.19,1.8-1.87,1.47l-.15,0a2.88,2.88,0,0,0,.65.2c1.68.33,2-.8,1.87-1.47s-.54-1.77-.55-2.5a8.86,8.86,0,0,1,.19-1.48s1.92.63,2.21-.84a4.79,4.79,0,0,1-.18-.65c0-.22.17-5.55.21-6.19A27,27,0,0,0,488.8,131.55Z"/><path class="cls-27" d="M486.82,126.81a6.1,6.1,0,0,1-.54,2.29,43.05,43.05,0,0,1-.43,6.36s.71,4.3,1.15,5.66a16.09,16.09,0,0,1,.39,4,1.88,1.88,0,0,0,.53.09c.32,0,.34-5.25-.14-6.18a19.38,19.38,0,0,1-.66-6.28c.18-1.25.11-4.8.35-5.43a.79.79,0,0,0-.3-1Z"/><path class="cls-27" d="M482.22,98.12a3.89,3.89,0,0,0-1.51,3.1l1.18-.25S481.54,98.8,482.22,98.12Z"/><path class="cls-27" d="M482.84,128.54a8.88,8.88,0,0,0,5.58-1.47c0-.51,0-.84,0-.84l-5.47-.75-5,1.38s.15,1.57.46,3.57c.89.1,1.76-2.06,1.76-2.06l2.49.16S479.21,128.43,482.84,128.54Z"/><path class="cls-33" d="M478.68,127s7.88,3.18,11.69-2.86a1,1,0,0,0,.15-.59l0-1.41a1.52,1.52,0,0,1,.07-.52h0a2.24,2.24,0,0,0,.08-1.12c-.29-1.57-1.09-5.85-1.28-7a25.07,25.07,0,0,1,1.85-9.74c1.29-2.47-2-8-2-8a2.15,2.15,0,0,0-2.4-.85s1.52,1,.69,2.15-3.33,2-3.33,2-4.61,2.36-6.18,5.24a11.92,11.92,0,0,0-.59,3.38c-.05,1.92.16,6.51.08,7.15s-.32,5-.3,5.21S478.68,127,478.68,127Z"/><path class="cls-42" d="M487.52,95.63a1.07,1.07,0,0,0,0-.88,2,2,0,0,0-.71.08A2.71,2.71,0,0,1,487.52,95.63Z"/><path class="cls-28" d="M481.07,127.63s4.64-12.4,4.42-16.89-6.77,8.88-6.77,8.88l0,7.36A14.59,14.59,0,0,0,481.07,127.63Z"/><path class="cls-43" d="M490.42,120.39a1.49,1.49,0,0,0-.07.52l0,1.39a1.09,1.09,0,0,1-.16.59c-3.8,6-11.65,2.84-11.65,2.84s-1.08-4.88-1.42-6.46c0,.39,0,.66,0,.7,0,.21,1.53,7,1.53,7s7.88,3.18,11.69-2.86a1,1,0,0,0,.15-.59l0-1.41a1.52,1.52,0,0,1,.07-.52,2.24,2.24,0,0,0,.08-1.12l-.11-.58A1.64,1.64,0,0,1,490.42,120.39Z"/><path class="cls-44" d="M491.08,102.61a24.8,24.8,0,0,0-1.85,9.68l.08.51c0-2.08.73-6.87,1.89-9.09a4.1,4.1,0,0,0,.17-2.63A3.25,3.25,0,0,1,491.08,102.61Z"/><path class="cls-31" d="M478.57,113a20.81,20.81,0,0,0,.27-3c0-1.77.52-4.69,3.75-4.18,4.56.72,2.61,7,2.11,8.13s-2.5,6.12-2.6,6.4a89.69,89.69,0,0,1-4.38,8,.27.27,0,0,1-.41.05,5.57,5.57,0,0,1-1.62-1.88,14.57,14.57,0,0,1,.49-3.45s1.77-6.75,1.92-7.06S478.29,114.62,478.57,113Z"/><path class="cls-32" d="M482.3,98.27a1.61,1.61,0,0,0-1.2-.9c-.84-.09-1.31-.32-1.4-.62a4.94,4.94,0,0,0-.29-1.13A9,9,0,0,1,479,94s-.63-.22-.66-.5.3-1.26.26-1.34a2.46,2.46,0,0,1-.33-1.15,5.89,5.89,0,0,1,.36-1.72c.25-.58,2-4.07,6.64-2.27s1.11,5.69,1.57,8.19c0,0,.42.53-.34,1.43S483.57,97.75,482.3,98.27Z"/><path class="cls-38" d="M486.54,96.66c.76-.9.34-1.43.34-1.43a3.76,3.76,0,0,1,0-1.11l-1.82.34s-2.69-2.37-2.5-1.1-.47,1.5-.47,1.5l.56.69c.14.18.06.39-.06.59-.77,1.31-2.64.91-2.64.91a2.74,2.74,0,0,0,1.14.32,1.61,1.61,0,0,1,1.2.9C483.57,97.75,485.78,97.56,486.54,96.66Z"/><path class="cls-36" d="M478.47,88s-.32.93.2,1.33l1,.76v1.19a.9.9,0,0,0,.14.48l.66,1a1.27,1.27,0,0,1,.19.66v.48a.28.28,0,0,0,.24.28l.18,0a.27.27,0,0,0,.3-.25l.07-.67s.35-.55,1.11.1l.68.28a.71.71,0,0,1,.41.42,4.78,4.78,0,0,0,.9,1.71c.41.23,2-.58,2.22-.94s.75-2.77,1.09-3.91.13-4-3.3-4.68S479,87,478.47,88Z"/><path class="cls-40" d="M486.78,94.83c.21-.36.75-2.77,1.09-3.91a8.52,8.52,0,0,1-3.06,1.13c-1.72.26-5.14-1.66-5.14-1.66v.87a.9.9,0,0,0,.14.48l.66,1a1.27,1.27,0,0,1,.19.66v.48a.28.28,0,0,0,.24.28l.18,0a.27.27,0,0,0,.3-.25l.07-.67s.35-.55,1.11.1l1,.4s.6,1.78,1,2S486.57,95.19,486.78,94.83Z"/><path class="cls-35" d="M486.85,94.94s1.34.81.67,2-5.51,3.22-5.75,3.53c0,0-.19-1.73.45-2.32,0,0,3.71-.71,4.28-1.65A1.89,1.89,0,0,0,486.85,94.94Z"/><path class="cls-37" d="M486.85,94.94a1.89,1.89,0,0,1-.35,1.53c-.43.71-2.66,1.29-3.72,1.53h0a3.89,3.89,0,0,1,1.05,1.33c1.49-.76,3.3-1.74,3.69-2.42C488.19,95.75,486.85,94.94,486.85,94.94Z"/><path class="cls-28" d="M487.75,98.63s-2.15,1.23-3.21,1.78-2.2,1.29-2.2,1.29l-.4-.4-.49,1a15.14,15.14,0,0,0-2.43,1.8,8.53,8.53,0,0,0-1.45,2.15s2.07-2.68,3.7-3.48l.44-.22.25-.83.4.42A54.82,54.82,0,0,0,487.75,98.63Z"/><path class="cls-45" d="M482.19,134.82h0a1,1,0,0,0-.29-.45L473,127c-.23-.19-.46,0-.5.33l-1,8.58a1.34,1.34,0,0,0,.34,1.08l7.45,6.37-.25,2.48,2.22-1h0a.52.52,0,0,0,.2-.42l.83-9A1.42,1.42,0,0,0,482.19,134.82Z"/><path class="cls-33" d="M470.61,127.84l2.1-.9.07,0a.3.3,0,0,1,.25.08l8.87,7.37a1,1,0,0,1,.29.45l-.32.16h0l-1.8.86-7.78-6.58h0Z"/><path class="cls-28" d="M469.65,137.94l9.07,7.82c.25.21.49.05.53-.37l.88-9a1.41,1.41,0,0,0-.37-1.09l-8.85-7.4c-.24-.19-.46,0-.51.33l-1.09,8.62A1.35,1.35,0,0,0,469.65,137.94Z"/><path class="cls-27" d="M480.37,144.87l.86-9a1.4,1.4,0,0,0-.37-1.08L472,127.42a.27.27,0,0,0-.21-.08.27.27,0,0,1,.29.06l8.86,7.39a1.37,1.37,0,0,1,.37,1.08l-.85,9c0,.28-.14.46-.29.47A.53.53,0,0,0,480.37,144.87Z"/><path class="cls-27" d="M477.13,131.64l.46-.23a.44.44,0,0,1,.29,0h0s.07.06.06.13v.08l-1.31.65v-.09a.45.45,0,0,1,.1-.21l0,0A1,1,0,0,1,477.13,131.64Z"/><polygon class="cls-27" points="477.29 132.75 476.66 132.23 477.96 131.4 478.58 131.91 477.29 132.75"/><path class="cls-46" d="M477.75,132.16l.47-.23a.44.44,0,0,1,.29-.05h0s.07.06.07.13v.08l-1.31.65v-.08a.37.37,0,0,1,.1-.21l0-.05A1.14,1.14,0,0,1,477.75,132.16Z"/><polygon class="cls-47" points="478.03 132.38 478.07 132 478.03 132.03 477.99 132.4 478.03 132.38"/><polygon class="cls-47" points="478.07 132.01 477.43 131.49 477.39 131.51 478.03 132.03 478.07 132.01"/><path class="cls-27" d="M474.31,129.3l.46-.23a.44.44,0,0,1,.29,0h0c.05,0,.07.06.07.13v.08l-1.31.64v-.09a.42.42,0,0,1,.1-.2l.05-.05A1,1,0,0,1,474.31,129.3Z"/><polygon class="cls-27" points="474.46 130.39 473.84 129.88 475.14 129.06 475.75 129.56 474.46 130.39"/><path class="cls-48" d="M474.93,129.81l.46-.22a.44.44,0,0,1,.29-.05h0c.05,0,.07.06.07.13v.08l-1.31.64v-.08a.45.45,0,0,1,.1-.21l.05,0A.9.9,0,0,1,474.93,129.81Z"/><polygon class="cls-47" points="475.2 130.03 475.24 129.66 475.2 129.68 475.16 130.05 475.2 130.03"/><polygon class="cls-47" points="475.24 129.66 474.61 129.15 474.57 129.17 475.2 129.68 475.24 129.66"/><path class="cls-33" d="M478.32,130.21l-.17,1.6-.42-.35.17-1.55a.87.87,0,0,0-.25-.66l-1.81-1.49c-.16-.13-.31-.06-.34.17l-.17,1.53-.42-.34.18-1.58c.06-.49.39-.65.75-.36l1.92,1.59A1.82,1.82,0,0,1,478.32,130.21Z"/><path class="cls-33" d="M475.21,127.65l.74-.07,2.15,2,.09,1.23,0,1-.48.24v-1.28l0-.87-.45-.63s-.8-.64-.81-.66S475.21,127.65,475.21,127.65Z"/><polygon class="cls-33" points="474.85 129.7 475.33 129.46 475.46 128.33 475 128.37 474.86 128.39 474.85 129.7"/><polygon class="cls-33" points="474.87 127.3 475.38 127.05 475.24 127.33 475.07 127.39 474.87 127.3"/><path class="cls-27" d="M477.84,130.45l-.17,1.6-.42-.35.17-1.56a.84.84,0,0,0-.25-.65l-1.81-1.5c-.16-.13-.31-.06-.34.17l-.17,1.54-.42-.35.19-1.58c.05-.49.39-.65.74-.36l1.93,1.59A1.87,1.87,0,0,1,477.84,130.45Z"/><path class="cls-32" d="M475.82,126.42a9.47,9.47,0,0,0-.22,2,2.63,2.63,0,0,0,1.3,1.29c.46.14.27-.4.37-.74a5.06,5.06,0,0,0,.09-1.07Z"/><path class="cls-38" d="M477.36,127.85l-1.54-1.43s-.06.32-.12.7a3.79,3.79,0,0,0,1.61,1.63A6.22,6.22,0,0,0,477.36,127.85Z"/><path class="cls-31" d="M475.71,126.53s.54,1.69,1.91,1.85l-.47-1.85s-1.15-.32-1.19-.32S475.71,126.53,475.71,126.53Z"/><path class="cls-49" d="M484.59,106.76c1.26,3.81-1.9,9.73-2.36,11.46s-5.28,9.83-5.28,9.83h0l0,.08a2,2,0,0,0,.32.21.66.66,0,0,0,.21.08h0a.29.29,0,0,0,.28-.11,89.69,89.69,0,0,0,4.38-8c.1-.28,2.1-5.29,2.6-6.4C485.1,113,486.44,108.76,484.59,106.76Z"/><path class="cls-50" d="M433.16,143.4a1.8,1.8,0,0,1-.89-.2L412.1,131.69a.71.71,0,0,1-.4-.6.91.91,0,0,1,.54-.74L432.13,119a2.27,2.27,0,0,1,2-.08l20.16,11.51a.7.7,0,0,1,.4.6.89.89,0,0,1-.53.74l-19.9,11.36A2.32,2.32,0,0,1,433.16,143.4Zm-.74-.47a2,2,0,0,0,1.73-.08L454,131.5a.65.65,0,0,0,.38-.48.4.4,0,0,0-.25-.33L434,119.18a1.94,1.94,0,0,0-1.72.08L412.4,130.61c-.24.14-.39.32-.39.48s.14.26.25.33Z"/><polygon class="cls-51" points="454.58 122.63 454.58 125.08 433.17 137.3 411.75 125.08 411.75 122.63 454.58 122.63"/><polygon class="cls-52" points="433.17 134.85 411.75 122.63 433.17 110.41 454.58 122.63 433.17 134.85"/><polygon class="cls-5" points="433.17 134.57 412 122.49 411.75 122.63 433.17 134.85 454.58 122.63 454.33 122.49 433.17 134.57"/><polygon class="cls-53" points="433.17 132.03 416.7 122.63 433.17 113.23 449.63 122.63 433.17 132.03"/><polygon class="cls-54" points="433.17 132.04 416.7 122.63 433.17 113.23 449.63 122.63 433.17 132.04"/><polygon class="cls-55" points="433.17 110.86 449.63 120.26 449.63 122.63 433.17 113.23 433.17 110.86"/><polygon class="cls-56" points="433.17 113.23 416.7 122.63 416.7 120.26 433.17 110.86 433.17 113.23"/><polygon class="cls-57" points="433.17 129.66 416.7 120.26 433.17 110.86 449.63 120.26 433.17 129.66"/><polygon class="cls-7" points="433.17 124.02 426.58 120.26 433.17 116.51 439.75 120.26 433.17 124.02"/><polygon class="cls-7" points="433.17 116.85 439.44 120.44 439.75 120.26 433.17 116.51 426.58 120.26 426.89 120.44 433.17 116.85"/><polygon class="cls-58" points="433.17 129.66 433.17 132.04 449.63 122.63 449.63 120.26 433.17 129.66"/><polygon class="cls-59" points="416.7 120.26 416.7 122.63 433.17 132.04 433.17 129.66 416.7 120.26"/><polygon class="cls-60" points="433.17 129.41 416.92 120.13 416.7 120.26 433.17 129.66 449.63 120.26 449.41 120.13 433.17 129.41"/><path class="cls-50" d="M433.16,198.94a1.8,1.8,0,0,1-.89-.21L412.1,187.22a.7.7,0,0,1-.4-.6.91.91,0,0,1,.54-.74l19.89-11.36a2.27,2.27,0,0,1,2-.08L454.33,186a.71.71,0,0,1,.4.61.92.92,0,0,1-.53.74l-19.9,11.35A2.33,2.33,0,0,1,433.16,198.94Zm-.74-.48a2,2,0,0,0,1.73-.08L454,187a.65.65,0,0,0,.38-.48.42.42,0,0,0-.25-.33L434,174.71a2,2,0,0,0-1.72.08L412.4,186.15c-.24.13-.39.31-.39.47a.41.41,0,0,0,.25.33Z"/><polygon class="cls-61" points="454.58 178.16 454.58 180.61 433.17 192.83 411.75 180.61 411.75 178.16 454.58 178.16"/><polygon class="cls-52" points="433.17 190.39 411.75 178.16 433.17 165.94 454.58 178.16 433.17 190.39"/><polygon class="cls-5" points="433.17 190.1 412 178.02 411.75 178.16 433.17 190.39 454.58 178.16 454.33 178.02 433.17 190.1"/><polygon class="cls-53" points="433.17 187.57 416.7 178.17 433.17 168.76 449.63 178.17 433.17 187.57"/><polygon class="cls-62" points="433.17 187.57 416.7 178.17 433.17 168.76 449.63 178.17 433.17 187.57"/><polygon class="cls-63" points="433.17 166.39 449.63 175.8 449.63 178.17 433.17 168.76 433.17 166.39"/><polygon class="cls-64" points="433.17 168.76 416.7 178.17 416.7 175.79 433.17 166.39 433.17 168.76"/><polygon class="cls-65" points="433.17 185.2 416.7 175.79 433.17 166.39 449.63 175.8 433.17 185.2"/><polygon class="cls-7" points="433.17 179.55 426.58 175.8 433.17 172.04 439.75 175.8 433.17 179.55"/><polygon class="cls-7" points="433.17 172.38 439.44 175.97 439.75 175.8 433.17 172.04 426.58 175.8 426.89 175.97 433.17 172.38"/><polygon class="cls-66" points="433.17 185.2 433.17 187.57 449.63 178.17 449.63 175.8 433.17 185.2"/><polygon class="cls-67" points="416.7 175.79 416.7 178.17 433.17 187.57 433.17 185.2 416.7 175.79"/><polygon class="cls-60" points="433.17 184.94 416.92 175.67 416.7 175.79 433.17 185.2 449.63 175.8 449.41 175.67 433.17 184.94"/><path class="cls-50" d="M519,143.4a1.8,1.8,0,0,1-.89-.2l-20.17-11.51a.71.71,0,0,1-.4-.6.91.91,0,0,1,.54-.74L518,119a2.27,2.27,0,0,1,2-.08l20.16,11.51a.7.7,0,0,1,.4.6.89.89,0,0,1-.54.74l-19.89,11.36A2.32,2.32,0,0,1,519,143.4Zm-.74-.47a2,2,0,0,0,1.73-.08l19.89-11.35a.65.65,0,0,0,.38-.48.4.4,0,0,0-.25-.33l-20.16-11.51a1.94,1.94,0,0,0-1.72.08l-19.9,11.35a.65.65,0,0,0-.38.48c0,.15.14.26.25.33Z"/><polygon class="cls-68" points="540.41 122.63 540.41 125.08 518.99 137.3 497.58 125.08 497.58 122.63 540.41 122.63"/><polygon class="cls-52" points="518.99 134.85 497.58 122.63 518.99 110.41 540.41 122.63 518.99 134.85"/><polygon class="cls-5" points="518.99 134.57 497.83 122.49 497.58 122.63 518.99 134.85 540.41 122.63 540.15 122.49 518.99 134.57"/><polygon class="cls-53" points="518.99 132.03 502.52 122.63 518.99 113.23 535.46 122.63 518.99 132.03"/><polygon class="cls-69" points="518.99 132.04 502.52 122.63 518.99 113.23 535.46 122.63 518.99 132.04"/><polygon class="cls-70" points="518.99 110.86 535.46 120.26 535.46 122.63 518.99 113.23 518.99 110.86"/><polygon class="cls-71" points="518.99 113.23 502.52 122.63 502.52 120.26 518.99 110.86 518.99 113.23"/><polygon class="cls-72" points="518.99 129.66 502.52 120.26 518.99 110.86 535.46 120.26 518.99 129.66"/><polygon class="cls-7" points="518.99 124.02 512.41 120.26 518.99 116.51 525.57 120.26 518.99 124.02"/><polygon class="cls-7" points="518.99 116.85 525.27 120.44 525.57 120.26 518.99 116.51 512.41 120.26 512.72 120.44 518.99 116.85"/><polygon class="cls-73" points="518.99 129.66 518.99 132.04 535.46 122.63 535.46 120.26 518.99 129.66"/><polygon class="cls-74" points="502.52 120.26 502.52 122.63 518.99 132.04 518.99 129.66 502.52 120.26"/><polygon class="cls-60" points="518.99 129.41 502.75 120.13 502.52 120.26 518.99 129.66 535.46 120.26 535.24 120.13 518.99 129.41"/><path class="cls-50" d="M519,198.94a1.8,1.8,0,0,1-.89-.21l-20.17-11.51a.7.7,0,0,1-.4-.6.91.91,0,0,1,.54-.74L518,174.52a2.27,2.27,0,0,1,2-.08L540.16,186a.71.71,0,0,1,.4.61.91.91,0,0,1-.54.74l-19.89,11.35A2.33,2.33,0,0,1,519,198.94Zm-.74-.48a2,2,0,0,0,1.73-.08L539.87,187a.65.65,0,0,0,.38-.48.42.42,0,0,0-.25-.33l-20.16-11.51a2,2,0,0,0-1.72.08l-19.9,11.36a.62.62,0,0,0-.38.47.41.41,0,0,0,.25.33Z"/><polygon class="cls-75" points="540.41 178.16 540.41 180.61 518.99 192.83 497.58 180.61 497.58 178.16 540.41 178.16"/><polygon class="cls-52" points="518.99 190.39 497.58 178.16 518.99 165.94 540.41 178.16 518.99 190.39"/><polygon class="cls-5" points="518.99 190.1 497.83 178.02 497.58 178.16 518.99 190.39 540.41 178.16 540.15 178.02 518.99 190.1"/><polygon class="cls-53" points="518.99 187.57 502.52 178.17 518.99 168.76 535.46 178.17 518.99 187.57"/><polygon class="cls-76" points="518.99 187.57 502.52 178.17 518.99 168.76 535.46 178.17 518.99 187.57"/><polygon class="cls-77" points="518.99 166.39 535.46 175.8 535.46 178.17 518.99 168.76 518.99 166.39"/><polygon class="cls-78" points="518.99 168.76 502.52 178.17 502.52 175.79 518.99 166.39 518.99 168.76"/><polygon class="cls-79" points="518.99 185.2 502.52 175.79 518.99 166.39 535.46 175.8 518.99 185.2"/><polygon class="cls-7" points="518.99 179.55 512.41 175.8 518.99 172.04 525.57 175.8 518.99 179.55"/><polygon class="cls-7" points="518.99 172.38 525.27 175.97 525.57 175.8 518.99 172.04 512.41 175.8 512.72 175.97 518.99 172.38"/><polygon class="cls-80" points="518.99 185.2 518.99 187.57 535.46 178.17 535.46 175.8 518.99 185.2"/><polygon class="cls-81" points="502.52 175.79 502.52 178.17 518.99 187.57 518.99 185.2 502.52 175.79"/><polygon class="cls-60" points="518.99 184.94 502.75 175.67 502.52 175.79 518.99 185.2 535.46 175.8 535.24 175.67 518.99 184.94"/><g class="cls-8"><path class="cls-82" d="M415.22,61.38C430,57,438.81,73.55,430.17,89.53c-7.34,13.56-25.22,23.36-29.9,9.11-2.75-8.37-.47-28.91,13.53-36.66-3.78,1.93-6.54,4.66-9.26,9.12,5.16,6.28,5.58,6.8,10,11.86,5.28-12.32,5.71-13.33,9.61-21.67a12.89,12.89,0,0,0-9,.09Zm-1,.43-.34.15.34-.15Zm.75-.32.25-.09-.25.09Zm-.35.14-.35.15.35-.15Zm0,0,.28-.11-.28.11Z"/><path class="cls-6" d="M390.2,77.1c.87-.9,1.79-1.78,2.78-2.65v42.67c-1,.86-1.91,1.74-2.78,2.64V77.1Z"/><path class="cls-6" d="M385.77,97.66a30.71,30.71,0,0,1,2-2.82V122.5a30.71,30.71,0,0,0-2,2.82V97.66Z"/><path class="cls-82" d="M381.8,129.81l.05.1,0-2.8-.1-.15v2.85Zm0,8.26V95.4c0-.27,0-.54,0-.82a21.77,21.77,0,0,1,1-5.74V131.5a21.77,21.77,0,0,0-1,5.75c0,.27,0,.54,0,.82Z"/><polygon class="cls-6" points="381.8 129.81 381.85 129.91 381.9 127.11 381.8 126.96 381.8 129.81 381.8 129.81"/><path class="cls-6" d="M413.84,62l0,0,0,0Zm1.34-.56,0,0,0,0Zm-.95.38-.05,0,.05,0Zm.63-.26h.07l-.07,0Z"/><path class="cls-6" d="M414.58,61.63a12.83,12.83,0,0,1,9.61-.34c-5.52,12-6.09,13.28-9.61,21.67-5.44-6.25-6.27-7.21-10-11.86,1.07-1.75,4.31-7.08,10-9.47Z"/><path class="cls-82" d="M448.81,166.57c-4.44,1.31-7.28-1.36-8.33-2.15-8.14-6.82-15.28-15.14-23.46-21.94-2.41-2-3.89-1.17-4.73-.95-15.24,6-15.24,6-17.69,2.33-4.48-7.84-4.63-8.48-6.71-13.38-.48-1.11-2.09-2.81-2.81-2.72-3.42,1-3,1.65-3.28,2V127c4-1.53,4.45-1.72,6.09,2,7.53,15.81,8.86,15.46,10.61,15.05,16.05-6.35,15.84-5.89,19.93-1.68,7.08,7.28,21.34,21.45,25.75,22.58a15.2,15.2,0,0,0,4.77-.33c15.49-5.13,21.63-8.36,36.79-14.81l1.36,2.17c-5.61,2.42-22.57,9-38.17,13.88Zm48.41,17.2V141.11q-7.14.4-14.56.35c-56.08-.44-100.86-21-100.86-46.06v42.67c0,25.07,44.78,45.61,100.86,46.05q7.41.06,14.56-.35Z"/><path class="cls-6" d="M448.81,166.57c-4,1-7.76,2-31.25-23-3-3-3-3-18.23,3.05-1.73.42-4.34,1-11.55-16-2.23-5-5.94-.88-6-.84V127a10.09,10.09,0,0,1,3.24-1.28,1.43,1.43,0,0,1,1,.08c.51.26,1,.85,1.91,2.73,4.16,8.75,4.16,8.75,7.15,13.54,1.76,2.58,1.76,2.58,16.08-3,1-.26,3-.8,6.08,1.62,8.62,6.8,15.64,15.31,24.15,22.23,3.2,2.24,5.13,3.6,44.29-13.08l1.36,2.17c-5.61,2.42-22.68,9.78-38.29,14.64Z"/></g></g></g></g></svg>