<svg xmlns="http://www.w3.org/2000/svg" xmlns:xlink="http://www.w3.org/1999/xlink" viewBox="0 0 600 239.7"><defs><style>.cls-1{isolation:isolate;}.cls-2{fill:url(#Áåçûìÿííûé_ãðàäèåíò_25);}.cls-3{opacity:0.3;}.cls-3,.cls-4{mix-blend-mode:overlay;}.cls-5{fill:#fff;}.cls-6,.cls-60,.cls-7,.cls-82{fill:#42e8e0;}.cls-24,.cls-54,.cls-55,.cls-56,.cls-57,.cls-58,.cls-59,.cls-62,.cls-63,.cls-64,.cls-65,.cls-66,.cls-67,.cls-69,.cls-7,.cls-70,.cls-71,.cls-72,.cls-73,.cls-74,.cls-76,.cls-77,.cls-78,.cls-79,.cls-8,.cls-80,.cls-81{opacity:0.5;}.cls-14,.cls-19,.cls-9{opacity:0.11;}.cls-10{fill:url(#Áåçûìÿííûé_ãðàäèåíò_22);}.cls-11{fill:url(#Áåçûìÿííûé_ãðàäèåíò_22-2);}.cls-12{fill:url(#Áåçûìÿííûé_ãðàäèåíò_22-3);}.cls-13{fill:url(#Áåçûìÿííûé_ãðàäèåíò_22-4);}.cls-14{fill:url(#Áåçûìÿííûé_ãðàäèåíò_22-5);}.cls-15{fill:url(#Áåçûìÿííûé_ãðàäèåíò_22-6);}.cls-16{fill:url(#Áåçûìÿííûé_ãðàäèåíò_22-7);}.cls-17{fill:url(#Áåçûìÿííûé_ãðàäèåíò_22-8);}.cls-18{fill:url(#Áåçûìÿííûé_ãðàäèåíò_22-9);}.cls-19{fill:url(#Áåçûìÿííûé_ãðàäèåíò_22-10);}.cls-20{fill:url(#Áåçûìÿííûé_ãðàäèåíò_22-11);}.cls-21{fill:url(#Áåçûìÿííûé_ãðàäèåíò_22-12);}.cls-22{fill:url(#Áåçûìÿííûé_ãðàäèåíò_22-13);}.cls-23{fill:url(#Áåçûìÿííûé_ãðàäèåíò_22-14);}.cls-24{fill:url(#Áåçûìÿííûé_ãðàäèåíò_22-15);}.cls-25{fill:url(#Áåçûìÿííûé_ãðàäèåíò_22-17);}.cls-26{fill:#180d5b;opacity:0.2;}.cls-27{fill:#160a5b;}.cls-28{fill:#24126a;}.cls-29{fill:url(#Áåçûìÿííûé_ãðàäèåíò_22-18);}.cls-30{fill:url(#Áåçûìÿííûé_ãðàäèåíò_22-19);}.cls-31{fill:#4846a5;}.cls-32{fill:#fcd1c5;}.cls-33{fill:#453c9e;}.cls-34{fill:url(#Áåçûìÿííûé_ãðàäèåíò_22-20);}.cls-35{fill:#f0f6ff;}.cls-36{fill:#aa8383;}.cls-37{fill:#c4ccd6;}.cls-38{fill:#e2b1a6;}.cls-39{fill:#1b2b3a;}.cls-40{fill:#936d6d;}.cls-41{fill:url(#Áåçûìÿííûé_ãðàäèåíò_22-21);}.cls-42{fill:url(#Áåçûìÿííûé_ãðàäèåíò_22-22);}.cls-43{fill:url(#Áåçûìÿííûé_ãðàäèåíò_22-23);}.cls-44{fill:url(#Áåçûìÿííûé_ãðàäèåíò_22-24);}.cls-45{fill:url(#Áåçûìÿííûé_ãðàäèåíò_22-25);}.cls-46{fill:url(#Áåçûìÿííûé_ãðàäèåíò_22-26);}.cls-47{fill:#722318;}.cls-48{fill:url(#Áåçûìÿííûé_ãðàäèåíò_22-27);}.cls-49{fill:url(#Áåçûìÿííûé_ãðàäèåíò_22-28);}.cls-50{fill:#8686f2;mix-blend-mode:lighten;}.cls-51{fill:url(#Áåçûìÿííûé_ãðàäèåíò_18);}.cls-52{fill:#bcbeff;}.cls-53{fill:#0f054c;}.cls-54{fill:url(#Áåçûìÿííûé_ãðàäèåíò_254);}.cls-55{fill:url(#Áåçûìÿííûé_ãðàäèåíò_254-2);}.cls-56{fill:url(#Áåçûìÿííûé_ãðàäèåíò_254-3);}.cls-57{fill:url(#Áåçûìÿííûé_ãðàäèåíò_254-4);}.cls-58{fill:url(#Áåçûìÿííûé_ãðàäèåíò_254-5);}.cls-59{fill:url(#Áåçûìÿííûé_ãðàäèåíò_254-6);}.cls-60{opacity:0.8;}.cls-61{fill:url(#Áåçûìÿííûé_ãðàäèåíò_18-2);}.cls-62{fill:url(#Áåçûìÿííûé_ãðàäèåíò_254-7);}.cls-63{fill:url(#Áåçûìÿííûé_ãðàäèåíò_254-8);}.cls-64{fill:url(#Áåçûìÿííûé_ãðàäèåíò_254-9);}.cls-65{fill:url(#Áåçûìÿííûé_ãðàäèåíò_254-10);}.cls-66{fill:url(#Áåçûìÿííûé_ãðàäèåíò_254-11);}.cls-67{fill:url(#Áåçûìÿííûé_ãðàäèåíò_254-12);}.cls-68{fill:url(#Áåçûìÿííûé_ãðàäèåíò_18-3);}.cls-69{fill:url(#Áåçûìÿííûé_ãðàäèåíò_254-13);}.cls-70{fill:url(#Áåçûìÿííûé_ãðàäèåíò_254-14);}.cls-71{fill:url(#Áåçûìÿííûé_ãðàäèåíò_254-15);}.cls-72{fill:url(#Áåçûìÿííûé_ãðàäèåíò_254-16);}.cls-73{fill:url(#Áåçûìÿííûé_ãðàäèåíò_254-17);}.cls-74{fill:url(#Áåçûìÿííûé_ãðàäèåíò_254-18);}.cls-75{fill:url(#Áåçûìÿííûé_ãðàäèåíò_18-4);}.cls-76{fill:url(#Áåçûìÿííûé_ãðàäèåíò_254-19);}.cls-77{fill:url(#Áåçûìÿííûé_ãðàäèåíò_254-20);}.cls-78{fill:url(#Áåçûìÿííûé_ãðàäèåíò_254-21);}.cls-79{fill:url(#Áåçûìÿííûé_ãðàäèåíò_254-22);}.cls-80{fill:url(#Áåçûìÿííûé_ãðàäèåíò_254-23);}.cls-81{fill:url(#Áåçûìÿííûé_ãðàäèåíò_254-24);}.cls-82{opacity:0.5;}</style><radialGradient id="Áåçûìÿííûé_ãðàäèåíò_25" cx="141.01" cy="153" fx="-109.05387090593098" fy="64.78987929631877" r="265.17" gradientTransform="scale(1 0.53)" gradientUnits="userSpaceOnUse"><stop offset="0" stop-color="#2b237c"/><stop offset="1" stop-color="#180d5b"/></radialGradient><linearGradient id="Áåçûìÿííûé_ãðàäèåíò_22" x1="435.07" y1="211.56" x2="518.62" y2="211.56" gradientUnits="userSpaceOnUse"><stop offset="0" stop-color="#5761d7"/><stop offset="0.07" stop-color="#5472d8"/><stop offset="0.28" stop-color="#4e9cdb"/><stop offset="0.48" stop-color="#49bddd"/><stop offset="0.67" stop-color="#45d5df"/><stop offset="0.85" stop-color="#43e3e0"/><stop offset="1" stop-color="#42e8e0"/></linearGradient><linearGradient id="Áåçûìÿííûé_ãðàäèåíò_22-2" x1="435.07" y1="205.2" x2="518.62" y2="205.2" xlink:href="#Áåçûìÿííûé_ãðàäèåíò_22"/><linearGradient id="Áåçûìÿííûé_ãðàäèåíò_22-3" x1="435.07" y1="198.85" x2="518.62" y2="198.85" xlink:href="#Áåçûìÿííûé_ãðàäèåíò_22"/><linearGradient id="Áåçûìÿííûé_ãðàäèåíò_22-4" x1="435.07" y1="192.49" x2="518.62" y2="192.49" xlink:href="#Áåçûìÿííûé_ãðàäèåíò_22"/><linearGradient id="Áåçûìÿííûé_ãðàäèåíò_22-5" x1="435.07" y1="202.02" x2="518.62" y2="202.02" xlink:href="#Áåçûìÿííûé_ãðàäèåíò_22"/><linearGradient id="Áåçûìÿííûé_ãðàäèåíò_22-6" x1="435.07" y1="185.27" x2="518.62" y2="185.27" xlink:href="#Áåçûìÿííûé_ãðàäèåíò_22"/><linearGradient id="Áåçûìÿííûé_ãðàäèåíò_22-7" x1="435.07" y1="178.91" x2="518.62" y2="178.91" xlink:href="#Áåçûìÿííûé_ãðàäèåíò_22"/><linearGradient id="Áåçûìÿííûé_ãðàäèåíò_22-8" x1="435.07" y1="172.56" x2="518.62" y2="172.56" xlink:href="#Áåçûìÿííûé_ãðàäèåíò_22"/><linearGradient id="Áåçûìÿííûé_ãðàäèåíò_22-9" x1="435.07" y1="166.2" x2="518.62" y2="166.2" xlink:href="#Áåçûìÿííûé_ãðàäèåíò_22"/><linearGradient id="Áåçûìÿííûé_ãðàäèåíò_22-10" x1="435.07" y1="175.74" x2="518.62" y2="175.74" xlink:href="#Áåçûìÿííûé_ãðàäèåíò_22"/><linearGradient id="Áåçûìÿííûé_ãðàäèåíò_22-11" x1="435.07" y1="158.98" x2="518.62" y2="158.98" xlink:href="#Áåçûìÿííûé_ãðàäèåíò_22"/><linearGradient id="Áåçûìÿííûé_ãðàäèåíò_22-12" x1="435.07" y1="152.63" x2="518.62" y2="152.63" xlink:href="#Áåçûìÿííûé_ãðàäèåíò_22"/><linearGradient id="Áåçûìÿííûé_ãðàäèåíò_22-13" x1="435.07" y1="146.27" x2="518.62" y2="146.27" xlink:href="#Áåçûìÿííûé_ãðàäèåíò_22"/><linearGradient id="Áåçûìÿííûé_ãðàäèåíò_22-14" x1="435.07" y1="139.92" x2="518.62" y2="139.92" xlink:href="#Áåçûìÿííûé_ãðàäèåíò_22"/><linearGradient id="Áåçûìÿííûé_ãðàäèåíò_22-15" x1="435.07" y1="149.45" x2="518.62" y2="149.45" xlink:href="#Áåçûìÿííûé_ãðàäèåíò_22"/><linearGradient id="Áåçûìÿííûé_ãðàäèåíò_22-17" x1="435.07" y1="151.37" x2="518.62" y2="151.37" xlink:href="#Áåçûìÿííûé_ãðàäèåíò_22"/><linearGradient id="Áåçûìÿííûé_ãðàäèåíò_22-18" x1="469.28" y1="123.21" x2="472.9" y2="123.21" xlink:href="#Áåçûìÿííûé_ãðàäèåíò_22"/><linearGradient id="Áåçûìÿííûé_ãðàäèåíò_22-19" x1="471.13" y1="115.35" x2="480.18" y2="115.35" xlink:href="#Áåçûìÿííûé_ãðàäèåíò_22"/><linearGradient id="Áåçûìÿííûé_ãðàäèåíò_22-20" x1="471.17" y1="106.53" x2="480.98" y2="106.53" xlink:href="#Áåçûìÿííûé_ãðàäèåíò_22"/><linearGradient id="Áåçûìÿííûé_ãðàäèåíò_22-21" x1="487.77" y1="197.92" x2="493.71" y2="197.92" gradientTransform="matrix(1, -0.09, 0.09, 1, -17.45, -16.03)" xlink:href="#Áåçûìÿííûé_ãðàäèåíò_22"/><linearGradient id="Áåçûìÿííûé_ãðàäèåíò_22-22" x1="494.59" y1="152.04" x2="495.43" y2="152.04" gradientTransform="matrix(1, -0.09, 0.09, 1, -17.45, -16.03)" xlink:href="#Áåçûìÿííûé_ãðàäèåíò_22"/><linearGradient id="Áåçûìÿííûé_ãðàäèåíò_22-23" x1="482.01" y1="181.52" x2="496.3" y2="181.52" gradientTransform="matrix(1, -0.09, 0.09, 1, -17.45, -16.03)" xlink:href="#Áåçûìÿííûé_ãðàäèåíò_22"/><linearGradient id="Áåçûìÿííûé_ãðàäèåíò_22-24" x1="495.55" y1="164.8" x2="498.92" y2="164.8" gradientTransform="matrix(1, -0.09, 0.09, 1, -17.45, -16.03)" xlink:href="#Áåçûìÿííûé_ãðàäèåíò_22"/><linearGradient id="Áåçûìÿííûé_ãðàäèåíò_22-25" x1="474.48" y1="194.73" x2="486.04" y2="194.73" gradientTransform="matrix(1, -0.09, 0.09, 1, -17.45, -16.03)" xlink:href="#Áåçûìÿííûé_ãðàäèåíò_22"/><linearGradient id="Áåçûìÿííûé_ãðàäèåíò_22-26" x1="480.97" y1="190.6" x2="482.44" y2="190.6" gradientTransform="matrix(1, -0.09, 0.09, 1, -17.45, -16.03)" xlink:href="#Áåçûìÿííûé_ãðàäèåíò_22"/><linearGradient id="Áåçûìÿííûé_ãðàäèåíò_22-27" x1="478.18" y1="187.84" x2="479.65" y2="187.84" gradientTransform="matrix(1, -0.09, 0.09, 1, -17.45, -16.03)" xlink:href="#Áåçûìÿííûé_ãðàäèåíò_22"/><linearGradient id="Áåçûìÿííûé_ãðàäèåíò_22-28" x1="481" y1="175.26" x2="491.91" y2="175.26" gradientTransform="matrix(1, -0.09, 0.09, 1, -17.45, -16.03)" xlink:href="#Áåçûìÿííûé_ãðàäèåíò_22"/><linearGradient id="Áåçûìÿííûé_ãðàäèåíò_18" x1="397.16" y1="129.29" x2="455.7" y2="129.29" gradientUnits="userSpaceOnUse"><stop offset="0" stop-color="#5761d7"/><stop offset="0.16" stop-color="#5e67da"/><stop offset="0.41" stop-color="#727ae2"/><stop offset="0.69" stop-color="#9297ee"/><stop offset="1" stop-color="#bcbeff"/></linearGradient><linearGradient id="Áåçûìÿííûé_ãðàäèåíò_254" x1="413.73" y1="121.47" x2="448.86" y2="121.47" gradientUnits="userSpaceOnUse"><stop offset="0" stop-color="#42e8e0"/><stop offset="0.15" stop-color="#43e3e0"/><stop offset="0.33" stop-color="#45d5df"/><stop offset="0.52" stop-color="#49bddd"/><stop offset="0.72" stop-color="#4e9cdb"/><stop offset="0.93" stop-color="#5472d8"/><stop offset="1" stop-color="#5761d7"/></linearGradient><linearGradient id="Áåçûìÿííûé_ãðàäèåíò_254-2" x1="431.3" y1="115.19" x2="448.86" y2="115.19" xlink:href="#Áåçûìÿííûé_ãðàäèåíò_254"/><linearGradient id="Áåçûìÿííûé_ãðàäèåíò_254-3" x1="413.73" y1="115.19" x2="431.3" y2="115.19" xlink:href="#Áåçûìÿííûé_ãðàäèåíò_254"/><linearGradient id="Áåçûìÿííûé_ãðàäèåíò_254-4" x1="413.73" y1="118.94" x2="448.86" y2="118.94" xlink:href="#Áåçûìÿííûé_ãðàäèåíò_254"/><linearGradient id="Áåçûìÿííûé_ãðàäèåíò_254-5" x1="431.3" y1="125.22" x2="448.86" y2="125.22" xlink:href="#Áåçûìÿííûé_ãðàäèåíò_254"/><linearGradient id="Áåçûìÿííûé_ãðàäèåíò_254-6" x1="413.73" y1="125.22" x2="431.3" y2="125.22" xlink:href="#Áåçûìÿííûé_ãðàäèåíò_254"/><linearGradient id="Áåçûìÿííûé_ãðàäèåíò_18-2" x1="397.16" y1="188.53" x2="455.7" y2="188.53" xlink:href="#Áåçûìÿííûé_ãðàäèåíò_18"/><linearGradient id="Áåçûìÿííûé_ãðàäèåíò_254-7" x1="413.73" y1="180.71" x2="448.86" y2="180.71" xlink:href="#Áåçûìÿííûé_ãðàäèåíò_254"/><linearGradient id="Áåçûìÿííûé_ãðàäèåíò_254-8" x1="431.3" y1="174.43" x2="448.86" y2="174.43" xlink:href="#Áåçûìÿííûé_ãðàäèåíò_254"/><linearGradient id="Áåçûìÿííûé_ãðàäèåíò_254-9" x1="413.73" y1="174.43" x2="431.3" y2="174.43" xlink:href="#Áåçûìÿííûé_ãðàäèåíò_254"/><linearGradient id="Áåçûìÿííûé_ãðàäèåíò_254-10" x1="413.73" y1="178.18" x2="448.86" y2="178.18" xlink:href="#Áåçûìÿííûé_ãðàäèåíò_254"/><linearGradient id="Áåçûìÿííûé_ãðàäèåíò_254-11" x1="431.3" y1="184.46" x2="448.86" y2="184.46" xlink:href="#Áåçûìÿííûé_ãðàäèåíò_254"/><linearGradient id="Áåçûìÿííûé_ãðàäèåíò_254-12" x1="413.73" y1="184.46" x2="431.3" y2="184.46" xlink:href="#Áåçûìÿííûé_ãðàäèåíò_254"/><linearGradient id="Áåçûìÿííûé_ãðàäèåíò_18-3" x1="488.72" y1="129.29" x2="547.26" y2="129.29" xlink:href="#Áåçûìÿííûé_ãðàäèåíò_18"/><linearGradient id="Áåçûìÿííûé_ãðàäèåíò_254-13" x1="505.28" y1="121.47" x2="540.42" y2="121.47" xlink:href="#Áåçûìÿííûé_ãðàäèåíò_254"/><linearGradient id="Áåçûìÿííûé_ãðàäèåíò_254-14" x1="522.85" y1="115.19" x2="540.42" y2="115.19" xlink:href="#Áåçûìÿííûé_ãðàäèåíò_254"/><linearGradient id="Áåçûìÿííûé_ãðàäèåíò_254-15" x1="505.28" y1="115.19" x2="522.85" y2="115.19" xlink:href="#Áåçûìÿííûé_ãðàäèåíò_254"/><linearGradient id="Áåçûìÿííûé_ãðàäèåíò_254-16" x1="505.28" y1="118.94" x2="540.42" y2="118.94" xlink:href="#Áåçûìÿííûé_ãðàäèåíò_254"/><linearGradient id="Áåçûìÿííûé_ãðàäèåíò_254-17" x1="522.85" y1="125.22" x2="540.42" y2="125.22" xlink:href="#Áåçûìÿííûé_ãðàäèåíò_254"/><linearGradient id="Áåçûìÿííûé_ãðàäèåíò_254-18" x1="505.28" y1="125.22" x2="522.85" y2="125.22" xlink:href="#Áåçûìÿííûé_ãðàäèåíò_254"/><linearGradient id="Áåçûìÿííûé_ãðàäèåíò_18-4" x1="488.72" y1="188.53" x2="547.26" y2="188.53" xlink:href="#Áåçûìÿííûé_ãðàäèåíò_18"/><linearGradient id="Áåçûìÿííûé_ãðàäèåíò_254-19" x1="505.28" y1="180.71" x2="540.42" y2="180.71" xlink:href="#Áåçûìÿííûé_ãðàäèåíò_254"/><linearGradient id="Áåçûìÿííûé_ãðàäèåíò_254-20" x1="522.85" y1="174.43" x2="540.42" y2="174.43" xlink:href="#Áåçûìÿííûé_ãðàäèåíò_254"/><linearGradient id="Áåçûìÿííûé_ãðàäèåíò_254-21" x1="505.28" y1="174.43" x2="522.85" y2="174.43" xlink:href="#Áåçûìÿííûé_ãðàäèåíò_254"/><linearGradient id="Áåçûìÿííûé_ãðàäèåíò_254-22" x1="505.28" y1="178.18" x2="540.42" y2="178.18" xlink:href="#Áåçûìÿííûé_ãðàäèåíò_254"/><linearGradient id="Áåçûìÿííûé_ãðàäèåíò_254-23" x1="522.85" y1="184.46" x2="540.42" y2="184.46" xlink:href="#Áåçûìÿííûé_ãðàäèåíò_254"/><linearGradient id="Áåçûìÿííûé_ãðàäèåíò_254-24" x1="505.28" y1="184.46" x2="522.85" y2="184.46" xlink:href="#Áåçûìÿííûé_ãðàäèåíò_254"/></defs><title>Asset 2</title><g class="cls-1"><g id="Layer_2" data-name="Layer 2"><g id="Ñëîé_1" data-name="Ñëîé 1"><rect class="cls-2" width="600" height="239.7"/><g class="cls-3"><g class="cls-4"><path class="cls-5" d="M13.41,191.83H.72V119.9h39.1l9.92,33.56ZM1.52,190.56H13.16L48.72,153,39.3,121.18H1.52Z"/></g><g class="cls-4"><path class="cls-5" d="M93.52,153.87h-44l-10-33.58L69.47,91.45h38.3l14.08,29.22-.33.38ZM50,152.6H93.26l27.46-32.19L107.37,92.72H69.69L40.55,120.79Z"/></g><g class="cls-4"><path class="cls-5" d="M74.39,236.44H22.65l-.09-.44-9.2-45.07L49.62,152.6h44l15.08,38.73-.26.35Zm-51.15-1.27H74.1l33.55-44.11L93.16,153.87H49.86L14.31,191.45Z"/></g><g class="cls-4"><path class="cls-5" d="M155.62,191.83H108.06L93,153.07l.3-.35,28-32.82h40.94l.12.21,19.06,33.16Zm-47.11-1.27H155.3l24.94-37.36-18.41-32H121.52L94,153.4Z"/></g><g class="cls-4"><path class="cls-5" d="M224.64,153.87h-44l-.11-.21-19.08-33.18.32-.43,21.75-28.6h38.28l22.06,29ZM181,152.6h43.3l18.4-32-21.2-27.88H183.8L162.6,120.6Z"/></g><g class="cls-4"><path class="cls-5" d="M228.53,237.6H176.72l-21.88-45.5.26-.39,25.51-38.27h44l.12.17,25.65,38.49Zm-51.41-1.27h51l21.22-44.09-25-37.53H180.93l-25,37.53Z"/></g><g class="cls-4"><path class="cls-5" d="M221.77,92.09H183.52L166.4,66.48l19.33-22.63h33.85l.1.13,19.22,22.5Zm-37.93-1.27h37.61l16.2-24.22L219.31,45.12H186L167.65,66.6Z"/></g><g class="cls-4"><path class="cls-5" d="M284.17,121.18h-41L221.11,92.12l17.13-25.66h35.95l.11.11,24,25.36Zm-40.68-1.28h40.28l13.35-27.66L274,67.74H238.56L222.32,92.06Z"/></g><g class="cls-4"><path class="cls-5" d="M274.15,67.18H238.21L218.86,44.52l15.48-20.33h32l.1.09L287.3,44.34Zm-35.67-1.27h35.31l12.26-21.28L266.13,25.46h-31.5l-14.47,19Z"/></g><g class="cls-4"><path class="cls-5" d="M297.29,191.83H249.73L224,153.27l19.18-33.37h40.94l28.28,33.17Zm-47.24-1.27h46.79l14.48-37.16-27.48-32.22H243.53l-18.42,32Z"/></g><g class="cls-4"><path class="cls-5" d="M356.24,153.87h-44l-.11-.12-28.24-33.08,14.06-29.22h38.3l.1.09,29.87,28.75Zm-43.77-1.27h43.26l9.42-31.81L336,92.72H298.31L285,120.41Z"/></g><g class="cls-4"><path class="cls-5" d="M406.43,120.45h-41l-.1-.09-29.86-28.7,10-25.75,36,.07,30.84,25.16-.11.51Zm-40.73-1.27h40.15l5.59-27.41L381.3,67.18H346l-9.37,24.06Z"/></g><g class="cls-4"><path class="cls-5" d="M336.33,92.72H298l-.1-.1-24-25.4L287,44.35h33.91l25.49,22.52Zm-38.09-1.27h37.64l9.37-24.12L320.68,45.62H287.33L275.07,67Z"/></g><g class="cls-4"><path class="cls-5" d="M383.13,236.44H331.39l-.11-.15-34.23-45,15.06-38.73h44l.1.11,36.18,38.22Zm-51.45-1.27h50.86l8.9-43.72-35.58-37.58h-43.3L298.1,191.06Z"/></g><g class="cls-4"><path class="cls-5" d="M167.15,67.18H131.22L118.07,44.34l21-20.15h32l15.47,20.33Zm-35.58-1.27h35.32l18.32-21.45-14.47-19h-31.5L119.32,44.63Z"/></g><g class="cls-4"><path class="cls-5" d="M162.16,121.18h-41l-14.1-29.25,24.08-25.47h36l17.12,25.66Zm-40.58-1.28h40.28L183,92.06,166.81,67.74H131.42l-23.17,24.5Z"/></g><g class="cls-4"><path class="cls-5" d="M107.69,92.72H69.36L59.29,66.87,84.76,44.35h33.91l.12.21,13,22.66ZM69.81,91.45h37.64L130.59,67,118.32,45.62H85L60.41,67.33Z"/></g></g><path class="cls-6" d="M540.12,83.23q2.55.64,5,1.35v12q-2.45-.72-5-1.36v-12Z"/><path class="cls-7" d="M528.54,83.73q2.72.51,5.36,1.09V93.7c-1.76-.38-3.55-.75-5.36-1.09V83.73Z"/><path class="cls-6" d="M516.22,74c1.92.25,3.81.52,5.69.81V91.47c-1.88-.29-3.77-.56-5.69-.81V74Z"/><path class="cls-7" d="M503.27,63.49q3,.21,6,.5V89.87c-2-.19-4-.35-6-.5V63.49Z"/><path class="cls-7" d="M489.77,69.05q3.14,0,6.21.17V89q-3.08-.14-6.21-.18V69.05Z"/><path class="cls-6" d="M476.14,48.38q3.06-.12,6.15-.17V88.79q-3.09,0-6.15.17V48.38Z"/><path class="cls-6" d="M463,56.73c2-.18,3.94-.35,5.93-.49V89.36q-3,.21-5.93.49V56.73Z"/><path class="cls-6" d="M450.33,45.92c1.87-.29,3.76-.55,5.67-.8V90.63c-1.91.25-3.8.51-5.67.8V45.92Z"/><g class="cls-8"><g class="cls-9"><path class="cls-10" d="M480.07,189a6.47,6.47,0,0,0-6.4,0l-38.15,21.73a.88.88,0,0,0,0,1.54l38.47,22a5.7,5.7,0,0,0,5.65,0l38.53-21.94a.88.88,0,0,0,0-1.54Z"/></g><g class="cls-9"><path class="cls-11" d="M480.07,182.64a6.49,6.49,0,0,0-6.4,0l-38.15,21.73a.89.89,0,0,0,0,1.55l38.47,22a5.75,5.75,0,0,0,5.65,0l38.53-21.94a.89.89,0,0,0,0-1.55Z"/></g><g class="cls-9"><path class="cls-12" d="M480.07,176.28a6.47,6.47,0,0,0-6.4,0L435.52,198a.88.88,0,0,0,0,1.54l38.47,22a5.7,5.7,0,0,0,5.65,0l38.53-21.94a.88.88,0,0,0,0-1.54Z"/></g><g class="cls-9"><path class="cls-13" d="M480.07,169.93a6.47,6.47,0,0,0-6.4,0l-38.15,21.72a.89.89,0,0,0,0,1.55l38.47,22a5.75,5.75,0,0,0,5.65,0l38.53-21.94a.89.89,0,0,0,0-1.55Z"/></g><path class="cls-14" d="M518.17,191.67l-38.1-21.74a6.47,6.47,0,0,0-6.4,0l-38.15,21.72a.88.88,0,0,0-.45.77v19.07a.88.88,0,0,0,.45.77l38.47,22a5.7,5.7,0,0,0,5.65,0l38.53-21.94a.88.88,0,0,0,.45-.77V192.45h0A.9.9,0,0,0,518.17,191.67Z"/></g><g class="cls-9"><path class="cls-15" d="M480.07,162.7a6.47,6.47,0,0,0-6.4,0l-38.15,21.73a.88.88,0,0,0,0,1.54l38.47,22a5.7,5.7,0,0,0,5.65,0L518.17,186a.88.88,0,0,0,0-1.54Z"/></g><g class="cls-9"><path class="cls-16" d="M480.07,156.35a6.47,6.47,0,0,0-6.4,0l-38.15,21.72a.89.89,0,0,0,0,1.55l38.47,22a5.7,5.7,0,0,0,5.65,0l38.53-21.94a.88.88,0,0,0,0-1.54Z"/></g><g class="cls-9"><path class="cls-17" d="M480.07,150a6.47,6.47,0,0,0-6.4,0l-38.15,21.73a.88.88,0,0,0,0,1.54l38.47,22a5.7,5.7,0,0,0,5.65,0l38.53-21.94a.88.88,0,0,0,0-1.54Z"/></g><g class="cls-9"><path class="cls-18" d="M480.07,143.64a6.47,6.47,0,0,0-6.4,0l-38.15,21.73a.88.88,0,0,0,0,1.54l38.47,22a5.7,5.7,0,0,0,5.65,0l38.53-21.94a.88.88,0,0,0,0-1.54Z"/></g><path class="cls-19" d="M518.17,165.39l-38.1-21.75a6.47,6.47,0,0,0-6.4,0l-38.15,21.73a.88.88,0,0,0-.45.77V185.2a.88.88,0,0,0,.45.77l38.47,22a5.7,5.7,0,0,0,5.65,0L518.17,186a.88.88,0,0,0,.45-.77V166.16h0A.88.88,0,0,0,518.17,165.39Z"/><g class="cls-9"><path class="cls-20" d="M480.07,136.42a6.47,6.47,0,0,0-6.4,0l-38.15,21.73a.88.88,0,0,0,0,1.54l38.47,22a5.7,5.7,0,0,0,5.65,0l38.53-21.94a.88.88,0,0,0,0-1.54Z"/></g><g class="cls-9"><path class="cls-21" d="M480.07,130.06a6.47,6.47,0,0,0-6.4,0l-38.15,21.73a.88.88,0,0,0,0,1.54l38.47,22a5.7,5.7,0,0,0,5.65,0l38.53-21.94a.88.88,0,0,0,0-1.54Z"/></g><g class="cls-9"><path class="cls-22" d="M480.07,123.71a6.49,6.49,0,0,0-6.4,0l-38.15,21.73a.88.88,0,0,0,0,1.54l38.47,22a5.7,5.7,0,0,0,5.65,0L518.17,147a.89.89,0,0,0,0-1.55Z"/></g><g class="cls-9"><path class="cls-23" d="M480.07,117.35a6.47,6.47,0,0,0-6.4,0l-38.15,21.73a.88.88,0,0,0,0,1.54l38.47,22a5.7,5.7,0,0,0,5.65,0l38.53-21.94a.88.88,0,0,0,0-1.54Z"/></g><path class="cls-24" d="M518.17,139.1l-38.1-21.75a6.47,6.47,0,0,0-6.4,0l-38.15,21.73a.88.88,0,0,0-.45.77v19.06a.88.88,0,0,0,.45.77l38.47,22a5.7,5.7,0,0,0,5.65,0l38.53-21.94a.88.88,0,0,0,.45-.77V139.87h0A.88.88,0,0,0,518.17,139.1Z"/><g class="cls-9"><path class="cls-23" d="M480.07,117.35a6.47,6.47,0,0,0-6.4,0l-38.15,21.73a.88.88,0,0,0,0,1.54l38.47,22a5.7,5.7,0,0,0,5.65,0l38.53-21.94a.88.88,0,0,0,0-1.54Z"/></g><path class="cls-25" d="M518.17,139.76,479.64,161.7a5.7,5.7,0,0,1-5.65,0l-38.47-22a.81.81,0,0,1-.33-.33.89.89,0,0,0,.33,1.21l38.47,22a5.7,5.7,0,0,0,5.65,0l38.53-21.94a.89.89,0,0,0,.33-1.21A1,1,0,0,1,518.17,139.76Z"/><polygon class="cls-6" points="439.56 146.48 440.5 147.02 440.5 146.39 439.56 145.85 439.56 146.48"/><polygon class="cls-6" points="439.56 150.73 440.5 151.27 440.5 147.59 439.56 147.05 439.56 150.73"/><polygon class="cls-6" points="439.56 152.76 440.5 153.3 440.5 151.84 439.56 151.3 439.56 152.76"/><polygon class="cls-6" points="439.56 154.86 440.5 155.41 440.5 153.95 439.56 153.41 439.56 154.86"/><polygon class="cls-6" points="438.14 147.7 439.09 148.24 439.09 146.78 438.14 146.24 438.14 147.7"/><polygon class="cls-6" points="438.14 150.49 439.09 151.03 439.09 148.89 438.14 148.35 438.14 150.49"/><polygon class="cls-6" points="438.14 153.06 439.09 153.6 439.09 151.76 438.14 151.22 438.14 153.06"/><polygon class="cls-6" points="439.56 156.97 440.5 157.51 440.5 156.05 439.56 155.51 439.56 156.97"/><polygon class="cls-6" points="438.14 145.67 439.09 146.21 439.09 145.58 438.14 145.04 438.14 145.67"/><polygon class="cls-6" points="438.85 158.61 440.5 159.56 440.5 158.94 438.85 158 438.85 158.61"/><ellipse class="cls-26" cx="476.84" cy="139.92" rx="20.48" ry="11.69"/><path class="cls-27" d="M477,130.28l0,.18.05-.12a2.54,2.54,0,0,1,0,1.42,11,11,0,0,1-1.1,1.71c-.5.66-1.31,2-1.53,2.29a5.26,5.26,0,0,1-3,1.45c-1.55.15-1.94-.72-1.82-1.2a10.6,10.6,0,0,1,1.87-2.75,13.34,13.34,0,0,0,1.6-2.34Z"/><path class="cls-27" d="M472.3,126.13a7.1,7.1,0,0,1-.05,1.38c-.11.41-2.38.53-3.19.64a11.72,11.72,0,0,0-2.65.88c-.44.21-3.39.52-3.75-.55s1.48-2,2.72-2.26,3.29-.91,3.29-.91Z"/><path class="cls-28" d="M480.18,106.71a27,27,0,0,1-.85,6.54,25.23,25.23,0,0,0-.81,6.46s1,4.29.11,7.23a11,11,0,0,1-1.57,3.75,2.58,2.58,0,0,1-3.95.23,34.93,34.93,0,0,0,1.41-7.23,21.89,21.89,0,0,1-1.5-4.46s-.32,3.34-.51,4.69a5.86,5.86,0,0,1-.34,2.78c-.53.8-2.94,1-3.71-.35s.64-.72.21-7.12a14.49,14.49,0,0,1-2.53-7.76c-.32-5-.29-7,0-8s5.2-4.51,5.2-4.51l2.77,3.5Z"/><path class="cls-29" d="M472.9,120.47a14.25,14.25,0,0,1-.34-1.4s-.32,3.34-.51,4.69a5.86,5.86,0,0,1-.34,2.78,2.49,2.49,0,0,1-2.43.56,2.6,2.6,0,0,0,2.89-.4,5.86,5.86,0,0,0,.34-2.78C472.63,123.1,472.79,121.56,472.9,120.47Z"/><path class="cls-30" d="M480.18,106.71l-6.07-4.26L471.34,99l-.21.16,2.52,3.18,6.07,4.26a27,27,0,0,1-.85,6.54,25.57,25.57,0,0,0-.82,6.46s1,4.29.12,7.22a10.86,10.86,0,0,1-1.58,3.76,2.71,2.71,0,0,1-2.58,1,2.61,2.61,0,0,0,3.05-.83,11,11,0,0,0,1.57-3.75c.86-2.94-.11-7.23-.11-7.23a25.23,25.23,0,0,1,.81-6.46A27,27,0,0,0,480.18,106.71Z"/><path class="cls-27" d="M469.24,112.32c-.8-.95-1.25-3.92-1.25-3.92a14.17,14.17,0,0,0,2.14,3.23,5.94,5.94,0,0,1,1.83,3.13c.16.95,1.06,4.47,1.06,4.47s-.32,3.34-.51,4.69a5.86,5.86,0,0,1-.34,2.78,1.22,1.22,0,0,1-.52.41s.13-4.42,0-6.28S470,113.27,469.24,112.32Z"/><path class="cls-31" d="M487.56,86.42s2.12,4.1,2.34,4.41,4.18,5.32,4.56,8.21a2.07,2.07,0,0,1-1.07,2.1c-1.36,1-8.25,5.32-8.68,5.38a4.14,4.14,0,0,1-3-3.84s5.4-2.49,6.57-3.73a37.27,37.27,0,0,0-3.13-4.52,2.37,2.37,0,0,1-.49-1.29,7,7,0,0,1,2.3-6.15Z"/><path class="cls-28" d="M471.72,76.83s-3.28,1.2-4.4.79-3.87-.76-5.76-1.8-10.13-3.15-11.35-3.23c0,0,0,0,.18.14a1.52,1.52,0,0,1,1.28,1.1,3,3,0,0,1-.42,2.17c-.14.08-.22-.26-1-.62a3.19,3.19,0,0,0-1.28-.33l-.3.37-.18.28a1.85,1.85,0,0,0,1.45,1.22c1.05.08,7.83,2.88,8.26,3s6.12,2.55,7.19,2.93a12.76,12.76,0,0,1,1.9.86s3.32-2.19,3.43-2.19S471.72,76.83,471.72,76.83Z"/><path class="cls-32" d="M442.07,71.23c.13,0,1.85.6,1.85.6s-.68.35-.75.65a10.16,10.16,0,0,0,.21,2.13,2.06,2.06,0,0,0,.52.4c.11.07.37.66.62.58a.56.56,0,0,0,.32-.37l.25-.14a4.5,4.5,0,0,1,1.69.34,2.91,2.91,0,0,0,1.71.28,8.93,8.93,0,0,0,1.06-.46,2.73,2.73,0,0,1,.66.18c.23.12,1,.62,1.09.66s1.64-2.93-1.09-3.49a6.81,6.81,0,0,1-1.63-.33,12.75,12.75,0,0,0-2.39-1.3,3.2,3.2,0,0,0-1,.14s-3.09-.87-3.35-.6S441.93,71.2,442.07,71.23Zm2.23,2a.83.83,0,0,0,.63-.37.41.41,0,0,0,.47,0s.43.13.43.13l.43.34c.24.17-.08.68-.08.68a1.54,1.54,0,0,1-.73-.2,3.93,3.93,0,0,0-.59-.15A3.47,3.47,0,0,1,444.3,73.26Z"/><path class="cls-27" d="M466.14,103.46c.28-1,5.2-4.51,5.2-4.51l1.38,1.74,1.18,4.55,6.28,1.93h0s-.34,3.11-5.45,2.75-5.72-4.28-5.72-4.28-.56,1.28-3.08,1.62A13.63,13.63,0,0,1,466.14,103.46Z"/><path class="cls-33" d="M481.34,79.38l.87,2.19s4.16,3.56,5.35,4.85a24.82,24.82,0,0,0-2.44,8,27.35,27.35,0,0,0-2.48,2.24,41,41,0,0,0-2.49,5c-.47,1.08.83,4.32.83,4.32s-1.77,3.23-4.62,3.13a5.09,5.09,0,0,1-5.15-4.88,16.57,16.57,0,0,1-.25-3.5s-1.28,3.75-3.23,3.75-5-3.26-5-3.26-2.08-1.87-1.89-2.71,4.9-8.14,5.16-9.34,1.31-5.51,1.31-5.51l4.43-6.89,2.7.13Z"/><path class="cls-34" d="M476.24,108.4a5,5,0,0,1-5.07-4.51c0,.13,0,.26,0,.4a5.09,5.09,0,0,0,5.15,4.88c2.85.1,4.62-3.13,4.62-3.13l-.22-.6C480.35,106.11,478.7,108.49,476.24,108.4Z"/><path class="cls-35" d="M481.34,79.38a7.51,7.51,0,0,1-.5,2.6c-.52,1.3-2.23,8.61-6.1,11.11l-1.49.93V89.37a17.6,17.6,0,0,1,.69-4.68,13.3,13.3,0,0,0,.64-4s1.09-.3,1.09-.28S481.34,79.38,481.34,79.38Z"/><path class="cls-32" d="M476.57,82.78s-.68.27-1-.17a3.18,3.18,0,0,1-.52-1.75s-1.83.09-2.19-.86a1.54,1.54,0,0,1,.09-1.49,7.07,7.07,0,0,1,.35-1.63l0-.25s-.37-.31-.2-.64,1.17-1.37,1.27-1.54,0-1.46.36-2.1a14.75,14.75,0,0,1,1.15-1.52s3.9-3,7,0-1.56,8.55-1.56,8.55a5.18,5.18,0,0,1-1.26,2.5C479.18,82.59,476.57,82.78,476.57,82.78Z"/><path class="cls-36" d="M479.43,75.44a.7.7,0,0,1,.05-.32,1.6,1.6,0,0,0-.63-1.9c-1.18-.84-3.24-1.6-3.18-2.44S479,67.84,481.41,69s4.67,4,3,6.94-3.1,3.48-3.1,3.48-.49-.1,0-.6,1.24-1.75.58-2.15-1.82.46-2,.65a1.56,1.56,0,0,0-.17.25.33.33,0,0,1-.42.13l-.05,0a.32.32,0,0,1-.17-.4l.29-.77a1.13,1.13,0,0,0,.06-.36Z"/><path class="cls-37" d="M476.67,83.62a4.56,4.56,0,0,1,1.38,1.78,6.33,6.33,0,0,0-1.45-1.14s-1,.48-1,.79a20.52,20.52,0,0,1-.33,3.24,35.59,35.59,0,0,0-.21,4.6l-.65.43-.31-1.58.12-3.35.6-3a12.07,12.07,0,0,1,.16-1.22C475,84.06,476.67,83.62,476.67,83.62Z"/><path class="cls-28" d="M476.67,83.62s-1-1-1.49-1.07a.85.85,0,0,0-.78.31c0,.06-.48,1.69-.48,1.69a20.12,20.12,0,0,0-.84,6.18,19.1,19.1,0,0,0,.17,3.29l1.23-.77a15.24,15.24,0,0,1,.34-5.13c.67-2.75.08-3.16.4-3.45S476.83,84,476.67,83.62Z"/><path class="cls-28" d="M482.64,96.67a40.3,40.3,0,0,0-2.46,5,1.48,1.48,0,0,0-.13.67l-.19.12-.62-.6s.56-2,1.45-4.46,4.43-3,4.43-3A27.35,27.35,0,0,0,482.64,96.67Z"/><path class="cls-32" d="M481.68,102.77a11.37,11.37,0,0,0-1.33-1.65s.08.41-.5.67-3.59,1.4-3.69,1.54,0,.3.2.34a4,4,0,0,1-.88.2c-.26,0-.6.32-.43.6s.32.25.32.25-.08.3.11.37a2.74,2.74,0,0,0,.63.08s-.09.31.16.43a9.54,9.54,0,0,0,1.47.25s1-.1,1.23-.1a15.91,15.91,0,0,0,2,.22,17.33,17.33,0,0,0,2.45-.79C483.64,105.08,481.68,102.77,481.68,102.77Z"/><path class="cls-28" d="M482.4,82.29l-.12,2-1.08.33.72.58s-2.9,6.54-6.61,8.6c0,0,3.54-1.24,6.89-8.54l-.46-.53.74-.32Z"/><path class="cls-28" d="M472.92,82.08s-1.32,6.66-.2,11.68c0,0-1.35-2.41-.13-11.68Z"/><path class="cls-38" d="M443.25,72.34a2.26,2.26,0,0,1,.67-.51s1.4.56,1.64.68C445.56,72.51,444.13,72.36,443.25,72.34Z"/><path class="cls-38" d="M451.3,76.08a5.8,5.8,0,0,1-.52-.31h0c.93-1.24-.09-3-.09-3C452.75,73.53,451.41,76.12,451.3,76.08Z"/><path class="cls-38" d="M483.46,105.18a16.87,16.87,0,0,1-1.84.64,9.65,9.65,0,0,1-.36-2.4c.1-.61.36-.75.36-.75l.06.1S483.64,105.08,483.46,105.18Z"/><path class="cls-31" d="M481.68,102.68a2.09,2.09,0,0,0,.4,1.85l.8.91h.81a8.05,8.05,0,0,0,.36-1.3Z"/><path class="cls-28" d="M474.07,84h0a38,38,0,0,0-.61,6.24,27.84,27.84,0,0,1,.11,3.49l-.24.22-.08,0a19.1,19.1,0,0,1-.17-3.29,20.12,20.12,0,0,1,.84-6.18S474,84.32,474.07,84Z"/><path class="cls-27" d="M473.81,131.43a4.1,4.1,0,0,1-.7-.51,34.93,34.93,0,0,0,1.41-7.23,21.89,21.89,0,0,1-1.5-4.46,34.29,34.29,0,0,1,2,5C475.59,126.52,473.81,131.43,473.81,131.43Z"/><path class="cls-38" d="M479.54,78.64h0Z"/><path class="cls-38" d="M479.54,78.64a6.72,6.72,0,0,1-1,2.51c-.69.79-1.22,1.55-1.22,1.55l-.73.08s-.68.27-1-.17a3.18,3.18,0,0,1-.52-1.75,10.19,10.19,0,0,0,3.41-.9A2.34,2.34,0,0,0,479.54,78.64Z"/><path class="cls-39" d="M480.43,101.14a2.25,2.25,0,0,1-.16.3s0-.22,0-.22l.11-.22A1.21,1.21,0,0,1,480.43,101.14Z"/><path class="cls-28" d="M473.25,94s-1.72,5.45-2.29,6.77l0,1.31S473.18,95.33,473.25,94Z"/><path class="cls-28" d="M471.59,96a.58.58,0,0,0,.36.74.6.6,0,0,0,.72-.41.57.57,0,1,0-1.08-.33Z"/><path class="cls-28" d="M470.71,98.31a.57.57,0,1,0,1.08.33.58.58,0,0,0-.36-.74A.59.59,0,0,0,470.71,98.31Z"/><path class="cls-40" d="M479.38,76.46a1.13,1.13,0,0,0,.06-.36v-.66a.7.7,0,0,1,.05-.32,2.34,2.34,0,0,0,.09-.41s2.68,1.94,4.38,2c-1.43,2.27-2.61,2.66-2.61,2.66s-.49-.1,0-.6,1.24-1.75.58-2.15-1.82.46-2,.65a1.56,1.56,0,0,0-.17.25.33.33,0,0,1-.42.13l-.05,0a.32.32,0,0,1-.17-.4Z"/><path class="cls-27" d="M484.46,147.67a14.46,14.46,0,0,1-2.39.34c-1.17.05-4.36.68-4.28,1.86s1.75,2.88,3.83,3.13,4.78-.34,6.15-.31a1.89,1.89,0,0,0,1.76-2.66C489,148.72,484.46,147.67,484.46,147.67Z"/><path class="cls-27" d="M491.5,144.5s.45.72.23,1.15-.8,1.53-2.71.47-5.58-2.54-5.58-2.54-2.1-1.11-2-2.41,2.06-1.11,2.06-1.11Z"/><path class="cls-28" d="M479.1,126s.81,8.48,2.54,11.7,2.23,9.25,2.6,10.39a4.7,4.7,0,0,0,3.29,3.15c1.79.35,2.09-.85,2-1.57a24.74,24.74,0,0,1-.59-2.67,7.71,7.71,0,0,1,.2-1.5s2.05.59,2.36-1a4.61,4.61,0,0,1-.19-.69c0-.23.17-5.91.22-6.6a28.73,28.73,0,0,0-.89-6.23,22.71,22.71,0,0,1-.38-5.67l-5.83-.8Z"/><path class="cls-41" d="M490.64,131a22.71,22.71,0,0,1-.38-5.67l-.51-.07a22.19,22.19,0,0,0,.38,5.59,29.15,29.15,0,0,1,.88,6.22c-.05.69-.26,6.37-.23,6.6a3.86,3.86,0,0,0,.19.69c-.31,1.57-2.36,1-2.36,1a8.35,8.35,0,0,0-.21,1.5c0,.78.5,1.95.59,2.67s-.21,1.92-2,1.57l-.16,0a3.33,3.33,0,0,0,.7.21c1.79.35,2.09-.85,2-1.57a24.74,24.74,0,0,1-.59-2.67,8.55,8.55,0,0,1,.2-1.57s2.05.66,2.36-.91a4.61,4.61,0,0,1-.19-.69c0-.23.17-5.91.22-6.6A28.73,28.73,0,0,0,490.64,131Z"/><path class="cls-27" d="M488.53,125.93a6.43,6.43,0,0,1-.58,2.44,46,46,0,0,1-.46,6.79s.76,4.58,1.24,6a17.58,17.58,0,0,1,.41,4.29,2.32,2.32,0,0,0,.57.1c.33,0,.36-5.61-.16-6.6a20.49,20.49,0,0,1-.7-6.7c.19-1.32.12-5.12.38-5.79a.85.85,0,0,0-.32-1Z"/><path class="cls-27" d="M483.62,95.32A4.18,4.18,0,0,0,482,98.63l1.26-.27S482.9,96,483.62,95.32Z"/><path class="cls-27" d="M484.28,127.78a9.5,9.5,0,0,0,6-1.58c0-.54,0-.89,0-.89l-5.83-.8L479.1,126s.16,1.67.49,3.81c1,.1,1.88-2.2,1.88-2.2l2.66.17S480.42,127.66,484.28,127.78Z"/><path class="cls-33" d="M479.85,126.1s8.41,3.4,12.47-3a1.06,1.06,0,0,0,.16-.63l-.05-1.5a1.77,1.77,0,0,1,.08-.56h0a2.43,2.43,0,0,0,.09-1.2c-.32-1.67-1.17-6.23-1.37-7.5-.24-1.54.58-7.71,2-10.39s-2.16-8.56-2.16-8.56a2.28,2.28,0,0,0-2.56-.91s1.62,1.12.73,2.3-3.55,2.14-3.55,2.14-4.91,2.52-6.59,5.59a12.59,12.59,0,0,0-.63,3.61c-.05,2,.17,6.94.09,7.62s-.35,5.35-.32,5.57S479.85,126.1,479.85,126.1Z"/><path class="cls-42" d="M489.28,92.66a1.14,1.14,0,0,0,0-.94,2.66,2.66,0,0,0-.76.09A3.07,3.07,0,0,1,489.28,92.66Z"/><path class="cls-28" d="M482.4,126.8s5-13.22,4.71-18-7.22,9.48-7.22,9.48l0,7.84A15.63,15.63,0,0,0,482.4,126.8Z"/><path class="cls-43" d="M492.38,119.08a1.67,1.67,0,0,0-.09.55l.06,1.49a1.15,1.15,0,0,1-.17.63c-4.05,6.39-12.43,3-12.43,3s-1.15-5.2-1.51-6.88c0,.41,0,.7,0,.75,0,.21,1.63,7.46,1.63,7.46s8.41,3.4,12.47-3a1.06,1.06,0,0,0,.16-.63l-.05-1.5a1.77,1.77,0,0,1,.08-.56,2.43,2.43,0,0,0,.09-1.2l-.12-.61A3.18,3.18,0,0,1,492.38,119.08Z"/><path class="cls-44" d="M493.07,100.11c-1.39,2.66-2.21,8.79-2,10.33q0,.21.09.54c0-2.21.78-7.33,2-9.7a4.47,4.47,0,0,0,.17-2.8A3.28,3.28,0,0,1,493.07,100.11Z"/><path class="cls-31" d="M479.73,111.18a20.86,20.86,0,0,0,.29-3.24c0-1.88.56-5,4-4.46,4.86.77,2.78,7.5,2.25,8.68s-2.67,6.52-2.78,6.82a92.26,92.26,0,0,1-4.67,8.55.31.31,0,0,1-.44,0c-.48-.41-1.58-1.39-1.72-2a15.54,15.54,0,0,1,.52-3.68s1.89-7.2,2.05-7.54S479.44,112.93,479.73,111.18Z"/><path class="cls-32" d="M483.71,95.48a1.72,1.72,0,0,0-1.28-1c-.89-.09-1.4-.34-1.49-.66a6,6,0,0,0-.31-1.21,9,9,0,0,1-.4-1.71s-.67-.23-.7-.52.32-1.35.28-1.43a2.71,2.71,0,0,1-.36-1.23,6.21,6.21,0,0,1,.39-1.84c.27-.61,2.16-4.34,7.08-2.42s1.19,6.07,1.68,8.74c0,0,.44.56-.37,1.52S485.06,94.93,483.71,95.48Z"/><path class="cls-38" d="M488.23,93.76c.81-1,.37-1.52.37-1.52a3.66,3.66,0,0,1,0-1.19l-1.95.37s-2.87-2.53-2.67-1.18-.49,1.6-.49,1.6l.59.74c.15.19.06.42-.06.63-.82,1.39-2.81,1-2.82,1a2.94,2.94,0,0,0,1.22.34,1.72,1.72,0,0,1,1.28,1C485.06,94.93,487.42,94.72,488.23,93.76Z"/><path class="cls-36" d="M479.63,84.5s-.35,1,.21,1.42,1.06.82,1.06.82V88a1,1,0,0,0,.15.52l.7,1.07a1.2,1.2,0,0,1,.21.69v.52a.3.3,0,0,0,.26.3l.18,0a.3.3,0,0,0,.33-.27l.08-.72s.37-.58,1.17.11l.73.3a.78.78,0,0,1,.44.45,5.12,5.12,0,0,0,1,1.83c.44.24,2.14-.63,2.37-1s.8-3,1.16-4.17.14-4.22-3.52-5S480.13,83.42,479.63,84.5Z"/><path class="cls-40" d="M488.49,91.81c.23-.39.8-3,1.16-4.17a9.12,9.12,0,0,1-3.26,1.21c-1.84.28-5.49-1.77-5.49-1.77V88a1,1,0,0,0,.15.52l.7,1.07a1.2,1.2,0,0,1,.21.69v.52a.3.3,0,0,0,.26.3l.18,0a.3.3,0,0,0,.33-.27l.08-.72s.37-.58,1.17.11l1.05.43s.64,1.9,1.08,2.15S488.26,92.19,488.49,91.81Z"/><path class="cls-35" d="M488.56,91.93s1.43.87.72,2.1-5.88,3.44-6.14,3.76c0,0-.2-1.84.48-2.47,0,0,4-.76,4.57-1.76A2,2,0,0,0,488.56,91.93Z"/><path class="cls-37" d="M488.56,91.93a2,2,0,0,1-.37,1.63c-.46.76-2.84,1.38-4,1.64h0a4,4,0,0,1,1.12,1.42c1.59-.82,3.52-1.87,3.94-2.59C490,92.8,488.56,91.93,488.56,91.93Z"/><path class="cls-28" d="M489.53,95.87s-2.3,1.3-3.43,1.89-2.35,1.38-2.35,1.38l-.43-.43-.51,1.13a15,15,0,0,0-2.6,1.92,8.76,8.76,0,0,0-1.54,2.29s2.2-2.86,3.94-3.71l.47-.24.26-.89.43.45A58.72,58.72,0,0,0,489.53,95.87Z"/><path class="cls-45" d="M483.59,134.47h0a1.11,1.11,0,0,0-.3-.49l-9.47-7.86c-.25-.21-.49-.05-.54.35l-1.1,9.15a1.45,1.45,0,0,0,.36,1.16l7.95,6.79-.27,2.65,2.37-1.08h0a.55.55,0,0,0,.21-.45l.88-9.55A1.49,1.49,0,0,0,483.59,134.47Z"/><path class="cls-33" d="M471.24,127l2.24-1,.07,0a.34.34,0,0,1,.27.09l9.47,7.86a1.13,1.13,0,0,1,.3.48l-.34.17h0l-1.92.92-8.3-7h0Z"/><path class="cls-28" d="M470.22,137.8l9.67,8.34c.27.23.52.05.56-.39l.94-9.61A1.46,1.46,0,0,0,481,135l-9.44-7.9c-.25-.21-.49,0-.55.36l-1.16,9.19A1.45,1.45,0,0,0,470.22,137.8Z"/><path class="cls-27" d="M481.66,145.19l.91-9.58a1.49,1.49,0,0,0-.4-1.16l-9.45-7.87a.34.34,0,0,0-.23-.09.3.3,0,0,1,.31.07l9.45,7.88a1.46,1.46,0,0,1,.4,1.15l-.91,9.58c0,.3-.15.49-.32.5C481.55,145.62,481.63,145.44,481.66,145.19Z"/><path class="cls-27" d="M478.19,131.08l.49-.24a.47.47,0,0,1,.31-.06h0c.05,0,.08.06.07.14V131l-1.39.69v-.09a.37.37,0,0,1,.1-.23l.05,0A1.3,1.3,0,0,1,478.19,131.08Z"/><polygon class="cls-27" points="478.37 132.26 477.7 131.71 479.08 130.82 479.74 131.37 478.37 132.26"/><path class="cls-46" d="M478.86,131.64l.49-.25a.51.51,0,0,1,.31,0h0c.05,0,.08.06.07.13v.09l-1.39.69v-.09a.42.42,0,0,1,.11-.22l0,0A1,1,0,0,1,478.86,131.64Z"/><polygon class="cls-47" points="479.15 131.87 479.2 131.47 479.15 131.49 479.11 131.89 479.15 131.87"/><polygon class="cls-47" points="479.2 131.47 478.51 130.92 478.47 130.94 479.15 131.49 479.2 131.47"/><path class="cls-27" d="M475.18,128.58l.5-.24a.42.42,0,0,1,.3-.05h0c.05,0,.08.07.07.14v.09l-1.39.68v-.09a.42.42,0,0,1,.11-.22l0,0A1.07,1.07,0,0,1,475.18,128.58Z"/><polygon class="cls-27" points="475.35 129.75 474.69 129.2 476.07 128.32 476.72 128.86 475.35 129.75"/><path class="cls-48" d="M475.84,129.13l.5-.24a.43.43,0,0,1,.3-.06h0c.05,0,.08.07.07.14v.09l-1.39.68v-.09a.42.42,0,0,1,.11-.22l0-.05A1.07,1.07,0,0,1,475.84,129.13Z"/><polygon class="cls-47" points="476.14 129.36 476.18 128.96 476.14 128.99 476.09 129.38 476.14 129.36"/><polygon class="cls-47" points="476.18 128.97 475.5 128.43 475.47 128.44 476.14 128.99 476.18 128.97"/><path class="cls-33" d="M479.46,129.55l-.18,1.71-.44-.37.17-1.66a.86.86,0,0,0-.27-.7l-1.92-1.59c-.17-.14-.34-.06-.36.18l-.19,1.64-.44-.37.19-1.68c.06-.53.42-.7.8-.39l2.05,1.7A1.92,1.92,0,0,1,479.46,129.55Z"/><path class="cls-33" d="M476.14,126.83l.8-.08,2.29,2.11.1,1.31-.05,1.09-.51.25,0-1.36,0-.93-.48-.67s-.86-.69-.87-.71S476.14,126.83,476.14,126.83Z"/><polygon class="cls-33" points="475.76 129.01 476.27 128.76 476.41 127.55 475.92 127.59 475.77 127.61 475.76 129.01"/><polygon class="cls-33" points="475.78 126.45 476.33 126.19 476.18 126.48 476 126.54 475.78 126.45"/><path class="cls-27" d="M479,129.81l-.18,1.7-.45-.37.18-1.66a.86.86,0,0,0-.27-.7l-1.92-1.59c-.17-.14-.34-.06-.36.17l-.19,1.65-.44-.37.19-1.68c.06-.53.42-.7.8-.39l2.05,1.7A1.93,1.93,0,0,1,479,129.81Z"/><path class="cls-32" d="M476.8,125.51a10.43,10.43,0,0,0-.24,2.08A2.83,2.83,0,0,0,478,129c.49.15.29-.43.4-.79a5.07,5.07,0,0,0,.09-1.14Z"/><path class="cls-38" d="M478.44,127l-1.64-1.53s-.07.34-.13.75a4.05,4.05,0,0,0,1.72,1.73A6.93,6.93,0,0,0,478.44,127Z"/><path class="cls-31" d="M476.68,125.63s.58,1.8,2,2l-.49-2-1.27-.35A2.06,2.06,0,0,0,476.68,125.63Z"/><path class="cls-49" d="M486.15,104.54c1.35,4.06-2,10.38-2.51,12.22S478,127.25,478,127.25h0l-.05.09a2.77,2.77,0,0,0,.34.22,1,1,0,0,0,.23.09h0a.28.28,0,0,0,.29-.12,92.26,92.26,0,0,0,4.67-8.55c.11-.3,2.24-5.64,2.78-6.82C486.7,111.22,488.12,106.67,486.15,104.54Z"/><path class="cls-50" d="M431.29,143.63a2,2,0,0,1-1-.22l-21.51-12.28a.75.75,0,0,1-.43-.64,1,1,0,0,1,.57-.79l21.22-12.12a2.42,2.42,0,0,1,2.17-.08l21.51,12.28a.75.75,0,0,1,.43.64,1,1,0,0,1-.57.79l-21.22,12.11A2.41,2.41,0,0,1,431.29,143.63Zm-.79-.51a2.1,2.1,0,0,0,1.84-.08l21.22-12.12c.26-.14.41-.33.41-.5a.42.42,0,0,0-.26-.35L432.2,117.79a2.1,2.1,0,0,0-1.84.08L409.14,130c-.26.15-.41.34-.41.51s.15.28.27.35Z"/><polygon class="cls-51" points="454.14 121.47 454.14 124.08 431.3 137.12 408.45 124.08 408.45 121.47 454.14 121.47"/><polygon class="cls-52" points="431.3 134.51 408.45 121.47 431.3 108.43 454.14 121.47 431.3 134.51"/><polygon class="cls-5" points="431.3 134.2 408.72 121.32 408.45 121.47 431.3 134.51 454.14 121.47 453.87 121.32 431.3 134.2"/><polygon class="cls-53" points="431.3 131.5 413.73 121.47 431.3 111.44 448.86 121.47 431.3 131.5"/><polygon class="cls-54" points="431.3 131.5 413.73 121.47 431.3 111.44 448.86 121.47 431.3 131.5"/><polygon class="cls-55" points="431.3 108.91 448.86 118.94 448.86 121.47 431.3 111.44 431.3 108.91"/><polygon class="cls-56" points="431.3 111.44 413.73 121.47 413.73 118.94 431.3 108.91 431.3 111.44"/><polygon class="cls-57" points="431.3 128.97 413.73 118.94 431.3 108.91 448.86 118.94 431.3 128.97"/><polygon class="cls-7" points="431.3 122.95 424.28 118.94 431.3 114.94 438.32 118.94 431.3 122.95"/><polygon class="cls-7" points="431.3 115.3 437.99 119.13 438.32 118.94 431.3 114.94 424.28 118.94 424.6 119.13 431.3 115.3"/><polygon class="cls-58" points="431.3 128.97 431.3 131.5 448.86 121.47 448.86 118.94 431.3 128.97"/><polygon class="cls-59" points="413.73 118.94 413.73 121.47 431.3 131.5 431.3 128.97 413.73 118.94"/><polygon class="cls-60" points="431.3 128.7 413.97 118.81 413.73 118.94 431.3 128.97 448.86 118.94 448.62 118.81 431.3 128.7"/><path class="cls-50" d="M431.29,202.87a2,2,0,0,1-1-.22l-21.51-12.28a.75.75,0,0,1-.43-.64,1,1,0,0,1,.57-.79l21.22-12.12a2.42,2.42,0,0,1,2.17-.08L453.87,189a.75.75,0,0,1,.43.64,1,1,0,0,1-.57.79l-21.22,12.11A2.51,2.51,0,0,1,431.29,202.87Zm-.79-.51a2.1,2.1,0,0,0,1.84-.08l21.22-12.12c.26-.14.41-.33.41-.5a.45.45,0,0,0-.26-.36L432.2,177a2.07,2.07,0,0,0-1.84.08l-21.22,12.11c-.26.15-.41.34-.41.51s.15.28.27.35Z"/><polygon class="cls-61" points="454.14 180.71 454.14 183.32 431.3 196.36 408.45 183.32 408.45 180.71 454.14 180.71"/><polygon class="cls-52" points="431.3 193.75 408.45 180.71 431.3 167.67 454.14 180.71 431.3 193.75"/><polygon class="cls-5" points="431.3 193.44 408.72 180.56 408.45 180.71 431.3 193.75 454.14 180.71 453.87 180.56 431.3 193.44"/><polygon class="cls-53" points="431.3 190.74 413.73 180.71 431.3 170.68 448.86 180.71 431.3 190.74"/><polygon class="cls-62" points="431.3 190.74 413.73 180.71 431.3 170.68 448.86 180.71 431.3 190.74"/><polygon class="cls-63" points="431.3 168.15 448.86 178.18 448.86 180.71 431.3 170.68 431.3 168.15"/><polygon class="cls-64" points="431.3 170.68 413.73 180.71 413.73 178.18 431.3 168.15 431.3 170.68"/><polygon class="cls-65" points="431.3 188.21 413.73 178.18 431.3 168.15 448.86 178.18 431.3 188.21"/><polygon class="cls-7" points="431.3 182.19 424.28 178.18 431.3 174.18 438.32 178.18 431.3 182.19"/><polygon class="cls-7" points="431.3 174.54 437.99 178.37 438.32 178.18 431.3 174.18 424.28 178.18 424.6 178.37 431.3 174.54"/><polygon class="cls-66" points="431.3 188.21 431.3 190.74 448.86 180.71 448.86 178.18 431.3 188.21"/><polygon class="cls-67" points="413.73 178.18 413.73 180.71 431.3 190.74 431.3 188.21 413.73 178.18"/><polygon class="cls-60" points="431.3 187.94 413.97 178.04 413.73 178.18 431.3 188.21 448.86 178.18 448.62 178.04 431.3 187.94"/><path class="cls-50" d="M522.85,143.63a2.09,2.09,0,0,1-1-.22l-21.5-12.28a.75.75,0,0,1-.43-.64,1,1,0,0,1,.57-.79l21.22-12.12a2.42,2.42,0,0,1,2.17-.08l21.51,12.28a.75.75,0,0,1,.43.64,1,1,0,0,1-.57.79l-21.22,12.11A2.46,2.46,0,0,1,522.85,143.63Zm-.79-.51a2.1,2.1,0,0,0,1.84-.08l21.22-12.12c.26-.14.41-.33.41-.5a.43.43,0,0,0-.27-.35l-21.5-12.28a2.1,2.1,0,0,0-1.84.08L500.7,130c-.26.15-.41.34-.41.51a.44.44,0,0,0,.26.35Z"/><polygon class="cls-68" points="545.69 121.47 545.69 124.08 522.85 137.12 500.01 124.08 500.01 121.47 545.69 121.47"/><polygon class="cls-52" points="522.85 134.51 500.01 121.47 522.85 108.43 545.69 121.47 522.85 134.51"/><polygon class="cls-5" points="522.85 134.2 500.28 121.32 500.01 121.47 522.85 134.51 545.69 121.47 545.43 121.32 522.85 134.2"/><polygon class="cls-53" points="522.85 131.5 505.28 121.47 522.85 111.44 540.42 121.47 522.85 131.5"/><polygon class="cls-69" points="522.85 131.5 505.28 121.47 522.85 111.44 540.42 121.47 522.85 131.5"/><polygon class="cls-70" points="522.85 108.91 540.42 118.94 540.42 121.47 522.85 111.44 522.85 108.91"/><polygon class="cls-71" points="522.85 111.44 505.28 121.47 505.28 118.94 522.85 108.91 522.85 111.44"/><polygon class="cls-72" points="522.85 128.97 505.28 118.94 522.85 108.91 540.42 118.94 522.85 128.97"/><polygon class="cls-7" points="522.85 122.95 515.83 118.94 522.85 114.94 529.87 118.94 522.85 122.95"/><polygon class="cls-7" points="522.85 115.3 529.55 119.13 529.87 118.94 522.85 114.94 515.83 118.94 516.16 119.13 522.85 115.3"/><polygon class="cls-73" points="522.85 128.97 522.85 131.5 540.42 121.47 540.42 118.94 522.85 128.97"/><polygon class="cls-74" points="505.28 118.94 505.28 121.47 522.85 131.5 522.85 128.97 505.28 118.94"/><polygon class="cls-60" points="522.85 128.7 505.53 118.81 505.28 118.94 522.85 128.97 540.42 118.94 540.18 118.81 522.85 128.7"/><path class="cls-50" d="M522.85,202.87a2.09,2.09,0,0,1-1-.22l-21.5-12.28a.75.75,0,0,1-.43-.64,1,1,0,0,1,.57-.79l21.22-12.12a2.42,2.42,0,0,1,2.17-.08L545.43,189a.75.75,0,0,1,.43.64,1,1,0,0,1-.57.79l-21.22,12.11A2.57,2.57,0,0,1,522.85,202.87Zm-.79-.51a2.1,2.1,0,0,0,1.84-.08l21.22-12.12c.26-.14.41-.33.41-.5a.46.46,0,0,0-.27-.36L523.76,177a2.07,2.07,0,0,0-1.84.08L500.7,189.22c-.26.15-.41.34-.41.51a.44.44,0,0,0,.26.35Z"/><polygon class="cls-75" points="545.69 180.71 545.69 183.32 522.85 196.36 500.01 183.32 500.01 180.71 545.69 180.71"/><polygon class="cls-52" points="522.85 193.75 500.01 180.71 522.85 167.67 545.69 180.71 522.85 193.75"/><polygon class="cls-5" points="522.85 193.44 500.28 180.56 500.01 180.71 522.85 193.75 545.69 180.71 545.43 180.56 522.85 193.44"/><polygon class="cls-53" points="522.85 190.74 505.28 180.71 522.85 170.68 540.42 180.71 522.85 190.74"/><polygon class="cls-76" points="522.85 190.74 505.28 180.71 522.85 170.68 540.42 180.71 522.85 190.74"/><polygon class="cls-77" points="522.85 168.15 540.42 178.18 540.42 180.71 522.85 170.68 522.85 168.15"/><polygon class="cls-78" points="522.85 170.68 505.28 180.71 505.28 178.18 522.85 168.15 522.85 170.68"/><polygon class="cls-79" points="522.85 188.21 505.28 178.18 522.85 168.15 540.42 178.18 522.85 188.21"/><polygon class="cls-7" points="522.85 182.19 515.83 178.18 522.85 174.18 529.87 178.18 522.85 182.19"/><polygon class="cls-7" points="522.85 174.54 529.55 178.37 529.87 178.18 522.85 174.18 515.83 178.18 516.16 178.37 522.85 174.54"/><polygon class="cls-80" points="522.85 188.21 522.85 190.74 540.42 180.71 540.42 178.18 522.85 188.21"/><polygon class="cls-81" points="505.28 178.18 505.28 180.71 522.85 190.74 522.85 188.21 505.28 178.18"/><polygon class="cls-60" points="522.85 187.94 505.53 178.04 505.28 178.18 522.85 188.21 540.42 178.18 540.18 178.04 522.85 187.94"/><g class="cls-8"><path class="cls-82" d="M412.15,56.13c15.78-4.7,25.17,13,16,30-7.83,14.46-26.9,24.91-31.89,9.72-2.94-8.94-.51-30.84,14.42-39.11-4,2.06-7,5-9.87,9.73,5.51,6.7,6,7.25,10.71,12.65C417.1,66,417.56,64.93,421.72,56a13.71,13.71,0,0,0-9.57.09Zm-1.11.45-.36.17.36-.17Zm.8-.33.27-.1-.27.1Zm-.37.15-.37.16.37-.16Zm0,0,.3-.12-.3.12Z"/><path class="cls-6" d="M385.46,72.9q1.4-1.44,3-2.82v45.51q-1.57,1.38-3,2.82V72.9Z"/><path class="cls-6" d="M380.73,94.83a35,35,0,0,1,2.17-3v29.51a33.53,33.53,0,0,0-2.17,3V94.83Z"/><path class="cls-82" d="M376.5,129.13l.05.11.06-3-.11-.16v3Zm0,8.8V92.42c0-.29,0-.58,0-.87a23.42,23.42,0,0,1,1.08-6.13v45.51a23.35,23.35,0,0,0-1.08,6.13c0,.29,0,.58,0,.87Z"/><polygon class="cls-6" points="376.5 129.13 376.55 129.24 376.61 126.25 376.5 126.09 376.5 129.13 376.5 129.13"/><path class="cls-6" d="M410.68,56.75l-.05,0,.05,0Zm1.43-.6,0,0,0,0Zm-1,.41-.06,0,.06,0Zm.67-.28h.07l-.07,0Z"/><path class="cls-6" d="M411.47,56.4A13.64,13.64,0,0,1,421.72,56c-5.89,12.82-6.5,14.16-10.25,23.11-5.8-6.66-6.69-7.69-10.71-12.65,1.14-1.87,4.6-7.55,10.71-10.1Z"/><path class="cls-82" d="M448,168.34c-4.74,1.39-7.78-1.45-8.89-2.29-8.69-7.28-16.3-16.16-25-23.4-2.58-2.14-4.16-1.26-5.05-1-16.27,6.38-16.27,6.38-18.87,2.48-4.78-8.36-5-9-7.16-14.26-.51-1.2-2.23-3-3-2.91-3.65,1-3.16,1.76-3.5,2.19v-3c4.3-1.64,4.75-1.84,6.5,2.12,8,16.86,9.44,16.49,11.32,16,17.11-6.77,16.9-6.28,21.26-1.79,7.55,7.77,22.76,22.89,27.46,24.09a16.41,16.41,0,0,0,5.1-.36c16.52-5.47,23.07-8.91,39.24-15.8l1.45,2.33c-6,2.58-24.07,9.61-40.72,14.8Zm51.64,18.35V141.18c-5.08.29-10.27.41-15.54.37-59.81-.47-107.59-22.38-107.59-49.13v45.51c0,26.75,47.78,48.66,107.59,49.13,5.27,0,10.46-.08,15.54-.37Z"/><path class="cls-6" d="M448,168.34c-4.26,1.08-8.29,2.1-33.34-24.55-3.17-3.15-3.17-3.15-19.44,3.26-1.85.44-4.64,1.11-12.33-17-2.38-5.36-6.34-.94-6.38-.89v-3a10.62,10.62,0,0,1,3.46-1.37,1.57,1.57,0,0,1,1.11.09c.54.28,1.09.91,2,2.91,4.43,9.33,4.43,9.33,7.62,14.44,1.88,2.76,1.88,2.76,17.16-3.24,1-.27,3.21-.85,6.48,1.73,9.2,7.25,16.69,16.33,25.77,23.71,3.4,2.39,5.46,3.84,47.24-14l1.45,2.33c-6,2.58-24.19,10.43-40.84,15.61Z"/></g></g></g></g></svg>