<svg xmlns="http://www.w3.org/2000/svg" xmlns:xlink="http://www.w3.org/1999/xlink" viewBox="0 0 581.47 437.9"><defs><style>.cls-1{fill:none;}.cls-2{fill:url(#radial-gradient);}.cls-3{clip-path:url(#clip-path);}.cls-4{fill:#c4c4c4;}.cls-5{fill:#231f20;}</style><radialGradient id="radial-gradient" cx="260.42" cy="226.63" r="514.56" gradientUnits="userSpaceOnUse"><stop offset="0.12" stop-color="#fff"/><stop offset="0.36" stop-color="#f8f8f8"/><stop offset="0.68" stop-color="#e6e6e6"/><stop offset="1" stop-color="#cecece"/></radialGradient><clipPath id="clip-path"><rect class="cls-1" x="0.5" y="142.68" width="576" height="288"/></clipPath></defs><title>Asset 1</title><g id="Layer_2" data-name="Layer 2"><g id="Layer_1-2" data-name="Layer 1"><rect class="cls-2" y="144.18" width="576" height="288"/><g class="cls-3"><g id="triangle36"><path class="cls-4" d="M581.23,48.19l-56-31L540.3,3.69l41,30.14v-.58l-40.88-30a.24.24,0,0,0-.3,0l-15.5,13.88a.22.22,0,0,0-.08.2.28.28,0,0,0,.12.18l56.56,31.26Z"/></g><g id="triangle36-2" data-name="triangle36"><path class="cls-4" d="M581,90.57,525.65,18l55.58,30.72v-.54L524.9,17.06a.22.22,0,0,0-.29.05.23.23,0,0,0,0,.3L581,91.34Z"/></g><g id="triangle36-3" data-name="triangle36"><path class="cls-4" d="M352.52,437l75.39-34,7.39,34.42h.48l-7.48-34.8a.22.22,0,0,0-.12-.16.2.2,0,0,0-.2,0L351.39,437Z"/></g><g id="triangle36-4" data-name="triangle36"><polygon class="cls-4" points="579.32 422.09 529.86 437.89 531.38 437.9 579.32 422.58 579.32 422.09"/></g><g id="triangle36-5" data-name="triangle36"><path class="cls-4" d="M581.31,33.25,541,3.6l40.5-1.35V1.78L540.28,3.15a.23.23,0,0,0-.22.17.22.22,0,0,0,.09.25L581.3,33.83Z"/></g><g id="triangle36-6" data-name="triangle36"><path class="cls-4" d="M580.45,202.19,525.86,199,570,172.23l10.6,8.25v-.6l-10.44-8.12a.23.23,0,0,0-.26,0L525,199a.24.24,0,0,0-.11.26.23.23,0,0,0,.22.17l55.36,3.27Z"/></g><g id="triangle36-7" data-name="triangle36"><path class="cls-4" d="M175.35,436.08l9-15.34,1.82,15.39h.47L184.73,420a.23.23,0,0,0-.19-.2.25.25,0,0,0-.25.11l-9.48,16.18Z"/></g><g id="triangle36-8" data-name="triangle36"><polygon class="cls-4" points="579.32 422.09 529.86 437.89 531.38 437.9 579.32 422.58 579.32 422.09"/><path class="cls-4" d="M579.34,419.54l-51.86-12.88a.23.23,0,0,0-.28.17l-7.85,31h.48l7.77-30.67L579.33,420Z"/></g><g id="triangle36-9" data-name="triangle36"><path class="cls-4" d="M579.88,312.11l-28.33,16.26-21.39-5.72,49.77-19v-.51l-50.62,19.38a.26.26,0,0,0-.15.24.25.25,0,0,0,.18.21l22.19,5.93h.06a.2.2,0,0,0,.11,0l28.18-16.18Z"/></g><g id="triangle36-10" data-name="triangle36"><path class="cls-4" d="M435.78,437.41,428.39,403,457,413.17l-12.36,24.28h.52l12.38-24.31a.27.27,0,0,0,0-.2.25.25,0,0,0-.14-.13l-29.27-10.38a.22.22,0,0,0-.23,0,.24.24,0,0,0-.07.23l7.45,34.7Z"/></g><g id="triangle36-11" data-name="triangle36"><path class="cls-4" d="M445.17,437.46l12.19-23.94,15.17,24.08h.55l-15.54-24.68a.2.2,0,0,0-.21-.11.24.24,0,0,0-.2.12l-12.48,24.52Z"/></g><g id="triangle36-12" data-name="triangle36"><path class="cls-4" d="M472.53,437.6h.55l-15.11-24,51.66,24.19h1.12l-53.31-25a.23.23,0,0,0-.28.06.26.26,0,0,0,0,.28Z"/></g><g id="triangle36-13" data-name="triangle36"><path class="cls-4" d="M457.24,413.25l52.39,24.53h1.12L458.23,413.2l68.89-6.05-7.77,30.68h.48l7.82-30.9a.23.23,0,0,0,0-.21.26.26,0,0,0-.19-.08l-70.09,6.16a.23.23,0,0,0-.08.44Z"/></g><g id="triangle36-14" data-name="triangle36"><path class="cls-4" d="M186.63,436.14l-1.84-15.65,24.37,15.76H210l-25.41-16.44a.25.25,0,0,0-.25,0,.24.24,0,0,0-.11.23l1.9,16.08Z"/></g><g id="triangle36-15" data-name="triangle36"><path class="cls-4" d="M342.3,278l-.12,0a.27.27,0,0,1-.11-.16l-2.41-11.64a.24.24,0,0,1,.21-.28L399.46,259a.24.24,0,0,1,.26.19.23.23,0,0,1-.16.27L342.37,278Zm-2.12-11.67,2.3,11.13,54.69-17.74Z"/></g><g id="triangle36-16" data-name="triangle36"><path class="cls-4" d="M153.32,436l3.07-33.6,27.79,17.73-9.37,16h.54l9.35-15.94a.24.24,0,0,0-.08-.32l-28.3-18.05a.23.23,0,0,0-.23,0,.23.23,0,0,0-.13.19l-3.11,34Z"/></g><g id="triangle36-17" data-name="triangle36"><path class="cls-4" d="M184.49,420.26a.28.28,0,0,1-.12,0l-28.3-18.06A.21.21,0,0,1,156,402a.26.26,0,0,1,.1-.2l48.32-33.94a.23.23,0,0,1,.28,0,.22.22,0,0,1,.07.26l-20,52a.2.2,0,0,1-.14.13ZM156.62,402l27.76,17.71,19.64-51Z"/></g><g id="triangle36-18" data-name="triangle36"><path class="cls-4" d="M270.28,421.62h0l-85.79-1.36a.24.24,0,0,1-.19-.11.22.22,0,0,1,0-.21l20-52a.26.26,0,0,1,.16-.15.23.23,0,0,1,.21,0l65.77,53.37a.22.22,0,0,1,.07.26A.23.23,0,0,1,270.28,421.62Zm-85.44-1.83,84.77,1.35-65-52.73Z"/></g><g id="triangle36-19" data-name="triangle36"><path class="cls-4" d="M209.16,436.25H210l-24.72-16,84.08,1.34-26.88,14.81h1l26.92-14.83a.25.25,0,0,0,.12-.27.23.23,0,0,0-.22-.17l-85.79-1.37h0a.23.23,0,0,0-.23.16.24.24,0,0,0,.1.27Z"/></g><g id="triangle36-20" data-name="triangle36"><path class="cls-4" d="M243.47,436.43,269.62,422l-8.91,14.49h.55l9.22-15a.23.23,0,0,0,0-.28.23.23,0,0,0-.28-.05l-27.66,15.24Z"/></g><g id="triangle36-21" data-name="triangle36"><path class="cls-4" d="M261.26,436.52l9.13-14.85,51.95,15.16h1.71l-53.7-15.68a.24.24,0,0,0-.27.11l-9.37,15.24Z"/></g><g id="triangle36-22" data-name="triangle36"><path class="cls-4" d="M498.66,299.28l-.09,0L399.4,259.45a.25.25,0,0,1-.14-.19.24.24,0,0,1,.08-.21l50.21-41.38a.19.19,0,0,1,.19,0,.25.25,0,0,1,.16.11l49,81.19a.26.26,0,0,1,0,.28A.27.27,0,0,1,498.66,299.28Zm-98.72-40.12,98.16,39.41L449.63,218.2Z"/></g><g id="triangle36-23" data-name="triangle36"><path class="cls-4" d="M498.66,299.28a.22.22,0,0,1-.2-.12l-49-81.19a.25.25,0,0,1,0-.19.24.24,0,0,1,.13-.15l41.14-18.39a.2.2,0,0,1,.21,0,.25.25,0,0,1,.12.18l7.82,99.6a.25.25,0,0,1-.16.24ZM450,218l48.32,80.12-7.72-98.27Z"/></g><g id="triangle36-24" data-name="triangle36"><path class="cls-4" d="M498.66,299.28h0a.24.24,0,0,1-.22-.22l-7.82-99.59a.28.28,0,0,1,.06-.18.23.23,0,0,1,.17-.07l34.26-.3a.44.44,0,0,1,.19.1.23.23,0,0,1,0,.2L498.89,299.1A.24.24,0,0,1,498.66,299.28Zm-7.57-99.6,7.69,98,26-98.25Z"/></g><g id="triangle36-25" data-name="triangle36"><path class="cls-4" d="M579.93,303.09l-50.49,19.34-30.17-23.22L580,290.56v-.47l-81.37,8.72a.25.25,0,0,0-.2.17.25.25,0,0,0,.09.25l30.74,23.65a.24.24,0,0,0,.14.05l.08,0,50.45-19.31Z"/></g><g id="triangle36-26" data-name="triangle36"><path class="cls-4" d="M490.83,199.68a.22.22,0,0,1-.21-.14.23.23,0,0,1,.05-.26l34.12-32.62a.21.21,0,0,1,.25,0,.23.23,0,0,1,.14.22l.15,32.33a.23.23,0,0,1-.24.23l-34.25.29Zm33.89-32.31-33.3,31.84,33.44-.28Z"/></g><g id="triangle36-27" data-name="triangle36"><path class="cls-4" d="M580.77,139.55l-55.59,26.9L525,18l56,73.38v-.77L525,17.12a.24.24,0,0,0-.26-.08.22.22,0,0,0-.16.22l.16,149.57a.24.24,0,0,0,.11.2.28.28,0,0,0,.13,0l.1,0,55.71-27Z"/></g><g id="triangle36-28" data-name="triangle36"><path class="cls-4" d="M525.09,199.39a.2.2,0,0,1-.11,0,.21.21,0,0,1-.12-.2l-.15-32.33a.25.25,0,0,1,.08-.18.3.3,0,0,1,.18-.06l45,5.12a.23.23,0,0,1,.21.18.23.23,0,0,1-.11.25l-44.89,27.22A.24.24,0,0,1,525.09,199.39Zm.09-32.3.14,31.65,43.95-26.64Z"/></g><g id="triangle36-29" data-name="triangle36"><path class="cls-4" d="M580.67,158.87l-10.79,12.82-44.1-5,55-26.62v-.52l-55.92,27.07a.22.22,0,0,0-.13.25.22.22,0,0,0,.2.19l45,5.11h0a.23.23,0,0,0,.18-.09l10.5-12.48Z"/></g><g id="triangle36-30" data-name="triangle36"><path class="cls-4" d="M580.57,177l-10.22-5.09,10.31-12.25v-.74L569.8,171.79a.21.21,0,0,0,0,.2.22.22,0,0,0,.12.16l10.7,5.32Z"/></g><g id="triangle36-31" data-name="triangle36"><path class="cls-4" d="M580.56,179.88,572,173.19l8.6,4.28V177l-10.49-5.22a.23.23,0,0,0-.3.09.25.25,0,0,0,.05.31l10.73,8.34Z"/></g><g id="triangle36-32" data-name="triangle36"><path class="cls-4" d="M270.22,421.61l52.12,15.22H324l-53.13-15.51,94.25-48.52-22.77,64.12h.5l22.91-64.52a.21.21,0,0,0-.06-.25.23.23,0,0,0-.26,0l-95.31,49.06a.25.25,0,0,0-.12.23A.21.21,0,0,0,270.22,421.61Z"/></g><g id="triangle36-33" data-name="triangle36"><path class="cls-4" d="M342.89,436.93l22.83-64.27,61.8,30L351.39,437h1.13l75.65-34.11a.23.23,0,0,0,.14-.21.23.23,0,0,0-.13-.21l-62.49-30.33a.28.28,0,0,0-.2,0,.25.25,0,0,0-.13.14l-23,64.68Z"/></g><g id="triangle36-34" data-name="triangle36"><path class="cls-4" d="M369.66,298.62a.24.24,0,0,1-.14-.05L342.16,278a.23.23,0,0,1-.06-.3.23.23,0,0,1,.28-.1l43.44,15.8a.25.25,0,0,1,.15.23.23.23,0,0,1-.17.22l-16.07,4.8Zm-26-20.09,26,19.6L385,293.56Z"/></g><g id="triangle36-35" data-name="triangle36"><path class="cls-4" d="M385.73,293.82l-.07,0L342.22,278a.25.25,0,0,1-.15-.23.22.22,0,0,1,.16-.22L399.42,259a.22.22,0,0,1,.24.07.25.25,0,0,1,0,.25L386,293.67A.23.23,0,0,1,385.73,293.82Zm-42.71-16,42.58,15.49,13.49-33.67Z"/></g><g id="triangle36-36" data-name="triangle36"><path class="cls-4" d="M365.58,372.57h0a.22.22,0,0,1-.2-.24l4.08-73.95a.22.22,0,0,1,.17-.21l16.07-4.8a.22.22,0,0,1,.23.05.24.24,0,0,1,.06.23l-20.15,78.75A.23.23,0,0,1,365.58,372.57Zm4.31-74L366,370l19.46-76Z"/></g><g id="triangle36-37" data-name="triangle36"><path class="cls-4" d="M498.66,299.28h0l-112.93-5.46a.27.27,0,0,1-.18-.11.22.22,0,0,1,0-.21l13.75-34.36a.27.27,0,0,1,.13-.13.28.28,0,0,1,.18,0l99.17,39.82a.24.24,0,0,1,.14.26A.24.24,0,0,1,498.66,299.28Zm-112.58-5.92,111.2,5.38-97.66-39.21Z"/></g><g id="triangle36-38" data-name="triangle36"><path class="cls-4" d="M399.49,259.46h-.09a.25.25,0,0,1-.14-.19l-11.58-89.61a.24.24,0,0,1,.12-.24.25.25,0,0,1,.26,0l61.78,48.23a.23.23,0,0,1,.09.18.23.23,0,0,1-.09.19l-50.2,41.38A.27.27,0,0,1,399.49,259.46Zm-11.27-89.31,11.45,88.63,49.65-40.93Z"/></g><g id="triangle36-39" data-name="triangle36"><path class="cls-4" d="M449.69,218.08a.19.19,0,0,1-.14-.05L387.77,169.8a.22.22,0,0,1-.09-.21.25.25,0,0,1,.14-.19l53.82-24.15a.26.26,0,0,1,.21,0,.28.28,0,0,1,.12.18l8,72.38a.23.23,0,0,1-.12.23A.27.27,0,0,1,449.69,218.08Zm-61.33-48.41,61,47.65-7.87-71.51Z"/></g><g id="triangle36-40" data-name="triangle36"><path class="cls-4" d="M441.73,145.7h0a.27.27,0,0,1-.19-.18L415.82,38.86a.19.19,0,0,1,0-.18.24.24,0,0,1,.15-.11L524.74,17a.23.23,0,0,1,.24.1.24.24,0,0,1,0,.26L441.93,145.6A.25.25,0,0,1,441.73,145.7ZM416.33,39l25.5,105.89L524.29,17.6Z"/></g><g id="triangle36-41" data-name="triangle36"><path class="cls-4" d="M449.69,218.08a.2.2,0,0,1-.11,0,.23.23,0,0,1-.12-.18l-8-72.38a.24.24,0,0,1,.14-.24.25.25,0,0,1,.27.06l49.1,54a.23.23,0,0,1,.05.21.21.21,0,0,1-.13.16l-41.14,18.4A.16.16,0,0,1,449.69,218.08ZM442,146.16l7.85,71.34,40.55-18.13Z"/></g><g id="triangle36-42" data-name="triangle36"><path class="cls-4" d="M490.83,199.68h0a.24.24,0,0,1-.17-.07l-49.1-54a.24.24,0,0,1,0-.28.23.23,0,0,1,.26-.11L525,166.6a.23.23,0,0,1,.16.17.22.22,0,0,1-.06.23L491,199.62A.27.27,0,0,1,490.83,199.68Zm-48.4-53.79,48.42,53.22L524.48,167Z"/></g><g id="triangle36-43" data-name="triangle36"><path class="cls-4" d="M525,167.06h-.06L441.67,145.7a.26.26,0,0,1-.16-.15.23.23,0,0,1,0-.21l83.05-128.2a.22.22,0,0,1,.26-.1.23.23,0,0,1,.17.22l.16,149.57a.21.21,0,0,1-.09.18A.24.24,0,0,1,525,167.06Zm-82.84-21.74,82.6,21.2-.16-148.46Z"/></g><g id="triangle36-44" data-name="triangle36"><path class="cls-4" d="M365.58,372.57a.24.24,0,0,1-.22-.3l20.15-78.75a.25.25,0,0,1,.14-.16.28.28,0,0,1,.22,0l85.49,59.05a.24.24,0,0,1,.1.24.25.25,0,0,1-.19.19L365.63,372.56Zm20.3-78.6L365.9,372l104.73-19.52Z"/></g><g id="triangle36-45" data-name="triangle36"><path class="cls-4" d="M428.07,402.89l-.1,0-62.49-30.33a.23.23,0,0,1,.06-.44l105.64-19.7a.25.25,0,0,1,.25.12.23.23,0,0,1,0,.27l-43.15,50A.23.23,0,0,1,428.07,402.89Zm-61.74-30.46L428,402.37,470.61,353Z"/></g><g id="triangle36-46" data-name="triangle36"><path class="cls-4" d="M471.23,352.87a.33.33,0,0,1-.14,0L385.6,293.78a.25.25,0,0,1-.09-.27.26.26,0,0,1,.24-.16l112.92,5.46a.22.22,0,0,1,.19.12.24.24,0,0,1,0,.22l-27.43,53.59a.22.22,0,0,1-.16.12Zm-84.68-59,84.59,58.43,27.14-53Z"/></g><g id="triangle36-47" data-name="triangle36"><path class="cls-4" d="M457.34,413.28l-.08,0L428,402.88a.24.24,0,0,1-.15-.16.25.25,0,0,1,0-.22l43.15-50a.24.24,0,0,1,.41.21l-13.89,60.4a.28.28,0,0,1-.12.16A.2.2,0,0,1,457.34,413.28Zm-28.86-10.73,28.69,10.18,13.62-59.22Z"/></g><g id="triangle36-48" data-name="triangle36"><path class="cls-4" d="M457.34,413.28a.26.26,0,0,1-.18-.09.24.24,0,0,1-.05-.2L471,352.58a.23.23,0,0,1,.16-.17.24.24,0,0,1,.23.06l56.2,54.25a.23.23,0,0,1-.14.4l-70.09,6.15Zm14-60.19-13.72,59.69,69.25-6.08Z"/></g><g id="triangle36-49" data-name="triangle36"><path class="cls-4" d="M471.23,352.87a.23.23,0,0,1-.17-.07.23.23,0,0,1,0-.27l27.43-53.59a.23.23,0,0,1,.16-.13.25.25,0,0,1,.19.05l30.74,23.65a.2.2,0,0,1,.09.2.25.25,0,0,1-.12.19l-58.18,29.94A.19.19,0,0,1,471.23,352.87Zm27.51-53.47-27,52.69L529,322.65Z"/></g><g id="triangle36-50" data-name="triangle36"><path class="cls-4" d="M527.42,407.12a.21.21,0,0,1-.16-.07l-56.2-54.25a.22.22,0,0,1-.06-.22.23.23,0,0,1,.16-.17l80.36-24a.24.24,0,0,1,.29.29L527.65,407a.23.23,0,0,1-.17.16Zm-55.74-54.38,55.63,53.71L551.23,329Z"/></g><g id="triangle36-51" data-name="triangle36"><path class="cls-4" d="M471.23,352.87a.24.24,0,0,1-.22-.15.22.22,0,0,1,.11-.29l58.17-29.95a.25.25,0,0,1,.17,0l22.19,5.92a.24.24,0,0,1,.17.23.23.23,0,0,1-.17.23l-80.36,24Zm58.2-29.93-55.85,28.75,77.15-23.06Z"/></g><g id="triangle36-52" data-name="triangle36"><path class="cls-4" d="M124.2,382.73a.23.23,0,0,1-.22-.15.22.22,0,0,1,.1-.28l66.55-39a.23.23,0,0,1,.18,0,.26.26,0,0,1,.14.11l13.77,24.5a.22.22,0,0,1,0,.21.21.21,0,0,1-.17.13l-80.31,14.48Zm66.46-38.88L125.46,382l78.69-14.18Z"/></g><g id="triangle36-53" data-name="triangle36"><path class="cls-4" d="M204.51,368.26h0a.21.21,0,0,1-.18-.11l-13.77-24.5a.22.22,0,0,1,0-.21.21.21,0,0,1,.16-.13l41.09-8.17a.24.24,0,0,1,.25.11.24.24,0,0,1,0,.27l-27.33,32.66A.21.21,0,0,1,204.51,368.26Zm-13.4-24.57,13.44,23.92,26.68-31.89Z"/></g><g id="triangle36-54" data-name="triangle36"><path class="cls-4" d="M320.77,203.24h-.06a.23.23,0,0,1-.16-.29l12.9-49.71a.24.24,0,0,1,.29-.17.25.25,0,0,1,.17.29L321,203.06A.23.23,0,0,1,320.77,203.24Z"/></g><g id="triangle36-55" data-name="triangle36"><path class="cls-4" d="M320.77,203.24a.2.2,0,0,1-.14-.06.2.2,0,0,1-.08-.24l12.9-49.71a.26.26,0,0,1,.11-.14.21.21,0,0,1,.19,0L388,169.39a.25.25,0,0,1,.17.21.28.28,0,0,1-.13.23l-67.14,33.38A.23.23,0,0,1,320.77,203.24Zm13.08-49.65-12.72,49,66.15-32.89Z"/></g><g id="triangle36-56" data-name="triangle36"><path class="cls-4" d="M339.89,266.37a.23.23,0,0,1-.22-.17l-19.12-63.13a.23.23,0,0,1,.36-.26L399.63,259a.23.23,0,0,1-.11.42l-59.6,6.91ZM321.2,203.59l18.86,62.29,58.8-6.82Z"/></g><g id="triangle36-57" data-name="triangle36"><path class="cls-4" d="M399.49,259.46a.23.23,0,0,1-.14,0l-78.71-56.23a.23.23,0,0,1-.1-.21.23.23,0,0,1,.13-.19l67.14-33.38a.2.2,0,0,1,.21,0,.23.23,0,0,1,.12.18l11.58,89.61a.24.24,0,0,1-.11.23ZM321.23,203l78,55.68L387.72,170Z"/></g><g id="triangle36-58" data-name="triangle36"><path class="cls-4" d="M298.93,310.59a.23.23,0,0,1-.17-.08.24.24,0,0,1,0-.32l41-44.22a.23.23,0,0,1,.24-.06.21.21,0,0,1,.16.18l2.41,11.64a.21.21,0,0,1-.09.23l-43.37,32.58A.24.24,0,0,1,298.93,310.59Zm40.83-44-38.88,42L342,277.68Z"/></g><g id="triangle36-59" data-name="triangle36"><path class="cls-4" d="M298.93,310.59a.23.23,0,0,1-.21-.14.23.23,0,0,1,.07-.29l43.37-32.57a.24.24,0,0,1,.28,0L369.8,298.2a.22.22,0,0,1,.09.24.25.25,0,0,1-.19.18l-70.73,12Zm43.37-32.52L299.84,310l69.25-11.72Z"/></g><g id="triangle36-60" data-name="triangle36"><path class="cls-4" d="M365.58,372.57a.26.26,0,0,1-.16-.07l-66.65-62a.22.22,0,0,1-.06-.23.23.23,0,0,1,.18-.17l70.73-12a.24.24,0,0,1,.2.06.27.27,0,0,1,.08.19l-4.08,74a.23.23,0,0,1-.15.2ZM299.44,310.5l65.94,61.32,4-73.15Z"/></g><g id="triangle36-61" data-name="triangle36"><path class="cls-4" d="M580.21,247.43,499,298.53l26.21-99,55.09,23.27v-.5l-55.16-23.31a.25.25,0,0,0-.19,0,.24.24,0,0,0-.13.15L498.43,299a.23.23,0,0,0,.09.25.24.24,0,0,0,.14,0,.19.19,0,0,0,.12,0L580.21,248Z"/></g><g id="triangle36-62" data-name="triangle36"><path class="cls-4" d="M580,290.09l-80.36,8.61L580.21,248v-.56l-81.68,51.42a.22.22,0,0,0-.09.27.22.22,0,0,0,.22.16h0L580,290.56Z"/></g><g id="triangle36-63" data-name="triangle36"><path class="cls-4" d="M580.34,222.25l-53.9-22.78,54,3.19v-.47l-55.34-3.26a.22.22,0,0,0-.25.18.24.24,0,0,0,.14.27l55.34,23.37Z"/></g><g id="triangle36-64" data-name="triangle36"><path class="cls-4" d="M204.51,368.26a.26.26,0,0,1-.19-.1.24.24,0,0,1,0-.29l27.33-32.66a.23.23,0,0,1,.17-.08l54-.19h0a.23.23,0,0,1,.23.19.22.22,0,0,1-.14.26L204.6,368.24ZM232,335.6l-26.66,31.85,79.34-32Z"/></g><g id="triangle36-65" data-name="triangle36"><path class="cls-4" d="M270.28,421.62a.23.23,0,0,1-.15-.05L204.36,368.2a.24.24,0,0,1,.06-.4L285.76,335a.24.24,0,0,1,.23,0,.23.23,0,0,1,.08.23l-15.56,86.21a.23.23,0,0,1-.15.18ZM205,368.09,270.12,421l15.42-85.41Z"/></g><g id="triangle36-66" data-name="triangle36"><path class="cls-4" d="M231.83,335.6a.24.24,0,0,1-.23-.19.25.25,0,0,1,.15-.27l67.1-25a.24.24,0,0,1,.26.07.25.25,0,0,1,0,.26l-13.09,24.82a.23.23,0,0,1-.21.13l-54,.19Zm66.61-24.81-65.29,24.33,52.55-.18Z"/></g><g id="triangle36-67" data-name="triangle36"><path class="cls-4" d="M270.28,421.62a.23.23,0,0,1-.14,0,.23.23,0,0,1-.09-.23l15.56-86.22a.23.23,0,0,1,.13-.16.2.2,0,0,1,.2,0l79.74,37.16a.24.24,0,0,1,.14.21.23.23,0,0,1-.13.21l-95.3,49.06A.22.22,0,0,1,270.28,421.62ZM286,335.52,270.6,421l94.45-48.62Z"/></g><g id="triangle36-68" data-name="triangle36"><path class="cls-4" d="M365.58,372.57l-.1,0-79.74-37.15a.28.28,0,0,1-.12-.14.25.25,0,0,1,0-.19l13.08-24.82a.26.26,0,0,1,.17-.12.24.24,0,0,1,.2.06l66.65,62a.23.23,0,0,1,0,.3A.24.24,0,0,1,365.58,372.57Zm-79.41-37.51,78.16,36.43L299,310.73Z"/></g><g id="triangle36-69" data-name="triangle36"><path class="cls-4" d="M579.75,338.86l-27.61-10.28,27.74-15.93v-.54l-28.41,16.31a.24.24,0,0,0-.12.22.24.24,0,0,0,.16.2l28.24,10.52Z"/></g><g id="triangle36-70" data-name="triangle36"><path class="cls-4" d="M333.68,153.52a.23.23,0,0,1-.2-.1.23.23,0,0,1,.07-.32l54.19-36.25a.24.24,0,0,1,.33.07.23.23,0,0,1-.07.32l-54.19,36.25A.21.21,0,0,1,333.68,153.52Z"/></g><g id="triangle36-71" data-name="triangle36"><path class="cls-4" d="M387.91,169.85h-.07l-54.23-16.33a.23.23,0,0,1-.16-.19.21.21,0,0,1,.1-.22l54.19-36.25a.25.25,0,0,1,.24,0,.23.23,0,0,1,.13.21l0,52.57a.22.22,0,0,1-.1.18A.19.19,0,0,1,387.91,169.85Zm-53.69-16.64,53.46,16.09,0-51.81Z"/></g><g id="triangle36-72" data-name="triangle36"><path class="cls-4" d="M387.91,169.85a.22.22,0,0,1-.13,0,.23.23,0,0,1-.1-.19l0-52.57a.23.23,0,0,1,.11-.2.21.21,0,0,1,.23,0l53.86,28.42a.25.25,0,0,1,.13.22.23.23,0,0,1-.14.2L388,169.83Zm.2-52.41,0,51.81,53.05-23.8Z"/></g><g id="triangle36-73" data-name="triangle36"><path class="cls-4" d="M441.73,145.7l-.11,0-53.86-28.42a.24.24,0,0,1-.11-.29l28.17-78.24a.25.25,0,0,1,.24-.16.23.23,0,0,1,.21.18L442,145.41a.24.24,0,0,1-.08.24A.23.23,0,0,1,441.73,145.7Zm-53.57-28.76L441.38,145,416,39.62Z"/></g><g id="triangle36-74" data-name="triangle36"><path class="cls-4" d="M579.58,371.39l-51.73,34.93,23.83-77.2,27.93,35.95v-.76l-27.85-35.83a.23.23,0,0,0-.22-.09.26.26,0,0,0-.19.16L527.2,406.82a.23.23,0,0,0,.09.25.24.24,0,0,0,.13.05.23.23,0,0,0,.14,0l52-35.12Z"/></g><g id="triangle36-75" data-name="triangle36"><path class="cls-4" d="M579.34,419.54,528,406.78,579.58,372v-.57l-52.29,35.3a.27.27,0,0,0-.1.24.24.24,0,0,0,.18.18l52,12.91Z"/></g><g id="triangle36-76" data-name="triangle36"><path class="cls-4" d="M579.62,364.31l-27.34-35.18,27.47,10.23v-.5L551.67,328.4a.23.23,0,0,0-.27.08.26.26,0,0,0,0,.29l28.21,36.3Z"/></g><path class="cls-4" d="M540.3.94a2.45,2.45,0,1,0,2.43,2.46A2.45,2.45,0,0,0,540.3.94Z"/><path class="cls-5" d="M540.3.94a2.45,2.45,0,1,1-2.46,2.43A2.45,2.45,0,0,1,540.3.94m0-.94a3.39,3.39,0,1,0,3.37,3.4A3.39,3.39,0,0,0,540.3,0Z"/><path class="cls-4" d="M156.2,400.46a1.51,1.51,0,0,0,0,3,1.51,1.51,0,1,0,0-3Z"/><path class="cls-5" d="M156.2,400.46a1.51,1.51,0,1,1-1.51,1.5,1.51,1.51,0,0,1,1.51-1.5m0-.94a2.45,2.45,0,1,0,2.43,2.46,2.44,2.44,0,0,0-2.43-2.46Z"/><path class="cls-4" d="M184.51,417.93a2.09,2.09,0,1,0,2.08,2.1A2.1,2.1,0,0,0,184.51,417.93Z"/><path class="cls-5" d="M184.51,417.93A2.09,2.09,0,1,1,182.4,420a2.1,2.1,0,0,1,2.11-2.08m0-.94a3,3,0,1,0,3,3.05,3,3,0,0,0-3-3.05Z"/><path class="cls-4" d="M570,170.13a1.81,1.81,0,1,0,1.8,1.82A1.82,1.82,0,0,0,570,170.13Z"/><path class="cls-5" d="M570,170.13a1.81,1.81,0,1,1-1.83,1.8,1.8,1.8,0,0,1,1.83-1.8m0-.94a2.75,2.75,0,1,0,2.74,2.77,2.74,2.74,0,0,0-2.74-2.77Z"/><circle class="cls-4" cx="449.7" cy="217.85" r="3.11"/><path class="cls-5" d="M449.71,214.74a3.11,3.11,0,1,1-3.12,3.09,3.1,3.1,0,0,1,3.12-3.09m0-.94a4.05,4.05,0,1,0,4,4.07,4.05,4.05,0,0,0-4-4.07Z"/><path class="cls-4" d="M492.17,199.46a1.34,1.34,0,1,0-1.34,1.32A1.33,1.33,0,0,0,492.17,199.46Z"/><path class="cls-5" d="M490.84,198.12a1.33,1.33,0,1,1-1.34,1.32,1.33,1.33,0,0,1,1.34-1.32m0-.94a2.27,2.27,0,1,0,2.25,2.28,2.28,2.28,0,0,0-2.25-2.28Z"/><path class="cls-4" d="M524.93,169.89a3.07,3.07,0,1,0-3-3.08A3.07,3.07,0,0,0,524.93,169.89Z"/><path class="cls-5" d="M525,163.76a3.07,3.07,0,1,1-3.08,3.05,3.07,3.07,0,0,1,3.08-3.05m0-.93a4,4,0,1,0,4,4,4,4,0,0,0-4-4Z"/><path class="cls-4" d="M526.7,17.27a1.92,1.92,0,1,0-1.92,1.91A1.92,1.92,0,0,0,526.7,17.27Z"/><path class="cls-5" d="M524.79,15.35a1.92,1.92,0,1,1-1.92,1.9,1.92,1.92,0,0,1,1.92-1.9m0-.94a2.85,2.85,0,1,0,2.84,2.87,2.86,2.86,0,0,0-2.84-2.87Z"/><path class="cls-4" d="M385.75,290.82a2.77,2.77,0,1,0,2.75,2.78A2.76,2.76,0,0,0,385.75,290.82Z"/><path class="cls-5" d="M385.75,290.82a2.77,2.77,0,1,1-2.78,2.75,2.75,2.75,0,0,1,2.78-2.75m0-.94a3.71,3.71,0,1,0,3.69,3.72,3.7,3.7,0,0,0-3.69-3.72Z"/><path class="cls-4" d="M428.09,400.28a2.38,2.38,0,1,0,2.36,2.39A2.36,2.36,0,0,0,428.09,400.28Z"/><path class="cls-5" d="M428.09,400.28a2.38,2.38,0,1,1-2.39,2.36,2.38,2.38,0,0,1,2.39-2.36m0-.94a3.32,3.32,0,1,0,3.3,3.33,3.32,3.32,0,0,0-3.3-3.33Z"/><path class="cls-4" d="M457.36,410a3.08,3.08,0,1,0,3.06,3.1A3.08,3.08,0,0,0,457.36,410Z"/><path class="cls-5" d="M457.36,410a3.08,3.08,0,1,1-3.1,3.06,3.08,3.08,0,0,1,3.1-3.06m0-.94a4,4,0,1,0,4,4,4,4,0,0,0-4-4Z"/><path class="cls-4" d="M471.24,350.91a1.73,1.73,0,1,0,1.71,1.73A1.72,1.72,0,0,0,471.24,350.91Z"/><path class="cls-5" d="M471.24,350.91a1.73,1.73,0,1,1-1.74,1.72,1.71,1.71,0,0,1,1.74-1.72m0-.94a2.67,2.67,0,1,0,2.65,2.68,2.67,2.67,0,0,0-2.65-2.68Z"/><path class="cls-4" d="M529.42,319.35a3.34,3.34,0,1,0,3.32,3.36A3.34,3.34,0,0,0,529.42,319.35Z"/><path class="cls-5" d="M529.42,319.35a3.34,3.34,0,1,1-3.36,3.33,3.35,3.35,0,0,1,3.36-3.33m0-.94a4.28,4.28,0,1,0,4.26,4.31,4.28,4.28,0,0,0-4.26-4.31Z"/><path class="cls-4" d="M124.21,381.12a1.37,1.37,0,0,0-1.38,1.37,1.37,1.37,0,1,0,1.38-1.37Z"/><path class="cls-5" d="M124.21,381.12a1.38,1.38,0,1,1-1.38,1.37,1.37,1.37,0,0,1,1.38-1.37m0-.93a2.31,2.31,0,1,0,2.3,2.32,2.3,2.3,0,0,0-2.3-2.32Z"/><path class="cls-4" d="M190.76,341.31a2.22,2.22,0,1,0,2.21,2.23A2.21,2.21,0,0,0,190.76,341.31Z"/><path class="cls-5" d="M190.76,341.31a2.22,2.22,0,1,1-2.23,2.21,2.21,2.21,0,0,1,2.23-2.21m0-.94a3.16,3.16,0,1,0,3.14,3.17,3.16,3.16,0,0,0-3.14-3.17Z"/><path class="cls-4" d="M320.78,201.66a1.34,1.34,0,1,0,0,2.68,1.34,1.34,0,0,0,0-2.68Z"/><path class="cls-5" d="M320.78,201.66a1.34,1.34,0,1,1-1.35,1.33,1.33,1.33,0,0,1,1.35-1.33m0-.94a2.28,2.28,0,1,0,2.27,2.29,2.29,2.29,0,0,0-2.27-2.29Z"/><path class="cls-4" d="M399.51,256.17a3.06,3.06,0,1,0,3,3.07A3.06,3.06,0,0,0,399.51,256.17Z"/><path class="cls-5" d="M399.51,256.17a3.06,3.06,0,1,1-3.08,3,3.06,3.06,0,0,1,3.08-3m0-.94a4,4,0,1,0,4,4,4,4,0,0,0-4-4Z"/><path class="cls-4" d="M339.89,267.66a1.53,1.53,0,0,0,0-3.05,1.53,1.53,0,0,0,0,3.05Z"/><path class="cls-5" d="M339.9,264.61a1.53,1.53,0,1,1-1.53,1.52,1.53,1.53,0,0,1,1.53-1.52m0-.94a2.47,2.47,0,1,0,2.45,2.48,2.47,2.47,0,0,0-2.45-2.48Z"/><path class="cls-4" d="M342.31,276.05a1.73,1.73,0,1,0,1.72,1.74A1.73,1.73,0,0,0,342.31,276.05Z"/><path class="cls-5" d="M342.31,276.05a1.73,1.73,0,1,1,0,3.45,1.73,1.73,0,0,1,0-3.45m0-.94a2.67,2.67,0,1,0,2.65,2.68,2.67,2.67,0,0,0-2.65-2.68Z"/><path class="cls-4" d="M369.67,297a1.35,1.35,0,1,0,0,2.69,1.35,1.35,0,1,0,0-2.69Z"/><path class="cls-5" d="M369.67,297a1.35,1.35,0,1,1,0,2.69,1.35,1.35,0,1,1,0-2.69m0-.94a2.29,2.29,0,1,0,2.27,2.3,2.27,2.27,0,0,0-2.27-2.3Z"/><path class="cls-4" d="M498.67,296.7a2.35,2.35,0,1,0,2.33,2.36A2.35,2.35,0,0,0,498.67,296.7Z"/><path class="cls-5" d="M498.67,296.7a2.35,2.35,0,1,1-2.36,2.33,2.33,2.33,0,0,1,2.36-2.33m0-.94a3.29,3.29,0,1,0,3.27,3.3,3.29,3.29,0,0,0-3.27-3.3Z"/><path class="cls-4" d="M525.1,196.46a2.7,2.7,0,1,0,2.69,2.71A2.71,2.71,0,0,0,525.1,196.46Z"/><path class="cls-5" d="M525.1,196.46a2.7,2.7,0,1,1-2.71,2.69,2.7,2.7,0,0,1,2.71-2.69m0-.94a3.64,3.64,0,1,0,3.62,3.66,3.64,3.64,0,0,0-3.62-3.66Z"/><path class="cls-4" d="M204.53,365.1a2.93,2.93,0,1,0,2.91,2.94A2.91,2.91,0,0,0,204.53,365.1Z"/><path class="cls-5" d="M204.53,365.1a2.93,2.93,0,1,1-2.94,2.91,2.93,2.93,0,0,1,2.94-2.91m0-.94a3.86,3.86,0,1,0,3.85,3.88,3.86,3.86,0,0,0-3.85-3.88Z"/><path class="cls-4" d="M233.52,335.37a1.69,1.69,0,1,0-1.69,1.68A1.69,1.69,0,0,0,233.52,335.37Z"/><path class="cls-5" d="M231.84,333.68a1.69,1.69,0,1,1-1.69,1.67,1.69,1.69,0,0,1,1.69-1.67m0-.94a2.63,2.63,0,1,0,2.61,2.64,2.62,2.62,0,0,0-2.61-2.64Z"/><path class="cls-4" d="M270.29,418.74a2.65,2.65,0,1,0,2.64,2.66A2.65,2.65,0,0,0,270.29,418.74Z"/><path class="cls-5" d="M270.29,418.74a2.65,2.65,0,1,1-2.66,2.64,2.65,2.65,0,0,1,2.66-2.64m0-.94a3.59,3.59,0,1,0,3.57,3.61,3.58,3.58,0,0,0-3.57-3.61Z"/><path class="cls-4" d="M285.86,332.41a2.77,2.77,0,1,0,2.75,2.78A2.75,2.75,0,0,0,285.86,332.41Z"/><path class="cls-5" d="M285.86,332.41a2.77,2.77,0,1,1-2.78,2.75,2.75,2.75,0,0,1,2.78-2.75m0-.94a3.71,3.71,0,1,0,3.69,3.72,3.7,3.7,0,0,0-3.69-3.72Z"/><path class="cls-4" d="M365.6,369.92a2.42,2.42,0,1,0,2.4,2.42A2.41,2.41,0,0,0,365.6,369.92Z"/><path class="cls-5" d="M365.6,369.92a2.42,2.42,0,1,1-2.43,2.4,2.41,2.41,0,0,1,2.43-2.4m0-.94a3.35,3.35,0,1,0,3.34,3.37A3.36,3.36,0,0,0,365.6,369Z"/><path class="cls-4" d="M298.94,308.58a1.77,1.77,0,1,0,1.76,1.78A1.77,1.77,0,0,0,298.94,308.58Z"/><path class="cls-5" d="M298.94,308.58a1.77,1.77,0,1,1-1.78,1.76,1.77,1.77,0,0,1,1.78-1.76m0-.94a2.71,2.71,0,1,0,2.69,2.73,2.71,2.71,0,0,0-2.69-2.73Z"/><path class="cls-4" d="M333.69,151.17a2.12,2.12,0,1,0,2.11,2.13A2.12,2.12,0,0,0,333.69,151.17Z"/><path class="cls-5" d="M333.69,151.17a2.12,2.12,0,1,1-2.13,2.11,2.12,2.12,0,0,1,2.13-2.11m0-.94a3.06,3.06,0,1,0,3,3.08,3.07,3.07,0,0,0-3-3.08Z"/><path class="cls-4" d="M387.92,168a1.58,1.58,0,1,0,1.57,1.58A1.57,1.57,0,0,0,387.92,168Z"/><path class="cls-5" d="M387.92,168a1.58,1.58,0,1,1,0,3.15,1.58,1.58,0,0,1,0-3.15m0-.94a2.52,2.52,0,1,0,2.5,2.53,2.52,2.52,0,0,0-2.5-2.53Z"/><path class="cls-4" d="M393.57,29.21a2.5,2.5,0,1,0,2.48,2.51A2.5,2.5,0,0,0,393.57,29.21Z"/><path class="cls-5" d="M393.57,29.21a2.5,2.5,0,1,1-2.52,2.49,2.49,2.49,0,0,1,2.52-2.49m0-.94A3.44,3.44,0,1,0,397,31.73a3.45,3.45,0,0,0-3.42-3.46Z"/><path class="cls-4" d="M387.85,120.44a3.39,3.39,0,1,0-3.37-3.41A3.39,3.39,0,0,0,387.85,120.44Z"/><path class="cls-5" d="M387.89,113.66a3.39,3.39,0,1,1-3.41,3.37,3.39,3.39,0,0,1,3.41-3.37m0-.94a4.33,4.33,0,1,0,4.31,4.35,4.34,4.34,0,0,0-4.31-4.35Z"/><path class="cls-4" d="M441.74,143.74a1.73,1.73,0,1,0,1.72,1.74A1.73,1.73,0,0,0,441.74,143.74Z"/><path class="cls-5" d="M441.74,143.74a1.73,1.73,0,1,1,0,3.46,1.73,1.73,0,1,1,0-3.46m0-.94a2.67,2.67,0,1,0,2.65,2.68,2.67,2.67,0,0,0-2.65-2.68Z"/><path class="cls-4" d="M416.05,36.88A1.93,1.93,0,1,0,418,38.81,1.93,1.93,0,0,0,416.05,36.88Z"/><path class="cls-5" d="M416.05,36.88a1.93,1.93,0,1,1-1.93,1.92,1.93,1.93,0,0,1,1.93-1.92m0-.94a2.87,2.87,0,1,0,2.85,2.88,2.87,2.87,0,0,0-2.85-2.88Z"/><path class="cls-4" d="M527.43,405.09a1.8,1.8,0,1,0,1.79,1.8A1.78,1.78,0,0,0,527.43,405.09Z"/><path class="cls-5" d="M527.43,405.09a1.8,1.8,0,1,1-1.8,1.79,1.78,1.78,0,0,1,1.8-1.79m0-.94a2.74,2.74,0,1,0,2.72,2.75,2.74,2.74,0,0,0-2.72-2.75Z"/><circle class="cls-4" cx="551.59" cy="328.62" r="2.24"/><path class="cls-5" d="M551.6,326.39a2.24,2.24,0,1,1-2.25,2.22,2.23,2.23,0,0,1,2.25-2.22m0-.94a3.18,3.18,0,1,0,3.16,3.19,3.17,3.17,0,0,0-3.16-3.19Z"/></g></g></g></svg>