<svg xmlns="http://www.w3.org/2000/svg" xmlns:xlink="http://www.w3.org/1999/xlink" viewBox="0 0 1269.15 541.9"><defs><style>.cls-1{fill:none;}.cls-2{fill:url(#radial-gradient);}.cls-3{clip-path:url(#clip-path);}.cls-4{fill:#c4c4c4;}.cls-5{fill:#231f20;}</style><radialGradient id="radial-gradient" cx="260.42" cy="259.01" r="514.56" gradientTransform="translate(0 -41.93) scale(2.19 1.24)" gradientUnits="userSpaceOnUse"><stop offset="0.12" stop-color="#fff"/><stop offset="0.36" stop-color="#f8f8f8"/><stop offset="0.68" stop-color="#e6e6e6"/><stop offset="1" stop-color="#cecece"/></radialGradient><clipPath id="clip-path"><rect class="cls-1" x="619.92" y="176.56" width="643.68" height="356.4"/></clipPath></defs><title>Asset 2</title><g id="Layer_2" data-name="Layer 2"><g id="Layer_1-2" data-name="Layer 1"><rect class="cls-2" y="176.56" width="1263.6" height="356.4"/><g class="cls-3"><g id="triangle36"><path class="cls-4" d="M1268.89,59.64l-62.63-38.33,16.89-16.75L1269,41.87v-.72L1223.29,4a.24.24,0,0,0-.33,0l-17.33,17.18a.31.31,0,0,0-.08.25.32.32,0,0,0,.13.22l63.2,38.68Z"/></g><g id="triangle36-2" data-name="triangle36"><path class="cls-4" d="M1268.65,112.08l-61.88-89.79,62.11,38v-.66l-63-38.53a.25.25,0,0,0-.33.06.33.33,0,0,0,0,.37l63,91.49Z"/></g><g id="triangle36-3" data-name="triangle36"><path class="cls-4" d="M1013.3,540.77l84.25-42.07,8.25,42.59h.54L1098,498.23a.27.27,0,0,0-.14-.2.24.24,0,0,0-.22,0L1012,540.76Z"/></g><g id="triangle36-4" data-name="triangle36"><polygon class="cls-4" points="1266.76 522.34 1211.48 541.89 1213.18 541.9 1266.75 522.95 1266.76 522.34"/></g><g id="triangle36-5" data-name="triangle36"><path class="cls-4" d="M1269,41.15,1223.9,4.45l45.25-1.66V2.21l-46,1.69a.27.27,0,0,0-.24.2.31.31,0,0,0,.1.32l46,37.45Z"/></g><g id="triangle36-6" data-name="triangle36"><path class="cls-4" d="M1268,250.21l-61-4,49.28-33.09,11.84,10.21v-.74l-11.67-10a.23.23,0,0,0-.29,0L1206,246.21a.32.32,0,0,0-.11.32.26.26,0,0,0,.23.22l61.88,4Z"/></g><g id="triangle36-7" data-name="triangle36"><path class="cls-4" d="M815.32,539.65l10-19,2,19.05h.53l-2.12-20a.3.3,0,0,0-.21-.25.26.26,0,0,0-.28.14l-10.6,20Z"/></g><g id="triangle36-8" data-name="triangle36"><polygon class="cls-4" points="1266.76 522.34 1211.48 541.89 1213.18 541.9 1266.75 522.95 1266.76 522.34"/><path class="cls-4" d="M1266.77,519.18l-58-15.94a.25.25,0,0,0-.31.21l-8.77,38.37h.54l8.67-38,57.82,15.91Z"/></g><g id="triangle36-9" data-name="triangle36"><path class="cls-4" d="M1267.38,386.24l-31.66,20.12-23.91-7.08,55.62-23.58v-.62l-56.56,24a.3.3,0,0,0-.17.29.29.29,0,0,0,.2.26l24.79,7.34h.07a.2.2,0,0,0,.13,0l31.49-20Z"/></g><g id="triangle36-10" data-name="triangle36"><path class="cls-4" d="M1106.34,541.29l-8.25-42.55,32,12.56-13.81,30.05h.58l13.83-30.08a.29.29,0,0,0,0-.24.28.28,0,0,0-.15-.17L1097.82,498a.26.26,0,0,0-.26.06.32.32,0,0,0-.08.28l8.33,42.94Z"/></g><g id="triangle36-11" data-name="triangle36"><path class="cls-4" d="M1116.84,541.35l13.62-29.62,17,29.79h.62L1130.66,511a.22.22,0,0,0-.23-.13.23.23,0,0,0-.22.16l-14,30.34Z"/></g><g id="triangle36-12" data-name="triangle36"><path class="cls-4" d="M1147.41,541.52h.62l-16.89-29.71,57.73,29.94h1.25l-59.57-30.9a.26.26,0,0,0-.31.08.32.32,0,0,0,0,.34Z"/></g><g id="triangle36-13" data-name="triangle36"><path class="cls-4" d="M1130.33,511.4l58.54,30.36h1.25l-58.69-30.44,77-7.48-8.67,38h.54l8.73-38.23a.34.34,0,0,0,0-.26.28.28,0,0,0-.22-.1l-78.32,7.62a.28.28,0,0,0-.24.24A.3.3,0,0,0,1130.33,511.4Z"/></g><g id="triangle36-14" data-name="triangle36"><path class="cls-4" d="M827.92,539.72l-2.06-19.36,27.24,19.5h1l-28.39-20.34a.24.24,0,0,0-.28,0,.31.31,0,0,0-.13.28l2.12,19.91Z"/></g><g id="triangle36-15" data-name="triangle36"><path class="cls-4" d="M1001.88,344a.22.22,0,0,1-.13,0,.28.28,0,0,1-.12-.19l-2.69-14.41a.31.31,0,0,1,0-.23.25.25,0,0,1,.18-.12l66.6-8.54a.26.26,0,0,1,.29.22.3.3,0,0,1-.18.34L1002,344Zm-2.37-14.45,2.57,13.78,61.12-21.95Z"/></g><g id="triangle36-16" data-name="triangle36"><path class="cls-4" d="M790.7,539.51l3.43-41.57,31,21.93-10.47,19.77h.61l10.44-19.73a.32.32,0,0,0-.08-.39l-31.63-22.34a.27.27,0,0,0-.26,0,.32.32,0,0,0-.14.24l-3.48,42.1Z"/></g><g id="triangle36-17" data-name="triangle36"><path class="cls-4" d="M825.53,520.07a.27.27,0,0,1-.14-.05l-31.62-22.34a.27.27,0,0,1-.12-.24.29.29,0,0,1,.11-.24l54-42a.23.23,0,0,1,.31,0,.3.3,0,0,1,.09.33l-22.37,64.35a.27.27,0,0,1-.16.17Zm-31.15-22.65,31,21.92,21.94-63.13Z"/></g><g id="triangle36-18" data-name="triangle36"><path class="cls-4" d="M921.4,521.76h0l-95.87-1.69a.24.24,0,0,1-.21-.13.32.32,0,0,1,0-.27l22.37-64.35a.24.24,0,0,1,.18-.17.22.22,0,0,1,.23.05l73.5,66a.33.33,0,0,1,.08.33A.28.28,0,0,1,921.4,521.76Zm-95.49-2.27,94.74,1.68L848,455.9Z"/></g><g id="triangle36-19" data-name="triangle36"><path class="cls-4" d="M853.1,539.86h1l-27.62-19.79,94,1.66-30,18.33h1.08l30.09-18.36a.31.31,0,0,0,.13-.32.27.27,0,0,0-.25-.22l-95.87-1.69h0a.28.28,0,0,0-.26.2.31.31,0,0,0,.11.33Z"/></g><g id="triangle36-20" data-name="triangle36"><path class="cls-4" d="M891.44,540.08l29.22-17.83-9.95,17.94h.61l10.3-18.57a.3.3,0,0,0,0-.35.23.23,0,0,0-.32,0l-30.91,18.85Z"/></g><g id="triangle36-21" data-name="triangle36"><path class="cls-4" d="M911.32,540.19l10.2-18.38,58.06,18.77h1.9l-60-19.4a.24.24,0,0,0-.29.13l-10.47,18.87Z"/></g><g id="triangle36-22" data-name="triangle36"><path class="cls-4" d="M1176.61,370.36l-.1,0-110.82-49.28a.29.29,0,0,1-.16-.22.33.33,0,0,1,.09-.27l56.11-51.21a.25.25,0,0,1,.39.08l54.72,100.48a.33.33,0,0,1,0,.33A.24.24,0,0,1,1176.61,370.36ZM1066.3,320.71,1176,369.47,1121.83,270Z"/></g><g id="triangle36-23" data-name="triangle36"><path class="cls-4" d="M1176.61,370.36a.27.27,0,0,1-.22-.14l-54.72-100.48a.29.29,0,0,1,0-.24.28.28,0,0,1,.14-.18l46-22.77a.26.26,0,0,1,.24,0,.29.29,0,0,1,.13.23L1176.87,370a.28.28,0,0,1-.18.3Zm-54.34-100.64,54,99.14-8.62-121.61Z"/></g><g id="triangle36-24" data-name="triangle36"><path class="cls-4" d="M1176.61,370.36h0a.29.29,0,0,1-.24-.27l-8.74-123.25a.29.29,0,0,1,.07-.22.22.22,0,0,1,.19-.09l38.28-.36a.36.36,0,0,1,.21.11.28.28,0,0,1,0,.25l-29.53,123.61A.28.28,0,0,1,1176.61,370.36Zm-8.46-123.25,8.6,121.23,29.06-121.59Z"/></g><g id="triangle36-25" data-name="triangle36"><path class="cls-4" d="M1267.43,375.08,1211,399l-33.72-28.72,90.21-10.71V359l-90.93,10.79a.26.26,0,0,0-.22.21.33.33,0,0,0,.09.31l34.35,29.26a.27.27,0,0,0,.16.06.16.16,0,0,0,.1,0l56.37-23.9Z"/></g><g id="triangle36-26" data-name="triangle36"><path class="cls-4" d="M1167.87,247.11a.26.26,0,0,1-.24-.18.31.31,0,0,1,.06-.32l38.12-40.37a.25.25,0,0,1,.28-.06.29.29,0,0,1,.16.27l.16,40a.27.27,0,0,1-.26.29l-38.28.36Zm37.86-40-37.2,39.39,37.36-.35Z"/></g><g id="triangle36-27" data-name="triangle36"><path class="cls-4" d="M1268.37,172.69,1206.25,206l-.18-183.77L1268.64,113v-1L1206,21.19a.26.26,0,0,0-.3-.1.29.29,0,0,0-.17.27l.18,185.09a.27.27,0,0,0,.12.24.24.24,0,0,0,.14.05.2.2,0,0,0,.11,0l62.26-33.37Z"/></g><g id="triangle36-28" data-name="triangle36"><path class="cls-4" d="M1206.15,246.75a.22.22,0,0,1-.13,0,.29.29,0,0,1-.13-.25l-.16-40a.31.31,0,0,1,.09-.22.25.25,0,0,1,.2-.07l50.32,6.33a.28.28,0,0,1,.23.23.33.33,0,0,1-.12.31l-50.16,33.68A.25.25,0,0,1,1206.15,246.75Zm.1-40,.16,39.18,49.11-33Z"/></g><g id="triangle36-29" data-name="triangle36"><path class="cls-4" d="M1268.26,196.6l-12.06,15.87-49.28-6.2,61.44-32.93v-.65l-62.49,33.5a.3.3,0,0,0,.08.55l50.32,6.33h0a.24.24,0,0,0,.2-.11l11.74-15.45Z"/></g><g id="triangle36-30" data-name="triangle36"><path class="cls-4" d="M1268.15,219l-11.42-6.29,11.52-15.17v-.91l-12.15,16a.36.36,0,0,0-.06.25.32.32,0,0,0,.14.2l12,6.58Z"/></g><g id="triangle36-31" data-name="triangle36"><path class="cls-4" d="M1268.14,222.6l-9.61-8.27,9.62,5.29V219l-11.72-6.45a.25.25,0,0,0-.34.1.32.32,0,0,0,.06.39l12,10.33Z"/></g><g id="triangle36-32" data-name="triangle36"><path class="cls-4" d="M921.33,521.75l58.25,18.83h1.9l-59.38-19.2,105.33-60L1002,540.7h.55l25.61-79.85a.34.34,0,0,0-.08-.32.24.24,0,0,0-.29,0l-106.5,60.71a.32.32,0,0,0-.14.29A.27.27,0,0,0,921.33,521.75Z"/></g><g id="triangle36-33" data-name="triangle36"><path class="cls-4" d="M1002.54,540.71l25.51-79.55,69.07,37.12L1012,540.76h1.27l84.54-42.22a.28.28,0,0,0,.16-.26.3.3,0,0,0-.15-.26L1028,460.5a.22.22,0,0,0-.21,0,.31.31,0,0,0-.15.17l-25.66,80Z"/></g><g id="triangle36-34" data-name="triangle36"><path class="cls-4" d="M1032.46,369.54a.25.25,0,0,1-.16-.06L1001.73,344a.31.31,0,0,1-.08-.37.25.25,0,0,1,.32-.13L1050.51,363a.27.27,0,0,1,.17.28.3.3,0,0,1-.18.27l-18,5.94Zm-29-24.85,29.07,24.24,17.08-5.65Z"/></g><g id="triangle36-35" data-name="triangle36"><path class="cls-4" d="M1050.42,363.6l-.09,0L1001.79,344a.29.29,0,0,1-.17-.28.3.3,0,0,1,.18-.27l63.91-23a.23.23,0,0,1,.27.08.3.3,0,0,1,0,.3l-15.37,42.52A.26.26,0,0,1,1050.42,363.6Zm-47.73-19.84,47.58,19.18,15.07-41.68Z"/></g><g id="triangle36-36" data-name="triangle36"><path class="cls-4" d="M1027.9,461.05h0a.29.29,0,0,1-.22-.31l4.56-91.5a.28.28,0,0,1,.19-.27l18-5.94a.24.24,0,0,1,.25.07.32.32,0,0,1,.08.28l-22.53,97.45A.26.26,0,0,1,1027.9,461.05Zm4.81-91.58-4.4,88.35,21.74-94.09Z"/></g><g id="triangle36-37" data-name="triangle36"><path class="cls-4" d="M1176.61,370.36h0l-126.19-6.76a.3.3,0,0,1-.21-.13.32.32,0,0,1,0-.27l15.37-42.51a.25.25,0,0,1,.14-.16.23.23,0,0,1,.2,0l110.82,49.27a.29.29,0,0,1,.16.33A.28.28,0,0,1,1176.61,370.36ZM1050.8,363l124.27,6.65-109.13-48.52Z"/></g><g id="triangle36-38" data-name="triangle36"><path class="cls-4" d="M1065.79,321.08a.2.2,0,0,1-.1,0,.27.27,0,0,1-.16-.23l-12.94-110.89a.31.31,0,0,1,.13-.29.24.24,0,0,1,.29,0l69,59.69a.29.29,0,0,1,.1.22.33.33,0,0,1-.1.23L1066,321A.22.22,0,0,1,1065.79,321.08Zm-12.6-110.52L1066,320.24l55.49-50.65Z"/></g><g id="triangle36-39" data-name="triangle36"><path class="cls-4" d="M1121.89,269.88a.27.27,0,0,1-.16-.06l-69-59.69a.31.31,0,0,1-.1-.26.27.27,0,0,1,.16-.23l60.14-29.89a.25.25,0,0,1,.24,0,.32.32,0,0,1,.13.22l8.9,89.57a.3.3,0,0,1-.14.29A.2.2,0,0,1,1121.89,269.88ZM1053.36,210l68.21,59-8.79-88.48Z"/></g><g id="triangle36-40" data-name="triangle36"><path class="cls-4" d="M1113,180.31h0a.28.28,0,0,1-.21-.22l-28.7-132a.31.31,0,0,1,0-.23.26.26,0,0,1,.17-.12l121.52-26.66a.25.25,0,0,1,.27.12.33.33,0,0,1,0,.32l-92.81,158.65A.26.26,0,0,1,1113,180.31ZM1084.61,48.25l28.5,131,92.14-157.51Z"/></g><g id="triangle36-41" data-name="triangle36"><path class="cls-4" d="M1121.89,269.88a.28.28,0,0,1-.12,0,.3.3,0,0,1-.14-.22l-8.89-89.57a.29.29,0,0,1,.15-.3.25.25,0,0,1,.3.07l54.87,66.8a.35.35,0,0,1,.07.26.29.29,0,0,1-.15.2l-46,22.77A.2.2,0,0,1,1121.89,269.88Zm-8.54-89,8.77,88.29,45.31-22.44Z"/></g><g id="triangle36-42" data-name="triangle36"><path class="cls-4" d="M1167.87,247.11h0a.26.26,0,0,1-.19-.1l-54.87-66.8a.32.32,0,0,1,0-.34.24.24,0,0,1,.29-.13l93,26.43a.25.25,0,0,1,.18.21.29.29,0,0,1-.07.28L1168.05,247A.25.25,0,0,1,1167.87,247.11Zm-54.09-66.57,54.1,65.86,37.59-39.8Z"/></g><g id="triangle36-43" data-name="triangle36"><path class="cls-4" d="M1206,206.74h-.07l-93-26.43a.29.29,0,0,1-.18-.18.3.3,0,0,1,0-.26l92.81-158.65a.25.25,0,0,1,.29-.13.3.3,0,0,1,.19.28l.18,185.09a.29.29,0,0,1-.1.23A.25.25,0,0,1,1206,206.74Zm-92.57-26.9,92.31,26.23-.18-183.73Z"/></g><g id="triangle36-44" data-name="triangle36"><path class="cls-4" d="M1027.9,461.05a.25.25,0,0,1-.19-.09.29.29,0,0,1-.06-.27l22.52-97.45a.26.26,0,0,1,.16-.2.23.23,0,0,1,.24,0l95.54,73.08a.29.29,0,0,1,.1.3.27.27,0,0,1-.2.22L1028,461.05Zm22.68-97.27-22.32,96.61,117-24.16Z"/></g><g id="triangle36-45" data-name="triangle36"><path class="cls-4" d="M1097.73,498.58l-.11,0L1027.79,461a.29.29,0,0,1-.15-.3.28.28,0,0,1,.21-.24l118.06-24.38a.26.26,0,0,1,.28.14.35.35,0,0,1,0,.34l-48.23,61.9A.26.26,0,0,1,1097.73,498.58Zm-69-37.7,68.94,37.05,47.6-61.11Z"/></g><g id="triangle36-46" data-name="triangle36"><path class="cls-4" d="M1146,436.68a.2.2,0,0,1-.15-.06l-95.54-73.07a.34.34,0,0,1-.1-.33.27.27,0,0,1,.26-.2l126.19,6.76a.27.27,0,0,1,.22.14.34.34,0,0,1,0,.28l-30.66,66.32a.28.28,0,0,1-.17.15Zm-94.63-73L1145.86,436l30.33-65.63Z"/></g><g id="triangle36-47" data-name="triangle36"><path class="cls-4" d="M1130.44,511.43l-.09,0-32.7-12.85a.29.29,0,0,1-.17-.2.3.3,0,0,1,.06-.26l48.22-61.9a.24.24,0,0,1,.32-.07.3.3,0,0,1,.13.32L1130.7,511.2a.33.33,0,0,1-.13.19A.22.22,0,0,1,1130.44,511.43Zm-32.26-13.27,32.07,12.59,15.22-73.29Z"/></g><g id="triangle36-48" data-name="triangle36"><path class="cls-4" d="M1130.44,511.43a.26.26,0,0,1-.2-.1.39.39,0,0,1-.06-.26l15.52-74.75a.28.28,0,0,1,.18-.21.24.24,0,0,1,.26.07l62.8,67.13a.32.32,0,0,1,.07.31.3.3,0,0,1-.23.19l-78.32,7.62ZM1146.11,437l-15.33,73.86,77.38-7.52Z"/></g><g id="triangle36-49" data-name="triangle36"><path class="cls-4" d="M1146,436.68a.25.25,0,0,1-.19-.09.32.32,0,0,1,0-.34l30.66-66.32a.28.28,0,0,1,.17-.15.23.23,0,0,1,.22.06l34.35,29.26a.31.31,0,0,1,.11.26.29.29,0,0,1-.15.23l-65,37.05A.19.19,0,0,1,1146,436.68Zm30.74-66.17-30.14,65.2,63.92-36.43Z"/></g><g id="triangle36-50" data-name="triangle36"><path class="cls-4" d="M1208.76,503.81a.25.25,0,0,1-.18-.08l-62.8-67.14a.29.29,0,0,1,.1-.48l89.81-29.72a.26.26,0,0,1,.26.07.32.32,0,0,1,.06.3l-27,96.85a.28.28,0,0,1-.19.19Zm-62.3-67.29L1208.63,503l26.74-95.88Z"/></g><g id="triangle36-51" data-name="triangle36"><path class="cls-4" d="M1146,436.68a.27.27,0,0,1-.25-.19.3.3,0,0,1,.13-.36l65-37.06a.25.25,0,0,1,.19,0l24.8,7.34a.28.28,0,0,1,.19.27.3.3,0,0,1-.18.29L1146,436.66Zm65-37-62.4,35.57,86.21-28.53Z"/></g><g id="triangle36-52" data-name="triangle36"><path class="cls-4" d="M758.15,473.63a.26.26,0,0,1-.24-.19.29.29,0,0,1,.11-.35l74.37-48.23a.28.28,0,0,1,.2,0,.26.26,0,0,1,.16.13l15.38,30.31a.32.32,0,0,1,0,.27.3.3,0,0,1-.19.16L758.2,473.63Zm74.28-48.11-72.87,47.24,87.93-17.55Z"/></g><g id="triangle36-53" data-name="triangle36"><path class="cls-4" d="M847.9,455.72h0a.26.26,0,0,1-.21-.14l-15.38-30.31a.32.32,0,0,1,0-.27.26.26,0,0,1,.18-.16l45.92-10.1a.24.24,0,0,1,.27.13.32.32,0,0,1,0,.34L848.1,455.61A.24.24,0,0,1,847.9,455.72Zm-15-30.4,15,29.6,29.81-39.46Z"/></g><g id="triangle36-54" data-name="triangle36"><path class="cls-4" d="M977.82,251.5h-.06a.28.28,0,0,1-.19-.35L992,189.62a.25.25,0,0,1,.32-.2.29.29,0,0,1,.19.35l-14.42,61.52A.26.26,0,0,1,977.82,251.5Z"/></g><g id="triangle36-55" data-name="triangle36"><path class="cls-4" d="M977.82,251.5a.27.27,0,0,1-.16-.06.32.32,0,0,1-.09-.3L992,189.62a.34.34,0,0,1,.13-.18.24.24,0,0,1,.2,0l60.61,20.2a.3.3,0,0,1,.18.26.28.28,0,0,1-.14.28l-75,41.31Zm14.61-61.44-14.21,60.61,73.92-40.7Z"/></g><g id="triangle36-56" data-name="triangle36"><path class="cls-4" d="M999.19,329.63a.26.26,0,0,1-.25-.2L977.57,251.3a.31.31,0,0,1,.1-.32.24.24,0,0,1,.31,0l88,69.58a.3.3,0,0,1,.1.31.25.25,0,0,1-.22.21l-66.6,8.55ZM978.3,252,999.38,329l65.7-8.43Z"/></g><g id="triangle36-57" data-name="triangle36"><path class="cls-4" d="M1065.79,321.08a.21.21,0,0,1-.15-.05l-88-69.58a.35.35,0,0,1-.11-.26.33.33,0,0,1,.15-.24l75-41.31a.25.25,0,0,1,.24,0,.32.32,0,0,1,.13.22l12.94,110.9a.32.32,0,0,1-.12.28A.19.19,0,0,1,1065.79,321.08Zm-87.46-69.82,87.12,68.91-12.81-109.83Z"/></g><g id="triangle36-58" data-name="triangle36"><path class="cls-4" d="M953.42,384.35a.25.25,0,0,1-.2-.09.33.33,0,0,1,0-.4L999,329.14a.24.24,0,0,1,.26-.08.28.28,0,0,1,.19.22l2.69,14.41a.31.31,0,0,1-.1.29l-48.47,40.31A.22.22,0,0,1,953.42,384.35ZM999,330l-43.45,51.94,46-38.26Z"/></g><g id="triangle36-59" data-name="triangle36"><path class="cls-4" d="M953.42,384.35a.26.26,0,0,1-.24-.17.3.3,0,0,1,.08-.35l48.47-40.31a.23.23,0,0,1,.31,0l30.58,25.5a.3.3,0,0,1,.09.3.27.27,0,0,1-.21.22l-79,14.81Zm48.46-40.24-47.44,39.46,77.38-14.49Z"/></g><g id="triangle36-60" data-name="triangle36"><path class="cls-4" d="M1027.9,461.05a.25.25,0,0,1-.18-.08l-74.48-76.7a.3.3,0,0,1-.07-.29.26.26,0,0,1,.2-.21l79.05-14.8a.21.21,0,0,1,.21.07.27.27,0,0,1,.09.23l-4.56,91.51a.28.28,0,0,1-.16.25ZM954,384.25l73.69,75.88,4.51-90.53Z"/></g><g id="triangle36-61" data-name="triangle36"><path class="cls-4" d="M1267.75,306.2,1177,369.43l29.29-122.57,61.56,28.8V275l-61.64-28.84a.24.24,0,0,0-.22,0,.3.3,0,0,0-.13.19L1176.36,370a.3.3,0,0,0,.1.31.22.22,0,0,0,.15.06.24.24,0,0,0,.14-.05l91-63.42Z"/></g><g id="triangle36-62" data-name="triangle36"><path class="cls-4" d="M1267.51,359l-89.8,10.65,90-62.75v-.69l-91.28,63.62a.31.31,0,0,0-.11.34.27.27,0,0,0,.25.2h0l90.86-10.79Z"/></g><g id="triangle36-63" data-name="triangle36"><path class="cls-4" d="M1267.89,275l-60.23-28.18,60.35,3.94v-.58l-61.84-4a.25.25,0,0,0-.27.22.3.3,0,0,0,.15.34l61.84,28.93Z"/></g><g id="triangle36-64" data-name="triangle36"><path class="cls-4" d="M847.9,455.72a.27.27,0,0,1-.21-.12.32.32,0,0,1,0-.36l30.54-40.41a.24.24,0,0,1,.2-.11l60.35-.23h0a.28.28,0,0,1,.26.23.31.31,0,0,1-.16.33L848,455.7Zm30.66-40.42-29.78,39.42,88.65-39.65Z"/></g><g id="triangle36-65" data-name="triangle36"><path class="cls-4" d="M921.4,521.76a.23.23,0,0,1-.16-.06l-73.5-66.05a.33.33,0,0,1-.1-.27.31.31,0,0,1,.16-.22l90.89-40.65a.27.27,0,0,1,.27,0,.32.32,0,0,1,.09.28L921.66,521.52a.28.28,0,0,1-.17.22Zm-73-66.25,72.81,65.42,17.23-105.69Z"/></g><g id="triangle36-66" data-name="triangle36"><path class="cls-4" d="M878.44,415.3a.27.27,0,0,1-.26-.24.3.3,0,0,1,.17-.32l75-30.95a.24.24,0,0,1,.28.08.3.3,0,0,1,0,.33L939,414.91a.25.25,0,0,1-.23.16l-60.35.23Zm74.42-30.7-73,30.12,58.72-.23Z"/></g><g id="triangle36-67" data-name="triangle36"><path class="cls-4" d="M921.4,521.76a.2.2,0,0,1-.15-.06.27.27,0,0,1-.11-.28l17.39-106.69a.32.32,0,0,1,.14-.21.27.27,0,0,1,.23,0l89.11,46a.27.27,0,0,1,.15.25.3.3,0,0,1-.14.27l-106.5,60.71ZM939,415.2,921.75,520.94l105.55-60.17Z"/></g><g id="triangle36-68" data-name="triangle36"><path class="cls-4" d="M1027.9,461.05a.2.2,0,0,1-.11,0l-89.11-46a.3.3,0,0,1-.14-.17.36.36,0,0,1,0-.23l14.62-30.71a.3.3,0,0,1,.19-.16.29.29,0,0,1,.23.08l74.48,76.7a.32.32,0,0,1,0,.37A.25.25,0,0,1,1027.9,461.05Zm-88.75-46.41,87.35,45.08-73-75.19Z"/></g><g id="triangle36-69" data-name="triangle36"><path class="cls-4" d="M1267.23,419.34l-30.85-12.73,31-19.7v-.67l-31.75,20.18a.3.3,0,0,0,0,.52l31.56,13Z"/></g><g id="triangle36-70" data-name="triangle36"><path class="cls-4" d="M992.25,190a.26.26,0,0,1-.22-.13.31.31,0,0,1,.07-.4l60.56-44.85a.24.24,0,0,1,.36.08.3.3,0,0,1-.07.4l-60.56,44.85A.24.24,0,0,1,992.25,190Z"/></g><g id="triangle36-71" data-name="triangle36"><path class="cls-4" d="M1052.85,210.19h-.07L992.17,190a.27.27,0,0,1-.18-.23.29.29,0,0,1,.11-.28l60.56-44.85a.24.24,0,0,1,.27,0,.29.29,0,0,1,.14.26l0,65.05a.28.28,0,0,1-.1.23A.25.25,0,0,1,1052.85,210.19Zm-60-20.59,59.73,19.91,0-64.12Z"/></g><g id="triangle36-72" data-name="triangle36"><path class="cls-4" d="M1052.85,210.19a.24.24,0,0,1-.14-.05.3.3,0,0,1-.12-.24l0-65.05a.3.3,0,0,1,.13-.25.24.24,0,0,1,.26,0l60.19,35.17a.31.31,0,0,1,.14.27.26.26,0,0,1-.16.25L1053,210.17Zm.22-64.86,0,64.12L1112.4,180Z"/></g><g id="triangle36-73" data-name="triangle36"><path class="cls-4" d="M1113,180.31a.2.2,0,0,1-.13,0l-60.19-35.17a.3.3,0,0,1-.12-.35L1084,47.92a.26.26,0,0,1,.27-.19.29.29,0,0,1,.24.22l28.7,132a.3.3,0,0,1-.09.3A.27.27,0,0,1,1113,180.31Zm-59.87-35.6,59.48,34.75L1084.24,49Z"/></g><g id="triangle36-74" data-name="triangle36"><path class="cls-4" d="M1267,459.6l-57.81,43.22,26.63-95.53,31.22,44.48v-.94L1236,406.49a.27.27,0,0,0-.26-.11.29.29,0,0,0-.2.2l-27,96.85a.31.31,0,0,0,.09.32.25.25,0,0,0,.16.06.3.3,0,0,0,.15-.05L1267,460.3Z"/></g><g id="triangle36-75" data-name="triangle36"><path class="cls-4" d="M1266.77,519.18l-57.38-15.78L1267,460.3v-.7l-58.43,43.68a.31.31,0,0,0-.11.29.3.3,0,0,0,.2.23l58.07,16Z"/></g><g id="triangle36-76" data-name="triangle36"><path class="cls-4" d="M1267.08,450.83l-30.55-43.53,30.7,12.66v-.62l-31.38-12.94a.23.23,0,0,0-.3.1.32.32,0,0,0,0,.35l31.53,44.92Z"/></g><path class="cls-4" d="M1223.15,1.16a2.88,2.88,0,0,0-2.75,3,2.75,2.75,0,1,0,5.47,0A2.9,2.9,0,0,0,1223.15,1.16Z"/><path class="cls-5" d="M1223.15,1.16a2.9,2.9,0,0,1,2.72,3.05,2.75,2.75,0,1,1-5.47,0,2.88,2.88,0,0,1,2.75-3m0-1.16a4,4,0,0,0-3.8,4.17,3.8,3.8,0,1,0,7.56,0A4,4,0,0,0,1223.15,0Z"/><path class="cls-4" d="M793.92,495.57a1.87,1.87,0,1,0,1.68,1.87A1.78,1.78,0,0,0,793.92,495.57Z"/><path class="cls-5" d="M793.92,495.57a1.87,1.87,0,1,1-1.7,1.85,1.78,1.78,0,0,1,1.7-1.85m0-1.17a3,3,0,1,0,2.73,3.05,2.91,2.91,0,0,0-2.73-3.05Z"/><path class="cls-4" d="M825.55,517.19a2.6,2.6,0,1,0,2.32,2.6A2.47,2.47,0,0,0,825.55,517.19Z"/><path class="cls-5" d="M825.55,517.19a2.6,2.6,0,1,1-2.35,2.57,2.47,2.47,0,0,1,2.35-2.57m0-1.16a3.77,3.77,0,1,0,3.37,3.77,3.58,3.58,0,0,0-3.37-3.77Z"/><path class="cls-4" d="M1256.32,210.53a2.26,2.26,0,1,0,2,2.26A2.14,2.14,0,0,0,1256.32,210.53Z"/><path class="cls-5" d="M1256.32,210.53a2.26,2.26,0,0,1,0,4.49,2.26,2.26,0,0,1,0-4.49m0-1.16a3.42,3.42,0,1,0,3.06,3.42,3.25,3.25,0,0,0-3.06-3.42Z"/><ellipse class="cls-4" cx="1121.9" cy="269.59" rx="3.47" ry="3.85"/><path class="cls-5" d="M1121.91,265.74a3.86,3.86,0,1,1-3.49,3.83,3.68,3.68,0,0,1,3.49-3.83m0-1.16a5,5,0,1,0,4.5,5,4.79,4.79,0,0,0-4.5-5Z"/><path class="cls-4" d="M1169.36,246.83a1.5,1.5,0,1,0-1.5,1.64A1.59,1.59,0,0,0,1169.36,246.83Z"/><path class="cls-5" d="M1167.88,245.17a1.66,1.66,0,1,1-1.5,1.64,1.59,1.59,0,0,1,1.5-1.64m0-1.16a2.83,2.83,0,1,0,2.52,2.82,2.68,2.68,0,0,0-2.52-2.82Z"/><path class="cls-4" d="M1206,210.24a3.81,3.81,0,1,0-3.4-3.81A3.62,3.62,0,0,0,1206,210.24Z"/><path class="cls-5" d="M1206,202.66a3.81,3.81,0,1,1-3.44,3.77,3.62,3.62,0,0,1,3.44-3.77m0-1.16a5,5,0,1,0,4.45,5,4.72,4.72,0,0,0-4.45-5Z"/><path class="cls-4" d="M1208,21.37a2.15,2.15,0,1,0-2.15,2.36A2.26,2.26,0,0,0,1208,21.37Z"/><path class="cls-5" d="M1205.82,19a2.38,2.38,0,1,1-2.15,2.35,2.26,2.26,0,0,1,2.15-2.35m0-1.17a3.38,3.38,0,0,0-3.2,3.51,3.21,3.21,0,1,0,6.38,0,3.39,3.39,0,0,0-3.18-3.55Z"/><path class="cls-4" d="M1050.44,359.88a3.44,3.44,0,1,0,3.07,3.45A3.27,3.27,0,0,0,1050.44,359.88Z"/><path class="cls-5" d="M1050.44,359.88a3.44,3.44,0,1,1-3.11,3.41,3.28,3.28,0,0,1,3.11-3.41m0-1.16a4.61,4.61,0,1,0,4.12,4.61,4.39,4.39,0,0,0-4.12-4.61Z"/><path class="cls-4" d="M1097.75,495.35a3,3,0,1,0,2.64,2.95A2.8,2.8,0,0,0,1097.75,495.35Z"/><path class="cls-5" d="M1097.75,495.35a3,3,0,1,1-2.67,2.92,2.8,2.8,0,0,1,2.67-2.92m0-1.17a4.13,4.13,0,1,0,3.69,4.13,3.92,3.92,0,0,0-3.69-4.13Z"/><path class="cls-4" d="M1130.46,507.32a3.84,3.84,0,1,0,3.42,3.84A3.64,3.64,0,0,0,1130.46,507.32Z"/><path class="cls-5" d="M1130.46,507.32a3.83,3.83,0,1,1-3.47,3.8,3.65,3.65,0,0,1,3.47-3.8m0-1.16a5,5,0,1,0,4.47,5,4.75,4.75,0,0,0-4.47-5Z"/><path class="cls-4" d="M1146,434.25a2.15,2.15,0,1,0,1.92,2.15A2,2,0,0,0,1146,434.25Z"/><path class="cls-5" d="M1146,434.25a2.15,2.15,0,1,1-1.94,2.12,2.06,2.06,0,0,1,1.94-2.12m0-1.16a3.31,3.31,0,1,0,3,3.31,3.15,3.15,0,0,0-3-3.31Z"/><path class="cls-4" d="M1211,395.2a4.16,4.16,0,1,0,3.72,4.15A3.94,3.94,0,0,0,1211,395.2Z"/><path class="cls-5" d="M1211,395.2a4.16,4.16,0,1,1-3.75,4.11,4,4,0,0,1,3.75-4.11m0-1.16a5.32,5.32,0,1,0,4.76,5.32A5.06,5.06,0,0,0,1211,394Z"/><path class="cls-4" d="M758.16,471.64a1.71,1.71,0,1,0,1.53,1.71A1.63,1.63,0,0,0,758.16,471.64Z"/><path class="cls-5" d="M758.16,471.64a1.63,1.63,0,0,1,1.53,1.71,1.54,1.54,0,1,1-1.53-1.71m0-1.16a2.87,2.87,0,1,0,2.57,2.88,2.73,2.73,0,0,0-2.57-2.88Z"/><path class="cls-4" d="M832.54,422.37a2.76,2.76,0,1,0,2.47,2.76A2.62,2.62,0,0,0,832.54,422.37Z"/><path class="cls-5" d="M832.54,422.37a2.76,2.76,0,1,1-2.5,2.73,2.63,2.63,0,0,1,2.5-2.73m0-1.17a3.94,3.94,0,1,0,3.52,3.94,3.74,3.74,0,0,0-3.52-3.94Z"/><path class="cls-4" d="M977.83,249.55a1.67,1.67,0,0,0,0,3.32,1.57,1.57,0,0,0,1.5-1.65A1.59,1.59,0,0,0,977.83,249.55Z"/><path class="cls-5" d="M977.83,249.55a1.59,1.59,0,0,1,1.49,1.67,1.5,1.5,0,1,1-3,0,1.59,1.59,0,0,1,1.5-1.66m0-1.16a2.84,2.84,0,1,0,2.53,2.84,2.68,2.68,0,0,0-2.53-2.84Z"/><path class="cls-4" d="M1065.81,317a3.8,3.8,0,1,0,3.4,3.8A3.62,3.62,0,0,0,1065.81,317Z"/><path class="cls-5" d="M1065.81,317a3.8,3.8,0,1,1-3.44,3.76,3.61,3.61,0,0,1,3.44-3.76m0-1.16a5,5,0,1,0,4.45,5,4.71,4.71,0,0,0-4.45-5Z"/><path class="cls-4" d="M999.18,331.23a1.9,1.9,0,1,0-1.69-1.9A1.82,1.82,0,0,0,999.18,331.23Z"/><path class="cls-5" d="M999.2,327.45a1.9,1.9,0,1,1-1.71,1.88,1.82,1.82,0,0,1,1.71-1.88m0-1.16a3.07,3.07,0,1,0,2.74,3.07,2.91,2.91,0,0,0-2.74-3.07Z"/><path class="cls-4" d="M1001.89,341.61a2.15,2.15,0,1,0,1.92,2.15A2,2,0,0,0,1001.89,341.61Z"/><path class="cls-5" d="M1001.89,341.61a2.15,2.15,0,1,1-1.93,2.13,2,2,0,0,1,1.93-2.13m0-1.16a3.31,3.31,0,1,0,3,3.32,3.15,3.15,0,0,0-3-3.32Z"/><path class="cls-4" d="M1032.47,367.58a1.68,1.68,0,1,0,1.5,1.68A1.61,1.61,0,0,0,1032.47,367.58Z"/><path class="cls-5" d="M1032.47,367.58a1.68,1.68,0,1,1-1.52,1.66,1.61,1.61,0,0,1,1.52-1.66m0-1.16a2.84,2.84,0,1,0,2.55,2.85,2.71,2.71,0,0,0-2.55-2.85Z"/><path class="cls-4" d="M1176.63,367.16a2.92,2.92,0,1,0,2.6,2.92A2.78,2.78,0,0,0,1176.63,367.16Z"/><path class="cls-5" d="M1176.63,367.16a2.92,2.92,0,1,1-2.64,2.89,2.78,2.78,0,0,1,2.64-2.89m0-1.16a4.09,4.09,0,1,0,3.65,4.09,3.89,3.89,0,0,0-3.65-4.09Z"/><path class="cls-4" d="M1206.17,243.12a3.36,3.36,0,1,0,3,3.36A3.18,3.18,0,0,0,1206.17,243.12Z"/><path class="cls-5" d="M1206.17,243.12a3.36,3.36,0,1,1-3,3.32,3.19,3.19,0,0,1,3-3.32m0-1.16a4.52,4.52,0,1,0,4,4.52,4.3,4.3,0,0,0-4-4.52Z"/><path class="cls-4" d="M847.92,451.81a3.64,3.64,0,1,0,3.25,3.63A3.45,3.45,0,0,0,847.92,451.81Z"/><path class="cls-5" d="M847.92,451.81a3.64,3.64,0,1,1-3.29,3.6,3.46,3.46,0,0,1,3.29-3.6m0-1.17a4.81,4.81,0,1,0,4.3,4.81,4.57,4.57,0,0,0-4.3-4.81Z"/><path class="cls-4" d="M880.32,415a1.89,1.89,0,1,0-1.89,2.08A2,2,0,0,0,880.32,415Z"/><path class="cls-5" d="M878.45,412.93a2.1,2.1,0,1,1-1.89,2.07,2,2,0,0,1,1.89-2.07m0-1.16a3.26,3.26,0,1,0,2.92,3.26,3.09,3.09,0,0,0-2.92-3.26Z"/><path class="cls-4" d="M921.42,518.19a3.3,3.3,0,1,0,2.94,3.3A3.13,3.13,0,0,0,921.42,518.19Z"/><path class="cls-5" d="M921.42,518.19a3.3,3.3,0,1,1-3,3.26,3.14,3.14,0,0,1,3-3.26m0-1.16a4.46,4.46,0,1,0,4,4.46,4.25,4.25,0,0,0-4-4.46Z"/><path class="cls-4" d="M938.81,411.35a3.44,3.44,0,1,0,3.07,3.45A3.27,3.27,0,0,0,938.81,411.35Z"/><path class="cls-5" d="M938.81,411.35a3.44,3.44,0,1,1-3.11,3.41,3.28,3.28,0,0,1,3.11-3.41m0-1.16a4.61,4.61,0,1,0,4.12,4.61,4.38,4.38,0,0,0-4.12-4.61Z"/><path class="cls-4" d="M1027.91,457.77a3,3,0,1,0,2.69,3A2.86,2.86,0,0,0,1027.91,457.77Z"/><path class="cls-5" d="M1027.91,457.77a3,3,0,1,1-2.71,3,2.87,2.87,0,0,1,2.71-3m0-1.16a4.17,4.17,0,1,0,3.73,4.17,4,4,0,0,0-3.73-4.17Z"/><path class="cls-4" d="M953.43,381.87a2.2,2.2,0,1,0,2,2.2A2.08,2.08,0,0,0,953.43,381.87Z"/><path class="cls-5" d="M953.43,381.87a2.2,2.2,0,1,1-2,2.18,2.1,2.1,0,0,1,2-2.18m0-1.16a3.37,3.37,0,1,0,3,3.37,3.19,3.19,0,0,0-3-3.37Z"/><path class="cls-4" d="M992.26,187.07a2.64,2.64,0,1,0,2.36,2.64A2.51,2.51,0,0,0,992.26,187.07Z"/><path class="cls-5" d="M992.26,187.07a2.64,2.64,0,1,1-2.38,2.61,2.52,2.52,0,0,1,2.38-2.61m0-1.16a3.8,3.8,0,1,0,3.4,3.81,3.62,3.62,0,0,0-3.4-3.81Z"/><path class="cls-4" d="M1052.86,208a2,2,0,1,0,1.75,2A1.87,1.87,0,0,0,1052.86,208Z"/><path class="cls-5" d="M1052.86,208a2,2,0,1,1-1.77,1.94,1.86,1.86,0,0,1,1.77-1.94m0-1.16a3.13,3.13,0,1,0,2.79,3.13,3,3,0,0,0-2.79-3.13Z"/><path class="cls-4" d="M1059.17,36.15a3.11,3.11,0,1,0,2.78,3.11A3,3,0,0,0,1059.17,36.15Z"/><path class="cls-5" d="M1059.17,36.15a3.11,3.11,0,1,1-2.81,3.08,3,3,0,0,1,2.81-3.08m0-1.16a4.28,4.28,0,0,0,0,8.51,4.28,4.28,0,0,0,0-8.51Z"/><path class="cls-4" d="M1052.79,149a4.22,4.22,0,1,0-3.77-4.21A4,4,0,0,0,1052.79,149Z"/><path class="cls-5" d="M1052.83,140.65a4.22,4.22,0,1,1-3.81,4.18,4,4,0,0,1,3.81-4.18m0-1.16a5.38,5.38,0,1,0,4.81,5.38,5.12,5.12,0,0,0-4.81-5.38Z"/><path class="cls-4" d="M1113,177.88a2.15,2.15,0,1,0,1.92,2.15A2,2,0,0,0,1113,177.88Z"/><path class="cls-5" d="M1113,177.88a2.15,2.15,0,1,1-2,2.13,2,2,0,0,1,2-2.13m0-1.17a3.32,3.32,0,1,0,3,3.32,3.16,3.16,0,0,0-3-3.32Z"/><path class="cls-4" d="M1084.3,45.64a2.39,2.39,0,1,0,2.14,2.39A2.29,2.29,0,0,0,1084.3,45.64Z"/><path class="cls-5" d="M1084.3,45.64a2.39,2.39,0,1,1-2.16,2.37,2.28,2.28,0,0,1,2.16-2.37m0-1.16a3.56,3.56,0,1,0,3.18,3.56,3.38,3.38,0,0,0-3.18-3.56Z"/><path class="cls-4" d="M1208.77,501.3a2.23,2.23,0,1,0,2,2.23A2.12,2.12,0,0,0,1208.77,501.3Z"/><path class="cls-5" d="M1208.77,501.3a2.23,2.23,0,1,1-2,2.21,2.12,2.12,0,0,1,2-2.21m0-1.16a3.4,3.4,0,1,0,3,3.4,3.23,3.23,0,0,0-3-3.4Z"/><ellipse class="cls-4" cx="1235.76" cy="406.67" rx="2.5" ry="2.77"/><path class="cls-5" d="M1235.77,403.9a2.78,2.78,0,1,1-2.51,2.76,2.65,2.65,0,0,1,2.51-2.76m0-1.16a4,4,0,1,0,3.53,3.95,3.75,3.75,0,0,0-3.53-3.95Z"/></g></g></g></svg>