<svg xmlns="http://www.w3.org/2000/svg" xmlns:xlink="http://www.w3.org/1999/xlink" viewBox="0 0 594.25 220.26"><defs><style>.cls-1{fill:none;}.cls-2{isolation:isolate;}.cls-3{fill:url(#linear-gradient);}.cls-4{mix-blend-mode:color-burn;fill:url(#linear-gradient-2);}.cls-5{clip-path:url(#clip-path);}.cls-6,.cls-8{fill:#fff;}.cls-6,.cls-7{opacity:0.6;}.cls-11,.cls-15,.cls-9{fill:#5c5c5c;}.cls-10,.cls-12,.cls-9{mix-blend-mode:overlay;}.cls-12,.cls-13{fill:#292929;}.cls-14,.cls-15,.cls-16{mix-blend-mode:color-dodge;}.cls-15,.cls-16{opacity:0.3;}.cls-17{mix-blend-mode:multiply;}.cls-18{fill:url(#linear-gradient-3);}.cls-19{fill:url(#linear-gradient-4);}.cls-20{fill:url(#linear-gradient-5);}.cls-21{fill:url(#linear-gradient-6);}.cls-22{fill:url(#linear-gradient-7);}.cls-23{fill:url(#linear-gradient-8);}.cls-24{fill:url(#linear-gradient-9);}.cls-25{fill:url(#linear-gradient-10);}.cls-26{fill:url(#linear-gradient-11);}.cls-27{fill:url(#linear-gradient-12);}.cls-28{fill:url(#linear-gradient-13);}.cls-29{fill:url(#linear-gradient-14);}.cls-30{fill:url(#linear-gradient-15);}.cls-31{fill:url(#linear-gradient-16);}.cls-32{fill:url(#linear-gradient-17);}.cls-33{fill:url(#linear-gradient-18);}.cls-34{fill:url(#linear-gradient-19);}.cls-35{fill:url(#linear-gradient-20);}.cls-36{fill:url(#linear-gradient-21);}.cls-37{fill:url(#linear-gradient-22);}.cls-38{fill:url(#linear-gradient-23);}.cls-39{fill:url(#linear-gradient-24);}.cls-40{fill:url(#linear-gradient-25);}.cls-41{fill:url(#linear-gradient-26);}.cls-42{fill:url(#linear-gradient-27);}.cls-43{fill:url(#linear-gradient-28);}.cls-44{fill:url(#linear-gradient-29);}.cls-45{fill:url(#linear-gradient-30);}.cls-46{fill:url(#linear-gradient-31);}.cls-47{fill:url(#linear-gradient-32);}.cls-48{fill:url(#linear-gradient-33);}.cls-49{fill:url(#linear-gradient-34);}.cls-50{fill:url(#linear-gradient-35);}.cls-51{fill:url(#linear-gradient-36);}.cls-52{fill:url(#linear-gradient-37);}.cls-53{fill:url(#linear-gradient-38);}.cls-54{fill:url(#linear-gradient-39);}.cls-55{fill:url(#linear-gradient-40);}.cls-56{fill:url(#linear-gradient-41);}.cls-57{fill:url(#linear-gradient-42);}.cls-58{fill:url(#linear-gradient-43);}.cls-59{fill:url(#linear-gradient-44);}.cls-60{fill:url(#linear-gradient-45);}.cls-61{fill:url(#linear-gradient-46);}.cls-62{fill:url(#linear-gradient-47);}.cls-63{fill:url(#linear-gradient-48);}.cls-64{fill:url(#linear-gradient-49);}.cls-65{fill:url(#linear-gradient-50);}.cls-66{fill:url(#linear-gradient-51);}.cls-67{fill:url(#linear-gradient-52);}.cls-68{fill:url(#linear-gradient-53);}.cls-69{fill:url(#linear-gradient-54);}.cls-70{fill:url(#linear-gradient-55);}.cls-71{fill:url(#linear-gradient-56);}.cls-72{fill:url(#linear-gradient-57);}.cls-73{fill:url(#linear-gradient-58);}.cls-74{fill:url(#linear-gradient-59);}.cls-75{fill:url(#linear-gradient-60);}.cls-76{fill:url(#linear-gradient-61);}.cls-77{fill:url(#linear-gradient-62);}.cls-78{fill:url(#linear-gradient-63);}.cls-79{fill:url(#linear-gradient-64);}.cls-80{fill:url(#linear-gradient-65);}.cls-81{fill:url(#linear-gradient-66);}.cls-82{fill:url(#linear-gradient-67);}.cls-83{fill:url(#linear-gradient-68);}.cls-84{fill:url(#linear-gradient-69);}.cls-85{fill:url(#linear-gradient-70);}.cls-86{fill:url(#linear-gradient-71);}.cls-87{fill:url(#linear-gradient-72);}.cls-88{fill:url(#linear-gradient-73);}.cls-89{fill:url(#linear-gradient-74);}.cls-90{fill:url(#linear-gradient-75);}.cls-91{fill:url(#linear-gradient-76);}.cls-92{fill:url(#linear-gradient-77);}.cls-93{fill:url(#linear-gradient-78);}.cls-94{fill:url(#linear-gradient-79);}.cls-95{fill:url(#linear-gradient-80);}.cls-96{fill:url(#linear-gradient-81);}.cls-97{fill:url(#linear-gradient-82);}.cls-98{fill:url(#linear-gradient-83);}.cls-99{fill:url(#linear-gradient-84);}.cls-100{fill:url(#linear-gradient-85);}.cls-101{fill:url(#linear-gradient-86);}.cls-102{fill:url(#linear-gradient-87);}.cls-103{fill:url(#linear-gradient-88);}.cls-104{fill:url(#linear-gradient-89);}.cls-105{fill:url(#linear-gradient-90);}.cls-106{fill:url(#linear-gradient-91);}.cls-107{fill:url(#linear-gradient-92);}.cls-108{fill:url(#linear-gradient-93);}.cls-109{fill:url(#linear-gradient-94);}.cls-110{fill:url(#linear-gradient-95);}.cls-111{fill:url(#linear-gradient-96);}.cls-112{fill:url(#linear-gradient-97);}.cls-113{fill:url(#linear-gradient-98);}.cls-114{fill:url(#linear-gradient-99);}.cls-115{fill:url(#linear-gradient-100);}.cls-116{fill:url(#linear-gradient-101);}.cls-117{fill:url(#linear-gradient-102);}.cls-118,.cls-119{fill-rule:evenodd;mix-blend-mode:screen;}.cls-118{fill:url(#radial-gradient);}.cls-119{fill:url(#radial-gradient-2);}</style><linearGradient id="linear-gradient" x1="102.63" y1="276.9" x2="370.48" y2="9.05" gradientUnits="userSpaceOnUse"><stop offset="0" stop-color="#52bbe8"/><stop offset="0.04" stop-color="#5abee9"/><stop offset="0.27" stop-color="#8acfee"/><stop offset="0.48" stop-color="#b0ddf2"/><stop offset="0.69" stop-color="#cbe7f6"/><stop offset="0.86" stop-color="#dbedf7"/><stop offset="1" stop-color="#e1eff8"/></linearGradient><linearGradient id="linear-gradient-2" x1="101.21" y1="251.92" x2="387.2" y2="8.1" gradientUnits="userSpaceOnUse"><stop offset="0" stop-color="#7a7a7a"/><stop offset="0.21" stop-color="#9a9fa2"/><stop offset="0.44" stop-color="#b9c1c7"/><stop offset="0.66" stop-color="#cfdae2"/><stop offset="0.85" stop-color="#dceaf2"/><stop offset="1" stop-color="#e1eff8"/></linearGradient><clipPath id="clip-path"><rect class="cls-1" x="82.7" y="20.24" width="396" height="157.17"/></clipPath><linearGradient id="linear-gradient-3" x1="2461.03" y1="-972.21" x2="2220.45" y2="-1343.66" gradientTransform="translate(-839.41 -2170.9) rotate(90)" gradientUnits="userSpaceOnUse"><stop offset="0" stop-color="#52bbe8"/><stop offset="0.13" stop-color="#72c7ec"/><stop offset="0.32" stop-color="#99d5f0"/><stop offset="0.5" stop-color="#b9e0f3"/><stop offset="0.68" stop-color="#cfe8f6"/><stop offset="0.85" stop-color="#dcedf7"/><stop offset="1" stop-color="#e1eff8"/></linearGradient><linearGradient id="linear-gradient-4" x1="2477.96" y1="-993.71" x2="2237.39" y2="-1365.16" xlink:href="#linear-gradient-3"/><linearGradient id="linear-gradient-5" x1="2494.9" y1="-1015.21" x2="2254.32" y2="-1386.65" xlink:href="#linear-gradient-3"/><linearGradient id="linear-gradient-6" x1="2511.83" y1="-1036.7" x2="2271.26" y2="-1408.15" xlink:href="#linear-gradient-3"/><linearGradient id="linear-gradient-7" x1="2531.39" y1="-1030.33" x2="2272.39" y2="-1430.22" xlink:href="#linear-gradient-3"/><linearGradient id="linear-gradient-8" x1="2476.57" y1="-926.82" x2="2204.42" y2="-1347.02" xlink:href="#linear-gradient-3"/><linearGradient id="linear-gradient-9" x1="2491.68" y1="-951.14" x2="2219.53" y2="-1371.34" xlink:href="#linear-gradient-3"/><linearGradient id="linear-gradient-10" x1="2506.79" y1="-975.45" x2="2234.63" y2="-1395.66" xlink:href="#linear-gradient-3"/><linearGradient id="linear-gradient-11" x1="2523.63" y1="-995.36" x2="2247.85" y2="-1421.17" xlink:href="#linear-gradient-3"/><linearGradient id="linear-gradient-12" x1="2478.17" y1="-946.84" x2="2206.02" y2="-1367.05" xlink:href="#linear-gradient-3"/><linearGradient id="linear-gradient-13" x1="2493.28" y1="-971.16" x2="2221.13" y2="-1391.37" xlink:href="#linear-gradient-3"/><linearGradient id="linear-gradient-14" x1="2510" y1="-980.07" x2="2227.35" y2="-1416.48" xlink:href="#linear-gradient-3"/><linearGradient id="linear-gradient-15" x1="2464.67" y1="-942.55" x2="2192.52" y2="-1362.75" xlink:href="#linear-gradient-3"/><linearGradient id="linear-gradient-16" x1="2480.95" y1="-963.32" x2="2205.17" y2="-1389.14" xlink:href="#linear-gradient-3"/><linearGradient id="linear-gradient-17" x1="2451.16" y1="-938.26" x2="2179.01" y2="-1358.46" xlink:href="#linear-gradient-3"/><linearGradient id="linear-gradient-18" x1="2466.25" y1="-949.68" x2="2183.6" y2="-1386.09" xlink:href="#linear-gradient-3"/><linearGradient id="linear-gradient-19" x1="2363.24" y1="-784.24" x2="2076.57" y2="-1226.85" xlink:href="#linear-gradient-3"/><linearGradient id="linear-gradient-20" x1="2362.12" y1="-812.38" x2="2089.97" y2="-1232.58" xlink:href="#linear-gradient-3"/><linearGradient id="linear-gradient-21" x1="2338.61" y1="-779.17" x2="2059.48" y2="-1210.14" xlink:href="#linear-gradient-3"/><linearGradient id="linear-gradient-22" x1="2318.87" y1="-754.81" x2="2032.2" y2="-1197.42" xlink:href="#linear-gradient-3"/><linearGradient id="linear-gradient-23" x1="2320" y1="-779.48" x2="2047.85" y2="-1199.68" xlink:href="#linear-gradient-3"/><linearGradient id="linear-gradient-24" x1="2380.43" y1="-876.75" x2="2108.28" y2="-1296.95" xlink:href="#linear-gradient-3"/><linearGradient id="linear-gradient-25" x1="2395.59" y1="-899.26" x2="2119.8" y2="-1325.07" xlink:href="#linear-gradient-3"/><linearGradient id="linear-gradient-26" x1="2291.92" y1="-775.8" x2="2042.06" y2="-1161.58" xlink:href="#linear-gradient-3"/><linearGradient id="linear-gradient-27" x1="2295.39" y1="-794.25" x2="2052.14" y2="-1169.83" xlink:href="#linear-gradient-3"/><linearGradient id="linear-gradient-28" x1="2362.51" y1="-881.19" x2="2119.26" y2="-1256.78" xlink:href="#linear-gradient-3"/><linearGradient id="linear-gradient-29" x1="2384.62" y1="-881.77" x2="2062.19" y2="-1379.61" xlink:href="#linear-gradient-3"/><linearGradient id="linear-gradient-30" x1="2484.17" y1="-1029.66" x2="2256.55" y2="-1381.1" xlink:href="#linear-gradient-3"/><linearGradient id="linear-gradient-31" x1="2503.52" y1="-1052.49" x2="2275.17" y2="-1405.07" xlink:href="#linear-gradient-3"/><linearGradient id="linear-gradient-32" x1="2506.8" y1="-975.59" x2="2234.65" y2="-1395.79" xlink:href="#linear-gradient-3"/><linearGradient id="linear-gradient-33" x1="2529.48" y1="-996.04" x2="2249.01" y2="-1429.07" xlink:href="#linear-gradient-3"/><linearGradient id="linear-gradient-34" x1="2394.98" y1="-802.82" x2="2106.89" y2="-1247.64" xlink:href="#linear-gradient-3"/><linearGradient id="linear-gradient-35" x1="2434.39" y1="-926.58" x2="2161.62" y2="-1347.75" xlink:href="#linear-gradient-3"/><linearGradient id="linear-gradient-36" x1="2336.87" y1="-764.91" x2="2048.78" y2="-1209.72" xlink:href="#linear-gradient-3"/><linearGradient id="linear-gradient-37" x1="2397.01" y1="-889.83" x2="2124.86" y2="-1310.03" xlink:href="#linear-gradient-3"/><linearGradient id="linear-gradient-38" x1="2416.34" y1="-915.45" x2="2135.87" y2="-1348.49" xlink:href="#linear-gradient-3"/><linearGradient id="linear-gradient-39" x1="2304.74" y1="-764.13" x2="2033.96" y2="-1182.2" xlink:href="#linear-gradient-3"/><linearGradient id="linear-gradient-40" x1="2316.26" y1="-795.46" x2="2053.1" y2="-1201.79" xlink:href="#linear-gradient-3"/><linearGradient id="linear-gradient-41" x1="2336.63" y1="-826.11" x2="2073.46" y2="-1232.43" xlink:href="#linear-gradient-3"/><linearGradient id="linear-gradient-42" x1="2356.99" y1="-856.76" x2="2093.83" y2="-1263.08" xlink:href="#linear-gradient-3"/><linearGradient id="linear-gradient-43" x1="2398.88" y1="-844.12" x2="1823.84" y2="-1731.99" xlink:href="#linear-gradient-3"/><linearGradient id="linear-gradient-44" x1="2383.34" y1="-877.78" x2="2093.19" y2="-1325.76" xlink:href="#linear-gradient-3"/><linearGradient id="linear-gradient-45" x1="2270.22" y1="-799.59" x2="2062.75" y2="-1119.92" xlink:href="#linear-gradient-3"/><linearGradient id="linear-gradient-46" x1="2294.79" y1="-823.75" x2="2087.32" y2="-1144.08" xlink:href="#linear-gradient-3"/><linearGradient id="linear-gradient-47" x1="2319.36" y1="-847.91" x2="2111.89" y2="-1168.25" xlink:href="#linear-gradient-3"/><linearGradient id="linear-gradient-48" x1="2343.92" y1="-872.07" x2="2136.45" y2="-1192.41" xlink:href="#linear-gradient-3"/><linearGradient id="linear-gradient-49" x1="2398.88" y1="-844.12" x2="1823.83" y2="-1732" xlink:href="#linear-gradient-3"/><linearGradient id="linear-gradient-50" x1="2461.58" y1="-934.98" x2="2204.5" y2="-1331.9" xlink:href="#linear-gradient-3"/><linearGradient id="linear-gradient-51" x1="2462.93" y1="-940.38" x2="2205.86" y2="-1337.3" xlink:href="#linear-gradient-3"/><linearGradient id="linear-gradient-52" x1="2477.55" y1="-957.95" x2="2220.48" y2="-1354.87" xlink:href="#linear-gradient-3"/><linearGradient id="linear-gradient-53" x1="2493.53" y1="-980.92" x2="2236.46" y2="-1377.84" xlink:href="#linear-gradient-3"/><linearGradient id="linear-gradient-54" x1="2509.51" y1="-1003.89" x2="2252.44" y2="-1400.81" xlink:href="#linear-gradient-3"/><linearGradient id="linear-gradient-55" x1="2525.49" y1="-1026.86" x2="2268.42" y2="-1423.78" xlink:href="#linear-gradient-3"/><linearGradient id="linear-gradient-56" x1="2449.67" y1="-928.22" x2="2192.6" y2="-1325.13" xlink:href="#linear-gradient-3"/><linearGradient id="linear-gradient-57" x1="2478.91" y1="-963.35" x2="2221.84" y2="-1360.27" xlink:href="#linear-gradient-3"/><linearGradient id="linear-gradient-58" x1="2465.65" y1="-951.18" x2="2208.58" y2="-1348.1" xlink:href="#linear-gradient-3"/><linearGradient id="linear-gradient-59" x1="2467.01" y1="-956.58" x2="2209.94" y2="-1353.5" xlink:href="#linear-gradient-3"/><linearGradient id="linear-gradient-60" x1="2494.89" y1="-986.32" x2="2237.82" y2="-1383.24" xlink:href="#linear-gradient-3"/><linearGradient id="linear-gradient-61" x1="2510.87" y1="-1009.29" x2="2253.8" y2="-1406.21" xlink:href="#linear-gradient-3"/><linearGradient id="linear-gradient-62" x1="2498.97" y1="-1002.53" x2="2241.9" y2="-1399.44" xlink:href="#linear-gradient-3"/><linearGradient id="linear-gradient-63" x1="2497.61" y1="-997.12" x2="2240.54" y2="-1394.04" xlink:href="#linear-gradient-3"/><linearGradient id="linear-gradient-64" x1="2451.03" y1="-933.61" x2="2193.96" y2="-1330.53" xlink:href="#linear-gradient-3"/><linearGradient id="linear-gradient-65" x1="2481.63" y1="-974.16" x2="2224.56" y2="-1371.07" xlink:href="#linear-gradient-3"/><linearGradient id="linear-gradient-66" x1="2482.99" y1="-979.55" x2="2225.92" y2="-1376.47" xlink:href="#linear-gradient-3"/><linearGradient id="linear-gradient-67" x1="2485.71" y1="-990.36" x2="2228.64" y2="-1387.27" xlink:href="#linear-gradient-3"/><linearGradient id="linear-gradient-68" x1="2453.74" y1="-944.42" x2="2196.68" y2="-1341.33" xlink:href="#linear-gradient-3"/><linearGradient id="linear-gradient-69" x1="2455.11" y1="-949.82" x2="2198.03" y2="-1346.74" xlink:href="#linear-gradient-3"/><linearGradient id="linear-gradient-70" x1="2443.2" y1="-943.05" x2="2186.13" y2="-1339.97" xlink:href="#linear-gradient-3"/><linearGradient id="linear-gradient-71" x1="2441.84" y1="-937.65" x2="2184.77" y2="-1334.56" xlink:href="#linear-gradient-3"/><linearGradient id="linear-gradient-72" x1="2469.72" y1="-967.39" x2="2212.66" y2="-1364.3" xlink:href="#linear-gradient-3"/><linearGradient id="linear-gradient-73" x1="2457.82" y1="-960.62" x2="2200.75" y2="-1357.54" xlink:href="#linear-gradient-3"/><linearGradient id="linear-gradient-74" x1="2459.18" y1="-966.02" x2="2202.11" y2="-1362.94" xlink:href="#linear-gradient-3"/><linearGradient id="linear-gradient-75" x1="2471.09" y1="-972.79" x2="2214.01" y2="-1369.7" xlink:href="#linear-gradient-3"/><linearGradient id="linear-gradient-76" x1="2351.4" y1="-821.43" x2="2094.33" y2="-1218.35" xlink:href="#linear-gradient-3"/><linearGradient id="linear-gradient-77" x1="2366.02" y1="-839" x2="2108.95" y2="-1235.92" xlink:href="#linear-gradient-3"/><linearGradient id="linear-gradient-78" x1="2367.38" y1="-844.4" x2="2110.31" y2="-1241.32" xlink:href="#linear-gradient-3"/><linearGradient id="linear-gradient-79" x1="2354.12" y1="-832.23" x2="2097.05" y2="-1229.15" xlink:href="#linear-gradient-3"/><linearGradient id="linear-gradient-80" x1="2403.42" y1="-906.54" x2="2146.35" y2="-1303.46" xlink:href="#linear-gradient-3"/><linearGradient id="linear-gradient-81" x1="2429.94" y1="-930.88" x2="2172.87" y2="-1327.8" xlink:href="#linear-gradient-3"/><linearGradient id="linear-gradient-82" x1="2431.3" y1="-936.28" x2="2174.23" y2="-1333.2" xlink:href="#linear-gradient-3"/><linearGradient id="linear-gradient-83" x1="2445.92" y1="-953.85" x2="2188.85" y2="-1350.77" xlink:href="#linear-gradient-3"/><linearGradient id="linear-gradient-84" x1="2338.14" y1="-809.26" x2="2081.07" y2="-1206.18" xlink:href="#linear-gradient-3"/><linearGradient id="linear-gradient-85" x1="2339.5" y1="-814.66" x2="2082.43" y2="-1211.58" xlink:href="#linear-gradient-3"/><linearGradient id="linear-gradient-86" x1="2327.6" y1="-807.9" x2="2070.52" y2="-1204.81" xlink:href="#linear-gradient-3"/><linearGradient id="linear-gradient-87" x1="2326.24" y1="-802.49" x2="2069.16" y2="-1199.41" xlink:href="#linear-gradient-3"/><linearGradient id="linear-gradient-88" x1="2390.16" y1="-894.37" x2="2133.08" y2="-1291.3" xlink:href="#linear-gradient-3"/><linearGradient id="linear-gradient-89" x1="2419.4" y1="-929.52" x2="2162.33" y2="-1326.43" xlink:href="#linear-gradient-3"/><linearGradient id="linear-gradient-90" x1="2406.14" y1="-917.35" x2="2149.06" y2="-1314.26" xlink:href="#linear-gradient-3"/><linearGradient id="linear-gradient-91" x1="2311.62" y1="-784.92" x2="2054.54" y2="-1181.84" xlink:href="#linear-gradient-3"/><linearGradient id="linear-gradient-92" x1="2299.71" y1="-778.16" x2="2042.64" y2="-1175.08" xlink:href="#linear-gradient-3"/><linearGradient id="linear-gradient-93" x1="2314.33" y1="-795.73" x2="2057.26" y2="-1192.65" xlink:href="#linear-gradient-3"/><linearGradient id="linear-gradient-94" x1="2375.54" y1="-876.81" x2="2118.46" y2="-1273.73" xlink:href="#linear-gradient-3"/><linearGradient id="linear-gradient-95" x1="2391.51" y1="-899.78" x2="2134.44" y2="-1296.69" xlink:href="#linear-gradient-3"/><linearGradient id="linear-gradient-96" x1="2298.35" y1="-772.76" x2="2041.28" y2="-1169.68" xlink:href="#linear-gradient-3"/><linearGradient id="linear-gradient-97" x1="2315.69" y1="-801.13" x2="2058.62" y2="-1198.05" xlink:href="#linear-gradient-3"/><linearGradient id="linear-gradient-98" x1="2362.27" y1="-864.64" x2="2105.2" y2="-1261.55" xlink:href="#linear-gradient-3"/><linearGradient id="linear-gradient-99" x1="2363.63" y1="-870.04" x2="2106.56" y2="-1266.95" xlink:href="#linear-gradient-3"/><linearGradient id="linear-gradient-100" x1="2338.94" y1="-879.29" x2="2176.26" y2="-1130.47" xlink:href="#linear-gradient-3"/><linearGradient id="linear-gradient-101" x1="2378.25" y1="-887.61" x2="2121.18" y2="-1284.53" xlink:href="#linear-gradient-3"/><linearGradient id="linear-gradient-102" x1="2379.61" y1="-893.01" x2="2122.54" y2="-1289.93" xlink:href="#linear-gradient-3"/><radialGradient id="radial-gradient" cx="424.81" cy="-12.12" r="242.67" gradientTransform="translate(0 9.2) scale(1 0.55)" gradientUnits="userSpaceOnUse"><stop offset="0" stop-color="#a30800"/><stop offset="1"/></radialGradient><radialGradient id="radial-gradient-2" cx="62.3" cy="250.56" r="242.53" xlink:href="#radial-gradient"/></defs><title>Asset 1</title><g class="cls-2"><g id="Layer_2" data-name="Layer 2"><g id="Layer_1-2" data-name="Layer 1"><rect class="cls-3" x="82.7" y="20.24" width="396" height="157.17"/><path class="cls-4" d="M94.5,177.41h.25v-6.23h12.59v6.23h.25v-6.23h12.58v6.23h.26v-6.23H133v6.23h.25v-6.23h12.59v6.23h.25v-6.23h12.58v6.23h.26v-6.23h12.58v6.23h.26v-6.23h12.58v6.23h.25v-6.23H197.2v6.23h.25v-6.23H210v6.23h.26v-6.23h12.58v6.23h.25v-6.23h12.59v6.23H236v-6.23h12.59v6.23h.25v-6.23h12.58v6.23h.26v-6.23h12.58v6.23h.25v-6.23h12.59v6.23h.25v-6.23h12.58v6.23h.26v-6.23h12.58v6.23H313v-6.23h12.59v6.23h.25v-6.23h12.59v6.23h.25v-6.23h12.58v6.23h.26v-6.23h12.58v6.23h.25v-6.23h12.59v6.23h.25v-6.23h12.59v6.23H390v-6.23h12.58v6.23h.26v-6.23h12.58v6.23h.25v-6.23h12.59v6.23h.25v-6.23H441.1v6.23h.26v-6.23h12.58v6.23h.26v-6.23h12.58v6.23H467v-6.23H478.7V171H467V164.3H478.7v-.14H467v-6.74H478.7v-.14H467v-6.74H478.7v-.13H467v-6.74H478.7v-.14H467v-6.74H478.7v-.14H467v-6.74H478.7v-.14H467V123H478.7v-.14H467v-6.74H478.7V116H467v-6.74H478.7v-.14H467V102.4H478.7v-.13H467V95.53H478.7v-.14H467V88.65H478.7v-.14H467V81.77H478.7v-.13H467V74.9H478.7v-.14H467V68H478.7v-.14H467V61.14H478.7V61H467V54.26H478.7v-.13H467V47.39H478.7v-.14H467V40.51H478.7v-.14H467V33.63H478.7V33.5H467V26.76H478.7v-.14H467V20.24h-.25v6.38H454.2V20.24h-.26v6.38H441.36V20.24h-.26v6.38H428.52V20.24h-.25v6.38H415.68V20.24h-.25v6.38H402.85V20.24h-.26v6.38H390V20.24h-.25v6.38H377.17V20.24h-.25v6.38H364.33V20.24h-.25v6.38H351.5V20.24h-.26v6.38H338.66V20.24h-.25v6.38H325.82V20.24h-.25v6.38H313V20.24h-.25v6.38H300.15V20.24h-.26v6.38H287.31V20.24h-.25v6.38H274.47V20.24h-.25v6.38H261.64V20.24h-.26v6.38H248.8V20.24h-.25v6.38H236V20.24h-.25v6.38H223.12V20.24h-.25v6.38H210.29V20.24H210v6.38H197.45V20.24h-.25v6.38H184.61V20.24h-.25v6.38H171.78V20.24h-.26v6.38H158.94V20.24h-.26v6.38H146.1V20.24h-.25v6.38H133.26V20.24H133v6.38H120.43V20.24h-.26v6.38H107.59V20.24h-.25v6.38H94.75V20.24H94.5v6.38H82.7v.14H94.5V33.5H82.7v.13H94.5v6.74H82.7v.14H94.5v6.74H82.7v.14H94.5v6.74H82.7v.13H94.5V61H82.7v.14H94.5v6.74H82.7V68H94.5v6.74H82.7v.14H94.5v6.74H82.7v.13H94.5v6.74H82.7v.14H94.5v6.74H82.7v.14H94.5v6.74H82.7v.13H94.5v6.74H82.7v.14H94.5V116H82.7v.14H94.5v6.74H82.7V123H94.5v6.73H82.7v.14H94.5v6.74H82.7v.14H94.5v6.74H82.7v.14H94.5v6.74H82.7v.13H94.5v6.74H82.7v.14H94.5v6.74H82.7v.14H94.5V171H82.7v.14H94.5ZM454.2,26.76h12.58V33.5H454.2Zm0,6.87h12.58v6.74H454.2Zm0,6.88h12.58v6.74H454.2Zm0,6.88h12.58v6.74H454.2Zm0,6.87h12.58V61H454.2Zm0,6.88h12.58v6.74H454.2Zm0,6.88h12.58v6.74H454.2Zm0,6.88h12.58v6.74H454.2Zm0,6.87h12.58v6.74H454.2Zm0,6.88h12.58v6.74H454.2Zm0,6.88h12.58v6.74H454.2Zm0,6.87h12.58v6.74H454.2Zm0,6.88h12.58V116H454.2Zm0,6.88h12.58v6.74H454.2Zm0,6.88h12.58v6.73H454.2Zm0,6.87h12.58v6.74H454.2Zm0,6.88h12.58v6.74H454.2Zm0,6.88h12.58v6.74H454.2Zm0,6.87h12.58v6.74H454.2Zm0,6.88h12.58v6.74H454.2Zm0,6.88h12.58V171H454.2ZM441.36,26.76h12.58V33.5H441.36Zm0,6.87h12.58v6.74H441.36Zm0,6.88h12.58v6.74H441.36Zm0,6.88h12.58v6.74H441.36Zm0,6.87h12.58V61H441.36Zm0,6.88h12.58v6.74H441.36Zm0,6.88h12.58v6.74H441.36Zm0,6.88h12.58v6.74H441.36Zm0,6.87h12.58v6.74H441.36Zm0,6.88h12.58v6.74H441.36Zm0,6.88h12.58v6.74H441.36Zm0,6.87h12.58v6.74H441.36Zm0,6.88h12.58V116H441.36Zm0,6.88h12.58v6.74H441.36Zm0,6.88h12.58v6.73H441.36Zm0,6.87h12.58v6.74H441.36Zm0,6.88h12.58v6.74H441.36Zm0,6.88h12.58v6.74H441.36Zm0,6.87h12.58v6.74H441.36Zm0,6.88h12.58v6.74H441.36Zm0,6.88h12.58V171H441.36ZM428.52,26.76H441.1V33.5H428.52Zm0,6.87H441.1v6.74H428.52Zm0,6.88H441.1v6.74H428.52Zm0,6.88H441.1v6.74H428.52Zm0,6.87H441.1V61H428.52Zm0,6.88H441.1v6.74H428.52Zm0,6.88H441.1v6.74H428.52Zm0,6.88H441.1v6.74H428.52Zm0,6.87H441.1v6.74H428.52Zm0,6.88H441.1v6.74H428.52Zm0,6.88H441.1v6.74H428.52Zm0,6.87H441.1v6.74H428.52Zm0,6.88H441.1V116H428.52Zm0,6.88H441.1v6.74H428.52Zm0,6.88H441.1v6.73H428.52Zm0,6.87H441.1v6.74H428.52Zm0,6.88H441.1v6.74H428.52Zm0,6.88H441.1v6.74H428.52Zm0,6.87H441.1v6.74H428.52Zm0,6.88H441.1v6.74H428.52Zm0,6.88H441.1V171H428.52ZM415.68,26.76h12.59V33.5H415.68Zm0,6.87h12.59v6.74H415.68Zm0,6.88h12.59v6.74H415.68Zm0,6.88h12.59v6.74H415.68Zm0,6.87h12.59V61H415.68Zm0,6.88h12.59v6.74H415.68Zm0,6.88h12.59v6.74H415.68Zm0,6.88h12.59v6.74H415.68Zm0,6.87h12.59v6.74H415.68Zm0,6.88h12.59v6.74H415.68Zm0,6.88h12.59v6.74H415.68Zm0,6.87h12.59v6.74H415.68Zm0,6.88h12.59V116H415.68Zm0,6.88h12.59v6.74H415.68Zm0,6.88h12.59v6.73H415.68Zm0,6.87h12.59v6.74H415.68Zm0,6.88h12.59v6.74H415.68Zm0,6.88h12.59v6.74H415.68Zm0,6.87h12.59v6.74H415.68Zm0,6.88h12.59v6.74H415.68Zm0,6.88h12.59V171H415.68ZM402.85,26.76h12.58V33.5H402.85Zm0,6.87h12.58v6.74H402.85Zm0,6.88h12.58v6.74H402.85Zm0,6.88h12.58v6.74H402.85Zm0,6.87h12.58V61H402.85Zm0,6.88h12.58v6.74H402.85Zm0,6.88h12.58v6.74H402.85Zm0,6.88h12.58v6.74H402.85Zm0,6.87h12.58v6.74H402.85Zm0,6.88h12.58v6.74H402.85Zm0,6.88h12.58v6.74H402.85Zm0,6.87h12.58v6.74H402.85Zm0,6.88h12.58V116H402.85Zm0,6.88h12.58v6.74H402.85Zm0,6.88h12.58v6.73H402.85Zm0,6.87h12.58v6.74H402.85Zm0,6.88h12.58v6.74H402.85Zm0,6.88h12.58v6.74H402.85Zm0,6.87h12.58v6.74H402.85Zm0,6.88h12.58v6.74H402.85Zm0,6.88h12.58V171H402.85ZM390,26.76h12.58V33.5H390Zm0,6.87h12.58v6.74H390Zm0,6.88h12.58v6.74H390Zm0,6.88h12.58v6.74H390Zm0,6.87h12.58V61H390Zm0,6.88h12.58v6.74H390ZM390,68h12.58v6.74H390Zm0,6.88h12.58v6.74H390Zm0,6.87h12.58v6.74H390Zm0,6.88h12.58v6.74H390Zm0,6.88h12.58v6.74H390Zm0,6.87h12.58v6.74H390Zm0,6.88h12.58V116H390Zm0,6.88h12.58v6.74H390Zm0,6.88h12.58v6.73H390Zm0,6.87h12.58v6.74H390Zm0,6.88h12.58v6.74H390Zm0,6.88h12.58v6.74H390Zm0,6.87h12.58v6.74H390Zm0,6.88h12.58v6.74H390Zm0,6.88h12.58V171H390ZM377.17,26.76h12.59V33.5H377.17Zm0,6.87h12.59v6.74H377.17Zm0,6.88h12.59v6.74H377.17Zm0,6.88h12.59v6.74H377.17Zm0,6.87h12.59V61H377.17Zm0,6.88h12.59v6.74H377.17Zm0,6.88h12.59v6.74H377.17Zm0,6.88h12.59v6.74H377.17Zm0,6.87h12.59v6.74H377.17Zm0,6.88h12.59v6.74H377.17Zm0,6.88h12.59v6.74H377.17Zm0,6.87h12.59v6.74H377.17Zm0,6.88h12.59V116H377.17Zm0,6.88h12.59v6.74H377.17Zm0,6.88h12.59v6.73H377.17Zm0,6.87h12.59v6.74H377.17Zm0,6.88h12.59v6.74H377.17Zm0,6.88h12.59v6.74H377.17Zm0,6.87h12.59v6.74H377.17Zm0,6.88h12.59v6.74H377.17Zm0,6.88h12.59V171H377.17ZM364.33,26.76h12.59V33.5H364.33Zm0,6.87h12.59v6.74H364.33Zm0,6.88h12.59v6.74H364.33Zm0,6.88h12.59v6.74H364.33Zm0,6.87h12.59V61H364.33Zm0,6.88h12.59v6.74H364.33Zm0,6.88h12.59v6.74H364.33Zm0,6.88h12.59v6.74H364.33Zm0,6.87h12.59v6.74H364.33Zm0,6.88h12.59v6.74H364.33Zm0,6.88h12.59v6.74H364.33Zm0,6.87h12.59v6.74H364.33Zm0,6.88h12.59V116H364.33Zm0,6.88h12.59v6.74H364.33Zm0,6.88h12.59v6.73H364.33Zm0,6.87h12.59v6.74H364.33Zm0,6.88h12.59v6.74H364.33Zm0,6.88h12.59v6.74H364.33Zm0,6.87h12.59v6.74H364.33Zm0,6.88h12.59v6.74H364.33Zm0,6.88h12.59V171H364.33ZM351.5,26.76h12.58V33.5H351.5Zm0,6.87h12.58v6.74H351.5Zm0,6.88h12.58v6.74H351.5Zm0,6.88h12.58v6.74H351.5Zm0,6.87h12.58V61H351.5Zm0,6.88h12.58v6.74H351.5Zm0,6.88h12.58v6.74H351.5Zm0,6.88h12.58v6.74H351.5Zm0,6.87h12.58v6.74H351.5Zm0,6.88h12.58v6.74H351.5Zm0,6.88h12.58v6.74H351.5Zm0,6.87h12.58v6.74H351.5Zm0,6.88h12.58V116H351.5Zm0,6.88h12.58v6.74H351.5Zm0,6.88h12.58v6.73H351.5Zm0,6.87h12.58v6.74H351.5Zm0,6.88h12.58v6.74H351.5Zm0,6.88h12.58v6.74H351.5Zm0,6.87h12.58v6.74H351.5Zm0,6.88h12.58v6.74H351.5Zm0,6.88h12.58V171H351.5ZM338.66,26.76h12.58V33.5H338.66Zm0,6.87h12.58v6.74H338.66Zm0,6.88h12.58v6.74H338.66Zm0,6.88h12.58v6.74H338.66Zm0,6.87h12.58V61H338.66Zm0,6.88h12.58v6.74H338.66Zm0,6.88h12.58v6.74H338.66Zm0,6.88h12.58v6.74H338.66Zm0,6.87h12.58v6.74H338.66Zm0,6.88h12.58v6.74H338.66Zm0,6.88h12.58v6.74H338.66Zm0,6.87h12.58v6.74H338.66Zm0,6.88h12.58V116H338.66Zm0,6.88h12.58v6.74H338.66Zm0,6.88h12.58v6.73H338.66Zm0,6.87h12.58v6.74H338.66Zm0,6.88h12.58v6.74H338.66Zm0,6.88h12.58v6.74H338.66Zm0,6.87h12.58v6.74H338.66Zm0,6.88h12.58v6.74H338.66Zm0,6.88h12.58V171H338.66ZM325.82,26.76h12.59V33.5H325.82Zm0,6.87h12.59v6.74H325.82Zm0,6.88h12.59v6.74H325.82Zm0,6.88h12.59v6.74H325.82Zm0,6.87h12.59V61H325.82Zm0,6.88h12.59v6.74H325.82Zm0,6.88h12.59v6.74H325.82Zm0,6.88h12.59v6.74H325.82Zm0,6.87h12.59v6.74H325.82Zm0,6.88h12.59v6.74H325.82Zm0,6.88h12.59v6.74H325.82Zm0,6.87h12.59v6.74H325.82Zm0,6.88h12.59V116H325.82Zm0,6.88h12.59v6.74H325.82Zm0,6.88h12.59v6.73H325.82Zm0,6.87h12.59v6.74H325.82Zm0,6.88h12.59v6.74H325.82Zm0,6.88h12.59v6.74H325.82Zm0,6.87h12.59v6.74H325.82Zm0,6.88h12.59v6.74H325.82Zm0,6.88h12.59V171H325.82ZM313,26.76h12.59V33.5H313Zm0,6.87h12.59v6.74H313Zm0,6.88h12.59v6.74H313Zm0,6.88h12.59v6.74H313Zm0,6.87h12.59V61H313Zm0,6.88h12.59v6.74H313ZM313,68h12.59v6.74H313Zm0,6.88h12.59v6.74H313Zm0,6.87h12.59v6.74H313Zm0,6.88h12.59v6.74H313Zm0,6.88h12.59v6.74H313Zm0,6.87h12.59v6.74H313Zm0,6.88h12.59V116H313Zm0,6.88h12.59v6.74H313Zm0,6.88h12.59v6.73H313Zm0,6.87h12.59v6.74H313Zm0,6.88h12.59v6.74H313Zm0,6.88h12.59v6.74H313Zm0,6.87h12.59v6.74H313Zm0,6.88h12.59v6.74H313Zm0,6.88h12.59V171H313ZM300.15,26.76h12.58V33.5H300.15Zm0,6.87h12.58v6.74H300.15Zm0,6.88h12.58v6.74H300.15Zm0,6.88h12.58v6.74H300.15Zm0,6.87h12.58V61H300.15Zm0,6.88h12.58v6.74H300.15Zm0,6.88h12.58v6.74H300.15Zm0,6.88h12.58v6.74H300.15Zm0,6.87h12.58v6.74H300.15Zm0,6.88h12.58v6.74H300.15Zm0,6.88h12.58v6.74H300.15Zm0,6.87h12.58v6.74H300.15Zm0,6.88h12.58V116H300.15Zm0,6.88h12.58v6.74H300.15Zm0,6.88h12.58v6.73H300.15Zm0,6.87h12.58v6.74H300.15Zm0,6.88h12.58v6.74H300.15Zm0,6.88h12.58v6.74H300.15Zm0,6.87h12.58v6.74H300.15Zm0,6.88h12.58v6.74H300.15Zm0,6.88h12.58V171H300.15ZM287.31,26.76h12.58V33.5H287.31Zm0,6.87h12.58v6.74H287.31Zm0,6.88h12.58v6.74H287.31Zm0,6.88h12.58v6.74H287.31Zm0,6.87h12.58V61H287.31Zm0,6.88h12.58v6.74H287.31Zm0,6.88h12.58v6.74H287.31Zm0,6.88h12.58v6.74H287.31Zm0,6.87h12.58v6.74H287.31Zm0,6.88h12.58v6.74H287.31Zm0,6.88h12.58v6.74H287.31Zm0,6.87h12.58v6.74H287.31Zm0,6.88h12.58V116H287.31Zm0,6.88h12.58v6.74H287.31Zm0,6.88h12.58v6.73H287.31Zm0,6.87h12.58v6.74H287.31Zm0,6.88h12.58v6.74H287.31Zm0,6.88h12.58v6.74H287.31Zm0,6.87h12.58v6.74H287.31Zm0,6.88h12.58v6.74H287.31Zm0,6.88h12.58V171H287.31ZM274.47,26.76h12.59V33.5H274.47Zm0,6.87h12.59v6.74H274.47Zm0,6.88h12.59v6.74H274.47Zm0,6.88h12.59v6.74H274.47Zm0,6.87h12.59V61H274.47Zm0,6.88h12.59v6.74H274.47Zm0,6.88h12.59v6.74H274.47Zm0,6.88h12.59v6.74H274.47Zm0,6.87h12.59v6.74H274.47Zm0,6.88h12.59v6.74H274.47Zm0,6.88h12.59v6.74H274.47Zm0,6.87h12.59v6.74H274.47Zm0,6.88h12.59V116H274.47Zm0,6.88h12.59v6.74H274.47Zm0,6.88h12.59v6.73H274.47Zm0,6.87h12.59v6.74H274.47Zm0,6.88h12.59v6.74H274.47Zm0,6.88h12.59v6.74H274.47Zm0,6.87h12.59v6.74H274.47Zm0,6.88h12.59v6.74H274.47Zm0,6.88h12.59V171H274.47ZM261.64,26.76h12.58V33.5H261.64Zm0,6.87h12.58v6.74H261.64Zm0,6.88h12.58v6.74H261.64Zm0,6.88h12.58v6.74H261.64Zm0,6.87h12.58V61H261.64Zm0,6.88h12.58v6.74H261.64Zm0,6.88h12.58v6.74H261.64Zm0,6.88h12.58v6.74H261.64Zm0,6.87h12.58v6.74H261.64Zm0,6.88h12.58v6.74H261.64Zm0,6.88h12.58v6.74H261.64Zm0,6.87h12.58v6.74H261.64Zm0,6.88h12.58V116H261.64Zm0,6.88h12.58v6.74H261.64Zm0,6.88h12.58v6.73H261.64Zm0,6.87h12.58v6.74H261.64Zm0,6.88h12.58v6.74H261.64Zm0,6.88h12.58v6.74H261.64Zm0,6.87h12.58v6.74H261.64Zm0,6.88h12.58v6.74H261.64Zm0,6.88h12.58V171H261.64ZM248.8,26.76h12.58V33.5H248.8Zm0,6.87h12.58v6.74H248.8Zm0,6.88h12.58v6.74H248.8Zm0,6.88h12.58v6.74H248.8Zm0,6.87h12.58V61H248.8Zm0,6.88h12.58v6.74H248.8Zm0,6.88h12.58v6.74H248.8Zm0,6.88h12.58v6.74H248.8Zm0,6.87h12.58v6.74H248.8Zm0,6.88h12.58v6.74H248.8Zm0,6.88h12.58v6.74H248.8Zm0,6.87h12.58v6.74H248.8Zm0,6.88h12.58V116H248.8Zm0,6.88h12.58v6.74H248.8Zm0,6.88h12.58v6.73H248.8Zm0,6.87h12.58v6.74H248.8Zm0,6.88h12.58v6.74H248.8Zm0,6.88h12.58v6.74H248.8Zm0,6.87h12.58v6.74H248.8Zm0,6.88h12.58v6.74H248.8Zm0,6.88h12.58V171H248.8ZM236,26.76h12.59V33.5H236Zm0,6.87h12.59v6.74H236Zm0,6.88h12.59v6.74H236Zm0,6.88h12.59v6.74H236Zm0,6.87h12.59V61H236Zm0,6.88h12.59v6.74H236ZM236,68h12.59v6.74H236Zm0,6.88h12.59v6.74H236Zm0,6.87h12.59v6.74H236Zm0,6.88h12.59v6.74H236Zm0,6.88h12.59v6.74H236Zm0,6.87h12.59v6.74H236Zm0,6.88h12.59V116H236Zm0,6.88h12.59v6.74H236Zm0,6.88h12.59v6.73H236Zm0,6.87h12.59v6.74H236Zm0,6.88h12.59v6.74H236Zm0,6.88h12.59v6.74H236Zm0,6.87h12.59v6.74H236Zm0,6.88h12.59v6.74H236Zm0,6.88h12.59V171H236ZM223.12,26.76h12.59V33.5H223.12Zm0,6.87h12.59v6.74H223.12Zm0,6.88h12.59v6.74H223.12Zm0,6.88h12.59v6.74H223.12Zm0,6.87h12.59V61H223.12Zm0,6.88h12.59v6.74H223.12Zm0,6.88h12.59v6.74H223.12Zm0,6.88h12.59v6.74H223.12Zm0,6.87h12.59v6.74H223.12Zm0,6.88h12.59v6.74H223.12Zm0,6.88h12.59v6.74H223.12Zm0,6.87h12.59v6.74H223.12Zm0,6.88h12.59V116H223.12Zm0,6.88h12.59v6.74H223.12Zm0,6.88h12.59v6.73H223.12Zm0,6.87h12.59v6.74H223.12Zm0,6.88h12.59v6.74H223.12Zm0,6.88h12.59v6.74H223.12Zm0,6.87h12.59v6.74H223.12Zm0,6.88h12.59v6.74H223.12Zm0,6.88h12.59V171H223.12ZM210.29,26.76h12.58V33.5H210.29Zm0,6.87h12.58v6.74H210.29Zm0,6.88h12.58v6.74H210.29Zm0,6.88h12.58v6.74H210.29Zm0,6.87h12.58V61H210.29Zm0,6.88h12.58v6.74H210.29Zm0,6.88h12.58v6.74H210.29Zm0,6.88h12.58v6.74H210.29Zm0,6.87h12.58v6.74H210.29Zm0,6.88h12.58v6.74H210.29Zm0,6.88h12.58v6.74H210.29Zm0,6.87h12.58v6.74H210.29Zm0,6.88h12.58V116H210.29Zm0,6.88h12.58v6.74H210.29Zm0,6.88h12.58v6.73H210.29Zm0,6.87h12.58v6.74H210.29Zm0,6.88h12.58v6.74H210.29Zm0,6.88h12.58v6.74H210.29Zm0,6.87h12.58v6.74H210.29Zm0,6.88h12.58v6.74H210.29Zm0,6.88h12.58V171H210.29ZM197.45,26.76H210V33.5H197.45Zm0,6.87H210v6.74H197.45Zm0,6.88H210v6.74H197.45Zm0,6.88H210v6.74H197.45Zm0,6.87H210V61H197.45Zm0,6.88H210v6.74H197.45Zm0,6.88H210v6.74H197.45Zm0,6.88H210v6.74H197.45Zm0,6.87H210v6.74H197.45Zm0,6.88H210v6.74H197.45Zm0,6.88H210v6.74H197.45Zm0,6.87H210v6.74H197.45Zm0,6.88H210V116H197.45Zm0,6.88H210v6.74H197.45Zm0,6.88H210v6.73H197.45Zm0,6.87H210v6.74H197.45Zm0,6.88H210v6.74H197.45Zm0,6.88H210v6.74H197.45Zm0,6.87H210v6.74H197.45Zm0,6.88H210v6.74H197.45Zm0,6.88H210V171H197.45ZM184.61,26.76H197.2V33.5H184.61Zm0,6.87H197.2v6.74H184.61Zm0,6.88H197.2v6.74H184.61Zm0,6.88H197.2v6.74H184.61Zm0,6.87H197.2V61H184.61Zm0,6.88H197.2v6.74H184.61Zm0,6.88H197.2v6.74H184.61Zm0,6.88H197.2v6.74H184.61Zm0,6.87H197.2v6.74H184.61Zm0,6.88H197.2v6.74H184.61Zm0,6.88H197.2v6.74H184.61Zm0,6.87H197.2v6.74H184.61Zm0,6.88H197.2V116H184.61Zm0,6.88H197.2v6.74H184.61Zm0,6.88H197.2v6.73H184.61Zm0,6.87H197.2v6.74H184.61Zm0,6.88H197.2v6.74H184.61Zm0,6.88H197.2v6.74H184.61Zm0,6.87H197.2v6.74H184.61Zm0,6.88H197.2v6.74H184.61Zm0,6.88H197.2V171H184.61ZM171.78,26.76h12.58V33.5H171.78Zm0,6.87h12.58v6.74H171.78Zm0,6.88h12.58v6.74H171.78Zm0,6.88h12.58v6.74H171.78Zm0,6.87h12.58V61H171.78Zm0,6.88h12.58v6.74H171.78Zm0,6.88h12.58v6.74H171.78Zm0,6.88h12.58v6.74H171.78Zm0,6.87h12.58v6.74H171.78Zm0,6.88h12.58v6.74H171.78Zm0,6.88h12.58v6.74H171.78Zm0,6.87h12.58v6.74H171.78Zm0,6.88h12.58V116H171.78Zm0,6.88h12.58v6.74H171.78Zm0,6.88h12.58v6.73H171.78Zm0,6.87h12.58v6.74H171.78Zm0,6.88h12.58v6.74H171.78Zm0,6.88h12.58v6.74H171.78Zm0,6.87h12.58v6.74H171.78Zm0,6.88h12.58v6.74H171.78Zm0,6.88h12.58V171H171.78ZM158.94,26.76h12.58V33.5H158.94Zm0,6.87h12.58v6.74H158.94Zm0,6.88h12.58v6.74H158.94Zm0,6.88h12.58v6.74H158.94Zm0,6.87h12.58V61H158.94Zm0,6.88h12.58v6.74H158.94Zm0,6.88h12.58v6.74H158.94Zm0,6.88h12.58v6.74H158.94Zm0,6.87h12.58v6.74H158.94Zm0,6.88h12.58v6.74H158.94Zm0,6.88h12.58v6.74H158.94Zm0,6.87h12.58v6.74H158.94Zm0,6.88h12.58V116H158.94Zm0,6.88h12.58v6.74H158.94Zm0,6.88h12.58v6.73H158.94Zm0,6.87h12.58v6.74H158.94Zm0,6.88h12.58v6.74H158.94Zm0,6.88h12.58v6.74H158.94Zm0,6.87h12.58v6.74H158.94Zm0,6.88h12.58v6.74H158.94Zm0,6.88h12.58V171H158.94ZM146.1,26.76h12.58V33.5H146.1Zm0,6.87h12.58v6.74H146.1Zm0,6.88h12.58v6.74H146.1Zm0,6.88h12.58v6.74H146.1Zm0,6.87h12.58V61H146.1Zm0,6.88h12.58v6.74H146.1Zm0,6.88h12.58v6.74H146.1Zm0,6.88h12.58v6.74H146.1Zm0,6.87h12.58v6.74H146.1Zm0,6.88h12.58v6.74H146.1Zm0,6.88h12.58v6.74H146.1Zm0,6.87h12.58v6.74H146.1Zm0,6.88h12.58V116H146.1Zm0,6.88h12.58v6.74H146.1Zm0,6.88h12.58v6.73H146.1Zm0,6.87h12.58v6.74H146.1Zm0,6.88h12.58v6.74H146.1Zm0,6.88h12.58v6.74H146.1Zm0,6.87h12.58v6.74H146.1Zm0,6.88h12.58v6.74H146.1Zm0,6.88h12.58V171H146.1ZM133.26,26.76h12.59V33.5H133.26Zm0,6.87h12.59v6.74H133.26Zm0,6.88h12.59v6.74H133.26Zm0,6.88h12.59v6.74H133.26Zm0,6.87h12.59V61H133.26Zm0,6.88h12.59v6.74H133.26Zm0,6.88h12.59v6.74H133.26Zm0,6.88h12.59v6.74H133.26Zm0,6.87h12.59v6.74H133.26Zm0,6.88h12.59v6.74H133.26Zm0,6.88h12.59v6.74H133.26Zm0,6.87h12.59v6.74H133.26Zm0,6.88h12.59V116H133.26Zm0,6.88h12.59v6.74H133.26Zm0,6.88h12.59v6.73H133.26Zm0,6.87h12.59v6.74H133.26Zm0,6.88h12.59v6.74H133.26Zm0,6.88h12.59v6.74H133.26Zm0,6.87h12.59v6.74H133.26Zm0,6.88h12.59v6.74H133.26Zm0,6.88h12.59V171H133.26ZM120.43,26.76H133V33.5H120.43Zm0,6.87H133v6.74H120.43Zm0,6.88H133v6.74H120.43Zm0,6.88H133v6.74H120.43Zm0,6.87H133V61H120.43Zm0,6.88H133v6.74H120.43Zm0,6.88H133v6.74H120.43Zm0,6.88H133v6.74H120.43Zm0,6.87H133v6.74H120.43Zm0,6.88H133v6.74H120.43Zm0,6.88H133v6.74H120.43Zm0,6.87H133v6.74H120.43Zm0,6.88H133V116H120.43Zm0,6.88H133v6.74H120.43Zm0,6.88H133v6.73H120.43Zm0,6.87H133v6.74H120.43Zm0,6.88H133v6.74H120.43Zm0,6.88H133v6.74H120.43Zm0,6.87H133v6.74H120.43Zm0,6.88H133v6.74H120.43Zm0,6.88H133V171H120.43ZM107.59,26.76h12.58V33.5H107.59Zm0,6.87h12.58v6.74H107.59Zm0,6.88h12.58v6.74H107.59Zm0,6.88h12.58v6.74H107.59Zm0,6.87h12.58V61H107.59Zm0,6.88h12.58v6.74H107.59Zm0,6.88h12.58v6.74H107.59Zm0,6.88h12.58v6.74H107.59Zm0,6.87h12.58v6.74H107.59Zm0,6.88h12.58v6.74H107.59Zm0,6.88h12.58v6.74H107.59Zm0,6.87h12.58v6.74H107.59Zm0,6.88h12.58V116H107.59Zm0,6.88h12.58v6.74H107.59Zm0,6.88h12.58v6.73H107.59Zm0,6.87h12.58v6.74H107.59Zm0,6.88h12.58v6.74H107.59Zm0,6.88h12.58v6.74H107.59Zm0,6.87h12.58v6.74H107.59Zm0,6.88h12.58v6.74H107.59Zm0,6.88h12.58V171H107.59ZM94.75,26.76h12.59V33.5H94.75Zm0,6.87h12.59v6.74H94.75Zm0,6.88h12.59v6.74H94.75Zm0,6.88h12.59v6.74H94.75Zm0,6.87h12.59V61H94.75Zm0,6.88h12.59v6.74H94.75Zm0,6.88h12.59v6.74H94.75Zm0,6.88h12.59v6.74H94.75Zm0,6.87h12.59v6.74H94.75Zm0,6.88h12.59v6.74H94.75Zm0,6.88h12.59v6.74H94.75Zm0,6.87h12.59v6.74H94.75Zm0,6.88h12.59V116H94.75Zm0,6.88h12.59v6.74H94.75Zm0,6.88h12.59v6.73H94.75Zm0,6.87h12.59v6.74H94.75Zm0,6.88h12.59v6.74H94.75Zm0,6.88h12.59v6.74H94.75Zm0,6.87h12.59v6.74H94.75Zm0,6.88h12.59v6.74H94.75Zm0,6.88h12.59V171H94.75Z"/><g class="cls-5"><polygon class="cls-6" points="38.91 43.01 51.87 55.26 38.91 67.52 12.97 67.52 0 55.26 12.97 43.01 38.91 43.01"/><polygon class="cls-6" points="81.27 168.97 89.68 176.92 81.27 184.88 64.44 184.88 56.02 176.92 64.44 168.97 81.27 168.97"/><g class="cls-7"><path class="cls-8" d="M126.15,22.41l19.52,18.45L126.15,59.31h-39L67.6,40.86,87.12,22.41h39m1-.94h-41L65.6,40.86l20.52,19.4h41l20.52-19.4L127.15,21.47Z"/></g><g class="cls-7"><path class="cls-8" d="M79.56,130.2l7.33,6.93-7.33,6.92H64.9l-7.33-6.92,7.33-6.93H79.56m.38-.36H64.52l-7.7,7.29,7.7,7.28H79.94l7.71-7.28-7.71-7.29Z"/></g><polygon class="cls-9" points="276.44 136.41 283.25 142.84 276.44 149.28 262.84 149.28 256.03 142.84 262.84 136.41 276.44 136.41"/><polygon class="cls-9" points="211.31 173.99 227.86 189.63 211.31 205.27 178.22 205.27 161.67 189.63 178.22 173.99 211.31 173.99"/><g class="cls-10"><path class="cls-11" d="M114,191.5l11.44,10.81L114,213.11H91.11l-11.43-10.8L91.11,191.5H114m.59-.56h-24l-12,11.37,12,11.36h24l12-11.36-12-11.37Z"/></g><g class="cls-10"><path class="cls-11" d="M49.35,73.15l7.9,7.46-7.9,7.46H33.56l-7.9-7.46,7.9-7.46H49.35m.4-.39H33.15l-8.3,7.85,8.3,7.85h16.6l8.31-7.85-8.31-7.85Z"/></g><polygon class="cls-12" points="227.41 154.4 234.09 160.72 227.41 167.04 214.04 167.04 207.36 160.72 214.04 154.4 227.41 154.4"/><polygon class="cls-12" points="170.64 47.08 191.42 66.72 170.64 86.36 129.09 86.36 108.31 66.72 129.09 47.08 170.64 47.08"/><g class="cls-10"><path class="cls-13" d="M113.1,79.49l18.66,17.64L113.1,114.77H75.78L57.12,97.13,75.78,79.49H113.1m1-.9H74.82L55.2,97.13l19.62,18.55h39.24l19.62-18.55L114.06,78.59Z"/></g><g class="cls-10"><path class="cls-13" d="M41.44,168.57l11.4,10.77-11.4,10.78H18.64L7.24,179.34l11.4-10.77h22.8M42,168h-24l-12,11.32,12,11.33H42l12-11.33L42,168Z"/></g><g class="cls-14"><path class="cls-11" d="M166.15,101.48l5.68,5.37-5.68,5.38H154.77l-5.69-5.38,5.69-5.37h11.38m.29-.28h-12l-6,5.65,6,5.66h12l6-5.66-6-5.65Z"/></g><g class="cls-14"><path class="cls-11" d="M81.23,36.49,97.7,52.05,81.23,67.61H48.31L31.84,52.05,48.31,36.49H81.23m.85-.8H47.46L30.15,52.05,47.46,68.41H82.08L99.39,52.05,82.08,35.69Z"/></g><polygon class="cls-15" points="154.44 179.87 161.26 186.31 154.44 192.77 140.79 192.77 133.97 186.31 140.79 179.87 154.44 179.87"/><polygon class="cls-15" points="172.93 205.27 180.86 212.77 172.93 220.26 157.07 220.26 149.14 212.77 157.07 205.27 172.93 205.27"/><g class="cls-16"><path class="cls-11" d="M255.85,104.12l6.06,5.73-6.06,5.73H243.73l-6.07-5.73,6.07-5.73h12.12m.31-.3H243.41l-6.37,6,6.37,6h12.75l6.38-6-6.38-6Z"/></g><g class="cls-16"><path class="cls-11" d="M48.93,106l7.21,6.82-7.21,6.82H34.51l-7.21-6.82L34.51,106H48.93m.37-.35H34.14l-7.59,7.17L34.14,120H49.3l7.58-7.17-7.58-7.17Z"/></g><g class="cls-7"><path class="cls-8" d="M47,201.57l6.07,5.73L47,213H34.9l-6.08-5.74,6.08-5.73H47m.08-.08H34.82l-6.15,5.81,6.15,5.81h12.3l6.14-5.81-6.14-5.81Z"/></g><g class="cls-7"><path class="cls-8" d="M116.6,51.85,133,67.39,116.6,82.93H83.72L67.27,67.39,83.72,51.85H116.6m.2-.19H83.51L66.86,67.39,83.51,83.13H116.8l16.65-15.74L116.8,51.66Z"/></g><g class="cls-10"><path class="cls-11" d="M249.8,194.94l9.6,9.07-9.6,9.07H230.6L221,204l9.6-9.07h19.2m.12-.11H230.49L220.77,204l9.72,9.19h19.43l9.72-9.19-9.72-9.18Z"/></g><g class="cls-10"><path class="cls-11" d="M205.48,75.13l11.75,11.11-11.75,11.1H182l-11.76-11.1L182,75.13h23.49m.15-.13H181.84l-11.9,11.24,11.9,11.24h23.79l11.89-11.24L205.63,75Z"/></g><g class="cls-10"><path class="cls-13" d="M54.47,22.62l14.07,13.3L54.47,49.21H26.34L12.27,35.92l14.07-13.3H54.47m.18-.16H26.17L11.93,35.92,26.17,49.38H54.65L68.88,35.92,54.65,22.46Z"/></g><g class="cls-10"><path class="cls-13" d="M273,168.35l7.62,7.2L273,182.76H257.72l-7.62-7.21,7.62-7.2H273m.1-.09H257.63l-7.72,7.29,7.72,7.3h15.43l7.71-7.3-7.71-7.29Z"/></g><g class="cls-14"><path class="cls-11" d="M37.72,142.83l6.87,6.49-6.87,6.49H24l-6.86-6.49L24,142.83H37.72m.08-.08H23.9L17,149.32l7,6.57H37.8l7-6.57-7-6.57Z"/></g><g class="cls-14"><path class="cls-11" d="M190.06,132.79l18.05,17.05L190.06,166.9H154l-18-17.06,18-17.05h36.08m.23-.21H153.76l-18.27,17.26,18.27,17.27h36.53l18.27-17.27-18.27-17.26Z"/></g><g class="cls-16"><path class="cls-11" d="M146.61,104.44l22.58,21.34-22.58,21.34H101.46L78.89,125.78l22.57-21.34h45.15m.28-.26H101.18l-22.85,21.6,22.85,21.61h45.71l22.86-21.61-22.86-21.6Z"/></g><g class="cls-16"><path class="cls-11" d="M214.88,121.64l6.46,6.11-6.46,6.11H202l-6.46-6.11,6.46-6.11h12.93m.08-.07H201.87l-6.54,6.18,6.54,6.18H215l6.54-6.18L215,121.57Z"/></g><polygon class="cls-6" points="555.34 177.26 542.37 165 555.34 152.74 581.28 152.74 594.25 165 581.28 177.26 555.34 177.26"/><polygon class="cls-6" points="512.98 51.3 504.57 43.34 512.98 35.39 529.81 35.39 538.22 43.34 529.81 51.3 512.98 51.3"/><g class="cls-7"><path class="cls-8" d="M507.13,161l19.51,18.45-19.51,18.45h-39L448.58,179.4,468.1,161h39m1-.94h-41L446.57,179.4l20.52,19.4h41l20.52-19.4L508.13,160Z"/></g><g class="cls-7"><path class="cls-8" d="M529.35,76.21l7.33,6.93-7.33,6.93H514.69l-7.34-6.93,7.34-6.93h14.66m.37-.36H514.31l-7.71,7.29,7.71,7.29h15.41l7.71-7.29-7.71-7.29Z"/></g><polygon class="cls-9" points="317.8 83.85 311 77.42 317.8 70.99 331.41 70.99 338.21 77.42 331.41 83.85 317.8 83.85"/><polygon class="cls-9" points="382.94 46.28 366.39 30.64 382.94 15 416.03 15 432.57 30.64 416.03 46.28 382.94 46.28"/><g class="cls-10"><path class="cls-11" d="M503.14,7.15,514.57,18l-11.43,10.8H480.27L468.84,18,480.27,7.15h22.87m.58-.55h-24L467.66,18l12,11.36h24l12-11.36-12-11.36Z"/></g><g class="cls-10"><path class="cls-11" d="M560.69,132.19l7.89,7.46-7.89,7.47H544.9l-7.9-7.47,7.9-7.46h15.79m.4-.38h-16.6l-8.3,7.84,8.3,7.85h16.6l8.31-7.85-8.31-7.84Z"/></g><polygon class="cls-12" points="366.84 65.86 360.15 59.55 366.84 53.23 380.21 53.23 386.89 59.55 380.21 65.86 366.84 65.86"/><polygon class="cls-12" points="423.61 173.18 402.83 153.54 423.61 133.9 465.16 133.9 485.94 153.54 465.16 173.18 423.61 173.18"/><g class="cls-10"><path class="cls-13" d="M518.46,105.49l18.67,17.64-18.67,17.64H481.14l-18.66-17.64,18.66-17.64h37.32m1-.91H480.18l-19.61,18.55,19.61,18.55h39.24l19.63-18.55-19.63-18.55Z"/></g><g class="cls-10"><path class="cls-13" d="M575.6,30.15,587,40.92,575.6,51.69H552.81l-11.4-10.77,11.4-10.77H575.6m.59-.56h-24l-12,11.33,12,11.33h24l12-11.33-12-11.33Z"/></g><g class="cls-14"><path class="cls-11" d="M439.48,108l5.68,5.38-5.68,5.37H428.1l-5.69-5.37L428.1,108h11.38m.29-.27h-12l-6,5.65,6,5.65h12l6-5.65-6-5.65Z"/></g><g class="cls-14"><path class="cls-11" d="M545.94,152.65l16.47,15.57-16.47,15.55H513l-16.46-15.55L513,152.65h32.93m.85-.8H512.17l-17.31,16.37,17.31,16.35h34.62l17.31-16.35-17.31-16.37Z"/></g><polygon class="cls-15" points="439.81 40.4 432.98 33.95 439.81 27.5 453.45 27.5 460.28 33.95 453.45 40.4 439.81 40.4"/><polygon class="cls-15" points="421.31 14.99 413.38 7.5 421.31 0 437.17 0 445.1 7.5 437.17 14.99 421.31 14.99"/><g class="cls-16"><path class="cls-11" d="M350.52,104.69l6.06,5.73-6.06,5.73H338.4l-6.07-5.73,6.07-5.73h12.12m.31-.3H338.08l-6.37,6,6.37,6h12.75l6.38-6-6.38-6Z"/></g><g class="cls-16"><path class="cls-11" d="M559.74,100.59l7.21,6.82-7.21,6.81H545.32l-7.21-6.81,7.21-6.82h14.42m.37-.35H545l-7.59,7.17,7.59,7.16h15.16l7.58-7.16-7.58-7.17Z"/></g><g class="cls-7"><path class="cls-8" d="M559.35,7.22,565.42,13l-6.07,5.74H547.21L541.14,13l6.07-5.74h12.14m.07-.07H547.13L541,13l6.14,5.81h12.29L565.57,13l-6.15-5.81Z"/></g><g class="cls-7"><path class="cls-8" d="M510.53,137.33,527,152.87l-16.45,15.54H477.65l-16.44-15.54,16.44-15.54h32.88m.21-.19H477.45L460.8,152.87l16.65,15.74h33.29l16.65-15.74-16.65-15.73Z"/></g><g class="cls-10"><path class="cls-11" d="M363.64,7.18l9.6,9.08-9.6,9.07h-19.2l-9.6-9.07,9.6-9.08h19.2m.12-.11H344.32l-9.71,9.19,9.71,9.18h19.44l9.72-9.18-9.72-9.19Z"/></g><g class="cls-10"><path class="cls-11" d="M412.26,122.92,424,134l-11.75,11.1h-23.5L377,134l11.74-11.11h23.5m.15-.14H388.62L376.73,134l11.89,11.24h23.79L424.3,134l-11.89-11.25Z"/></g><g class="cls-10"><path class="cls-13" d="M567.91,171.05,582,184.35l-14.06,13.29H539.78l-14.07-13.29,14.07-13.3h28.13m.17-.16H539.6l-14.24,13.46,14.24,13.46h28.48l14.24-13.46-14.24-13.46Z"/></g><g class="cls-10"><path class="cls-13" d="M336.53,37.51l7.62,7.2-7.62,7.21H321.28l-7.62-7.21,7.62-7.2h15.25m.09-.09H321.19l-7.72,7.29,7.72,7.3h15.43l7.72-7.3-7.72-7.29Z"/></g><g class="cls-14"><path class="cls-11" d="M570.26,64.45l6.87,6.49-6.87,6.49H556.53l-6.87-6.49,6.87-6.49h13.73m.09-.08h-13.9l-7,6.57,7,6.58h13.9l6.95-6.58-6.95-6.57Z"/></g><g class="cls-14"><path class="cls-11" d="M440.26,53.37l18.05,17.05-18.05,17H404.18l-18.05-17,18.05-17.05h36.08m.23-.21H404L385.69,70.42,404,87.68h36.53l18.26-17.26L440.49,53.16Z"/></g><g class="cls-16"><path class="cls-11" d="M492.78,73.14l22.58,21.35-22.58,21.33H447.63L425.06,94.49l22.57-21.35h45.15m.28-.26H447.35L424.5,94.49l22.85,21.6h45.71l22.86-21.6L493.06,72.88Z"/></g><g class="cls-16"><path class="cls-11" d="M392.29,86.41l6.47,6.11-6.47,6.1H379.37l-6.46-6.1,6.46-6.11h12.92m.08-.08H379.29l-6.54,6.19,6.54,6.18h13.08l6.55-6.18-6.55-6.19Z"/></g><g class="cls-17"><polygon class="cls-18" points="487.5 83.95 462.36 83.95 446.11 68.59 462.36 53.23 487.5 53.23 487.5 53.1 462.22 53.1 445.86 68.56 445.82 68.59 462.18 84.05 462.22 84.09 487.5 84.09 487.5 83.95"/><polygon class="cls-19" points="487.5 114.81 462.36 114.81 446.11 99.45 462.36 84.09 487.5 84.09 487.5 83.95 462.22 83.95 445.86 99.42 445.82 99.45 462.18 114.91 462.22 114.94 487.5 114.94 487.5 114.81"/><polygon class="cls-20" points="487.5 145.67 462.36 145.67 446.11 130.31 462.36 114.94 487.5 114.94 487.5 114.81 462.22 114.81 445.86 130.27 445.82 130.31 462.18 145.77 462.22 145.8 487.5 145.8 487.5 145.67"/><polygon class="cls-21" points="487.5 176.52 462.36 176.52 446.11 161.16 462.36 145.8 487.5 145.8 487.5 145.67 462.22 145.67 445.86 161.13 445.82 161.16 462.18 176.62 462.22 176.66 487.5 176.66 487.5 176.52"/><polygon class="cls-22" points="487.5 176.52 462.22 176.52 453.27 184.98 453.55 184.98 462.36 176.66 487.5 176.66 487.5 176.52"/><path class="cls-23" d="M396.86,84l0,0,16.36-15.47H446l0,0L462.43,84l0,0L446,99.52H413.25l0,0Zm16.53-15.36L397.14,84l16.25,15.36h32.5L462.15,84,445.89,68.66Z"/><path class="cls-24" d="M396.86,114.88l0,0,16.36-15.46H446l0,0,16.36,15.47,0,0L446,130.37H413.25l0,0Zm16.53-15.36-16.25,15.36,16.25,15.36h32.5l16.26-15.36L445.89,99.52Z"/><path class="cls-25" d="M396.86,145.73l0,0,16.36-15.46H446l0,0,16.36,15.46,0,0L446,161.23H413.25l0,0Zm16.53-15.36-16.25,15.36,16.25,15.37h32.5l16.26-15.37-16.26-15.36Z"/><polygon class="cls-26" points="406.01 184.98 397.14 176.59 413.39 161.23 445.89 161.23 462.14 176.59 453.27 184.98 453.55 184.98 462.39 176.62 462.43 176.59 446.07 161.13 446.04 161.09 413.25 161.09 396.89 176.56 396.86 176.59 405.73 184.98 406.01 184.98"/><path class="cls-27" d="M347.89,130.31l0,0,16.36-15.46h32.79l0,0,16.36,15.47,0,0L397.07,145.8H364.28l0,0Zm16.53-15.37-16.25,15.37,16.25,15.36h32.51l16.25-15.36-16.25-15.37Z"/><path class="cls-28" d="M347.89,161.16l0,0,16.36-15.46h32.79l0,0,16.36,15.46,0,0-16.36,15.46H364.28l0,0Zm16.53-15.36-16.25,15.36,16.25,15.36h32.51l16.25-15.36L396.93,145.8Z"/><polygon class="cls-29" points="355.62 184.98 364.42 176.66 396.93 176.66 405.73 184.98 406.01 184.98 397.1 176.56 397.07 176.52 364.28 176.52 355.34 184.98 355.62 184.98"/><path class="cls-30" d="M298.92,145.73l0,0,16.36-15.46H348.1l0,0,16.36,15.46,0,0L348.1,161.23H315.32l0,0Zm16.54-15.36-16.25,15.36,16.25,15.37H348l16.25-15.37L348,130.37Z"/><polygon class="cls-31" points="308.08 184.98 299.21 176.59 315.46 161.23 347.96 161.23 364.21 176.59 355.34 184.98 355.62 184.98 364.46 176.62 364.5 176.59 348.14 161.13 348.1 161.09 315.31 161.09 298.96 176.56 298.92 176.59 307.8 184.98 308.08 184.98"/><path class="cls-32" d="M250,161.16l0,0,16.36-15.46h32.78l0,0,16.36,15.46,0,0-16.36,15.46H266.35l0,0Zm16.54-15.36-16.25,15.36,16.25,15.36H299l16.25-15.36L299,145.8Z"/><polygon class="cls-33" points="257.69 184.98 266.49 176.66 298.99 176.66 307.8 184.98 308.08 184.98 299.17 176.56 299.13 176.52 266.35 176.52 257.4 184.98 257.69 184.98"/><polygon class="cls-34" points="252.08 4.87 250.03 6.81 217.52 6.81 215.47 4.87 215.19 4.87 217.34 6.91 217.38 6.94 250.17 6.94 252.36 4.87 252.08 4.87"/><path class="cls-35" d="M201,22.31l0,0L217.38,6.81h32.79l0,0,16.36,15.47,0,0L250.17,37.8H217.38l0,0ZM217.52,6.94,201.27,22.31l16.25,15.36H250l16.25-15.36L250,6.94Z"/><polygon class="cls-36" points="215.19 4.87 217.31 6.88 201.06 22.24 168.56 22.24 152.31 6.88 154.43 4.87 154.15 4.87 152.06 6.84 152.02 6.88 168.38 22.34 168.41 22.37 201.2 22.37 217.56 6.91 217.59 6.88 215.47 4.87 215.19 4.87"/><polygon class="cls-37" points="154.15 4.87 152.09 6.81 119.59 6.81 117.54 4.87 117.25 4.87 119.41 6.91 119.45 6.94 152.23 6.94 154.43 4.87 154.15 4.87"/><path class="cls-38" d="M103.05,22.31l0,0L119.45,6.81h32.78l0,0,16.36,15.47,0,0L152.23,37.8H119.45l0,0ZM119.59,6.94,103.34,22.31l16.25,15.36h32.5l16.25-15.36L152.09,6.94Z"/><path class="cls-39" d="M103.05,145.73l0,0,16.36-15.46h32.78l0,0,16.36,15.46,0,0-16.36,15.46H119.45l0,0Zm16.54-15.36-16.25,15.36,16.25,15.37h32.5l16.25-15.37-16.25-15.36Z"/><polygon class="cls-40" points="112.21 184.98 103.34 176.59 119.59 161.23 152.09 161.23 168.34 176.59 159.47 184.98 159.75 184.98 168.59 176.62 168.63 176.59 152.27 161.13 152.23 161.09 119.45 161.09 103.09 176.56 103.05 176.59 111.93 184.98 112.21 184.98"/><polygon class="cls-41" points="117.25 4.87 119.38 6.88 103.13 22.24 74.33 22.24 74.33 22.37 103.27 22.37 119.63 6.91 119.66 6.88 117.54 4.87 117.25 4.87"/><polygon class="cls-42" points="103.3 22.27 103.27 22.24 74.33 22.24 74.33 22.37 103.13 22.37 119.38 37.73 103.13 53.1 74.33 53.1 74.33 53.23 103.27 53.23 119.63 37.77 119.66 37.73 103.3 22.27"/><polygon class="cls-43" points="103.3 145.7 103.27 145.67 74.33 145.67 74.33 145.8 103.13 145.8 119.38 161.16 103.13 176.52 74.33 176.52 74.33 176.66 103.27 176.66 119.63 161.2 119.66 161.16 103.3 145.7"/><polygon class="cls-44" points="103.3 176.56 103.27 176.52 74.33 176.52 74.33 176.66 103.13 176.66 111.93 184.98 112.21 184.98 103.3 176.56"/><polygon class="cls-45" points="487.5 145.69 472.24 145.69 451.33 125.93 472.24 106.17 487.5 106.17 487.5 105.47 471.5 105.47 449.86 125.93 471.5 146.39 487.5 146.39 487.5 145.69"/><polygon class="cls-46" points="487.5 146.39 487.5 145.69 471.5 145.69 449.86 166.15 469.78 184.98 471.26 184.98 451.33 166.15 472.24 146.39 487.5 146.39"/><path class="cls-47" d="M386,146l21.64-20.46H451L472.61,146,451,166.5H407.68Zm22.38-19.76L387.52,146l20.9,19.76h41.81L471.13,146l-20.9-19.76Z"/><polygon class="cls-48" points="388.87 184.98 408.42 166.5 450.23 166.5 469.78 184.98 471.26 184.98 450.96 165.8 407.68 165.8 387.39 184.98 388.87 184.98"/><polygon class="cls-49" points="322.66 4.87 322.59 4.94 280.79 4.94 280.71 4.87 279.24 4.87 280.05 5.63 323.33 5.63 324.14 4.87 322.66 4.87"/><polygon class="cls-50" points="215.99 184.98 196.06 166.15 216.97 146.39 258.77 146.39 279.68 166.15 259.75 184.98 261.23 184.98 281.15 166.15 259.51 145.69 216.23 145.69 194.59 166.15 214.51 184.98 215.99 184.98"/><polygon class="cls-51" points="195.03 4.87 194.96 4.94 153.15 4.94 153.08 4.87 151.6 4.87 152.41 5.63 195.7 5.63 196.51 4.87 195.03 4.87"/><path class="cls-52" d="M130.77,146l21.64-20.46H195.7L217.34,146,195.7,166.5H152.41Zm22.38-19.76L132.25,146l20.9,19.76H195L215.86,146,195,126.28Z"/><polygon class="cls-53" points="133.6 184.98 153.15 166.5 194.96 166.5 214.51 184.98 215.99 184.98 195.7 165.8 152.41 165.8 132.12 184.98 133.6 184.98"/><polygon class="cls-54" points="151.6 4.87 152.04 5.29 131.14 25.04 89.33 25.04 74.33 10.86 74.33 12.26 88.59 25.74 131.88 25.74 153.52 5.29 153.08 4.87 151.6 4.87"/><polygon class="cls-55" points="131.88 25.04 88.59 25.04 74.33 38.53 74.33 39.93 89.33 25.74 131.14 25.74 152.04 45.5 131.14 65.26 89.33 65.26 74.33 51.08 74.33 52.47 88.59 65.96 131.88 65.96 153.52 45.5 131.88 25.04"/><polygon class="cls-56" points="131.88 65.26 88.59 65.26 74.33 78.75 74.33 80.14 89.33 65.96 131.14 65.96 152.04 85.72 131.14 105.47 89.33 105.47 74.33 91.29 74.33 92.69 88.59 106.17 131.88 106.17 153.52 85.72 131.88 65.26"/><polygon class="cls-57" points="131.88 105.47 88.59 105.47 74.33 118.96 74.33 120.36 89.33 106.17 131.14 106.17 152.04 125.93 131.14 145.69 89.33 145.69 74.33 131.5 74.33 132.9 88.59 146.39 131.88 146.39 153.52 125.93 131.88 105.47"/><polygon class="cls-58" points="74.33 173.12 86.88 184.98 88.36 184.98 74.33 171.72 74.33 173.12"/><polygon class="cls-59" points="131.88 145.69 88.59 145.69 74.33 159.18 74.33 160.57 89.33 146.39 131.14 146.39 152.04 166.15 132.12 184.98 133.6 184.98 153.52 166.15 131.88 145.69"/><polygon class="cls-60" points="74.33 10.86 74.33 12.26 88.23 25.39 74.33 38.53 74.33 39.93 89.7 25.39 74.33 10.86"/><polygon class="cls-61" points="74.33 51.08 74.33 52.47 88.23 65.61 74.33 78.75 74.33 80.14 89.7 65.61 74.33 51.08"/><polygon class="cls-62" points="74.33 91.29 74.33 92.69 88.23 105.82 74.33 118.96 74.33 120.36 89.7 105.82 74.33 91.29"/><polygon class="cls-63" points="74.33 131.5 74.33 132.9 88.23 146.04 74.33 159.18 74.33 160.57 89.7 146.04 74.33 131.5"/><polygon class="cls-64" points="74.33 171.72 74.33 173.12 86.88 184.98 88.36 184.98 74.33 171.72"/><path class="cls-65" d="M459.85,53.16c0,.74,1.09,1.33,2.44,1.33s2.44-.59,2.44-1.33-1.1-1.33-2.44-1.33S459.85,52.43,459.85,53.16Z"/><ellipse class="cls-66" cx="445.96" cy="68.59" rx="2.2" ry="1.2"/><path class="cls-67" d="M466.21,84c0-1.18-1.75-2.14-3.92-2.14s-3.93,1-3.93,2.14,1.76,2.14,3.93,2.14S466.21,85.2,466.21,84Z"/><ellipse class="cls-68" cx="462.29" cy="114.88" rx="3.64" ry="1.99"/><path class="cls-69" d="M460.73,145.73c0,.47.7.86,1.56.86s1.56-.39,1.56-.86-.7-.85-1.56-.85S460.73,145.26,460.73,145.73Z"/><path class="cls-70" d="M459.66,176.59c0,.79,1.17,1.44,2.63,1.44s2.63-.65,2.63-1.44-1.18-1.44-2.63-1.44S459.66,175.8,459.66,176.59Z"/><path class="cls-71" d="M410.37,68.59c0,.89,1.32,1.61,2.95,1.61s2.95-.72,2.95-1.61S415,67,413.32,67,410.37,67.7,410.37,68.59Z"/><path class="cls-72" d="M447.47,99.45c0-.46-.67-.82-1.51-.82s-1.5.36-1.5.82.67.82,1.5.82S447.47,99.9,447.47,99.45Z"/><path class="cls-73" d="M410.52,99.45c0,.84,1.26,1.52,2.8,1.52s2.8-.68,2.8-1.52-1.26-1.53-2.8-1.53S410.52,98.61,410.52,99.45Z"/><ellipse class="cls-74" cx="397" cy="114.88" rx="1.77" ry="0.96"/><ellipse class="cls-75" cx="445.96" cy="130.31" rx="4.13" ry="2.25"/><path class="cls-76" d="M442.9,161.16c0,.93,1.37,1.67,3.06,1.67s3.07-.74,3.07-1.67-1.37-1.67-3.07-1.67S442.9,160.24,442.9,161.16Z"/><path class="cls-77" d="M393.94,176.59c0,.92,1.37,1.67,3.06,1.67s3.05-.75,3.05-1.67-1.37-1.67-3.05-1.67S393.94,175.67,393.94,176.59Z"/><path class="cls-78" d="M409.72,161.16c0,1.09,1.61,2,3.6,2s3.6-.88,3.6-2-1.61-2-3.6-2S409.72,160.08,409.72,161.16Z"/><path class="cls-79" d="M397,85.3c1.29,0,2.35-.57,2.35-1.28s-1.06-1.28-2.35-1.28-2.35.57-2.35,1.28S395.7,85.3,397,85.3Z"/><ellipse class="cls-80" cx="413.32" cy="130.31" rx="1.89" ry="1.03"/><path class="cls-81" d="M395,145.73c0,.62.91,1.11,2,1.11s2-.49,2-1.11-.91-1.1-2-1.1S395,145.12,395,145.73Z"/><ellipse class="cls-82" cx="364.35" cy="176.59" rx="2.62" ry="1.43"/><ellipse class="cls-83" cx="364.35" cy="114.88" rx="3.02" ry="1.65"/><path class="cls-84" d="M348,128.59c-1.73,0-3.14.77-3.14,1.72S346.3,132,348,132s3.14-.77,3.14-1.71S349.76,128.59,348,128.59Z"/><path class="cls-85" d="M297.17,145.73c0,.58.85,1,1.89,1s1.9-.46,1.9-1-.85-1-1.9-1S297.17,145.16,297.17,145.73Z"/><path class="cls-86" d="M317.86,130.31c0-.75-1.11-1.35-2.47-1.35s-2.47.6-2.47,1.35,1.1,1.34,2.47,1.34S317.86,131.05,317.86,130.31Z"/><ellipse class="cls-87" cx="364.35" cy="145.73" rx="2.63" ry="1.44"/><path class="cls-88" d="M311.64,161.16c0,1.13,1.68,2,3.75,2s3.74-.91,3.74-2-1.68-2-3.74-2S311.64,160,311.64,161.16Z"/><path class="cls-89" d="M297,176.59c0,.64.95,1.15,2.11,1.15s2.12-.51,2.12-1.15-.95-1.15-2.12-1.15S297,176,297,176.59Z"/><path class="cls-90" d="M344.33,161.16c0,1.12,1.66,2,3.7,2s3.7-.9,3.7-2-1.65-2-3.7-2S344.33,160.05,344.33,161.16Z"/><path class="cls-91" d="M247.28,6.88c0,.85,1.26,1.53,2.82,1.53s2.81-.68,2.81-1.53-1.26-1.54-2.81-1.54S247.28,6,247.28,6.88Z"/><ellipse class="cls-92" cx="266.42" cy="22.31" rx="2.72" ry="1.48"/><path class="cls-93" d="M246.91,37.73c0,1,1.43,1.74,3.19,1.74s3.18-.78,3.18-1.74S251.85,36,250.1,36,246.91,36.78,246.91,37.73Z"/><path class="cls-94" d="M214,37.73c0,1.05,1.56,1.9,3.48,1.9s3.48-.85,3.48-1.9-1.56-1.89-3.48-1.89S214,36.69,214,37.73Z"/><path class="cls-95" d="M202.87,145.73c0-.52-.78-.95-1.74-.95s-1.74.43-1.74.95.78,1,1.74,1S202.87,146.26,202.87,145.73Z"/><path class="cls-96" d="M264.38,145.73c0,.62.91,1.11,2,1.11s2-.49,2-1.11-.91-1.11-2-1.11S264.38,145.12,264.38,145.73Z"/><path class="cls-97" d="M254.07,161.16c0-1.2-1.78-2.17-4-2.17s-4,1-4,2.17,1.78,2.17,4,2.17S254.07,162.36,254.07,161.16Z"/><path class="cls-98" d="M264.26,176.59c0,.65,1,1.18,2.16,1.18s2.16-.53,2.16-1.18-1-1.18-2.16-1.18S264.26,175.94,264.26,176.59Z"/><path class="cls-99" d="M221.11,6.88c0-1.11-1.64-2-3.66-2s-3.66.89-3.66,2,1.64,2,3.66,2S221.11,8,221.11,6.88Z"/><path class="cls-100" d="M201.13,21.57c-.74,0-1.35.33-1.35.74s.61.73,1.35.73,1.35-.33,1.35-.73S201.87,21.57,201.13,21.57Z"/><path class="cls-101" d="M149.46,37.73c0,.82,1.21,1.48,2.7,1.48s2.7-.66,2.7-1.48-1.2-1.47-2.7-1.47S149.46,36.92,149.46,37.73Z"/><path class="cls-102" d="M172.62,22.31c0-1.25-1.85-2.26-4.14-2.26s-4.13,1-4.13,2.26,1.85,2.25,4.13,2.25S172.62,23.55,172.62,22.31Z"/><path class="cls-103" d="M168.48,147c1.3,0,2.35-.57,2.35-1.28s-1.05-1.28-2.35-1.28-2.34.58-2.34,1.28S167.19,147,168.48,147Z"/><path class="cls-104" d="M198.07,176.59c0,.92,1.37,1.67,3.06,1.67s3.06-.75,3.06-1.67-1.37-1.67-3.06-1.67S198.07,175.67,198.07,176.59Z"/><path class="cls-105" d="M171.54,176.59c0-.92-1.37-1.67-3.06-1.67s-3,.75-3,1.67,1.37,1.67,3,1.67S171.54,177.51,171.54,176.59Z"/><path class="cls-106" d="M152.16,8.81c2,0,3.54-.87,3.54-1.93S154.12,5,152.16,5s-3.53.86-3.53,1.93S150.21,8.81,152.16,8.81Z"/><path class="cls-107" d="M100.42,22.31c0,.83,1.24,1.51,2.78,1.51s2.78-.68,2.78-1.51-1.25-1.52-2.78-1.52S100.42,21.47,100.42,22.31Z"/><path class="cls-108" d="M122.45,37.73c0-.88-1.31-1.6-2.93-1.6s-2.94.72-2.94,1.6,1.32,1.61,2.94,1.61S122.45,38.62,122.45,37.73Z"/><ellipse class="cls-109" cx="152.16" cy="130.31" rx="2.43" ry="1.33"/><path class="cls-110" d="M149.48,161.16c0,.81,1.2,1.47,2.68,1.47s2.69-.66,2.69-1.47-1.2-1.46-2.69-1.46S149.48,160.35,149.48,161.16Z"/><ellipse class="cls-111" cx="119.52" cy="6.88" rx="1.64" ry="0.9"/><path class="cls-112" d="M101,53.16c0,.66,1,1.19,2.17,1.19s2.16-.53,2.16-1.19-1-1.18-2.16-1.18S101,52.51,101,53.16Z"/><ellipse class="cls-113" cx="119.52" cy="130.31" rx="2.72" ry="1.48"/><ellipse class="cls-114" cx="103.2" cy="145.73" rx="1.52" ry="0.83"/><path class="cls-115" d="M74.33,144.68v2.11a1.57,1.57,0,0,0,.48-1.06A1.54,1.54,0,0,0,74.33,144.68Z"/><path class="cls-116" d="M122.34,161.16c0-.85-1.26-1.54-2.82-1.54s-2.83.69-2.83,1.54,1.27,1.54,2.83,1.54S122.34,162,122.34,161.16Z"/><path class="cls-117" d="M106.54,176.59c0-1-1.5-1.82-3.34-1.82s-3.35.81-3.35,1.82,1.5,1.83,3.35,1.83S106.54,177.6,106.54,176.59Z"/></g><path class="cls-118" d="M485.5,18.16H183.82C198,84,300.45,135,424.81,135a436.16,436.16,0,0,0,60.69-4.19Z"/><path class="cls-119" d="M296.2,181.33A77.64,77.64,0,0,0,305,145.94c0-63.47-81.82-116.5-191-129.42H73.5V181.33Z"/></g></g></g></g></svg>