<svg xmlns="http://www.w3.org/2000/svg" xmlns:xlink="http://www.w3.org/1999/xlink" viewBox="0 0 139.84 99.78"><defs><style>.cls-1{isolation:isolate;}.cls-2,.cls-25{mix-blend-mode:multiply;}.cls-3{fill:url(#linear-gradient);}.cls-4{fill:url(#linear-gradient-2);}.cls-5{fill:url(#linear-gradient-3);}.cls-6{fill:url(#linear-gradient-4);}.cls-7{fill:url(#linear-gradient-5);}.cls-8{fill:url(#linear-gradient-6);}.cls-9{fill:url(#linear-gradient-7);}.cls-10{fill:url(#linear-gradient-8);}.cls-11{fill:url(#linear-gradient-9);}.cls-12{fill:url(#linear-gradient-10);}.cls-13{fill:url(#linear-gradient-11);}.cls-14{fill:url(#linear-gradient-12);}.cls-15{fill:url(#linear-gradient-13);}.cls-16{fill:url(#linear-gradient-14);}.cls-17{fill:url(#linear-gradient-15);}.cls-18{fill:url(#linear-gradient-16);}.cls-19{fill:url(#linear-gradient-17);}.cls-20{fill:url(#linear-gradient-18);}.cls-21{fill:url(#linear-gradient-19);}.cls-22{fill:url(#linear-gradient-20);}.cls-23{fill:url(#linear-gradient-21);}.cls-24{fill:url(#linear-gradient-22);}.cls-25{fill:#ccc;}.cls-26{fill:#e6e7e7;stroke:#707071;stroke-miterlimit:10;stroke-width:0.25px;}.cls-27{fill:url(#linear-gradient-23);}.cls-28{fill:url(#linear-gradient-24);}.cls-29{fill:#bcbec0;}.cls-30{fill:#fff;}.cls-31{fill:#e6e6e5;}.cls-32{fill:#b4b4b4;}.cls-33{fill:#ececec;}.cls-34{fill:#cdcccc;}.cls-35{fill:#a7a9ac;}.cls-36{fill:url(#linear-gradient-25);}.cls-37{fill:url(#linear-gradient-26);}.cls-38{fill:url(#linear-gradient-27);}.cls-39{fill:url(#linear-gradient-28);}.cls-40{fill:url(#linear-gradient-29);}.cls-41{fill:url(#linear-gradient-30);}.cls-42{fill:url(#linear-gradient-31);}.cls-43{fill:url(#linear-gradient-32);}.cls-44{fill:url(#linear-gradient-33);}.cls-45{fill:url(#linear-gradient-34);}.cls-46{fill:url(#linear-gradient-35);}.cls-47{fill:url(#linear-gradient-36);}.cls-48{fill:url(#linear-gradient-37);}.cls-49{fill:url(#linear-gradient-38);}.cls-50{fill:url(#linear-gradient-39);}.cls-51{fill:url(#linear-gradient-40);}.cls-52{fill:url(#linear-gradient-41);}.cls-53{fill:url(#linear-gradient-42);}.cls-54{fill:url(#linear-gradient-43);}.cls-55{fill:url(#linear-gradient-44);}.cls-56{fill:url(#linear-gradient-45);}.cls-57{fill:url(#linear-gradient-46);}.cls-58{fill:#818181;}.cls-59{fill:url(#linear-gradient-47);}.cls-60{fill:#617d8c;}</style><linearGradient id="linear-gradient" y1="37.69" x2="20.77" y2="37.69" gradientUnits="userSpaceOnUse"><stop offset="0" stop-color="#1d9ab4"/><stop offset="0.18" stop-color="#1d95b1"/><stop offset="0.38" stop-color="#1e88a6"/><stop offset="0.6" stop-color="#1e7196"/><stop offset="0.81" stop-color="#1f527e"/><stop offset="1" stop-color="#203266"/></linearGradient><linearGradient id="linear-gradient-2" x1="22.31" y1="37.69" x2="43.08" y2="37.69" xlink:href="#linear-gradient"/><linearGradient id="linear-gradient-3" x1="6.72" y1="19.25" x2="36.36" y2="19.25" xlink:href="#linear-gradient"/><linearGradient id="linear-gradient-4" x1="46.39" y1="19.41" x2="72.66" y2="19.41" xlink:href="#linear-gradient"/><linearGradient id="linear-gradient-5" x1="39.23" y1="15.07" x2="72.5" y2="15.07" xlink:href="#linear-gradient"/><linearGradient id="linear-gradient-6" x1="46.39" y1="23.17" x2="72.66" y2="23.17" xlink:href="#linear-gradient"/><linearGradient id="linear-gradient-7" x1="77.04" y1="44.81" x2="81.75" y2="44.81" xlink:href="#linear-gradient"/><linearGradient id="linear-gradient-8" x1="87.85" y1="43.02" x2="92.56" y2="43.02" xlink:href="#linear-gradient"/><linearGradient id="linear-gradient-9" x1="98.66" y1="41.24" x2="103.37" y2="41.24" xlink:href="#linear-gradient"/><linearGradient id="linear-gradient-10" x1="109.46" y1="39.45" x2="114.17" y2="39.45" xlink:href="#linear-gradient"/><linearGradient id="linear-gradient-11" x1="120.27" y1="37.67" x2="124.98" y2="37.67" xlink:href="#linear-gradient"/><linearGradient id="linear-gradient-12" x1="131.08" y1="35.88" x2="135.79" y2="35.88" xlink:href="#linear-gradient"/><linearGradient id="linear-gradient-13" x1="78.27" y1="24.83" x2="80.52" y2="24.83" xlink:href="#linear-gradient"/><linearGradient id="linear-gradient-14" x1="89.08" y1="20.17" x2="91.33" y2="20.17" xlink:href="#linear-gradient"/><linearGradient id="linear-gradient-15" x1="99.89" y1="13.38" x2="102.13" y2="13.38" xlink:href="#linear-gradient"/><linearGradient id="linear-gradient-16" x1="110.7" y1="12.98" x2="112.94" y2="12.98" xlink:href="#linear-gradient"/><linearGradient id="linear-gradient-17" x1="132.31" y1="1.12" x2="134.56" y2="1.12" xlink:href="#linear-gradient"/><linearGradient id="linear-gradient-18" x1="121.5" y1="7.26" x2="123.75" y2="7.26" xlink:href="#linear-gradient"/><linearGradient id="linear-gradient-19" x1="79.26" y1="12.98" x2="133.6" y2="12.98" xlink:href="#linear-gradient"/><linearGradient id="linear-gradient-20" x1="14.72" y1="69.69" x2="21.3" y2="69.69" xlink:href="#linear-gradient"/><linearGradient id="linear-gradient-21" x1="21.78" y1="69.69" x2="28.36" y2="69.69" xlink:href="#linear-gradient"/><linearGradient id="linear-gradient-22" x1="16.85" y1="63.85" x2="26.23" y2="63.85" xlink:href="#linear-gradient"/><linearGradient id="linear-gradient-23" x1="55.79" y1="89.4" x2="89.11" y2="89.4" gradientUnits="userSpaceOnUse"><stop offset="0" stop-color="#203266"/><stop offset="0.19" stop-color="#1f527e"/><stop offset="0.4" stop-color="#1e7196"/><stop offset="0.62" stop-color="#1e88a6"/><stop offset="0.82" stop-color="#1d95b1"/><stop offset="1" stop-color="#1d9ab4"/></linearGradient><linearGradient id="linear-gradient-24" x1="21.07" y1="94.71" x2="123.83" y2="94.71" xlink:href="#linear-gradient-23"/><linearGradient id="linear-gradient-25" x1="35.41" y1="39.28" x2="109.49" y2="39.28" xlink:href="#linear-gradient"/><linearGradient id="linear-gradient-26" x1="35.41" y1="40.42" x2="109.49" y2="40.42" xlink:href="#linear-gradient-23"/><linearGradient id="linear-gradient-27" x1="79.79" y1="78.26" x2="107.55" y2="78.26" xlink:href="#linear-gradient-23"/><linearGradient id="linear-gradient-28" x1="105.62" y1="67.15" x2="107.45" y2="67.15" xlink:href="#linear-gradient-23"/><linearGradient id="linear-gradient-29" x1="101.72" y1="68.9" x2="103.56" y2="68.9" xlink:href="#linear-gradient-23"/><linearGradient id="linear-gradient-30" x1="97.83" y1="68.58" x2="99.67" y2="68.58" xlink:href="#linear-gradient-23"/><linearGradient id="linear-gradient-31" x1="93.95" y1="70.77" x2="95.79" y2="70.77" xlink:href="#linear-gradient-23"/><linearGradient id="linear-gradient-32" x1="90.06" y1="71.95" x2="91.9" y2="71.95" xlink:href="#linear-gradient-23"/><linearGradient id="linear-gradient-33" x1="86.17" y1="73.9" x2="88" y2="73.9" xlink:href="#linear-gradient-23"/><linearGradient id="linear-gradient-34" x1="82.29" y1="74.62" x2="84.13" y2="74.62" xlink:href="#linear-gradient-23"/><linearGradient id="linear-gradient-35" x1="44.79" y1="72.63" x2="65.41" y2="72.63" xlink:href="#linear-gradient-23"/><linearGradient id="linear-gradient-36" x1="45.18" y1="72.65" x2="52.6" y2="72.65" xlink:href="#linear-gradient-23"/><linearGradient id="linear-gradient-37" x1="45.18" y1="74.84" x2="52.6" y2="74.84" xlink:href="#linear-gradient-23"/><linearGradient id="linear-gradient-38" x1="45.18" y1="76.98" x2="51.74" y2="76.98" xlink:href="#linear-gradient-23"/><linearGradient id="linear-gradient-39" x1="59.9" y1="74.84" x2="64.91" y2="74.84" xlink:href="#linear-gradient-23"/><linearGradient id="linear-gradient-40" x1="59.9" y1="76.95" x2="64.91" y2="76.95" xlink:href="#linear-gradient-23"/><linearGradient id="linear-gradient-41" x1="65.73" y1="72.63" x2="72.47" y2="72.63" xlink:href="#linear-gradient-23"/><linearGradient id="linear-gradient-42" x1="69.52" y1="74.84" x2="72.05" y2="74.84" xlink:href="#linear-gradient-23"/><linearGradient id="linear-gradient-43" x1="69.55" y1="76.95" x2="72.05" y2="76.95" xlink:href="#linear-gradient-23"/><linearGradient id="linear-gradient-44" x1="44.79" y1="57.34" x2="72.42" y2="57.34" xlink:href="#linear-gradient-23"/><linearGradient id="linear-gradient-45" x1="45.11" y1="57.48" x2="55.08" y2="57.48" xlink:href="#linear-gradient-23"/><linearGradient id="linear-gradient-46" x1="66.06" y1="57.48" x2="70.36" y2="57.48" xlink:href="#linear-gradient-23"/><linearGradient id="linear-gradient-47" x1="38.38" y1="53.27" x2="109.48" y2="53.27" xlink:href="#linear-gradient-23"/></defs><title>Asset 2</title><g class="cls-1"><g id="Layer_2" data-name="Layer 2"><g id="Layer_10" data-name="Layer 10"><g class="cls-2"><path class="cls-3" d="M20.77,45.45V55.72a21.53,21.53,0,0,1-15.13-36l7.27,7.27a11.28,11.28,0,0,0,7.86,18.51Z"/><path class="cls-4" d="M43.08,34.2A21.53,21.53,0,0,1,22.31,55.72V45.45a11.27,11.27,0,0,0,7.86-18.51l7.27-7.27A21.44,21.44,0,0,1,43.08,34.2Z"/><path class="cls-5" d="M36.36,18.58,29.1,25.83a11.26,11.26,0,0,0-15.12,0L6.72,18.58a21.51,21.51,0,0,1,29.63,0Z"/><rect class="cls-6" x="46.39" y="18.14" width="26.27" height="2.54" rx="0.74" ry="0.74"/><rect class="cls-7" x="39.23" y="13.8" width="33.27" height="2.54" rx="0.74" ry="0.74"/><rect class="cls-8" x="46.39" y="21.91" width="26.27" height="2.54" rx="0.74" ry="0.74"/><rect class="cls-9" x="77.04" y="27.31" width="4.71" height="35"/><rect class="cls-10" x="87.85" y="23.74" width="4.71" height="38.57"/><rect class="cls-11" x="98.66" y="20.17" width="4.71" height="42.14"/><rect class="cls-12" x="109.46" y="16.6" width="4.71" height="45.71"/><rect class="cls-13" x="120.27" y="13.03" width="4.71" height="49.28"/><rect class="cls-14" x="131.08" y="9.46" width="4.71" height="52.85"/><circle class="cls-15" cx="79.4" cy="24.83" r="1.12"/><circle class="cls-16" cx="90.2" cy="20.17" r="1.12"/><circle class="cls-17" cx="101.01" cy="13.38" r="1.12"/><circle class="cls-18" cx="111.82" cy="12.98" r="1.12"/><circle class="cls-19" cx="133.43" cy="1.12" r="1.12"/><circle class="cls-20" cx="122.63" cy="7.26" r="1.12"/><polygon class="cls-21" points="79.53 25.14 79.26 24.52 90.07 19.86 100.91 13.06 111.73 12.69 121.41 7.39 133.27 0.83 133.6 1.42 121.73 7.98 111.91 13.36 101.11 13.73 90.38 20.45 79.53 25.14"/><path class="cls-22" d="M21.3,72.14V75.4A6.82,6.82,0,0,1,16.51,64l2.3,2.3a3.57,3.57,0,0,0,2.49,5.86Z"/><path class="cls-23" d="M28.36,68.58a6.81,6.81,0,0,1-6.58,6.81V72.14a3.57,3.57,0,0,0,2.49-5.86l2.3-2.3A6.79,6.79,0,0,1,28.36,68.58Z"/><path class="cls-24" d="M26.23,63.64l-2.3,2.3a3.57,3.57,0,0,0-4.79,0l-2.3-2.3a6.81,6.81,0,0,1,9.38,0Z"/></g><ellipse class="cls-25" cx="70.89" cy="94.18" rx="68.95" ry="5.6"/><path class="cls-26" d="M24,96.07h97a2.82,2.82,0,0,0,2.88-2.73l-10.29-8H31.36l-10.29,8A2.82,2.82,0,0,0,24,96.07Z"/><polygon class="cls-27" points="89.11 91.33 84.09 87.48 60.81 87.48 55.79 91.33 89.11 91.33"/><path class="cls-28" d="M24,96.07h97a2.82,2.82,0,0,0,2.88-2.73H21.07A2.82,2.82,0,0,0,24,96.07Z"/><path class="cls-26" d="M111.14,32.75H33.84a2.48,2.48,0,0,0-2.48,2.48V85.39h82.25V35.23A2.48,2.48,0,0,0,111.14,32.75Z"/><rect class="cls-29" x="31.36" y="85.28" width="82.17" height="0.21"/><rect id="white_screen" data-name="white screen" class="cls-30" x="35.41" y="37.1" width="74.07" height="45.37"/><g id="all_sheet" data-name="all sheet"><g id="g7420"><rect id="rect7394" class="cls-31" x="35.41" y="53.37" width="74.07" height="0.41"/><path id="rect7396" class="cls-32" d="M36.22,51.87H37a.15.15,0,0,1,.15.16v.87a.15.15,0,0,1-.15.16h-.76a.15.15,0,0,1-.15-.16V52A.15.15,0,0,1,36.22,51.87Z"/><rect id="rect7398" class="cls-31" x="37.99" y="51.52" width="0.38" height="1.84"/><rect id="rect7400" class="cls-31" x="44.41" y="51.52" width="0.38" height="1.84"/><rect id="rect7402" class="cls-31" x="51.42" y="51.52" width="0.38" height="1.84"/><rect id="rect7404" class="cls-31" x="58.41" y="51.52" width="0.38" height="1.84"/><rect id="rect7406" class="cls-31" x="65.41" y="51.52" width="0.38" height="1.84"/><rect id="rect7408" class="cls-31" x="72.42" y="51.52" width="0.38" height="1.84"/><rect id="rect7410" class="cls-31" x="79.43" y="51.52" width="0.38" height="1.84"/><rect id="rect7412" class="cls-31" x="86.43" y="51.52" width="0.38" height="1.84"/><rect id="rect7414" class="cls-31" x="93.42" y="51.52" width="0.38" height="1.84"/><rect id="rect7416" class="cls-31" x="100.43" y="51.52" width="0.38" height="1.84"/><rect id="rect7418" class="cls-31" x="107.44" y="51.52" width="0.38" height="1.84"/></g><g id="g7448"><rect id="rect7422" class="cls-31" x="35.41" y="55.61" width="74.07" height="0.41"/><path id="rect7424" class="cls-32" d="M36.22,54.11H37a.15.15,0,0,1,.15.16v.87a.15.15,0,0,1-.15.16h-.76a.15.15,0,0,1-.15-.16v-.87A.15.15,0,0,1,36.22,54.11Z"/><rect id="rect7426" class="cls-31" x="37.99" y="53.77" width="0.38" height="1.84"/><rect id="rect7428" class="cls-31" x="44.41" y="53.77" width="0.38" height="1.84"/><rect id="rect7430" class="cls-31" x="51.42" y="53.77" width="0.38" height="1.84"/><rect id="rect7432" class="cls-31" x="58.41" y="53.77" width="0.38" height="1.84"/><rect id="rect7434" class="cls-31" x="65.41" y="53.77" width="0.38" height="1.84"/><rect id="rect7436" class="cls-31" x="72.42" y="53.77" width="0.38" height="1.84"/><rect id="rect7438" class="cls-31" x="79.43" y="53.77" width="0.38" height="1.84"/><rect id="rect7440" class="cls-31" x="86.43" y="53.77" width="0.38" height="1.84"/><rect id="rect7442" class="cls-31" x="93.42" y="53.77" width="0.38" height="1.84"/><rect id="rect7444" class="cls-31" x="100.43" y="53.77" width="0.38" height="1.84"/><rect id="rect7446" class="cls-31" x="107.44" y="53.77" width="0.38" height="1.84"/></g><g id="g7484"><rect id="rect7458" class="cls-31" x="35.41" y="57.86" width="74.07" height="0.41"/><path id="rect7460" class="cls-32" d="M36.22,56.36H37a.15.15,0,0,1,.15.16v.87a.15.15,0,0,1-.15.16h-.76a.15.15,0,0,1-.15-.16v-.87A.15.15,0,0,1,36.22,56.36Z"/><rect id="rect7462" class="cls-31" x="37.99" y="56.01" width="0.38" height="1.84"/><rect id="rect7464" class="cls-31" x="44.41" y="56.01" width="0.38" height="1.84"/><rect id="rect7466" class="cls-31" x="51.42" y="56.01" width="0.38" height="1.84"/><rect id="rect7468" class="cls-31" x="58.41" y="56.01" width="0.38" height="1.84"/><rect id="rect7470" class="cls-31" x="65.41" y="56.01" width="0.38" height="1.84"/><rect id="rect7472" class="cls-31" x="72.42" y="56.01" width="0.38" height="1.84"/><rect id="rect7474" class="cls-31" x="79.43" y="56.01" width="0.38" height="1.84"/><rect id="rect7476" class="cls-31" x="86.43" y="56.01" width="0.38" height="1.84"/><rect id="rect7478" class="cls-31" x="93.42" y="56.01" width="0.38" height="1.84"/><rect id="rect7480" class="cls-31" x="100.43" y="56.01" width="0.38" height="1.84"/><rect id="rect7482" class="cls-31" x="107.44" y="56.01" width="0.38" height="1.84"/></g><g id="g7512"><rect id="rect7486" class="cls-31" x="35.41" y="60.1" width="74.07" height="0.41"/><path id="rect7488" class="cls-32" d="M36.22,58.6H37a.15.15,0,0,1,.15.16v.87a.15.15,0,0,1-.15.16h-.76a.15.15,0,0,1-.15-.16v-.87A.15.15,0,0,1,36.22,58.6Z"/><rect id="rect7490" class="cls-31" x="37.99" y="58.26" width="0.38" height="1.84"/><rect id="rect7492" class="cls-31" x="44.41" y="58.26" width="0.38" height="1.84"/><rect id="rect7494" class="cls-31" x="51.42" y="58.26" width="0.38" height="1.84"/><rect id="rect7496" class="cls-31" x="58.41" y="58.26" width="0.38" height="1.84"/><rect id="rect7498" class="cls-31" x="65.41" y="58.26" width="0.38" height="1.84"/><rect id="rect7500" class="cls-31" x="72.42" y="58.26" width="0.38" height="1.84"/><rect id="rect7502" class="cls-31" x="79.43" y="58.26" width="0.38" height="1.84"/><rect id="rect7504" class="cls-31" x="86.43" y="58.26" width="0.38" height="1.84"/><rect id="rect7506" class="cls-31" x="93.42" y="58.26" width="0.38" height="1.84"/><rect id="rect7508" class="cls-31" x="100.43" y="58.26" width="0.38" height="1.84"/><rect id="rect7510" class="cls-31" x="107.44" y="58.26" width="0.38" height="1.84"/></g><g id="g7540"><rect id="rect7514" class="cls-31" x="35.41" y="62.34" width="74.07" height="0.41"/><path id="rect7516" class="cls-32" d="M36.22,60.85H37a.15.15,0,0,1,.15.16v.87A.15.15,0,0,1,37,62h-.76a.15.15,0,0,1-.15-.16V61A.16.16,0,0,1,36.22,60.85Z"/><rect id="rect7518" class="cls-31" x="37.99" y="60.5" width="0.38" height="1.84"/><rect id="rect7520" class="cls-31" x="44.41" y="60.5" width="0.38" height="1.84"/><rect id="rect7522" class="cls-31" x="51.42" y="60.5" width="0.38" height="1.84"/><rect id="rect7524" class="cls-31" x="58.41" y="60.5" width="0.38" height="1.84"/><rect id="rect7526" class="cls-31" x="65.41" y="60.5" width="0.38" height="1.84"/><rect id="rect7528" class="cls-31" x="72.42" y="60.5" width="0.38" height="1.84"/><rect id="rect7530" class="cls-31" x="79.43" y="60.5" width="0.38" height="1.84"/><rect id="rect7532" class="cls-31" x="86.43" y="60.5" width="0.38" height="1.84"/><rect id="rect7534" class="cls-31" x="93.42" y="60.5" width="0.38" height="1.84"/><rect id="rect7536" class="cls-31" x="100.43" y="60.5" width="0.38" height="1.84"/><rect id="rect7538" class="cls-31" x="107.44" y="60.5" width="0.38" height="1.84"/></g><g id="g7568"><rect id="rect7542" class="cls-31" x="35.41" y="64.59" width="74.07" height="0.41"/><path id="rect7544" class="cls-32" d="M36.22,63.11H37a.15.15,0,0,1,.15.16v.87a.15.15,0,0,1-.15.16h-.76a.15.15,0,0,1-.15-.16v-.87A.14.14,0,0,1,36.22,63.11Z"/><rect id="rect7546" class="cls-31" x="37.99" y="62.75" width="0.38" height="1.84"/><rect id="rect7548" class="cls-31" x="44.41" y="62.75" width="0.38" height="1.84"/><rect id="rect7550" class="cls-31" x="51.42" y="62.75" width="0.38" height="1.84"/><rect id="rect7552" class="cls-31" x="58.41" y="62.75" width="0.38" height="1.84"/><rect id="rect7554" class="cls-31" x="65.41" y="62.75" width="0.38" height="1.84"/><rect id="rect7556" class="cls-31" x="72.42" y="62.75" width="0.38" height="1.84"/><rect id="rect7558" class="cls-31" x="79.43" y="62.75" width="0.38" height="1.84"/><rect id="rect7560" class="cls-31" x="86.43" y="62.75" width="0.38" height="1.84"/><rect id="rect7562" class="cls-31" x="93.42" y="62.75" width="0.38" height="1.84"/><rect id="rect7564" class="cls-31" x="100.43" y="62.75" width="0.38" height="1.84"/><rect id="rect7566" class="cls-31" x="107.44" y="62.75" width="0.38" height="1.84"/></g><g id="g7596"><rect id="rect7570" class="cls-31" x="35.41" y="66.83" width="74.07" height="0.41"/><path id="rect7572" class="cls-32" d="M36.22,65.35H37a.15.15,0,0,1,.15.16v.87a.15.15,0,0,1-.15.16h-.76a.15.15,0,0,1-.15-.16v-.87A.14.14,0,0,1,36.22,65.35Z"/><rect id="rect7574" class="cls-31" x="37.99" y="64.99" width="0.38" height="1.84"/><rect id="rect7576" class="cls-31" x="44.41" y="64.99" width="0.38" height="1.84"/><rect id="rect7578" class="cls-31" x="51.42" y="64.99" width="0.38" height="1.84"/><rect id="rect7580" class="cls-31" x="58.41" y="64.99" width="0.38" height="1.84"/><rect id="rect7582" class="cls-31" x="65.41" y="64.99" width="0.38" height="1.84"/><rect id="rect7584" class="cls-31" x="72.42" y="64.99" width="0.38" height="1.84"/><rect id="rect7586" class="cls-31" x="79.43" y="64.99" width="0.38" height="1.84"/><rect id="rect7588" class="cls-31" x="86.43" y="64.99" width="0.38" height="1.84"/><rect id="rect7590" class="cls-31" x="93.42" y="64.99" width="0.38" height="1.84"/><rect id="rect7592" class="cls-31" x="100.43" y="64.99" width="0.38" height="1.84"/><rect id="rect7594" class="cls-31" x="107.44" y="64.99" width="0.38" height="1.84"/></g><g id="g7624"><rect id="rect7598" class="cls-31" x="35.41" y="69.08" width="74.07" height="0.41"/><path id="rect7600" class="cls-32" d="M36.22,67.59H37a.15.15,0,0,1,.15.16v.87a.15.15,0,0,1-.15.16h-.76a.15.15,0,0,1-.15-.16v-.87A.14.14,0,0,1,36.22,67.59Z"/><rect id="rect7602" class="cls-31" x="37.99" y="67.23" width="0.38" height="1.84"/><rect id="rect7604" class="cls-31" x="44.41" y="67.23" width="0.38" height="1.84"/><rect id="rect7606" class="cls-31" x="51.42" y="67.23" width="0.38" height="1.84"/><rect id="rect7608" class="cls-31" x="58.41" y="67.23" width="0.38" height="1.84"/><rect id="rect7610" class="cls-31" x="65.41" y="67.23" width="0.38" height="1.84"/><rect id="rect7612" class="cls-31" x="72.42" y="67.23" width="0.38" height="1.84"/><rect id="rect7614" class="cls-31" x="79.43" y="67.23" width="0.38" height="1.84"/><rect id="rect7616" class="cls-31" x="86.43" y="67.23" width="0.38" height="1.84"/><rect id="rect7618" class="cls-31" x="93.42" y="67.23" width="0.38" height="1.84"/><rect id="rect7620" class="cls-31" x="100.43" y="67.23" width="0.38" height="1.84"/><rect id="rect7622" class="cls-31" x="107.44" y="67.23" width="0.38" height="1.84"/></g><g id="g7652"><rect id="rect7626" class="cls-31" x="35.41" y="71.32" width="74.07" height="0.41"/><path id="rect7628" class="cls-32" d="M36.22,69.84H37a.15.15,0,0,1,.15.16v.87A.15.15,0,0,1,37,71h-.76a.15.15,0,0,1-.15-.16V70A.14.14,0,0,1,36.22,69.84Z"/><rect id="rect7630" class="cls-31" x="37.99" y="69.48" width="0.38" height="1.84"/><rect id="rect7632" class="cls-31" x="44.41" y="69.48" width="0.38" height="1.84"/><rect id="rect7634" class="cls-31" x="51.42" y="69.48" width="0.38" height="1.84"/><rect id="rect7636" class="cls-31" x="58.41" y="69.48" width="0.38" height="1.84"/><rect id="rect7638" class="cls-31" x="65.41" y="69.48" width="0.38" height="1.84"/><rect id="rect7640" class="cls-31" x="72.42" y="69.48" width="0.38" height="1.84"/><rect id="rect7642" class="cls-31" x="79.43" y="69.48" width="0.38" height="1.84"/><rect id="rect7644" class="cls-31" x="86.43" y="69.48" width="0.38" height="1.84"/><rect id="rect7646" class="cls-31" x="93.42" y="69.48" width="0.38" height="1.84"/><rect id="rect7648" class="cls-31" x="100.43" y="69.48" width="0.38" height="1.84"/><rect id="rect7650" class="cls-31" x="107.44" y="69.48" width="0.38" height="1.84"/></g><g id="g7680"><rect id="rect7654" class="cls-31" x="35.41" y="73.57" width="74.07" height="0.41"/><path id="rect7656" class="cls-32" d="M36.22,72.08H37a.15.15,0,0,1,.15.16v.87a.15.15,0,0,1-.15.16h-.76a.15.15,0,0,1-.15-.16v-.87A.14.14,0,0,1,36.22,72.08Z"/><rect id="rect7658" class="cls-31" x="37.99" y="71.72" width="0.38" height="1.84"/><rect id="rect7660" class="cls-31" x="44.41" y="71.72" width="0.38" height="1.84"/><rect id="rect7662" class="cls-31" x="51.42" y="71.72" width="0.38" height="1.84"/><rect id="rect7664" class="cls-31" x="58.41" y="71.72" width="0.38" height="1.84"/><rect id="rect7666" class="cls-31" x="65.41" y="71.72" width="0.38" height="1.84"/><rect id="rect7668" class="cls-31" x="72.42" y="71.72" width="0.38" height="1.84"/><rect id="rect7670" class="cls-31" x="79.43" y="71.72" width="0.38" height="1.84"/><rect id="rect7672" class="cls-31" x="86.43" y="71.72" width="0.38" height="1.84"/><rect id="rect7674" class="cls-31" x="93.42" y="71.72" width="0.38" height="1.84"/><rect id="rect7676" class="cls-31" x="100.43" y="71.72" width="0.38" height="1.84"/><rect id="rect7678" class="cls-31" x="107.44" y="71.72" width="0.38" height="1.84"/></g><g id="g7708"><rect id="rect7682" class="cls-31" x="35.41" y="75.81" width="74.07" height="0.41"/><path id="rect7684" class="cls-32" d="M36.22,74.33H37a.15.15,0,0,1,.15.16v.87a.15.15,0,0,1-.15.16h-.76a.15.15,0,0,1-.15-.16v-.87A.14.14,0,0,1,36.22,74.33Z"/><rect id="rect7686" class="cls-31" x="37.99" y="73.97" width="0.38" height="1.84"/><rect id="rect7688" class="cls-31" x="44.41" y="73.97" width="0.38" height="1.84"/><rect id="rect7690" class="cls-31" x="51.42" y="73.97" width="0.38" height="1.84"/><rect id="rect7692" class="cls-31" x="58.41" y="73.97" width="0.38" height="1.84"/><rect id="rect7694" class="cls-31" x="65.41" y="73.97" width="0.38" height="1.84"/><rect id="rect7696" class="cls-31" x="72.42" y="73.97" width="0.38" height="1.84"/><rect id="rect7698" class="cls-31" x="79.43" y="73.97" width="0.38" height="1.84"/><rect id="rect7700" class="cls-31" x="86.43" y="73.97" width="0.38" height="1.84"/><rect id="rect7702" class="cls-31" x="93.42" y="73.97" width="0.38" height="1.84"/><rect id="rect7704" class="cls-31" x="100.43" y="73.97" width="0.38" height="1.84"/><rect id="rect7706" class="cls-31" x="107.44" y="73.97" width="0.38" height="1.84"/></g><g id="g7736"><rect id="rect7710" class="cls-31" x="35.41" y="78.05" width="74.07" height="0.41"/><path id="rect7712" class="cls-32" d="M36.22,76.57H37a.15.15,0,0,1,.15.16v.87a.15.15,0,0,1-.15.16h-.76a.15.15,0,0,1-.15-.16v-.87A.15.15,0,0,1,36.22,76.57Z"/><rect id="rect7714" class="cls-31" x="37.99" y="76.21" width="0.38" height="1.84"/><rect id="rect7716" class="cls-31" x="44.41" y="76.21" width="0.38" height="1.84"/><rect id="rect7718" class="cls-31" x="51.42" y="76.21" width="0.38" height="1.84"/><rect id="rect7720" class="cls-31" x="58.41" y="76.21" width="0.38" height="1.84"/><rect id="rect7722" class="cls-31" x="65.41" y="76.21" width="0.38" height="1.84"/><rect id="rect7724" class="cls-31" x="72.42" y="76.21" width="0.38" height="1.84"/><rect id="rect7726" class="cls-31" x="79.43" y="76.21" width="0.38" height="1.84"/><rect id="rect7728" class="cls-31" x="86.43" y="76.21" width="0.38" height="1.84"/><rect id="rect7730" class="cls-31" x="93.42" y="76.21" width="0.38" height="1.84"/><rect id="rect7732" class="cls-31" x="100.43" y="76.21" width="0.38" height="1.84"/><rect id="rect7734" class="cls-31" x="107.44" y="76.21" width="0.38" height="1.84"/></g><g id="g7764"><rect id="rect7738" class="cls-31" x="35.41" y="80.3" width="74.07" height="0.41"/><path id="rect7740" class="cls-32" d="M36.22,78.82H37a.15.15,0,0,1,.15.16v.87A.15.15,0,0,1,37,80h-.76a.15.15,0,0,1-.15-.16V79A.15.15,0,0,1,36.22,78.82Z"/><rect id="rect7742" class="cls-31" x="37.99" y="78.46" width="0.38" height="1.84"/><rect id="rect7744" class="cls-31" x="44.41" y="78.46" width="0.38" height="1.84"/><rect id="rect7746" class="cls-31" x="51.42" y="78.46" width="0.38" height="1.84"/><rect id="rect7748" class="cls-31" x="58.41" y="78.46" width="0.38" height="1.84"/><rect id="rect7750" class="cls-31" x="65.41" y="78.46" width="0.38" height="1.84"/><rect id="rect7752" class="cls-31" x="72.42" y="78.46" width="0.38" height="1.84"/><rect id="rect7754" class="cls-31" x="79.43" y="78.46" width="0.38" height="1.84"/><rect id="rect7756" class="cls-31" x="86.43" y="78.46" width="0.38" height="1.84"/><rect id="rect7758" class="cls-31" x="93.42" y="78.46" width="0.38" height="1.84"/><rect id="rect7760" class="cls-31" x="100.43" y="78.46" width="0.38" height="1.84"/><rect id="rect7762" class="cls-31" x="107.44" y="78.46" width="0.38" height="1.84"/></g></g><g id="footer"><path id="path7766" class="cls-33" d="M35.41,80.22h74.07v2.25H35.41Z"/><path id="path7768" class="cls-32" d="M107.85,81h.88v1h-.88Z"/><path id="path7770" class="cls-32" d="M106.19,81h.88v1h-.88Z"/><path id="path7772" class="cls-32" d="M36.38,80.76a.15.15,0,0,0-.13.16V81h-.09V82h1.69V81h-.72v-.09a.14.14,0,0,0-.13-.16h-.62Z"/><path id="path7774" class="cls-32" d="M38.18,81V82h1.59V81Z"/></g><g id="spread_head" data-name="spread head"><rect id="rect7270" class="cls-34" x="35.41" y="49.27" width="74.07" height="1.84"/><path id="path7272" class="cls-32" d="M38,49.28l-2.59,1.84H38Z"/><rect id="rect7274" class="cls-31" x="37.99" y="49.27" width="0.38" height="1.84"/><rect id="rect7276" class="cls-31" x="44.41" y="49.27" width="0.38" height="1.84"/><rect id="rect7278" class="cls-31" x="51.42" y="49.27" width="0.38" height="1.84"/><rect id="rect7280" class="cls-31" x="58.41" y="49.27" width="0.38" height="1.84"/><rect id="rect7282" class="cls-31" x="65.41" y="49.27" width="0.38" height="1.84"/><rect id="rect7284" class="cls-31" x="72.42" y="49.27" width="0.38" height="1.84"/><rect id="rect7286" class="cls-31" x="79.43" y="49.27" width="0.38" height="1.84"/><rect id="rect7288" class="cls-31" x="86.43" y="49.27" width="0.38" height="1.84"/><rect id="rect7290" class="cls-31" x="93.42" y="49.27" width="0.38" height="1.84"/><rect id="rect7292" class="cls-31" x="100.43" y="49.27" width="0.38" height="1.84"/><rect id="rect7294" class="cls-31" x="107.44" y="49.27" width="0.38" height="1.84"/><rect id="rect7296" class="cls-31" x="35.41" y="51.13" width="74.07" height="0.41"/></g><g id="function"><path id="path7386" class="cls-31" d="M35.41,46.22v3h74.07v-3Z"/><path id="rect7388" class="cls-30" d="M48.77,46.63h60.1a.23.23,0,0,1,.22.23v1.37a.23.23,0,0,1-.22.23H48.77a.23.23,0,0,1-.22-.23V46.86a.23.23,0,0,1,.22-.23Z"/><path id="rect7390" class="cls-30" d="M36,46.63H48a.23.23,0,0,1,.22.23v1.37a.23.23,0,0,1-.22.23H36a.23.23,0,0,1-.22-.23V46.86A.23.23,0,0,1,36,46.63Z"/></g><g id="menu"><rect id="rect7324" class="cls-33" x="35.41" y="41.45" width="74.07" height="4.78"/><g id="g7382"><path id="rect7326" class="cls-30" d="M81.2,42.34h3.19a.26.26,0,0,1,.25.27v2.62a.26.26,0,0,1-.25.27H81.2a.26.26,0,0,1-.25-.27V42.61A.26.26,0,0,1,81.2,42.34Z"/><path id="rect7328" class="cls-30" d="M85.92,42.34h3.19a.26.26,0,0,1,.25.27v2.62a.26.26,0,0,1-.25.27H85.92a.26.26,0,0,1-.25-.27V42.61A.27.27,0,0,1,85.92,42.34Z"/><path id="rect7330" class="cls-30" d="M90.63,42.34h3.19a.26.26,0,0,1,.25.27v2.62a.26.26,0,0,1-.25.27H90.63a.26.26,0,0,1-.25-.27V42.61A.27.27,0,0,1,90.63,42.34Z"/><path id="rect7332" class="cls-30" d="M95.35,42.34h3.19a.26.26,0,0,1,.25.27v2.62a.26.26,0,0,1-.25.27H95.35a.26.26,0,0,1-.25-.27V42.61A.27.27,0,0,1,95.35,42.34Z"/><path id="rect7334" class="cls-30" d="M100.06,42.34h3.19a.26.26,0,0,1,.25.27v2.62a.26.26,0,0,1-.25.27h-3.19a.26.26,0,0,1-.25-.27V42.61A.27.27,0,0,1,100.06,42.34Z"/><path id="rect7336" class="cls-30" d="M45.56,42.53H58.89a.26.26,0,0,1,.25.27v.77a.26.26,0,0,1-.25.27H45.56a.26.26,0,0,1-.25-.27V42.8A.27.27,0,0,1,45.56,42.53Z"/><path id="rect7338" class="cls-30" d="M59.85,42.56h1.42a.26.26,0,0,1,.25.27v.81a.26.26,0,0,1-.25.27H59.85a.26.26,0,0,1-.25-.27v-.81A.28.28,0,0,1,59.85,42.56Z"/><path id="rect7340" class="cls-35" d="M36.55,42.3h2.06a.26.26,0,0,1,.25.27v2.26a.26.26,0,0,1-.25.27H36.55a.26.26,0,0,1-.25-.27V42.56A.26.26,0,0,1,36.55,42.3Z"/><path id="rect7342" class="cls-30" d="M37.73,43.23H39a.26.26,0,0,1,.25.27v1.76a.26.26,0,0,1-.25.27H37.73a.26.26,0,0,1-.25-.27V43.48A.26.26,0,0,1,37.73,43.23Z"/><path id="rect7344" class="cls-35" d="M60.48,44.39h.79a.17.17,0,0,1,.16.17v.84a.17.17,0,0,1-.16.17h-.79a.17.17,0,0,1-.16-.17v-.84A.17.17,0,0,1,60.48,44.39Z"/><path id="rect7346" class="cls-35" d="M59.13,44.39h.79a.17.17,0,0,1,.16.17v.84a.17.17,0,0,1-.16.17h-.79A.17.17,0,0,1,59,45.4v-.84A.17.17,0,0,1,59.13,44.39Z"/><path id="rect7348" class="cls-35" d="M40.12,42.61h3.19a.14.14,0,0,1,.13.14v.41a.14.14,0,0,1-.13.14H40.12a.14.14,0,0,1-.13-.14v-.41A.14.14,0,0,1,40.12,42.61Z"/><path id="rect7350" class="cls-35" d="M43,43.62h.31a.14.14,0,0,1,.13.14v.41a.14.14,0,0,1-.13.14H43a.14.14,0,0,1-.13-.14v-.41A.14.14,0,0,1,43,43.62Z"/><path id="rect7352" class="cls-35" d="M40.12,44.65h3.19a.14.14,0,0,1,.13.14v.41a.14.14,0,0,1-.13.14H40.12A.14.14,0,0,1,40,45.2v-.41A.14.14,0,0,1,40.12,44.65Z"/><path id="rect7354" class="cls-35" d="M64.09,42.42h.59a.24.24,0,0,1,.23.25v.7a.24.24,0,0,1-.23.25h-.59a.24.24,0,0,1-.23-.25v-.7A.24.24,0,0,1,64.09,42.42Z"/><path id="rect7356" class="cls-35" d="M65.46,42.42H67.4a.24.24,0,0,1,.23.25v.7a.24.24,0,0,1-.23.25H65.46a.24.24,0,0,1-.23-.25v-.7A.25.25,0,0,1,65.46,42.42Z"/><path id="rect7358" class="cls-35" d="M68.29,42.42H78.55a.24.24,0,0,1,.23.25v.7a.24.24,0,0,1-.23.25H68.29a.24.24,0,0,1-.23-.25v-.7A.24.24,0,0,1,68.29,42.42Z"/><path id="rect7360" class="cls-35" d="M64.09,44.11h.59a.24.24,0,0,1,.23.25v.7a.24.24,0,0,1-.23.25h-.59a.24.24,0,0,1-.23-.25v-.7A.25.25,0,0,1,64.09,44.11Z"/><path id="rect7362" class="cls-35" d="M65.46,44.11H67.4a.24.24,0,0,1,.23.25v.7a.24.24,0,0,1-.23.25H65.46a.24.24,0,0,1-.23-.25v-.7A.26.26,0,0,1,65.46,44.11Z"/><path id="rect7364" class="cls-35" d="M68.29,44.11H78.55a.24.24,0,0,1,.23.25v.7a.24.24,0,0,1-.23.25H68.29a.24.24,0,0,1-.23-.25v-.7A.25.25,0,0,1,68.29,44.11Z"/><path id="rect7366" class="cls-35" d="M46.2,44.53h3.23a.18.18,0,0,1,.18.19v.55a.18.18,0,0,1-.18.19H46.2a.18.18,0,0,1-.18-.19v-.55A.18.18,0,0,1,46.2,44.53Z"/><path id="rect7368" class="cls-35" d="M50.32,44.53h3.23a.18.18,0,0,1,.18.19v.55a.18.18,0,0,1-.18.19H50.32a.18.18,0,0,1-.18-.19v-.55A.17.17,0,0,1,50.32,44.53Z"/><path id="rect7370" class="cls-35" d="M54.53,44.53h3.23a.18.18,0,0,1,.18.19v.55a.18.18,0,0,1-.18.19H54.53a.18.18,0,0,1-.18-.19v-.55A.18.18,0,0,1,54.53,44.53Z"/><path id="rect7372" class="cls-35" d="M105.67,42.31h2.64a.15.15,0,0,1,.15.16v.42a.15.15,0,0,1-.15.16h-2.64a.15.15,0,0,1-.15-.16v-.44A.14.14,0,0,1,105.67,42.31Z"/><path id="rect7374" class="cls-35" d="M105.64,43.48h2.67a.12.12,0,0,1,.12.12V44a.12.12,0,0,1-.12.12h-2.67a.12.12,0,0,1-.12-.12v-.37A.12.12,0,0,1,105.64,43.48Z"/><path id="rect7376" class="cls-35" d="M105.64,44.53h2.69a.13.13,0,0,1,.12.12V45a.13.13,0,0,1-.12.12h-2.69a.13.13,0,0,1-.12-.12v-.34A.13.13,0,0,1,105.64,44.53Z"/><path id="rect7378" class="cls-35" d="M40.12,43.62h.4a.14.14,0,0,1,.13.14v.41a.14.14,0,0,1-.13.14h-.4a.14.14,0,0,1-.13-.14v-.41A.14.14,0,0,1,40.12,43.62Z"/><path id="rect7380" class="cls-35" d="M41,43.62h1.45a.14.14,0,0,1,.13.14v.41a.14.14,0,0,1-.13.14H41a.14.14,0,0,1-.13-.14v-.41A.14.14,0,0,1,41,43.62Z"/></g></g><g id="head"><g id="g7316"><rect id="rect7302" class="cls-36" x="35.41" y="37.1" width="74.08" height="4.36"/><rect id="rect7304" class="cls-37" x="35.41" y="39.38" width="74.08" height="2.08"/><path id="rect7314" class="cls-30" d="M38.94,38H58.27a.15.15,0,0,1,.15.16v.75a.15.15,0,0,1-.15.16H38.94a.15.15,0,0,1-.15-.16v-.75A.14.14,0,0,1,38.94,38Z"/></g></g><g id="graphic1"><rect id="rect7778" class="cls-38" x="79.79" y="78.06" width="27.76" height="0.41"/><rect id="rect7780" class="cls-39" x="105.62" y="56.25" width="1.84" height="21.81"/><rect id="rect7782" class="cls-40" x="101.72" y="59.74" width="1.84" height="18.31"/><rect id="rect7784" class="cls-41" x="97.83" y="59.1" width="1.84" height="18.95"/><rect id="rect7786" class="cls-42" x="93.95" y="63.48" width="1.84" height="14.58"/><rect id="rect7788" class="cls-43" x="90.06" y="65.85" width="1.84" height="12.21"/><rect id="rect7790" class="cls-44" x="86.17" y="69.74" width="1.84" height="8.32"/><rect id="rect7792" class="cls-45" x="82.29" y="71.17" width="1.84" height="6.89"/></g><g id="table3"><rect id="rect7796" class="cls-30" x="44.8" y="73.97" width="20.61" height="4.09"/><rect id="rect7798" class="cls-46" x="44.79" y="71.73" width="20.63" height="1.81"/><rect id="rect7800" class="cls-47" x="45.18" y="72.26" width="7.42" height="0.8"/><rect id="rect7802" class="cls-48" x="45.18" y="74.44" width="7.42" height="0.8"/><rect id="rect7804" class="cls-49" x="45.18" y="76.58" width="6.55" height="0.8"/><rect id="rect7806" class="cls-50" x="59.9" y="74.44" width="5.01" height="0.8"/><rect id="rect7808" class="cls-51" x="59.9" y="76.55" width="5.01" height="0.8"/><rect id="rect7810" class="cls-52" x="65.73" y="71.73" width="6.74" height="1.81"/><rect id="rect7812" class="cls-53" x="69.52" y="74.44" width="2.53" height="0.8"/><rect id="rect7814" class="cls-54" x="69.55" y="76.55" width="2.5" height="0.8"/></g><g id="table2"><rect id="rect7818" class="cls-30" x="44.79" y="58.41" width="20.66" height="10.68"/><rect id="rect7820" class="cls-30" x="65.8" y="58.41" width="6.62" height="10.68"/><rect id="rect7822" class="cls-55" x="44.79" y="56" width="27.63" height="2.67"/><rect id="rect7824" class="cls-56" x="45.11" y="56.94" width="9.97" height="1.08"/><rect id="rect7826" class="cls-57" x="66.06" y="56.94" width="4.3" height="1.08"/><rect id="rect7828" class="cls-58" x="45.11" y="59.22" width="17.27" height="1.08"/><rect id="rect7830" class="cls-58" x="45.11" y="61.23" width="13.29" height="1.08"/><rect id="rect7832" class="cls-58" x="45.11" y="63.5" width="5.39" height="1.08"/><rect id="rect7834" class="cls-58" x="45.11" y="65.82" width="9.97" height="1.08"/><rect id="rect7836" class="cls-58" x="68.71" y="59.22" width="3.2" height="1.08"/><rect id="rect7838" class="cls-58" x="69.55" y="61.23" width="2.36" height="1.08"/><rect id="rect7840" class="cls-58" x="68.83" y="63.5" width="3.08" height="1.08"/><rect id="rect7842" class="cls-58" x="67.52" y="65.82" width="4.39" height="1.08"/><rect id="rect7844" class="cls-58" x="67.52" y="67.84" width="4.39" height="1.08"/><rect id="rect7846" class="cls-58" x="45.15" y="67.84" width="4.39" height="1.08"/><rect id="rect7848" class="cls-58" x="50.16" y="67.84" width="0.43" height="1.08"/></g><g id="table1"><rect id="rect7450" class="cls-59" x="38.38" y="51.51" width="71.1" height="3.51"/><rect id="rect7452" class="cls-30" x="56.5" y="52.32" width="35.02" height="0.94"/><rect id="rect7454" class="cls-30" x="63.51" y="53.84" width="20" height="0.7"/></g><rect id="selected" class="cls-60" x="65.79" y="49.28" width="6.62" height="1.84"/></g></g></g></svg>