<svg xmlns="http://www.w3.org/2000/svg" xmlns:xlink="http://www.w3.org/1999/xlink" viewBox="0 0 555.84 421.45"><defs><style>.cls-1{mask:url(#mask);filter:url(#luminosity-noclip-9);}.cls-10,.cls-12,.cls-14,.cls-16,.cls-2,.cls-4,.cls-6,.cls-8{mix-blend-mode:multiply;}.cls-2{fill:url(#Áåçûìÿííûé_ãðàäèåíò_47);}.cls-3{mask:url(#mask-2);filter:url(#luminosity-noclip-14);}.cls-4{fill:url(#Áåçûìÿííûé_ãðàäèåíò_47-2);}.cls-5{mask:url(#mask-3);filter:url(#luminosity-noclip-15);}.cls-6{fill:url(#Áåçûìÿííûé_ãðàäèåíò_47-3);}.cls-7{mask:url(#mask-4);filter:url(#luminosity-noclip-16);}.cls-8{fill:url(#Áåçûìÿííûé_ãðàäèåíò_47-4);}.cls-9{mask:url(#mask-5);filter:url(#luminosity-noclip-10);}.cls-10{fill:url(#Áåçûìÿííûé_ãðàäèåíò_47-5);}.cls-11{mask:url(#mask-6);filter:url(#luminosity-noclip-11);}.cls-12{fill:url(#Áåçûìÿííûé_ãðàäèåíò_47-6);}.cls-13{mask:url(#mask-7);filter:url(#luminosity-noclip-12);}.cls-14{fill:url(#Áåçûìÿííûé_ãðàäèåíò_47-7);}.cls-15{mask:url(#mask-8);filter:url(#luminosity-noclip-13);}.cls-16{fill:url(#Áåçûìÿííûé_ãðàäèåíò_47-8);}.cls-17{fill:none;}.cls-18{opacity:0.7;}.cls-19{mask:url(#mask-9);}.cls-20,.cls-22,.cls-24,.cls-26,.cls-28,.cls-30,.cls-32,.cls-34{opacity:0.66;}.cls-20{fill:url(#Áåçûìÿííûé_ãðàäèåíò_364);}.cls-21{mask:url(#mask-10);}.cls-22{fill:url(#Áåçûìÿííûé_ãðàäèåíò_364-2);}.cls-23{mask:url(#mask-11);}.cls-24{fill:url(#Áåçûìÿííûé_ãðàäèåíò_364-3);}.cls-25{mask:url(#mask-12);}.cls-26{fill:url(#Áåçûìÿííûé_ãðàäèåíò_364-4);}.cls-27{mask:url(#mask-13);}.cls-28{fill:url(#Áåçûìÿííûé_ãðàäèåíò_364-5);}.cls-29{mask:url(#mask-14);}.cls-30{fill:url(#Áåçûìÿííûé_ãðàäèåíò_364-6);}.cls-31{mask:url(#mask-15);}.cls-32{fill:url(#Áåçûìÿííûé_ãðàäèåíò_364-7);}.cls-33{mask:url(#mask-16);}.cls-34{fill:url(#Áåçûìÿííûé_ãðàäèåíò_364-8);}.cls-35{fill:url(#Áåçûìÿííûé_ãðàäèåíò_15);}.cls-36{fill:url(#Áåçûìÿííûé_ãðàäèåíò_15-2);}.cls-37{fill:url(#Áåçûìÿííûé_ãðàäèåíò_15-3);}.cls-38{fill:url(#Áåçûìÿííûé_ãðàäèåíò_15-4);}.cls-39{fill:url(#Áåçûìÿííûé_ãðàäèåíò_15-5);}.cls-40{fill:url(#Áåçûìÿííûé_ãðàäèåíò_3);}.cls-41{fill:url(#Áåçûìÿííûé_ãðàäèåíò_24);}.cls-42{fill:#24126a;}.cls-43{opacity:0.51;}.cls-44{fill:#453c9e;}.cls-45{fill:url(#Áåçûìÿííûé_ãðàäèåíò_24-2);}.cls-46{fill:url(#Áåçûìÿííûé_ãðàäèåíò_3-2);}.cls-47{fill:#2842a2;}.cls-48{fill:#adb1f2;}.cls-49{fill:#9198db;}.cls-50{fill:url(#Áåçûìÿííûé_ãðàäèåíò_3-3);}.cls-51{opacity:0.11;}.cls-52{clip-path:url(#clip-path);}.cls-53{fill:url(#Áåçûìÿííûé_ãðàäèåíò_3-4);}.cls-54{fill:url(#Áåçûìÿííûé_ãðàäèåíò_3-5);}.cls-55{fill:url(#Áåçûìÿííûé_ãðàäèåíò_15-6);}.cls-56{fill:url(#Áåçûìÿííûé_ãðàäèåíò_24-3);}.cls-57{fill:url(#Áåçûìÿííûé_ãðàäèåíò_25);}.cls-58{fill:url(#Áåçûìÿííûé_ãðàäèåíò_24-4);}.cls-59{fill:url(#Áåçûìÿííûé_ãðàäèåíò_3-6);}.cls-60,.cls-61{fill:#42e8e0;}.cls-60{opacity:0.5;}.cls-62{filter:url(#luminosity-noclip-8);}.cls-63{filter:url(#luminosity-noclip-7);}.cls-64{filter:url(#luminosity-noclip-6);}.cls-65{filter:url(#luminosity-noclip-5);}.cls-66{filter:url(#luminosity-noclip-4);}.cls-67{filter:url(#luminosity-noclip-3);}.cls-68{filter:url(#luminosity-noclip-2);}.cls-69{filter:url(#luminosity-noclip);}</style><filter id="luminosity-noclip" x="261.61" y="-8411.12" width="294.23" height="32766" filterUnits="userSpaceOnUse" color-interpolation-filters="sRGB"><feFlood flood-color="#fff" result="bg"/><feBlend in="SourceGraphic" in2="bg"/></filter><mask id="mask" x="261.61" y="-8411.12" width="294.23" height="32766" maskUnits="userSpaceOnUse"><g class="cls-69"/></mask><linearGradient id="Áåçûìÿííûé_ãðàäèåíò_47" x1="-546.43" y1="1858.2" x2="-546.43" y2="1571.35" gradientTransform="matrix(-0.87, -0.5, -1, 0.58, 1643.73, -935.59)" gradientUnits="userSpaceOnUse"><stop offset="0"/><stop offset="0.06" stop-color="#2a2a2a"/><stop offset="0.15" stop-color="#626262"/><stop offset="0.23" stop-color="#929292"/><stop offset="0.31" stop-color="#b6b6b6"/><stop offset="0.39" stop-color="#d1d1d1"/><stop offset="0.45" stop-color="#e0e0e0"/><stop offset="0.51" stop-color="#e6e6e6"/><stop offset="0.55" stop-color="#dedede"/><stop offset="0.62" stop-color="#c9c9c9"/><stop offset="0.71" stop-color="#a7a7a7"/><stop offset="0.8" stop-color="#787878"/><stop offset="0.91" stop-color="#3b3b3b"/><stop offset="1"/></linearGradient><filter id="luminosity-noclip-2" x="64.06" y="-8411.12" width="371.44" height="32766" filterUnits="userSpaceOnUse" color-interpolation-filters="sRGB"><feFlood flood-color="#fff" result="bg"/><feBlend in="SourceGraphic" in2="bg"/></filter><mask id="mask-2" x="64.06" y="-8411.12" width="371.44" height="32766" maskUnits="userSpaceOnUse"><g class="cls-68"/></mask><linearGradient id="Áåçûìÿííûé_ãðàäèåíò_47-2" x1="-254.38" y1="1801.91" x2="-254.38" y2="1437.61" xlink:href="#Áåçûìÿííûé_ãðàäèåíò_47"/><filter id="luminosity-noclip-3" x="113.54" y="-8411.12" width="316.93" height="32766" filterUnits="userSpaceOnUse" color-interpolation-filters="sRGB"><feFlood flood-color="#fff" result="bg"/><feBlend in="SourceGraphic" in2="bg"/></filter><mask id="mask-3" x="113.54" y="-8411.12" width="316.93" height="32766" maskUnits="userSpaceOnUse"><g class="cls-67"/></mask><linearGradient id="Áåçûìÿííûé_ãðàäèåíò_47-3" x1="-375.95" y1="1858.2" x2="-375.95" y2="1548.58" xlink:href="#Áåçûìÿííûé_ãðàäèåíò_47"/><filter id="luminosity-noclip-4" x="233.64" y="-8411.12" width="137.11" height="32766" filterUnits="userSpaceOnUse" color-interpolation-filters="sRGB"><feFlood flood-color="#fff" result="bg"/><feBlend in="SourceGraphic" in2="bg"/></filter><mask id="mask-4" x="233.64" y="-8411.12" width="137.11" height="32766" maskUnits="userSpaceOnUse"><g class="cls-66"/></mask><linearGradient id="Áåçûìÿííûé_ãðàäèåíò_47-4" x1="-333.33" y1="1700.6" x2="-333.33" y2="1571.35" xlink:href="#Áåçûìÿííûé_ãðàäèåíò_47"/><filter id="luminosity-noclip-5" x="293.07" y="-8411.12" width="157.28" height="32766" filterUnits="userSpaceOnUse" color-interpolation-filters="sRGB"><feFlood flood-color="#fff" result="bg"/><feBlend in="SourceGraphic" in2="bg"/></filter><mask id="mask-5" x="293.07" y="-8411.12" width="157.28" height="32766" maskUnits="userSpaceOnUse"><g class="cls-65"/></mask><linearGradient id="Áåçûìÿííûé_ãðàäèåíò_47-5" x1="-503.81" y1="1789.51" x2="-503.81" y2="1640.03" xlink:href="#Áåçûìÿííûé_ãðàäèåíò_47"/><filter id="luminosity-noclip-6" x="112.37" y="-8411.12" width="270.32" height="32766" filterUnits="userSpaceOnUse" color-interpolation-filters="sRGB"><feFlood flood-color="#fff" result="bg"/><feBlend in="SourceGraphic" in2="bg"/></filter><mask id="mask-6" x="112.37" y="-8411.12" width="270.32" height="32766" maskUnits="userSpaceOnUse"><g class="cls-64"/></mask><linearGradient id="Áåçûìÿííûé_ãðàäèåíò_47-6" x1="-461.12" y1="1933.5" x2="-461.12" y2="1670.76" xlink:href="#Áåçûìÿííûé_ãðàäèåíò_47"/><filter id="luminosity-noclip-7" x="43.12" y="-8411.12" width="478.88" height="32766" filterUnits="userSpaceOnUse" color-interpolation-filters="sRGB"><feFlood flood-color="#fff" result="bg"/><feBlend in="SourceGraphic" in2="bg"/></filter><mask id="mask-7" x="43.12" y="-8411.12" width="478.88" height="32766" maskUnits="userSpaceOnUse"><g class="cls-63"/></mask><linearGradient id="Áåçûìÿííûé_ãðàäèåíò_47-7" x1="-418.86" y1="1966.46" x2="-418.86" y2="1493.9" xlink:href="#Áåçûìÿííûé_ãðàäèåíò_47"/><filter id="luminosity-noclip-8" x="14.12" y="-8411.12" width="534.58" height="32766" filterUnits="userSpaceOnUse" color-interpolation-filters="sRGB"><feFlood flood-color="#fff" result="bg"/><feBlend in="SourceGraphic" in2="bg"/></filter><mask id="mask-8" x="14.12" y="-8411.12" width="534.58" height="32766" maskUnits="userSpaceOnUse"><g class="cls-62"/></mask><linearGradient id="Áåçûìÿííûé_ãðàäèåíò_47-8" x1="-295.03" y1="1887.55" x2="-295.03" y2="1359.33" xlink:href="#Áåçûìÿííûé_ãðàäèåíò_47"/><filter id="luminosity-noclip-9" x="261.61" y="248.15" width="294.23" height="171.73" filterUnits="userSpaceOnUse" color-interpolation-filters="sRGB"><feFlood flood-color="#fff" result="bg"/><feBlend in="SourceGraphic" in2="bg"/></filter><mask id="mask-9" x="261.61" y="248.15" width="294.23" height="171.73" maskUnits="userSpaceOnUse"><g class="cls-1"><path class="cls-2" d="M551,250.08l1.37.78c5.07,2.89,4.47,8-1.36,11.4L286.15,417c-5.82,3.4-14.66,3.81-19.73.92l-1.37-.78c-5.07-2.89-4.47-8,1.36-11.4L531.3,251C537.12,247.6,546,247.19,551,250.08Z"/></g></mask><linearGradient id="Áåçûìÿííûé_ãðàäèåíò_364" x1="-546.43" y1="1858.2" x2="-546.43" y2="1571.35" gradientTransform="matrix(-0.87, -0.5, -1, 0.58, 1643.73, -935.59)" gradientUnits="userSpaceOnUse"><stop offset="0" stop-color="#5761d7"/><stop offset="0.01" stop-color="#5665d7"/><stop offset="0.13" stop-color="#4f94da"/><stop offset="0.24" stop-color="#49b8dd"/><stop offset="0.34" stop-color="#45d3df"/><stop offset="0.43" stop-color="#43e2e0"/><stop offset="0.51" stop-color="#42e8e0"/><stop offset="0.57" stop-color="#43e0df"/><stop offset="0.67" stop-color="#46ccde"/><stop offset="0.8" stop-color="#4ca9dc"/><stop offset="0.93" stop-color="#537ad9"/><stop offset="1" stop-color="#5761d7"/></linearGradient><filter id="luminosity-noclip-10" x="293.07" y="267.04" width="157.28" height="91.71" filterUnits="userSpaceOnUse" color-interpolation-filters="sRGB"><feFlood flood-color="#fff" result="bg"/><feBlend in="SourceGraphic" in2="bg"/></filter><mask id="mask-10" x="293.07" y="267.04" width="157.28" height="91.71" maskUnits="userSpaceOnUse"><g class="cls-9"><path class="cls-10" d="M445.54,269l1.37.78c5.07,2.89,4.47,8-1.36,11.4L317.61,355.91c-5.82,3.4-14.66,3.81-19.73.92l-1.37-.78c-5.07-2.89-4.47-8,1.36-11.4l127.94-74.76C431.63,266.49,440.47,266.08,445.54,269Z"/></g></mask><linearGradient id="Áåçûìÿííûé_ãðàäèåíò_364-2" x1="-503.81" y1="1789.51" x2="-503.81" y2="1640.03" xlink:href="#Áåçûìÿííûé_ãðàäèåíò_364"/><filter id="luminosity-noclip-11" x="112.37" y="263.83" width="270.32" height="157.62" filterUnits="userSpaceOnUse" color-interpolation-filters="sRGB"><feFlood flood-color="#fff" result="bg"/><feBlend in="SourceGraphic" in2="bg"/></filter><mask id="mask-11" x="112.37" y="263.83" width="270.32" height="157.62" maskUnits="userSpaceOnUse"><g class="cls-11"><path class="cls-12" d="M377.88,265.76l1.37.78c5.07,2.89,4.47,8-1.36,11.4l-241,140.66c-5.82,3.4-14.66,3.81-19.73.92l-1.37-.78c-5.07-2.89-4.47-8,1.36-11.4l241-140.66C364,263.27,372.81,262.86,377.88,265.76Z"/></g></mask><linearGradient id="Áåçûìÿííûé_ãðàäèåíò_364-3" x1="-461.12" y1="1933.5" x2="-461.12" y2="1670.76" xlink:href="#Áåçûìÿííûé_ãðàäèåíò_364"/><filter id="luminosity-noclip-12" x="43.12" y="139.69" width="478.88" height="280.19" filterUnits="userSpaceOnUse" color-interpolation-filters="sRGB"><feFlood flood-color="#fff" result="bg"/><feBlend in="SourceGraphic" in2="bg"/></filter><mask id="mask-12" x="43.12" y="139.69" width="478.88" height="280.19" maskUnits="userSpaceOnUse"><g class="cls-13"><path class="cls-14" d="M517.19,141.62l1.37.78c5.07,2.89,4.47,8-1.36,11.4L67.66,417c-5.82,3.4-14.66,3.81-19.73.92l-1.37-.78c-5.07-2.89-4.47-8,1.36-11.4L497.46,142.54C503.28,139.13,512.11,138.72,517.19,141.62Z"/></g></mask><linearGradient id="Áåçûìÿííûé_ãðàäèåíò_364-4" x1="-418.86" y1="1966.46" x2="-418.86" y2="1493.9" xlink:href="#Áåçûìÿííûé_ãðàäèåíò_364"/><filter id="luminosity-noclip-13" x="14.12" y="0" width="534.58" height="312.5" filterUnits="userSpaceOnUse" color-interpolation-filters="sRGB"><feFlood flood-color="#fff" result="bg"/><feBlend in="SourceGraphic" in2="bg"/></filter><mask id="mask-13" x="14.12" y="0" width="534.58" height="312.5" maskUnits="userSpaceOnUse"><g class="cls-15"><path class="cls-16" d="M543.9,1.93l1.37.78c5.07,2.89,4.47,8-1.36,11.4L38.67,309.65c-5.82,3.4-14.66,3.81-19.73.92l-1.37-.78c-5.07-2.89-4.47-8,1.36-11.4L524.17,2.85C530-.55,538.82-1,543.9,1.93Z"/></g></mask><linearGradient id="Áåçûìÿííûé_ãðàäèåíò_364-5" x1="-295.03" y1="1887.55" x2="-295.03" y2="1359.33" xlink:href="#Áåçûìÿííûé_ãðàäèåíò_364"/><filter id="luminosity-noclip-14" x="64.06" y="25.54" width="371.44" height="216.84" filterUnits="userSpaceOnUse" color-interpolation-filters="sRGB"><feFlood flood-color="#fff" result="bg"/><feBlend in="SourceGraphic" in2="bg"/></filter><mask id="mask-14" x="64.06" y="25.54" width="371.44" height="216.84" maskUnits="userSpaceOnUse"><g class="cls-3"><path class="cls-4" d="M430.69,27.47l1.37.78c5.07,2.89,4.47,8-1.36,11.4L88.61,239.54c-5.82,3.4-14.66,3.81-19.73.92l-1.37-.78c-5.07-2.89-4.47-8,1.36-11.4L411,28.39C416.79,25,425.62,24.58,430.69,27.47Z"/></g></mask><linearGradient id="Áåçûìÿííûé_ãðàäèåíò_364-6" x1="-254.38" y1="1801.91" x2="-254.38" y2="1437.61" xlink:href="#Áåçûìÿííûé_ãðàäèåíò_364"/><filter id="luminosity-noclip-15" x="113.54" y="150.42" width="316.93" height="184.99" filterUnits="userSpaceOnUse" color-interpolation-filters="sRGB"><feFlood flood-color="#fff" result="bg"/><feBlend in="SourceGraphic" in2="bg"/></filter><mask id="mask-15" x="113.54" y="150.42" width="316.93" height="184.99" maskUnits="userSpaceOnUse"><g class="cls-5"><path class="cls-6" d="M425.66,152.35l1.37.78c5.07,2.89,4.47,8-1.36,11.4l-287.59,168c-5.82,3.4-14.66,3.81-19.73.92l-1.37-.78c-5.07-2.89-4.47-8,1.36-11.4l287.59-168C411.75,149.87,420.58,149.45,425.66,152.35Z"/></g></mask><linearGradient id="Áåçûìÿííûé_ãðàäèåíò_364-7" x1="-375.95" y1="1858.2" x2="-375.95" y2="1548.58" xlink:href="#Áåçûìÿííûé_ãðàäèåíò_364"/><filter id="luminosity-noclip-16" x="233.64" y="142.57" width="137.11" height="79.93" filterUnits="userSpaceOnUse" color-interpolation-filters="sRGB"><feFlood flood-color="#fff" result="bg"/><feBlend in="SourceGraphic" in2="bg"/></filter><mask id="mask-16" x="233.64" y="142.57" width="137.11" height="79.93" maskUnits="userSpaceOnUse"><g class="cls-7"><path class="cls-8" d="M365.94,144.49l1.37.78c5.07,2.89,4.47,8-1.36,11.4l-107.77,63c-5.82,3.4-14.66,3.81-19.73.92l-1.37-.78c-5.07-2.89-4.47-8,1.36-11.4l107.77-63C352,142,360.87,141.6,365.94,144.49Z"/></g></mask><linearGradient id="Áåçûìÿííûé_ãðàäèåíò_364-8" x1="-333.33" y1="1700.6" x2="-333.33" y2="1571.35" xlink:href="#Áåçûìÿííûé_ãðàäèåíò_364"/><linearGradient id="Áåçûìÿííûé_ãðàäèåíò_15" x1="-3432.14" y1="274.34" x2="-3418.22" y2="282.37" gradientTransform="translate(3734.32)" gradientUnits="userSpaceOnUse"><stop offset="0" stop-color="#42e8e0"/><stop offset="0.15" stop-color="#43e3e0"/><stop offset="0.33" stop-color="#45d5df"/><stop offset="0.52" stop-color="#49bddd"/><stop offset="0.72" stop-color="#4e9cdb"/><stop offset="0.93" stop-color="#5472d8"/><stop offset="1" stop-color="#5761d7"/></linearGradient><linearGradient id="Áåçûìÿííûé_ãðàäèåíò_15-2" x1="-1380.62" y1="1712.51" x2="-1351.56" y2="1712.51" gradientTransform="matrix(0.87, 0.5, -1, 0.58, 3183.18, -4.56)" xlink:href="#Áåçûìÿííûé_ãðàäèåíò_15"/><linearGradient id="Áåçûìÿííûé_ãðàäèåíò_15-3" x1="-3422.72" y1="294.93" x2="-3398.42" y2="294.93" xlink:href="#Áåçûìÿííûé_ãðàäèåíò_15"/><linearGradient id="Áåçûìÿííûé_ãðàäèåíò_15-4" x1="-3406.07" y1="284.81" x2="-3415.08" y2="305.05" xlink:href="#Áåçûìÿííûé_ãðàäèåíò_15"/><linearGradient id="Áåçûìÿííûé_ãðàäèåíò_15-5" x1="-3648.24" y1="304.55" x2="-3455.46" y2="304.55" xlink:href="#Áåçûìÿííûé_ãðàäèåíò_15"/><linearGradient id="Áåçûìÿííûé_ãðàäèåíò_3" x1="-3674.61" y1="211.42" x2="-3527.62" y2="211.42" gradientTransform="translate(3734.32)" gradientUnits="userSpaceOnUse"><stop offset="0" stop-color="#c0bff6"/><stop offset="0.29" stop-color="#c5c4f7"/><stop offset="0.64" stop-color="#d3d2f9"/><stop offset="1" stop-color="#e9e9fd"/></linearGradient><linearGradient id="Áåçûìÿííûé_ãðàäèåíò_24" x1="-3674.61" y1="249.12" x2="-3649.37" y2="249.12" gradientTransform="translate(3734.32)" gradientUnits="userSpaceOnUse"><stop offset="0" stop-color="#5761d7"/><stop offset="0.18" stop-color="#5c66d9"/><stop offset="0.39" stop-color="#6a73df"/><stop offset="0.61" stop-color="#8289e8"/><stop offset="0.85" stop-color="#a3a7f5"/><stop offset="1" stop-color="#bcbeff"/></linearGradient><linearGradient id="Áåçûìÿííûé_ãðàäèåíò_24-2" x1="-3654.91" y1="291.5" x2="-3447.31" y2="291.5" xlink:href="#Áåçûìÿííûé_ãðàäèåíò_24"/><linearGradient id="Áåçûìÿííûé_ãðàäèåíò_3-2" x1="-3585.16" y1="284.57" x2="-3377.45" y2="284.57" xlink:href="#Áåçûìÿííûé_ãðàäèåíò_3"/><linearGradient id="Áåçûìÿííûé_ãðàäèåíò_3-3" x1="-3549.98" y1="296.36" x2="-3496.82" y2="296.36" xlink:href="#Áåçûìÿííûé_ãðàäèåíò_3"/><clipPath id="clip-path"><polygon id="SVGID" class="cls-17" points="188.96 131.8 66.31 202.61 81.52 292.28 204.09 221.51 188.96 131.8"/></clipPath><linearGradient id="Áåçûìÿííûé_ãðàäèåíò_3-4" x1="-3664.52" y1="238.53" x2="-3456.81" y2="238.53" xlink:href="#Áåçûìÿííûé_ãðàäèåíò_3"/><linearGradient id="Áåçûìÿííûé_ãðàäèåíò_3-5" x1="-3678.19" y1="223.29" x2="-3625.02" y2="223.29" xlink:href="#Áåçûìÿííûé_ãðàäèåíò_3"/><linearGradient id="Áåçûìÿííûé_ãðàäèåíò_15-6" x1="-3428.98" y1="253.66" x2="-3349.8" y2="253.66" xlink:href="#Áåçûìÿííûé_ãðàäèåíò_15"/><linearGradient id="Áåçûìÿííûé_ãðàäèåíò_24-3" x1="-4117.17" y1="-1900.41" x2="-4043.5" y2="-1900.41" gradientTransform="matrix(0.87, -0.5, 0, 1.15, 3870.73, 383.49)" xlink:href="#Áåçûìÿííûé_ãðàäèåíò_24"/><radialGradient id="Áåçûìÿííûé_ãðàäèåíò_25" cx="-3414.06" cy="228.52" fx="-3442.757777675303" fy="218.39917921783098" r="30.43" gradientTransform="translate(3734.32)" gradientUnits="userSpaceOnUse"><stop offset="0" stop-color="#2b237c"/><stop offset="1" stop-color="#180d5b"/></radialGradient><linearGradient id="Áåçûìÿííûé_ãðàäèåíò_24-4" x1="-3429.05" y1="238.08" x2="-3355.72" y2="238.08" xlink:href="#Áåçûìÿííûé_ãðàäèåíò_24"/><linearGradient id="Áåçûìÿííûé_ãðàäèåíò_3-6" x1="-4102.89" y1="-1888.01" x2="-4029.22" y2="-1888.01" gradientTransform="matrix(0.87, -0.5, 0, 1.15, 3870.73, 383.49)" xlink:href="#Áåçûìÿííûé_ãðàäèåíò_3"/></defs><title>Asset 2</title><g id="Layer_2" data-name="Layer 2"><g id="Ñëîé_1" data-name="Ñëîé 1"><g class="cls-18"><g class="cls-19"><path class="cls-20" d="M551,250.08l1.37.78c5.07,2.89,4.47,8-1.36,11.4L286.15,417c-5.82,3.4-14.66,3.81-19.73.92l-1.37-.78c-5.07-2.89-4.47-8,1.36-11.4L531.3,251C537.12,247.6,546,247.19,551,250.08Z"/></g><g class="cls-21"><path class="cls-22" d="M445.54,269l1.37.78c5.07,2.89,4.47,8-1.36,11.4L317.61,355.91c-5.82,3.4-14.66,3.81-19.73.92l-1.37-.78c-5.07-2.89-4.47-8,1.36-11.4l127.94-74.76C431.63,266.49,440.47,266.08,445.54,269Z"/></g><g class="cls-23"><path class="cls-24" d="M377.88,265.76l1.37.78c5.07,2.89,4.47,8-1.36,11.4l-241,140.66c-5.82,3.4-14.66,3.81-19.73.92l-1.37-.78c-5.07-2.89-4.47-8,1.36-11.4l241-140.66C364,263.27,372.81,262.86,377.88,265.76Z"/></g><g class="cls-25"><path class="cls-26" d="M517.19,141.62l1.37.78c5.07,2.89,4.47,8-1.36,11.4L67.66,417c-5.82,3.4-14.66,3.81-19.73.92l-1.37-.78c-5.07-2.89-4.47-8,1.36-11.4L497.46,142.54C503.28,139.13,512.11,138.72,517.19,141.62Z"/></g><g class="cls-27"><path class="cls-28" d="M543.9,1.93l1.37.78c5.07,2.89,4.47,8-1.36,11.4L38.67,309.65c-5.82,3.4-14.66,3.81-19.73.92l-1.37-.78c-5.07-2.89-4.47-8,1.36-11.4L524.17,2.85C530-.55,538.82-1,543.9,1.93Z"/></g><g class="cls-29"><path class="cls-30" d="M430.69,27.47l1.37.78c5.07,2.89,4.47,8-1.36,11.4L88.61,239.54c-5.82,3.4-14.66,3.81-19.73.92l-1.37-.78c-5.07-2.89-4.47-8,1.36-11.4L411,28.39C416.79,25,425.62,24.58,430.69,27.47Z"/></g><g class="cls-31"><path class="cls-32" d="M425.66,152.35l1.37.78c5.07,2.89,4.47,8-1.36,11.4l-287.59,168c-5.82,3.4-14.66,3.81-19.73.92l-1.37-.78c-5.07-2.89-4.47-8,1.36-11.4l287.59-168C411.75,149.87,420.58,149.45,425.66,152.35Z"/></g><g class="cls-33"><path class="cls-34" d="M365.94,144.49l1.37.78c5.07,2.89,4.47,8-1.36,11.4l-107.77,63c-5.82,3.4-14.66,3.81-19.73.92l-1.37-.78c-5.07-2.89-4.47-8,1.36-11.4l107.77-63C352,142,360.87,141.6,365.94,144.49Z"/></g></g><path class="cls-35" d="M312.28,288.94l.56-.92-12.19-7.35a.78.78,0,0,1,0-1.33l12-7.12-.55-.93-12,7.12a1.85,1.85,0,0,0,0,3.18Z"/><path class="cls-36" d="M287.51,314.81a6.37,6.37,0,0,0,3.19-.85l21.69-12.52-.54-.94L290.16,313a5.3,5.3,0,0,1-5.3,0l-21.44-12.38-.54.94L284.32,314A6.38,6.38,0,0,0,287.51,314.81Z"/><path class="cls-37" d="M315.26,300.14c-2.37-1.37-3.67-3.22-3.67-5.21s1.3-3.84,3.67-5.21c4.68-2.7,12.29-2.7,17,0,2.37,1.37,3.67,3.22,3.67,5.21s-1.3,3.84-3.67,5.21h0a18.77,18.77,0,0,1-17,0Zm.54-9.48c-2,1.16-3.13,2.68-3.13,4.27s1.11,3.11,3.13,4.27a17.59,17.59,0,0,0,15.88,0h0c2-1.16,3.13-2.68,3.13-4.27s-1.11-3.11-3.13-4.27a17.57,17.57,0,0,0-15.88,0ZM319,298a3.23,3.23,0,0,1,0-6.06,10.42,10.42,0,0,1,9.42,0,3.23,3.23,0,0,1,0,6.06,10.26,10.26,0,0,1-9.42,0Zm.54-5.13a2.19,2.19,0,0,0,0,4.19,9.24,9.24,0,0,0,8.34,0,2.19,2.19,0,0,0,0-4.19,9.24,9.24,0,0,0-8.34,0Z"/><path class="cls-38" d="M312.29,301.86c-3.16-1.83-4.9-4.29-4.9-6.93s1.74-5.1,4.9-6.92c6.32-3.65,16.59-3.65,22.91,0,3.16,1.83,4.9,4.29,4.9,6.93s-1.74,5.1-4.9,6.92a25.36,25.36,0,0,1-22.91,0Zm.54-12.92c-2.81,1.62-4.36,3.75-4.36,6s1.55,4.37,4.36,6c6,3.48,15.81,3.48,21.83,0h0c2.81-1.62,4.36-3.75,4.36-6s-1.55-4.37-4.36-6a24.15,24.15,0,0,0-21.83,0Z"/><path class="cls-39" d="M153.27,359.24,87.12,321a2.09,2.09,0,0,1,0-3.62l119.14-68.79.27-.16,71.28,41.15a2.09,2.09,0,0,1,0,3.62l-114.28,66a10.28,10.28,0,0,1-10.25,0ZM87.66,318.36a1,1,0,0,0,0,1.75l66.15,38.19a9.19,9.19,0,0,0,9.17,0l114.28-66a1,1,0,0,0,0-1.75l-70.74-40.84Z"/><path class="cls-40" d="M206.67,220.56l-15.92-94.46,1.28-.54-1.92-1.1h0a1.38,1.38,0,0,0-1.48.1L61.39,198a3.59,3.59,0,0,0-1.65,3.23l16,95.21a1.19,1.19,0,0,0,.67,1h0l1.88,1.09.32-1.76-.11,0L205,223.8A3.59,3.59,0,0,0,206.67,220.56Z"/><path class="cls-41" d="M62.1,200.62,60,199.7a2.88,2.88,0,0,0-.27,1.57l16,95.21a1.19,1.19,0,0,0,.67,1h0l1.88,1.09.32-1.76-.11,0,6.4-3.69Z"/><path class="cls-42" d="M207,224.94,79.78,298.41c-1,.57-1.82.24-2-.78l-16-95.21a3.59,3.59,0,0,1,1.65-3.23l127.24-73.46c1-.57,1.82-.24,2,.78l16,95.21A3.59,3.59,0,0,1,207,224.94Z"/><g class="cls-43"><polygon class="cls-44" points="188.96 131.8 66.31 202.61 81.52 292.28 204.09 221.51 188.96 131.8"/></g><path class="cls-45" d="M287,270l-6.94,3.63-69.63-40.2a5.05,5.05,0,0,0-4.54.19L85.79,303c-1.15-.64-6.39-3.16-6.39-3.16l2.54,6.62h0a1.51,1.51,0,0,0,.71.79L156,349.55a5.05,5.05,0,0,0,4.55-.19l122.89-71a2.2,2.2,0,0,0,1-1.1h0Z"/><path class="cls-46" d="M285.93,271.16,160,343.88a5.18,5.18,0,0,1-4.66.19L80.16,300.68c-1.19-.69-1-1.89.33-2.69l125.95-72.72a5.18,5.18,0,0,1,4.66-.19l75.16,43.39C287.46,269.16,287.31,270.36,285.93,271.16Z"/><path class="cls-47" d="M122,328.15v-1.38c0-.13.08-.19.18-.13l4.87,2.81a.43.43,0,0,1,.18.34v1.38c0,.13-.08.19-.18.13l-4.87-2.81A.43.43,0,0,1,122,328.15Z"/><path class="cls-47" d="M129.28,332.35V331c0-.13.08-.19.18-.13l4.87,2.81a.43.43,0,0,1,.18.34v1.38c0,.13-.08.19-.18.13l-4.87-2.81A.43.43,0,0,1,129.28,332.35Z"/><path class="cls-48" d="M99.76,296.61l104.66-60.43a2.25,2.25,0,0,1,2.25,0l37.27,21.56a.8.8,0,0,1,0,1.39l-104.62,60.4a2.25,2.25,0,0,1-2.25,0L99.76,298A.8.8,0,0,1,99.76,296.61Z"/><path class="cls-49" d="M99.76,298l.37.22L204.42,238a2.25,2.25,0,0,1,2.25,0l36.9,21.35.37-.22a.8.8,0,0,0,0-1.39l-37.27-21.56a2.25,2.25,0,0,0-2.25,0L99.76,296.61A.8.8,0,0,0,99.76,298Z"/><polygon class="cls-42" points="209.49 241.65 118.58 294.14 114.53 291.8 205.45 239.31 209.49 241.65"/><polygon class="cls-42" points="219.4 247.37 134.13 296.6 130.08 294.27 215.36 245.03 219.4 247.37"/><polygon class="cls-42" points="225.86 251.1 125.45 309.06 121.41 306.73 221.81 248.76 225.86 251.1"/><polygon class="cls-42" points="232.31 254.82 131.91 312.79 127.87 310.46 228.27 252.49 232.31 254.82"/><polygon class="cls-42" points="238.76 258.55 138.36 316.52 134.32 314.18 234.72 256.21 238.76 258.55"/><polygon class="cls-42" points="113.08 297.31 109.04 299.64 105 297.31 109.04 294.98 113.08 297.31"/><polygon class="cls-42" points="127.34 300.52 118.95 305.36 114.91 303.03 123.3 298.19 127.34 300.52"/><path class="cls-50" d="M208.45,311.24l28.22-16.29a1.22,1.22,0,0,0,0-2.31l-19.3-11.14a4.41,4.41,0,0,0-4,0l-28.22,16.29a1.22,1.22,0,0,0,0,2.31l19.3,11.14A4.41,4.41,0,0,0,208.45,311.24Z"/><path class="cls-49" d="M185.16,298.73l28.22-16.29a4.41,4.41,0,0,1,4,0l19.3,11.14a1.73,1.73,0,0,1,.69.68c.29-.56.07-1.18-.69-1.62l-19.3-11.14a4.41,4.41,0,0,0-4,0l-28.22,16.29c-.76.44-1,1.07-.69,1.62A1.73,1.73,0,0,1,185.16,298.73Z"/><g class="cls-51"><g class="cls-52"><path class="cls-53" d="M206.57,225.12,80.62,297.84A5.18,5.18,0,0,1,76,298L.81,254.64c-1.19-.69-1-1.89.33-2.69l125.95-72.72a5.18,5.18,0,0,1,4.66-.19l75.16,43.39C208.1,223.12,208,224.32,206.57,225.12Z"/><path class="cls-54" d="M80.25,238.16l28.22-16.29a1.22,1.22,0,0,0,0-2.31l-19.3-11.14a4.41,4.41,0,0,0-4,0L57,224.71A1.22,1.22,0,0,0,57,227l19.3,11.14A4.41,4.41,0,0,0,80.25,238.16Z"/><path class="cls-49" d="M57,225.65l28.22-16.29a4.41,4.41,0,0,1,4,0l19.3,11.14a1.73,1.73,0,0,1,.69.68c.29-.56.07-1.18-.69-1.62l-19.3-11.14a4.41,4.41,0,0,0-4,0L57,224.71c-.76.44-1,1.07-.69,1.62A1.73,1.73,0,0,1,57,225.65Z"/><path class="cls-48" d="M44.55,263.62l104.66-60.43a2.25,2.25,0,0,1,2.25,0l37.27,21.56a.8.8,0,0,1,0,1.39L84.12,286.55a2.25,2.25,0,0,1-2.25,0L44.55,265A.8.8,0,0,1,44.55,263.62Z"/><path class="cls-49" d="M44.55,265l.37.22L149.21,205a2.25,2.25,0,0,1,2.25,0l36.9,21.35.37-.22a.8.8,0,0,0,0-1.39l-37.27-21.56a2.25,2.25,0,0,0-2.25,0L44.55,263.62A.8.8,0,0,0,44.55,265Z"/><polygon class="cls-42" points="178.99 223.29 87.8 275.93 91.42 278.02 182.6 225.37 178.99 223.29"/><polygon class="cls-42" points="169.38 217.74 82.71 267.78 86.32 269.86 172.99 219.83 169.38 217.74"/><polygon class="cls-42" points="76.24 271.51 68.15 276.19 71.76 278.27 79.85 273.6 76.24 271.51"/><polygon class="cls-42" points="83.39 278.48 77.75 281.73 81.36 283.82 87 280.56 83.39 278.48"/><polygon class="cls-42" points="163.36 214.26 62.13 272.71 65.74 274.8 166.97 216.35 163.36 214.26"/><polygon class="cls-42" points="157.34 210.79 56.11 269.24 59.72 271.32 160.95 212.88 157.34 210.79"/><polygon class="cls-42" points="151.32 207.31 50.09 265.76 53.7 267.85 154.93 209.4 151.32 207.31"/></g></g><path class="cls-55" d="M319.06,276.32l-12.77-7.37a1.67,1.67,0,0,1-1-1.39,1.39,1.39,0,0,1,.76-1.19l61.44-35.47a3.57,3.57,0,0,1,3.26.11l12.77,7.37a1.67,1.67,0,0,1,1,1.39,1.39,1.39,0,0,1-.76,1.19l-61.44,35.47a3,3,0,0,1-1.46.34A3.69,3.69,0,0,1,319.06,276.32Zm64.1-36.4c.12-.07.16-.13.16-.15s-.06-.18-.35-.35L370.2,232a2.37,2.37,0,0,0-2.06-.11L306.7,267.41c-.13.08-.16.14-.16.15s.06.18.35.35l12.77,7.37a2.38,2.38,0,0,0,2.06.11Z"/><path class="cls-56" d="M358.79,210.48a18.24,18.24,0,0,0-4.5,3.8c-1.89-6.06-7.64-7.94-14.45-4-5.63,3.25-10.54,9.65-13.14,16.43a6.12,6.12,0,0,0-2.84.9,14.71,14.71,0,0,0-6.66,11.53c0,.09,0,.18,0,.26a8,8,0,0,0-3.43,1.15c-4.7,2.72-8.51,9.32-8.51,14.75s3.81,7.63,8.51,4.92l45-26c5.68-3.28,10.28-11.25,10.28-17.8S364.46,207.21,358.79,210.48Z"/><path class="cls-57" d="M358.79,210.48a16.47,16.47,0,0,0-2.7,2l-5-2.91h0c-2.76-1.94-6.77-1.86-11.22.71-5.63,3.25-10.54,9.65-13.14,16.43a6.12,6.12,0,0,0-2.84.9,14.71,14.71,0,0,0-6.66,11.53c0,.09,0,.17,0,.26a8,8,0,0,0-3.43,1.15c-4.7,2.72-8.51,9.32-8.51,14.75,0,2.69.94,4.59,2.46,5.49h0l0,0h0L320.09,268l2.69-13,36-20.79c5.68-3.28,10.28-11.25,10.28-17.8S364.46,207.21,358.79,210.48Z"/><path class="cls-58" d="M378.6,217.05l-12.49-7.26h0c-1.86-1.11-4.46-1-7.32.68a16.47,16.47,0,0,0-2.7,2l-5-2.91h0c-2.76-1.94-6.77-1.86-11.22.71-5.63,3.25-10.54,9.65-13.14,16.43a6.12,6.12,0,0,0-2.84.9,14.71,14.71,0,0,0-6.66,11.53c0,.09,0,.17,0,.26a8,8,0,0,0-3.43,1.15c-4.7,2.72-8.51,9.32-8.51,14.75,0,2.69.94,4.59,2.46,5.49h0l0,0h0L320.09,268l2.69-13,36-20.79c4.6-2.66,8.5-8.4,9.81-14Z"/><path class="cls-59" d="M371.15,217.66a18.24,18.24,0,0,0-4.5,3.8c-1.89-6.06-7.64-7.94-14.45-4-5.63,3.25-10.54,9.65-13.14,16.43a6.12,6.12,0,0,0-2.84.9,14.71,14.71,0,0,0-6.66,11.53c0,.09,0,.18,0,.26a8,8,0,0,0-3.43,1.15c-4.7,2.72-8.51,9.32-8.51,14.75s3.81,7.63,8.51,4.92l45-26c5.68-3.28,10.28-11.25,10.28-17.8S376.83,214.38,371.15,217.66Z"/><polygon class="cls-60" points="173.09 95.64 186.54 87.87 186.54 84.91 173.09 92.68 173.09 95.64"/><polygon class="cls-60" points="166.19 99.62 171.03 96.82 171.03 93.87 166.19 96.66 166.19 99.62"/><polygon class="cls-60" points="160.84 102.7 164.13 100.81 164.13 97.85 160.84 99.75 160.84 102.7"/><polygon class="cls-60" points="179.21 98.85 186.54 94.62 186.54 91.66 179.21 95.89 179.21 98.85"/><polygon class="cls-60" points="168.17 105.22 177.16 100.03 177.16 97.08 168.17 102.27 168.17 105.22"/><polygon class="cls-60" points="162.83 108.31 166.12 106.41 166.12 103.45 162.83 105.35 162.83 108.31"/><polygon class="cls-60" points="157.74 111.25 161.03 109.35 161.03 106.39 157.74 108.29 157.74 111.25"/><polygon class="cls-61" points="181.24 104.43 186.54 101.37 186.54 98.41 181.24 101.47 181.24 104.43"/><polygon class="cls-61" points="177.37 106.66 179.18 105.61 179.18 102.66 177.37 103.71 177.37 106.66"/><polygon class="cls-60" points="172.02 109.75 175.32 107.85 175.32 104.89 172.02 106.79 172.02 109.75"/><polygon class="cls-60" points="166.97 119.42 186.54 108.11 186.54 105.16 166.97 116.46 166.97 119.42"/><polygon class="cls-60" points="160.07 123.4 164.91 120.6 164.91 117.65 160.07 120.45 160.07 123.4"/><polygon class="cls-60" points="181.24 117.93 186.54 114.86 186.54 111.91 181.24 114.97 181.24 117.93"/><polygon class="cls-60" points="168.79 125.11 179.18 119.11 179.18 116.16 168.79 122.16 168.79 125.11"/><polygon class="cls-60" points="163.44 128.2 166.74 126.3 166.74 123.34 163.44 125.25 163.44 128.2"/><polygon class="cls-60" points="175.69 127.88 186.54 121.61 186.54 118.66 175.69 124.92 175.69 127.88"/><polygon class="cls-61" points="165.79 133.59 173.64 129.06 173.64 126.11 165.79 130.64 165.79 133.59"/><polygon class="cls-60" points="158.43 137.84 163.73 134.78 163.73 131.83 158.43 134.89 158.43 137.84"/><polygon class="cls-60" points="182.88 130.48 186.54 128.36 186.54 125.41 182.88 127.52 182.88 130.48"/><polygon class="cls-60" points="175.98 134.46 180.82 131.66 180.82 128.71 175.98 131.51 175.98 134.46"/><polygon class="cls-60" points="166.12 140.15 173.92 135.65 173.92 132.69 166.12 137.2 166.12 140.15"/><polygon class="cls-60" points="175.32 141.59 186.54 135.11 186.54 132.16 175.32 138.64 175.32 141.59"/><polygon class="cls-60" points="162.74 148.85 173.26 142.78 173.26 139.82 162.74 145.9 162.74 148.85"/><polygon class="cls-61" points="157.39 151.94 160.69 150.04 160.69 147.09 157.39 148.99 157.39 151.94"/><polygon class="cls-60" points="152.26 154.9 155.55 153 155.55 150.05 152.26 151.95 152.26 154.9"/><polygon class="cls-60" points="179.82 145.74 186.54 141.86 186.54 138.91 179.82 142.79 179.82 145.74"/><polygon class="cls-61" points="151.68 107.99 142.36 113.38 142.36 110.42 151.68 105.04 151.68 107.99"/><polygon class="cls-60" points="149.69 115.9 142.36 120.13 142.36 117.17 149.69 112.94 149.69 115.9"/><polygon class="cls-60" points="147.66 123.81 142.36 126.88 142.36 123.92 147.66 120.86 147.66 123.81"/><polygon class="cls-60" points="150.07 129.17 142.36 133.63 142.36 130.67 150.07 126.22 150.07 129.17"/><polygon class="cls-60" points="147.66 137.31 142.36 140.38 142.36 137.42 147.66 134.36 147.66 137.31"/><polygon class="cls-60" points="149.08 143.24 142.36 147.12 142.36 144.17 149.08 140.29 149.08 143.24"/><polygon class="cls-60" points="146.02 151.76 142.36 153.87 142.36 150.92 146.02 148.8 146.02 151.76"/><polygon class="cls-60" points="149.46 156.52 142.36 160.62 142.36 157.67 149.46 153.57 149.46 156.52"/><polygon class="cls-60" points="149.08 163.49 142.36 167.37 142.36 164.42 149.08 160.53 149.08 163.49"/><polygon class="cls-60" points="174.9 148.58 177.76 146.93 177.76 143.97 174.9 145.63 174.9 148.58"/><polygon class="cls-60" points="166.41 153.49 172.84 149.77 172.84 146.81 166.41 150.53 166.41 153.49"/><polygon class="cls-60" points="120.92 125.64 134.37 117.87 134.37 114.92 120.92 122.69 120.92 125.64"/><polygon class="cls-60" points="114.02 129.62 118.86 126.83 118.86 123.87 114.02 126.67 114.02 129.62"/><polygon class="cls-61" points="108.67 132.71 111.97 130.81 111.97 127.86 108.67 129.75 108.67 132.71"/><polygon class="cls-60" points="127.04 128.85 134.37 124.62 134.37 121.67 127.04 125.9 127.04 128.85"/><polygon class="cls-60" points="116 135.23 124.99 130.04 124.99 127.08 116 132.27 116 135.23"/><polygon class="cls-61" points="110.66 138.31 113.95 136.41 113.95 133.46 110.66 135.36 110.66 138.31"/><polygon class="cls-60" points="105.57 141.25 108.86 139.35 108.86 136.4 105.57 138.3 105.57 141.25"/><polygon class="cls-60" points="129.07 134.43 134.37 131.37 134.37 128.41 129.07 131.48 129.07 134.43"/><polygon class="cls-60" points="125.2 136.66 127.02 135.62 127.02 132.66 125.2 133.71 125.2 136.66"/><polygon class="cls-60" points="119.86 139.75 123.15 137.85 123.15 134.9 119.86 136.8 119.86 139.75"/><polygon class="cls-60" points="114.8 149.42 134.37 138.12 134.37 135.16 114.8 146.47 114.8 149.42"/><polygon class="cls-60" points="107.9 153.4 112.74 150.61 112.74 147.65 107.9 150.45 107.9 153.4"/><polygon class="cls-60" points="129.07 147.93 134.37 144.87 134.37 141.91 129.07 144.97 129.07 147.93"/><polygon class="cls-60" points="116.62 155.12 127.02 149.12 127.02 146.16 116.62 152.16 116.62 155.12"/><polygon class="cls-60" points="111.28 158.2 114.57 156.3 114.57 153.35 111.28 155.25 111.28 158.2"/><polygon class="cls-61" points="123.52 157.88 134.37 151.62 134.37 148.66 123.52 154.93 123.52 157.88"/><polygon class="cls-60" points="113.62 163.6 121.47 159.07 121.47 156.11 113.62 160.65 113.62 163.6"/><polygon class="cls-60" points="106.26 167.85 111.56 164.79 111.56 161.83 106.26 164.89 106.26 167.85"/><polygon class="cls-60" points="130.71 160.48 134.37 158.37 134.37 155.41 130.71 157.53 130.71 160.48"/><polygon class="cls-60" points="123.81 164.47 128.65 161.67 128.65 158.71 123.81 161.51 123.81 164.47"/><polygon class="cls-61" points="113.95 170.16 121.75 165.65 121.75 162.7 113.95 167.2 113.95 170.16"/><polygon class="cls-60" points="123.15 171.6 134.37 165.12 134.37 162.16 123.15 168.64 123.15 171.6"/><polygon class="cls-60" points="110.57 178.86 121.09 172.78 121.09 169.83 110.57 175.9 110.57 178.86"/><polygon class="cls-60" points="105.22 181.94 108.52 180.04 108.52 177.09 105.22 178.99 105.22 181.94"/><polygon class="cls-60" points="100.09 184.91 103.39 183.01 103.39 180.05 100.09 181.95 100.09 184.91"/><polygon class="cls-60" points="127.65 175.75 134.37 171.86 134.37 168.91 127.65 172.79 127.65 175.75"/><polygon class="cls-61" points="99.52 138 90.19 143.38 90.19 140.43 99.52 135.04 99.52 138"/><polygon class="cls-60" points="97.52 145.9 90.19 150.13 90.19 147.18 97.52 142.95 97.52 145.9"/><polygon class="cls-60" points="95.49 153.82 90.19 156.88 90.19 153.93 95.49 150.87 95.49 153.82"/><polygon class="cls-60" points="97.9 159.18 90.19 163.63 90.19 160.68 97.9 156.22 97.9 159.18"/><polygon class="cls-60" points="95.49 167.32 90.19 170.38 90.19 167.43 95.49 164.36 95.49 167.32"/><polygon class="cls-60" points="96.91 173.25 90.19 177.13 90.19 174.17 96.91 170.29 96.91 173.25"/><polygon class="cls-60" points="93.85 181.76 90.19 183.88 90.19 180.92 93.85 178.81 93.85 181.76"/><polygon class="cls-60" points="97.29 186.53 90.19 190.63 90.19 187.67 97.29 183.57 97.29 186.53"/><polygon class="cls-60" points="96.91 193.49 90.19 197.38 90.19 194.42 96.91 190.54 96.91 193.49"/><polygon class="cls-61" points="122.73 178.59 125.59 176.93 125.59 173.98 122.73 175.63 122.73 178.59"/><polygon class="cls-60" points="114.24 183.49 120.68 179.77 120.68 176.82 114.24 180.53 114.24 183.49"/><polygon class="cls-60" points="173.09 156.41 186.54 148.65 186.54 145.69 173.09 153.46 173.09 156.41"/><polygon class="cls-60" points="166.19 160.4 171.03 157.6 171.03 154.65 166.19 157.44 166.19 160.4"/><polygon class="cls-60" points="160.84 163.49 164.13 161.59 164.13 158.63 160.84 160.53 160.84 163.49"/><polygon class="cls-60" points="179.21 159.63 186.54 155.4 186.54 152.44 179.21 156.67 179.21 159.63"/><polygon class="cls-60" points="168.17 166 177.16 160.82 177.16 157.86 168.17 163.05 168.17 166"/><polygon class="cls-60" points="162.83 169.09 166.12 167.19 166.12 164.23 162.83 166.13 162.83 169.09"/><polygon class="cls-60" points="157.74 172.03 161.03 170.13 161.03 167.17 157.74 169.07 157.74 172.03"/><polygon class="cls-60" points="181.24 165.21 186.54 162.15 186.54 159.19 181.24 162.25 181.24 165.21"/><polygon class="cls-60" points="177.37 167.44 179.18 166.4 179.18 163.44 177.37 164.49 177.37 167.44"/><polygon class="cls-60" points="172.02 170.53 175.32 168.63 175.32 165.67 172.02 167.57 172.02 170.53"/><polygon class="cls-60" points="166.97 180.2 186.54 168.9 186.54 165.94 166.97 177.24 166.97 180.2"/><polygon class="cls-60" points="160.07 184.18 164.91 181.38 164.91 178.43 160.07 181.23 160.07 184.18"/><polygon class="cls-60" points="181.24 178.71 186.54 175.64 186.54 172.69 181.24 175.75 181.24 178.71"/><polygon class="cls-60" points="168.79 185.89 179.18 179.89 179.18 176.94 168.79 182.94 168.79 185.89"/><polygon class="cls-60" points="163.44 188.98 166.74 187.08 166.74 184.12 163.44 186.03 163.44 188.98"/><polygon class="cls-60" points="175.69 188.66 186.54 182.39 186.54 179.44 175.69 185.7 175.69 188.66"/><polygon class="cls-60" points="165.79 194.38 173.64 189.84 173.64 186.89 165.79 191.42 165.79 194.38"/><polygon class="cls-60" points="158.43 198.62 163.73 195.56 163.73 192.61 158.43 195.67 158.43 198.62"/><polygon class="cls-60" points="182.88 191.26 186.54 189.14 186.54 186.19 182.88 188.3 182.88 191.26"/><polygon class="cls-60" points="175.98 195.24 180.82 192.44 180.82 189.49 175.98 192.29 175.98 195.24"/><polygon class="cls-60" points="166.12 200.93 173.92 196.43 173.92 193.47 166.12 197.98 166.12 200.93"/><polygon class="cls-60" points="175.32 202.37 186.54 195.89 186.54 192.94 175.32 199.42 175.32 202.37"/><polygon class="cls-60" points="162.74 209.63 173.26 203.56 173.26 200.6 162.74 206.68 162.74 209.63"/><polygon class="cls-60" points="157.39 212.72 160.69 210.82 160.69 207.87 157.39 209.76 157.39 212.72"/><polygon class="cls-60" points="152.26 215.68 155.55 213.78 155.55 210.83 152.26 212.73 152.26 215.68"/><polygon class="cls-60" points="179.82 206.52 186.54 202.64 186.54 199.69 179.82 203.57 179.82 206.52"/><polygon class="cls-60" points="151.68 168.77 142.36 174.16 142.36 171.21 151.68 165.82 151.68 168.77"/><polygon class="cls-60" points="149.69 176.68 142.36 180.91 142.36 177.95 149.69 173.72 149.69 176.68"/><polygon class="cls-60" points="147.66 184.59 142.36 187.66 142.36 184.7 147.66 181.64 147.66 184.59"/><polygon class="cls-60" points="150.07 189.95 142.36 194.41 142.36 191.45 150.07 187 150.07 189.95"/><polygon class="cls-60" points="147.66 198.09 142.36 201.16 142.36 198.2 147.66 195.14 147.66 198.09"/><polygon class="cls-60" points="149.08 204.02 142.36 207.9 142.36 204.95 149.08 201.07 149.08 204.02"/><polygon class="cls-60" points="146.02 212.54 142.36 214.65 142.36 211.7 146.02 209.58 146.02 212.54"/><polygon class="cls-60" points="149.46 217.3 142.36 221.4 142.36 218.45 149.46 214.35 149.46 217.3"/><polygon class="cls-60" points="149.08 224.27 142.36 228.15 142.36 225.2 149.08 221.31 149.08 224.27"/><polygon class="cls-60" points="174.9 209.36 177.76 207.71 177.76 204.76 174.9 206.41 174.9 209.36"/><polygon class="cls-60" points="166.41 214.27 172.84 210.55 172.84 207.59 166.41 211.31 166.41 214.27"/><polygon class="cls-60" points="161.08 236.97 171.95 230.69 171.95 227.74 161.08 234.01 161.08 236.97"/><polygon class="cls-60" points="153.64 241.26 157.92 238.79 157.92 235.84 153.64 238.31 153.64 241.26"/><polygon class="cls-60" points="120.92 186.42 134.37 178.65 134.37 175.7 120.92 183.47 120.92 186.42"/><polygon class="cls-60" points="114.02 190.4 118.86 187.61 118.86 184.65 114.02 187.45 114.02 190.4"/><polygon class="cls-60" points="108.67 193.49 111.97 191.59 111.97 188.63 108.67 190.53 108.67 193.49"/><polygon class="cls-60" points="127.04 189.63 134.37 185.4 134.37 182.45 127.04 186.68 127.04 189.63"/><polygon class="cls-60" points="116 196.01 124.99 190.82 124.99 187.87 116 193.05 116 196.01"/><polygon class="cls-60" points="110.66 199.09 113.95 197.19 113.95 194.24 110.66 196.14 110.66 199.09"/><polygon class="cls-60" points="105.57 202.03 108.86 200.13 108.86 197.18 105.57 199.08 105.57 202.03"/><polygon class="cls-60" points="129.07 195.21 134.37 192.15 134.37 189.2 129.07 192.26 129.07 195.21"/><polygon class="cls-60" points="125.2 197.44 127.02 196.4 127.02 193.44 125.2 194.49 125.2 197.44"/><polygon class="cls-60" points="119.86 200.53 123.15 198.63 123.15 195.68 119.86 197.58 119.86 200.53"/><polygon class="cls-60" points="114.8 210.2 134.37 198.9 134.37 195.94 114.8 207.25 114.8 210.2"/><polygon class="cls-60" points="107.9 214.19 112.74 211.39 112.74 208.43 107.9 211.23 107.9 214.19"/><polygon class="cls-60" points="129.07 208.71 134.37 205.65 134.37 202.69 129.07 205.76 129.07 208.71"/><polygon class="cls-60" points="116.62 215.9 127.02 209.9 127.02 206.94 116.62 212.94 116.62 215.9"/><polygon class="cls-60" points="111.28 218.98 114.57 217.08 114.57 214.13 111.28 216.03 111.28 218.98"/><polygon class="cls-60" points="123.52 218.66 134.37 212.4 134.37 209.44 123.52 215.71 123.52 218.66"/><polygon class="cls-60" points="113.62 224.38 121.47 219.85 121.47 216.89 113.62 221.43 113.62 224.38"/><polygon class="cls-60" points="106.26 228.63 111.56 225.57 111.56 222.61 106.26 225.67 106.26 228.63"/><polygon class="cls-60" points="130.71 221.26 134.37 219.15 134.37 216.19 130.71 218.31 130.71 221.26"/><polygon class="cls-60" points="123.81 225.25 128.65 222.45 128.65 219.49 123.81 222.29 123.81 225.25"/><polygon class="cls-60" points="113.95 230.94 121.75 226.43 121.75 223.48 113.95 227.98 113.95 230.94"/><polygon class="cls-60" points="123.15 232.38 134.37 225.9 134.37 222.94 123.15 229.42 123.15 232.38"/><polygon class="cls-60" points="110.57 239.64 121.09 233.56 121.09 230.61 110.57 236.68 110.57 239.64"/><polygon class="cls-60" points="105.22 242.72 108.52 240.82 108.52 237.87 105.22 239.77 105.22 242.72"/><polygon class="cls-60" points="100.09 245.69 103.39 243.79 103.39 240.83 100.09 242.73 100.09 245.69"/><polygon class="cls-60" points="127.65 236.53 134.37 232.64 134.37 229.69 127.65 233.57 127.65 236.53"/><polygon class="cls-60" points="99.52 198.78 90.19 204.16 90.19 201.21 99.52 195.82 99.52 198.78"/><polygon class="cls-60" points="97.52 206.68 90.19 210.91 90.19 207.96 97.52 203.73 97.52 206.68"/><polygon class="cls-60" points="95.49 214.6 90.19 217.66 90.19 214.71 95.49 211.65 95.49 214.6"/><polygon class="cls-60" points="97.9 219.96 90.19 224.41 90.19 221.46 97.9 217 97.9 219.96"/><polygon class="cls-60" points="95.49 228.1 90.19 231.16 90.19 228.21 95.49 225.14 95.49 228.1"/><polygon class="cls-60" points="96.91 234.03 90.19 237.91 90.19 234.95 96.91 231.07 96.91 234.03"/><polygon class="cls-60" points="93.85 242.54 90.19 244.66 90.19 241.7 93.85 239.59 93.85 242.54"/><polygon class="cls-60" points="97.29 247.31 90.19 251.41 90.19 248.45 97.29 244.35 97.29 247.31"/><polygon class="cls-60" points="96.91 254.27 90.19 258.15 90.19 255.2 96.91 251.32 96.91 254.27"/><polygon class="cls-60" points="122.73 239.37 125.59 237.71 125.59 234.76 122.73 236.41 122.73 239.37"/><polygon class="cls-60" points="114.24 244.27 120.68 240.55 120.68 237.6 114.24 241.32 114.24 244.27"/><polygon class="cls-60" points="108.91 266.97 119.78 260.7 119.78 257.74 108.91 264.02 108.91 266.97"/><polygon class="cls-60" points="101.47 271.27 105.75 268.8 105.75 265.84 101.47 268.31 101.47 271.27"/></g></g></svg>