<svg xmlns="http://www.w3.org/2000/svg" viewBox="0 0 50.56 62.04"><defs><style>.cls-1{fill:#cfd8dc;}.cls-2{fill:#fff;}.cls-3{fill:#f8d74b;}.cls-4{fill:#f4cd25;}.cls-5{fill:#c1c3c3;}.cls-6{fill:#184f78;}.cls-7{fill:#0ec0c0;}</style></defs><title>Asset 2</title><g id="Layer_2" data-name="Layer 2"><g id="_1" data-name="1"><g id="_4" data-name="4"><g id="_10" data-name="10"><polygon class="cls-1" points="49.62 6.88 48.99 40.41 47.55 58.81 9.52 58.69 9.58 38.71 13.15 6.06 40.13 6.49 49.62 6.88"/><rect class="cls-2" x="2.36" y="13.49" width="51.42" height="39.94" transform="translate(-5.48 61.43) rotate(-89.82)"/><path class="cls-3" d="M50.52,56.67l0-13.89a5.38,5.38,0,0,0-3.27-5l.09-28.94L8.62,8.76a1.56,1.56,0,0,0-1.07.42L48.4,61.86C50.06,60.93,50.51,58.76,50.52,56.67Z"/><path class="cls-4" d="M48.4,61.86a2.69,2.69,0,0,1-.32.18l-41.2-.13L7,10.33a1.56,1.56,0,0,1,.51-1.14l1.08,1.4Z"/><rect class="cls-2" x="20.9" y="34.19" width="38.72" height="4.98" transform="translate(3.46 76.82) rotate(-89.82)"/><rect class="cls-5" x="34.01" y="33.06" width="12.51" height="2.09" transform="translate(6.04 74.27) rotate(-89.83)"/><rect class="cls-5" x="34.43" y="48.09" width="11.57" height="2.09" transform="translate(-9.04 89.2) rotate(-89.82)"/><rect class="cls-5" x="37.13" y="21.4" width="6.35" height="2.09" transform="translate(17.74 62.67) rotate(-89.82)"/></g><path id="_7" data-name="7" class="cls-6" d="M38.51,12.42l-.32-3.58-2.7-.21a9.12,9.12,0,0,0-.79-1.69l1.55-2.2L33.7,2.2,31.52,3.76A9.23,9.23,0,0,0,29.8,3L29.58.31,26,0l-.66,2.57a9.23,9.23,0,0,0-1.86.5L21.62,1.2l-.08.06-2.86,2,1.14,2.39a9.27,9.27,0,0,0-1.09,1.58L16.1,7l-.92,3.47,2.42,1.1a9.17,9.17,0,0,0,.18,1.9L15.59,15l1.53,3.25,2.59-.72a9.16,9.16,0,0,0,1.34,1.32l-.71,2.59,3.26,1.51,1.54-2.24a9.37,9.37,0,0,0,1.85.15l1.14,2.46,3.47-.94L31.46,21l-.13-1.33c.26-.15.51-.31.76-.48s.51-.38.75-.58l2.46,1.16,2.05-2.95L35.41,14.9a9.2,9.2,0,0,0,.47-1.79ZM30.1,16.34a5.86,5.86,0,0,1-.75.44,5.68,5.68,0,1,1,.75-.44Z"/><path id="_7-2" data-name="7" class="cls-7" d="M28.29,33.16l-.39-4.34-3.27-.26a11.14,11.14,0,0,0-1-2.05l1.88-2.66-3.09-3.07-2.64,1.88a11.22,11.22,0,0,0-2.09-1l-.27-3.21-4.34-.37-.8,3.12a11.23,11.23,0,0,0-2.25.61L7.82,19.55l-.1.07L4.25,22.06,5.63,25A11.27,11.27,0,0,0,4.3,26.88l-3.19-.29L0,30.8l2.94,1.34a11.11,11.11,0,0,0,.22,2.3L.51,36.28l1.85,3.94,3.14-.87a11.08,11.08,0,0,0,1.62,1.6l-.86,3.14,4,1.83,1.87-2.71a11.33,11.33,0,0,0,2.24.18l1.38,3,4.2-1.14-.16-1.68-.16-1.62c.31-.18.62-.37.92-.58s.62-.46.9-.71l3,1.41,2.49-3.58-2.36-2.32A11.31,11.31,0,0,0,25.11,34Zm-10.2,4.76a7.07,7.07,0,0,1-.91.53,6.89,6.89,0,1,1,.91-.53Z"/></g></g></g></svg>