<svg xmlns="http://www.w3.org/2000/svg" xmlns:xlink="http://www.w3.org/1999/xlink" viewBox="0 0 316.75 167.47"><defs><style>.cls-1{mask:url(#mask);filter:url(#luminosity-noclip-8);}.cls-10,.cls-12,.cls-14,.cls-17,.cls-19,.cls-2,.cls-21,.cls-23,.cls-25,.cls-27,.cls-29,.cls-4,.cls-6,.cls-8{mix-blend-mode:multiply;}.cls-2{fill:url(#radial-gradient);}.cls-3{mask:url(#mask-2);filter:url(#luminosity-noclip-13);}.cls-4{fill:url(#radial-gradient-2);}.cls-5{mask:url(#mask-3);filter:url(#luminosity-noclip-14);}.cls-6{fill:url(#radial-gradient-3);}.cls-7{mask:url(#mask-4);filter:url(#luminosity-noclip-9);}.cls-8{fill:url(#radial-gradient-4);}.cls-9{mask:url(#mask-5);filter:url(#luminosity-noclip-10);}.cls-10{fill:url(#radial-gradient-5);}.cls-11{mask:url(#mask-6);filter:url(#luminosity-noclip-11);}.cls-12{fill:url(#radial-gradient-6);}.cls-13{mask:url(#mask-7);filter:url(#luminosity-noclip-12);}.cls-14{fill:url(#radial-gradient-7);}.cls-15{isolation:isolate;}.cls-16{mask:url(#mask-8);}.cls-17,.cls-19,.cls-21,.cls-23,.cls-25,.cls-27,.cls-29{opacity:0.8;}.cls-17{fill:url(#radial-gradient-8);}.cls-18{mask:url(#mask-9);}.cls-19{fill:url(#radial-gradient-9);}.cls-20{mask:url(#mask-10);}.cls-21{fill:url(#radial-gradient-10);}.cls-22{mask:url(#mask-11);}.cls-23{fill:url(#radial-gradient-11);}.cls-24{mask:url(#mask-12);}.cls-25{fill:url(#radial-gradient-12);}.cls-26{mask:url(#mask-13);}.cls-27{fill:url(#radial-gradient-13);}.cls-28{mask:url(#mask-14);}.cls-29{fill:url(#radial-gradient-14);}.cls-30{fill:url(#linear-gradient);}.cls-31{fill:url(#linear-gradient-2);}.cls-32{fill:url(#linear-gradient-3);}.cls-33{fill:url(#linear-gradient-4);}.cls-34{fill:url(#linear-gradient-5);}.cls-35{fill:url(#linear-gradient-6);}.cls-36{fill:#1f325c;}.cls-37{fill:#2c3c6a;}.cls-38{fill:#d4d0e2;}.cls-39,.cls-40,.cls-41,.cls-42,.cls-43,.cls-45,.cls-46,.cls-47,.cls-49,.cls-50,.cls-51,.cls-52,.cls-53,.cls-54,.cls-55,.cls-56,.cls-57,.cls-58{fill-rule:evenodd;}.cls-39{fill:url(#linear-gradient-7);}.cls-40{fill:#131c46;}.cls-41{fill:url(#linear-gradient-8);}.cls-42{fill:url(#linear-gradient-9);}.cls-43{fill:#d0e0e2;}.cls-44{opacity:0.9;fill:url(#linear-gradient-10);}.cls-45,.cls-67{opacity:0.1;}.cls-45{fill:url(#linear-gradient-11);}.cls-46,.cls-49,.cls-64{opacity:0.2;}.cls-46{fill:url(#linear-gradient-12);}.cls-47{fill:url(#linear-gradient-13);}.cls-48{fill:#e5d1dd;}.cls-49{fill:url(#linear-gradient-14);}.cls-50{fill:url(#linear-gradient-15);}.cls-51{fill:url(#linear-gradient-16);}.cls-52{fill:url(#linear-gradient-17);}.cls-53{fill:url(#linear-gradient-18);}.cls-54{fill:url(#linear-gradient-19);}.cls-55{fill:url(#linear-gradient-20);}.cls-56{fill:url(#linear-gradient-21);}.cls-57{fill:url(#linear-gradient-22);}.cls-58{fill:url(#linear-gradient-23);}.cls-59{fill:url(#linear-gradient-24);}.cls-60{fill:url(#linear-gradient-25);}.cls-61{fill:url(#linear-gradient-26);}.cls-62{fill:url(#linear-gradient-27);}.cls-63{fill:url(#linear-gradient-28);}.cls-65{fill:url(#linear-gradient-29);}.cls-66{fill:url(#linear-gradient-30);}.cls-68{fill:url(#linear-gradient-31);}.cls-69{fill:url(#linear-gradient-32);}.cls-70{filter:url(#luminosity-noclip-7);}.cls-71{filter:url(#luminosity-noclip-6);}.cls-72{filter:url(#luminosity-noclip-5);}.cls-73{filter:url(#luminosity-noclip-4);}.cls-74{filter:url(#luminosity-noclip-3);}.cls-75{filter:url(#luminosity-noclip-2);}.cls-76{filter:url(#luminosity-noclip);}</style><filter id="luminosity-noclip" x="163.83" y="-8398.08" width="152.92" height="32766" filterUnits="userSpaceOnUse" color-interpolation-filters="sRGB"><feFlood flood-color="#fff" result="bg"/><feBlend in="SourceGraphic" in2="bg"/></filter><mask id="mask" x="163.83" y="-8398.08" width="152.92" height="32766" maskUnits="userSpaceOnUse"><g class="cls-76"/></mask><radialGradient id="radial-gradient" cx="762.61" cy="19.53" r="10.82" gradientTransform="translate(-5146.76 137.86) scale(7.06 0.65)" gradientUnits="userSpaceOnUse"><stop offset="0" stop-color="#fff"/><stop offset="0.1" stop-color="#fafafa"/><stop offset="0.23" stop-color="#ebebeb"/><stop offset="0.36" stop-color="#d2d2d2"/><stop offset="0.5" stop-color="#b0b0b0"/><stop offset="0.65" stop-color="#848484"/><stop offset="0.81" stop-color="#4e4e4e"/><stop offset="0.96" stop-color="#0f0f0f"/><stop offset="1"/></radialGradient><filter id="luminosity-noclip-2" x="204.97" y="-8398.08" width="25.56" height="32766" filterUnits="userSpaceOnUse" color-interpolation-filters="sRGB"><feFlood flood-color="#fff" result="bg"/><feBlend in="SourceGraphic" in2="bg"/></filter><mask id="mask-2" x="204.97" y="-8398.08" width="25.56" height="32766" maskUnits="userSpaceOnUse"><g class="cls-75"/></mask><radialGradient id="radial-gradient-2" cx="759.41" cy="189.37" r="1.81" gradientTransform="translate(-5146.76 -95.31) scale(7.06 1.37)" xlink:href="#radial-gradient"/><filter id="luminosity-noclip-3" x="274.33" y="-8398.08" width="28.38" height="32766" filterUnits="userSpaceOnUse" color-interpolation-filters="sRGB"><feFlood flood-color="#fff" result="bg"/><feBlend in="SourceGraphic" in2="bg"/></filter><mask id="mask-3" x="274.33" y="-8398.08" width="28.38" height="32766" maskUnits="userSpaceOnUse"><g class="cls-74"/></mask><radialGradient id="radial-gradient-3" cx="782.81" cy="177.3" r="1.81" gradientTransform="translate(-5850.52 -95.31) scale(7.84 1.37)" xlink:href="#radial-gradient"/><filter id="luminosity-noclip-4" x="66.05" y="-8398.08" width="152.92" height="32766" filterUnits="userSpaceOnUse" color-interpolation-filters="sRGB"><feFlood flood-color="#fff" result="bg"/><feBlend in="SourceGraphic" in2="bg"/></filter><mask id="mask-4" x="66.05" y="-8398.08" width="152.92" height="32766" maskUnits="userSpaceOnUse"><g class="cls-73"/></mask><radialGradient id="radial-gradient-4" cx="748.76" cy="18.27" r="10.82" xlink:href="#radial-gradient"/><filter id="luminosity-noclip-5" x="24.26" y="-8398.08" width="90.59" height="32766" filterUnits="userSpaceOnUse" color-interpolation-filters="sRGB"><feFlood flood-color="#fff" result="bg"/><feBlend in="SourceGraphic" in2="bg"/></filter><mask id="mask-5" x="24.26" y="-8398.08" width="90.59" height="32766" maskUnits="userSpaceOnUse"><g class="cls-72"/></mask><radialGradient id="radial-gradient-5" cx="738.44" cy="19.53" r="6.41" xlink:href="#radial-gradient"/><filter id="luminosity-noclip-6" x="0" y="-8398.08" width="25.56" height="32766" filterUnits="userSpaceOnUse" color-interpolation-filters="sRGB"><feFlood flood-color="#fff" result="bg"/><feBlend in="SourceGraphic" in2="bg"/></filter><mask id="mask-6" x="0" y="-8398.08" width="25.56" height="32766" maskUnits="userSpaceOnUse"><g class="cls-71"/></mask><radialGradient id="radial-gradient-6" cx="730.4" cy="184.97" r="1.81" gradientTransform="translate(-5146.76 -95.31) scale(7.06 1.37)" xlink:href="#radial-gradient"/><filter id="luminosity-noclip-7" x="99.92" y="-8398.08" width="25.56" height="32766" filterUnits="userSpaceOnUse" color-interpolation-filters="sRGB"><feFlood flood-color="#fff" result="bg"/><feBlend in="SourceGraphic" in2="bg"/></filter><mask id="mask-7" x="99.92" y="-8398.08" width="25.56" height="32766" maskUnits="userSpaceOnUse"><g class="cls-70"/></mask><radialGradient id="radial-gradient-7" cx="744.54" cy="188.3" r="1.81" gradientTransform="translate(-5146.76 -95.31) scale(7.06 1.37)" xlink:href="#radial-gradient"/><filter id="luminosity-noclip-8" x="163.83" y="143.53" width="152.92" height="14.11" filterUnits="userSpaceOnUse" color-interpolation-filters="sRGB"><feFlood flood-color="#fff" result="bg"/><feBlend in="SourceGraphic" in2="bg"/></filter><mask id="mask-8" x="163.83" y="143.53" width="152.92" height="14.11" maskUnits="userSpaceOnUse"><g class="cls-1"><path class="cls-2" d="M316.75,150.59c0,3.89-34.24,7-76.46,7s-76.46-3.16-76.46-7,34.23-7.06,76.46-7.06S316.75,146.69,316.75,150.59Z"/></g></mask><radialGradient id="radial-gradient-8" cx="762.61" cy="19.53" r="10.82" gradientTransform="translate(-5146.76 137.86) scale(7.06 0.65)" gradientUnits="userSpaceOnUse"><stop offset="0" stop-color="#662d91"/><stop offset="0.11" stop-color="#6a3294"/><stop offset="0.25" stop-color="#75419b"/><stop offset="0.4" stop-color="#865aa8"/><stop offset="0.56" stop-color="#9f7cba"/><stop offset="0.73" stop-color="#c0a8d1"/><stop offset="0.9" stop-color="#e6dded"/><stop offset="1" stop-color="#fff"/></radialGradient><filter id="luminosity-noclip-9" x="66.05" y="142.71" width="152.92" height="14.11" filterUnits="userSpaceOnUse" color-interpolation-filters="sRGB"><feFlood flood-color="#fff" result="bg"/><feBlend in="SourceGraphic" in2="bg"/></filter><mask id="mask-9" x="66.05" y="142.71" width="152.92" height="14.11" maskUnits="userSpaceOnUse"><g class="cls-7"><path class="cls-8" d="M219,149.77c0,3.89-34.24,7-76.46,7s-76.46-3.16-76.46-7,34.23-7.06,76.46-7.06S219,145.87,219,149.77Z"/></g></mask><radialGradient id="radial-gradient-9" cx="748.76" cy="18.27" r="10.82" xlink:href="#radial-gradient-8"/><filter id="luminosity-noclip-10" x="24.26" y="146.41" width="90.59" height="8.36" filterUnits="userSpaceOnUse" color-interpolation-filters="sRGB"><feFlood flood-color="#fff" result="bg"/><feBlend in="SourceGraphic" in2="bg"/></filter><mask id="mask-10" x="24.26" y="146.41" width="90.59" height="8.36" maskUnits="userSpaceOnUse"><g class="cls-9"><path class="cls-10" d="M114.85,150.59c0,2.3-20.28,4.18-45.3,4.18s-45.29-1.88-45.29-4.18,20.28-4.18,45.29-4.18S114.85,148.28,114.85,150.59Z"/></g></mask><radialGradient id="radial-gradient-10" cx="738.44" cy="19.53" r="6.41" xlink:href="#radial-gradient-8"/><filter id="luminosity-noclip-11" x="0" y="156.44" width="25.56" height="4.97" filterUnits="userSpaceOnUse" color-interpolation-filters="sRGB"><feFlood flood-color="#fff" result="bg"/><feBlend in="SourceGraphic" in2="bg"/></filter><mask id="mask-11" x="0" y="156.44" width="25.56" height="4.97" maskUnits="userSpaceOnUse"><g class="cls-11"><path class="cls-12" d="M25.56,158.93c0,1.37-5.72,2.48-12.78,2.48S0,160.3,0,158.93s5.72-2.49,12.78-2.49S25.56,157.55,25.56,158.93Z"/></g></mask><radialGradient id="radial-gradient-11" cx="730.4" cy="184.97" r="1.81" gradientTransform="translate(-5146.76 -95.31) scale(7.06 1.37)" gradientUnits="userSpaceOnUse"><stop offset="0" stop-color="#541f78"/><stop offset="0.11" stop-color="#58247b"/><stop offset="0.24" stop-color="#633384"/><stop offset="0.39" stop-color="#764c93"/><stop offset="0.54" stop-color="#906ea8"/><stop offset="0.7" stop-color="#b29ac2"/><stop offset="0.87" stop-color="#dacfe2"/><stop offset="1" stop-color="#fff"/></radialGradient><filter id="luminosity-noclip-12" x="99.92" y="161.02" width="25.56" height="4.97" filterUnits="userSpaceOnUse" color-interpolation-filters="sRGB"><feFlood flood-color="#fff" result="bg"/><feBlend in="SourceGraphic" in2="bg"/></filter><mask id="mask-12" x="99.92" y="161.02" width="25.56" height="4.97" maskUnits="userSpaceOnUse"><g class="cls-13"><path class="cls-14" d="M125.49,163.51c0,1.37-5.73,2.49-12.79,2.49s-12.78-1.12-12.78-2.49S105.65,161,112.7,161,125.49,162.13,125.49,163.51Z"/></g></mask><radialGradient id="radial-gradient-12" cx="744.54" cy="188.3" r="1.81" xlink:href="#radial-gradient-11"/><filter id="luminosity-noclip-13" x="204.97" y="162.5" width="25.56" height="4.97" filterUnits="userSpaceOnUse" color-interpolation-filters="sRGB"><feFlood flood-color="#fff" result="bg"/><feBlend in="SourceGraphic" in2="bg"/></filter><mask id="mask-13" x="204.97" y="162.5" width="25.56" height="4.97" maskUnits="userSpaceOnUse"><g class="cls-3"><path class="cls-4" d="M230.53,165c0,1.38-5.72,2.49-12.78,2.49S205,166.36,205,165s5.72-2.48,12.78-2.48S230.53,163.61,230.53,165Z"/></g></mask><radialGradient id="radial-gradient-13" cx="759.41" cy="189.37" r="1.81" xlink:href="#radial-gradient-11"/><filter id="luminosity-noclip-14" x="274.33" y="145.91" width="28.38" height="4.97" filterUnits="userSpaceOnUse" color-interpolation-filters="sRGB"><feFlood flood-color="#fff" result="bg"/><feBlend in="SourceGraphic" in2="bg"/></filter><mask id="mask-14" x="274.33" y="145.91" width="28.38" height="4.97" maskUnits="userSpaceOnUse"><g class="cls-5"><path class="cls-6" d="M302.71,148.39c0,1.38-6.36,2.49-14.19,2.49s-14.19-1.11-14.19-2.49,6.35-2.48,14.19-2.48S302.71,147,302.71,148.39Z"/></g></mask><radialGradient id="radial-gradient-14" cx="782.81" cy="177.3" r="1.81" gradientTransform="translate(-5850.52 -95.31) scale(7.84 1.37)" xlink:href="#radial-gradient-11"/><linearGradient id="linear-gradient" x1="-3409.16" y1="796.94" x2="-3368.95" y2="824.58" gradientTransform="matrix(-0.98, 0.17, 0.17, 0.98, -3177.93, -89.4)" gradientUnits="userSpaceOnUse"><stop offset="0" stop-color="#add136"/><stop offset="0.11" stop-color="#aacc37"/><stop offset="0.23" stop-color="#9fbf3c"/><stop offset="0.35" stop-color="#8fa943"/><stop offset="0.48" stop-color="#778a4d"/><stop offset="0.61" stop-color="#596359"/><stop offset="0.72" stop-color="#3b3b66"/></linearGradient><linearGradient id="linear-gradient-2" x1="-3409.2" y1="776.07" x2="-3364.87" y2="828.13" xlink:href="#linear-gradient"/><linearGradient id="linear-gradient-3" x1="-2141.84" y1="362.3" x2="-2126.99" y2="401.63" gradientTransform="matrix(-0.99, 0.13, 0.13, 0.99, -1876.33, -1.75)" xlink:href="#linear-gradient"/><linearGradient id="linear-gradient-4" x1="-3357.16" y1="780.75" x2="-3376.62" y2="827.58" xlink:href="#linear-gradient"/><linearGradient id="linear-gradient-5" x1="4261.27" y1="-3155.89" x2="4248.9" y2="-3126.13" gradientTransform="matrix(0.71, 0.7, -0.7, 0.71, -4934.04, -636.73)" xlink:href="#linear-gradient"/><linearGradient id="linear-gradient-6" x1="-1700.23" y1="309.24" x2="-1709.45" y2="331.44" gradientTransform="matrix(-0.96, 0.27, 0.27, 0.96, -1449.2, 269.36)" xlink:href="#linear-gradient"/><linearGradient id="linear-gradient-7" x1="279.02" y1="140.14" x2="196.02" y2="61.14" gradientUnits="userSpaceOnUse"><stop offset="0" stop-color="#662d91"/><stop offset="1" stop-color="#1b75bc"/></linearGradient><linearGradient id="linear-gradient-8" x1="172.1" y1="142.68" x2="223.76" y2="73.68" gradientUnits="userSpaceOnUse"><stop offset="0" stop-color="#ec008c"/><stop offset="1" stop-color="#ffcb56"/></linearGradient><linearGradient id="linear-gradient-9" x1="66.23" y1="156.3" x2="66.56" y2="82.3" xlink:href="#linear-gradient-7"/><linearGradient id="linear-gradient-10" x1="62.99" y1="147.93" x2="73.99" y2="81.43" xlink:href="#linear-gradient-7"/><linearGradient id="linear-gradient-11" x1="490.97" y1="-483" x2="492.72" y2="-517.85" gradientTransform="translate(99.76 805.18) rotate(-44.42)" xlink:href="#linear-gradient-7"/><linearGradient id="linear-gradient-12" x1="263.29" y1="706.55" x2="265.04" y2="671.7" gradientTransform="matrix(0.84, 0.54, -0.54, 0.84, 330.23, -698.37)" gradientUnits="userSpaceOnUse"><stop offset="0" stop-color="#92278f"/><stop offset="1" stop-color="#ee2a7b"/></linearGradient><linearGradient id="linear-gradient-13" x1="85.74" y1="98.95" x2="170.08" y2="163.28" gradientTransform="matrix(1, 0, 0, 1, 0, 0)" xlink:href="#linear-gradient-12"/><linearGradient id="linear-gradient-14" x1="347.23" y1="822.52" x2="321.25" y2="797.66" gradientTransform="matrix(0.7, 0.72, -0.72, 0.7, 517.84, -741.76)" xlink:href="#linear-gradient-12"/><linearGradient id="linear-gradient-15" x1="5.13" y1="118.11" x2="10.37" y2="146.57" gradientUnits="userSpaceOnUse"><stop offset="0.34" stop-color="#add136"/><stop offset="0.4" stop-color="#a8c93b"/><stop offset="0.49" stop-color="#9bb449"/><stop offset="0.6" stop-color="#869260"/><stop offset="0.72" stop-color="#686280"/><stop offset="0.8" stop-color="#554395"/></linearGradient><linearGradient id="linear-gradient-16" x1="11.86" y1="117.64" x2="14.16" y2="154.85" gradientUnits="userSpaceOnUse"><stop offset="0.34" stop-color="#add136"/><stop offset="0.37" stop-color="#a4c240"/><stop offset="0.52" stop-color="#828c64"/><stop offset="0.64" stop-color="#6a647f"/><stop offset="0.74" stop-color="#5b4c8f"/><stop offset="0.8" stop-color="#554395"/></linearGradient><linearGradient id="linear-gradient-17" x1="19.78" y1="128.56" x2="12.11" y2="154.39" xlink:href="#linear-gradient-15"/><linearGradient id="linear-gradient-18" x1="3.52" y1="133.17" x2="12.28" y2="150.88" xlink:href="#linear-gradient-15"/><linearGradient id="linear-gradient-19" x1="26.7" y1="142.62" x2="9.05" y2="153.1" xlink:href="#linear-gradient-16"/><linearGradient id="linear-gradient-20" x1="-8.93" y1="147.28" x2="18.38" y2="148.93" xlink:href="#linear-gradient-16"/><linearGradient id="linear-gradient-21" x1="566.48" y1="-969.78" x2="576.3" y2="-933.22" gradientTransform="translate(228.55 1256.26) rotate(-31.83)" gradientUnits="userSpaceOnUse"><stop offset="0.15" stop-color="#add136"/><stop offset="0.24" stop-color="#aacc37"/><stop offset="0.33" stop-color="#a2bf3c"/><stop offset="0.43" stop-color="#94a943"/><stop offset="0.54" stop-color="#818a4d"/><stop offset="0.64" stop-color="#69635a"/><stop offset="0.72" stop-color="#533f66"/></linearGradient><linearGradient id="linear-gradient-22" x1="588.52" y1="-950.55" x2="566.73" y2="-937.39" gradientTransform="translate(228.55 1256.26) rotate(-31.83)" gradientUnits="userSpaceOnUse"><stop offset="0" stop-color="#add136"/><stop offset="0.11" stop-color="#aacc37"/><stop offset="0.23" stop-color="#a2bf3c"/><stop offset="0.36" stop-color="#94a943"/><stop offset="0.49" stop-color="#818a4d"/><stop offset="0.62" stop-color="#69635a"/><stop offset="0.72" stop-color="#533f66"/></linearGradient><linearGradient id="linear-gradient-23" x1="595.51" y1="-969.87" x2="564.01" y2="-931.91" gradientTransform="translate(228.55 1256.26) rotate(-31.83)" gradientUnits="userSpaceOnUse"><stop offset="0.12" stop-color="#add136"/><stop offset="0.21" stop-color="#aacc37"/><stop offset="0.31" stop-color="#a2bf3c"/><stop offset="0.41" stop-color="#94a943"/><stop offset="0.52" stop-color="#818a4d"/><stop offset="0.63" stop-color="#69635a"/><stop offset="0.72" stop-color="#533f66"/></linearGradient><linearGradient id="linear-gradient-24" x1="1955.66" y1="-167.77" x2="1974.43" y2="-154.86" gradientTransform="matrix(-0.94, 0.34, 0.34, 0.94, 2022.16, -363)" gradientUnits="userSpaceOnUse"><stop offset="0" stop-color="#add136"/><stop offset="0.17" stop-color="#abce37"/><stop offset="0.31" stop-color="#a5c43a"/><stop offset="0.44" stop-color="#9ab340"/><stop offset="0.56" stop-color="#8c9b48"/><stop offset="0.67" stop-color="#797c52"/><stop offset="0.78" stop-color="#62575e"/><stop offset="0.84" stop-color="#533f66"/></linearGradient><linearGradient id="linear-gradient-25" x1="1956.78" y1="-176.18" x2="1977.48" y2="-151.87" gradientTransform="matrix(-0.94, 0.34, 0.34, 0.94, 2022.16, -363)" gradientUnits="userSpaceOnUse"><stop offset="0" stop-color="#add136"/><stop offset="0.12" stop-color="#aacc37"/><stop offset="0.25" stop-color="#a2bf3c"/><stop offset="0.39" stop-color="#94a943"/><stop offset="0.53" stop-color="#818a4d"/><stop offset="0.67" stop-color="#69635a"/><stop offset="0.78" stop-color="#533f66"/></linearGradient><linearGradient id="linear-gradient-26" x1="1972.64" y1="-175.22" x2="1972.37" y2="-151.38" gradientTransform="matrix(-0.94, 0.34, 0.34, 0.94, 2022.16, -363)" gradientUnits="userSpaceOnUse"><stop offset="0" stop-color="#add136"/><stop offset="0.12" stop-color="#aacc37"/><stop offset="0.26" stop-color="#a2bf3c"/><stop offset="0.4" stop-color="#94a943"/><stop offset="0.54" stop-color="#818a4d"/><stop offset="0.69" stop-color="#69635a"/><stop offset="0.8" stop-color="#533f66"/></linearGradient><linearGradient id="linear-gradient-27" x1="1978.65" y1="-167.94" x2="1972.88" y2="-154.04" gradientTransform="matrix(-0.94, 0.34, 0.34, 0.94, 2022.16, -363)" gradientUnits="userSpaceOnUse"><stop offset="0" stop-color="#add136"/><stop offset="0.12" stop-color="#aacc37"/><stop offset="0.25" stop-color="#a2bf3c"/><stop offset="0.38" stop-color="#94a943"/><stop offset="0.52" stop-color="#818a4d"/><stop offset="0.66" stop-color="#69635a"/><stop offset="0.77" stop-color="#533f66"/></linearGradient><linearGradient id="linear-gradient-28" x1="374.38" y1="661.15" x2="368.61" y2="675.05" gradientTransform="translate(198.28 -609.04) rotate(35.12)" gradientUnits="userSpaceOnUse"><stop offset="0" stop-color="#add136"/><stop offset="0.11" stop-color="#aacc37"/><stop offset="0.24" stop-color="#a2bf3c"/><stop offset="0.36" stop-color="#94a943"/><stop offset="0.5" stop-color="#818a4d"/><stop offset="0.63" stop-color="#69635a"/><stop offset="0.74" stop-color="#533f66"/></linearGradient><linearGradient id="linear-gradient-29" x1="300.56" y1="-213.62" x2="293.05" y2="-243.88" gradientTransform="translate(-9.64 426.25) rotate(-21.14)" xlink:href="#linear-gradient-7"/><linearGradient id="linear-gradient-30" x1="303.05" y1="-214.24" x2="295.54" y2="-244.5" gradientTransform="translate(-9.64 426.25) rotate(-21.14)" xlink:href="#linear-gradient-7"/><linearGradient id="linear-gradient-31" x1="131" y1="428.31" x2="127.09" y2="412.57" gradientTransform="translate(140.35 -362.89) rotate(18.8)" xlink:href="#linear-gradient-7"/><linearGradient id="linear-gradient-32" x1="132.29" y1="427.99" x2="128.39" y2="412.25" gradientTransform="translate(140.35 -362.89) rotate(18.8)" xlink:href="#linear-gradient-7"/></defs><title>Asset 1</title><g class="cls-15"><g id="Layer_2" data-name="Layer 2"><g id="Layer_1-2" data-name="Layer 1"><g class="cls-16"><path class="cls-17" d="M316.75,150.59c0,3.89-34.24,7-76.46,7s-76.46-3.16-76.46-7,34.23-7.06,76.46-7.06S316.75,146.69,316.75,150.59Z"/></g><g class="cls-18"><path class="cls-19" d="M219,149.77c0,3.89-34.24,7-76.46,7s-76.46-3.16-76.46-7,34.23-7.06,76.46-7.06S219,145.87,219,149.77Z"/></g><g class="cls-20"><path class="cls-21" d="M114.85,150.59c0,2.3-20.28,4.18-45.3,4.18s-45.29-1.88-45.29-4.18,20.28-4.18,45.29-4.18S114.85,148.28,114.85,150.59Z"/></g><g class="cls-22"><path class="cls-23" d="M25.56,158.93c0,1.37-5.72,2.48-12.78,2.48S0,160.3,0,158.93s5.72-2.49,12.78-2.49S25.56,157.55,25.56,158.93Z"/></g><g class="cls-24"><path class="cls-25" d="M125.49,163.51c0,1.37-5.73,2.49-12.79,2.49s-12.78-1.12-12.78-2.49S105.65,161,112.7,161,125.49,162.13,125.49,163.51Z"/></g><g class="cls-26"><path class="cls-27" d="M230.53,165c0,1.38-5.72,2.49-12.78,2.49S205,166.36,205,165s5.72-2.48,12.78-2.48S230.53,163.61,230.53,165Z"/></g><g class="cls-28"><path class="cls-29" d="M302.71,148.39c0,1.38-6.36,2.49-14.19,2.49s-14.19-1.11-14.19-2.49,6.35-2.48,14.19-2.48S302.71,147,302.71,148.39Z"/></g><path class="cls-30" d="M289.28,134.49c.13-15.54,23.56-23.54,25.51-29.86-2.46-1.17-5.62-.34-7.81.91-7.55,4.29-16.47,16.18-19,24.57-.3,1-.83,2.58-.49,3.61.26.79,1.76,2.12,1.86.48Z"/><path class="cls-31" d="M309.75,89.26c-3.61,13.07-17.53,15-21.08,40.83-.35,1.69.05,3.5-1.29,4.72s-2,.72-2.36-.25c2.4-21.08,11.7-41.1,24.73-45.3Z"/><path class="cls-32" d="M295.24,85c2.26,13.16-11.3,18.27-6.81,50-.8,0-1.63.67-2.06-.33-4.47-34.86,1-43.75,8.87-49.67Z"/><path class="cls-33" d="M284.16,134.75c3.69-21.78-17.92-22.94-22.17-34.37,13.87-5.19,28,16.93,24.95,34.55Z"/><path class="cls-34" d="M288.63,134.8c5.95-12.72,17.67-5.51,24-10-5.38-7.73-20.76-1.27-25.54,9Z"/><path class="cls-35" d="M283.55,134.65c.77-10.45-9.48-10.05-12-15.25,6.32-3.06,14,6.76,13.3,15.21Z"/><path class="cls-36" d="M279.86,136.66s1.46,10.45,2.64,11.24c.59.4,7.86.89,8.83,0S294.66,136,294.66,136Z"/><path class="cls-37" d="M279.39,133.68s-1.14,1.89-.06,3,15.67,1.48,15.93,0c.09-.51.44-2.75-1.37-3S279.77,132.88,279.39,133.68Z"/><path class="cls-38" d="M232.37,14.8h15.39a28.2,28.2,0,0,1,28.05,28.05V69h-9.35V42.85a18.85,18.85,0,0,0-18.7-18.7H232.37a18.63,18.63,0,0,0-13.21,5.49,18.88,18.88,0,0,0-5.48,13.21V69h-9.35V42.85a28.1,28.1,0,0,1,28-28Z"/><path class="cls-39" d="M202.65,56.87h74.78a11,11,0,0,1,11,11v70.35a11,11,0,0,1-11,11H202.65a11,11,0,0,1-11-11V67.84a11,11,0,0,1,11-11Z"/><path class="cls-40" d="M240,82.29a9.75,9.75,0,0,1,4.42,18.45v18.63A4.44,4.44,0,0,1,240,123.8h0a4.4,4.4,0,0,1-4.37-4.43V100.74A9.75,9.75,0,0,1,240,82.29Z"/><path class="cls-41" d="M163.55,121.06a16.7,16.7,0,0,1,21-2.12l38.82-38.83a3.36,3.36,0,0,1,4.73,0h0a3.38,3.38,0,0,1,0,4.75l-3.53,3.53,4.09,4.09a3.36,3.36,0,0,1,0,4.73h0a3.36,3.36,0,0,1-4.75,0l-4.09-4.09-4.39,4.39,6.78,6.78a3.38,3.38,0,0,1,0,4.75h0a3.38,3.38,0,0,1-4.75,0l-6.78-6.78-21.38,21.39a16.67,16.67,0,1,1-25.72-2.63Zm5.17,5.17a9.36,9.36,0,1,1,0,13.23,9.36,9.36,0,0,1,0-13.23Z"/><path class="cls-42" d="M66.45,99.59a33.06,33.06,0,0,1-23,8.7c-.85,17.15,6.83,34.84,23,42.3,16.15-7.46,23.81-25.15,23-42.3a32.92,32.92,0,0,1-23-8.7Z"/><path class="cls-43" d="M66.45,105a26.09,26.09,0,0,1-18.09,6.84c-.68,13.49,5.36,27.41,18.09,33.3,12.7-5.89,18.73-19.81,18.08-33.3A26,26,0,0,1,66.45,105Z"/><path class="cls-44" d="M58.88,123.91l6.52,7.17q5.31-7.91,10.63-15.76a1.44,1.44,0,1,1,2.35,1.59L65.74,135.65c-3-3.29-6-6.58-9-9.84-1.33-1.42.74-3.17,2.1-1.9Z"/><path class="cls-45" d="M82.16,82.78a10.94,10.94,0,0,1-3.4,7.34c3.75,4.22,9.62,6.6,15.13,4.64,2.08-5.47-.19-11.39-4.34-15.22a10.81,10.81,0,0,1-7.39,3.24Z"/><path class="cls-46" d="M197.5,1.66A10.88,10.88,0,0,1,189.6,0c-3.28,4.6-4.28,10.86-1.13,15.79,5.8.8,11.05-2.75,13.85-7.65a10.87,10.87,0,0,1-4.82-6.48Z"/><path class="cls-47" d="M129.77,110h23.08a4,4,0,0,1,4,4V145.5a4,4,0,0,1-4,4H99.33a4,4,0,0,1-4-4V107.4a3.89,3.89,0,0,1,3.88-3.88h25.06c1.76,0,2.72,2.08,3.88,3.88Z"/><rect class="cls-48" x="99.28" y="106.62" width="18.2" height="2.43"/><path class="cls-49" d="M176.74,54.69l-3-3.09.13-.55c.09-.38.24-.78,0-1l-3.26-3.35a.72.72,0,0,0-1,0q-2.55,2.47-5.09,5a.74.74,0,0,0,0,1l7,7.15a.75.75,0,0,0,1.06,0l4.21-4.11A.74.74,0,0,0,176.74,54.69Zm-4.48-4.85-2.37-2.43.33-.31,2.37,2.43Z"/><path class="cls-50" d="M12.11,151.16S3,131.31,6.33,129s5.27,10.08,5.78,22.16Z"/><path class="cls-51" d="M12.11,151.25s-5-28.13,0-29.93,3.33,14.49,0,29.93Z"/><path class="cls-52" d="M12.09,151.27s2.72-19.66,6.28-20.92,2.31,4.72.11,9c-2.07,4-4.2,7.91-6.39,11.9Z"/><path class="cls-53" d="M12.11,151.21s-2.8-3.93-5-7.54c-5.62-9.29,0-8.67,2.32-1.68,1.88,5.76,2.67,9.22,2.67,9.22Z"/><path class="cls-54" d="M12.08,151.17s2.12-4,4.64-5c4.79-2.28,9,2.29,2.57,2.13a8.71,8.71,0,0,0-7.21,2.9Z"/><path class="cls-55" d="M12.12,151.17s-2.12-4-4.64-5c-4.79-2.28-9,2.29-2.57,2.13a8.72,8.72,0,0,1,7.21,2.9Z"/><path class="cls-36" d="M7.85,151.25s1,6.83,1.72,7.35c.39.26,5.15.59,5.79,0s2.17-7.77,2.17-7.77Z"/><path class="cls-37" d="M7.54,149.3s-.74,1.23,0,2,10.26,1,10.43,0c.06-.34.28-1.81-.9-2S7.79,148.78,7.54,149.3Z"/><path class="cls-56" d="M216,156.48s1.06-7.82-2.21-13.89-7.78-5.37-8.84-3.12c-1.87,4.73,9.07,7.27,11,17Z"/><path class="cls-57" d="M218.8,156.69s1.44-6.08,5-9.07c1-.8,1.94-1.28,2.57-1.75,2.24-1.67-.4-3.52-2.13-3.57a3.86,3.86,0,0,0-3.26,2c-2.14,3.2-2.46,7.88-2.15,12.39Z"/><path class="cls-58" d="M218.17,158c-.24-.73-3.45-12.8-3.16-19.48s6.68-10,9.23-8.27,2.45,4.58-.65,8.69c-4.51,6-5.6,11.68-5.42,19.06Z"/><path class="cls-36" d="M212.32,156.2s1.1,7.82,2,8.41c.44.3,5.88.67,6.61,0s2.48-8.89,2.48-8.89Z"/><path class="cls-37" d="M212,154s-.86,1.4,0,2.23,11.72,1.11,11.92,0c.06-.38.32-2.06-1-2.28S212.26,153.38,212,154Z"/><path class="cls-59" d="M113.75,155.59c-1.15-7.17,9-12.68,9.42-15.74a4.15,4.15,0,0,0-3.53,1c-3.14,2.56-6.32,8.73-6.85,12.8a3.27,3.27,0,0,0,.06,1.7c.18.34,1,.84.89.07Z"/><path class="cls-60" d="M119.65,133.16c-.64,6.3-6.91,8.27-6.52,20.45,0,.81.29,1.61-.23,2.28s-.87.48-1.11.06c-.54-9.89,2.18-19.83,7.86-22.79Z"/><path class="cls-61" d="M106.08,137.67c-.22,5.08,5.14,6.35,5,18.55.3,0,.65.17.76-.22,0-13.38-2.47-16.47-5.72-18.33Z"/><path class="cls-62" d="M110.53,156.24c0-6.56-6.39-5.83-8.2-9,3.81-2.21,9,3.57,9,8.88Z"/><path class="cls-63" d="M113.47,155.78c1.75-6.32,7.71-3.91,10.29-6.45-3.08-3.14-9.66,1-11.06,6.15Z"/><path class="cls-36" d="M107.63,156.4s.88,6.33,1.6,6.81c.35.24,4.76.54,5.35,0s2-7.2,2-7.2Z"/><path class="cls-37" d="M107.35,154.59s-.7,1.14,0,1.82,9.49.89,9.65,0c.06-.31.27-1.67-.83-1.85S107.58,154.11,107.35,154.59Z"/><g class="cls-64"><path class="cls-65" d="M178.24,81.68l-12.66,4.9a2,2,0,0,0-1.14,2.58l4.61,11.91a2,2,0,0,0,2.58,1.15l12.66-4.9a2,2,0,0,0,1.13-2.58l-4.6-11.92A2,2,0,0,0,178.24,81.68Zm-2.71,9.59,1.22,3.16a.79.79,0,0,1-.46,1,.78.78,0,0,1-1-.46L174,91.85a1.77,1.77,0,0,1-.47-3.41,1.77,1.77,0,0,1,2,2.83Z"/><path class="cls-66" d="M166.53,83.48a3.4,3.4,0,0,1,1.94-4.39l2.61-1A3.41,3.41,0,0,1,175.47,80l.44,1.15,1.58-.62-.44-1.14a5.12,5.12,0,0,0-6.59-2.92l-2.6,1a5.11,5.11,0,0,0-2.92,6.59l.45,1.14,1.58-.61Z"/></g><g class="cls-67"><path class="cls-68" d="M132.54,64.94l-6.68-2.28a1.05,1.05,0,0,0-1.32.65L122.4,69.6a1.05,1.05,0,0,0,.65,1.32l6.68,2.27a1,1,0,0,0,1.32-.65l2.14-6.29A1,1,0,0,0,132.54,64.94Zm-4.28,2.91-.57,1.67a.41.41,0,1,1-.78-.27l.57-1.66a.91.91,0,0,1-.22-1,.93.93,0,0,1,1.75.6A.91.91,0,0,1,128.26,67.85Z"/><path class="cls-69" d="M127.27,61.74a1.81,1.81,0,0,1,.89-1,1.75,1.75,0,0,1,1.35-.09l1.38.47a1.78,1.78,0,0,1,1,.89,1.75,1.75,0,0,1,.09,1.35l-.21.6.84.29.21-.61a2.67,2.67,0,0,0-1.66-3.36l-1.38-.47a2.66,2.66,0,0,0-2,.14,2.61,2.61,0,0,0-1.33,1.52l-.21.6.84.29Z"/></g></g></g></g></svg>