<svg xmlns="http://www.w3.org/2000/svg" xmlns:xlink="http://www.w3.org/1999/xlink" viewBox="0 0 353.81 250.28"><defs><style>.cls-1{mask:url(#mask);filter:url(#luminosity-noclip-6);}.cls-10,.cls-2,.cls-4,.cls-6,.cls-77,.cls-78,.cls-8{mix-blend-mode:multiply;}.cls-2{fill:url(#linear-gradient);}.cls-3,.cls-5{mask:url(#mask-2);}.cls-3{filter:url(#luminosity-noclip-7);}.cls-4{fill:url(#linear-gradient-2);}.cls-6{fill:url(#linear-gradient-3);}.cls-7,.cls-9{mask:url(#mask-4);}.cls-7{filter:url(#luminosity-noclip-9);}.cls-8{fill:url(#linear-gradient-4);}.cls-9{filter:url(#luminosity-noclip-10);}.cls-10{fill:url(#linear-gradient-5);}.cls-11{isolation:isolate;}.cls-12{fill:url(#linear-gradient-6);}.cls-13{fill:#a887f9;}.cls-14{fill:#c2aeff;}.cls-15{fill:url(#linear-gradient-7);}.cls-16{fill:url(#linear-gradient-8);}.cls-17{fill:url(#linear-gradient-9);}.cls-18{fill:url(#linear-gradient-10);}.cls-19{fill:url(#linear-gradient-11);}.cls-103,.cls-20,.cls-34,.cls-74,.cls-95,.cls-97,.cls-98,.cls-99{mix-blend-mode:overlay;}.cls-21{fill:url(#linear-gradient-12);}.cls-22{fill:#9a7cf7;}.cls-23{fill:url(#linear-gradient-13);}.cls-24{fill:url(#linear-gradient-14);}.cls-25{fill:url(#linear-gradient-15);}.cls-26{fill:url(#linear-gradient-16);}.cls-27{fill:url(#linear-gradient-17);}.cls-28{fill:url(#linear-gradient-18);}.cls-29{fill:#9f84f4;}.cls-30{fill:url(#linear-gradient-19);}.cls-31{fill:#fff;}.cls-32{fill:#e2ccff;}.cls-33{fill:url(#linear-gradient-20);}.cls-34{fill:url(#linear-gradient-21);}.cls-35{fill:url(#linear-gradient-22);}.cls-36{fill:url(#linear-gradient-23);}.cls-37{fill:url(#linear-gradient-24);}.cls-38{fill:url(#linear-gradient-25);}.cls-39{fill:url(#linear-gradient-26);}.cls-40{fill:url(#linear-gradient-27);}.cls-41{fill:url(#linear-gradient-28);}.cls-42{fill:url(#linear-gradient-29);}.cls-43{fill:url(#linear-gradient-30);}.cls-44{mask:url(#mask-6);}.cls-45{fill:url(#linear-gradient-31);}.cls-46{fill:url(#linear-gradient-32);}.cls-47{fill:url(#linear-gradient-33);}.cls-48{fill:url(#linear-gradient-34);}.cls-49{fill:url(#linear-gradient-35);}.cls-50{fill:url(#linear-gradient-36);}.cls-51{fill:url(#linear-gradient-37);}.cls-52{fill:url(#linear-gradient-38);}.cls-53{fill:url(#linear-gradient-39);}.cls-54{fill:url(#linear-gradient-40);}.cls-55{fill:url(#linear-gradient-41);}.cls-56{fill:url(#linear-gradient-42);}.cls-57{fill:url(#linear-gradient-43);}.cls-58{fill:url(#linear-gradient-44);}.cls-59{fill:url(#linear-gradient-45);}.cls-60{fill:url(#linear-gradient-46);}.cls-61{fill:url(#linear-gradient-47);}.cls-62{fill:url(#linear-gradient-48);}.cls-63{fill:url(#linear-gradient-49);}.cls-64{fill:url(#linear-gradient-50);}.cls-65{fill:url(#linear-gradient-51);}.cls-66{fill:url(#linear-gradient-52);}.cls-67{fill:url(#linear-gradient-53);}.cls-68{fill:url(#linear-gradient-54);}.cls-69{fill:url(#linear-gradient-55);}.cls-70{fill:url(#linear-gradient-56);}.cls-71{fill:url(#linear-gradient-57);}.cls-72,.cls-77,.cls-78{opacity:0.8;}.cls-72{mix-blend-mode:lighten;fill:url(#linear-gradient-58);}.cls-73{fill:url(#linear-gradient-59);}.cls-74{fill:#fdfeff;}.cls-74,.cls-94{opacity:0.5;}.cls-75{fill:url(#linear-gradient-60);}.cls-76{mask:url(#mask-7);}.cls-77{fill:url(#linear-gradient-61);}.cls-78{fill:url(#linear-gradient-62);}.cls-79{fill:url(#linear-gradient-63);}.cls-80{fill:url(#linear-gradient-64);}.cls-81{fill:url(#linear-gradient-65);}.cls-82{fill:url(#linear-gradient-66);}.cls-83{fill:url(#linear-gradient-67);}.cls-84{fill:url(#linear-gradient-68);}.cls-85{fill:url(#linear-gradient-69);}.cls-86{fill:url(#linear-gradient-70);}.cls-87{fill:url(#linear-gradient-71);}.cls-88{fill:url(#linear-gradient-72);}.cls-89{fill:url(#linear-gradient-73);}.cls-90{fill:url(#linear-gradient-74);}.cls-91{fill:url(#linear-gradient-75);}.cls-92{fill:url(#linear-gradient-76);}.cls-93{fill:#e7e1ff;}.cls-94{fill:url(#linear-gradient-77);}.cls-95{fill:url(#linear-gradient-78);}.cls-96{fill:url(#radial-gradient);}.cls-97{fill:url(#linear-gradient-79);}.cls-98{fill:url(#linear-gradient-80);}.cls-99{fill:url(#linear-gradient-81);}.cls-100{mask:url(#mask-9);}.cls-101{fill:url(#linear-gradient-82);}.cls-102{mask:url(#mask-10);}.cls-103{fill:url(#linear-gradient-83);}.cls-104{filter:url(#luminosity-noclip-4);}.cls-105{filter:url(#luminosity-noclip-2);}.cls-106{filter:url(#luminosity-noclip);}</style><filter id="luminosity-noclip" x="110.41" y="-8314.06" width="103.21" height="32766" filterUnits="userSpaceOnUse" color-interpolation-filters="sRGB"><feFlood flood-color="#fff" result="bg"/><feBlend in="SourceGraphic" in2="bg"/></filter><mask id="mask" x="110.41" y="-8314.06" width="103.21" height="32766" maskUnits="userSpaceOnUse"><g class="cls-106"/></mask><linearGradient id="linear-gradient" x1="110.99" y1="139.25" x2="306.18" y2="21.99" gradientTransform="matrix(0.87, 0.5, 0, 1.15, 21.45, -101.52)" gradientUnits="userSpaceOnUse"><stop offset="0"/><stop offset="1" stop-color="#fff"/></linearGradient><filter id="luminosity-noclip-2" x="226.23" y="-8314.06" width="91.98" height="32766" filterUnits="userSpaceOnUse" color-interpolation-filters="sRGB"><feFlood flood-color="#fff" result="bg"/><feBlend in="SourceGraphic" in2="bg"/></filter><mask id="mask-2" x="226.23" y="-8314.06" width="91.98" height="32766" maskUnits="userSpaceOnUse"><g class="cls-105"/></mask><linearGradient id="linear-gradient-2" x1="282.04" y1="240.12" x2="280.88" y2="238.09" gradientUnits="userSpaceOnUse"><stop offset="0" stop-color="#fff"/><stop offset="1"/></linearGradient><linearGradient id="linear-gradient-3" x1="257.48" y1="248.01" x2="258.89" y2="245.59" xlink:href="#linear-gradient-2"/><filter id="luminosity-noclip-4" x="247.94" y="-8314.06" width="49" height="32766" filterUnits="userSpaceOnUse" color-interpolation-filters="sRGB"><feFlood flood-color="#fff" result="bg"/><feBlend in="SourceGraphic" in2="bg"/></filter><mask id="mask-4" x="247.94" y="-8314.06" width="49" height="32766" maskUnits="userSpaceOnUse"><g class="cls-104"/></mask><linearGradient id="linear-gradient-4" x1="283.62" y1="193.45" x2="254.91" y2="179.54" gradientTransform="matrix(1, 0, 0, 1, 0, 0)" xlink:href="#linear-gradient"/><linearGradient id="linear-gradient-5" x1="283.62" y1="192.94" x2="254.91" y2="179.03" gradientTransform="matrix(1, 0, 0, 1, 0, 0)" xlink:href="#linear-gradient"/><linearGradient id="linear-gradient-6" x1="13.63" y1="116.82" x2="-33.29" y2="74.98" gradientTransform="matrix(-0.97, 0, 0, 1, 161.71, 0)" gradientUnits="userSpaceOnUse"><stop offset="0" stop-color="#cab9ff"/><stop offset="1" stop-color="#fff"/></linearGradient><linearGradient id="linear-gradient-7" x1="-16.63" y1="110.66" x2="-63.55" y2="68.82" xlink:href="#linear-gradient-6"/><linearGradient id="linear-gradient-8" x1="-47.77" y1="90.31" x2="-94.69" y2="48.47" xlink:href="#linear-gradient-6"/><linearGradient id="linear-gradient-9" x1="-78.9" y1="127.07" x2="-125.82" y2="85.23" xlink:href="#linear-gradient-6"/><linearGradient id="linear-gradient-10" x1="-110.04" y1="169.11" x2="-156.95" y2="127.28" xlink:href="#linear-gradient-6"/><linearGradient id="linear-gradient-11" x1="-141.17" y1="203.4" x2="-188.09" y2="161.56" xlink:href="#linear-gradient-6"/><linearGradient id="linear-gradient-12" x1="13.63" y1="116.9" x2="-33.29" y2="75.06" xlink:href="#linear-gradient-6"/><linearGradient id="linear-gradient-13" x1="-16.63" y1="110.74" x2="-63.55" y2="68.9" xlink:href="#linear-gradient-6"/><linearGradient id="linear-gradient-14" x1="-47.77" y1="90.39" x2="-94.69" y2="48.55" xlink:href="#linear-gradient-6"/><linearGradient id="linear-gradient-15" x1="-78.9" y1="127.14" x2="-125.82" y2="85.31" xlink:href="#linear-gradient-6"/><linearGradient id="linear-gradient-16" x1="-110.04" y1="169.19" x2="-156.95" y2="127.35" xlink:href="#linear-gradient-6"/><linearGradient id="linear-gradient-17" x1="-141.17" y1="203.47" x2="-188.09" y2="161.63" xlink:href="#linear-gradient-6"/><linearGradient id="linear-gradient-18" x1="400.49" y1="233.18" x2="243.11" y2="185.02" gradientTransform="matrix(1, 0, 0, 1, 0, 0)" xlink:href="#linear-gradient-6"/><linearGradient id="linear-gradient-19" x1="84.03" y1="107.24" x2="66.76" y2="107.24" gradientUnits="userSpaceOnUse"><stop offset="0" stop-color="#a477ff"/><stop offset="1" stop-color="#c2aaff"/></linearGradient><linearGradient id="linear-gradient-20" x1="55.13" y1="96.05" x2="102.64" y2="96.05" xlink:href="#linear-gradient-19"/><linearGradient id="linear-gradient-21" x1="-9.78" y1="122.14" x2="116.4" y2="71.56" gradientUnits="userSpaceOnUse"><stop offset="0" stop-color="#4613ff"/><stop offset="1" stop-color="#fff6ff"/></linearGradient><linearGradient id="linear-gradient-22" x1="-19.63" y1="97.56" x2="106.55" y2="46.99" xlink:href="#linear-gradient-21"/><linearGradient id="linear-gradient-23" x1="176.64" y1="140.37" x2="181.71" y2="149.39" gradientUnits="userSpaceOnUse"><stop offset="0" stop-color="#57007d"/><stop offset="1" stop-color="#37004f"/></linearGradient><linearGradient id="linear-gradient-24" x1="165.8" y1="190.09" x2="157.78" y2="190.09" gradientUnits="userSpaceOnUse"><stop offset="0" stop-color="#9865ff"/><stop offset="1" stop-color="#b69aff"/></linearGradient><linearGradient id="linear-gradient-25" x1="298.13" y1="185.7" x2="152.76" y2="188.14" gradientUnits="userSpaceOnUse"><stop offset="0" stop-color="#9c74ff"/><stop offset="1" stop-color="#fff"/></linearGradient><linearGradient id="linear-gradient-26" x1="94.81" y1="69.95" x2="213.38" y2="170.01" gradientTransform="matrix(0.87, 0.5, 0.5, 1.44, -45.35, -139.88)" gradientUnits="userSpaceOnUse"><stop offset="0" stop-color="#57007d"/><stop offset="1" stop-color="#520078"/></linearGradient><linearGradient id="linear-gradient-27" x1="304.06" y1="222.23" x2="98.95" y2="139.82" gradientTransform="matrix(0.87, 0.5, 0, 1.15, 21.45, -101.52)" gradientUnits="userSpaceOnUse"><stop offset="0" stop-color="#9c74ff"/><stop offset="1" stop-color="#fff6ff"/></linearGradient><linearGradient id="linear-gradient-28" x1="268.89" y1="180.75" x2="124.36" y2="96.62" gradientTransform="matrix(0.87, 0.5, 0.5, 1.44, -45.35, -139.88)" xlink:href="#linear-gradient-27"/><linearGradient id="linear-gradient-29" x1="126.36" y1="106.06" x2="194.51" y2="163.56" gradientTransform="matrix(0.87, 0.5, 0, 1.15, 21.45, -101.52)" gradientUnits="userSpaceOnUse"><stop offset="0" stop-color="#8e00b3"/><stop offset="1" stop-color="#520078"/></linearGradient><linearGradient id="linear-gradient-30" x1="136.17" y1="115.94" x2="193.72" y2="164.5" gradientTransform="matrix(0.87, 0.5, 0, 1.15, 21.45, -101.52)" gradientUnits="userSpaceOnUse"><stop offset="0" stop-color="#c04edb"/><stop offset="1" stop-color="#69009b"/></linearGradient><filter id="luminosity-noclip-6" x="110.41" y="55.64" width="103.21" height="109.7" filterUnits="userSpaceOnUse" color-interpolation-filters="sRGB"><feFlood flood-color="#fff" result="bg"/><feBlend in="SourceGraphic" in2="bg"/></filter><mask id="mask-6" x="110.41" y="55.64" width="103.21" height="109.7" maskUnits="userSpaceOnUse"><g class="cls-1"><path class="cls-2" d="M110.41,59.21v77.16l50.18,29,53-52.32-98.2-56.7C112.65,54.73,110.41,56,110.41,59.21Z"/></g></mask><linearGradient id="linear-gradient-31" x1="110.99" y1="139.25" x2="306.18" y2="21.99" gradientTransform="matrix(0.87, 0.5, 0, 1.15, 21.45, -101.52)" gradientUnits="userSpaceOnUse"><stop offset="0" stop-color="#fff"/><stop offset="1" stop-color="#fff6ff"/></linearGradient><linearGradient id="linear-gradient-32" x1="177.53" y1="171.23" x2="146.64" y2="143.68" xlink:href="#linear-gradient-6"/><linearGradient id="linear-gradient-33" x1="157.61" y1="167.17" x2="126.72" y2="139.63" xlink:href="#linear-gradient-6"/><linearGradient id="linear-gradient-34" x1="137.11" y1="153.77" x2="106.22" y2="126.23" xlink:href="#linear-gradient-6"/><linearGradient id="linear-gradient-35" x1="116.61" y1="177.97" x2="85.73" y2="150.43" xlink:href="#linear-gradient-6"/><linearGradient id="linear-gradient-36" x1="96.12" y1="205.65" x2="65.23" y2="178.11" xlink:href="#linear-gradient-6"/><linearGradient id="linear-gradient-37" x1="75.62" y1="228.22" x2="44.73" y2="200.68" xlink:href="#linear-gradient-6"/><linearGradient id="linear-gradient-38" x1="177.53" y1="171.28" x2="146.64" y2="143.73" xlink:href="#linear-gradient-6"/><linearGradient id="linear-gradient-39" x1="157.61" y1="167.22" x2="126.72" y2="139.68" xlink:href="#linear-gradient-6"/><linearGradient id="linear-gradient-40" x1="137.11" y1="153.82" x2="106.22" y2="126.28" xlink:href="#linear-gradient-6"/><linearGradient id="linear-gradient-41" x1="116.61" y1="178.02" x2="85.73" y2="150.48" xlink:href="#linear-gradient-6"/><linearGradient id="linear-gradient-42" x1="96.12" y1="205.7" x2="65.23" y2="178.16" xlink:href="#linear-gradient-6"/><linearGradient id="linear-gradient-43" x1="75.62" y1="228.27" x2="44.73" y2="200.73" xlink:href="#linear-gradient-6"/><linearGradient id="linear-gradient-44" x1="186.39" y1="51.14" x2="176.44" y2="51.14" xlink:href="#linear-gradient-19"/><linearGradient id="linear-gradient-45" x1="164.59" y1="42.86" x2="205.27" y2="42.86" xlink:href="#linear-gradient-19"/><linearGradient id="linear-gradient-46" x1="177.49" y1="53.42" x2="181.43" y2="53.42" xlink:href="#linear-gradient-19"/><linearGradient id="linear-gradient-47" x1="155.16" y1="30.3" x2="197.95" y2="23.06" gradientUnits="userSpaceOnUse"><stop offset="0" stop-color="#7a00b9"/><stop offset="1" stop-color="#4f0068"/></linearGradient><linearGradient id="linear-gradient-48" x1="192.55" y1="9.32" x2="158.02" y2="25.32" xlink:href="#linear-gradient-47"/><linearGradient id="linear-gradient-49" x1="203.89" y1="27.9" x2="202.71" y2="14.93" gradientTransform="matrix(1, 0, 0, 1, 0, 0)" xlink:href="#linear-gradient-27"/><linearGradient id="linear-gradient-50" x1="210.16" y1="14.46" x2="217.33" y2="27.22" xlink:href="#linear-gradient-47"/><linearGradient id="linear-gradient-51" x1="232.51" y1="25.3" x2="231.33" y2="12.33" gradientTransform="matrix(1, 0, 0, 1, 0, 0)" xlink:href="#linear-gradient-27"/><linearGradient id="linear-gradient-52" x1="247.47" y1="13.29" x2="252.49" y2="22.21" xlink:href="#linear-gradient-47"/><linearGradient id="linear-gradient-53" x1="254" y1="23.35" x2="252.82" y2="10.38" gradientTransform="matrix(1, 0, 0, 1, 0, 0)" xlink:href="#linear-gradient-27"/><linearGradient id="linear-gradient-54" x1="254.2" y1="14.1" x2="257.86" y2="20.61" xlink:href="#linear-gradient-47"/><linearGradient id="linear-gradient-55" x1="259.09" y1="22.89" x2="257.91" y2="9.91" gradientTransform="matrix(1, 0, 0, 1, 0, 0)" xlink:href="#linear-gradient-27"/><linearGradient id="linear-gradient-56" x1="314.1" y1="-18.55" x2="314.11" y2="-18.57" gradientTransform="matrix(0.83, -0.56, 0.56, 0.83, -20.06, 206.17)" gradientUnits="userSpaceOnUse"><stop offset="0" stop-color="#6318ff"/><stop offset="1" stop-color="#13b3e2"/></linearGradient><linearGradient id="linear-gradient-57" x1="224.8" y1="14.62" x2="230.15" y2="24.14" xlink:href="#linear-gradient-47"/><linearGradient id="linear-gradient-58" x1="190.04" y1="30.21" x2="166.23" y2="15.17" gradientTransform="translate(43.83 -96.52) rotate(34.33)" xlink:href="#linear-gradient-27"/><linearGradient id="linear-gradient-59" x1="210.23" y1="54.19" x2="163.22" y2="6.68" gradientTransform="matrix(1, 0, 0, 1, 0, 0)" xlink:href="#linear-gradient-27"/><linearGradient id="linear-gradient-60" x1="266.02" y1="223.98" x2="260.45" y2="223.98" gradientUnits="userSpaceOnUse"><stop offset="0" stop-color="#a688ff"/><stop offset="1" stop-color="#c0abff"/></linearGradient><filter id="luminosity-noclip-7" x="226.23" y="197.68" width="91.98" height="52.6" filterUnits="userSpaceOnUse" color-interpolation-filters="sRGB"><feFlood flood-color="#fff" result="bg"/><feBlend in="SourceGraphic" in2="bg"/></filter><mask id="mask-7" x="226.23" y="197.68" width="91.98" height="52.6" maskUnits="userSpaceOnUse"><g class="cls-3"><path class="cls-4" d="M316.83,215.1c-1.75-1.78-1.81-.19-1.46,1.74l-32.2-18.66a4.7,4.7,0,0,0-4.5.14l-47.24,27.21c-1.92-.87-3.68-1.16-4.46.13-1.43,2.33-.47,3.6.34,4.39a2.72,2.72,0,0,0,.73.57l0,0,33.07,19.15a4.65,4.65,0,0,0,4.42-.14l50.77-29.28S320.2,218.5,316.83,215.1Z"/></g></mask><linearGradient id="linear-gradient-61" x1="282.04" y1="240.12" x2="280.88" y2="238.09" gradientUnits="userSpaceOnUse"><stop offset="0" stop-color="#3300bf"/><stop offset="1" stop-color="#c0abff"/></linearGradient><linearGradient id="linear-gradient-62" x1="257.48" y1="248.01" x2="258.89" y2="245.59" xlink:href="#linear-gradient-61"/><linearGradient id="linear-gradient-63" x1="379.18" y1="315.3" x2="271.13" y2="216.22" gradientTransform="translate(1.83 -0.8) rotate(0.81)" xlink:href="#linear-gradient-27"/><linearGradient id="linear-gradient-64" x1="258.66" y1="203.53" x2="285.44" y2="239.26" gradientTransform="matrix(1, 0, 0, 1, 0, 0)" xlink:href="#linear-gradient-26"/><linearGradient id="linear-gradient-65" x1="263.17" y1="205.66" x2="280.57" y2="236.59" xlink:href="#linear-gradient-23"/><linearGradient id="linear-gradient-66" x1="243.15" y1="240.12" x2="246.76" y2="246.37" gradientTransform="translate(-3.22 -1.71) rotate(-0.9)" gradientUnits="userSpaceOnUse"><stop offset="0" stop-color="#4f47ff"/><stop offset="1" stop-color="#13ffe2"/></linearGradient><linearGradient id="linear-gradient-67" x1="244.44" y1="239.37" x2="251.39" y2="251.38" xlink:href="#linear-gradient-66"/><linearGradient id="linear-gradient-68" x1="295.33" y1="204.41" x2="301.02" y2="207.66" gradientUnits="userSpaceOnUse"><stop offset="0" stop-color="#ff4aff"/><stop offset="1" stop-color="#13ffe2"/></linearGradient><linearGradient id="linear-gradient-69" x1="296.7" y1="204.41" x2="302.25" y2="210.06" gradientTransform="matrix(1, 0, 0, 1, 0, 0)" xlink:href="#linear-gradient-66"/><linearGradient id="linear-gradient-70" x1="272.59" y1="244.14" x2="277.82" y2="241.95" gradientUnits="userSpaceOnUse"><stop offset="0" stop-color="#3818d6"/><stop offset="1" stop-color="#13ffe2"/></linearGradient><linearGradient id="linear-gradient-71" x1="277.85" y1="242.67" x2="275.22" y2="240.26" gradientTransform="translate(1.83 -0.8) rotate(0.81)" xlink:href="#linear-gradient-27"/><linearGradient id="linear-gradient-72" x1="275.79" y1="242.32" x2="281.02" y2="240.14" xlink:href="#linear-gradient-70"/><linearGradient id="linear-gradient-73" x1="281.02" y1="240.81" x2="278.39" y2="238.4" gradientTransform="translate(1.83 -0.8) rotate(0.81)" xlink:href="#linear-gradient-27"/><linearGradient id="linear-gradient-74" x1="270.91" y1="245.23" x2="273.09" y2="244.32" xlink:href="#linear-gradient-70"/><linearGradient id="linear-gradient-75" x1="274.65" y1="243.37" x2="272.99" y2="241.85" gradientTransform="translate(1.83 -0.8) rotate(0.81)" xlink:href="#linear-gradient-27"/><linearGradient id="linear-gradient-76" x1="283.44" y1="176.25" x2="284.31" y2="177.75" gradientTransform="matrix(0.91, 0.42, 0.11, 1.15, -19.19, -74.71)" xlink:href="#linear-gradient-66"/><linearGradient id="linear-gradient-77" x1="235.02" y1="233.28" x2="309.01" y2="201.33" xlink:href="#linear-gradient-21"/><linearGradient id="linear-gradient-78" x1="234.82" y1="228.83" x2="309.56" y2="196.55" xlink:href="#linear-gradient-21"/><radialGradient id="radial-gradient" cx="265.38" cy="179.85" r="37.82" gradientTransform="translate(398 -116.64) rotate(77.56)" gradientUnits="userSpaceOnUse"><stop offset="0" stop-color="#9868d7"/><stop offset="1" stop-color="#520078"/></radialGradient><linearGradient id="linear-gradient-79" x1="413.6" y1="261.6" x2="265.97" y2="183.13" gradientTransform="matrix(1, 0, 0, 1, 0, 0)" xlink:href="#linear-gradient-27"/><linearGradient id="linear-gradient-80" x1="373.92" y1="219.22" x2="272.07" y2="165.07" gradientTransform="matrix(1, 0, 0, 1, 0, 0)" xlink:href="#linear-gradient-27"/><linearGradient id="linear-gradient-81" x1="361.45" y1="257.34" x2="245.85" y2="195.89" gradientTransform="matrix(1, 0, 0, 1, 0, 0)" xlink:href="#linear-gradient-27"/><filter id="luminosity-noclip-9" x="247.94" y="153.59" width="49" height="69.16" filterUnits="userSpaceOnUse" color-interpolation-filters="sRGB"><feFlood flood-color="#fff" result="bg"/><feBlend in="SourceGraphic" in2="bg"/></filter><mask id="mask-9" x="247.94" y="153.59" width="49" height="69.16" maskUnits="userSpaceOnUse"><g class="cls-7"><path class="cls-8" d="M273.23,215.85a25.62,25.62,0,0,1-6.17-.76,16,16,0,0,1-8,2.35,4.73,4.73,0,0,1-4.17-2.68c-3.05-5.28-2.18-17.85,6.62-34,8.23-15.12,18.12-21.84,24.33-21.84H286a5.15,5.15,0,0,1,4.9,2.88c1.29,2.6.72,6.42-.23,9.63a25.77,25.77,0,0,1,4,4.71c1.57-4,3.71-11.22,1-16.7a10.5,10.5,0,0,0-9.55-5.83h-.25c-7.59,0-19.11,6.45-29,24.62-8.74,16-11.25,31.07-6.56,39.2a10.05,10.05,0,0,0,8.64,5.34h.4c6.47,0,12.31-3.88,16-7C274.6,215.81,273.92,215.85,273.23,215.85Z"/></g></mask><linearGradient id="linear-gradient-82" x1="286.15" y1="195.3" x2="256.2" y2="179.38" gradientTransform="matrix(1, 0, 0, 1, 0, 0)" xlink:href="#linear-gradient-27"/><filter id="luminosity-noclip-10" x="247.94" y="153.08" width="49" height="69.16" filterUnits="userSpaceOnUse" color-interpolation-filters="sRGB"><feFlood flood-color="#fff" result="bg"/><feBlend in="SourceGraphic" in2="bg"/></filter><mask id="mask-10" x="247.94" y="153.08" width="49" height="69.16" maskUnits="userSpaceOnUse"><g class="cls-9"><path class="cls-10" d="M273.23,215.34a25.62,25.62,0,0,1-6.17-.76,16,16,0,0,1-8,2.35,4.73,4.73,0,0,1-4.17-2.68c-3.05-5.28-2.18-17.84,6.62-34,8.23-15.13,18.12-21.85,24.33-21.85H286a5.15,5.15,0,0,1,4.9,2.88c1.29,2.6.72,6.42-.23,9.63a25.77,25.77,0,0,1,4,4.71c1.57-4,3.71-11.22,1-16.7a10.5,10.5,0,0,0-9.55-5.83h-.25c-7.59,0-19.11,6.45-29,24.62-8.74,16.05-11.25,31.07-6.56,39.2a10.05,10.05,0,0,0,8.64,5.34h.4c6.47,0,12.31-3.87,16-7C274.6,215.3,273.92,215.34,273.23,215.34Z"/></g></mask><linearGradient id="linear-gradient-83" x1="286.15" y1="194.79" x2="256.2" y2="178.87" gradientTransform="matrix(1, 0, 0, 1, 0, 0)" xlink:href="#linear-gradient-27"/></defs><title>Asset 1</title><g class="cls-11"><g id="Layer_2" data-name="Layer 2"><g id="content"><g id="_9" data-name="9"><polygon class="cls-12" points="204.01 84.06 183.93 72.12 163.84 84.34 183.93 96.28 204.01 84.06"/><polygon class="cls-13" points="183.93 116.49 183.93 96.28 163.84 84.34 163.84 104.55 183.93 116.49"/><polygon class="cls-14" points="204.01 84.06 204.01 104.27 183.93 116.49 183.93 96.28 204.01 84.06"/><polygon class="cls-15" points="233.29 77.9 213.21 65.96 193.12 78.19 213.21 90.12 233.29 77.9"/><polygon class="cls-13" points="213.21 133.87 213.21 90.12 193.12 78.19 193.12 121.93 213.21 133.87"/><polygon class="cls-14" points="233.29 77.9 233.29 121.65 213.21 133.87 213.21 90.12 233.29 77.9"/><polygon class="cls-16" points="263.42 57.55 243.34 45.61 223.25 57.83 243.34 69.77 263.42 57.55"/><polygon class="cls-13" points="243.34 151.34 243.34 69.77 223.25 57.83 223.25 139.4 243.34 151.34"/><polygon class="cls-14" points="263.42 57.55 263.42 139.12 243.34 151.34 243.34 69.77 263.42 57.55"/><polygon class="cls-17" points="293.55 94.31 273.46 82.37 253.38 94.59 273.46 106.53 293.55 94.31"/><polygon class="cls-13" points="273.46 168.56 273.46 106.53 253.38 94.59 253.38 156.63 273.46 168.56"/><polygon class="cls-14" points="293.55 94.31 293.55 156.34 273.46 168.56 273.46 106.53 293.55 94.31"/><polygon class="cls-18" points="323.68 136.35 303.59 124.42 283.51 136.64 303.59 148.57 323.68 136.35"/><polygon class="cls-13" points="303.59 185.82 303.59 148.57 283.51 136.64 283.51 173.88 303.59 185.82"/><polygon class="cls-14" points="323.68 136.35 323.68 173.6 303.59 185.82 303.59 148.57 323.68 136.35"/><polygon class="cls-19" points="353.81 170.63 333.72 158.7 313.64 170.92 333.72 182.86 353.81 170.63"/><polygon class="cls-13" points="333.72 203.07 333.72 182.86 313.64 170.92 313.64 191.13 333.72 203.07"/><polygon class="cls-14" points="353.81 170.63 353.81 190.84 333.72 203.07 333.72 182.86 353.81 170.63"/><g class="cls-20"><polygon class="cls-21" points="204.01 84.14 183.93 72.2 163.84 84.42 183.93 96.36 204.01 84.14"/><polygon class="cls-22" points="183.93 116.57 183.93 96.36 163.84 84.42 163.84 104.63 183.93 116.57"/><polygon class="cls-14" points="204.01 84.14 204.01 104.34 183.93 116.57 183.93 96.36 204.01 84.14"/><polygon class="cls-23" points="233.29 77.98 213.21 66.04 193.12 78.26 213.21 90.2 233.29 77.98"/><polygon class="cls-22" points="213.21 133.95 213.21 90.2 193.12 78.26 193.12 122.01 213.21 133.95"/><polygon class="cls-14" points="233.29 77.98 233.29 121.72 213.21 133.95 213.21 90.2 233.29 77.98"/><polygon class="cls-24" points="263.42 57.62 243.34 45.69 223.25 57.91 243.34 69.85 263.42 57.62"/><polygon class="cls-22" points="243.34 151.42 243.34 69.85 223.25 57.91 223.25 139.48 243.34 151.42"/><polygon class="cls-14" points="263.42 57.62 263.42 139.2 243.34 151.42 243.34 69.85 263.42 57.62"/><polygon class="cls-25" points="293.55 94.38 273.46 82.44 253.38 94.67 273.46 106.61 293.55 94.38"/><polygon class="cls-22" points="273.46 168.64 273.46 106.61 253.38 94.67 253.38 156.7 273.46 168.64"/><polygon class="cls-14" points="293.55 94.38 293.55 156.42 273.46 168.64 273.46 106.61 293.55 94.38"/><polygon class="cls-26" points="323.68 136.43 303.59 124.49 283.51 136.71 303.59 148.65 323.68 136.43"/><polygon class="cls-22" points="303.59 185.9 303.59 148.65 283.51 136.71 283.51 173.96 303.59 185.9"/><polygon class="cls-14" points="323.68 136.43 323.68 173.67 303.59 185.9 303.59 148.65 323.68 136.43"/><polygon class="cls-27" points="353.81 170.71 333.72 158.77 313.64 171 333.72 182.93 353.81 170.71"/><polygon class="cls-22" points="333.72 203.14 333.72 182.93 313.64 171 313.64 191.21 333.72 203.14"/><polygon class="cls-14" points="353.81 170.71 353.81 190.92 333.72 203.14 333.72 182.93 353.81 170.71"/></g></g><g id="_7" data-name="7"><path class="cls-28" d="M278.53,190.16l-17.94,10.45-17.06-9.76,17.94-10.45Zm-17.73,5.69,9.48-5.53-9-5.16-9.48,5.53Z"/><polygon class="cls-14" points="243.53 190.85 243.53 195.84 260.59 205.6 260.59 200.61 243.53 190.85"/><polygon class="cls-29" points="278.53 190.16 278.53 195.15 260.59 205.6 260.59 200.61 278.53 190.16"/><polygon class="cls-14" points="261.26 185.16 261.26 190.15 265.96 192.84 270.28 190.32 261.26 185.16"/><polygon class="cls-29" points="251.78 190.69 261.26 185.16 261.26 190.15 256.1 193.16 251.78 190.69"/></g><g id="_6" data-name="6"><path class="cls-30" d="M119.65,107.24h0v-5.68L109.1,98.83,85.69,85.31c-3.94-2.28-9.9-2.52-13.31-.55L48.4,98.6l-11.2,2.65v5.61c0,.12,0,.25,0,.38v.08h0c.11,1.44,1.2,2.93,3.24,4.11l30.71,17.73c3.94,2.28,9.91,2.53,13.32.56l32.88-19A3.88,3.88,0,0,0,119.65,107.24Z"/><path class="cls-31" d="M117.36,104.75l-32.88,19c-3.41,2-9.38,1.73-13.32-.55L40.45,105.45c-3.94-2.28-4.37-5.72-1-7.69l32.89-19c3.41-2,9.37-1.72,13.31.56l30.72,17.73C120.35,99.33,120.78,102.78,117.36,104.75Z"/><path class="cls-32" d="M78.88,100.51,71.56,87.45a30.17,30.17,0,0,0-9.49,3.35c-9.29,5.36-9.29,14,0,19.42s24.34,5.36,33.63,0,9.29-14.06,0-19.42c-.28-.17-.59-.31-.88-.46Z"/><path class="cls-33" d="M62.07,94.94a29.91,29.91,0,0,1,9.49-3.34l7.32,13.05L94.82,94.48c.29.15.6.3.88.46,3.73,2.15,5.93,4.84,6.67,7.64,1.1-4.17-1.11-8.57-6.67-11.78-.28-.17-.59-.31-.88-.46L78.88,100.51,71.56,87.45a30.17,30.17,0,0,0-9.49,3.35C56.51,94,54.3,98.41,55.4,102.58,56.14,99.78,58.34,97.09,62.07,94.94Z"/><path class="cls-34" d="M117,90.41l-32.89,19c-3.41,2-9.37,1.72-13.31-.56L40.11,91.11c-3.94-2.27-4.37-5.72-1-7.69L72,64.44c3.41-2,9.38-1.73,13.32.55l30.71,17.73C120,85,120.44,88.44,117,90.41Z"/><g class="cls-20"><path class="cls-35" d="M79.15,82.46a16.12,16.12,0,0,1-7.83-1.95L40.61,62.78c-2.26-1.3-3.55-3.07-3.55-4.86a4.55,4.55,0,0,1,2.59-3.85l32.89-19c3.57-2.06,9.81-1.82,13.9.55l30.72,17.73c2.26,1.31,3.55,3.08,3.55,4.86a4.53,4.53,0,0,1-2.6,3.85l-32.88,19A12.47,12.47,0,0,1,79.15,82.46Zm-.53-47.61a11.11,11.11,0,0,0-5.49,1.26l-32.89,19a3.45,3.45,0,0,0-2,2.83c0,1.35,1.08,2.75,3,3.84L71.91,79.49c3.78,2.18,9.49,2.43,12.73.56l32.89-19a3.43,3.43,0,0,0,2-2.83c0-1.35-1.09-2.75-3-3.84L85.86,36.66A14.87,14.87,0,0,0,78.62,34.85Z"/></g></g><g id="_4" data-name="4"><path class="cls-36" d="M224.46,113.2,120.2,53a2.84,2.84,0,0,0-3.33,0l-5.11,3.1,3.79,5.45v81.83c0,3.43,2.08,7.41,4.65,8.9l97.36,56.21,5,7.22,4.83-2.93c1-.54,1.72-1.88,1.72-3.83V122.1C229.12,118.67,227,114.68,224.46,113.2Z"/><g id="_18" data-name="18"><path class="cls-37" d="M192.94,187.83h0v-2l-5.82-2.63-12.9-7.45a8.16,8.16,0,0,0-7.34-.3l-21.14,12.15-6.17,2.59v2a.74.74,0,0,0,0,.21v0h0a3.11,3.11,0,0,0,1.79,2.27l16.92,9.77a8.18,8.18,0,0,0,7.35.31l26-15A2.12,2.12,0,0,0,192.94,187.83Z"/><path class="cls-38" d="M191.68,187.58l-26,15a8.18,8.18,0,0,1-7.35-.31l-16.92-9.77c-2.18-1.26-2.41-3.15-.53-4.24l26-15a8.16,8.16,0,0,1,7.34.3l16.93,9.77C193.33,184.6,193.56,186.5,191.68,187.58Z"/></g><path class="cls-39" d="M218.85,214.23,115.07,155.36c-2.57-1.49-4.66-5.47-4.66-8.9V59.65c0-3.43,2.09-5,4.66-3.53l104.26,60.2c2.57,1.48,4.66,5.47,4.66,8.9V212C224,215.46,221.43,215.71,218.85,214.23Z"/><path class="cls-40" d="M110.41,136.37v10.52a11.06,11.06,0,0,0,5,8.67L219,215.35c2.77,1.6,5,.3,5-2.89V201.94Z"/><path class="cls-41" d="M217.21,191.47l-100-57.75a3.92,3.92,0,0,1-1.64-3.14V64.28c0-1.21.73-1.77,1.64-1.25l100,57.75a3.94,3.94,0,0,1,1.64,3.14v66.31C218.85,191.44,218.12,192,217.21,191.47Z"/><polygon class="cls-42" points="130.34 84.68 130.34 126.87 204.67 169.79 195.95 151.23 191.44 152.97 178.5 122.17 166.92 128.66 159.53 115.68 142.59 123.19 130.34 84.68"/><polygon class="cls-43" points="130.34 109.51 145.61 100.95 154.67 131.66 163.23 128.66 168.69 142.96 178.96 139.95 183.7 150.75 204.67 169.79 204.67 169.79 130.34 126.87 130.34 109.51"/><g class="cls-44"><path class="cls-45" d="M110.41,59.21v77.16l50.18,29,53-52.32-98.2-56.7C112.65,54.73,110.41,56,110.41,59.21Z"/></g></g><g id="_3" data-name="3"><polygon class="cls-46" points="26.45 149.66 13.22 141.8 0 149.84 13.22 157.7 26.45 149.66"/><polygon class="cls-13" points="13.22 171.01 13.22 157.7 0 149.84 0 163.15 13.22 171.01"/><polygon class="cls-14" points="26.45 149.66 26.45 162.96 13.22 171.01 13.22 157.7 26.45 149.66"/><polygon class="cls-47" points="45.72 145.6 32.5 137.74 19.28 145.79 32.5 153.65 45.72 145.6"/><polygon class="cls-13" points="32.5 182.45 32.5 153.65 19.28 145.79 19.28 174.59 32.5 182.45"/><polygon class="cls-14" points="45.72 145.6 45.72 174.4 32.5 182.45 32.5 153.65 45.72 145.6"/><polygon class="cls-48" points="65.56 132.2 52.34 124.34 39.11 132.39 52.34 140.25 65.56 132.2"/><polygon class="cls-13" points="52.34 193.95 52.34 140.25 39.11 132.39 39.11 186.09 52.34 193.95"/><polygon class="cls-14" points="65.56 132.2 65.56 185.91 52.34 193.95 52.34 140.25 65.56 132.2"/><polygon class="cls-49" points="85.39 156.4 72.17 148.54 58.95 156.59 72.17 164.45 85.39 156.4"/><polygon class="cls-13" points="72.17 205.29 72.17 164.45 58.95 156.59 58.95 197.43 72.17 205.29"/><polygon class="cls-14" points="85.39 156.4 85.39 197.24 72.17 205.29 72.17 164.45 85.39 156.4"/><polygon class="cls-50" points="105.23 184.08 92.01 176.22 78.78 184.27 92.01 192.13 105.23 184.08"/><polygon class="cls-13" points="92.01 216.65 92.01 192.13 78.78 184.27 78.78 208.79 92.01 216.65"/><polygon class="cls-14" points="105.23 184.08 105.23 208.6 92.01 216.65 92.01 192.13 105.23 184.08"/><polygon class="cls-51" points="125.06 206.65 111.84 198.79 98.62 206.84 111.84 214.7 125.06 206.65"/><polygon class="cls-13" points="111.84 228 111.84 214.7 98.62 206.84 98.62 220.15 111.84 228"/><polygon class="cls-14" points="125.06 206.65 125.06 219.96 111.84 228 111.84 214.7 125.06 206.65"/><g class="cls-20"><polygon class="cls-52" points="26.45 149.71 13.22 141.85 0 149.9 13.22 157.75 26.45 149.71"/><polygon class="cls-22" points="13.22 171.06 13.22 157.75 0 149.9 0 163.2 13.22 171.06"/><polygon class="cls-14" points="26.45 149.71 26.45 163.01 13.22 171.06 13.22 157.75 26.45 149.71"/><polygon class="cls-53" points="45.72 145.65 32.5 137.79 19.28 145.84 32.5 153.7 45.72 145.65"/><polygon class="cls-22" points="32.5 182.5 32.5 153.7 19.28 145.84 19.28 174.64 32.5 182.5"/><polygon class="cls-14" points="45.72 145.65 45.72 174.45 32.5 182.5 32.5 153.7 45.72 145.65"/><polygon class="cls-54" points="65.56 132.25 52.34 124.39 39.11 132.44 52.34 140.3 65.56 132.25"/><polygon class="cls-22" points="52.34 194 52.34 140.3 39.11 132.44 39.11 186.14 52.34 194"/><polygon class="cls-14" points="65.56 132.25 65.56 185.96 52.34 194 52.34 140.3 65.56 132.25"/><polygon class="cls-55" points="85.39 156.45 72.17 148.59 58.95 156.64 72.17 164.5 85.39 156.45"/><polygon class="cls-22" points="72.17 205.34 72.17 164.5 58.95 156.64 58.95 197.48 72.17 205.34"/><polygon class="cls-14" points="85.39 156.45 85.39 197.29 72.17 205.34 72.17 164.5 85.39 156.45"/><polygon class="cls-56" points="105.23 184.13 92.01 176.28 78.78 184.32 92.01 192.18 105.23 184.13"/><polygon class="cls-22" points="92.01 216.7 92.01 192.18 78.78 184.32 78.78 208.84 92.01 216.7"/><polygon class="cls-14" points="105.23 184.13 105.23 208.65 92.01 216.7 92.01 192.18 105.23 184.13"/><polygon class="cls-57" points="125.06 206.7 111.84 198.84 98.62 206.89 111.84 214.75 125.06 206.7"/><polygon class="cls-22" points="111.84 228.06 111.84 214.75 98.62 206.89 98.62 220.19 111.84 228.06"/><polygon class="cls-14" points="125.06 206.7 125.06 220.01 111.84 228.06 111.84 214.75 125.06 206.7"/></g></g><g id="_2" data-name="2"><g id="_18-2" data-name="18"><path class="cls-58" d="M213.31,51.14h0V46.72l-8.23-2.13L186.84,34.05c-3.07-1.77-7.72-2-10.38-.43L157.77,44.41l-8.72,2.07v4.37a2.81,2.81,0,0,0,0,.29v.07h0c.09,1.12.94,2.28,2.53,3.2l23.94,13.82c3.07,1.78,7.72,2,10.38.43l25.63-14.8A3,3,0,0,0,213.31,51.14Z"/><path class="cls-31" d="M211.53,49.2,185.9,64c-2.66,1.53-7.31,1.34-10.38-.43L151.58,49.75c-3.07-1.78-3.4-4.46-.74-6L176.46,29c2.66-1.54,7.31-1.34,10.38.43l23.94,13.82C213.85,45,214.19,47.67,211.53,49.2Z"/><path class="cls-32" d="M203.75,45.53c-3.65-1.05-9.56-2.2-13.26-.06l-1.87,1.07-2.26-1a2.86,2.86,0,0,0-1.13-2.3h0l-4.4-4a3.11,3.11,0,0,0-.33-.29l-.08-.08h0a7.06,7.06,0,0,0-.9-.61,13.66,13.66,0,0,0-12.36,0c-3.41,2-3.41,5.16,0,7.14a9.84,9.84,0,0,0,1,.5h0l.14.05.61.23,6.8,2.52h0a10.69,10.69,0,0,0,4,.66l1.72,1.3-1.85,1.07c-3.71,2.14-1.72,5.56.11,7.67.83,1,3.06,1.18,4.38.41l10-5.77.43-.25,10-5.75C205.79,47.3,205.42,46,203.75,45.53Z"/><path class="cls-59" d="M167.15,40.65a13.66,13.66,0,0,1,12.36,0,7,7,0,0,1,.89.62h0l.09.08.33.3,4.39,4h0a2.89,2.89,0,0,1,1.14,2.3l2.25,1,1.87-1.08c3.71-2.14,9.62-1,13.27.07a4.17,4.17,0,0,1,.6.24l.11-.07c1.33-.76,1-2.05-.71-2.53-3.65-1.05-9.56-2.21-13.27-.07l-1.87,1.08-2.25-1a2.88,2.88,0,0,0-1.14-2.3h0l-4.39-4-.33-.3-.09-.08h0a7,7,0,0,0-.89-.62,13.66,13.66,0,0,0-12.36,0c-2.24,1.29-3,3.1-2.31,4.75A5.19,5.19,0,0,1,167.15,40.65Z"/><path class="cls-60" d="M179.58,54.12l1.85-1.07V50.69s-1.8,1.05-1.83,1.05h0c-2.1,1.22-2.37,2.83-1.89,4.39A4,4,0,0,1,179.58,54.12Z"/></g><path class="cls-61" d="M202.1,9.66l-3.26-4.79-2.1,1.44-.1,0,1.76,6.18-.71.48-.09,3.65L192,25.13,181.9,33.79,173.1,38l-11.59-1c-.11-.23-.2-.46-.29-.7l-4.95-2.49a.59.59,0,0,0,0,.14l-2.13,1.46,3.7,5.41.13.2.44.65,0,0c2.39,2.85,6.61,4.37,12.24,3.94C182.86,44.67,197,35,202.33,24c2.44-5.09,2.56-9.57.78-12.83h0A8.58,8.58,0,0,0,202.1,9.66Z"/><path class="cls-62" d="M156.21,34.83l5.12,1.75c-1-2.55-.76-5.87,1-9.58,4.3-8.94,15.8-16.79,25.69-17.54,4.06-.31,7.22.63,9.24,2.47L197,6.39a11.94,11.94,0,0,0-1.4-.37c.69-.14,1.18-.23,1.37-.25h0c-1.19-.2-12.51-4.34-12.51-4.34L169.38,7.27l-10.86,10-3.37,11.81,1.2,2.87.29-.32A15.2,15.2,0,0,0,156.21,34.83Z"/><path class="cls-63" d="M207.67,24.56,207,16.39l-5.68.21h-.1a2.05,2.05,0,0,0-1.55,1.32,6.41,6.41,0,0,0,.44,5.79,2.18,2.18,0,0,0,1.55,1.07h0a1.41,1.41,0,0,0,.29,0Z"/><path class="cls-64" d="M207,16.39a2.05,2.05,0,0,0-1.51,1.31,6.4,6.4,0,0,0,.44,5.79,2,2,0,0,0,1.79,1.07h0l12.22,1.22-.72-12Z"/><path class="cls-65" d="M241.16,13.64h0a1.15,1.15,0,0,0-.33,0h0l-21.65.15a2.93,2.93,0,0,0-2.38,1.94,9.35,9.35,0,0,0,.64,8.45,3.06,3.06,0,0,0,2.46,1.57h0a2.08,2.08,0,0,0,.5-.07l21.27-3h0a1.33,1.33,0,0,0,.34-.05h0l6.12-.94-.82-8.16Z"/><path class="cls-66" d="M252.93,13.33l-5.52.19h-.11a2.05,2.05,0,0,0-1.55,1.33,6.39,6.39,0,0,0,.44,5.78,2,2,0,0,0,1.93,1.05l5.67-.2Z"/><path class="cls-67" d="M254.91,14.37a6.44,6.44,0,0,1,.44,5.79c-.8,1.67-2.3,1.78-3.34.25a6.41,6.41,0,0,1-.44-5.79C252.37,13,253.87,12.84,254.91,14.37Z"/><path class="cls-68" d="M258.18,14.13l-4,.14h-.08a1.53,1.53,0,0,0-1.13,1,4.69,4.69,0,0,0,.32,4.22,1.44,1.44,0,0,0,1.41.77l4.14-.15Z"/><path class="cls-69" d="M259.63,14.89a4.7,4.7,0,0,1,.32,4.22,1.29,1.29,0,0,1-2.44.19,4.65,4.65,0,0,1-.32-4.23A1.29,1.29,0,0,1,259.63,14.89Z"/><path class="cls-70" d="M228.92,13.69h0Z"/><path class="cls-71" d="M227.24,23a8.42,8.42,0,0,1-.57-7.59,2.67,2.67,0,0,1,2.06-1.74l-1.83,0h0a2.62,2.62,0,0,0-2.27,1.77,8.59,8.59,0,0,0,.58,7.75,2.7,2.7,0,0,0,2.44,1.42h0l2-.26h0A2.62,2.62,0,0,1,227.24,23Z"/><ellipse class="cls-72" cx="178.14" cy="22.69" rx="21.26" ry="12.28" transform="translate(18.24 104.42) rotate(-34.33)"/><path class="cls-73" d="M154.35,21.69c-5.29,11,.29,19.2,12.48,18.27s26.36-10.6,31.65-21.61S198.19-.85,186,.07,159.64,10.67,154.35,21.69Zm40-3C190,27.6,178.53,35.45,168.64,36.2s-14.42-5.89-10.13-14.83,15.8-16.79,25.68-17.54S198.62,9.72,194.32,18.66Z"/><path class="cls-74" d="M172.55,17.45c3.41-.26,5,2,3.49,5.12a11.87,11.87,0,0,1-8.86,6.05c-3.41.26-5-2-3.49-5.12A11.87,11.87,0,0,1,172.55,17.45Z"/></g><g id="_1" data-name="1"><g id="_1-2" data-name="1"><g id="_10" data-name="10"><path class="cls-75" d="M316.83,215.1c-1.75-1.78-1.81-.19-1.46,1.74l-32.2-18.66a4.7,4.7,0,0,0-4.5.14l-47.24,27.21c-1.92-.87-3.68-1.16-4.46.13-1.43,2.33-.47,3.6.34,4.39a2.72,2.72,0,0,0,.73.57l0,0,33.07,19.15a4.65,4.65,0,0,0,4.42-.14l50.77-29.28S320.2,218.5,316.83,215.1Z"/><g class="cls-76"><path class="cls-77" d="M316.83,215.1c-1.75-1.78-1.81-.19-1.46,1.74l-32.2-18.66a4.7,4.7,0,0,0-4.5.14l-47.24,27.21c-1.92-.87-3.68-1.16-4.46.13-1.43,2.33-.47,3.6.34,4.39a2.72,2.72,0,0,0,.73.57l0,0,33.07,19.15a4.65,4.65,0,0,0,4.42-.14l50.77-29.28S320.2,218.5,316.83,215.1Z"/></g><g class="cls-76"><path class="cls-78" d="M316.83,215.1c-1.75-1.78-1.81-.19-1.46,1.74l-32.2-18.66a4.7,4.7,0,0,0-4.5.14l-47.24,27.21c-1.92-.87-3.68-1.16-4.46.13-1.43,2.33-.47,3.6.34,4.39a2.72,2.72,0,0,0,.73.57l0,0,33.07,19.15a4.65,4.65,0,0,0,4.42-.14l50.77-29.28S320.2,218.5,316.83,215.1Z"/></g><path class="cls-79" d="M227.68,224.93l51-29.36a4.73,4.73,0,0,1,4.5-.14l33.07,19.17a1.88,1.88,0,0,1,.1,3.31l-50.76,29.28a4.67,4.67,0,0,1-4.43.14l-33.06-19.15C226.43,227.22,226.53,225.7,227.68,224.93Z"/><path class="cls-80" d="M230,225.5l35.07,20a.89.89,0,0,0,.81,0l48.24-27.66a.28.28,0,0,0,0-.49l-35-20.14a.76.76,0,0,0-.73,0L230,225A.26.26,0,0,0,230,225.5Z"/><path class="cls-81" d="M229.93,225.41l48.37-27.88a.76.76,0,0,1,.73,0l35,20.13a.31.31,0,0,1,.09.07.29.29,0,0,0-.08-.45l-35-20.13a.76.76,0,0,0-.73,0L229.94,225a.26.26,0,0,0-.05.41Z"/><path class="cls-82" d="M243.93,235.52h0c-.11-.07-.1-.18,0-.26h0a.49.49,0,0,1,.44,0h0c.11.07.1.19,0,.26h0A.48.48,0,0,1,243.93,235.52Z"/><path class="cls-83" d="M248.58,238.19l-4-2.29c-.12-.07-.1-.19,0-.26h0a.48.48,0,0,1,.45,0l4,2.29c.11.06.1.18,0,.26h0A.55.55,0,0,1,248.58,238.19Z"/><path class="cls-84" d="M298.54,207.41l-2.46-1.4c-.49-.28-.42-.78.14-1.1h0a2.15,2.15,0,0,1,1.91-.07l2.46,1.4c.49.28.42.77-.14,1.1h0A2.15,2.15,0,0,1,298.54,207.41Z"/><path class="cls-85" d="M296.14,205.32a2.15,2.15,0,0,1,1.91-.07l2.46,1.4a.65.65,0,0,1,.31.36.51.51,0,0,0-.23-.77l-2.46-1.4a2.15,2.15,0,0,0-1.91.07h0c-.36.21-.52.49-.45.74A1.1,1.1,0,0,1,296.14,205.32Z"/><path class="cls-86" d="M275,242.6a.28.28,0,0,0-.2,0h0l-2.07,1.2h0a.5.5,0,0,0-.22.3.4.4,0,0,0,.19.51.31.31,0,0,0,.19,0h0l2-1.19h0a.5.5,0,0,0,.25-.31A.39.39,0,0,0,275,242.6Z"/><path class="cls-87" d="M275.2,242.75a.25.25,0,0,0-.19,0h0l-2.07,1.2h0a.5.5,0,0,0-.22.3.39.39,0,0,0,.19.51.41.41,0,0,0,.19,0h0l0,0,2-1.18h0a.46.46,0,0,0,.24-.31A.38.38,0,0,0,275.2,242.75Z"/><path class="cls-88" d="M278.19,240.78a.25.25,0,0,0-.19,0h0L275.93,242h0a.48.48,0,0,0-.22.29.39.39,0,0,0,.19.51.25.25,0,0,0,.19,0h0l2-1.18h0a.49.49,0,0,0,.24-.31A.39.39,0,0,0,278.19,240.78Z"/><path class="cls-89" d="M278.4,240.93a.28.28,0,0,0-.2,0h0l-2.07,1.21h0a.52.52,0,0,0-.22.29.4.4,0,0,0,.19.51.25.25,0,0,0,.19,0h0l2-1.18h0a.5.5,0,0,0,.25-.31A.4.4,0,0,0,278.4,240.93Z"/><path class="cls-90" d="M271.8,244.46a.27.27,0,0,0-.2,0h0l-.5.28h0a.48.48,0,0,0-.22.29.39.39,0,0,0,.19.51.25.25,0,0,0,.19,0h0l.46-.26h0A.5.5,0,0,0,272,245,.4.4,0,0,0,271.8,244.46Z"/><path class="cls-91" d="M272,244.61a.25.25,0,0,0-.19,0h0l-.51.28h0a.54.54,0,0,0-.22.3.4.4,0,0,0,.19.51.31.31,0,0,0,.19,0h0l.47-.26h0a.46.46,0,0,0,.24-.31A.39.39,0,0,0,272,244.61Z"/><path class="cls-92" d="M258.79,247.19c0,.42-.2.63-.53.48a1.37,1.37,0,0,1-.68-1c0-.42.2-.64.53-.49A1.36,1.36,0,0,1,258.79,247.19Z"/><path class="cls-93" d="M258.49,247.86a.79.79,0,0,1-.29-.06,1.5,1.5,0,0,1-.75-1.15.65.65,0,0,1,.21-.61.51.51,0,0,1,.51,0,1.47,1.47,0,0,1,.75,1.14h0a.65.65,0,0,1-.21.61A.53.53,0,0,1,258.49,247.86Zm-.59-1.62a.11.11,0,0,0-.08,0,.36.36,0,0,0-.1.35,1.28,1.28,0,0,0,.59.93.23.23,0,0,0,.24,0,.36.36,0,0,0,.1-.35h0a1.23,1.23,0,0,0-.59-.92A.32.32,0,0,0,257.9,246.24Z"/></g><path class="cls-94" d="M230,221.47l35.07,20a.83.83,0,0,0,.81,0l48.24-27.66a.28.28,0,0,0,0-.49l-35-20.14a.79.79,0,0,0-.73,0L230,221A.26.26,0,0,0,230,221.47Z"/><path class="cls-95" d="M265.6,237.31a1.24,1.24,0,0,1-.56-.13l-35.08-20a.65.65,0,0,1-.35-.56.64.64,0,0,1,.33-.6l48.37-27.88a1.17,1.17,0,0,1,1.12,0l35,20.14a.69.69,0,0,1,0,1.2l-48.25,27.66A1.27,1.27,0,0,1,265.6,237.31Zm-35-20.69,34.85,19.84a.44.44,0,0,0,.4,0l48.06-27.56-34.84-20a.39.39,0,0,0-.33,0Z"/></g><g id="_5" data-name="5"><circle class="cls-96" cx="271.59" cy="189.37" r="25.64" transform="translate(28.15 413.78) rotate(-77.56)"/><path class="cls-97" d="M285.61,177.05c-5.06-.72-14.83-3-19.07,6-3.26,6.87-1,12.94,7.7,14.63,8.4,1.62,5.85,9.74,8.07,11s8.7-3.7,8.7-12.49-4.59-12.26-2.61-13.46S289,177.53,285.61,177.05Z"/><path class="cls-98" d="M272.44,165a12.5,12.5,0,0,1,8.42,6.84c.85,2,4.27,2.44,9.29,3.5C286.18,168.59,280.62,166,272.44,165Z"/><path class="cls-99" d="M248,192.55a25.65,25.65,0,0,0,16,19.35,20,20,0,0,1-3.49-6.3c-.78-3.11.63-5.23-3.47-9.71C254.71,193.25,250.82,192.62,248,192.55Z"/><g class="cls-100"><path class="cls-101" d="M273.23,215.85a25.62,25.62,0,0,1-6.17-.76,16,16,0,0,1-8,2.35,4.73,4.73,0,0,1-4.17-2.68c-3.05-5.28-2.18-17.85,6.62-34,8.23-15.12,18.12-21.84,24.33-21.84H286a5.15,5.15,0,0,1,4.9,2.88c1.29,2.6.72,6.42-.23,9.63a25.77,25.77,0,0,1,4,4.71c1.57-4,3.71-11.22,1-16.7a10.5,10.5,0,0,0-9.55-5.83h-.25c-7.59,0-19.11,6.45-29,24.62-8.74,16-11.25,31.07-6.56,39.2a10.05,10.05,0,0,0,8.64,5.34h.4c6.47,0,12.31-3.88,16-7C274.6,215.81,273.92,215.85,273.23,215.85Z"/></g><g class="cls-102"><path class="cls-103" d="M273.23,215.34a25.62,25.62,0,0,1-6.17-.76,16,16,0,0,1-8,2.35,4.73,4.73,0,0,1-4.17-2.68c-3.05-5.28-2.18-17.84,6.62-34,8.23-15.13,18.12-21.85,24.33-21.85H286a5.15,5.15,0,0,1,4.9,2.88c1.29,2.6.72,6.42-.23,9.63a25.77,25.77,0,0,1,4,4.71c1.57-4,3.71-11.22,1-16.7a10.5,10.5,0,0,0-9.55-5.83h-.25c-7.59,0-19.11,6.45-29,24.62-8.74,16.05-11.25,31.07-6.56,39.2a10.05,10.05,0,0,0,8.64,5.34h.4c6.47,0,12.31-3.87,16-7C274.6,215.3,273.92,215.34,273.23,215.34Z"/></g></g></g></g></g></g></svg>