<svg xmlns="http://www.w3.org/2000/svg" xmlns:xlink="http://www.w3.org/1999/xlink" viewBox="0 0 349.93 227.73"><defs><style>.cls-1{fill:none;}.cls-2{isolation:isolate;}.cls-3{fill:#d9e8ff;}.cls-3,.cls-7{opacity:0.55;}.cls-12,.cls-3{mix-blend-mode:multiply;}.cls-4,.cls-5{fill:#b3c9ff;}.cls-4{opacity:0.5;}.cls-6{fill:#fff;}.cls-7{fill:#859bf9;}.cls-8{fill:#dbe0fe;}.cls-9{fill:url(#linear-gradient);}.cls-10{fill:#d62984;opacity:0.75;}.cls-11{fill:url(#linear-gradient-2);}.cls-12{fill:#5890f4;opacity:0.25;}.cls-13{fill:url(#linear-gradient-3);}.cls-14{fill:#37f;}.cls-15{fill:#6490ff;}.cls-16{fill:#2660ef;}.cls-17{fill:url(#linear-gradient-4);}.cls-18{fill:url(#linear-gradient-5);}.cls-19{fill:url(#linear-gradient-6);}.cls-20{clip-path:url(#clip-path);}.cls-21{fill:#bdd5ff;}.cls-22{fill:url(#linear-gradient-7);}.cls-23{fill:url(#linear-gradient-8);}</style><linearGradient id="linear-gradient" x1="144.51" y1="149.5" x2="219.7" y2="149.5" gradientUnits="userSpaceOnUse"><stop offset="0" stop-color="#f84e49"/><stop offset="1" stop-color="#ef3598"/></linearGradient><linearGradient id="linear-gradient-2" x1="150.9" y1="150.61" x2="210.82" y2="150.61" xlink:href="#linear-gradient"/><linearGradient id="linear-gradient-3" x1="102.5" y1="87.23" x2="259.22" y2="87.23" xlink:href="#linear-gradient"/><linearGradient id="linear-gradient-4" x1="274.63" y1="54.77" x2="304.22" y2="54.77" xlink:href="#linear-gradient"/><linearGradient id="linear-gradient-5" x1="284.16" y1="54.77" x2="294.69" y2="54.77" xlink:href="#linear-gradient"/><linearGradient id="linear-gradient-6" x1="30.72" y1="93.9" x2="57.35" y2="93.9" xlink:href="#linear-gradient"/><clipPath id="clip-path"><polyline class="cls-1" points="44.04 97.23 59.03 82.97 44.04 82.97 29.04 82.97 44.04 97.23"/></clipPath><linearGradient id="linear-gradient-7" x1="218.96" y1="17.9" x2="270.48" y2="17.9" xlink:href="#linear-gradient"/><linearGradient id="linear-gradient-8" x1="252.95" y1="38.74" x2="264.44" y2="38.74" xlink:href="#linear-gradient"/></defs><title>Asset 1</title><g class="cls-2"><g id="Layer_2" data-name="Layer 2"><g id="OBJECTS"><ellipse class="cls-3" cx="50.81" cy="201.04" rx="50.81" ry="4.68"/><ellipse class="cls-3" cx="182.29" cy="208.9" rx="93.16" ry="4.68"/><ellipse class="cls-3" cx="221.35" cy="222.95" rx="11.84" ry="2.48"/><path class="cls-4" d="M249.74,87.18a22.43,22.43,0,0,0-.86-9.52L243.11,79a16.42,16.42,0,0,0-2.35-4.47l4.42-4a22.56,22.56,0,0,0-7.34-6.12l-3.1,5.06a16.42,16.42,0,0,0-4.82-1.5l.32-5.93a22.44,22.44,0,0,0-9.52.86l1.39,5.77a16.42,16.42,0,0,0-4.47,2.35l-4-4.42A22.56,22.56,0,0,0,207.56,74l5.06,3.1a16.42,16.42,0,0,0-1.5,4.82l-5.93-.32a22.43,22.43,0,0,0,.86,9.52l5.77-1.39a16.42,16.42,0,0,0,2.35,4.47l-4.42,4a22.56,22.56,0,0,0,7.34,6.12l3.1-5.06a16.42,16.42,0,0,0,4.82,1.5l-.32,5.93a22.43,22.43,0,0,0,9.52-.86L232.82,100a16.42,16.42,0,0,0,4.47-2.35l4,4.42a22.56,22.56,0,0,0,6.12-7.34l-5.06-3.1a16.42,16.42,0,0,0,1.5-4.82Zm-21.45,6.35a9.17,9.17,0,1,1,8.3-10A9.17,9.17,0,0,1,228.29,93.53Z"/><path class="cls-4" d="M212.88,49.42a13.32,13.32,0,0,0-.51-5.65l-3.43.82a9.75,9.75,0,0,0-1.39-2.65l2.62-2.35A13.39,13.39,0,0,0,205.81,36L204,39a9.75,9.75,0,0,0-2.86-.89l.19-3.52a13.32,13.32,0,0,0-5.65.51l.82,3.43a9.75,9.75,0,0,0-2.65,1.39l-2.35-2.62a13.39,13.39,0,0,0-3.63,4.36l3,1.84a9.75,9.75,0,0,0-.89,2.86l-3.52-.19a13.32,13.32,0,0,0,.51,5.65l3.43-.82a9.75,9.75,0,0,0,1.39,2.65L189.14,56a13.39,13.39,0,0,0,4.36,3.63l1.84-3a9.75,9.75,0,0,0,2.86.89L198,61a13.32,13.32,0,0,0,5.65-.51l-.82-3.43a9.74,9.74,0,0,0,2.65-1.39l2.35,2.62a13.39,13.39,0,0,0,3.63-4.36l-3-1.84a9.74,9.74,0,0,0,.89-2.86Zm-12.73,3.77a5.44,5.44,0,1,1,4.93-5.91A5.44,5.44,0,0,1,200.15,53.19Z"/><path class="cls-5" d="M300.28,42.71,305,39.2a29.22,29.22,0,0,0-9-9l-3.51,4.71a23.08,23.08,0,0,0-6.56-2.72l.85-5.82a28.52,28.52,0,0,0-12.72,0l.85,5.82a23.08,23.08,0,0,0-6.56,2.72l-3.51-4.71a29.22,29.22,0,0,0-9,9l4.71,3.51a23.09,23.09,0,0,0-2.72,6.56L252,48.42a28.52,28.52,0,0,0,0,12.72l5.82-.85a23.09,23.09,0,0,0,2.72,6.56l-4.71,3.51a29.22,29.22,0,0,0,9,9l3.51-4.71a23.08,23.08,0,0,0,6.56,2.72l-.85,5.82a28.52,28.52,0,0,0,12.72,0l-.85-5.82a23.08,23.08,0,0,0,6.56-2.72L296,79.34a29.22,29.22,0,0,0,9-9l-4.71-3.51A23.08,23.08,0,0,0,303,60.29l5.82.85a28.52,28.52,0,0,0,0-12.72l-5.82.85A23.08,23.08,0,0,0,300.28,42.71ZM280.42,70.23a15.45,15.45,0,1,1,15.45-15.45A15.45,15.45,0,0,1,280.42,70.23Z"/><path class="cls-5" d="M115.73,74.72l2-2.84A17.22,17.22,0,0,0,111,68.53l-1.08,3.29a13.6,13.6,0,0,0-4.17-.29l-.61-3.41A16.8,16.8,0,0,0,98,70.5l1.56,3.09a13.6,13.6,0,0,0-3.16,2.75l-2.84-2a17.21,17.21,0,0,0-3.34,6.71l3.29,1.08a13.6,13.6,0,0,0-.29,4.17l-3.41.61A16.81,16.81,0,0,0,92.21,94l3.09-1.56a13.6,13.6,0,0,0,2.75,3.16l-2,2.84a17.22,17.22,0,0,0,6.71,3.34l1.08-3.29a13.6,13.6,0,0,0,4.17.29l.61,3.41a16.8,16.8,0,0,0,7.11-2.38l-1.56-3.09A13.6,13.6,0,0,0,117.34,94l2.84,2a17.22,17.22,0,0,0,3.34-6.71l-3.29-1.08a13.6,13.6,0,0,0,.29-4.17l3.41-.61a16.81,16.81,0,0,0-2.38-7.11l-3.09,1.56A13.6,13.6,0,0,0,115.73,74.72Zm-6.07,18.73a8.73,8.73,0,1,1,5.51-11A8.73,8.73,0,0,1,109.66,93.45Z"/><path class="cls-6" d="M111.54,80.55H250.18a9,9,0,0,1,9,9V208.92a0,0,0,0,1,0,0H102.5a0,0,0,0,1,0,0V89.59A9,9,0,0,1,111.54,80.55Z"/><rect class="cls-7" x="113.88" y="173.27" width="52.25" height="25.95" rx="2.08" ry="2.08"/><rect class="cls-7" x="113.88" y="100.24" width="93.42" height="4.65" rx="1.17" ry="1.17"/><rect class="cls-7" x="113.88" y="109.84" width="93.42" height="4.65" rx="1.17" ry="1.17"/><rect class="cls-7" x="113.88" y="119.44" width="93.42" height="4.65" rx="1.17" ry="1.17"/><rect class="cls-7" x="113.88" y="129.05" width="93.42" height="4.65" rx="1.17" ry="1.17"/><rect class="cls-7" x="113.88" y="138.65" width="93.42" height="4.65" rx="1.17" ry="1.17"/><rect class="cls-7" x="113.88" y="148.25" width="93.42" height="4.65" rx="1.17" ry="1.17"/><polygon class="cls-8" points="207.88 193.5 208.81 195.38 210.89 195.68 209.39 197.15 209.74 199.22 207.88 198.24 206.02 199.22 206.38 197.15 204.87 195.68 206.95 195.38 207.88 193.5"/><polygon class="cls-8" points="217.11 193.5 218.04 195.38 220.12 195.68 218.61 197.15 218.97 199.22 217.11 198.24 215.25 199.22 215.6 197.15 214.1 195.68 216.18 195.38 217.11 193.5"/><polygon class="cls-8" points="226.33 193.5 227.26 195.38 229.34 195.68 227.84 197.15 228.19 199.22 226.33 198.24 224.47 199.22 224.83 197.15 223.32 195.68 225.4 195.38 226.33 193.5"/><polygon class="cls-8" points="235.56 193.5 236.49 195.38 238.57 195.68 237.07 197.15 237.42 199.22 235.56 198.24 233.7 199.22 234.06 197.15 232.55 195.68 234.63 195.38 235.56 193.5"/><polygon class="cls-8" points="244.79 193.5 245.72 195.38 247.8 195.68 246.29 197.15 246.65 199.22 244.79 198.24 242.93 199.22 243.28 197.15 241.78 195.68 243.86 195.38 244.79 193.5"/><path class="cls-9" d="M199.16,120a41.76,41.76,0,0,1-17-10.47,41.76,41.76,0,0,1-17,10.47,66.4,66.4,0,0,1-20.55,2.9s0,36.05,12.36,50.58c11.61,13.64,25.23,16,25.23,16s13.62-2.4,25.23-16c12.36-14.52,12.36-50.58,12.36-50.58A66.4,66.4,0,0,1,199.16,120Z"/><path class="cls-10" d="M180.86,183.75a43.86,43.86,0,0,1-21-13.92c-7.64-9-10.25-29.64-10.87-41.51a67.65,67.65,0,0,0,16.56-3A50.25,50.25,0,0,0,180.86,117a50.22,50.22,0,0,0,15.29,8.24,67.67,67.67,0,0,0,16.56,3c-.62,11.86-3.22,32.52-10.87,41.51A43.86,43.86,0,0,1,180.86,183.75Z"/><path class="cls-11" d="M180.86,181.9a41.72,41.72,0,0,1-19.61-13.23c-7-8.23-9.6-26.9-10.35-38.69a67.77,67.77,0,0,0,15.24-3,52,52,0,0,0,14.72-7.66A52,52,0,0,0,195.58,127a67.83,67.83,0,0,0,15.23,3c-.75,11.8-3.36,30.48-10.34,38.69A41.73,41.73,0,0,1,180.86,181.9Z"/><circle class="cls-6" cx="180.86" cy="143.04" r="6.31"/><path class="cls-6" d="M180.86,162.68h0A2.66,2.66,0,0,1,178.2,160V145.46a2.66,2.66,0,0,1,2.66-2.66h0a2.66,2.66,0,0,1,2.66,2.66V160A2.66,2.66,0,0,1,180.86,162.68Z"/><path class="cls-12" d="M197.91,120a41.76,41.76,0,0,1-17-10.47v80s13.62-2.4,25.23-16c12.36-14.52,12.36-50.58,12.36-50.58A66.4,66.4,0,0,1,197.91,120Z"/><path class="cls-13" d="M250.18,80.55H111.54a9,9,0,0,0-9,9V93.9H259.22V89.59A9,9,0,0,0,250.18,80.55Z"/><circle class="cls-6" cx="234.51" cy="87.23" r="1.45"/><circle class="cls-6" cx="241.71" cy="87.23" r="1.45"/><circle class="cls-6" cx="248.9" cy="87.23" r="1.45"/><path class="cls-6" d="M333.81,195.48a16.07,16.07,0,0,0-5.15.85,25,25,0,0,0-50,.74c0,.63,0,1.26.08,1.88a13.82,13.82,0,0,0-25.37,10.19,9.92,9.92,0,1,0-4.82,18.6h85.22a16.12,16.12,0,0,0,0-32.25Z"/><path class="cls-6" d="M33,181.48a10.57,10.57,0,0,1,3.39.56,16.43,16.43,0,0,1,32.84.48c0,.42,0,.83-.05,1.23a9.09,9.09,0,0,1,16.68,6.7A6.52,6.52,0,1,1,89,202.68H33a10.6,10.6,0,0,1,0-21.2Z"/><path class="cls-8" d="M258.76,125.39l3.7-1.32a19.53,19.53,0,0,0-4-7.5l-3.16,2.33a15.42,15.42,0,0,0-3.66-3l1.68-3.55a19.06,19.06,0,0,0-8.13-2.48l-.59,3.89a15.43,15.43,0,0,0-4.72.46l-1.32-3.7a19.53,19.53,0,0,0-7.5,4l2.33,3.16a15.42,15.42,0,0,0-3,3.66l-3.55-1.68a19.06,19.06,0,0,0-2.48,8.13l3.89.59a15.43,15.43,0,0,0,.46,4.72L225,134.4a19.52,19.52,0,0,0,4,7.5l3.16-2.33a15.42,15.42,0,0,0,3.66,3l-1.68,3.55a19.06,19.06,0,0,0,8.13,2.48l.59-3.89a15.43,15.43,0,0,0,4.72-.46l1.32,3.7a19.53,19.53,0,0,0,7.5-4l-2.33-3.16a15.43,15.43,0,0,0,3-3.66l3.55,1.68a19.06,19.06,0,0,0,2.48-8.13l-3.89-.59A15.42,15.42,0,0,0,258.76,125.39ZM241.2,137.47a8.61,8.61,0,1,1,10.74-5.72A8.61,8.61,0,0,1,241.2,137.47Z"/><path class="cls-14" d="M104.17,168.94H70.3V148.25a2.93,2.93,0,0,1,2.93-2.93H86a1.37,1.37,0,0,1,.88.32l3.1,2.62a1.45,1.45,0,0,0,.94.34h10.32a2.93,2.93,0,0,1,2.93,2.93Z"/><rect class="cls-6" x="72.48" y="149.72" width="29.94" height="16.33" rx="1.74" ry="1.74"/><rect class="cls-15" x="70.3" y="153.02" width="33.87" height="21.44" rx="3.27" ry="3.27"/><path class="cls-16" d="M92.13,160.66h-.66v-1.41a4.23,4.23,0,0,0-8.46,0v1.41h-.66a.82.82,0,0,0-.82.82v6.6A2.45,2.45,0,0,0,84,170.53H90.5A2.45,2.45,0,0,0,93,168.08v-6.6A.82.82,0,0,0,92.13,160.66Zm-7.57-1.41a2.68,2.68,0,1,1,5.35,0v1.41H84.56Z"/><path class="cls-6" d="M88.72,164a1.48,1.48,0,1,0-2.11,1.33V168a.62.62,0,1,0,1.25,0v-2.65A1.48,1.48,0,0,0,88.72,164Z"/><path class="cls-6" d="M289.42,46.35c-8.3,0-13.74,8.41-13.74,8.41s5.44,8.41,13.74,8.41,13.74-8.41,13.74-8.41S297.73,46.35,289.42,46.35Z"/><path class="cls-17" d="M289.42,64.06c-8.69,0-14.25-8.46-14.49-8.82l-.31-.48.31-.48c.23-.36,5.8-8.82,14.49-8.82s14.25,8.46,14.49,8.82l.31.48-.31.48C303.68,55.61,298.11,64.06,289.42,64.06Zm-12.66-9.3c1.28,1.73,6.06,7.53,12.66,7.53s11.38-5.8,12.66-7.53C300.8,53,296,47.24,289.42,47.24S278,53,276.76,54.77Z"/><circle class="cls-18" cx="289.42" cy="54.77" r="5.26"/><circle class="cls-6" cx="287.68" cy="53.18" r="2.11"/><path class="cls-19" d="M55.71,82.91H32.37a1.65,1.65,0,0,0-1.65,1.65V99.77a1.65,1.65,0,0,0,1.65,1.65h2.12l5.29,3.47-.67-3.47h16.6a1.65,1.65,0,0,0,1.65-1.65V84.56A1.65,1.65,0,0,0,55.71,82.91Z"/><circle class="cls-6" cx="44.04" cy="97.23" r="1.95"/><g class="cls-20"><path class="cls-6" d="M44,103.87a6.64,6.64,0,1,1,6.65-6.64A6.65,6.65,0,0,1,44,103.87Zm0-11.44a4.8,4.8,0,1,0,4.8,4.79A4.8,4.8,0,0,0,44,92.43Z"/><path class="cls-6" d="M44,108.26a11,11,0,1,1,11-11A11,11,0,0,1,44,108.26ZM44,88a9.18,9.18,0,1,0,9.18,9.18A9.19,9.19,0,0,0,44,88Z"/></g><rect class="cls-21" x="133.7" y="35.92" width="32.3" height="22.44" rx="2" ry="2"/><polyline class="cls-21" points="155.93 57.84 155.01 62.57 162.21 57.84"/><path class="cls-6" d="M150.22,54.78a7.38,7.38,0,1,1,7.38-7.38A7.38,7.38,0,0,1,150.22,54.78Zm0-14a6.63,6.63,0,1,0,6.63,6.63A6.63,6.63,0,0,0,150.22,40.77Z"/><path class="cls-6" d="M150.22,54.78c-1.85,0-3.3-3.24-3.3-7.38s1.45-7.38,3.3-7.38,3.3,3.24,3.3,7.38S152.08,54.78,150.22,54.78Zm0-14c-1.21,0-2.55,2.72-2.55,6.63S149,54,150.22,54s2.55-2.72,2.55-6.63S151.43,40.77,150.22,40.77Z"/><rect class="cls-6" x="143.22" y="47.03" width="14" height="0.75"/><path class="cls-6" d="M150.22,44.66c-4.06,0-5.49-1.43-5.55-1.49l.54-.52-.27.26.27-.26s1.31,1.26,5,1.26,5-1.25,5-1.26l.54.52C155.72,43.23,154.29,44.66,150.22,44.66Z"/><path class="cls-6" d="M145.21,52.15l-.54-.52c.06-.06,1.49-1.49,5.55-1.49s5.49,1.43,5.55,1.49l-.54.52s-1.31-1.26-5-1.26S145.22,52.14,145.21,52.15Z"/><rect class="cls-22" x="218.96" width="51.53" height="35.8" rx="3.19" ry="3.19"/><polyline class="cls-23" points="254.41 34.97 252.95 42.52 264.44 34.97"/><path class="cls-6" d="M252.93,26.4a9.16,9.16,0,1,1,9.17-9.16A9.17,9.17,0,0,1,252.93,26.4Zm0-14.4a5.24,5.24,0,1,0,5.24,5.24A5.24,5.24,0,0,0,252.93,12Z"/><polygon class="cls-6" points="231.27 23.3 227.34 23.3 227.34 15.27 245.73 15.27 245.73 19.2 231.27 19.2 231.27 23.3"/><rect class="cls-6" x="233.43" y="17.24" width="3.93" height="4.58"/></g></g></g></svg>