<svg xmlns="http://www.w3.org/2000/svg" xmlns:xlink="http://www.w3.org/1999/xlink" viewBox="0 0 499.74 447.89"><defs><style>.cls-1,.cls-9{fill:none;}.cls-2{isolation:isolate;}.cls-3{clip-path:url(#clip-path);}.cls-4,.cls-5{fill:#d9e8ff;}.cls-13,.cls-5{opacity:0.55;}.cls-18,.cls-5{mix-blend-mode:multiply;}.cls-11,.cls-6{fill:#b3c9ff;}.cls-6{opacity:0.5;}.cls-7{fill:#acc9f9;}.cls-18,.cls-8{opacity:0.25;}.cls-9{stroke:#fff;stroke-linecap:round;stroke-linejoin:round;}.cls-10{fill:#bdd0ff;}.cls-12{fill:#fff;}.cls-13,.cls-14{fill:#dbe0fe;}.cls-15{fill:url(#linear-gradient);}.cls-16{fill:#d62984;opacity:0.75;}.cls-17{fill:url(#linear-gradient-2);}.cls-18{fill:#5890f4;}.cls-19{fill:url(#linear-gradient-3);}.cls-20{fill:#ffccb0;}.cls-21{fill:#7c3327;}.cls-22{fill:#f4713d;}.cls-23{fill:#e25833;}.cls-24{fill:#30334c;}.cls-25{fill:#262a3f;}.cls-26{fill:#db856e;}.cls-27{fill:#37f;}.cls-28{fill:#6490ff;}.cls-29{fill:#2660ef;}.cls-30{fill:#ed9c80;}.cls-31{fill:#222b70;}.cls-32{fill:url(#linear-gradient-4);}.cls-33{fill:url(#linear-gradient-5);}.cls-34{fill:url(#linear-gradient-6);}.cls-35{clip-path:url(#clip-path-2);}.cls-36{fill:#bdd5ff;}.cls-37{fill:url(#linear-gradient-7);}.cls-38{fill:url(#linear-gradient-8);}</style><clipPath id="clip-path" transform="translate(-221.55)"><rect class="cls-1" y="81.26" width="596.26" height="381.69"/></clipPath><linearGradient id="linear-gradient" x1="383.05" y1="304.53" x2="458.24" y2="304.53" gradientUnits="userSpaceOnUse"><stop offset="0" stop-color="#f84e49"/><stop offset="1" stop-color="#ef3598"/></linearGradient><linearGradient id="linear-gradient-2" x1="389.44" y1="305.64" x2="449.36" y2="305.64" xlink:href="#linear-gradient"/><linearGradient id="linear-gradient-3" x1="341.04" y1="242.26" x2="497.76" y2="242.26" xlink:href="#linear-gradient"/><linearGradient id="linear-gradient-4" x1="513.17" y1="209.8" x2="542.76" y2="209.8" xlink:href="#linear-gradient"/><linearGradient id="linear-gradient-5" x1="301.15" y1="209.8" x2="311.67" y2="209.8" xlink:href="#linear-gradient"/><linearGradient id="linear-gradient-6" x1="269.26" y1="248.93" x2="295.89" y2="248.93" xlink:href="#linear-gradient"/><clipPath id="clip-path-2" transform="translate(-221.55)"><polyline class="cls-1" points="282.58 252.26 297.57 238 282.58 238 267.58 238 282.58 252.26"/></clipPath><linearGradient id="linear-gradient-7" x1="235.94" y1="172.93" x2="287.47" y2="172.93" xlink:href="#linear-gradient"/><linearGradient id="linear-gradient-8" x1="269.94" y1="193.78" x2="281.42" y2="193.78" xlink:href="#linear-gradient"/></defs><title>Asset 2</title><g class="cls-2"><g id="Layer_2" data-name="Layer 2"><g id="OBJECTS"><g class="cls-3"><path class="cls-4" d="M549,24.77c-69,15.87-90.3,74-97.07,102-5.24,21.74-17.65,42.07-36.55,55.55-22.08,15.75-50.88,19.2-76.16,27.37-22.48,7.27-47.33,19.94-55.58,43.71-5.76,16.59-6.74,51.1-33.13,66.79-8.88,5.28-24.75,10.27-27.93,21.73-3.35,12.06,1.59,22.79,17.86,27.85,15.21,4.73,38.09-2.18,68.38,0,25.54,1.84,27.93,26.65,46.23,39.56,22.39,15.81,53.64,4.19,78.88,11.41,18.29,5.23,34.53,15.89,53.12,19.92,26.95,5.85,55.1,4,82-.84,32.29-5.77,89.75-29.64,117-83.52,19-20,68.68-262.39,0-327.31-19.84-18.75-88-34.9-114.16-27" transform="translate(-221.55)"/></g><ellipse class="cls-5" cx="67.79" cy="356.07" rx="50.81" ry="4.68"/><ellipse class="cls-5" cx="199.28" cy="363.93" rx="93.16" ry="4.68"/><ellipse class="cls-5" cx="309.38" cy="382.61" rx="59.2" ry="4.68"/><ellipse class="cls-5" cx="238.34" cy="377.98" rx="11.84" ry="2.48"/><path class="cls-6" d="M488.28,242.21a22.43,22.43,0,0,0-.86-9.52l-5.77,1.39a16.42,16.42,0,0,0-2.35-4.47l4.42-4a22.56,22.56,0,0,0-7.34-6.12l-3.1,5.06a16.42,16.42,0,0,0-4.82-1.5l.32-5.93a22.44,22.44,0,0,0-9.52.86l1.39,5.77a16.42,16.42,0,0,0-4.47,2.35l-4-4.42a22.56,22.56,0,0,0-6.12,7.34l5.06,3.1a16.42,16.42,0,0,0-1.5,4.82l-5.93-.32a22.43,22.43,0,0,0,.86,9.52l5.77-1.39a16.42,16.42,0,0,0,2.35,4.47l-4.42,4a22.56,22.56,0,0,0,7.34,6.12l3.1-5.06a16.42,16.42,0,0,0,4.82,1.5l-.32,5.93a22.43,22.43,0,0,0,9.52-.86l-1.39-5.77a16.42,16.42,0,0,0,4.47-2.35l4,4.42a22.56,22.56,0,0,0,6.12-7.34l-5.06-3.1a16.42,16.42,0,0,0,1.5-4.82Zm-21.45,6.35a9.17,9.17,0,1,1,8.3-10A9.17,9.17,0,0,1,466.83,248.56Z" transform="translate(-221.55)"/><path class="cls-6" d="M451.42,204.45a13.32,13.32,0,0,0-.51-5.65l-3.43.82a9.75,9.75,0,0,0-1.39-2.65l2.62-2.35a13.39,13.39,0,0,0-4.36-3.63l-1.84,3a9.75,9.75,0,0,0-2.86-.89l.19-3.52a13.32,13.32,0,0,0-5.65.51l.82,3.43a9.75,9.75,0,0,0-2.65,1.39L430,192.29a13.39,13.39,0,0,0-3.63,4.36l3,1.84a9.75,9.75,0,0,0-.89,2.86l-3.52-.19a13.32,13.32,0,0,0,.51,5.65l3.43-.82a9.75,9.75,0,0,0,1.39,2.65L427.68,211a13.39,13.39,0,0,0,4.36,3.63l1.84-3a9.75,9.75,0,0,0,2.86.89l-.19,3.52a13.32,13.32,0,0,0,5.65-.51l-.82-3.43A9.74,9.74,0,0,0,444,210.7l2.35,2.62A13.39,13.39,0,0,0,450,209l-3-1.84a9.74,9.74,0,0,0,.89-2.86Zm-12.73,3.77a5.44,5.44,0,1,1,4.93-5.91A5.44,5.44,0,0,1,438.69,208.22Z" transform="translate(-221.55)"/><path class="cls-7" d="M492.49,318.82c2.81-3.52,5.7-7.21,6.61-11.61.84-4.08,2-8.55,1.9-12.72a33.74,33.74,0,0,1,2-12.27c4.32-12.34,9.47-10.31,11.3-9.12s2.44,3.36,2.14,6.72c-.24,2.7-3.66,15.07.67,13.7,5-1.58,6.47-14.74,7.76-19,1.92-6.42,5.47-13.09,11-17,2.75-1.94,6.59-3.13,9.4-1.29a7.78,7.78,0,0,1,3,5c1.24,5.94-1.47,11.61-4.36,16.63-1.21,2.1-10.08,11.38-3.68,11.17,1.53-.05,15.26-8.3,15.22,2,0,3.63-4.47,6.8-11.39,10.6-4.32,2.37-19.92,8-19.68,12.08s9.17-1.26,7.29,6c-1.05,4.06-6.84,6.36-10.71,7.46-1.84.52-3.78.68-5.58,1.32-2.14.76-4.91,2.91-3.67,5.48.54,1.13,1.78,1.81,2.28,3a3.56,3.56,0,0,1-.67,3.56,8.24,8.24,0,0,1-3.1,2.15c-7.4,3.37-16.11,3-23.83.43s-14.62-7.11-21.14-12" transform="translate(-221.55)"/><g class="cls-8"><path class="cls-9" d="M540.56,262.59s-13.68,42.08-43.18,65.71" transform="translate(-221.55)"/><path class="cls-9" d="M549,292.49s-16,9.59-28.26,9.74" transform="translate(-221.55)"/><path class="cls-9" d="M511.41,278.21c-1.61,6.68-4.56,25.53.72,35.46" transform="translate(-221.55)"/><path class="cls-9" d="M526.18,320.45s-6.36,4.25-24.37,4.06" transform="translate(-221.55)"/><path class="cls-9" d="M510.43,337.68s-9.37.47-16.93-5.34" transform="translate(-221.55)"/></g><path class="cls-10" d="M550.3,345.48c-3.26-11.22-.84-23.31,3-34.34.92-2.65,2-5.36,4-7.35a4.45,4.45,0,0,1,3.82-1.57c2.06.42,2.93,2.88,3.17,5,1.47,13.22-7.24,25.34-9.45,38.46" transform="translate(-221.55)"/><path class="cls-10" d="M541,339.84a34.41,34.41,0,0,0-3.11-9.64,17.05,17.05,0,0,0-6.9-7.26c-1.33-.7-3.11-1.12-4.23-.12s-.84,3.12-.11,4.6c4,8.12,14.23,11.76,18.11,19.94" transform="translate(-221.55)"/><path class="cls-10" d="M545.75,346.47a70.76,70.76,0,0,1-6.39-14.76c-1.4-5.19-1.7-10.8.05-15.88.54-1.57,1.88-3.36,3.45-2.82a3.14,3.14,0,0,1,1.37,1.17c2.92,3.84,4,8.75,4.57,13.54s.54,9.66,1.6,14.37a4,4,0,0,0,.85,2,1.51,1.51,0,0,0,1.94.3,2.05,2.05,0,0,0,.6-1c.67-2.1,11.07-23.7,20.5-25.21a7.16,7.16,0,0,1,2.31-.08c11.82,2-14.81,26.66-15,30.34,9.63-8.26,11.67-9.78,16.06-10.57,3.38-.61,9.27,2.39,7.33,6.52-1.34,2.86-4.68,4.14-7.78,4.75-3.38.67-6.86.89-10.17,1.83s-6.58,2.76-8.27,5.76" transform="translate(-221.55)"/><path class="cls-7" d="M343.11,296c-9.51-5-3.91-14.25-5.32-20.28-2.32-9.93-5-11.92-10.39-10-2.66.95-4.14,4.81-4.73,7.31-.94,4-.23,8.09.31,12.07.47,3.43,2.51,10.86-1.59,12.17s-4.73-4.12-9.7-8.06c-2.23-1.77-8.26-2.51-9.59,1.88-2.37,7.81,1.31,11.53,19.79,21.88,3.15,1.76,10,3.62,9.57,5.39s-5.2-.35-8.76.86c-5.74,2-3.15,5.57-1.13,6.74,16.07,9.28,29.12,5.2,35.4,8.1,2.73,1.26,4.54,3.88,6.68,6,4.73,4.69,6.51,3.86,13.17,3.69A16.8,16.8,0,0,0,387.62,340c1.19-1.06,2.23-2.65,1.7-4.15a4.52,4.52,0,0,0-2.08-2.12c-6-3.71-13.06-5.32-19.2-8.79a36.32,36.32,0,0,1-17.7-25.35" transform="translate(-221.55)"/><g class="cls-8"><path class="cls-9" d="M329.48,272.45a32.42,32.42,0,0,0,1.15,7.73c2,8.63,4,17.36,8,25.28,5.21,10.36,13.49,18.82,21.88,26.83,3,2.82,6,5.66,9.78,7.27" transform="translate(-221.55)"/><path class="cls-9" d="M306.95,296c9.41,9.28,22.59,13.64,35.54,16.3" transform="translate(-221.55)"/><path class="cls-9" d="M327.67,324.07c7.25,1.47,21.7,4.75,28,3.5" transform="translate(-221.55)"/></g><path class="cls-11" d="M538.82,197.74l4.71-3.51a29.22,29.22,0,0,0-9-9L531,190a23.08,23.08,0,0,0-6.56-2.72l.85-5.82a28.52,28.52,0,0,0-12.72,0l.85,5.82A23.08,23.08,0,0,0,506.9,190l-3.51-4.71a29.22,29.22,0,0,0-9,9l4.71,3.51a23.09,23.09,0,0,0-2.72,6.56l-5.82-.85a28.52,28.52,0,0,0,0,12.72l5.82-.85a23.09,23.09,0,0,0,2.72,6.56l-4.71,3.51a29.22,29.22,0,0,0,9,9l3.51-4.71a23.08,23.08,0,0,0,6.56,2.72l-.85,5.82a28.52,28.52,0,0,0,12.72,0l-.85-5.82a23.08,23.08,0,0,0,6.56-2.72l3.51,4.71a29.22,29.22,0,0,0,9-9l-4.71-3.51a23.08,23.08,0,0,0,2.72-6.56l5.82.85a28.52,28.52,0,0,0,0-12.72l-5.82.85A23.08,23.08,0,0,0,538.82,197.74ZM519,225.26a15.45,15.45,0,1,1,15.45-15.45A15.45,15.45,0,0,1,519,225.26Z" transform="translate(-221.55)"/><path class="cls-11" d="M354.27,229.75l2-2.84a17.22,17.22,0,0,0-6.71-3.34l-1.08,3.29a13.6,13.6,0,0,0-4.17-.29l-.61-3.41a16.8,16.8,0,0,0-7.11,2.38l1.56,3.09a13.6,13.6,0,0,0-3.16,2.75l-2.84-2a17.21,17.21,0,0,0-3.34,6.71l3.29,1.08a13.6,13.6,0,0,0-.29,4.17l-3.41.61a16.81,16.81,0,0,0,2.38,7.11l3.09-1.56a13.6,13.6,0,0,0,2.75,3.16l-2,2.84a17.22,17.22,0,0,0,6.71,3.34l1.08-3.29a13.6,13.6,0,0,0,4.17.29l.61,3.41a16.8,16.8,0,0,0,7.11-2.38l-1.56-3.09a13.6,13.6,0,0,0,3.16-2.75l2.84,2a17.22,17.22,0,0,0,3.34-6.71l-3.29-1.08a13.6,13.6,0,0,0,.29-4.17l3.41-.61a16.81,16.81,0,0,0-2.38-7.11L357,232.9A13.6,13.6,0,0,0,354.27,229.75Zm-6.07,18.73a8.73,8.73,0,1,1,5.51-11A8.73,8.73,0,0,1,348.2,248.48Z" transform="translate(-221.55)"/><path class="cls-12" d="M128.52,235.58H267.16a9,9,0,0,1,9,9V363.95a0,0,0,0,1,0,0H119.48a0,0,0,0,1,0,0V244.62A9,9,0,0,1,128.52,235.58Z"/><rect class="cls-13" x="130.86" y="328.3" width="52.25" height="25.95" rx="2.08" ry="2.08"/><rect class="cls-13" x="130.86" y="255.27" width="93.42" height="4.65" rx="1.17" ry="1.17"/><rect class="cls-13" x="130.86" y="264.87" width="93.42" height="4.65" rx="1.17" ry="1.17"/><rect class="cls-13" x="130.86" y="274.47" width="93.42" height="4.65" rx="1.17" ry="1.17"/><rect class="cls-13" x="130.86" y="284.08" width="93.42" height="4.65" rx="1.17" ry="1.17"/><rect class="cls-13" x="130.86" y="293.68" width="93.42" height="4.65" rx="1.17" ry="1.17"/><rect class="cls-13" x="130.86" y="303.28" width="93.42" height="4.65" rx="1.17" ry="1.17"/><polygon class="cls-14" points="224.87 348.52 225.8 350.41 227.88 350.71 226.37 352.18 226.73 354.25 224.87 353.27 223.01 354.25 223.36 352.18 221.86 350.71 223.94 350.41 224.87 348.52"/><polygon class="cls-14" points="234.09 348.52 235.02 350.41 237.1 350.71 235.6 352.18 235.95 354.25 234.09 353.27 232.23 354.25 232.59 352.18 231.08 350.71 233.16 350.41 234.09 348.52"/><polygon class="cls-14" points="243.32 348.52 244.25 350.41 246.33 350.71 244.82 352.18 245.18 354.25 243.32 353.27 241.46 354.25 241.81 352.18 240.31 350.71 242.39 350.41 243.32 348.52"/><polygon class="cls-14" points="252.55 348.52 253.48 350.41 255.56 350.71 254.05 352.18 254.41 354.25 252.55 353.27 250.69 354.25 251.04 352.18 249.54 350.71 251.62 350.41 252.55 348.52"/><polygon class="cls-14" points="261.77 348.52 262.7 350.41 264.78 350.71 263.28 352.18 263.63 354.25 261.77 353.27 259.91 354.25 260.27 352.18 258.76 350.71 260.84 350.41 261.77 348.52"/><path class="cls-15" d="M437.7,275a41.76,41.76,0,0,1-17-10.47,41.76,41.76,0,0,1-17,10.47,66.4,66.4,0,0,1-20.55,2.9s0,36.05,12.36,50.58c11.61,13.64,25.23,16,25.23,16s13.62-2.4,25.23-16c12.36-14.52,12.36-50.58,12.36-50.58A66.4,66.4,0,0,1,437.7,275Z" transform="translate(-221.55)"/><path class="cls-16" d="M419.4,338.78a43.86,43.86,0,0,1-21-13.92c-7.64-9-10.25-29.64-10.87-41.51a67.65,67.65,0,0,0,16.56-3,50.25,50.25,0,0,0,15.29-8.24,50.22,50.22,0,0,0,15.29,8.24,67.67,67.67,0,0,0,16.56,3c-.62,11.86-3.22,32.52-10.87,41.51A43.86,43.86,0,0,1,419.4,338.78Z" transform="translate(-221.55)"/><path class="cls-17" d="M419.4,336.93a41.72,41.72,0,0,1-19.61-13.23c-7-8.23-9.6-26.9-10.35-38.69a67.77,67.77,0,0,0,15.24-3,52,52,0,0,0,14.72-7.66A52,52,0,0,0,434.12,282a67.83,67.83,0,0,0,15.23,3c-.75,11.8-3.36,30.48-10.34,38.69A41.73,41.73,0,0,1,419.4,336.93Z" transform="translate(-221.55)"/><circle class="cls-12" cx="197.84" cy="298.07" r="6.31"/><path class="cls-12" d="M419.4,317.71h0a2.66,2.66,0,0,1-2.66-2.66V300.49a2.66,2.66,0,0,1,2.66-2.66h0a2.66,2.66,0,0,1,2.66,2.66V315A2.66,2.66,0,0,1,419.4,317.71Z" transform="translate(-221.55)"/><path class="cls-18" d="M436.45,275a41.76,41.76,0,0,1-17-10.47v80s13.62-2.4,25.23-16C457,314,457,277.91,457,277.91A66.4,66.4,0,0,1,436.45,275Z" transform="translate(-221.55)"/><path class="cls-19" d="M488.72,235.58H350.08a9,9,0,0,0-9,9v4.31H497.76v-4.31A9,9,0,0,0,488.72,235.58Z" transform="translate(-221.55)"/><circle class="cls-12" cx="251.5" cy="242.26" r="1.45"/><circle class="cls-12" cx="258.69" cy="242.26" r="1.45"/><circle class="cls-12" cx="265.89" cy="242.26" r="1.45"/><path class="cls-7" d="M274.8,353.71H238c-7.19,0-6-8.52,14-4.73-4.9-2.24-4.93-5.24-4.52-6A3.12,3.12,0,0,1,250,341.8c2.54.22,4.47,1.78,6.7,3a14.31,14.31,0,0,1-6.37-12.24,5.08,5.08,0,0,1,1.3-3.63,5.38,5.38,0,0,1,4.33-1.39c2.7.54,7.66,5,9.63,7-10.07-9.27-13.91-23.87-7.46-27.2,10.86-5.61,19.06,26.16,19.06,26.16s-5.4-23.87,3.66-24,1.69,27.73,1.69,27.73" transform="translate(-221.55)"/><path class="cls-12" d="M572.35,350.51a16.07,16.07,0,0,0-5.15.85,25,25,0,0,0-50,.74c0,.63,0,1.26.08,1.88a13.82,13.82,0,0,0-25.37,10.19,9.92,9.92,0,1,0-4.82,18.6h85.22a16.12,16.12,0,0,0,0-32.25Z" transform="translate(-221.55)"/><path class="cls-12" d="M271.54,336.51a10.57,10.57,0,0,1,3.39.56,16.43,16.43,0,0,1,32.84.48c0,.42,0,.83-.05,1.23a9.09,9.09,0,0,1,16.68,6.7,6.52,6.52,0,1,1,3.17,12.23h-56a10.6,10.6,0,0,1,0-21.2Z" transform="translate(-221.55)"/><path class="cls-14" d="M497.3,280.42l3.7-1.32a19.53,19.53,0,0,0-4-7.5l-3.16,2.33a15.42,15.42,0,0,0-3.66-3l1.68-3.55a19.06,19.06,0,0,0-8.13-2.48l-.59,3.89a15.43,15.43,0,0,0-4.72.46l-1.32-3.7a19.53,19.53,0,0,0-7.5,4l2.33,3.16a15.42,15.42,0,0,0-3,3.66l-3.55-1.68a19.06,19.06,0,0,0-2.48,8.13l3.89.59a15.43,15.43,0,0,0,.46,4.72l-3.7,1.32a19.52,19.52,0,0,0,4,7.5l3.16-2.33a15.42,15.42,0,0,0,3.66,3l-1.68,3.55a19.06,19.06,0,0,0,8.13,2.48l.59-3.89a15.43,15.43,0,0,0,4.72-.46l1.32,3.7a19.53,19.53,0,0,0,7.5-4l-2.33-3.16a15.43,15.43,0,0,0,3-3.66l3.55,1.68a19.06,19.06,0,0,0,2.48-8.13l-3.89-.59A15.42,15.42,0,0,0,497.3,280.42ZM479.74,292.5a8.61,8.61,0,1,1,10.74-5.72A8.61,8.61,0,0,1,479.74,292.5Z" transform="translate(-221.55)"/><ellipse class="cls-7" cx="266.43" cy="396.45" rx="19.62" ry="2.55"/><path class="cls-20" d="M497.83,389.89s.25,2.71.35,3.4,2.31.59,2.54.22a19.49,19.49,0,0,0,.15-3.56" transform="translate(-221.55)"/><path class="cls-21" d="M501.33,394.08a14.74,14.74,0,0,1-.07,1.91l-2.54.17-.15-.42a4,4,0,0,1-1.44.52l-2.14.14c-1.57.11-2.47,0-2.53-.31-.24-1.14,1.64-1.22,2.12-1.25,1.4-.09,2.88-.85,3.16-1.59.21-.53.09-.66.39-.58a.73.73,0,0,1,.46.35,1.29,1.29,0,0,0,1.37.63,1.54,1.54,0,0,0,.83-.47A.93.93,0,0,1,501.33,394.08Z" transform="translate(-221.55)"/><path class="cls-20" d="M480.51,390.77a20.81,20.81,0,0,0,.12,2.6c.14.68,2.33.46,2.55.07a19.49,19.49,0,0,0-.05-3.57" transform="translate(-221.55)"/><path class="cls-21" d="M483.81,394.11c.06.72.06,2.08.06,2.08l-2.25.54-.29-.38a3.94,3.94,0,0,1-1.32.72,8.83,8.83,0,0,1-2.13.21c-1.86-.12-3.15-.71-3.21-1-.27-1.14,2.21-1,2.71-1a3.26,3.26,0,0,0,2.7-1.9c.2-.54.08-.66.39-.59a.75.75,0,0,1,.48.34,1.34,1.34,0,0,0,1.43.61,1.61,1.61,0,0,0,.85-.49A.93.93,0,0,1,483.81,394.11Z" transform="translate(-221.55)"/><path class="cls-22" d="M494.05,314.25c.22-.26.36,2.79,3.43,4.34s8.07.71,9.66.08c2.5-1,1.67-17.09-1.25-22.27-.68-1.21-3.34-1.81-5-2.15-.46,4.37,1.22,15,3.69,19.52C504.48,314.6,494.05,314.25,494.05,314.25Z" transform="translate(-221.55)"/><path class="cls-23" d="M506.11,315c.73-1-.36-12.2-.3-13.93l-3.44,6.25c.61,2.56-1.95,7.06-5,7l-.44.62C498.72,315.35,505.38,316,506.11,315Z" transform="translate(-221.55)"/><path class="cls-24" d="M492.49,356.55a84.77,84.77,0,0,0,1.09,10.82c.47,2.4,5.9,1,5.77-1.17-.19-3,1.15-8.54,2.35-22.91.17-2.17,1.15-2.42,1.8-6.9s-1.84-9.14-1.84-9.14l-9.28-.6-.13,13,0,4.41S492.17,350.17,492.49,356.55Z" transform="translate(-221.55)"/><path class="cls-24" d="M499.33,365.7a19.57,19.57,0,0,1,2,6.44c.38,4.6-.09,19.73-.09,19.73a9.87,9.87,0,0,1-3.64.14s-4.29-25.25-4.5-28.14S499.33,365.7,499.33,365.7Z" transform="translate(-221.55)"/><path class="cls-25" d="M492.49,356.55a80.87,80.87,0,0,1,3-8.47c1.5-3.2,2.38-5.12,2.38-5.12,5.31-5.58.57-12.26.57-12.26s-2.65,3.58-3,4-2,3.39-3.29,5.05l0,4.41S492.17,350.17,492.49,356.55Z" transform="translate(-221.55)"/><path class="cls-24" d="M484.82,367.18c-.21-3.38,2.23-7.52,2.23-7.52s-7.08-5.43-7.19-6.69c0,0-1,7.95-1.37,10.4-.63,4.26,1.5,28.55,1.5,28.55a8.75,8.75,0,0,0,3.59,0,100.77,100.77,0,0,1,1.92-15.74C486.21,373.23,485.07,368,484.82,367.18Z" transform="translate(-221.55)"/><path class="cls-24" d="M485.41,327.24c-2.77,6.17-5.77,26.08-6.49,33-.31,2.91,2.12,7.33,4.95,4.69,3.37-3.15,8.12-18.56,9.82-21.1s8-4.88,3.71-17.79" transform="translate(-221.55)"/><path class="cls-20" d="M498.76,292.6a11.91,11.91,0,0,1-.42-4.44c.33-1.88,1.46-5.28,1-7.82s-3.63-4.66-7-4.33-4.38,3.58-4.95,5.47a19.44,19.44,0,0,0-.33,6.31,4.37,4.37,0,0,0,1.55,3.11c.57.33,2.69-.11,3.07.3a10.12,10.12,0,0,1,.66,2.81" transform="translate(-221.55)"/><path class="cls-23" d="M500.26,294.75a4.53,4.53,0,0,0-.55-2.06c-.48-.56-3.94-.82-5-.75a15.27,15.27,0,0,0-4.06,1.42c-.36.25.21,1.72.21,1.72Z" transform="translate(-221.55)"/><path class="cls-21" d="M498.61,289.39s-4.63.13-5.61,0a3.45,3.45,0,0,1-3.08-2.82c1.13,0,1.22-2.39.61-3.29s-1.39-.35-1.49.5,0,.58-.23.69-.72.13-.61-1.51a6.17,6.17,0,0,1,.62-2.72c.42-.94.65-.89,1-1.06a2.93,2.93,0,0,1-1.67-1.5c-.94-1.47-.82-3,.94-4.49a2,2,0,0,0,1.59,1.45c2,.56,5.76.09,7.56,1.15.77.45,1.45,1.45,1.08,2.23,0,0,1.49-.23,1.58,2.71.18,6-1.84,6.5-2,7.42S499.09,289.18,498.61,289.39Z" transform="translate(-221.55)"/><path class="cls-22" d="M485.41,327.24c.44.16.83.42,1.29.56a8.85,8.85,0,0,0,3.34,0c1.15-.1,2.29-.21,3.44-.3,6-.26,8,1.18,9-.27a1.67,1.67,0,0,0,.21-1.23c-.21-1.32-.64-1.77-.47-3.1.15-1.11.35-2.44.64-4,1-5.25,2.95-13.27,3.21-18.09.38-6.9-6.63-6.84-6.63-6.84-10.3-.64-14.14,2.32-14.7,6.75,0,.31-.07.65-.09,1-.26,4.57,1,14,1.69,19.51C486.55,322.85,484.53,326.92,485.41,327.24Z" transform="translate(-221.55)"/><path class="cls-23" d="M485,327.65c.43.37,1.7.48,3.47.33-1.59.12-3.24-.88-2.88-1.69a13.75,13.75,0,0,0,1.45-4.09c.42-5.55.31-21.27.53-21-.25.49-1,1.19-2.95,1.65,0,4.59.81,12.72,1.12,17.86S483.39,326.23,485,327.65Z" transform="translate(-221.55)"/><path class="cls-20" d="M463.78,288.18c0-.27.37-.14.46.08a1.53,1.53,0,0,1,0,.19c0-.44-.06-.8,0-.89,0-.25.34-.16.45,0,0-.18,0-.31,0-.37,0-.33.38-.19.47.08a3.89,3.89,0,0,1,.08.45,2.23,2.23,0,0,1,0-.25c0-.27.34-.2.43,0a3.41,3.41,0,0,1,.1.52c0,.27.12.56.16.83s.34,1.4.91,1.51c.88.18.3-1.34.92-1.7.19-.11.42,1.07.44,1.74a7.44,7.44,0,0,1,0,1.4,9.41,9.41,0,0,0-.23,1.2,5.78,5.78,0,0,0,.3.87l-2,.84a5.15,5.15,0,0,0-.54-1.49,5.6,5.6,0,0,1-1.62-2.37,9.83,9.83,0,0,1-.28-1.79S463.77,288.27,463.78,288.18Z" transform="translate(-221.55)"/><path class="cls-22" d="M465.86,294.29s.68,4,1.36,7.14a30.9,30.9,0,0,0,2.37,7.31s0,0,0,.06c.67,1.45,2.32,3.6,3.11,4,3.86,1.78,12.64-8.57,14.67-7.92,4.16,1.11,7.26-10.79,7.26-10.79a52.67,52.67,0,0,0-7.86.7c-3.15.67-11.56,11.19-12,11.21s-1.13-1.55-2.06-3.34c-2.1-4-4.43-9.07-4.43-9.07l-1.94.59Z" transform="translate(-221.55)"/><path class="cls-20" d="M487.12,282.82s-1.47,2.2-1.29,2.67,1.59.44,1.59.44" transform="translate(-221.55)"/><path class="cls-26" d="M303.86,308.63c1.88,2.25,3.41,7.56,5.33,9.77a72,72,0,0,0,12.29,9.49c.21-1.37,3.1-.52,2.07-1.44-3.2-2.88-8.72-5.81-10.6-11.09-1.24-3.47-5.82-11.19-5.82-11.19" transform="translate(-221.55)"/><path class="cls-27" d="M342.71,324H308.84V303.28a2.93,2.93,0,0,1,2.93-2.93h12.77a1.37,1.37,0,0,1,.88.32l3.1,2.62a1.45,1.45,0,0,0,.94.34h10.32a2.93,2.93,0,0,1,2.93,2.93Z" transform="translate(-221.55)"/><rect class="cls-12" x="89.47" y="304.75" width="29.94" height="16.33" rx="1.74" ry="1.74"/><rect class="cls-28" x="87.29" y="308.06" width="33.87" height="21.44" rx="3.27" ry="3.27"/><path class="cls-29" d="M330.67,315.69H330v-1.41a4.23,4.23,0,0,0-8.46,0v1.41h-.66a.82.82,0,0,0-.82.82v6.6a2.45,2.45,0,0,0,2.45,2.45H329a2.45,2.45,0,0,0,2.45-2.45v-6.6A.82.82,0,0,0,330.67,315.69Zm-7.57-1.41a2.68,2.68,0,1,1,5.35,0v1.41H323.1Z" transform="translate(-221.55)"/><path class="cls-12" d="M327.26,319.06a1.48,1.48,0,1,0-2.11,1.34V323a.62.62,0,1,0,1.25,0v-2.65A1.48,1.48,0,0,0,327.26,319.06Z" transform="translate(-221.55)"/><ellipse class="cls-7" cx="78.97" cy="393.17" rx="21.71" ry="2.82"/><path class="cls-30" d="M300,327.9l-8.6-7.06s-3.88,5.42-2.32,10.58a47.74,47.74,0,0,0,2.12,5c.39,1.12,3.17,17.07,3,18.24s-1.5,4.46-2,7.9c-.57,4.14-.28,17.61-.72,21.19s2.87,4.14,3,2.93c1.41-10.35,5.28-26.5,5.78-31.67S300.42,340.38,300,327.9Z" transform="translate(-221.55)"/><path class="cls-26" d="M300.14,338.08l-3.58,8.54a19,19,0,0,1,2.7,8.86c.08,1.64,0,3.28,0,4.92a1.63,1.63,0,0,0,.05.36c.46-2.43.8-4.44.93-5.75a155.85,155.85,0,0,0,0-16.93Z" transform="translate(-221.55)"/><path class="cls-30" d="M295,383.35s-.74,3.76-.52,4.23a6.57,6.57,0,0,0,1.8,2.34c.83.52,2.66,1.12,2.81,1.34a.57.57,0,0,1-.09.77,3.78,3.78,0,0,1-2.59.69c-2.48-.37-2.75-1.46-4.19-1.62-.25,0-.7.35-1.4,0a1.64,1.64,0,0,1-1-1.57,7.08,7.08,0,0,1,1.06-2.66,21.55,21.55,0,0,0,.64-4.27" transform="translate(-221.55)"/><path class="cls-31" d="M299.21,392.21c.18-.31.22-.78,0-.89a14.47,14.47,0,0,0-1.55-.9c-.48-.21-1.25-.4-1-.26s-.22.69-.66.67c-1.55-.07-2.71-1.09-3.59-1.3a3,3,0,0,1-1.89-2,5.94,5.94,0,0,0-.89,1.76,3.05,3.05,0,0,0-.17,1.33,3.1,3.1,0,0,1,.16,1.27,2.43,2.43,0,0,0,.92.32,3.61,3.61,0,0,0,1,0l.1-.8a3.62,3.62,0,0,1,.79.07,4.27,4.27,0,0,1,1.21.55c.18.21.33.59.56.71a4.94,4.94,0,0,0,2,.48C297.95,393.23,298.91,392.74,299.21,392.21Z" transform="translate(-221.55)"/><path class="cls-30" d="M311.81,391.54c-.18-.2-2.15-.52-3.08-.91a5.31,5.31,0,0,1-2.15-2.05,22.17,22.17,0,0,1-.13-4.11c.18-7.35,1.54-25.33,1.74-29.63.34-7.48-.63-15.2-3.51-27.21L294,319.4s-3,5.58-2,10.91c.58,3.1,3.15,3.57,3.58,4.77s6.92,20.6,6.92,20.6a36.5,36.5,0,0,0-1.33,8.79c-.06,3.92,1.72,15.75,2,20.26a14.81,14.81,0,0,1-.07,3.66c-.32.82-1.13,1.79-1.09,2.83a1.6,1.6,0,0,0,1.22,1.41c.76.24,1.18-.2,1.44-.21,1.51-.06,1.93,1,4.54,1a4.13,4.13,0,0,0,2.59-1.08A.55.55,0,0,0,311.81,391.54Z" transform="translate(-221.55)"/><path class="cls-31" d="M312,392.46c.14-.33.12-.8-.07-.89a14.93,14.93,0,0,0-1.72-.66c-.53-.14-1.34-.21-1-.11s-.14.71-.6.76c-1.61.16-2.94-.67-3.88-.75a2.48,2.48,0,0,1-2-1.74,6.24,6.24,0,0,0-1,1.87,2.94,2.94,0,0,0,0,1.35,3,3,0,0,1,.33,1.23,2.57,2.57,0,0,0,1,.18,4,4,0,0,0,1-.15v-.81a3.94,3.94,0,0,1,.82-.05,2.73,2.73,0,0,1,1.33.47c.22.17.45.45.72.51a5.47,5.47,0,0,0,2.12.16C310.86,393.67,311.79,393,312,392.46Z" transform="translate(-221.55)"/><path class="cls-24" d="M291.76,320.27a12.36,12.36,0,0,0-3.52,11.37c.26,1.19,1.76,4.38,2,5.57.66,2.69,1.88,6.64,2.1,9.76,4.23,2.55,12.31,1.6,15.79-.87a68,68,0,0,0-1-12c-1.11-7.83-2.43-9.6-3.59-12.73-.14-.55-.14-1.67-.27-2.32" transform="translate(-221.55)"/><path class="cls-22" d="M303.22,294.61c.67.22.42,1.83,1.09,2,.49.16,1.44-.05,1.89.2,2.37,1.34,1.76,4,2,7.31,1,2.54,1.27,4.83.47,6.25-1,1.76-2,2.25-3.26,3.71-.91,1.09-1.21,3.33-1.4,5.74,0,.41.31,1.14.21,1.54-.19.77-1.37,1-2.68,1-3,.06-7.59-1-8.93-1s-2.46-.57-2.34-1.32c.09-.52.61-.74.82-1.75.46-2.22.8-7.78,1.16-9.67.91-4.83,1.57-8.42,3.55-12.87" transform="translate(-221.55)"/><path class="cls-23" d="M310.07,306.19a22.57,22.57,0,0,0-2.74-3.58l-2.58,1.16c1.21,2.32,1.43,5.06,2,7.6a6,6,0,0,0,1.49-.15c.25-.41.16-.2.49-.8A10.42,10.42,0,0,0,310.07,306.19Z" transform="translate(-221.55)"/><path class="cls-30" d="M311.83,288.09a12.86,12.86,0,0,0,.44-3.33c-.07-1.91-.32-4.69-3.5-5.83s-6.69-.46-7.74,1.84-.8,5.77-1,7.63a11.46,11.46,0,0,1-1.51,4.08l6.85,3A13,13,0,0,1,307,292.7c.46-.29.62.87,2.15.74.65-.05,1.34-1.22,1.86-2.65l0-.14a7.16,7.16,0,0,0,.82-.07c.47-.14.44-.35.33-.65A7.77,7.77,0,0,1,311.83,288.09Z" transform="translate(-221.55)"/><path class="cls-30" d="M321.31,327.34a3.67,3.67,0,0,0,1.89,2.3,1.22,1.22,0,0,0,.8,0c.37.17,1.56.3,1.11-.4a3.37,3.37,0,0,0,2.56.55c.32,0,.31-.39-.39-.58a3.5,3.5,0,0,1-2.17-1.83c.15-.11.26.09.66.16s.67-.13.68-.32-.51-.31-.63-.39l-1.31-.86a2.5,2.5,0,0,0-1.38-.5c-.1,0-1,0-.8.39" transform="translate(-221.55)"/><path class="cls-30" d="M305.87,305.39c1.14,2.35,4.12,10.13,4.58,11,1.82,3.53,11.17,11.2,11.17,11.2a1.9,1.9,0,0,0,1.58-1.85c-2.68-1.86-7.7-9.82-8.74-10.78-.67-.62-3.71-12.92-3.71-12.92" transform="translate(-221.55)"/><path class="cls-22" d="M308.42,296.72c-2.6-1-5.09-1-7.09-3-2,1.56,2.44,10.56,3.55,10.8s2.6,5.22,2.88,5.89c3.61-.1,4.92-2.06,4.92-2.06C311.21,303.84,310.95,297.69,308.42,296.72Z" transform="translate(-221.55)"/><path class="cls-21" d="M306.33,297c-.18-.68-.69-1.22-.81-1.91a3.11,3.11,0,0,1,.38-2.05,3.76,3.76,0,0,1,.89-.84c1.43-1.13,1.93-2.06,1.45-3.75a4.6,4.6,0,0,1-.24-1.7c.05-.52.16-1.06.71-1.12.39,0,.64,0,.77.38s-.09,1.87.45.94a3.79,3.79,0,0,0,1-3c0-.24-.09-1.23.06-1.38a3.91,3.91,0,0,1,1.34,2.75,2,2,0,0,0,.92-1.73,4.57,4.57,0,0,0-.38-2.05,6,6,0,0,0-3.68-3.63,8.27,8.27,0,0,0-3.38-.9c-1.17,0-2.62.38-3,1.26-1.62-.42-2.55,1-2.94,1.51a8.26,8.26,0,0,0-1.25,2.42c-.41,1.28-.51,2.65-.84,4a5.77,5.77,0,0,1-1.55,2.91c-.79.72-1.9.78-2.76,1.44a4.33,4.33,0,0,0-1.64,3.6c.06,1.37.77,2.86-.06,4.12-.27.41-.65.74-.91,1.15a3.13,3.13,0,0,0,.06,3.23,5.73,5.73,0,0,0,2.8,2.39,8.21,8.21,0,0,0,3,.42c2-.11,3.64,0,5.72-1.78,1.18-1,.43-1.59,1.56-2.66.64-.6,1.54-.92,2-1.7a3,3,0,0,0,.3-2.19Z" transform="translate(-221.55)"/><path class="cls-12" d="M477.21,442.89h-1.66a2.5,2.5,0,0,0,0,5h1.66a2.5,2.5,0,0,0,0-5Z" transform="translate(-221.55)"/><path class="cls-12" d="M528,201.38c-8.3,0-13.74,8.41-13.74,8.41s5.44,8.41,13.74,8.41,13.74-8.41,13.74-8.41S536.27,201.38,528,201.38Z" transform="translate(-221.55)"/><path class="cls-32" d="M528,219.09c-8.69,0-14.25-8.46-14.49-8.82l-.31-.48.31-.48c.23-.36,5.8-8.82,14.49-8.82s14.25,8.46,14.49,8.82l.31.48-.31.48C542.22,210.64,536.65,219.09,528,219.09Zm-12.66-9.3c1.28,1.73,6.06,7.53,12.66,7.53s11.38-5.8,12.66-7.53c-1.28-1.73-6.06-7.53-12.66-7.53S516.58,208.07,515.3,209.8Z" transform="translate(-221.55)"/><circle class="cls-33" cx="306.41" cy="209.8" r="5.26"/><circle class="cls-12" cx="304.66" cy="208.21" r="2.11"/><path class="cls-34" d="M294.25,237.94H270.91a1.65,1.65,0,0,0-1.65,1.65V254.8a1.65,1.65,0,0,0,1.65,1.65H273l5.29,3.47-.67-3.47h16.6a1.65,1.65,0,0,0,1.65-1.65V239.59A1.65,1.65,0,0,0,294.25,237.94Z" transform="translate(-221.55)"/><circle class="cls-12" cx="61.02" cy="252.26" r="1.95"/><g class="cls-35"><path class="cls-12" d="M282.58,258.9a6.64,6.64,0,1,1,6.65-6.64A6.65,6.65,0,0,1,282.58,258.9Zm0-11.44a4.8,4.8,0,1,0,4.8,4.79A4.8,4.8,0,0,0,282.58,247.46Z" transform="translate(-221.55)"/><path class="cls-12" d="M282.58,263.29a11,11,0,1,1,11-11A11,11,0,0,1,282.58,263.29Zm0-20.21a9.18,9.18,0,1,0,9.18,9.18A9.19,9.19,0,0,0,282.58,243.08Z" transform="translate(-221.55)"/></g><rect class="cls-36" x="150.68" y="190.95" width="32.3" height="22.44" rx="2" ry="2"/><polyline class="cls-36" points="172.91 212.88 172 217.6 179.2 212.88"/><path class="cls-12" d="M388.76,209.81a7.38,7.38,0,1,1,7.38-7.38A7.38,7.38,0,0,1,388.76,209.81Zm0-14a6.63,6.63,0,1,0,6.63,6.63A6.63,6.63,0,0,0,388.76,195.8Z" transform="translate(-221.55)"/><path class="cls-12" d="M388.76,209.81c-1.85,0-3.3-3.24-3.3-7.38s1.45-7.38,3.3-7.38,3.3,3.24,3.3,7.38S390.62,209.81,388.76,209.81Zm0-14c-1.21,0-2.55,2.72-2.55,6.63s1.34,6.63,2.55,6.63,2.55-2.72,2.55-6.63S390,195.8,388.76,195.8Z" transform="translate(-221.55)"/><rect class="cls-12" x="160.21" y="202.06" width="14" height="0.75"/><path class="cls-12" d="M388.76,199.69c-4.06,0-5.49-1.43-5.55-1.49l.54-.52-.27.26.27-.26s1.31,1.26,5,1.26,5-1.25,5-1.26l.54.52C394.26,198.26,392.83,199.69,388.76,199.69Z" transform="translate(-221.55)"/><path class="cls-12" d="M383.75,207.18l-.54-.52c.06-.06,1.49-1.49,5.55-1.49s5.49,1.43,5.55,1.49l-.54.52s-1.31-1.26-5-1.26S383.76,207.17,383.75,207.18Z" transform="translate(-221.55)"/><rect class="cls-37" x="235.94" y="155.03" width="51.53" height="35.8" rx="3.19" ry="3.19"/><polyline class="cls-38" points="271.4 190 269.94 197.55 281.42 190"/><path class="cls-12" d="M491.47,181.43a9.16,9.16,0,1,1,9.17-9.16A9.17,9.17,0,0,1,491.47,181.43Zm0-14.4a5.24,5.24,0,1,0,5.24,5.24A5.24,5.24,0,0,0,491.47,167Z" transform="translate(-221.55)"/><polygon class="cls-12" points="248.26 178.33 244.33 178.33 244.33 170.3 262.72 170.3 262.72 174.23 248.26 174.23 248.26 178.33"/><rect class="cls-12" x="250.42" y="172.27" width="3.93" height="4.58"/></g></g></g></svg>