<svg xmlns="http://www.w3.org/2000/svg" xmlns:xlink="http://www.w3.org/1999/xlink" viewBox="0 0 499.74 447.89"><defs><style>.cls-1,.cls-9{fill:none;}.cls-2{isolation:isolate;}.cls-3{clip-path:url(#clip-path);}.cls-4,.cls-5{fill:#d9e8ff;}.cls-13,.cls-5{opacity:0.55;}.cls-18,.cls-5{mix-blend-mode:multiply;}.cls-11,.cls-6{fill:#b3c9ff;}.cls-6{opacity:0.5;}.cls-7{fill:#acc9f9;}.cls-18,.cls-8{opacity:0.25;}.cls-9{stroke:#fff;stroke-linecap:round;stroke-linejoin:round;}.cls-10{fill:#bdd0ff;}.cls-12{fill:#fff;}.cls-13,.cls-14{fill:#dbe0fe;}.cls-15{fill:url(#linear-gradient);}.cls-16{fill:#d62984;opacity:0.75;}.cls-17{fill:url(#linear-gradient-2);}.cls-18{fill:#5890f4;}.cls-19{fill:url(#linear-gradient-3);}.cls-20{fill:#ffccb0;}.cls-21{fill:#7c3327;}.cls-22{fill:#f4713d;}.cls-23{fill:#e25833;}.cls-24{fill:#30334c;}.cls-25{fill:#262a3f;}.cls-26{fill:#db856e;}.cls-27{fill:#37f;}.cls-28{fill:#6490ff;}.cls-29{fill:#2660ef;}.cls-30{fill:#ed9c80;}.cls-31{fill:#222b70;}.cls-32{fill:url(#linear-gradient-4);}.cls-33{fill:url(#linear-gradient-5);}.cls-34{fill:url(#linear-gradient-6);}.cls-35{clip-path:url(#clip-path-2);}.cls-36{fill:#bdd5ff;}.cls-37{fill:url(#linear-gradient-7);}.cls-38{fill:url(#linear-gradient-8);}</style><clipPath id="clip-path"><rect class="cls-1" x="125.04" y="81.26" width="596.26" height="381.69"/></clipPath><linearGradient id="linear-gradient" x1="104.2" y1="304.53" x2="179.39" y2="304.53" gradientTransform="matrix(-1, 0, 0, 1, 442.44, 0)" gradientUnits="userSpaceOnUse"><stop offset="0" stop-color="#f84e49"/><stop offset="1" stop-color="#ef3598"/></linearGradient><linearGradient id="linear-gradient-2" x1="110.59" y1="305.64" x2="170.51" y2="305.64" xlink:href="#linear-gradient"/><linearGradient id="linear-gradient-3" x1="62.19" y1="242.26" x2="218.91" y2="242.26" xlink:href="#linear-gradient"/><linearGradient id="linear-gradient-4" x1="234.32" y1="209.8" x2="263.91" y2="209.8" xlink:href="#linear-gradient"/><linearGradient id="linear-gradient-5" x1="243.85" y1="209.8" x2="254.38" y2="209.8" xlink:href="#linear-gradient"/><linearGradient id="linear-gradient-6" x1="-9.59" y1="248.93" x2="17.04" y2="248.93" xlink:href="#linear-gradient"/><clipPath id="clip-path-2"><polyline class="cls-1" points="438.72 252.26 423.72 238 438.72 238 453.71 238 438.72 252.26"/></clipPath><linearGradient id="linear-gradient-7" x1="178.65" y1="172.93" x2="230.17" y2="172.93" gradientTransform="matrix(1, 0, 0, -1, 33.63, 345.86)" xlink:href="#linear-gradient"/><linearGradient id="linear-gradient-8" x1="212.64" y1="193.78" x2="224.13" y2="193.78" xlink:href="#linear-gradient"/></defs><title>Asset 3</title><g class="cls-2"><g id="Layer_2" data-name="Layer 2"><g id="OBJECTS"><g class="cls-3"><path class="cls-4" d="M172.33,24.77c69,15.87,90.3,74,97.07,102,5.24,21.74,17.65,42.07,36.55,55.55,22.08,15.75,50.88,19.2,76.16,27.37,22.48,7.27,47.33,19.94,55.58,43.71,5.76,16.59,6.74,51.1,33.13,66.79,8.88,5.28,24.75,10.27,27.93,21.73,3.35,12.06-1.59,22.79-17.86,27.85-15.21,4.73-38.09-2.18-68.38,0-25.54,1.84-27.93,26.65-46.23,39.56-22.39,15.81-53.64,4.19-78.88,11.41-18.29,5.23-34.53,15.89-53.12,19.92-26.95,5.85-55.1,4-82-.84-32.29-5.77-89.75-29.64-117-83.52-19-20-68.68-262.39,0-327.31,19.84-18.75,88-34.9,114.16-27"/></g><ellipse class="cls-5" cx="431.95" cy="356.07" rx="50.81" ry="4.68"/><ellipse class="cls-5" cx="300.46" cy="363.93" rx="93.16" ry="4.68"/><ellipse class="cls-5" cx="190.36" cy="382.61" rx="59.2" ry="4.68"/><ellipse class="cls-5" cx="261.4" cy="377.98" rx="11.84" ry="2.48"/><path class="cls-6" d="M238.94,241.88a16.42,16.42,0,0,0,1.5,4.82l-5.06,3.1a22.56,22.56,0,0,0,6.12,7.34l4-4.42a16.42,16.42,0,0,0,4.47,2.35l-1.39,5.77a22.43,22.43,0,0,0,9.52.86l-.32-5.93a16.42,16.42,0,0,0,4.82-1.5l3.1,5.06a22.56,22.56,0,0,0,7.34-6.12l-4.42-4a16.42,16.42,0,0,0,2.35-4.47l5.77,1.39a22.43,22.43,0,0,0,.86-9.52l-5.93.32a16.42,16.42,0,0,0-1.5-4.82l5.06-3.1a22.56,22.56,0,0,0-6.12-7.34l-4,4.42a16.42,16.42,0,0,0-4.47-2.35L262,218a22.44,22.44,0,0,0-9.52-.86l.32,5.93a16.42,16.42,0,0,0-4.82,1.5l-3.1-5.06a22.56,22.56,0,0,0-7.34,6.12l4.42,4a16.42,16.42,0,0,0-2.35,4.47l-5.77-1.39a22.43,22.43,0,0,0-.86,9.52Zm7.22-3.28a9.17,9.17,0,1,1,8.3,10A9.17,9.17,0,0,1,246.16,238.6Z"/><path class="cls-6" d="M273.39,204.26a9.74,9.74,0,0,0,.89,2.86l-3,1.84a13.39,13.39,0,0,0,3.63,4.36l2.35-2.62a9.74,9.74,0,0,0,2.65,1.39l-.82,3.43a13.32,13.32,0,0,0,5.65.51l-.19-3.52a9.75,9.75,0,0,0,2.86-.89l1.84,3a13.39,13.39,0,0,0,4.36-3.63L291,208.64a9.75,9.75,0,0,0,1.39-2.65l3.43.82a13.32,13.32,0,0,0,.51-5.65l-3.52.19a9.75,9.75,0,0,0-.89-2.86l3-1.84a13.39,13.39,0,0,0-3.63-4.36l-2.35,2.62a9.75,9.75,0,0,0-2.65-1.39l.82-3.43a13.32,13.32,0,0,0-5.65-.51l.19,3.52a9.75,9.75,0,0,0-2.86.89l-1.84-3a13.39,13.39,0,0,0-4.36,3.63l2.62,2.35a9.75,9.75,0,0,0-1.39,2.65l-3.43-.82a13.32,13.32,0,0,0-.51,5.65Zm4.29-1.95a5.44,5.44,0,1,1,4.93,5.91A5.44,5.44,0,0,1,277.68,202.31Z"/><path class="cls-7" d="M228.81,318.82c-2.81-3.52-5.7-7.21-6.61-11.61-.84-4.08-2-8.55-1.9-12.72a33.74,33.74,0,0,0-2-12.27c-4.32-12.34-9.47-10.31-11.3-9.12s-2.44,3.36-2.14,6.72c.24,2.7,3.66,15.07-.67,13.7-5-1.58-6.47-14.74-7.76-19-1.92-6.42-5.47-13.09-11-17-2.75-1.94-6.59-3.13-9.4-1.29a7.78,7.78,0,0,0-3,5c-1.24,5.94,1.47,11.61,4.36,16.63C178.52,280,187.4,289.25,181,289c-1.53-.05-15.26-8.3-15.22,2,0,3.63,4.47,6.8,11.39,10.6,4.32,2.37,19.92,8,19.68,12.08s-9.17-1.26-7.29,6c1.05,4.06,6.84,6.36,10.71,7.46,1.84.52,3.78.68,5.58,1.32,2.14.76,4.91,2.91,3.67,5.48-.54,1.13-1.78,1.81-2.28,3a3.56,3.56,0,0,0,.67,3.56,8.24,8.24,0,0,0,3.1,2.15c7.4,3.37,16.11,3,23.83.43s14.62-7.11,21.14-12"/><g class="cls-8"><path class="cls-9" d="M180.74,262.59s13.68,42.08,43.18,65.71"/><path class="cls-9" d="M172.33,292.49s16,9.59,28.26,9.74"/><path class="cls-9" d="M209.88,278.21c1.61,6.68,4.56,25.53-.72,35.46"/><path class="cls-9" d="M195.11,320.45s6.36,4.25,24.37,4.06"/><path class="cls-9" d="M210.86,337.68s9.37.47,16.93-5.34"/></g><path class="cls-10" d="M171,345.48c3.26-11.22.84-23.31-3-34.34-.92-2.65-2-5.36-4-7.35a4.45,4.45,0,0,0-3.82-1.57c-2.06.42-2.93,2.88-3.17,5-1.47,13.22,7.24,25.34,9.45,38.46"/><path class="cls-10" d="M180.27,339.84a34.41,34.41,0,0,1,3.11-9.64,17.05,17.05,0,0,1,6.9-7.26c1.33-.7,3.11-1.12,4.23-.12s.84,3.12.11,4.6c-4,8.12-14.23,11.76-18.11,19.94"/><path class="cls-10" d="M175.55,346.47a70.76,70.76,0,0,0,6.39-14.76c1.4-5.19,1.7-10.8-.05-15.88-.54-1.57-1.88-3.36-3.45-2.82a3.14,3.14,0,0,0-1.37,1.17c-2.92,3.84-4,8.75-4.57,13.54s-.54,9.66-1.6,14.37a4,4,0,0,1-.85,2,1.51,1.51,0,0,1-1.94.3,2.05,2.05,0,0,1-.6-1c-.67-2.1-11.07-23.7-20.5-25.21a7.16,7.16,0,0,0-2.31-.08c-11.82,2,14.81,26.66,15,30.34-9.63-8.26-11.67-9.78-16.06-10.57-3.38-.61-9.27,2.39-7.33,6.52,1.34,2.86,4.68,4.14,7.78,4.75,3.38.67,6.86.89,10.17,1.83s6.58,2.76,8.27,5.76"/><path class="cls-7" d="M378.19,296c9.51-5,3.91-14.25,5.32-20.28,2.32-9.93,5-11.92,10.39-10,2.66.95,4.14,4.81,4.73,7.31.94,4,.23,8.09-.31,12.07-.47,3.43-2.51,10.86,1.59,12.17s4.73-4.12,9.7-8.06c2.23-1.77,8.26-2.51,9.59,1.88,2.37,7.81-1.31,11.53-19.79,21.88-3.15,1.76-10,3.62-9.57,5.39s5.2-.35,8.76.86c5.74,2,3.15,5.57,1.13,6.74-16.07,9.28-29.12,5.2-35.4,8.1-2.73,1.26-4.54,3.88-6.68,6-4.73,4.69-6.51,3.86-13.17,3.69A16.8,16.8,0,0,1,333.67,340c-1.19-1.06-2.23-2.65-1.7-4.15a4.52,4.52,0,0,1,2.08-2.12c6-3.71,13.06-5.32,19.2-8.79a36.32,36.32,0,0,0,17.7-25.35"/><g class="cls-8"><path class="cls-9" d="M391.81,272.45a32.42,32.42,0,0,1-1.15,7.73c-2,8.63-4,17.36-8,25.28-5.21,10.36-13.49,18.82-21.88,26.83-3,2.82-6,5.66-9.78,7.27"/><path class="cls-9" d="M414.35,296c-9.41,9.28-22.59,13.64-35.54,16.3"/><path class="cls-9" d="M393.63,324.07c-7.25,1.47-21.7,4.75-28,3.5"/></g><path class="cls-11" d="M179.76,204.3l-5.82-.85a28.52,28.52,0,0,0,0,12.72l5.82-.85a23.08,23.08,0,0,0,2.72,6.56l-4.71,3.51a29.22,29.22,0,0,0,9,9l3.51-4.71a23.08,23.08,0,0,0,6.56,2.72L196,238.2a28.52,28.52,0,0,0,12.72,0l-.85-5.82a23.08,23.08,0,0,0,6.56-2.72l3.51,4.71a29.22,29.22,0,0,0,9-9l-4.71-3.51a23.09,23.09,0,0,0,2.72-6.56l5.82.85a28.52,28.52,0,0,0,0-12.72l-5.82.85a23.09,23.09,0,0,0-2.72-6.56l4.71-3.51a29.22,29.22,0,0,0-9-9L214.4,190a23.08,23.08,0,0,0-6.56-2.72l.85-5.82a28.52,28.52,0,0,0-12.72,0l.85,5.82a23.08,23.08,0,0,0-6.56,2.72l-3.51-4.71a29.22,29.22,0,0,0-9,9l4.71,3.51A23.08,23.08,0,0,0,179.76,204.3Zm7.12,5.51a15.45,15.45,0,1,1,15.45,15.45A15.45,15.45,0,0,1,186.88,209.81Z"/><path class="cls-11" d="M364.28,232.9l-3.09-1.56a16.81,16.81,0,0,0-2.38,7.11l3.41.61a13.6,13.6,0,0,0,.29,4.17l-3.29,1.08a17.22,17.22,0,0,0,3.34,6.71l2.84-2a13.6,13.6,0,0,0,3.16,2.75L367,254.87a16.8,16.8,0,0,0,7.11,2.38l.61-3.41a13.6,13.6,0,0,0,4.17-.29l1.08,3.29a17.22,17.22,0,0,0,6.71-3.34l-2-2.84a13.6,13.6,0,0,0,2.75-3.16l3.09,1.56a16.81,16.81,0,0,0,2.38-7.11l-3.41-.61a13.6,13.6,0,0,0-.29-4.17l3.29-1.08a17.21,17.21,0,0,0-3.34-6.71l-2.84,2a13.6,13.6,0,0,0-3.16-2.75l1.56-3.09a16.8,16.8,0,0,0-7.11-2.38l-.61,3.41a13.6,13.6,0,0,0-4.17.29l-1.08-3.29a17.22,17.22,0,0,0-6.71,3.34l2,2.84A13.6,13.6,0,0,0,364.28,232.9Zm3.31,4.53a8.73,8.73,0,1,1,5.51,11A8.73,8.73,0,0,1,367.59,237.43Z"/><path class="cls-12" d="M223.54,235.58H380.25a0,0,0,0,1,0,0V354.9a9,9,0,0,1-9,9H232.58a9,9,0,0,1-9-9V235.58a0,0,0,0,1,0,0Z" transform="translate(603.79 599.53) rotate(-180)"/><rect class="cls-13" x="316.63" y="328.3" width="52.25" height="25.95" rx="2.08" ry="2.08" transform="translate(685.51 682.55) rotate(-180)"/><rect class="cls-13" x="275.46" y="255.27" width="93.42" height="4.65" rx="1.17" ry="1.17" transform="translate(644.33 515.19) rotate(-180)"/><rect class="cls-13" x="275.46" y="264.87" width="93.42" height="4.65" rx="1.17" ry="1.17" transform="translate(644.33 534.39) rotate(-180)"/><rect class="cls-13" x="275.46" y="274.47" width="93.42" height="4.65" rx="1.17" ry="1.17" transform="translate(644.33 553.6) rotate(-180)"/><rect class="cls-13" x="275.46" y="284.08" width="93.42" height="4.65" rx="1.17" ry="1.17" transform="translate(644.33 572.8) rotate(-180)"/><rect class="cls-13" x="275.46" y="293.68" width="93.42" height="4.65" rx="1.17" ry="1.17" transform="translate(644.33 592) rotate(-180)"/><rect class="cls-13" x="275.46" y="303.28" width="93.42" height="4.65" rx="1.17" ry="1.17" transform="translate(644.33 611.2) rotate(-180)"/><polygon class="cls-14" points="274.87 348.52 273.94 350.41 271.86 350.71 273.37 352.18 273.01 354.25 274.87 353.27 276.73 354.25 276.38 352.18 277.88 350.71 275.8 350.41 274.87 348.52"/><polygon class="cls-14" points="265.64 348.52 264.71 350.41 262.63 350.71 264.14 352.18 263.79 354.25 265.64 353.27 267.51 354.25 267.15 352.18 268.65 350.71 266.57 350.41 265.64 348.52"/><polygon class="cls-14" points="256.42 348.52 255.49 350.41 253.41 350.71 254.91 352.18 254.56 354.25 256.42 353.27 258.28 354.25 257.92 352.18 259.43 350.71 257.35 350.41 256.42 348.52"/><polygon class="cls-14" points="247.19 348.52 246.26 350.41 244.18 350.71 245.69 352.18 245.33 354.25 247.19 353.27 249.05 354.25 248.7 352.18 250.2 350.71 248.12 350.41 247.19 348.52"/><polygon class="cls-14" points="237.97 348.52 237.04 350.41 234.96 350.71 236.46 352.18 236.11 354.25 237.97 353.27 239.83 354.25 239.47 352.18 240.98 350.71 238.9 350.41 237.97 348.52"/><path class="cls-15" d="M283.6,275a41.76,41.76,0,0,0,17-10.47,41.76,41.76,0,0,0,17,10.47,66.4,66.4,0,0,0,20.55,2.9s0,36.05-12.36,50.58c-11.61,13.64-25.23,16-25.23,16s-13.62-2.4-25.23-16C263,314,263,277.91,263,277.91A66.4,66.4,0,0,0,283.6,275Z"/><path class="cls-16" d="M301.9,338.78a43.86,43.86,0,0,0,21-13.92c7.64-9,10.25-29.64,10.87-41.51a67.65,67.65,0,0,1-16.56-3,50.25,50.25,0,0,1-15.29-8.24,50.22,50.22,0,0,1-15.29,8.24,67.67,67.67,0,0,1-16.56,3c.62,11.86,3.22,32.52,10.87,41.51A43.86,43.86,0,0,0,301.9,338.78Z"/><path class="cls-17" d="M301.89,336.93a41.72,41.72,0,0,0,19.61-13.23c7-8.23,9.6-26.9,10.35-38.69a67.77,67.77,0,0,1-15.24-3,52,52,0,0,1-14.72-7.66A52,52,0,0,1,287.17,282a67.83,67.83,0,0,1-15.23,3c.75,11.8,3.36,30.48,10.34,38.69A41.73,41.73,0,0,0,301.89,336.93Z"/><circle class="cls-12" cx="301.9" cy="298.07" r="6.31"/><path class="cls-12" d="M301.9,317.71h0a2.66,2.66,0,0,0,2.66-2.66V300.49a2.66,2.66,0,0,0-2.66-2.66h0a2.66,2.66,0,0,0-2.66,2.66V315A2.66,2.66,0,0,0,301.9,317.71Z"/><path class="cls-18" d="M284.85,275a41.76,41.76,0,0,0,17-10.47v80s-13.62-2.4-25.23-16C264.3,314,264.3,277.91,264.3,277.91A66.4,66.4,0,0,0,284.85,275Z"/><path class="cls-19" d="M232.58,235.58H371.21a9,9,0,0,1,9,9v4.31H223.54v-4.31A9,9,0,0,1,232.58,235.58Z"/><circle class="cls-12" cx="248.24" cy="242.26" r="1.45"/><circle class="cls-12" cx="241.04" cy="242.26" r="1.45"/><circle class="cls-12" cx="233.85" cy="242.26" r="1.45"/><path class="cls-7" d="M446.5,353.71h36.83c7.19,0,6-8.52-14-4.73,4.9-2.24,4.93-5.24,4.52-6a3.12,3.12,0,0,0-2.61-1.14c-2.54.22-4.47,1.78-6.7,3a14.31,14.31,0,0,0,6.37-12.24,5.08,5.08,0,0,0-1.3-3.63,5.38,5.38,0,0,0-4.33-1.39c-2.7.54-7.66,5-9.63,7,10.07-9.27,13.91-23.87,7.46-27.2-10.86-5.61-19.06,26.16-19.06,26.16s5.4-23.87-3.66-24-1.69,27.73-1.69,27.73"/><path class="cls-12" d="M148.95,350.51a16.07,16.07,0,0,1,5.15.85,25,25,0,0,1,50,.74c0,.63,0,1.26-.08,1.88a13.82,13.82,0,0,1,25.37,10.19,9.92,9.92,0,1,1,4.82,18.6H148.95a16.12,16.12,0,0,1,0-32.25Z"/><path class="cls-12" d="M449.75,336.51a10.57,10.57,0,0,0-3.39.56,16.43,16.43,0,0,0-32.84.48c0,.42,0,.83.05,1.23a9.09,9.09,0,0,0-16.68,6.7,6.52,6.52,0,1,0-3.17,12.23h56a10.6,10.6,0,0,0,0-21.2Z"/><path class="cls-14" d="M223.53,285.14l-3.89.59a19.06,19.06,0,0,0,2.48,8.13l3.55-1.68a15.43,15.43,0,0,0,3,3.66L226.37,299a19.53,19.53,0,0,0,7.5,4l1.32-3.7a15.43,15.43,0,0,0,4.72.46l.59,3.89a19.06,19.06,0,0,0,8.13-2.48L247,297.62a15.42,15.42,0,0,0,3.66-3l3.16,2.33a19.52,19.52,0,0,0,4-7.5l-3.7-1.32a15.43,15.43,0,0,0,.46-4.72l3.89-.59a19.06,19.06,0,0,0-2.48-8.13l-3.55,1.68a15.42,15.42,0,0,0-3-3.66l2.33-3.16a19.53,19.53,0,0,0-7.5-4l-1.32,3.7a15.43,15.43,0,0,0-4.72-.46l-.59-3.89a19.06,19.06,0,0,0-8.13,2.48l1.68,3.55a15.42,15.42,0,0,0-3.66,3l-3.16-2.33a19.53,19.53,0,0,0-4,7.5l3.7,1.32A15.42,15.42,0,0,0,223.53,285.14Zm7.27,1.63a8.61,8.61,0,1,1,10.74,5.72A8.61,8.61,0,0,1,230.8,286.77Z"/><ellipse class="cls-7" cx="233.31" cy="396.45" rx="19.62" ry="2.55"/><path class="cls-20" d="M223.47,389.89s-.25,2.71-.35,3.4-2.31.59-2.54.22a19.49,19.49,0,0,1-.15-3.56"/><path class="cls-21" d="M220,394.08A14.74,14.74,0,0,0,220,396l2.54.17.15-.42a4,4,0,0,0,1.44.52l2.14.14c1.57.11,2.47,0,2.53-.31.24-1.14-1.64-1.22-2.12-1.25-1.4-.09-2.88-.85-3.16-1.59-.21-.53-.09-.66-.39-.58a.73.73,0,0,0-.46.35,1.29,1.29,0,0,1-1.37.63,1.54,1.54,0,0,1-.83-.47A.93.93,0,0,0,220,394.08Z"/><path class="cls-20" d="M240.78,390.77a20.81,20.81,0,0,1-.12,2.6c-.14.68-2.33.46-2.55.07a19.49,19.49,0,0,1,.05-3.57"/><path class="cls-21" d="M237.48,394.11c-.06.72-.06,2.08-.06,2.08l2.25.54.29-.38a3.94,3.94,0,0,0,1.32.72,8.83,8.83,0,0,0,2.13.21c1.86-.12,3.15-.71,3.21-1,.27-1.14-2.21-1-2.71-1a3.26,3.26,0,0,1-2.7-1.9c-.2-.54-.08-.66-.39-.59a.75.75,0,0,0-.48.34,1.34,1.34,0,0,1-1.43.61,1.61,1.61,0,0,1-.85-.49A.93.93,0,0,0,237.48,394.11Z"/><path class="cls-22" d="M227.24,314.25c-.22-.26-.36,2.79-3.43,4.34s-8.07.71-9.66.08c-2.5-1-1.67-17.09,1.25-22.27.68-1.21,3.34-1.81,5-2.15.46,4.37-1.22,15-3.69,19.52C216.81,314.6,227.24,314.25,227.24,314.25Z"/><path class="cls-23" d="M215.19,315c-.73-1,.36-12.2.3-13.93l3.44,6.25c-.61,2.56,1.95,7.06,5,7l.44.62C222.57,315.35,215.92,316,215.19,315Z"/><path class="cls-24" d="M228.8,356.55a84.77,84.77,0,0,1-1.09,10.82c-.47,2.4-5.9,1-5.77-1.17.19-3-1.15-8.54-2.35-22.91-.17-2.17-1.15-2.42-1.8-6.9s1.84-9.14,1.84-9.14l9.28-.6.13,13,0,4.41S229.12,350.17,228.8,356.55Z"/><path class="cls-24" d="M222,365.7a19.57,19.57,0,0,0-2,6.44c-.38,4.6.09,19.73.09,19.73a9.87,9.87,0,0,0,3.64.14s4.29-25.25,4.5-28.14S222,365.7,222,365.7Z"/><path class="cls-25" d="M228.8,356.55a80.87,80.87,0,0,0-3-8.47c-1.5-3.2-2.38-5.12-2.38-5.12-5.31-5.58-.57-12.26-.57-12.26s2.65,3.58,3,4,2,3.39,3.29,5.05l0,4.41S229.12,350.17,228.8,356.55Z"/><path class="cls-24" d="M236.48,367.18c.21-3.38-2.23-7.52-2.23-7.52s7.08-5.43,7.19-6.69c0,0,1,7.95,1.37,10.4.63,4.26-1.5,28.55-1.5,28.55a8.75,8.75,0,0,1-3.59,0,100.77,100.77,0,0,0-1.92-15.74C235.08,373.23,236.22,368,236.48,367.18Z"/><path class="cls-24" d="M235.88,327.24c2.77,6.17,5.77,26.08,6.49,33,.31,2.91-2.12,7.33-4.95,4.69-3.37-3.15-8.12-18.56-9.82-21.1s-8-4.88-3.71-17.79"/><path class="cls-20" d="M222.54,292.6a11.91,11.91,0,0,0,.42-4.44c-.33-1.88-1.46-5.28-1-7.82s3.63-4.66,7-4.33,4.38,3.58,4.95,5.47a19.44,19.44,0,0,1,.33,6.31,4.37,4.37,0,0,1-1.55,3.11c-.57.33-2.69-.11-3.07.3a10.12,10.12,0,0,0-.66,2.81"/><path class="cls-23" d="M221,294.75a4.53,4.53,0,0,1,.55-2.06c.48-.56,3.94-.82,5-.75a15.27,15.27,0,0,1,4.06,1.42c.36.25-.21,1.72-.21,1.72Z"/><path class="cls-21" d="M222.68,289.39s4.63.13,5.61,0a3.45,3.45,0,0,0,3.08-2.82c-1.13,0-1.22-2.39-.61-3.29s1.39-.35,1.49.5,0,.58.23.69.72.13.61-1.51a6.17,6.17,0,0,0-.62-2.72c-.42-.94-.65-.89-1-1.06a2.93,2.93,0,0,0,1.67-1.5c.94-1.47.82-3-.94-4.49a2,2,0,0,1-1.59,1.45c-2,.56-5.76.09-7.56,1.15-.77.45-1.45,1.45-1.08,2.23,0,0-1.49-.23-1.58,2.71-.18,6,1.84,6.5,2,7.42S222.21,289.18,222.68,289.39Z"/><path class="cls-22" d="M235.88,327.24c-.44.16-.83.42-1.29.56a8.85,8.85,0,0,1-3.34,0c-1.15-.1-2.29-.21-3.44-.3-6-.26-8,1.18-9-.27a1.67,1.67,0,0,1-.21-1.23c.21-1.32.64-1.77.47-3.1-.15-1.11-.35-2.44-.64-4-1-5.25-2.95-13.27-3.21-18.09-.38-6.9,6.63-6.84,6.63-6.84,10.3-.64,14.14,2.32,14.7,6.75,0,.31.07.65.09,1,.26,4.57-1,14-1.69,19.51C234.75,322.85,236.77,326.92,235.88,327.24Z"/><path class="cls-23" d="M236.27,327.65c-.43.37-1.7.48-3.47.33,1.59.12,3.24-.88,2.88-1.69a13.75,13.75,0,0,1-1.45-4.09c-.42-5.55-.31-21.27-.53-21,.25.49,1,1.19,2.95,1.65,0,4.59-.81,12.72-1.12,17.86S237.9,326.23,236.27,327.65Z"/><path class="cls-20" d="M257.51,288.18c0-.27-.37-.14-.46.08a1.53,1.53,0,0,0,0,.19c0-.44.06-.8,0-.89,0-.25-.34-.16-.45,0,0-.18,0-.31,0-.37,0-.33-.38-.19-.47.08a3.89,3.89,0,0,0-.08.45,2.23,2.23,0,0,0,0-.25c0-.27-.34-.2-.43,0a3.41,3.41,0,0,0-.1.52c0,.27-.12.56-.16.83s-.34,1.4-.91,1.51c-.88.18-.3-1.34-.92-1.7-.19-.11-.42,1.07-.44,1.74a7.44,7.44,0,0,0,0,1.4,9.41,9.41,0,0,1,.23,1.2,5.78,5.78,0,0,1-.3.87l2,.84a5.15,5.15,0,0,1,.54-1.49,5.6,5.6,0,0,0,1.62-2.37,9.83,9.83,0,0,0,.28-1.79S257.52,288.27,257.51,288.18Z"/><path class="cls-22" d="M255.44,294.29s-.68,4-1.36,7.14a30.9,30.9,0,0,1-2.36,7.31s0,0,0,.06c-.67,1.45-2.32,3.6-3.11,4-3.86,1.78-12.64-8.57-14.67-7.92-4.16,1.11-7.26-10.79-7.26-10.79a52.67,52.67,0,0,1,7.86.7c3.15.67,11.56,11.19,12,11.21s1.13-1.55,2.06-3.34c2.1-4,4.43-9.07,4.43-9.07l1.94.59Z"/><path class="cls-20" d="M234.17,282.82s1.47,2.2,1.29,2.67-1.59.44-1.59.44"/><path class="cls-26" d="M417.44,308.63c-1.88,2.25-3.41,7.56-5.33,9.77a72,72,0,0,1-12.29,9.49c-.21-1.37-3.1-.52-2.07-1.44,3.2-2.88,8.72-5.81,10.6-11.09,1.24-3.47,5.82-11.19,5.82-11.19"/><path class="cls-27" d="M378.58,324h33.87V303.28a2.93,2.93,0,0,0-2.93-2.93H396.75a1.37,1.37,0,0,0-.88.32l-3.1,2.62a1.45,1.45,0,0,1-.94.34H381.51a2.93,2.93,0,0,0-2.93,2.93Z"/><rect class="cls-12" x="380.33" y="304.75" width="29.94" height="16.33" rx="1.74" ry="1.74" transform="translate(790.59 625.82) rotate(-180)"/><rect class="cls-28" x="378.58" y="308.06" width="33.87" height="21.44" rx="3.27" ry="3.27" transform="translate(791.03 637.55) rotate(-180)"/><path class="cls-29" d="M389.8,316.51v6.6a2.45,2.45,0,0,0,2.45,2.45h6.53a2.45,2.45,0,0,0,2.45-2.45v-6.6a.82.82,0,0,0-.82-.82h-.66v-1.41a4.23,4.23,0,0,0-8.46,0v1.41h-.66A.82.82,0,0,0,389.8,316.51Zm8.39-.82h-5.35v-1.41a2.68,2.68,0,1,1,5.35,0Z"/><path class="cls-12" d="M394,319.06a1.48,1.48,0,1,1,2.11,1.34V323a.62.62,0,1,1-1.25,0v-2.65A1.48,1.48,0,0,1,394,319.06Z"/><ellipse class="cls-7" cx="420.77" cy="393.17" rx="21.71" ry="2.82"/><path class="cls-30" d="M421.32,327.9l8.6-7.06s3.88,5.42,2.32,10.58a47.74,47.74,0,0,1-2.12,5c-.39,1.12-3.17,17.07-3,18.24s1.5,4.46,2,7.9c.57,4.14.28,17.61.72,21.19s-2.87,4.14-3,2.93c-1.41-10.35-5.28-26.5-5.78-31.67S420.88,340.38,421.32,327.9Z"/><path class="cls-26" d="M421.15,338.08l3.58,8.54a19,19,0,0,0-2.7,8.86c-.08,1.64,0,3.28,0,4.92a1.63,1.63,0,0,1-.05.36c-.46-2.43-.8-4.44-.93-5.75a155.85,155.85,0,0,1,0-16.93Z"/><path class="cls-30" d="M426.27,383.35s.74,3.76.52,4.23a6.57,6.57,0,0,1-1.8,2.34c-.83.52-2.66,1.12-2.81,1.34a.57.57,0,0,0,.09.77,3.78,3.78,0,0,0,2.59.69c2.48-.37,2.75-1.46,4.19-1.62.25,0,.7.35,1.4,0a1.64,1.64,0,0,0,1-1.57,7.08,7.08,0,0,0-1.06-2.66,21.55,21.55,0,0,1-.64-4.27"/><path class="cls-31" d="M422.08,392.21c-.18-.31-.22-.78,0-.89a14.47,14.47,0,0,1,1.55-.9c.48-.21,1.25-.4,1-.26s.22.69.66.67c1.55-.07,2.71-1.09,3.59-1.3a3,3,0,0,0,1.89-2,5.94,5.94,0,0,1,.89,1.76,3.05,3.05,0,0,1,.17,1.33,3.1,3.1,0,0,0-.16,1.27,2.43,2.43,0,0,1-.92.32,3.61,3.61,0,0,1-1,0l-.1-.8a3.62,3.62,0,0,0-.79.07,4.27,4.27,0,0,0-1.21.55c-.18.21-.33.59-.56.71a4.94,4.94,0,0,1-2,.48C423.35,393.23,422.39,392.74,422.08,392.21Z"/><path class="cls-30" d="M409.49,391.54c.18-.2,2.15-.52,3.08-.91a5.31,5.31,0,0,0,2.15-2.05,22.17,22.17,0,0,0,.13-4.11c-.18-7.35-1.54-25.33-1.74-29.63-.34-7.48.63-15.2,3.51-27.21l10.72-8.22s3,5.58,2,10.91c-.58,3.1-3.15,3.57-3.58,4.77s-6.92,20.6-6.92,20.6a36.5,36.5,0,0,1,1.33,8.79c.06,3.92-1.72,15.75-2,20.26a14.81,14.81,0,0,0,.07,3.66c.32.82,1.13,1.79,1.09,2.83a1.6,1.6,0,0,1-1.22,1.41c-.76.24-1.18-.2-1.44-.21-1.51-.06-1.93,1-4.54,1a4.13,4.13,0,0,1-2.59-1.08A.55.55,0,0,1,409.49,391.54Z"/><path class="cls-31" d="M409.26,392.46c-.14-.33-.12-.8.07-.89a14.93,14.93,0,0,1,1.72-.66c.53-.14,1.34-.21,1-.11s.14.71.6.76c1.61.16,2.94-.67,3.88-.75a2.48,2.48,0,0,0,2-1.74,6.24,6.24,0,0,1,1,1.87,2.94,2.94,0,0,1,0,1.35,3,3,0,0,0-.33,1.23,2.57,2.57,0,0,1-1,.18,4,4,0,0,1-1-.15v-.81a3.94,3.94,0,0,0-.82-.05,2.73,2.73,0,0,0-1.33.47c-.22.17-.45.45-.72.51a5.47,5.47,0,0,1-2.12.16C410.44,393.67,409.51,393,409.26,392.46Z"/><path class="cls-24" d="M429.54,320.27a12.36,12.36,0,0,1,3.52,11.37c-.26,1.19-1.76,4.38-2,5.57-.66,2.69-1.88,6.64-2.1,9.76-4.23,2.55-12.31,1.6-15.79-.87a68,68,0,0,1,1-12c1.11-7.83,2.43-9.6,3.59-12.73.14-.55.14-1.67.27-2.32"/><path class="cls-22" d="M418.07,294.61c-.67.22-.42,1.83-1.09,2-.49.16-1.44-.05-1.89.2-2.37,1.34-1.76,4-2,7.31-1,2.54-1.27,4.83-.47,6.25,1,1.76,2,2.25,3.26,3.71.91,1.09,1.21,3.33,1.4,5.74,0,.41-.31,1.14-.21,1.54.19.77,1.37,1,2.68,1,3,.06,7.59-1,8.93-1s2.46-.57,2.34-1.32c-.09-.52-.61-.74-.82-1.75-.46-2.22-.8-7.78-1.16-9.67-.91-4.83-1.57-8.42-3.55-12.87"/><path class="cls-23" d="M411.22,306.19A22.57,22.57,0,0,1,414,302.6l2.58,1.16c-1.21,2.32-1.43,5.06-2,7.6a6,6,0,0,1-1.49-.15c-.25-.41-.16-.2-.49-.8A10.42,10.42,0,0,1,411.22,306.19Z"/><path class="cls-30" d="M409.46,288.09a12.86,12.86,0,0,1-.44-3.33c.07-1.91.32-4.69,3.5-5.83s6.69-.46,7.74,1.84.8,5.77,1,7.63a11.46,11.46,0,0,0,1.51,4.08l-6.85,3a13,13,0,0,0-1.58-2.73c-.46-.29-.62.87-2.15.74-.65-.05-1.34-1.22-1.86-2.65l0-.14a7.16,7.16,0,0,1-.82-.07c-.47-.14-.44-.35-.33-.65A7.77,7.77,0,0,0,409.46,288.09Z"/><path class="cls-30" d="M400,327.34a3.67,3.67,0,0,1-1.89,2.3,1.22,1.22,0,0,1-.8,0c-.37.17-1.56.3-1.11-.4a3.37,3.37,0,0,1-2.56.55c-.32,0-.31-.39.39-.58a3.5,3.5,0,0,0,2.17-1.83c-.15-.11-.26.09-.66.16s-.67-.13-.68-.32.51-.31.63-.39l1.31-.86a2.5,2.5,0,0,1,1.38-.5c.1,0,1,0,.8.39"/><path class="cls-30" d="M415.43,305.39c-1.14,2.35-4.12,10.13-4.58,11-1.82,3.53-11.17,11.2-11.17,11.2a1.9,1.9,0,0,1-1.58-1.85c2.68-1.86,7.7-9.82,8.74-10.78.67-.62,3.71-12.92,3.71-12.92"/><path class="cls-22" d="M412.87,296.72c2.6-1,5.09-1,7.09-3,2,1.56-2.44,10.56-3.55,10.8s-2.6,5.22-2.88,5.89c-3.61-.1-4.92-2.06-4.92-2.06C410.08,303.84,410.35,297.69,412.87,296.72Z"/><path class="cls-21" d="M415,297c.18-.68.69-1.22.81-1.91a3.11,3.11,0,0,0-.38-2.05,3.76,3.76,0,0,0-.89-.84c-1.43-1.13-1.93-2.06-1.45-3.75a4.6,4.6,0,0,0,.24-1.7c-.05-.52-.16-1.06-.71-1.12-.39,0-.64,0-.77.38s.09,1.87-.45.94a3.79,3.79,0,0,1-1-3c0-.24.09-1.23-.06-1.38a3.91,3.91,0,0,0-1.34,2.75,2,2,0,0,1-.92-1.73,4.57,4.57,0,0,1,.38-2.05,6,6,0,0,1,3.68-3.63,8.27,8.27,0,0,1,3.38-.9c1.17,0,2.63.38,3,1.26,1.62-.42,2.55,1,2.94,1.51a8.26,8.26,0,0,1,1.25,2.42c.41,1.28.51,2.65.84,4A5.77,5.77,0,0,0,425,289c.79.72,1.9.78,2.76,1.44a4.33,4.33,0,0,1,1.64,3.6c-.06,1.37-.77,2.86.06,4.12.27.41.65.74.91,1.15a3.13,3.13,0,0,1-.06,3.23,5.73,5.73,0,0,1-2.8,2.39,8.21,8.21,0,0,1-3,.42c-2-.11-3.64,0-5.72-1.78-1.18-1-.43-1.59-1.56-2.66-.64-.6-1.54-.92-2-1.7a3,3,0,0,1-.3-2.19Z"/><path class="cls-12" d="M244.09,447.89h1.66a2.5,2.5,0,0,0,0-5h-1.66a2.5,2.5,0,0,0,0,5Z"/><path class="cls-12" d="M193.33,201.38c8.3,0,13.74,8.41,13.74,8.41s-5.44,8.41-13.74,8.41-13.74-8.41-13.74-8.41S185,201.38,193.33,201.38Z"/><path class="cls-32" d="M178.84,210.28l-.31-.48.31-.48c.23-.36,5.8-8.82,14.49-8.82s14.25,8.46,14.49,8.82l.31.48-.31.48c-.23.36-5.8,8.82-14.49,8.82S179.07,210.64,178.84,210.28Zm14.49-8c-6.6,0-11.38,5.8-12.66,7.53,1.28,1.73,6.06,7.53,12.66,7.53s11.38-5.8,12.66-7.53C204.71,208.07,199.93,202.27,193.33,202.27Z"/><circle class="cls-33" cx="193.33" cy="209.8" r="5.26"/><circle class="cls-12" cx="195.08" cy="208.21" r="2.11"/><path class="cls-34" d="M427,237.94h23.34a1.65,1.65,0,0,1,1.65,1.65V254.8a1.65,1.65,0,0,1-1.65,1.65h-2.12L443,259.92l.67-3.47H427a1.65,1.65,0,0,1-1.65-1.65V239.59A1.65,1.65,0,0,1,427,237.94Z"/><circle class="cls-12" cx="438.72" cy="252.26" r="1.95"/><g class="cls-35"><path class="cls-12" d="M432.07,252.26a6.64,6.64,0,1,1,6.65,6.64A6.65,6.65,0,0,1,432.07,252.26Zm1.85,0a4.8,4.8,0,1,0,4.8-4.79A4.8,4.8,0,0,0,433.92,252.26Z"/><path class="cls-12" d="M427.69,252.26a11,11,0,1,1,11,11A11,11,0,0,1,427.69,252.26Zm1.85,0a9.18,9.18,0,1,0,9.18-9.18A9.19,9.19,0,0,0,429.54,252.26Z"/></g><rect class="cls-36" x="316.75" y="190.95" width="32.3" height="22.44" rx="2" ry="2" transform="translate(665.81 404.34) rotate(-180)"/><polyline class="cls-36" points="326.83 212.88 327.74 217.6 320.54 212.88"/><path class="cls-12" d="M325.15,202.43a7.38,7.38,0,1,1,7.38,7.38A7.39,7.39,0,0,1,325.15,202.43Zm.75,0a6.63,6.63,0,1,0,6.63-6.63A6.63,6.63,0,0,0,325.9,202.43Z"/><path class="cls-12" d="M329.23,202.43c0-4.14,1.45-7.38,3.3-7.38s3.3,3.24,3.3,7.38-1.45,7.38-3.3,7.38S329.23,206.57,329.23,202.43Zm.75,0c0,3.91,1.34,6.63,2.55,6.63s2.55-2.72,2.55-6.63-1.34-6.63-2.55-6.63S330,198.53,330,202.43Z"/><rect class="cls-12" x="325.53" y="202.06" width="14" height="0.75"/><path class="cls-12" d="M332.53,199.69c4.06,0,5.49-1.43,5.55-1.49l-.54-.52.27.26-.27-.26s-1.31,1.26-5,1.26-5-1.25-5-1.26l-.54.52C327,198.26,328.47,199.69,332.53,199.69Z"/><path class="cls-12" d="M337.54,207.18l.54-.52c-.06-.06-1.49-1.49-5.55-1.49S327,206.6,327,206.66l.54.52s1.31-1.26,5-1.26S337.53,207.17,337.54,207.18Z"/><rect class="cls-37" x="212.27" y="155.03" width="51.53" height="35.8" rx="3.19" ry="3.19" transform="translate(476.07 345.86) rotate(-180)"/><polyline class="cls-38" points="228.34 190 229.8 197.55 218.31 190"/><path class="cls-12" d="M220.66,172.27a9.17,9.17,0,1,1,9.17,9.16A9.18,9.18,0,0,1,220.66,172.27Zm3.93,0a5.24,5.24,0,1,0,5.24-5.24A5.24,5.24,0,0,0,224.58,172.27Z"/><polygon class="cls-12" points="251.48 178.33 255.41 178.33 255.41 170.3 237.02 170.3 237.02 174.23 251.48 174.23 251.48 178.33"/><rect class="cls-12" x="245.39" y="172.27" width="3.93" height="4.58"/></g></g></g></svg>