<svg xmlns="http://www.w3.org/2000/svg" xmlns:xlink="http://www.w3.org/1999/xlink" viewBox="0 0 700 252.09"><defs><style>.cls-1{mask:url(#mask);filter:url(#luminosity-noclip-5);}.cls-2,.cls-4,.cls-6,.cls-8{mix-blend-mode:multiply;}.cls-2{fill:url(#Áåçûìÿííûé_ãðàäèåíò_64);}.cls-3{mask:url(#mask-2);filter:url(#luminosity-noclip-6);}.cls-4{fill:url(#Áåçûìÿííûé_ãðàäèåíò_64-2);}.cls-5{mask:url(#mask-3);filter:url(#luminosity-noclip-7);}.cls-6{fill:url(#Áåçûìÿííûé_ãðàäèåíò_64-3);}.cls-7{mask:url(#mask-4);filter:url(#luminosity-noclip-8);}.cls-8{fill:url(#Áåçûìÿííûé_ãðàäèåíò_64-4);}.cls-9{fill:url(#Áåçûìÿííûé_ãðàäèåíò_295);}.cls-10{fill:#33adff;opacity:0.2;}.cls-11{opacity:0.31;fill:url(#Áåçûìÿííûé_ãðàäèåíò_18);}.cls-12{opacity:0.3;}.cls-13{fill:#fff;}.cls-14,.cls-17{fill:#242993;}.cls-14{opacity:0.5;}.cls-15{fill:url(#Áåçûìÿííûé_ãðàäèåíò_19);}.cls-16{fill:url(#Áåçûìÿííûé_ãðàäèåíò_28);}.cls-18{fill:#4553c7;}.cls-114,.cls-19{fill:#42ffff;}.cls-20{fill:url(#Áåçûìÿííûé_ãðàäèåíò_19-2);}.cls-21{fill:url(#Áåçûìÿííûé_ãðàäèåíò_28-2);}.cls-22{fill:#bcd5ff;}.cls-23{fill:url(#Áåçûìÿííûé_ãðàäèåíò_21);}.cls-24{opacity:0.67;}.cls-25{fill:url(#Áåçûìÿííûé_ãðàäèåíò_28-3);}.cls-26{opacity:0.51;}.cls-27{mask:url(#mask-5);}.cls-28,.cls-47,.cls-65,.cls-84{opacity:0.78;}.cls-28{fill:url(#Áåçûìÿííûé_ãðàäèåíò_31);}.cls-29{fill:url(#Áåçûìÿííûé_ãðàäèåíò_28-4);}.cls-30{fill:url(#Áåçûìÿííûé_ãðàäèåíò_28-5);}.cls-31{fill:url(#Áåçûìÿííûé_ãðàäèåíò_29);}.cls-32{fill:#3f38fc;}.cls-33{fill:url(#Áåçûìÿííûé_ãðàäèåíò_29-2);}.cls-34{fill:url(#Áåçûìÿííûé_ãðàäèåíò_29-3);}.cls-35{fill:url(#Áåçûìÿííûé_ãðàäèåíò_29-4);}.cls-36{fill:url(#Áåçûìÿííûé_ãðàäèåíò_29-5);}.cls-37{fill:url(#Áåçûìÿííûé_ãðàäèåíò_28-6);}.cls-38{fill:url(#Áåçûìÿííûé_ãðàäèåíò_29-6);}.cls-39{fill:url(#Áåçûìÿííûé_ãðàäèåíò_28-7);}.cls-40{fill:url(#Áåçûìÿííûé_ãðàäèåíò_29-7);}.cls-41{fill:url(#Áåçûìÿííûé_ãðàäèåíò_28-8);}.cls-42{fill:url(#Áåçûìÿííûé_ãðàäèåíò_29-8);}.cls-43{fill:url(#Áåçûìÿííûé_ãðàäèåíò_28-9);}.cls-44{fill:url(#Áåçûìÿííûé_ãðàäèåíò_29-9);}.cls-45{fill:url(#Áåçûìÿííûé_ãðàäèåíò_28-10);}.cls-46{mask:url(#mask-6);}.cls-47{fill:url(#Áåçûìÿííûé_ãðàäèåíò_31-2);}.cls-48{fill:url(#Áåçûìÿííûé_ãðàäèåíò_28-11);}.cls-49{fill:url(#Áåçûìÿííûé_ãðàäèåíò_28-12);}.cls-50{fill:url(#Áåçûìÿííûé_ãðàäèåíò_29-10);}.cls-51{fill:url(#Áåçûìÿííûé_ãðàäèåíò_29-11);}.cls-52{fill:url(#Áåçûìÿííûé_ãðàäèåíò_29-12);}.cls-53{fill:url(#Áåçûìÿííûé_ãðàäèåíò_29-13);}.cls-54{fill:url(#Áåçûìÿííûé_ãðàäèåíò_29-14);}.cls-55{fill:url(#Áåçûìÿííûé_ãðàäèåíò_28-13);}.cls-56{fill:url(#Áåçûìÿííûé_ãðàäèåíò_29-15);}.cls-57{fill:url(#Áåçûìÿííûé_ãðàäèåíò_28-14);}.cls-58{fill:url(#Áåçûìÿííûé_ãðàäèåíò_29-16);}.cls-59{fill:url(#Áåçûìÿííûé_ãðàäèåíò_28-15);}.cls-60{fill:url(#Áåçûìÿííûé_ãðàäèåíò_29-17);}.cls-61{fill:url(#Áåçûìÿííûé_ãðàäèåíò_28-16);}.cls-62{fill:url(#Áåçûìÿííûé_ãðàäèåíò_29-18);}.cls-63{fill:url(#Áåçûìÿííûé_ãðàäèåíò_28-17);}.cls-64{mask:url(#mask-7);}.cls-65{fill:url(#Áåçûìÿííûé_ãðàäèåíò_31-3);}.cls-66{fill:url(#Áåçûìÿííûé_ãðàäèåíò_28-18);}.cls-67{fill:url(#Áåçûìÿííûé_ãðàäèåíò_28-19);}.cls-68{fill:url(#Áåçûìÿííûé_ãðàäèåíò_29-19);}.cls-69{fill:url(#Áåçûìÿííûé_ãðàäèåíò_29-20);}.cls-70{fill:url(#Áåçûìÿííûé_ãðàäèåíò_29-21);}.cls-71{fill:url(#Áåçûìÿííûé_ãðàäèåíò_29-22);}.cls-72{fill:url(#Áåçûìÿííûé_ãðàäèåíò_29-23);}.cls-73{fill:url(#Áåçûìÿííûé_ãðàäèåíò_28-20);}.cls-74{fill:url(#Áåçûìÿííûé_ãðàäèåíò_29-24);}.cls-75{fill:url(#Áåçûìÿííûé_ãðàäèåíò_28-21);}.cls-76{fill:url(#Áåçûìÿííûé_ãðàäèåíò_29-25);}.cls-77{fill:url(#Áåçûìÿííûé_ãðàäèåíò_28-22);}.cls-78{fill:url(#Áåçûìÿííûé_ãðàäèåíò_29-26);}.cls-79{fill:url(#Áåçûìÿííûé_ãðàäèåíò_28-23);}.cls-80{fill:url(#Áåçûìÿííûé_ãðàäèåíò_29-27);}.cls-81{fill:url(#Áåçûìÿííûé_ãðàäèåíò_28-24);}.cls-82{fill:#93a8ff;}.cls-83{mask:url(#mask-8);}.cls-84{fill:url(#Áåçûìÿííûé_ãðàäèåíò_31-4);}.cls-85{fill:url(#Áåçûìÿííûé_ãðàäèåíò_28-25);}.cls-86{fill:url(#Áåçûìÿííûé_ãðàäèåíò_28-26);}.cls-87{fill:url(#Áåçûìÿííûé_ãðàäèåíò_29-28);}.cls-88{fill:url(#Áåçûìÿííûé_ãðàäèåíò_29-29);}.cls-89{fill:url(#Áåçûìÿííûé_ãðàäèåíò_29-30);}.cls-90{fill:url(#Áåçûìÿííûé_ãðàäèåíò_29-31);}.cls-91{fill:url(#Áåçûìÿííûé_ãðàäèåíò_29-32);}.cls-92{fill:url(#Áåçûìÿííûé_ãðàäèåíò_28-27);}.cls-93{fill:url(#Áåçûìÿííûé_ãðàäèåíò_29-33);}.cls-94{fill:url(#Áåçûìÿííûé_ãðàäèåíò_28-28);}.cls-95{fill:url(#Áåçûìÿííûé_ãðàäèåíò_29-34);}.cls-96{fill:url(#Áåçûìÿííûé_ãðàäèåíò_28-29);}.cls-97{fill:url(#Áåçûìÿííûé_ãðàäèåíò_29-35);}.cls-98{fill:url(#Áåçûìÿííûé_ãðàäèåíò_28-30);}.cls-99{fill:url(#Áåçûìÿííûé_ãðàäèåíò_29-36);}.cls-100{fill:#162184;}.cls-101{fill:#485dce;}.cls-102{fill:#fce8ee;}.cls-103{fill:azure;}.cls-104{fill:#aa9aac;}.cls-105{fill:#c4e3ff;}.cls-106{fill:#e2c8cf;}.cls-107{fill:#1b4263;}.cls-108{fill:#938496;}.cls-109{fill:url(#Áåçûìÿííûé_ãðàäèåíò_21-2);}.cls-110{fill:url(#Áåçûìÿííûé_ãðàäèåíò_19-3);}.cls-111{fill:url(#Áåçûìÿííûé_ãðàäèåíò_28-31);}.cls-112{fill:url(#Áåçûìÿííûé_ãðàäèåíò_19-4);}.cls-113{fill:url(#Áåçûìÿííûé_ãðàäèåíò_28-32);}.cls-114{opacity:0.4;}.cls-115{fill:url(#Áåçûìÿííûé_ãðàäèåíò_19-5);}.cls-116{fill:url(#Áåçûìÿííûé_ãðàäèåíò_28-34);}.cls-117{filter:url(#luminosity-noclip-4);}.cls-118{filter:url(#luminosity-noclip-3);}.cls-119{filter:url(#luminosity-noclip-2);}.cls-120{filter:url(#luminosity-noclip);}</style><filter id="luminosity-noclip" x="494.53" y="-8391.58" width="31.41" height="32766" filterUnits="userSpaceOnUse" color-interpolation-filters="sRGB"><feFlood flood-color="#fff" result="bg"/><feBlend in="SourceGraphic" in2="bg"/></filter><mask id="mask" x="494.53" y="-8391.58" width="31.41" height="32766" maskUnits="userSpaceOnUse"><g class="cls-120"/></mask><linearGradient id="Áåçûìÿííûé_ãðàäèåíò_64" x1="494.88" y1="22.6" x2="525.22" y2="22.6" gradientTransform="translate(3.52 -20.66) rotate(4.96)" gradientUnits="userSpaceOnUse"><stop offset="0"/><stop offset="0.05" stop-color="#2f2f2f"/><stop offset="0.1" stop-color="#5a5a5a"/><stop offset="0.15" stop-color="#828282"/><stop offset="0.22" stop-color="#a4a4a4"/><stop offset="0.28" stop-color="silver"/><stop offset="0.36" stop-color="#d7d7d7"/><stop offset="0.44" stop-color="#e9e9e9"/><stop offset="0.54" stop-color="#f6f6f6"/><stop offset="0.68" stop-color="#fdfdfd"/><stop offset="1" stop-color="#fff"/></linearGradient><filter id="luminosity-noclip-2" x="460.38" y="-8391.58" width="31.41" height="32766" filterUnits="userSpaceOnUse" color-interpolation-filters="sRGB"><feFlood flood-color="#fff" result="bg"/><feBlend in="SourceGraphic" in2="bg"/></filter><mask id="mask-2" x="460.38" y="-8391.58" width="31.41" height="32766" maskUnits="userSpaceOnUse"><g class="cls-119"/></mask><linearGradient id="Áåçûìÿííûé_ãðàäèåíò_64-2" x1="462.19" y1="40.91" x2="492.53" y2="40.91" xlink:href="#Áåçûìÿííûé_ãðàäèåíò_64"/><filter id="luminosity-noclip-3" x="525.35" y="-8391.58" width="31.41" height="32766" filterUnits="userSpaceOnUse" color-interpolation-filters="sRGB"><feFlood flood-color="#fff" result="bg"/><feBlend in="SourceGraphic" in2="bg"/></filter><mask id="mask-3" x="525.35" y="-8391.58" width="31.41" height="32766" maskUnits="userSpaceOnUse"><g class="cls-118"/></mask><linearGradient id="Áåçûìÿííûé_ãðàäèåíò_64-3" x1="527.38" y1="40.58" x2="557.72" y2="40.58" xlink:href="#Áåçûìÿííûé_ãðàäèåíò_64"/><filter id="luminosity-noclip-4" x="491.22" y="-8391.58" width="31.41" height="32766" filterUnits="userSpaceOnUse" color-interpolation-filters="sRGB"><feFlood flood-color="#fff" result="bg"/><feBlend in="SourceGraphic" in2="bg"/></filter><mask id="mask-4" x="491.22" y="-8391.58" width="31.41" height="32766" maskUnits="userSpaceOnUse"><g class="cls-117"/></mask><linearGradient id="Áåçûìÿííûé_ãðàäèåíò_64-4" x1="494.69" y1="58.62" x2="525.03" y2="58.62" xlink:href="#Áåçûìÿííûé_ãðàäèåíò_64"/><linearGradient id="Áåçûìÿííûé_ãðàäèåíò_295" x1="589.62" y1="-66.1" x2="-63.29" y2="457.46" gradientUnits="userSpaceOnUse"><stop offset="0" stop-color="#4482cc"/><stop offset="0.04" stop-color="#447ecc"/><stop offset="0.47" stop-color="#4553c7"/><stop offset="0.6" stop-color="#3b44bc"/><stop offset="0.84" stop-color="#2b2dab"/><stop offset="1" stop-color="#2525a5"/></linearGradient><linearGradient id="Áåçûìÿííûé_ãðàäèåíò_18" x1="0.31" y1="107.1" x2="551.65" y2="107.1" gradientUnits="userSpaceOnUse"><stop offset="0" stop-color="#2525a5"/><stop offset="1" stop-color="#2525a5"/></linearGradient><linearGradient id="Áåçûìÿííûé_ãðàäèåíò_19" x1="561.57" y1="188.05" x2="517.47" y2="223.42" gradientTransform="translate(3.52 -20.66) rotate(4.96)" gradientUnits="userSpaceOnUse"><stop offset="0" stop-color="#bcd5ff"/><stop offset="0.15" stop-color="#a3beff"/><stop offset="0.39" stop-color="#82a0ff"/><stop offset="0.61" stop-color="#6a8aff"/><stop offset="0.82" stop-color="#5c7dff"/><stop offset="1" stop-color="#5778ff"/></linearGradient><linearGradient id="Áåçûìÿííûé_ãðàäèåíò_28" x1="592.37" y1="862.4" x2="552.42" y2="894.44" gradientTransform="matrix(0.82, 0.57, -1.05, 0.49, 970.81, -534.1)" gradientUnits="userSpaceOnUse"><stop offset="0" stop-color="#c0d6ff"/><stop offset="0.3" stop-color="#c5dbff"/><stop offset="0.65" stop-color="#d3e9ff"/><stop offset="1" stop-color="#e9ffff"/></linearGradient><linearGradient id="Áåçûìÿííûé_ãðàäèåíò_19-2" x1="380.85" y1="147.7" x2="336.75" y2="183.06" xlink:href="#Áåçûìÿííûé_ãðàäèåíò_19"/><linearGradient id="Áåçûìÿííûé_ãðàäèåíò_28-2" x1="447.66" y1="917.82" x2="407.71" y2="949.85" xlink:href="#Áåçûìÿííûé_ãðàäèåíò_28"/><linearGradient id="Áåçûìÿííûé_ãðàäèåíò_21" x1="489.82" y1="99.62" x2="559.66" y2="99.62" gradientTransform="translate(3.52 -20.66) rotate(4.96)" gradientUnits="userSpaceOnUse"><stop offset="0" stop-color="#5778ff"/><stop offset="0.07" stop-color="#5489ff"/><stop offset="0.28" stop-color="#4eb3ff"/><stop offset="0.48" stop-color="#49d4ff"/><stop offset="0.67" stop-color="#45ecff"/><stop offset="0.85" stop-color="#43faff"/><stop offset="1" stop-color="#42ffff"/></linearGradient><linearGradient id="Áåçûìÿííûé_ãðàäèåíò_28-3" x1="540.07" y1="86.46" x2="540.07" y2="24.71" gradientTransform="translate(3.52 -20.66) rotate(4.96)" xlink:href="#Áåçûìÿííûé_ãðàäèåíò_28"/><filter id="luminosity-noclip-5" x="494.53" y="33.86" width="31.41" height="26.34" filterUnits="userSpaceOnUse" color-interpolation-filters="sRGB"><feFlood flood-color="#fff" result="bg"/><feBlend in="SourceGraphic" in2="bg"/></filter><mask id="mask-5" x="494.53" y="33.86" width="31.41" height="26.34" maskUnits="userSpaceOnUse"><g class="cls-1"><polygon class="cls-2" points="523.56 60.19 515.63 59.55 494.53 45.35 519.98 33.86 525.94 34.34 523.56 60.19"/></g></mask><linearGradient id="Áåçûìÿííûé_ãðàäèåíò_31" x1="494.88" y1="22.6" x2="525.22" y2="22.6" gradientTransform="translate(3.52 -20.66) rotate(4.96)" gradientUnits="userSpaceOnUse"><stop offset="0" stop-color="#e9ffff"/><stop offset="0.04" stop-color="#d3ebff"/><stop offset="0.11" stop-color="#b2ccff"/><stop offset="0.18" stop-color="#96b2ff"/><stop offset="0.27" stop-color="#7f9dff"/><stop offset="0.36" stop-color="#6d8cff"/><stop offset="0.48" stop-color="#6081ff"/><stop offset="0.64" stop-color="#597aff"/><stop offset="1" stop-color="#5778ff"/></linearGradient><linearGradient id="Áåçûìÿííûé_ãðàäèåíò_28-4" x1="503.2" y1="21.84" x2="547.12" y2="21.84" gradientTransform="translate(3.52 -20.66) rotate(4.96)" xlink:href="#Áåçûìÿííûé_ãðàäèåíò_28"/><linearGradient id="Áåçûìÿííûé_ãðàäèåíò_28-5" x1="539.13" y1="33.92" x2="533.43" y2="23.98" gradientTransform="translate(3.52 -20.66) rotate(4.96)" xlink:href="#Áåçûìÿííûé_ãðàäèåíò_28"/><linearGradient id="Áåçûìÿííûé_ãðàäèåíò_29" x1="514.14" y1="29.26" x2="514.14" y2="15.65" gradientTransform="translate(3.52 -20.66) rotate(4.96)" gradientUnits="userSpaceOnUse"><stop offset="0" stop-color="#5778ff"/><stop offset="0.18" stop-color="#5c7dff"/><stop offset="0.39" stop-color="#6a8aff"/><stop offset="0.61" stop-color="#82a0ff"/><stop offset="0.85" stop-color="#a3beff"/><stop offset="1" stop-color="#bcd5ff"/></linearGradient><linearGradient id="Áåçûìÿííûé_ãðàäèåíò_29-2" x1="515.05" y1="18.62" x2="526.45" y2="18.62" xlink:href="#Áåçûìÿííûé_ãðàäèåíò_29"/><linearGradient id="Áåçûìÿííûé_ãðàäèåíò_29-3" x1="517.99" y1="20.25" x2="529.39" y2="20.25" xlink:href="#Áåçûìÿííûé_ãðàäèåíò_29"/><linearGradient id="Áåçûìÿííûé_ãðàäèåíò_29-4" x1="520.93" y1="21.87" x2="532.33" y2="21.87" xlink:href="#Áåçûìÿííûé_ãðàäèåíò_29"/><linearGradient id="Áåçûìÿííûé_ãðàäèåíò_29-5" x1="523.88" y1="23.5" x2="535.28" y2="23.5" xlink:href="#Áåçûìÿííûé_ãðàäèåíò_29"/><linearGradient id="Áåçûìÿííûé_ãðàäèåíò_28-6" x1="520.94" y1="42.45" x2="523.85" y2="42.45" gradientTransform="translate(3.52 -20.66) rotate(4.96)" xlink:href="#Áåçûìÿííûé_ãðàäèåíò_28"/><linearGradient id="Áåçûìÿííûé_ãðàäèåíò_29-6" x1="520.59" y1="42.74" x2="522.99" y2="42.74" xlink:href="#Áåçûìÿííûé_ãðàäèåíò_29"/><linearGradient id="Áåçûìÿííûé_ãðàäèåíò_28-7" x1="495.64" y1="27.53" x2="498.54" y2="27.53" gradientTransform="translate(3.52 -20.66) rotate(4.96)" xlink:href="#Áåçûìÿííûé_ãðàäèåíò_28"/><linearGradient id="Áåçûìÿííûé_ãðàäèåíò_29-7" x1="495.28" y1="27.82" x2="497.68" y2="27.82" xlink:href="#Áåçûìÿííûé_ãðàäèåíò_29"/><linearGradient id="Áåçûìÿííûé_ãðàäèåíò_28-8" x1="520.63" y1="100.41" x2="523.54" y2="100.41" gradientTransform="translate(3.52 -20.66) rotate(4.96)" xlink:href="#Áåçûìÿííûé_ãðàäèåíò_28"/><linearGradient id="Áåçûìÿííûé_ãðàäèåíò_29-8" x1="520.28" y1="100.7" x2="522.68" y2="100.7" xlink:href="#Áåçûìÿííûé_ãðàäèåíò_29"/><linearGradient id="Áåçûìÿííûé_ãðàäèåíò_28-9" x1="495.33" y1="85.49" x2="498.23" y2="85.49" gradientTransform="translate(3.52 -20.66) rotate(4.96)" xlink:href="#Áåçûìÿííûé_ãðàäèåíò_28"/><linearGradient id="Áåçûìÿííûé_ãðàäèåíò_29-9" x1="494.97" y1="85.78" x2="497.37" y2="85.78" xlink:href="#Áåçûìÿííûé_ãðàäèåíò_29"/><linearGradient id="Áåçûìÿííûé_ãðàäèåíò_28-10" x1="507.38" y1="104.77" x2="507.38" y2="43.02" gradientTransform="translate(3.52 -20.66) rotate(4.96)" xlink:href="#Áåçûìÿííûé_ãðàäèåíò_28"/><filter id="luminosity-noclip-6" x="460.38" y="49.26" width="31.41" height="26.34" filterUnits="userSpaceOnUse" color-interpolation-filters="sRGB"><feFlood flood-color="#fff" result="bg"/><feBlend in="SourceGraphic" in2="bg"/></filter><mask id="mask-6" x="460.38" y="49.26" width="31.41" height="26.34" maskUnits="userSpaceOnUse"><g class="cls-3"><polygon class="cls-4" points="489.41 75.6 481.48 74.95 460.38 60.76 485.82 49.26 491.79 49.75 489.41 75.6"/></g></mask><linearGradient id="Áåçûìÿííûé_ãðàäèåíò_31-2" x1="462.19" y1="40.91" x2="492.53" y2="40.91" xlink:href="#Áåçûìÿííûé_ãðàäèåíò_31"/><linearGradient id="Áåçûìÿííûé_ãðàäèåíò_28-11" x1="470.51" y1="40.15" x2="514.43" y2="40.15" gradientTransform="translate(3.52 -20.66) rotate(4.96)" xlink:href="#Áåçûìÿííûé_ãðàäèåíò_28"/><linearGradient id="Áåçûìÿííûé_ãðàäèåíò_28-12" x1="506.44" y1="52.23" x2="500.74" y2="42.29" gradientTransform="translate(3.52 -20.66) rotate(4.96)" xlink:href="#Áåçûìÿííûé_ãðàäèåíò_28"/><linearGradient id="Áåçûìÿííûé_ãðàäèåíò_29-10" x1="481.45" y1="47.57" x2="481.45" y2="33.96" xlink:href="#Áåçûìÿííûé_ãðàäèåíò_29"/><linearGradient id="Áåçûìÿííûé_ãðàäèåíò_29-11" x1="482.36" y1="36.93" x2="493.75" y2="36.93" xlink:href="#Áåçûìÿííûé_ãðàäèåíò_29"/><linearGradient id="Áåçûìÿííûé_ãðàäèåíò_29-12" x1="485.3" y1="38.55" x2="496.7" y2="38.55" xlink:href="#Áåçûìÿííûé_ãðàäèåíò_29"/><linearGradient id="Áåçûìÿííûé_ãðàäèåíò_29-13" x1="488.24" y1="40.18" x2="499.64" y2="40.18" xlink:href="#Áåçûìÿííûé_ãðàäèåíò_29"/><linearGradient id="Áåçûìÿííûé_ãðàäèåíò_29-14" x1="491.19" y1="41.8" x2="502.59" y2="41.8" xlink:href="#Áåçûìÿííûé_ãðàäèåíò_29"/><linearGradient id="Áåçûìÿííûé_ãðàäèåíò_28-13" x1="488.25" y1="60.75" x2="491.16" y2="60.75" gradientTransform="translate(3.52 -20.66) rotate(4.96)" xlink:href="#Áåçûìÿííûé_ãðàäèåíò_28"/><linearGradient id="Áåçûìÿííûé_ãðàäèåíò_29-15" x1="487.89" y1="61.04" x2="490.3" y2="61.04" xlink:href="#Áåçûìÿííûé_ãðàäèåíò_29"/><linearGradient id="Áåçûìÿííûé_ãðàäèåíò_28-14" x1="462.95" y1="45.83" x2="465.85" y2="45.83" gradientTransform="translate(3.52 -20.66) rotate(4.96)" xlink:href="#Áåçûìÿííûé_ãðàäèåíò_28"/><linearGradient id="Áåçûìÿííûé_ãðàäèåíò_29-16" x1="462.59" y1="46.12" x2="464.99" y2="46.12" xlink:href="#Áåçûìÿííûé_ãðàäèåíò_29"/><linearGradient id="Áåçûìÿííûé_ãðàäèåíò_28-15" x1="487.94" y1="118.72" x2="490.85" y2="118.72" gradientTransform="translate(3.52 -20.66) rotate(4.96)" xlink:href="#Áåçûìÿííûé_ãðàäèåíò_28"/><linearGradient id="Áåçûìÿííûé_ãðàäèåíò_29-17" x1="487.58" y1="119.01" x2="489.99" y2="119.01" xlink:href="#Áåçûìÿííûé_ãðàäèåíò_29"/><linearGradient id="Áåçûìÿííûé_ãðàäèåíò_28-16" x1="462.64" y1="103.8" x2="465.54" y2="103.8" gradientTransform="translate(3.52 -20.66) rotate(4.96)" xlink:href="#Áåçûìÿííûé_ãðàäèåíò_28"/><linearGradient id="Áåçûìÿííûé_ãðàäèåíò_29-18" x1="462.28" y1="104.09" x2="464.68" y2="104.09" xlink:href="#Áåçûìÿííûé_ãðàäèåíò_29"/><linearGradient id="Áåçûìÿííûé_ãðàäèåíò_28-17" x1="572.57" y1="104.43" x2="572.57" y2="42.68" gradientTransform="translate(3.52 -20.66) rotate(4.96)" xlink:href="#Áåçûìÿííûé_ãðàäèåíò_28"/><filter id="luminosity-noclip-7" x="525.35" y="54.57" width="31.41" height="26.34" filterUnits="userSpaceOnUse" color-interpolation-filters="sRGB"><feFlood flood-color="#fff" result="bg"/><feBlend in="SourceGraphic" in2="bg"/></filter><mask id="mask-7" x="525.35" y="54.57" width="31.41" height="26.34" maskUnits="userSpaceOnUse"><g class="cls-5"><polygon class="cls-6" points="554.38 80.91 546.45 80.26 525.35 66.06 550.79 54.57 556.76 55.06 554.38 80.91"/></g></mask><linearGradient id="Áåçûìÿííûé_ãðàäèåíò_31-3" x1="527.38" y1="40.58" x2="557.72" y2="40.58" xlink:href="#Áåçûìÿííûé_ãðàäèåíò_31"/><linearGradient id="Áåçûìÿííûé_ãðàäèåíò_28-18" x1="535.69" y1="39.81" x2="579.62" y2="39.81" gradientTransform="translate(3.52 -20.66) rotate(4.96)" xlink:href="#Áåçûìÿííûé_ãðàäèåíò_28"/><linearGradient id="Áåçûìÿííûé_ãðàäèåíò_28-19" x1="571.62" y1="51.89" x2="565.93" y2="41.95" gradientTransform="translate(3.52 -20.66) rotate(4.96)" xlink:href="#Áåçûìÿííûé_ãðàäèåíò_28"/><linearGradient id="Áåçûìÿííûé_ãðàäèåíò_29-19" x1="546.64" y1="47.23" x2="546.64" y2="33.62" xlink:href="#Áåçûìÿííûé_ãðàäèåíò_29"/><linearGradient id="Áåçûìÿííûé_ãðàäèåíò_29-20" x1="547.54" y1="36.59" x2="558.94" y2="36.59" xlink:href="#Áåçûìÿííûé_ãðàäèåíò_29"/><linearGradient id="Áåçûìÿííûé_ãðàäèåíò_29-21" x1="550.49" y1="38.22" x2="561.89" y2="38.22" xlink:href="#Áåçûìÿííûé_ãðàäèåíò_29"/><linearGradient id="Áåçûìÿííûé_ãðàäèåíò_29-22" x1="553.43" y1="39.84" x2="564.83" y2="39.84" xlink:href="#Áåçûìÿííûé_ãðàäèåíò_29"/><linearGradient id="Áåçûìÿííûé_ãðàäèåíò_29-23" x1="556.37" y1="41.47" x2="567.77" y2="41.47" xlink:href="#Áåçûìÿííûé_ãðàäèåíò_29"/><linearGradient id="Áåçûìÿííûé_ãðàäèåíò_28-20" x1="553.44" y1="60.42" x2="556.34" y2="60.42" gradientTransform="translate(3.52 -20.66) rotate(4.96)" xlink:href="#Áåçûìÿííûé_ãðàäèåíò_28"/><linearGradient id="Áåçûìÿííûé_ãðàäèåíò_29-24" x1="553.08" y1="60.71" x2="555.48" y2="60.71" xlink:href="#Áåçûìÿííûé_ãðàäèåíò_29"/><linearGradient id="Áåçûìÿííûé_ãðàäèåíò_28-21" x1="528.14" y1="45.5" x2="531.04" y2="45.5" gradientTransform="translate(3.52 -20.66) rotate(4.96)" xlink:href="#Áåçûìÿííûé_ãðàäèåíò_28"/><linearGradient id="Áåçûìÿííûé_ãðàäèåíò_29-25" x1="527.78" y1="45.79" x2="530.18" y2="45.79" xlink:href="#Áåçûìÿííûé_ãðàäèåíò_29"/><linearGradient id="Áåçûìÿííûé_ãðàäèåíò_28-22" x1="553.13" y1="118.38" x2="556.03" y2="118.38" gradientTransform="translate(3.52 -20.66) rotate(4.96)" xlink:href="#Áåçûìÿííûé_ãðàäèåíò_28"/><linearGradient id="Áåçûìÿííûé_ãðàäèåíò_29-26" x1="552.77" y1="118.67" x2="555.17" y2="118.67" xlink:href="#Áåçûìÿííûé_ãðàäèåíò_29"/><linearGradient id="Áåçûìÿííûé_ãðàäèåíò_28-23" x1="527.83" y1="103.46" x2="530.73" y2="103.46" gradientTransform="translate(3.52 -20.66) rotate(4.96)" xlink:href="#Áåçûìÿííûé_ãðàäèåíò_28"/><linearGradient id="Áåçûìÿííûé_ãðàäèåíò_29-27" x1="527.47" y1="103.75" x2="529.87" y2="103.75" xlink:href="#Áåçûìÿííûé_ãðàäèåíò_29"/><linearGradient id="Áåçûìÿííûé_ãðàäèåíò_28-24" x1="539.88" y1="122.48" x2="539.88" y2="60.73" gradientTransform="translate(3.52 -20.66) rotate(4.96)" xlink:href="#Áåçûìÿííûé_ãðàäèåíò_28"/><filter id="luminosity-noclip-8" x="491.22" y="69.72" width="31.41" height="26.34" filterUnits="userSpaceOnUse" color-interpolation-filters="sRGB"><feFlood flood-color="#fff" result="bg"/><feBlend in="SourceGraphic" in2="bg"/></filter><mask id="mask-8" x="491.22" y="69.72" width="31.41" height="26.34" maskUnits="userSpaceOnUse"><g class="cls-7"><polygon class="cls-8" points="520.25 96.06 512.32 95.41 491.23 81.22 516.67 69.72 522.63 70.21 520.25 96.06"/></g></mask><linearGradient id="Áåçûìÿííûé_ãðàäèåíò_31-4" x1="494.69" y1="58.62" x2="525.03" y2="58.62" xlink:href="#Áåçûìÿííûé_ãðàäèåíò_31"/><linearGradient id="Áåçûìÿííûé_ãðàäèåíò_28-25" x1="503" y1="57.86" x2="546.93" y2="57.86" gradientTransform="translate(3.52 -20.66) rotate(4.96)" xlink:href="#Áåçûìÿííûé_ãðàäèåíò_28"/><linearGradient id="Áåçûìÿííûé_ãðàäèåíò_28-26" x1="538.93" y1="69.94" x2="533.24" y2="60" gradientTransform="translate(3.52 -20.66) rotate(4.96)" xlink:href="#Áåçûìÿííûé_ãðàäèåíò_28"/><linearGradient id="Áåçûìÿííûé_ãðàäèåíò_29-28" x1="513.95" y1="65.28" x2="513.95" y2="51.67" xlink:href="#Áåçûìÿííûé_ãðàäèåíò_29"/><linearGradient id="Áåçûìÿííûé_ãðàäèåíò_29-29" x1="514.85" y1="54.64" x2="526.25" y2="54.64" xlink:href="#Áåçûìÿííûé_ãðàäèåíò_29"/><linearGradient id="Áåçûìÿííûé_ãðàäèåíò_29-30" x1="517.8" y1="56.26" x2="529.2" y2="56.26" xlink:href="#Áåçûìÿííûé_ãðàäèåíò_29"/><linearGradient id="Áåçûìÿííûé_ãðàäèåíò_29-31" x1="520.74" y1="57.89" x2="532.14" y2="57.89" xlink:href="#Áåçûìÿííûé_ãðàäèåíò_29"/><linearGradient id="Áåçûìÿííûé_ãðàäèåíò_29-32" x1="523.69" y1="59.51" x2="535.08" y2="59.51" xlink:href="#Áåçûìÿííûé_ãðàäèåíò_29"/><linearGradient id="Áåçûìÿííûé_ãðàäèåíò_28-27" x1="520.75" y1="78.46" x2="523.66" y2="78.46" gradientTransform="translate(3.52 -20.66) rotate(4.96)" xlink:href="#Áåçûìÿííûé_ãðàäèåíò_28"/><linearGradient id="Áåçûìÿííûé_ãðàäèåíò_29-33" x1="520.39" y1="78.75" x2="522.79" y2="78.75" xlink:href="#Áåçûìÿííûé_ãðàäèåíò_29"/><linearGradient id="Áåçûìÿííûé_ãðàäèåíò_28-28" x1="495.45" y1="63.54" x2="498.35" y2="63.54" gradientTransform="translate(3.52 -20.66) rotate(4.96)" xlink:href="#Áåçûìÿííûé_ãðàäèåíò_28"/><linearGradient id="Áåçûìÿííûé_ãðàäèåíò_29-34" x1="495.09" y1="63.83" x2="497.49" y2="63.83" xlink:href="#Áåçûìÿííûé_ãðàäèåíò_29"/><linearGradient id="Áåçûìÿííûé_ãðàäèåíò_28-29" x1="520.44" y1="136.43" x2="523.35" y2="136.43" gradientTransform="translate(3.52 -20.66) rotate(4.96)" xlink:href="#Áåçûìÿííûé_ãðàäèåíò_28"/><linearGradient id="Áåçûìÿííûé_ãðàäèåíò_29-35" x1="520.08" y1="136.72" x2="522.48" y2="136.72" xlink:href="#Áåçûìÿííûé_ãðàäèåíò_29"/><linearGradient id="Áåçûìÿííûé_ãðàäèåíò_28-30" x1="495.14" y1="121.51" x2="498.04" y2="121.51" gradientTransform="translate(3.52 -20.66) rotate(4.96)" xlink:href="#Áåçûìÿííûé_ãðàäèåíò_28"/><linearGradient id="Áåçûìÿííûé_ãðàäèåíò_29-36" x1="494.78" y1="121.8" x2="497.18" y2="121.8" xlink:href="#Áåçûìÿííûé_ãðàäèåíò_29"/><linearGradient id="Áåçûìÿííûé_ãðàäèåíò_21-2" x1="1764.42" y1="112.63" x2="1765.46" y2="112.63" gradientTransform="translate(-1094.31 -115.98) rotate(4.96)" xlink:href="#Áåçûìÿííûé_ãðàäèåíò_21"/><linearGradient id="Áåçûìÿííûé_ãðàäèåíò_19-3" x1="669.33" y1="3.23" x2="625.23" y2="38.59" xlink:href="#Áåçûìÿííûé_ãðàäèåíò_19"/><linearGradient id="Áåçûìÿííûé_ãðàäèåíò_28-31" x1="469.76" y1="648.47" x2="429.81" y2="680.51" xlink:href="#Áåçûìÿííûé_ãðàäèåíò_28"/><linearGradient id="Áåçûìÿííûé_ãðàäèåíò_19-4" x1="495.04" y1="145.45" x2="450.94" y2="180.81" xlink:href="#Áåçûìÿííûé_ãðàäèåíò_19"/><linearGradient id="Áåçûìÿííûé_ãðàäèåíò_28-32" x1="511.35" y1="858.78" x2="471.4" y2="890.81" xlink:href="#Áåçûìÿííûé_ãðàäèåíò_28"/><linearGradient id="Áåçûìÿííûé_ãðàäèåíò_19-5" x1="495.1" y1="134.28" x2="451" y2="169.64" xlink:href="#Áåçûìÿííûé_ãðàäèåíò_19"/><linearGradient id="Áåçûìÿííûé_ãðàäèåíò_28-34" x1="500.21" y1="849.07" x2="460.26" y2="881.1" xlink:href="#Áåçûìÿííûé_ãðàäèåíò_28"/></defs><title>Asset 1</title><g id="Layer_2" data-name="Layer 2"><g id="Ñëîé_1" data-name="Ñëîé 1"><rect class="cls-9" width="700" height="252.09"/><polygon class="cls-10" points="0 207.14 539.96 1.62 0 1.62 0 207.14"/><polygon class="cls-11" points="0.31 213.59 551.65 0.62 540.27 0.62 0.31 209.59 0.31 213.59"/><g class="cls-12"><path class="cls-13" d="M448.84,119.63a10.48,10.48,0,0,1-4.89-1.56L404.38,91.45a.37.37,0,0,1-.1-.53.4.4,0,0,1,.55-.09l39.58,26.63a10.56,10.56,0,0,0,9.21.75l66-29.84a3,3,0,0,0,2-2.2,2.88,2.88,0,0,0-1.58-2.49L480.23,56.86a3.58,3.58,0,0,1-1.91-3.18,3.67,3.67,0,0,1,2.46-2.82L510.5,37.44a11.45,11.45,0,0,1,10,.82l80,53.79a3.57,3.57,0,0,1,1.91,3.18A3.67,3.67,0,0,1,599.9,98l-52.33,23.64a3,3,0,0,0-2,2.2,2.88,2.88,0,0,0,1.58,2.49.37.37,0,0,1,.1.53.4.4,0,0,1-.55.09,3.57,3.57,0,0,1-1.91-3.18,3.67,3.67,0,0,1,2.46-2.82l52.33-23.64a3,3,0,0,0,2-2.2A2.88,2.88,0,0,0,600,92.66L520,38.88a10.56,10.56,0,0,0-9.21-.75L481.12,51.55a3,3,0,0,0-2,2.2,2.88,2.88,0,0,0,1.58,2.49l39.86,26.82a3.58,3.58,0,0,1,1.91,3.18A3.67,3.67,0,0,1,520,89.05l-66,29.84A10.62,10.62,0,0,1,448.84,119.63Z"/><path class="cls-13" d="M604.11,142.45a.39.39,0,0,1-.32-.22.37.37,0,0,1,.19-.5l78-35.23c1.67-.76,2.66-1.84,2.77-3.05s-.66-2.44-2.17-3.46l-67.5-45.41a14.31,14.31,0,0,0-12.48-1l-16.72,7.55a.4.4,0,0,1-.52-.18.37.37,0,0,1,.19-.5l16.72-7.55A15.2,15.2,0,0,1,615.52,54L683,99.37c1.75,1.18,2.64,2.65,2.5,4.14s-1.28,2.8-3.22,3.68l-78,35.23A.41.41,0,0,1,604.11,142.45Z"/><path class="cls-13" d="M416.92,242.28a11.8,11.8,0,0,1-5.51-1.76L315,175.65c-1.5-1-2.25-2.27-2.14-3.55s1.1-2.4,2.75-3.15L352,152.48a12.9,12.9,0,0,1,11.25.92l60.83,40.93a12,12,0,0,0,10.47.86l63.76-28.8a.4.4,0,0,1,.52.18.37.37,0,0,1-.19.5l-63.77,28.8a12.9,12.9,0,0,1-11.25-.92L362.85,154a12,12,0,0,0-10.47-.86l-36.45,16.46a3.4,3.4,0,0,0-2.3,2.53,3.3,3.3,0,0,0,1.81,2.86l96.43,64.87a12,12,0,0,0,10.47.86l138.27-62.46a.4.4,0,0,1,.52.18.37.37,0,0,1-.19.5L422.66,241.44A12,12,0,0,1,416.92,242.28Z"/><path class="cls-13" d="M436.58,158.59a11.8,11.8,0,0,1-5.51-1.76l-70-47.09a12,12,0,0,0-10.47-.86L272,144.36a.4.4,0,0,1-.52-.18.37.37,0,0,1,.19-.5l78.54-35.48a12.9,12.9,0,0,1,11.25.92l70,47.09a12,12,0,0,0,10.47.86l25.49-11.52a.4.4,0,0,1,.52.18.37.37,0,0,1-.19.5l-25.49,11.52A12,12,0,0,1,436.58,158.59Z"/><path class="cls-13" d="M516.75,222.2a.4.4,0,0,1-.19-.07l-20.73-13.95a.37.37,0,0,1-.1-.53.4.4,0,0,1,.55-.09L517,221.51a.37.37,0,0,1,.1.53A.4.4,0,0,1,516.75,222.2Z"/><path class="cls-13" d="M469.34,83.5a.39.39,0,0,1-.32-.22.37.37,0,0,1,.19-.5l30.27-13.67a.4.4,0,0,1,.52.18.37.37,0,0,1-.19.5L469.54,83.47A.41.41,0,0,1,469.34,83.5Z"/><path class="cls-13" d="M680.27,148.33a.4.4,0,0,1-.19-.07l-35.82-24.1a.37.37,0,0,1-.1-.53.4.4,0,0,1,.55-.09l35.82,24.1a.37.37,0,0,1,.1.53A.4.4,0,0,1,680.27,148.33Z"/><path class="cls-13" d="M469,90.58l-13-1.06a.38.38,0,0,1-.36-.41l.67-7.22a.38.38,0,0,1,.14-.26.41.41,0,0,1,.29-.09l13,1.06a.38.38,0,0,1,.36.41l-.67,7.22A.39.39,0,0,1,469,90.58Zm-12.5-1.78,12.18,1,.6-6.46-12.18-1Z"/><path class="cls-13" d="M625.41,87.43l-13-1.06a.38.38,0,0,1-.36-.41l.67-7.22a.39.39,0,0,1,.43-.35l13,1.06a.38.38,0,0,1,.36.41l-.67,7.22A.39.39,0,0,1,625.41,87.43Zm-12.5-1.78,12.18,1,.6-6.46-12.18-1Z"/><path class="cls-13" d="M421.56,225.78a14.55,14.55,0,0,1-6.79-2.16c-1.83-1.23-2.75-2.76-2.61-4.32s1.34-2.92,3.36-3.83a15.9,15.9,0,0,1,13.87,1.13h0c1.83,1.23,2.75,2.76,2.61,4.32s-1.34,2.92-3.36,3.83A14.74,14.74,0,0,1,421.56,225.78Zm1-10.6a13.91,13.91,0,0,0-6.68,1c-1.76.8-2.79,1.94-2.91,3.21s.69,2.57,2.28,3.64a15,15,0,0,0,13.09,1.07c1.76-.8,2.79-1.94,2.91-3.21s-.69-2.57-2.28-3.64A13.73,13.73,0,0,0,422.53,215.18Z"/><path class="cls-13" d="M398.58,210.32a14.55,14.55,0,0,1-6.79-2.16c-1.83-1.23-2.75-2.76-2.61-4.32s1.34-2.92,3.36-3.83a15.9,15.9,0,0,1,13.87,1.13h0c1.83,1.23,2.75,2.76,2.61,4.32s-1.34,2.92-3.36,3.83A14.75,14.75,0,0,1,398.58,210.32Zm1-10.6a13.91,13.91,0,0,0-6.68,1c-1.76.8-2.79,1.94-2.91,3.21s.69,2.57,2.28,3.64a15,15,0,0,0,13.09,1.07c1.76-.8,2.79-1.94,2.91-3.21s-.69-2.57-2.28-3.64h0A13.73,13.73,0,0,0,399.55,199.72Z"/><path class="cls-13" d="M375.6,194.86a14.55,14.55,0,0,1-6.79-2.16c-1.83-1.23-2.75-2.76-2.61-4.32s1.34-2.92,3.36-3.83a15.9,15.9,0,0,1,13.87,1.13c1.83,1.23,2.75,2.76,2.61,4.32s-1.34,2.92-3.36,3.83A14.75,14.75,0,0,1,375.6,194.86Zm1-10.6a13.91,13.91,0,0,0-6.68,1c-1.76.8-2.79,1.94-2.91,3.21s.69,2.57,2.28,3.64a15,15,0,0,0,13.09,1.07c1.76-.8,2.79-1.94,2.91-3.21s-.69-2.57-2.28-3.64h0A13.73,13.73,0,0,0,376.58,184.26Z"/><path class="cls-13" d="M352.62,179.4a14.54,14.54,0,0,1-6.79-2.16c-1.83-1.23-2.75-2.76-2.61-4.32s1.34-2.92,3.36-3.83a15.9,15.9,0,0,1,13.87,1.13h0c1.83,1.23,2.75,2.76,2.61,4.32s-1.34,2.92-3.36,3.83A14.75,14.75,0,0,1,352.62,179.4Zm1-10.6a13.92,13.92,0,0,0-6.68,1c-1.76.8-2.79,1.94-2.91,3.21s.69,2.57,2.28,3.64a15,15,0,0,0,13.09,1.07c1.76-.8,2.79-1.94,2.91-3.21s-.69-2.57-2.28-3.64A13.73,13.73,0,0,0,353.6,168.8Z"/><path class="cls-13" d="M360.19,170.9a.39.39,0,0,1-.32-.22.37.37,0,0,1,.19-.5l16.66-7.52a.4.4,0,0,1,.52.18.37.37,0,0,1-.19.5l-16.66,7.52A.41.41,0,0,1,360.19,170.9Z"/><path class="cls-13" d="M442,232.65a.4.4,0,0,1-.19-.07l-12.45-8.47a.37.37,0,0,1-.09-.53.4.4,0,0,1,.55-.09L442.26,232a.37.37,0,0,1,.09.53A.4.4,0,0,1,442,232.65Z"/></g><path class="cls-14" d="M518.39,248.27l-24.8-16.69c-.54-.36-.42-.91.27-1.22l8.08-3.65,26.75,18-8.08,3.65A2.55,2.55,0,0,1,518.39,248.27Z"/><path class="cls-15" d="M557.38,231.5l.46-5-8.49-.69-17.86-12a2.08,2.08,0,0,0-1.81-.08L510,222.6l-8.44-.68-.46,5h0a.51.51,0,0,0,.27.44L527,244.63a2.08,2.08,0,0,0,1.81.08L556.89,232A.75.75,0,0,0,557.38,231.5Z"/><path class="cls-16" d="M527.43,239.6l-25.62-17.24c-.44-.29-.34-.74.22-1l28.12-12.7a2.08,2.08,0,0,1,1.81.08L557.58,226c.44.29.34.74-.22,1l-28.12,12.7A2.08,2.08,0,0,1,527.43,239.6Z"/><path class="cls-17" d="M527.69,237.85,505,222.57c-.39-.26-.3-.66.2-.88l24.93-11.26a1.84,1.84,0,0,1,1.6.07l22.71,15.28c.39.26.3.66-.2.88l-24.93,11.26A1.84,1.84,0,0,1,527.69,237.85Z"/><path class="cls-18" d="M527.85,236.74,507,222.7c-.36-.24-.28-.6.18-.81l22.9-10.34a1.69,1.69,0,0,1,1.47.06l20.86,14c.36.24.28.6-.18.81l-22.9,10.34A1.69,1.69,0,0,1,527.85,236.74Z"/><polygon class="cls-19" points="529.26 223.34 526.82 221.7 528.3 221.03 530.74 222.67 529.26 223.34"/><polygon class="cls-19" points="534.06 223.53 531.36 224.75 530.02 223.85 532.73 222.63 534.06 223.53"/><polygon class="cls-19" points="528.65 223.61 527.17 224.28 525.84 223.38 527.32 222.72 528.65 223.61"/><polygon class="cls-19" points="533.25 226.71 531.78 227.38 527.93 224.79 529.41 224.13 533.25 226.71"/><path class="cls-14" d="M341.83,192.43,317,175.74c-.54-.36-.42-.91.27-1.22l8.08-3.65,26.75,18-8.08,3.65A2.55,2.55,0,0,1,341.83,192.43Z"/><path class="cls-20" d="M380.83,175.66l.46-5-8.49-.69-17.86-12a2.08,2.08,0,0,0-1.81-.08l-19.71,8.9-8.44-.68-.46,5h0a.51.51,0,0,0,.27.44l25.62,17.24a2.08,2.08,0,0,0,1.81.08l28.12-12.7A.75.75,0,0,0,380.83,175.66Z"/><path class="cls-21" d="M350.88,183.77l-25.62-17.24c-.44-.29-.34-.74.22-1l28.12-12.7a2.08,2.08,0,0,1,1.81.08L381,170.15c.44.29.34.74-.22,1l-28.12,12.7A2.08,2.08,0,0,1,350.88,183.77Z"/><path class="cls-17" d="M351.13,182l-22.71-15.28c-.39-.26-.3-.66.2-.88l24.93-11.26a1.84,1.84,0,0,1,1.6.07l22.71,15.28c.39.26.3.66-.2.88l-24.93,11.26A1.84,1.84,0,0,1,351.13,182Z"/><path class="cls-18" d="M351.3,180.9l-20.86-14c-.36-.24-.28-.6.18-.81l22.9-10.34a1.69,1.69,0,0,1,1.47.06l20.86,14c.36.24.28.6-.18.81L352.77,181A1.69,1.69,0,0,1,351.3,180.9Z"/><polygon class="cls-19" points="352.71 167.5 350.27 165.86 351.75 165.19 354.18 166.83 352.71 167.5"/><polygon class="cls-19" points="357.51 167.69 354.8 168.91 353.47 168.01 356.17 166.79 357.51 167.69"/><polygon class="cls-19" points="352.09 167.78 350.62 168.44 349.29 167.55 350.76 166.88 352.09 167.78"/><polygon class="cls-19" points="356.7 170.88 355.22 171.54 351.38 168.96 352.86 168.29 356.7 170.88"/><path class="cls-19" d="M568,136.92a.31.31,0,0,1-.26-.17.3.3,0,0,1,.15-.4l118.34-55a2.44,2.44,0,0,0,1.43-2,2.37,2.37,0,0,0-1-2.19L661,59.2a.29.29,0,0,1-.07-.42.32.32,0,0,1,.44-.07L687,76.64a3,3,0,0,1,1.29,2.73,3,3,0,0,1-1.78,2.47l-118.34,55A.32.32,0,0,1,568,136.92Z"/><polygon class="cls-22" points="523.15 64.61 494.53 45.35 526.25 31.02 554.87 50.28 523.15 64.61"/><path class="cls-23" d="M515.86,143.65a2.47,2.47,0,0,1-1.18-.41l-31.31-21.06a1.12,1.12,0,0,1-.51-1,1.15,1.15,0,0,1,.69-.95l34.7-15.67a2.5,2.5,0,0,1,2.41.2L552,125.77a1.12,1.12,0,0,1,.51,1,1.15,1.15,0,0,1-.69.95l-34.7,15.67A2.5,2.5,0,0,1,515.86,143.65Zm3.55-38.51a1.59,1.59,0,0,0-.79.13l-34.7,15.67a.31.31,0,0,0-.19.26.3.3,0,0,0,.14.28l31.31,21.06a1.59,1.59,0,0,0,1.53.13L551.42,127a.31.31,0,0,0,.19-.26.3.3,0,0,0-.14-.28L520.16,105.4A1.57,1.57,0,0,0,519.41,105.14Z"/><g class="cls-24"><polygon class="cls-17" points="516.37 138.2 492.11 121.89 518.99 109.75 543.24 126.06 516.37 138.2"/></g><polygon class="cls-13" points="517.21 129.06 488.59 109.8 520.3 95.48 548.92 114.73 517.21 129.06"/><polygon class="cls-25" points="554.87 50.28 548.92 114.73 517.21 129.06 523.15 64.61 554.87 50.28"/><polygon class="cls-17" points="494.53 45.35 488.59 109.8 517.21 129.06 523.15 64.61 494.53 45.35"/><g class="cls-26"><polygon class="cls-18" points="496.18 49.79 490.84 107.73 515.58 124.37 520.92 66.44 496.18 49.79"/></g><polygon class="cls-18" points="548.91 65.48 548.75 67.18 526.55 77.21 526.71 75.51 548.91 65.48"/><polygon class="cls-18" points="548.24 72.68 548.09 74.39 525.88 84.42 526.04 82.71 548.24 72.68"/><polygon class="cls-18" points="547.58 79.89 547.42 81.59 525.22 91.62 525.38 89.92 547.58 79.89"/><polygon class="cls-18" points="546.91 87.09 546.76 88.79 524.56 98.82 524.71 97.12 546.91 87.09"/><polygon class="cls-18" points="546.25 94.29 546.09 96 523.89 106.03 524.05 104.32 546.25 94.29"/><polygon class="cls-18" points="545.59 101.5 545.43 103.2 523.23 113.23 523.38 111.53 545.59 101.5"/><polygon class="cls-13" points="523.21 64.02 495.07 45.09 494.53 45.33 523.15 64.59 554.87 50.26 554.38 49.93 523.21 64.02"/><g class="cls-27"><polygon class="cls-28" points="523.56 60.19 515.63 59.55 494.53 45.35 519.98 33.86 525.94 34.34 523.56 60.19"/></g><polygon class="cls-29" points="523.7 58.71 502.93 44.74 525.94 34.34 546.71 48.31 523.7 58.71"/><polygon class="cls-30" points="546.71 48.31 546.57 49.8 523.56 60.19 523.7 58.71 546.71 48.31"/><polygon class="cls-31" points="502.93 44.74 502.79 46.22 523.56 60.19 523.7 58.71 502.93 44.74"/><polygon class="cls-32" points="516.31 46.03 515.39 45.41 515.51 44.98 524.97 40.67 526.17 41.34 525.9 41.7 516.31 46.03"/><polygon class="cls-33" points="524.98 41.08 525.9 41.7 526.56 41.4 525.04 40.38 514.8 45.01 515.39 45.41 524.98 41.08"/><polygon class="cls-32" points="519.1 47.9 518.18 47.28 518.3 46.85 527.76 42.54 528.96 43.22 528.69 43.57 519.1 47.9"/><polygon class="cls-34" points="527.77 42.95 528.69 43.57 529.35 43.27 527.84 42.26 517.59 46.88 518.18 47.28 527.77 42.95"/><polygon class="cls-32" points="521.9 49.77 520.98 49.16 521.1 48.72 530.55 44.41 531.75 45.09 531.48 45.44 521.9 49.77"/><polygon class="cls-35" points="530.57 44.83 531.48 45.44 532.14 45.15 530.63 44.13 520.38 48.76 520.98 49.16 530.57 44.83"/><polygon class="cls-32" points="524.69 51.65 523.77 51.03 523.89 50.6 533.35 46.29 534.54 46.96 534.27 47.32 524.69 51.65"/><polygon class="cls-36" points="533.36 46.7 534.27 47.32 534.93 47.02 533.42 46 523.18 50.63 523.77 51.03 533.36 46.7"/><g class="cls-26"><polygon class="cls-18" points="489.53 99.62 521.32 84.52 523.15 64.61 494.53 45.35 489.53 99.62"/></g><path class="cls-37" d="M521.69,67.41a2.52,2.52,0,0,0-1-2.1.87.87,0,0,0-.85-.15h0l-.89.41.52.06a1.29,1.29,0,0,0,0,.25,2.52,2.52,0,0,0,1,2.1,1.36,1.36,0,0,0,.25.13l-.29.42.88-.4h0A.81.81,0,0,0,521.69,67.41Z"/><path class="cls-38" d="M520.79,67.82c-.07.74-.63,1-1.26.57a2.52,2.52,0,0,1-1-2.1c.07-.74.63-1,1.26-.57A2.52,2.52,0,0,1,520.79,67.82Z"/><path class="cls-32" d="M520.31,67.49c0,.42-.36.57-.73.33a1.45,1.45,0,0,1-.58-1.21c0-.42.36-.57.73-.33A1.45,1.45,0,0,1,520.31,67.49Z"/><path class="cls-39" d="M497.77,50.35a2.52,2.52,0,0,0-1-2.1.87.87,0,0,0-.85-.15h0l-.89.41.52.06a1.29,1.29,0,0,0,0,.25,2.52,2.52,0,0,0,1,2.1,1.36,1.36,0,0,0,.25.13l-.29.42.88-.4h0A.81.81,0,0,0,497.77,50.35Z"/><path class="cls-40" d="M496.87,50.76c-.07.74-.63,1-1.26.57a2.52,2.52,0,0,1-1-2.1c.07-.74.63-1,1.26-.57A2.52,2.52,0,0,1,496.87,50.76Z"/><path class="cls-32" d="M496.39,50.44c0,.42-.36.57-.73.33a1.45,1.45,0,0,1-.58-1.21c0-.42.36-.57.73-.33A1.45,1.45,0,0,1,496.39,50.44Z"/><path class="cls-41" d="M516.37,125.13a2.52,2.52,0,0,0-1-2.1.87.87,0,0,0-.85-.15h0l-.89.41.52.06a1.29,1.29,0,0,0,0,.25,2.52,2.52,0,0,0,1,2.1,1.36,1.36,0,0,0,.25.13l-.29.42.88-.4h0A.81.81,0,0,0,516.37,125.13Z"/><path class="cls-42" d="M515.47,125.54c-.07.74-.63,1-1.26.57a2.52,2.52,0,0,1-1-2.1c.07-.74.63-1,1.26-.57A2.52,2.52,0,0,1,515.47,125.54Z"/><path class="cls-32" d="M515,125.22c0,.42-.36.57-.73.33a1.45,1.45,0,0,1-.58-1.21c0-.42.36-.57.73-.33A1.45,1.45,0,0,1,515,125.22Z"/><path class="cls-43" d="M492.45,108.08a2.52,2.52,0,0,0-1-2.1.87.87,0,0,0-.85-.15h0l-.89.41.52.06a1.29,1.29,0,0,0,0,.25,2.52,2.52,0,0,0,1,2.1,1.36,1.36,0,0,0,.25.13l-.29.42.88-.4h0A.81.81,0,0,0,492.45,108.08Z"/><path class="cls-44" d="M491.55,108.49c-.07.74-.63,1-1.26.57a2.52,2.52,0,0,1-1-2.1c.07-.74.63-1,1.26-.57A2.52,2.52,0,0,1,491.55,108.49Z"/><path class="cls-32" d="M491.06,108.16c0,.42-.36.57-.73.33a1.45,1.45,0,0,1-.58-1.21c0-.42.36-.57.73-.33A1.45,1.45,0,0,1,491.06,108.16Z"/><g class="cls-12"><path class="cls-13" d="M482,156a.33.33,0,0,1-.16-.05L453.4,136.77a.31.31,0,0,1-.14-.28.31.31,0,0,1,.19-.26L485,122a.33.33,0,0,1,.32,0l28.44,19.14a.31.31,0,0,1,.14.28.31.31,0,0,1-.19.26l-31.52,14.24A.34.34,0,0,1,482,156Zm-27.77-19.39,27.83,18.72,30.84-13.93-27.83-18.72Z"/></g><g class="cls-12"><path class="cls-13" d="M547,161.27a.33.33,0,0,1-.16-.05l-28.44-19.14a.31.31,0,0,1-.14-.28.31.31,0,0,1,.19-.26l31.52-14.24a.33.33,0,0,1,.32,0l28.44,19.14a.31.31,0,0,1,.14.28.31.31,0,0,1-.19.26l-31.52,14.24A.34.34,0,0,1,547,161.27ZM519.2,141.87,547,160.6l30.84-13.93L550,127.94Z"/></g><polygon class="cls-22" points="489 80.01 460.38 60.76 492.1 46.43 520.72 65.69 489 80.01"/><g class="cls-24"><polygon class="cls-17" points="426.2 178.89 401.95 162.58 484.84 125.16 509.09 141.47 426.2 178.89"/></g><polygon class="cls-13" points="483.06 144.47 454.44 125.21 486.15 110.88 514.77 130.14 483.06 144.47"/><polygon class="cls-45" points="520.72 65.69 514.77 130.14 483.06 144.47 489 80.01 520.72 65.69"/><polygon class="cls-17" points="460.38 60.76 454.44 125.21 483.06 144.47 489 80.01 460.38 60.76"/><g class="cls-26"><polygon class="cls-18" points="462.03 65.2 456.69 123.13 481.43 139.78 486.77 81.85 462.03 65.2"/></g><polygon class="cls-18" points="514.76 80.89 514.6 82.59 492.4 92.62 492.56 90.92 514.76 80.89"/><polygon class="cls-18" points="514.09 88.09 513.93 89.8 491.73 99.82 491.89 98.12 514.09 88.09"/><polygon class="cls-18" points="513.43 95.3 513.27 97 491.07 107.03 491.23 105.32 513.43 95.3"/><polygon class="cls-18" points="512.76 102.5 512.61 104.2 490.4 114.23 490.56 112.53 512.76 102.5"/><polygon class="cls-18" points="512.1 109.7 511.94 111.41 489.74 121.43 489.9 119.73 512.1 109.7"/><polygon class="cls-18" points="511.44 116.91 511.28 118.61 489.08 128.64 489.23 126.93 511.44 116.91"/><polygon class="cls-13" points="489.05 79.44 460.92 60.51 460.38 60.76 489 80.01 520.72 65.69 520.23 65.36 489.05 79.44"/><g class="cls-46"><polygon class="cls-47" points="489.41 75.6 481.48 74.95 460.38 60.76 485.82 49.26 491.79 49.75 489.41 75.6"/></g><polygon class="cls-48" points="489.54 74.12 468.78 60.15 491.79 49.75 512.56 63.72 489.54 74.12"/><polygon class="cls-49" points="512.56 63.72 512.42 65.2 489.41 75.6 489.54 74.12 512.56 63.72"/><polygon class="cls-50" points="468.78 60.15 468.64 61.63 489.41 75.6 489.54 74.12 468.78 60.15"/><polygon class="cls-32" points="482.16 61.44 481.24 60.82 481.36 60.39 490.82 56.08 492.01 56.75 491.75 57.11 482.16 61.44"/><polygon class="cls-51" points="490.83 56.49 491.75 57.11 492.4 56.81 490.89 55.79 480.65 60.42 481.24 60.82 490.83 56.49"/><polygon class="cls-32" points="484.95 63.31 484.03 62.69 484.15 62.26 493.61 57.95 494.81 58.62 494.54 58.98 484.95 63.31"/><polygon class="cls-52" points="493.62 58.36 494.54 58.98 495.2 58.68 493.69 57.67 483.44 62.29 484.03 62.69 493.62 58.36"/><polygon class="cls-32" points="487.74 65.18 486.82 64.56 486.94 64.13 496.4 59.82 497.6 60.5 497.33 60.85 487.74 65.18"/><polygon class="cls-53" points="496.41 60.23 497.33 60.85 497.99 60.55 496.48 59.54 486.23 64.17 486.83 64.56 496.41 60.23"/><polygon class="cls-32" points="490.54 67.06 489.62 66.44 489.74 66.01 499.19 61.7 500.39 62.37 500.12 62.73 490.54 67.06"/><polygon class="cls-54" points="499.2 62.11 500.12 62.73 500.78 62.43 499.27 61.41 489.02 66.04 489.62 66.44 499.2 62.11"/><g class="cls-26"><polygon class="cls-18" points="455.38 115.03 487.16 99.93 489 80.01 460.38 60.76 455.38 115.03"/></g><path class="cls-55" d="M487.54,82.81a2.52,2.52,0,0,0-1-2.1.87.87,0,0,0-.85-.15h0l-.89.41.52.06a1.29,1.29,0,0,0,0,.25,2.52,2.52,0,0,0,1,2.1,1.36,1.36,0,0,0,.25.13l-.29.42.88-.4h0A.81.81,0,0,0,487.54,82.81Z"/><path class="cls-56" d="M486.64,83.23c-.07.74-.63,1-1.26.57a2.52,2.52,0,0,1-1-2.1c.07-.74.63-1,1.26-.57A2.52,2.52,0,0,1,486.64,83.23Z"/><path class="cls-32" d="M486.15,82.9c0,.42-.36.57-.73.33a1.45,1.45,0,0,1-.58-1.21c0-.42.36-.57.73-.33A1.45,1.45,0,0,1,486.15,82.9Z"/><path class="cls-57" d="M463.62,65.76a2.52,2.52,0,0,0-1-2.1.87.87,0,0,0-.85-.15h0l-.89.41.52.06a1.29,1.29,0,0,0,0,.25,2.52,2.52,0,0,0,1,2.1,1.36,1.36,0,0,0,.25.13l-.29.42.88-.4h0A.81.81,0,0,0,463.62,65.76Z"/><path class="cls-58" d="M462.72,66.17c-.07.74-.63,1-1.26.57a2.52,2.52,0,0,1-1-2.1c.07-.74.63-1,1.26-.57A2.52,2.52,0,0,1,462.72,66.17Z"/><path class="cls-32" d="M462.24,65.85c0,.42-.36.57-.73.33a1.45,1.45,0,0,1-.58-1.21c0-.42.36-.57.73-.33A1.45,1.45,0,0,1,462.24,65.85Z"/><path class="cls-59" d="M482.22,140.54a2.52,2.52,0,0,0-1-2.1.87.87,0,0,0-.85-.15h0l-.89.41.52.06a1.29,1.29,0,0,0,0,.25,2.52,2.52,0,0,0,1,2.1,1.36,1.36,0,0,0,.25.13l-.29.42.88-.4h0A.81.81,0,0,0,482.22,140.54Z"/><path class="cls-60" d="M481.32,140.95c-.07.74-.63,1-1.26.57a2.52,2.52,0,0,1-1-2.1c.07-.74.63-1,1.26-.57A2.52,2.52,0,0,1,481.32,140.95Z"/><path class="cls-32" d="M480.83,140.62c0,.42-.36.57-.73.33a1.45,1.45,0,0,1-.58-1.21c0-.42.36-.57.73-.33A1.45,1.45,0,0,1,480.83,140.62Z"/><path class="cls-61" d="M458.3,123.48a2.52,2.52,0,0,0-1-2.1.87.87,0,0,0-.85-.15h0l-.89.41.52.06a1.29,1.29,0,0,0,0,.25,2.52,2.52,0,0,0,1,2.1,1.36,1.36,0,0,0,.25.13l-.29.42.88-.4h0A.81.81,0,0,0,458.3,123.48Z"/><path class="cls-62" d="M457.4,123.9c-.07.74-.63,1-1.26.57a2.52,2.52,0,0,1-1-2.1c.07-.74.63-1,1.26-.57A2.52,2.52,0,0,1,457.4,123.9Z"/><path class="cls-32" d="M456.91,123.57c0,.42-.36.57-.73.33a1.45,1.45,0,0,1-.58-1.21c0-.42.36-.57.73-.33A1.45,1.45,0,0,1,456.91,123.57Z"/><polygon class="cls-14" points="574.06 146.78 549.81 130.46 515.05 145.87 515.08 145.89 442.27 178.75 466.99 194.86 539.93 161.93 539.91 161.91 574.06 146.78"/><polygon class="cls-22" points="553.97 85.32 525.35 66.06 557.07 51.74 585.69 70.99 553.97 85.32"/><polygon class="cls-13" points="548.03 149.77 519.41 130.52 551.13 116.19 579.75 135.44 548.03 149.77"/><polygon class="cls-63" points="585.69 70.99 579.75 135.44 548.03 149.77 553.97 85.32 585.69 70.99"/><polygon class="cls-17" points="525.35 66.06 519.41 130.52 548.03 149.77 553.97 85.32 525.35 66.06"/><g class="cls-26"><polygon class="cls-18" points="527 70.51 521.66 128.44 546.4 145.09 551.75 87.15 527 70.51"/></g><polygon class="cls-18" points="579.73 86.19 579.57 87.9 557.37 97.93 557.53 96.22 579.73 86.19"/><polygon class="cls-18" points="579.06 93.4 578.91 95.1 556.71 105.13 556.86 103.43 579.06 93.4"/><polygon class="cls-18" points="578.4 100.6 578.24 102.31 556.04 112.33 556.2 110.63 578.4 100.6"/><polygon class="cls-18" points="577.74 107.8 577.58 109.51 555.38 119.54 555.53 117.83 577.74 107.8"/><polygon class="cls-18" points="577.07 115.01 576.91 116.71 554.71 126.74 554.87 125.04 577.07 115.01"/><polygon class="cls-18" points="576.41 122.21 576.25 123.91 554.05 133.94 554.21 132.24 576.41 122.21"/><polygon class="cls-13" points="554.03 84.75 525.89 65.82 525.35 66.06 553.97 85.32 585.69 70.99 585.2 70.66 554.03 84.75"/><g class="cls-64"><polygon class="cls-65" points="554.38 80.91 546.45 80.26 525.35 66.06 550.79 54.57 556.76 55.06 554.38 80.91"/></g><polygon class="cls-66" points="554.52 79.42 533.75 65.45 556.76 55.06 577.53 69.03 554.52 79.42"/><polygon class="cls-67" points="577.53 69.03 577.39 70.51 554.38 80.91 554.52 79.42 577.53 69.03"/><polygon class="cls-68" points="533.75 65.45 533.61 66.94 554.38 80.91 554.52 79.42 533.75 65.45"/><polygon class="cls-32" points="547.13 66.74 546.21 66.12 546.33 65.69 555.79 61.38 556.99 62.06 556.72 62.41 547.13 66.74"/><polygon class="cls-69" points="555.8 61.79 556.72 62.41 557.38 62.12 555.87 61.1 545.62 65.73 546.21 66.13 555.8 61.79"/><polygon class="cls-32" points="549.92 68.62 549 68 549.13 67.57 558.58 63.26 559.78 63.93 559.51 64.28 549.92 68.62"/><polygon class="cls-70" points="558.59 63.67 559.51 64.28 560.17 63.99 558.66 62.97 548.41 67.6 549.01 68 558.59 63.67"/><polygon class="cls-32" points="552.72 70.49 551.8 69.87 551.92 69.44 561.38 65.13 562.57 65.8 562.3 66.16 552.72 70.49"/><polygon class="cls-71" points="561.38 65.54 562.3 66.16 562.96 65.86 561.45 64.84 551.21 69.47 551.8 69.87 561.38 65.54"/><polygon class="cls-32" points="555.51 72.36 554.59 71.74 554.71 71.31 564.17 67 565.36 67.68 565.1 68.03 555.51 72.36"/><polygon class="cls-72" points="564.18 67.41 565.1 68.03 565.75 67.73 564.24 66.72 554 71.34 554.59 71.74 564.18 67.41"/><g class="cls-26"><polygon class="cls-18" points="520.35 120.33 552.14 105.24 553.97 85.32 525.35 66.06 520.35 120.33"/></g><path class="cls-73" d="M552.51,88.12a2.52,2.52,0,0,0-1-2.1.87.87,0,0,0-.85-.15h0l-.89.41.52.06a1.29,1.29,0,0,0,0,.25,2.52,2.52,0,0,0,1,2.1,1.36,1.36,0,0,0,.25.13l-.29.42.88-.4h0A.81.81,0,0,0,552.51,88.12Z"/><path class="cls-74" d="M551.61,88.53c-.07.74-.63,1-1.26.57a2.52,2.52,0,0,1-1-2.1c.07-.74.63-1,1.26-.57A2.52,2.52,0,0,1,551.61,88.53Z"/><path class="cls-32" d="M551.13,88.21c0,.42-.36.57-.73.33a1.45,1.45,0,0,1-.58-1.21c0-.42.36-.57.73-.33A1.45,1.45,0,0,1,551.13,88.21Z"/><path class="cls-75" d="M528.59,71.07a2.52,2.52,0,0,0-1-2.1.87.87,0,0,0-.85-.15h0l-.89.41.52.06a1.29,1.29,0,0,0,0,.25,2.52,2.52,0,0,0,1,2.1,1.36,1.36,0,0,0,.25.13l-.29.42.88-.4h0A.81.81,0,0,0,528.59,71.07Z"/><path class="cls-76" d="M527.69,71.48c-.07.74-.63,1-1.26.57a2.52,2.52,0,0,1-1-2.1c.07-.74.63-1,1.26-.57A2.52,2.52,0,0,1,527.69,71.48Z"/><path class="cls-32" d="M527.21,71.15c0,.42-.36.57-.73.33a1.45,1.45,0,0,1-.58-1.21c0-.42.36-.57.73-.33A1.45,1.45,0,0,1,527.21,71.15Z"/><path class="cls-77" d="M547.19,145.84a2.52,2.52,0,0,0-1-2.1.87.87,0,0,0-.85-.15h0l-.89.41.52.06a1.29,1.29,0,0,0,0,.25,2.52,2.52,0,0,0,1,2.1,1.36,1.36,0,0,0,.25.13l-.29.42.88-.4h0A.81.81,0,0,0,547.19,145.84Z"/><path class="cls-78" d="M546.29,146.26c-.07.74-.63,1-1.26.57a2.52,2.52,0,0,1-1-2.1c.07-.74.63-1,1.26-.57A2.52,2.52,0,0,1,546.29,146.26Z"/><path class="cls-32" d="M545.8,145.93c0,.42-.36.57-.73.33a1.45,1.45,0,0,1-.58-1.21c0-.42.36-.57.73-.33A1.45,1.45,0,0,1,545.8,145.93Z"/><path class="cls-79" d="M523.27,128.79a2.52,2.52,0,0,0-1-2.1.87.87,0,0,0-.85-.15h0l-.89.41.52.06a1.29,1.29,0,0,0,0,.25,2.52,2.52,0,0,0,1,2.1,1.36,1.36,0,0,0,.25.13l-.29.42.88-.4h0A.81.81,0,0,0,523.27,128.79Z"/><path class="cls-80" d="M522.37,129.2c-.07.74-.63,1-1.26.57a2.52,2.52,0,0,1-1-2.1c.07-.74.63-1,1.26-.57A2.52,2.52,0,0,1,522.37,129.2Z"/><path class="cls-32" d="M521.88,128.88c0,.42-.36.57-.73.33a1.45,1.45,0,0,1-.58-1.21c0-.42.36-.57.73-.33A1.45,1.45,0,0,1,521.88,128.88Z"/><g class="cls-12"><path class="cls-13" d="M512.8,176.84a.33.33,0,0,1-.16-.05L484.2,157.65a.31.31,0,0,1-.14-.28.31.31,0,0,1,.19-.26l31.52-14.24a.33.33,0,0,1,.32,0L544.54,162a.31.31,0,0,1,.14.28.31.31,0,0,1-.19.26L513,176.81A.34.34,0,0,1,512.8,176.84ZM485,157.44l27.83,18.72,30.84-13.93-27.83-18.72Z"/></g><polygon class="cls-22" points="519.85 100.47 491.23 81.22 522.94 66.89 551.56 86.14 519.85 100.47"/><polygon class="cls-13" points="519.9 99.9 491.77 80.97 491.23 81.22 519.85 100.47 551.56 86.14 551.07 85.81 519.9 99.9"/><polygon class="cls-13" points="513.9 164.92 485.28 145.67 517 131.34 545.62 150.6 513.9 164.92"/><polygon class="cls-81" points="551.56 86.14 545.62 150.6 513.9 164.92 519.85 100.47 551.56 86.14"/><polygon class="cls-17" points="491.23 81.22 485.28 145.67 513.9 164.92 519.85 100.47 491.23 81.22"/><g class="cls-26"><polygon class="cls-18" points="492.87 85.66 487.53 143.59 512.27 160.24 517.62 102.3 492.87 85.66"/></g><polygon class="cls-82" points="487.95 143.36 493.25 85.91 492.87 85.66 487.53 143.59 512.27 160.24 512.32 159.75 487.95 143.36"/><polygon class="cls-18" points="545.6 101.35 545.44 103.05 523.24 113.08 523.4 111.38 545.6 101.35"/><polygon class="cls-18" points="544.94 108.55 544.78 110.25 522.58 120.28 522.74 118.58 544.94 108.55"/><polygon class="cls-18" points="544.27 115.75 544.12 117.46 521.91 127.48 522.07 125.78 544.27 115.75"/><polygon class="cls-18" points="543.61 122.95 543.45 124.66 521.25 134.69 521.41 132.98 543.61 122.95"/><polygon class="cls-18" points="542.94 130.16 542.79 131.86 520.59 141.89 520.74 140.19 542.94 130.16"/><polygon class="cls-18" points="542.28 137.36 542.12 139.07 519.92 149.09 520.08 147.39 542.28 137.36"/><g class="cls-83"><polygon class="cls-84" points="520.25 96.06 512.32 95.41 491.23 81.22 516.67 69.72 522.63 70.21 520.25 96.06"/></g><polygon class="cls-85" points="520.39 94.58 499.62 80.6 522.63 70.21 543.4 84.18 520.39 94.58"/><polygon class="cls-86" points="543.4 84.18 543.26 85.66 520.25 96.06 520.39 94.58 543.4 84.18"/><polygon class="cls-87" points="499.62 80.6 499.49 82.09 520.25 96.06 520.39 94.58 499.62 80.6"/><polygon class="cls-32" points="513 81.89 512.08 81.28 512.21 80.84 521.66 76.53 522.86 77.21 522.59 77.56 513 81.89"/><polygon class="cls-88" points="521.67 76.94 522.59 77.56 523.25 77.27 521.74 76.25 511.49 80.88 512.09 81.28 521.67 76.94"/><polygon class="cls-32" points="515.8 83.77 514.88 83.15 515 82.72 524.46 78.41 525.65 79.08 525.38 79.44 515.8 83.77"/><polygon class="cls-89" points="524.47 78.82 525.38 79.44 526.04 79.14 524.53 78.12 514.28 82.75 514.88 83.15 524.47 78.82"/><polygon class="cls-32" points="518.59 85.64 517.67 85.02 517.79 84.59 527.25 80.28 528.44 80.95 528.18 81.31 518.59 85.64"/><polygon class="cls-90" points="527.26 80.69 528.18 81.31 528.83 81.01 527.32 80 517.08 84.62 517.67 85.02 527.26 80.69"/><polygon class="cls-32" points="521.38 87.51 520.46 86.89 520.58 86.46 530.04 82.15 531.24 82.83 530.97 83.18 521.38 87.51"/><polygon class="cls-91" points="530.05 82.56 530.97 83.18 531.62 82.89 530.11 81.87 519.87 86.5 520.46 86.89 530.05 82.56"/><g class="cls-26"><polygon class="cls-18" points="486.22 135.48 518.01 120.39 519.85 100.47 491.23 81.22 486.22 135.48"/></g><path class="cls-92" d="M518.38,103.27a2.52,2.52,0,0,0-1-2.1.87.87,0,0,0-.85-.15h0l-.89.41.52.06a1.29,1.29,0,0,0,0,.25,2.52,2.52,0,0,0,1,2.1,1.36,1.36,0,0,0,.25.13l-.29.42.88-.4h0A.81.81,0,0,0,518.38,103.27Z"/><path class="cls-93" d="M517.48,103.68c-.07.74-.63,1-1.26.57a2.52,2.52,0,0,1-1-2.1c.07-.74.63-1,1.26-.57A2.52,2.52,0,0,1,517.48,103.68Z"/><path class="cls-32" d="M517,103.36c0,.42-.36.57-.73.33a1.45,1.45,0,0,1-.58-1.21c0-.42.36-.57.73-.33A1.45,1.45,0,0,1,517,103.36Z"/><path class="cls-94" d="M494.46,86.22a2.52,2.52,0,0,0-1-2.1.87.87,0,0,0-.85-.15h0l-.89.41.52.06a1.29,1.29,0,0,0,0,.25,2.52,2.52,0,0,0,1,2.1,1.36,1.36,0,0,0,.25.13l-.29.42.88-.4h0A.81.81,0,0,0,494.46,86.22Z"/><path class="cls-95" d="M493.56,86.63c-.07.74-.63,1-1.26.57a2.52,2.52,0,0,1-1-2.1c.07-.74.63-1,1.26-.57A2.52,2.52,0,0,1,493.56,86.63Z"/><path class="cls-32" d="M493.08,86.3c0,.42-.36.57-.73.33a1.45,1.45,0,0,1-.58-1.21c0-.42.36-.57.73-.33A1.45,1.45,0,0,1,493.08,86.3Z"/><path class="cls-96" d="M513.06,161a2.52,2.52,0,0,0-1-2.1.87.87,0,0,0-.85-.15h0l-.89.41.52.06a1.29,1.29,0,0,0,0,.25,2.52,2.52,0,0,0,1,2.1,1.36,1.36,0,0,0,.25.13l-.29.42.88-.4h0A.81.81,0,0,0,513.06,161Z"/><path class="cls-97" d="M512.16,161.41c-.07.74-.63,1-1.26.57a2.52,2.52,0,0,1-1-2.1c.07-.74.63-1,1.26-.57A2.52,2.52,0,0,1,512.16,161.41Z"/><path class="cls-32" d="M511.68,161.08c0,.42-.36.57-.73.33a1.45,1.45,0,0,1-.58-1.21c0-.42.36-.57.73-.33A1.45,1.45,0,0,1,511.68,161.08Z"/><path class="cls-98" d="M489.14,143.94a2.52,2.52,0,0,0-1-2.1.87.87,0,0,0-.85-.15h0l-.89.41.52.06a1.29,1.29,0,0,0,0,.25,2.52,2.52,0,0,0,1,2.1,1.36,1.36,0,0,0,.25.13l-.29.42.88-.4h0A.81.81,0,0,0,489.14,143.94Z"/><path class="cls-99" d="M488.24,144.35c-.07.74-.63,1-1.26.57a2.52,2.52,0,0,1-1-2.1c.07-.74.63-1,1.26-.57A2.52,2.52,0,0,1,488.24,144.35Z"/><path class="cls-32" d="M487.76,144c0,.42-.36.57-.73.33a1.45,1.45,0,0,1-.58-1.21c0-.42.36-.57.73-.33A1.45,1.45,0,0,1,487.76,144Z"/><path class="cls-14" d="M643.61,201.54c-.59-1.28-1.21-4-2.28-5.92s-3.18-2.91-4.21-2.59-.23,3.58.22,4.72a15.7,15.7,0,0,1,.64,2.09c-.74.12-2.18.48-3.85.78,0,0-.19-.17-.49-.38l1.17-.63a.49.49,0,0,0,.3-.36h0l0-1.16a.24.24,0,0,0,0-.15l0-1.35h0a.33.33,0,0,0-.19-.29l-11.43-6.57a1.39,1.39,0,0,0-1.21,0l-8,4.33a.46.46,0,0,0-.29.39h0l0,1.45h0l0,1.15v.08a.3.3,0,0,0,0,.06l0,0a.44.44,0,0,0,.15.14l2,1.15-.46.25a.58.58,0,0,0-.36.46h0v.6h0v0h0a.51.51,0,0,0,.2.33l-.07,0-.15.09-.1.06-.07,0h-.25c-.84.11-3.31,1.91-3.31,1.91L608.12,205l-2.68,1.24c.92-3.15,2.44-8.88,2.37-9.26a3.69,3.69,0,0,0-1.84-1.56h0v-.19c0-.1,0-.2,0-.31s0-.1,0-.15,0-.17,0-.26,0-.1,0-.15,0-.25,0-.37h0a5.31,5.31,0,0,0,0-.69l0-.06H606a8.76,8.76,0,0,0,1-1.23h0a34.65,34.65,0,0,0,6.43-3,30.62,30.62,0,0,1,6.84-3.09s5.09-.46,8-2.37a14.44,14.44,0,0,0,3.54-2.87c.37,0,.67.13,1-.15L630,179.34a29.8,29.8,0,0,0-3.64,1.1,4.22,4.22,0,0,1-2.29.13c-.64-.14-1.36-.29-1.61-.31l-1-.06-.84,0a19.67,19.67,0,0,0-2.8.13s3.58-1.49,5-2.16l.1,0a10.88,10.88,0,0,0,1.75-.57l.2-.09.31-.16.1-.06.23-.17a18.41,18.41,0,0,0,2-.89c.41-.25-1.1-2.24-1.26-3.12l-3,.73c-.72.35-1.85.68-7,1.94a17.5,17.5,0,0,0-9.47,0c-2,.48-3.5.89-4.72,1.23h0l-.11,0-.59.17-.15,0-.65.2-.12,0-.46.15-.16.05-.37.13-.12,0-.41.16,0,0-.3.14-.1,0h0a19.85,19.85,0,0,0-4.13-2.56s-2.79-1.54-3.65-1-7.28,8-8.52,8.64-5.62,3.28-5.62,3.28a13.89,13.89,0,0,1-1.62-1.7c-.79-1-5.47-6.14-5.75-6.54s-5.76-6.57-6.21-7.65a2.14,2.14,0,0,0-1.86-1.09,3,3,0,0,0-.91-1.7,4.68,4.68,0,0,1-1-1.66c0-.07.06-.31.06-.31a.63.63,0,0,0,.31-.47c0-.28-.75-.36-.86-.45a2.8,2.8,0,0,0-.63-.41,12.64,12.64,0,0,0-2.42.52.46.46,0,0,0-.13.13h0l0,.05a1.54,1.54,0,0,0-.15.31l0,.06,0,.1,0,.06,0,.08v.23s-1.23-1.61-1.31-1.74-.68-.38-.89,0,1.84,3.31,1.84,3.31a3.61,3.61,0,0,0,.2,1.14c.2.53,1.85,1.62,2.28,2.06a7.26,7.26,0,0,1,.94,1.6c.51,1.26,5.72,9.2,7.53,10.82s3.16,4.4,4,5.43.67,4.9.67,4.9l.64,1.65,0,0-.26.11s-.48-.28-.79,0-1.1,1.7-1.26,1.87-1.62.48-2.19,1.11a15.06,15.06,0,0,0-1.09,1.44.7.7,0,0,0-.34,0c-.91.36-2.07,4.51,0,6.66s6,3.55,8.73.79c.27-.28.51-.54.74-.79h0l0-.05q.33-.38.59-.72l.07-.09c.17-.23.32-.45.45-.65l0,0a7.43,7.43,0,0,0,.57-1.09l0,0c.06-.14.1-.27.14-.38v0c0-.11.05-.2.07-.27v0c0-.07,0-.13,0-.16v-.07h0l2.73.15s5.39,3.15,7.23,4c0,0,5.27.81,5.69.93.25.07,2.75.94,5.45,1.53-.88.33-1.69.64-2.27.89a14.1,14.1,0,0,0-3.56,2.21,12.89,12.89,0,0,0-2.09,4.58h0a4.8,4.8,0,0,0-2.87,3.25,2.27,2.27,0,0,1-1-.4,1.73,1.73,0,0,1-.49-.55c-.08-.13-.15-.26-.23-.37l-.07-.1-.16-.21-.08-.09-.16-.17-.06-.06-.21-.17h0a.74.74,0,0,0-.5-.15,7.77,7.77,0,0,1-1.51.21,11.21,11.21,0,0,0-2.13.34s-.59-.64-.94-.54-1.4,1-1.51,1a3.42,3.42,0,0,0-1.6.18,7.73,7.73,0,0,0-2,1.29c-.77-.43-1.78.43-1.78.43-1,1.09-1.71,4.5,1,8.27s6.33,2.49,7.56,1.48,3.41-2.57,4-3.18h0l.14,0a2.77,2.77,0,0,0,2.24,2.3s8.18,1,10.35-1.75,8.16-6.42,9.83-6.84c1.36-.35,6.25-1.44,8-1.83a2.35,2.35,0,0,0,1.12-.6,1.54,1.54,0,0,1,.5-.32l1.45-.58a1.11,1.11,0,0,0,.53-.43,8.81,8.81,0,0,0,1.21-3h0l0,0h0l.13-.06,0,0,.2-.09.06,0,.28-.13a17.58,17.58,0,0,1,4.63-1.53,25.68,25.68,0,0,0,6-1.56c.59-.31,5.43-2.67,5.64-2.73a3.72,3.72,0,0,1,.67-.07s.79.17,1.07-.21.95-1.34-.74-2.78a3.27,3.27,0,0,1,.69-.39,21.89,21.89,0,0,1,2.48-.4,1.55,1.55,0,0,0,.32-.13h0A1.73,1.73,0,0,0,643.61,201.54ZM557.68,168c-.28-.19-.52-.34-.52-.34s-.24-.42-.3-.4a.45.45,0,0,0-.13-.51.92.92,0,0,0,.19-.78,4.11,4.11,0,0,1,.63.45,4.8,4.8,0,0,0,.38.56,1.72,1.72,0,0,1,.48.7S558,168.21,557.68,168Zm28.21,59.21h0a1.64,1.64,0,0,1-.28.09C585.71,227.3,585.8,227.26,585.89,227.23Zm.55.51h0l-.21-.05h0l-.18-.06,0,0-.16-.06,0,0-.13-.06h0l-.11-.05h0l.08,0a2.94,2.94,0,0,0,1.05.41Zm.69,0a1.56,1.56,0,0,0,1-.62A1.42,1.42,0,0,1,587.14,227.78Zm1.14-.76,0,0,.07-.13Zm1.09-8a2.23,2.23,0,0,1,0-.27h0Zm13.14-23.89s-.86,6.53-1.83,8.2a44.34,44.34,0,0,1-6.09-1.73,28.38,28.38,0,0,1,1.61-3.38,38.94,38.94,0,0,1,4.19-3.9,15.47,15.47,0,0,0,2.18.77Zm13.73,4h0l.2-.11Zm.49.54-.2.06-.13-.08.22-.12h0l.59-.32,1.52.87,1,.6-.42.23a.88.88,0,0,1-.71,0c.11-.08.14-.19,0-.38A3.11,3.11,0,0,0,616.72,199.62Zm3.39,2.23h-.05l-.48.11-.33.07-.45.11-.3.07-.4.1-.26.06-.35.09-.2.05c.15-.23.28-.44.37-.6a.34.34,0,0,0-.1-.43l0,0,.54.31a1.94,1.94,0,0,0,1.7,0l1-.55.56.32Z"/><path class="cls-100" d="M632.74,179.57l0,.21.08-.13a2.76,2.76,0,0,1-.1,1.58,12.64,12.64,0,0,1-1.43,1.81c-.65.69-1.71,2.14-2,2.41a6.14,6.14,0,0,1-3.57,1.33c-1.78,0-2.14-1-1.95-1.5a12,12,0,0,1,2.42-2.89,15.49,15.49,0,0,0,2.07-2.46Z"/><path class="cls-100" d="M627.86,174.51a7.61,7.61,0,0,1-.21,1.54c-.16.44-2.77.37-3.7.41a13.83,13.83,0,0,0-3.13.74c-.52.2-3.93.26-4.23-1s1.89-2.06,3.35-2.27,3.85-.7,3.85-.7Z"/><path class="cls-17" d="M638.85,153.61a29.8,29.8,0,0,1-1.64,7.22,28,28,0,0,0-1.6,7.11s.67,4.88-.61,8.06-2.19,4-2.19,4a3,3,0,0,1-4.53-.11,38.49,38.49,0,0,0,2.35-7.93,23.51,23.51,0,0,1-1.25-5.1s-.71,3.69-1.07,5.18c0,0,0,2.23-.68,3.07s-3.47.88-4.2-.75.8-.73,1-7.91a15.8,15.8,0,0,1-2.1-8.89c.15-5.63.39-7.85.82-8.92s6.41-4.54,6.41-4.54l2.81,4.16Z"/><path class="cls-100" d="M625.77,158.84c-.82-1.13-1-4.49-1-4.49a15.39,15.39,0,0,0,2.12,3.79,6.58,6.58,0,0,1,1.76,3.66c.09,1.07.76,5.08.76,5.08s-.71,3.69-1.07,5.18c0,0,0,2.23-.68,3.07a1.45,1.45,0,0,1-.64.4s.61-4.91.64-7S626.59,160,625.77,158.84Z"/><path class="cls-101" d="M649.37,131.7s2,4.76,2.21,5.13,4.23,6.31,4.37,9.56c0,0,.23,1.27-1.44,2.25s-10,5.15-10.47,5.18a4.59,4.59,0,0,1-3.07-4.56s6.42-2.27,7.89-3.55a41,41,0,0,0-3.11-5.33,2.57,2.57,0,0,1-.43-1.48,7.78,7.78,0,0,1,3.26-6.64Z"/><path class="cls-17" d="M632.25,119.53s-3.87,1-5.11.47-4.35-1.21-6.39-2.55-11.25-4.45-12.64-4.65c0,0,0,.05.19.16a1.73,1.73,0,0,1,1.35,1.35,3.29,3.29,0,0,1-.7,2.38c-.17.08-.22-.31-1.09-.78a3.61,3.61,0,0,0-1.42-.49l-.38.39-.24.29a2.07,2.07,0,0,0,1.52,1.5c1.2.19,8.66,3.94,9.13,4.12s6.73,3.42,7.91,3.94a14.33,14.33,0,0,1,2.08,1.14s4-2.13,4.15-2.12S632.25,119.53,632.25,119.53Z"/><path class="cls-102" d="M598.95,110.53c.16,0,2.06.84,2.06.84s-.82.32-.92.66a11.34,11.34,0,0,0,0,2.39,2.76,2.76,0,0,0,.56.5c.12.08.36.76.65.7a.63.63,0,0,0,.4-.39l.3-.12a5.07,5.07,0,0,1,1.9.53,3.28,3.28,0,0,0,1.93.47,8.8,8.8,0,0,0,1.26-.41,3.12,3.12,0,0,1,.73.27c.26.16,1.06.78,1.18.84s2.18-3.11-.89-4a7.85,7.85,0,0,1-1.82-.52c-.54-.3-2-1.61-2.6-1.68a4,4,0,0,0-1.2.07s-3.44-1.26-3.76-1S598.79,110.48,598.95,110.53ZM601.3,113a1,1,0,0,0,.75-.35.5.5,0,0,0,.55,0c0,.06.47.19.47.19s.2.19.46.41-.16.76-.16.76a1.83,1.83,0,0,1-.82-.29,5.13,5.13,0,0,0-.66-.23A4.07,4.07,0,0,1,601.3,113Z"/><path class="cls-100" d="M623.14,148.68c.43-1.07,6.41-4.54,6.41-4.54l1.39,2.07.88,5.17,7,2.74h0s-.7,3.43-6.51,2.55-6.09-5.3-6.09-5.3-.78,1.38-3.7,1.52A15,15,0,0,1,623.14,148.68Z"/><path class="cls-18" d="M643,123.27l.76,2.52s4.39,4.36,5.62,5.9a27.37,27.37,0,0,0-3.61,8.7,29.91,29.91,0,0,0-3.06,2.26,45,45,0,0,0-3.37,5.39c-.64,1.15.51,4.89.51,4.89s-2.35,3.44-5.6,3.05a5.69,5.69,0,0,1-5.38-5.92,18.42,18.42,0,0,1,.07-3.92s-1.85,4.06-4.07,3.88-5.4-4.1-5.4-4.1-2.18-2.27-1.88-3.2,6.43-8.61,6.85-9.93,2.06-6,2.06-6l5.77-7.27,3.07.39Z"/><path class="cls-103" d="M643,123.27a8.25,8.25,0,0,1-.84,2.85c-.73,1.4-3.43,9.38-8.11,11.8l-1.8.9.48-5.18A19.17,19.17,0,0,1,634,128.5a14.62,14.62,0,0,0,1.14-4.43s1.27-.23,1.27-.2S643,123.27,643,123.27Z"/><path class="cls-102" d="M637.19,126.61s-.81.24-1.11-.28a3.5,3.5,0,0,1-.41-2s-2.1-.07-2.42-1.16a1.72,1.72,0,0,1,.26-1.65,8.12,8.12,0,0,1,.58-1.79l.06-.27s-.39-.39-.16-.74,1.48-1.41,1.61-1.6.12-1.62.63-2.3a17.77,17.77,0,0,1,1.46-1.59s4.77-3,8,.65-2.66,9.38-2.66,9.38a5.79,5.79,0,0,1-1.7,2.67C640.19,126.65,637.19,126.61,637.19,126.61Z"/><path class="cls-104" d="M641.2,118.71a1,1,0,0,1,.09-.36,1.74,1.74,0,0,0-.52-2.17c-1.25-1-3.54-2.09-3.38-3s4.1-3,6.74-1.49,4.93,4.83,2.75,8-3.89,3.59-3.89,3.59-.55-.16,0-.67,1.6-1.84.88-2.34-2.12.34-2.31.54a2.7,2.7,0,0,0-.22.26.38.38,0,0,1-.49.1l-.06,0a.35.35,0,0,1-.15-.46l.41-.84a1.08,1.08,0,0,0,.11-.4Z"/><path class="cls-105" d="M637.22,127.56a5.08,5.08,0,0,1,1.39,2.11,7,7,0,0,0-1.55-1.4s-1.22.43-1.25.79a22.66,22.66,0,0,1-.72,3.57,39.12,39.12,0,0,0-.72,5.11l-.78.41-.19-1.78.48-3.72,1-3.34s.25-1.28.31-1.34S637.22,127.56,637.22,127.56Z"/><path class="cls-17" d="M637.22,127.56s-1-1.26-1.6-1.33a1,1,0,0,0-.92.27c0,.07-.72,1.84-.72,1.84a22.25,22.25,0,0,0-1.59,6.8,21,21,0,0,0-.14,3.69l1.48-.74a16.56,16.56,0,0,1,.91-5.68c1.05-3,.42-3.52.81-3.8S637.36,128,637.22,127.56Z"/><path class="cls-17" d="M642.7,142.66a44.89,44.89,0,0,0-3.33,5.39,1.84,1.84,0,0,0-.22.74l-.23.12-.65-.73s.84-2.17,2.12-4.83,5.37-3,5.37-3A29.91,29.91,0,0,0,642.7,142.66Z"/><path class="cls-102" d="M641,149.36a12.64,12.64,0,0,0-1.35-2s0,.47-.64.69-4.24,1.23-4.38,1.37,0,.34.19.4a4.86,4.86,0,0,1-1,.15c-.29,0-.71.3-.55.62s.33.31.33.31-.12.33.09.43a3.38,3.38,0,0,0,.72.15.4.4,0,0,0,.14.49,11.07,11.07,0,0,0,1.66.42s1.1,0,1.41,0a17.07,17.07,0,0,0,2.31.44,19,19,0,0,0,2.88-.65C643,152.12,641,149.36,641,149.36Z"/><path class="cls-17" d="M643.9,126.61l-.35,2.17-1.26.27.76.72s-4,7-8.44,9c0,0,4.17-1.06,8.75-8.87l-.47-.63.89-.29Z"/><path class="cls-17" d="M633.09,125.5s-2.19,7.3-1.42,13c0,0-1.29-2.82,1.05-13Z"/><path class="cls-106" d="M600.18,111.88a2.74,2.74,0,0,1,.83-.51s1.54.76,1.81.9C602.81,112.28,601.19,112,600.18,111.88Z"/><path class="cls-106" d="M609,116.79c-.06,0-.3-.21-.56-.39h0c1.19-1.29.21-3.38.2-3.39C610.92,114.09,609.12,116.85,609,116.79Z"/><path class="cls-106" d="M642.76,152.21a20.74,20.74,0,0,1-2.17.54,10.78,10.78,0,0,1-.16-2.71c.18-.66.49-.8.49-.8l.07.11S643,152.12,642.76,152.21Z"/><path class="cls-101" d="M641,149.27a2.27,2.27,0,0,0,.27,2.1c.73,1,.81,1.09.81,1.09l.93.08a9.66,9.66,0,0,0,.55-1.42Z"/><path class="cls-17" d="M634.2,127.77h0s-1.37,5-1.34,6.9a31.62,31.62,0,0,1-.23,3.9l-.31.21-.09,0a21,21,0,0,1,.14-3.69,22.25,22.25,0,0,1,1.59-6.8Z"/><path class="cls-100" d="M629,180.55a4.32,4.32,0,0,1-.75-.63,38.49,38.49,0,0,0,2.35-7.93,23.52,23.52,0,0,1-1.25-5.1,38,38,0,0,1,1.75,5.74C631.57,175.26,629,180.55,629,180.55Z"/><path class="cls-106" d="M641,122.28h0Z"/><path class="cls-106" d="M641,122.28a7.46,7.46,0,0,1-1.42,2.69c-.87.82-1.55,1.62-1.55,1.62-.49,0-.84,0-.84,0s-.81.24-1.11-.28a3.5,3.5,0,0,1-.41-2,12.12,12.12,0,0,0,4-.69A2.66,2.66,0,0,0,641,122.28Z"/><path class="cls-107" d="M639.71,147.43a3.77,3.77,0,0,1-.21.32s0-.24,0-.24.15-.24.16-.24S639.71,147.43,639.71,147.43Z"/><path class="cls-17" d="M632.24,138.83s-2.53,5.91-3.32,7.32l-.1,1.46S632,140.29,632.24,138.83Z"/><path class="cls-17" d="M630.14,140.84a.64.64,0,0,0,.34.86.68.68,0,0,0,.86-.39.64.64,0,0,0-.34-.86A.68.68,0,0,0,630.14,140.84Z"/><path class="cls-17" d="M628.9,143.37a.64.64,0,0,0,.34.86.68.68,0,0,0,.86-.39.64.64,0,0,0-.34-.86A.68.68,0,0,0,628.9,143.37Z"/><path class="cls-108" d="M641,119.84a1.08,1.08,0,0,0,.11-.4l.05-.73a1,1,0,0,1,.09-.36,2,2,0,0,0,.14-.44s2.87,2.4,4.81,2.65c-1.87,2.39-3.25,2.72-3.25,2.72s-.55-.16,0-.67,1.6-1.84.88-2.34-2.12.34-2.31.54a2.69,2.69,0,0,0-.22.26.38.38,0,0,1-.49.1l-.06,0a.35.35,0,0,1-.15-.46Z"/><path class="cls-100" d="M638.08,203.85a18.14,18.14,0,0,1-2.59-.13c-1.25-.17-4.74-.18-4.83.85s1.41,2.79,3.57,3.37,5.07.55,6.5.82,2.65-.74,2.32-2S638.08,203.85,638.08,203.85Z"/><path class="cls-100" d="M646.16,202.33s.34.71,0,1.05-1.14,1.19-3-.07-5.52-3.25-5.52-3.25-2.08-1.37-1.74-2.52,2.4-.63,2.4-.63Z"/><path class="cls-17" d="M635.89,182.87s-.52,8.24.83,11.53.87,8.7,1.07,9.76a4.55,4.55,0,0,0,3,3.3c1.83.62,2.35-.36,2.38-1A19.58,19.58,0,0,1,643,204a6.22,6.22,0,0,1,.49-1.28s2.08.89,2.71-.43a3.34,3.34,0,0,1-.08-.65c0-.21,1.32-5.28,1.51-5.9a23.11,23.11,0,0,0,.24-6c-.27-1.83.72-5.5.72-5.5l-6.41-1.88Z"/><path class="cls-100" d="M646.48,184.59a5.8,5.8,0,0,1-1.13,2.24,38.51,38.51,0,0,1-1.79,6.31,54.37,54.37,0,0,0,.23,5.72,12.94,12.94,0,0,1-.34,3.89,2.55,2.55,0,0,0,.59.19c.36.07,1.42-4.93,1.05-5.92s0-5.1.5-6.31,1.14-4.85,1.55-5.45a.77.77,0,0,0-.15-1.05Z"/><path class="cls-100" d="M647.06,151.39a4.82,4.82,0,0,0-2.65,3.42l1.58,0S646,152.07,647.06,151.39Z"/><path class="cls-100" d="M641.37,185.58a12.17,12.17,0,0,0,7-.41c.12-.52.21-.85.21-.85l-6.41-1.88-6.25.43s-.1,1.65-.1,3.77c1,.27,2.47-1.76,2.47-1.76l2.93.66S637.07,184.75,641.37,185.58Z"/><path class="cls-18" d="M636.7,183.13s8.77,4.84,14.63-.62a1.06,1.06,0,0,0,.32-.59l.26-1.49a1.45,1.45,0,0,1,.21-.54h0a2.17,2.17,0,0,0,.35-1.18c0-1.75,0-6.58.06-7.93.06-1.66,2.43-8.1,4.73-10.75s-.54-10.11-.54-10.11a2.81,2.81,0,0,0-2.93-1.58s1.72,1.63.35,2.81-4.81,1.72-4.81,1.72-6.48,1.86-9.11,4.94a13.23,13.23,0,0,0-1.44,3.83c-.44,2.19-1.07,7.43-1.3,8.12s-1.35,5.43-1.36,5.66S636.7,183.13,636.7,183.13Z"/><path class="cls-109" d="M654.58,149.49a1.34,1.34,0,0,0,.19-1.1,3.21,3.21,0,0,0-1-.06A3.46,3.46,0,0,1,654.58,149.49Z"/><path class="cls-17" d="M639.44,184.29s8.19-12.29,8.92-17.37-10.23,8.43-10.23,8.43l-1.42,7.78A19.24,19.24,0,0,0,639.44,184.29Z"/><path class="cls-101" d="M639.24,168a20.91,20.91,0,0,0,1-3.38c.38-2,1.63-5.31,5.62-4,5.62,1.8,1.72,8.59.86,9.71s-4.36,6.18-4.55,6.46a93.13,93.13,0,0,1-6.8,7.55.37.37,0,0,1-.5,0c-.48-.49-1.54-1.64-1.6-2.27-.08-.81,1.2-3.53,1.2-3.53s3.42-6.94,3.67-7.26S638.57,169.78,639.24,168Z"/><path class="cls-102" d="M647.13,151.58a2,2,0,0,0-1.35-1.36c-1.07-.29-1.64-.67-1.68-1.07a6.94,6.94,0,0,0-.13-1.46,10.05,10.05,0,0,1-.13-2.07s-.78-.41-.76-.76.68-1.53.64-1.63a3.07,3.07,0,0,1-.18-1.54,7.27,7.27,0,0,1,.87-2.13c.47-.69,3.67-4.86,9.43-1.45s0,7.53,0,10.76c0,0,.41.74-.81,1.68S648.9,151.24,647.13,151.58Z"/><path class="cls-106" d="M653,150.54c1.22-.94.81-1.68.81-1.68a4.15,4.15,0,0,1,.3-1.39l-2.48,0s-3-3.57-3-1.93-1,1.77-1,1.77l.56,1c.14.25,0,.49-.21.71-1.31,1.44-3.65.55-3.65.55a3.65,3.65,0,0,0,1.41.63,2,2,0,0,1,1.35,1.36C648.9,151.24,651.81,151.48,653,150.54Z"/><path class="cls-104" d="M644.45,137.79s-.64,1.14,0,1.76,1.15,1.21,1.15,1.21l-.28,1.52a1.09,1.09,0,0,0,.08.64l.64,1.41a1.48,1.48,0,0,1,.11.87l-.11.61a.35.35,0,0,0,.26.4l.22.06a.37.37,0,0,0,.46-.24l.25-.83s.58-.61,1.43.37l.83.5a.92.92,0,0,1,.44.62,5.73,5.73,0,0,0,.77,2.33c.48.37,2.77-.28,3.14-.69s1.7-3.29,2.44-4.67,1.24-5.05-3.19-6.77S645.32,136.57,644.45,137.79Z"/><path class="cls-108" d="M653.81,148.33c.37-.4,1.7-3.29,2.44-4.67a12,12,0,0,1-4.33.76c-2.35-.05-6.42-3.26-6.42-3.26l-.2,1.11a1.09,1.09,0,0,0,.08.64l.64,1.41a1.48,1.48,0,0,1,.11.87l-.11.61a.35.35,0,0,0,.26.4l.22.06a.37.37,0,0,0,.46-.24l.25-.83s.58-.61,1.43.37l1.2.72s.35,2.35.84,2.73S653.44,148.73,653.81,148.33Z"/><path class="cls-103" d="M653.87,148.49s1.54,1.3.38,2.57-7.92,2.72-8.3,3c0,0,.14-2.14,1.11-2.71,0,0,5-.07,6-1.09A2.3,2.3,0,0,0,653.87,148.49Z"/><path class="cls-105" d="M653.87,148.49a2.3,2.3,0,0,1-.84,1.82c-.74.77-3.78,1-5.21,1.06h0a4.7,4.7,0,0,1,1.05,1.85c2.11-.6,4.7-1.41,5.38-2.15C655.41,149.79,653.87,148.49,653.87,148.49Z"/><path class="cls-17" d="M654.12,153.22s-3.09,1-4.58,1.45-3.13,1.07-3.13,1.07l-.43-.56-.86,1.15a19.09,19.09,0,0,0-3.5,1.62,10,10,0,0,0-2.29,2.21s3.19-2.71,5.45-3.31l.61-.17.5-.94.42.59S653.08,154,654.12,153.22Z"/><path class="cls-18" d="M639.4,191.79h0a1,1,0,0,0-.25-.51L629.94,182c-.25-.25-.54-.14-.66.24l-2.58,8.51a1.26,1.26,0,0,0,.24,1.14l7.58,7.62-.71,2.29,2.71-.53h0a.5.5,0,0,0,.29-.36l2.58-8.51A1.29,1.29,0,0,0,639.4,191.79Z"/><path class="cls-18" d="M626.92,182.41l2.65-.51.09,0a.39.39,0,0,1,.29.13l9.21,9.26a1,1,0,0,1,.25.51l-.4.09h0l-2.27.5-8-8.17h0Z"/><path class="cls-17" d="M624.25,192.43l9.21,9.26c.25.25.54.14.66-.24l2.58-8.51a1.26,1.26,0,0,0-.24-1.14l-9.21-9.26c-.25-.25-.54-.14-.66.24L624,191.29A1.26,1.26,0,0,0,624.25,192.43Z"/><path class="cls-100" d="M635.5,201.17l2.58-8.51a1.26,1.26,0,0,0-.24-1.14l-9.21-9.26a.42.42,0,0,0-.24-.13.37.37,0,0,1,.33.13l9.21,9.26a1.26,1.26,0,0,1,.24,1.14l-2.58,8.51c-.08.26-.24.41-.41.39C635.31,201.53,635.43,201.39,635.5,201.17Z"/><path class="cls-100" d="M634,187.61l.59-.14a.62.62,0,0,1,.35,0l0,0c.05,0,.07.07.05.14l0,.08-1.65.39,0-.08a.39.39,0,0,1,.15-.19l.06,0A1.28,1.28,0,0,1,634,187.61Z"/><polygon class="cls-100" points="634.02 188.76 633.37 188.11 635.05 187.53 635.68 188.17 634.02 188.76"/><path class="cls-18" d="M634.67,188.26l.59-.14a.62.62,0,0,1,.35,0l0,0c.05,0,.07.07.05.14l0,.08-1.65.39,0-.08a.39.39,0,0,1,.15-.19l.06,0A1.29,1.29,0,0,1,634.67,188.26Z"/><polygon class="cls-100" points="634.96 188.54 635.07 188.16 635.02 188.18 634.9 188.55 634.96 188.54"/><polygon class="cls-100" points="635.07 188.16 634.4 187.52 634.36 187.53 635.02 188.18 635.07 188.16"/><path class="cls-100" d="M631.08,184.66l.59-.14a.62.62,0,0,1,.35,0l0,0c.05,0,.07.07.05.14l0,.08-1.65.39,0-.08a.39.39,0,0,1,.15-.19l.06,0A1.29,1.29,0,0,1,631.08,184.66Z"/><polygon class="cls-100" points="631.08 185.81 630.43 185.16 632.11 184.58 632.75 185.22 631.08 185.81"/><path class="cls-18" d="M631.73,185.31l.59-.14a.62.62,0,0,1,.35,0l0,0c.05,0,.07.07.05.14l0,.08-1.65.39,0-.08a.39.39,0,0,1,.15-.19l.06,0A1.28,1.28,0,0,1,631.73,185.31Z"/><polygon class="cls-100" points="632.02 185.59 632.13 185.21 632.08 185.23 631.97 185.6 632.02 185.59"/><polygon class="cls-100" points="632.13 185.21 631.46 184.57 631.42 184.58 632.08 185.23 632.13 185.21"/><path class="cls-18" d="M635.68,186.39,635.2,188l-.43-.44.47-1.55a.79.79,0,0,0-.18-.72l-1.89-1.9a.24.24,0,0,0-.43.1l-.47,1.55-.43-.44.48-1.59a.52.52,0,0,1,1-.23l2,2A1.75,1.75,0,0,1,635.68,186.39Z"/><path class="cls-18" d="M632.43,183.14l.9.07,2.21,2.47-.11,1.27-.23,1-.61.15.21-1.3.12-.89-.42-.73s-.85-.82-.85-.84S632.43,183.14,632.43,183.14Z"/><polygon class="cls-18" points="631.65 185.18 632.26 185.03 632.61 183.89 632.06 183.84 631.89 183.83 631.65 185.18"/><polygon class="cls-18" points="632.08 182.71 632.74 182.55 632.53 182.81 632.31 182.84 632.08 182.71"/><path class="cls-100" d="M635.07,186.54l-.48,1.59-.43-.44.47-1.55a.79.79,0,0,0-.18-.72l-1.89-1.9a.24.24,0,0,0-.43.1l-.47,1.55-.43-.44.48-1.59a.52.52,0,0,1,1-.23l2,2A1.75,1.75,0,0,1,635.07,186.54Z"/><path class="cls-102" d="M633.38,182a9,9,0,0,0-.6,2,3,3,0,0,0,1.32,1.58c.52.23.39-.35.57-.68a4.39,4.39,0,0,0,.29-1.09Z"/><path class="cls-106" d="M635,183.78l-1.58-1.8s-.13.32-.27.71a4.25,4.25,0,0,0,1.64,2A5.55,5.55,0,0,0,635,183.78Z"/><path class="cls-101" d="M633.22,182.08a3.09,3.09,0,0,0,2,2.29l-.22-2-1.37-.58S633.22,182.08,633.22,182.08Z"/><polygon class="cls-19" points="503.07 112.58 504.02 113.22 504.08 112.57 503.13 111.93 503.07 112.58"/><polygon class="cls-19" points="502.67 116.97 503.62 117.61 503.97 113.81 503.01 113.17 502.67 116.97"/><polygon class="cls-19" points="502.47 119.07 503.43 119.72 503.56 118.2 502.61 117.56 502.47 119.07"/><polygon class="cls-19" points="502.27 121.25 503.22 121.89 503.36 120.38 502.41 119.74 502.27 121.25"/><polygon class="cls-19" points="501.45 113.72 502.41 114.36 502.55 112.85 501.59 112.21 501.45 113.72"/><polygon class="cls-19" points="501.19 116.61 502.14 117.25 502.35 115.03 501.39 114.39 501.19 116.61"/><polygon class="cls-19" points="500.94 119.26 501.9 119.9 502.07 118 501.12 117.36 500.94 119.26"/><polygon class="cls-19" points="502.07 123.43 503.02 124.07 503.16 122.56 502.21 121.92 502.07 123.43"/><polygon class="cls-19" points="501.65 111.62 502.6 112.26 502.66 111.61 501.71 110.97 501.65 111.62"/><polygon class="cls-19" points="472.64 95.26 473.6 95.91 473.66 95.26 472.7 94.61 472.64 95.26"/><polygon class="cls-19" points="472.24 99.66 473.19 100.3 473.55 96.5 472.59 95.86 472.24 99.66"/><polygon class="cls-19" points="472.05 101.76 473 102.4 473.14 100.89 472.19 100.25 472.05 101.76"/><polygon class="cls-19" points="471.85 103.94 472.8 104.58 472.94 103.07 471.99 102.43 471.85 103.94"/><polygon class="cls-19" points="471.03 96.41 471.98 97.05 472.12 95.54 471.17 94.9 471.03 96.41"/><polygon class="cls-19" points="470.76 99.29 471.72 99.94 471.92 97.72 470.97 97.08 470.76 99.29"/><polygon class="cls-19" points="470.52 101.95 471.47 102.59 471.65 100.69 470.69 100.05 470.52 101.95"/><polygon class="cls-19" points="471.64 106.12 472.6 106.76 472.74 105.25 471.78 104.61 471.64 106.12"/><polygon class="cls-19" points="471.22 94.31 472.18 94.95 472.24 94.3 471.28 93.66 471.22 94.31"/><path class="cls-14" d="M641.73,73.45l-24.8-16.69c-.54-.36-.42-.91.27-1.22l8.08-3.65L652,69.9l-8.08,3.65A2.55,2.55,0,0,1,641.73,73.45Z"/><path class="cls-110" d="M680.72,56.68l.46-5L672.7,51,654.84,39a2.08,2.08,0,0,0-1.81-.08l-19.71,8.9-8.44-.68-.46,5h0a.51.51,0,0,0,.27.44l25.62,17.24a2.08,2.08,0,0,0,1.81.08l28.12-12.7A.75.75,0,0,0,680.72,56.68Z"/><path class="cls-111" d="M650.77,64.79,625.15,47.55c-.44-.29-.34-.74.22-1l28.12-12.7a2.08,2.08,0,0,1,1.81.08l25.62,17.24c.44.29.34.74-.22,1l-28.12,12.7A2.08,2.08,0,0,1,650.77,64.79Z"/><path class="cls-17" d="M651,63,628.32,47.76c-.39-.26-.3-.66.2-.88l24.93-11.26a1.84,1.84,0,0,1,1.6.07L677.75,51c.39.26.3.66-.2.88L652.63,63.1A1.84,1.84,0,0,1,651,63Z"/><path class="cls-18" d="M651.19,61.93l-20.86-14c-.36-.24-.28-.6.18-.81l22.9-10.34a1.69,1.69,0,0,1,1.47.06l20.86,14c.36.24.28.6-.18.81L652.66,62A1.69,1.69,0,0,1,651.19,61.93Z"/><polygon class="cls-19" points="652.6 48.52 650.16 46.88 651.64 46.22 654.08 47.86 652.6 48.52"/><polygon class="cls-19" points="657.4 48.71 654.7 49.93 653.37 49.04 656.07 47.82 657.4 48.71"/><polygon class="cls-19" points="651.99 48.8 650.51 49.47 649.18 48.57 650.66 47.91 651.99 48.8"/><polygon class="cls-19" points="656.59 51.9 655.12 52.57 651.27 49.98 652.75 49.31 656.59 51.9"/><path class="cls-14" d="M448.92,203.25l-24.8-16.69c-.54-.36-.42-.91.27-1.22l14.95-6.83,26.75,18-14.95,6.83A2.55,2.55,0,0,1,448.92,203.25Z"/><path class="cls-112" d="M494.78,183.3l.46-5-8.49-.69-17.86-12a2.08,2.08,0,0,0-1.81-.08l-19.71,8.9-8.44-.68-.46,5h0a.51.51,0,0,0,.27.44l25.62,17.24a2.08,2.08,0,0,0,1.81.08l28.12-12.7A.75.75,0,0,0,494.78,183.3Z"/><path class="cls-113" d="M464.83,191.41l-25.62-17.24c-.44-.29-.34-.74.22-1l28.12-12.7a2.08,2.08,0,0,1,1.81.08L495,177.79c.44.29.34.74-.22,1l-28.12,12.7A2.08,2.08,0,0,1,464.83,191.41Z"/><path class="cls-113" d="M464.83,191.41l-25.62-17.24c-.44-.29-.34-.74.22-1l28.12-12.7a2.08,2.08,0,0,1,1.81.08L495,177.79c.44.29.34.74-.22,1l-28.12,12.7A2.08,2.08,0,0,1,464.83,191.41Z"/><path class="cls-17" d="M465.09,189.65l-22.71-15.28c-.39-.26-.3-.66.2-.88l24.93-11.26a1.84,1.84,0,0,1,1.6.07l22.71,15.28c.39.26.3.66-.2.88l-24.93,11.26A1.84,1.84,0,0,1,465.09,189.65Z"/><path class="cls-18" d="M465.25,188.54l-20.86-14c-.36-.24-.28-.6.18-.81l22.9-10.34a1.69,1.69,0,0,1,1.47.06l20.86,14c.36.24.28.6-.18.81l-22.9,10.34A1.69,1.69,0,0,1,465.25,188.54Z"/><polygon class="cls-19" points="466.67 175.14 464.23 173.5 465.7 172.83 468.14 174.47 466.67 175.14"/><polygon class="cls-19" points="471.46 175.33 468.76 176.55 467.43 175.65 470.13 174.43 471.46 175.33"/><polygon class="cls-19" points="466.05 175.42 464.58 176.08 463.24 175.19 464.72 174.52 466.05 175.42"/><polygon class="cls-19" points="470.66 178.51 469.18 179.18 465.34 176.6 466.81 175.93 470.66 178.51"/><path class="cls-114" d="M495.87,171.53l-11.49-.87-15-10.1a2.08,2.08,0,0,0-1.81-.08l-16.87,7.62-11.15-.85-.6,6.52h0a.54.54,0,0,0,.27.39l25.62,17.24a2.08,2.08,0,0,0,1.81.08l28.12-12.7a.81.81,0,0,0,.47-.43h0Z"/><path class="cls-115" d="M495.81,172.17l.46-5-8.49-.69-17.86-12a2.08,2.08,0,0,0-1.81-.08l-19.71,8.9-8.44-.68-.46,5h0a.51.51,0,0,0,.27.44L465.4,185.3a2.08,2.08,0,0,0,1.81.08l28.12-12.7A.75.75,0,0,0,495.81,172.17Z"/><path class="cls-116" d="M465.86,180.28,440.24,163c-.44-.29-.34-.74.22-1l28.12-12.7a2.08,2.08,0,0,1,1.81.08L496,166.66c.44.29.34.74-.22,1l-28.12,12.7A2.08,2.08,0,0,1,465.86,180.28Z"/><path class="cls-17" d="M466.12,178.53l-22.71-15.28c-.39-.26-.3-.66.2-.88l24.93-11.26a1.84,1.84,0,0,1,1.6.07l22.71,15.28c.39.26.3.66-.2.88l-24.93,11.26A1.84,1.84,0,0,1,466.12,178.53Z"/><path class="cls-18" d="M466.28,177.41l-20.86-14c-.36-.24-.28-.6.18-.81l22.9-10.34a1.69,1.69,0,0,1,1.47.06l20.86,14c.36.24.28.6-.18.81l-22.9,10.34A1.69,1.69,0,0,1,466.28,177.41Z"/><polygon class="cls-19" points="467.69 164.01 465.25 162.37 466.73 161.7 469.17 163.34 467.69 164.01"/><polygon class="cls-19" points="472.49 164.2 469.79 165.42 468.45 164.52 471.16 163.3 472.49 164.2"/><polygon class="cls-19" points="467.08 164.29 465.6 164.96 464.27 164.06 465.75 163.39 467.08 164.29"/><polygon class="cls-19" points="471.68 167.39 470.21 168.05 466.36 165.47 467.84 164.8 471.68 167.39"/></g></g></svg>