<svg xmlns="http://www.w3.org/2000/svg" xmlns:xlink="http://www.w3.org/1999/xlink" viewBox="0 0 388.19 381.48"><defs><style>.cls-1{isolation:isolate;}.cls-168,.cls-2{opacity:0.2;mix-blend-mode:darken;}.cls-168,.cls-3{fill:#191849;}.cls-125,.cls-14,.cls-141,.cls-15,.cls-16,.cls-165,.cls-17,.cls-4,.cls-5,.cls-85,.cls-86,.cls-87,.cls-88,.cls-90{fill:none;}.cls-125,.cls-14,.cls-141,.cls-15,.cls-16,.cls-165,.cls-17,.cls-4,.cls-5,.cls-90{stroke-linecap:round;}.cls-14,.cls-15,.cls-16,.cls-17,.cls-4,.cls-5{stroke-linejoin:round;}.cls-16,.cls-17,.cls-4,.cls-5{stroke-width:2.78px;}.cls-4{stroke:url(#Degradado_sin_nombre_7);}.cls-5{stroke:url(#Degradado_sin_nombre_7-2);}.cls-6{fill:url(#Degradado_sin_nombre_6);}.cls-7{fill:url(#Degradado_sin_nombre_4);}.cls-8{fill:url(#Degradado_sin_nombre_3);}.cls-9{fill:url(#Degradado_sin_nombre_2);}.cls-10{fill:url(#Degradado_sin_nombre_6-2);}.cls-11{fill:url(#Degradado_sin_nombre_4-2);}.cls-12{fill:url(#Degradado_sin_nombre_3-2);}.cls-13{fill:url(#Degradado_sin_nombre_2-2);}.cls-14,.cls-15{stroke-width:3.7px;}.cls-14{stroke:url(#Degradado_sin_nombre_7-3);}.cls-15{stroke:url(#Degradado_sin_nombre_7-4);}.cls-16{stroke:url(#Degradado_sin_nombre_7-5);}.cls-17{stroke:url(#Degradado_sin_nombre_7-6);}.cls-18{fill:url(#Degradado_sin_nombre_6-3);}.cls-19{fill:url(#Degradado_sin_nombre_4-3);}.cls-20{fill:url(#Degradado_sin_nombre_3-3);}.cls-21{fill:url(#Degradado_sin_nombre_2-3);}.cls-22{fill:url(#Degradado_sin_nombre_6-4);}.cls-23{fill:url(#Degradado_sin_nombre_4-4);}.cls-24{fill:url(#Degradado_sin_nombre_3-4);}.cls-25{fill:url(#Degradado_sin_nombre_2-4);}.cls-26{fill:url(#Degradado_sin_nombre_6-5);}.cls-27{fill:url(#Degradado_sin_nombre_4-5);}.cls-28{fill:url(#Degradado_sin_nombre_3-5);}.cls-29{fill:url(#Degradado_sin_nombre_2-5);}.cls-30{fill:url(#Degradado_sin_nombre_6-6);}.cls-31{fill:url(#Degradado_sin_nombre_4-6);}.cls-32{fill:url(#Degradado_sin_nombre_3-6);}.cls-33{fill:url(#Degradado_sin_nombre_2-6);}.cls-34{fill:#625ece;}.cls-35{fill:url(#Degradado_sin_nombre_3-7);}.cls-36{fill:url(#Degradado_sin_nombre_3-8);}.cls-37{fill:#918bd6;}.cls-38{fill:url(#Degradado_sin_nombre_7-7);}.cls-39{fill:#3e3e3d;}.cls-40{fill:#2e2589;}.cls-41{fill:url(#Degradado_sin_nombre_6-7);}.cls-42{fill:url(#Degradado_sin_nombre_4-7);}.cls-43{fill:url(#Degradado_sin_nombre_3-9);}.cls-44{fill:url(#Degradado_sin_nombre_2-7);}.cls-45{fill:url(#Degradado_sin_nombre_6-8);}.cls-46{fill:url(#Degradado_sin_nombre_4-8);}.cls-47{fill:url(#Degradado_sin_nombre_3-10);}.cls-48{fill:url(#Degradado_sin_nombre_2-8);}.cls-49{fill:url(#Degradado_sin_nombre_6-9);}.cls-50{fill:url(#Degradado_sin_nombre_4-9);}.cls-51{fill:url(#Degradado_sin_nombre_3-11);}.cls-52{fill:url(#Degradado_sin_nombre_2-9);}.cls-53{fill:url(#Degradado_sin_nombre_6-10);}.cls-54{fill:url(#Degradado_sin_nombre_4-10);}.cls-55{fill:url(#Degradado_sin_nombre_3-12);}.cls-56{fill:url(#Degradado_sin_nombre_2-10);}.cls-57{fill:url(#Degradado_sin_nombre_6-11);}.cls-58{fill:url(#Degradado_sin_nombre_4-11);}.cls-59{fill:url(#Degradado_sin_nombre_3-13);}.cls-60{fill:url(#Degradado_sin_nombre_2-11);}.cls-61{fill:url(#Degradado_sin_nombre_6-12);}.cls-62{fill:url(#Degradado_sin_nombre_4-12);}.cls-63{fill:url(#Degradado_sin_nombre_3-14);}.cls-64{fill:url(#Degradado_sin_nombre_2-12);}.cls-65{fill:url(#Degradado_sin_nombre_6-13);}.cls-66{fill:url(#Degradado_sin_nombre_4-13);}.cls-67{fill:url(#Degradado_sin_nombre_3-15);}.cls-68{fill:url(#Degradado_sin_nombre_2-13);}.cls-69{fill:url(#Degradado_sin_nombre_6-14);}.cls-70{fill:url(#Degradado_sin_nombre_4-14);}.cls-71{fill:url(#Degradado_sin_nombre_3-16);}.cls-72{fill:url(#Degradado_sin_nombre_2-14);}.cls-73{fill:url(#Degradado_sin_nombre_6-15);}.cls-74{fill:url(#Degradado_sin_nombre_4-15);}.cls-75{fill:url(#Degradado_sin_nombre_3-17);}.cls-76{fill:url(#Degradado_sin_nombre_2-15);}.cls-105,.cls-128,.cls-148,.cls-77{opacity:0.75;}.cls-77{fill:url(#Degradado_sin_nombre_7-8);}.cls-78{mix-blend-mode:screen;}.cls-79{font-size:2.89px;}.cls-102,.cls-106,.cls-111,.cls-121,.cls-129,.cls-142,.cls-149,.cls-152,.cls-161,.cls-79,.cls-89,.cls-91,.cls-94,.cls-97{fill:#fff;}.cls-102,.cls-111,.cls-121,.cls-129,.cls-142,.cls-149,.cls-152,.cls-161,.cls-79,.cls-89,.cls-91,.cls-94,.cls-97{font-family:OpenSans-Semibold, OpenSans Semibold;font-weight:700;}.cls-80{letter-spacing:0.01em;}.cls-81{letter-spacing:-0.01em;}.cls-82{letter-spacing:0em;}.cls-83{letter-spacing:-0.01em;}.cls-84{letter-spacing:0.01em;}.cls-85{stroke:#81d9bf;}.cls-125,.cls-141,.cls-165,.cls-85,.cls-86,.cls-87,.cls-88,.cls-90{stroke-miterlimit:10;}.cls-85,.cls-86,.cls-87{stroke-width:0.4px;}.cls-86{stroke:#e6af41;}.cls-87{stroke:#b61351;}.cls-125,.cls-141,.cls-165,.cls-88,.cls-90{stroke:#fff;}.cls-88{stroke-width:0.69px;}.cls-89{font-size:1.24px;}.cls-90{stroke-width:0.35px;}.cls-102,.cls-91,.cls-94,.cls-97{font-size:1.65px;}.cls-92{letter-spacing:-0.03em;}.cls-93{letter-spacing:0.01em;}.cls-94{letter-spacing:0em;}.cls-95{letter-spacing:-0.01em;}.cls-96{letter-spacing:-0.01em;}.cls-97{letter-spacing:0.01em;}.cls-98{letter-spacing:0em;}.cls-102,.cls-99{letter-spacing:0em;}.cls-100{letter-spacing:0.01em;}.cls-101{letter-spacing:-0.01em;}.cls-103,.cls-104,.cls-126,.cls-127,.cls-146,.cls-147,.cls-166,.cls-167{opacity:0.3;}.cls-103{fill:url(#Degradado_sin_nombre_228);}.cls-104{fill:url(#Degradado_sin_nombre_151);}.cls-105{fill:url(#Degradado_sin_nombre_7-9);}.cls-107{fill:#81d9bf;}.cls-108{fill:#e6af41;}.cls-109{fill:#b61351;}.cls-110{fill:#221c61;}.cls-111,.cls-149{font-size:4.13px;}.cls-112{letter-spacing:-0.01em;}.cls-113{letter-spacing:-0.01em;}.cls-114{letter-spacing:0em;}.cls-115{letter-spacing:0em;}.cls-116{letter-spacing:0em;}.cls-117{letter-spacing:-0.01em;}.cls-118{letter-spacing:0.01em;}.cls-119{letter-spacing:0em;}.cls-120{fill:url(#Degradado_sin_nombre_3-18);}.cls-121{font-size:4.73px;}.cls-122{letter-spacing:-0.01em;}.cls-123{letter-spacing:0.01em;}.cls-124{letter-spacing:0.01em;}.cls-125{stroke-width:0.68px;}.cls-126{fill:url(#Degradado_sin_nombre_107);}.cls-127{fill:url(#Degradado_sin_nombre_107-2);}.cls-128{fill:url(#Degradado_sin_nombre_7-10);}.cls-129{font-size:2.67px;}.cls-130{letter-spacing:0em;}.cls-131{letter-spacing:-0.01em;}.cls-132{letter-spacing:0em;}.cls-133{letter-spacing:-0.01em;}.cls-134{letter-spacing:0em;}.cls-135{fill:url(#Degradado_sin_nombre_3-19);}.cls-136{fill:url(#Degradado_sin_nombre_3-20);}.cls-137{fill:url(#Degradado_sin_nombre_3-21);}.cls-138{fill:url(#Degradado_sin_nombre_3-22);}.cls-139{fill:url(#Degradado_sin_nombre_3-23);}.cls-140{fill:url(#Degradado_sin_nombre_3-24);}.cls-141{stroke-width:0.47px;}.cls-142{font-size:3.06px;}.cls-143{letter-spacing:0em;}.cls-144{letter-spacing:-0.04em;}.cls-145{letter-spacing:-0.03em;}.cls-146{fill:url(#Degradado_sin_nombre_315);}.cls-147{fill:url(#Degradado_sin_nombre_26);}.cls-148{fill:url(#Degradado_sin_nombre_7-11);}.cls-149{letter-spacing:-0.07em;}.cls-150{letter-spacing:0em;}.cls-151{letter-spacing:-0.02em;}.cls-152{font-size:3.09px;}.cls-153{letter-spacing:0em;}.cls-154{letter-spacing:-0.01em;}.cls-155{letter-spacing:0em;}.cls-156{letter-spacing:0.02em;}.cls-157{letter-spacing:0em;}.cls-158{letter-spacing:0.03em;}.cls-159{letter-spacing:0em;}.cls-160{fill:url(#Degradado_sin_nombre_3-26);}.cls-161{font-size:3.55px;}.cls-162{letter-spacing:0em;}.cls-163{letter-spacing:0em;}.cls-164{letter-spacing:-0.01em;}.cls-165{stroke-width:0.46px;}.cls-166{fill:url(#Degradado_sin_nombre_414);}.cls-167{fill:url(#Degradado_sin_nombre_395);}</style><linearGradient id="Degradado_sin_nombre_7" x1="36.68" y1="236.72" x2="206.82" y2="236.72" gradientUnits="userSpaceOnUse"><stop offset="0" stop-color="#3a2aa4"/><stop offset="0.22" stop-color="#5c32b6"/><stop offset="0.57" stop-color="#7533b4"/><stop offset="1" stop-color="#81d9bf"/></linearGradient><linearGradient id="Degradado_sin_nombre_7-2" x1="82.9" y1="195.02" x2="178.39" y2="261.88" xlink:href="#Degradado_sin_nombre_7"/><linearGradient id="Degradado_sin_nombre_6" x1="91.91" y1="210.2" x2="97.91" y2="214.4" gradientUnits="userSpaceOnUse"><stop offset="0" stop-color="#221c61"/><stop offset="0.04" stop-color="#241d66"/><stop offset="0.27" stop-color="#2e2381"/><stop offset="0.51" stop-color="#342795"/><stop offset="0.75" stop-color="#3929a0"/><stop offset="1" stop-color="#3a2aa4"/></linearGradient><linearGradient id="Degradado_sin_nombre_4" x1="93.25" y1="210.93" x2="96.39" y2="213.13" gradientUnits="userSpaceOnUse"><stop offset="0.34" stop-color="#221c61"/><stop offset="1" stop-color="#3a2aa4"/></linearGradient><linearGradient id="Degradado_sin_nombre_3" x1="93.2" y1="210.99" x2="96.35" y2="213.19" gradientUnits="userSpaceOnUse"><stop offset="0" stop-color="#221c61"/><stop offset="1" stop-color="#3a2aa4"/></linearGradient><linearGradient id="Degradado_sin_nombre_2" x1="93.89" y1="211.47" x2="97.03" y2="213.67" gradientUnits="userSpaceOnUse"><stop offset="0" stop-color="#221c61"/><stop offset="0.01" stop-color="#241d63"/><stop offset="0.25" stop-color="#3c2687"/><stop offset="0.47" stop-color="#4e2da1"/><stop offset="0.67" stop-color="#5831b1"/><stop offset="0.82" stop-color="#5c32b6"/><stop offset="1" stop-color="#3a2aa4"/></linearGradient><linearGradient id="Degradado_sin_nombre_6-2" x1="119.2" y1="183.64" x2="125.2" y2="187.84" xlink:href="#Degradado_sin_nombre_6"/><linearGradient id="Degradado_sin_nombre_4-2" x1="120.54" y1="184.37" x2="123.68" y2="186.57" xlink:href="#Degradado_sin_nombre_4"/><linearGradient id="Degradado_sin_nombre_3-2" x1="120.5" y1="184.43" x2="123.64" y2="186.63" xlink:href="#Degradado_sin_nombre_3"/><linearGradient id="Degradado_sin_nombre_2-2" x1="121.18" y1="184.91" x2="124.32" y2="187.11" xlink:href="#Degradado_sin_nombre_2"/><linearGradient id="Degradado_sin_nombre_7-3" x1="113.76" y1="199.11" x2="294.7" y2="325.8" xlink:href="#Degradado_sin_nombre_7"/><linearGradient id="Degradado_sin_nombre_7-4" x1="265.54" y1="151.68" x2="323.24" y2="192.08" xlink:href="#Degradado_sin_nombre_7"/><linearGradient id="Degradado_sin_nombre_7-5" x1="234.69" y1="127.36" x2="306.76" y2="177.82" xlink:href="#Degradado_sin_nombre_7"/><linearGradient id="Degradado_sin_nombre_7-6" x1="229.11" y1="127.25" x2="292.55" y2="171.67" xlink:href="#Degradado_sin_nombre_7"/><linearGradient id="Degradado_sin_nombre_6-3" x1="170.54" y1="351.75" x2="184.99" y2="361.87" xlink:href="#Degradado_sin_nombre_6"/><linearGradient id="Degradado_sin_nombre_4-3" x1="173.77" y1="353.51" x2="181.33" y2="358.81" xlink:href="#Degradado_sin_nombre_4"/><linearGradient id="Degradado_sin_nombre_3-3" x1="173.66" y1="353.66" x2="181.23" y2="358.96" xlink:href="#Degradado_sin_nombre_3"/><linearGradient id="Degradado_sin_nombre_2-3" x1="175.31" y1="354.82" x2="182.87" y2="360.11" xlink:href="#Degradado_sin_nombre_2"/><linearGradient id="Degradado_sin_nombre_6-4" x1="210.45" y1="332.39" x2="219.15" y2="338.48" xlink:href="#Degradado_sin_nombre_6"/><linearGradient id="Degradado_sin_nombre_4-4" x1="212.39" y1="333.45" x2="216.95" y2="336.63" xlink:href="#Degradado_sin_nombre_4"/><linearGradient id="Degradado_sin_nombre_3-4" x1="212.33" y1="333.54" x2="216.88" y2="336.72" xlink:href="#Degradado_sin_nombre_3"/><linearGradient id="Degradado_sin_nombre_2-4" x1="213.32" y1="334.23" x2="217.87" y2="337.42" xlink:href="#Degradado_sin_nombre_2"/><linearGradient id="Degradado_sin_nombre_6-5" x1="256.74" y1="305.66" x2="265.44" y2="311.75" xlink:href="#Degradado_sin_nombre_6"/><linearGradient id="Degradado_sin_nombre_4-5" x1="258.69" y1="306.72" x2="263.24" y2="309.91" xlink:href="#Degradado_sin_nombre_4"/><linearGradient id="Degradado_sin_nombre_3-5" x1="258.62" y1="306.81" x2="263.18" y2="310" xlink:href="#Degradado_sin_nombre_3"/><linearGradient id="Degradado_sin_nombre_2-5" x1="259.61" y1="307.5" x2="264.17" y2="310.69" xlink:href="#Degradado_sin_nombre_2"/><linearGradient id="Degradado_sin_nombre_6-6" x1="293.78" y1="284.28" x2="302.48" y2="290.37" xlink:href="#Degradado_sin_nombre_6"/><linearGradient id="Degradado_sin_nombre_4-6" x1="295.72" y1="285.34" x2="300.27" y2="288.53" xlink:href="#Degradado_sin_nombre_4"/><linearGradient id="Degradado_sin_nombre_3-6" x1="295.66" y1="285.43" x2="300.21" y2="288.62" xlink:href="#Degradado_sin_nombre_3"/><linearGradient id="Degradado_sin_nombre_2-6" x1="296.65" y1="286.12" x2="301.2" y2="289.31" xlink:href="#Degradado_sin_nombre_2"/><linearGradient id="Degradado_sin_nombre_3-7" x1="149.89" y1="204.87" x2="234.03" y2="204.87" xlink:href="#Degradado_sin_nombre_3"/><linearGradient id="Degradado_sin_nombre_3-8" x1="135.85" y1="268.49" x2="186.78" y2="239.17" xlink:href="#Degradado_sin_nombre_3"/><linearGradient id="Degradado_sin_nombre_7-7" x1="140.33" y1="168.93" x2="243.78" y2="241.37" xlink:href="#Degradado_sin_nombre_7"/><linearGradient id="Degradado_sin_nombre_6-7" x1="127.12" y1="327.04" x2="135.82" y2="333.13" xlink:href="#Degradado_sin_nombre_6"/><linearGradient id="Degradado_sin_nombre_4-7" x1="129.07" y1="328.1" x2="133.62" y2="331.29" xlink:href="#Degradado_sin_nombre_4"/><linearGradient id="Degradado_sin_nombre_3-9" x1="129" y1="328.19" x2="133.56" y2="331.38" xlink:href="#Degradado_sin_nombre_3"/><linearGradient id="Degradado_sin_nombre_2-7" x1="129.99" y1="328.88" x2="134.55" y2="332.07" xlink:href="#Degradado_sin_nombre_2"/><linearGradient id="Degradado_sin_nombre_6-8" x1="312.3" y1="166.68" x2="320.99" y2="172.77" xlink:href="#Degradado_sin_nombre_6"/><linearGradient id="Degradado_sin_nombre_4-8" x1="314.24" y1="167.74" x2="318.79" y2="170.93" xlink:href="#Degradado_sin_nombre_4"/><linearGradient id="Degradado_sin_nombre_3-10" x1="314.17" y1="167.83" x2="318.73" y2="171.02" xlink:href="#Degradado_sin_nombre_3"/><linearGradient id="Degradado_sin_nombre_2-8" x1="315.17" y1="168.52" x2="319.72" y2="171.71" xlink:href="#Degradado_sin_nombre_2"/><linearGradient id="Degradado_sin_nombre_6-9" x1="340.07" y1="139.95" x2="348.77" y2="146.04" xlink:href="#Degradado_sin_nombre_6"/><linearGradient id="Degradado_sin_nombre_4-9" x1="342.01" y1="141.01" x2="346.57" y2="144.2" xlink:href="#Degradado_sin_nombre_4"/><linearGradient id="Degradado_sin_nombre_3-11" x1="341.95" y1="141.1" x2="346.5" y2="144.29" xlink:href="#Degradado_sin_nombre_3"/><linearGradient id="Degradado_sin_nombre_2-9" x1="342.94" y1="141.79" x2="347.49" y2="144.98" xlink:href="#Degradado_sin_nombre_2"/><linearGradient id="Degradado_sin_nombre_6-10" x1="33.34" y1="229.85" x2="45.71" y2="238.52" xlink:href="#Degradado_sin_nombre_6"/><linearGradient id="Degradado_sin_nombre_4-10" x1="36.1" y1="231.36" x2="42.58" y2="235.9" xlink:href="#Degradado_sin_nombre_4"/><linearGradient id="Degradado_sin_nombre_3-12" x1="36.01" y1="231.49" x2="42.49" y2="236.03" xlink:href="#Degradado_sin_nombre_3"/><linearGradient id="Degradado_sin_nombre_2-10" x1="37.42" y1="232.48" x2="43.9" y2="237.01" xlink:href="#Degradado_sin_nombre_2"/><linearGradient id="Degradado_sin_nombre_6-11" x1="146" y1="295.22" x2="153.98" y2="300.8" xlink:href="#Degradado_sin_nombre_6"/><linearGradient id="Degradado_sin_nombre_4-11" x1="147.78" y1="296.19" x2="151.96" y2="299.12" xlink:href="#Degradado_sin_nombre_4"/><linearGradient id="Degradado_sin_nombre_3-13" x1="147.73" y1="296.28" x2="151.9" y2="299.2" xlink:href="#Degradado_sin_nombre_3"/><linearGradient id="Degradado_sin_nombre_2-11" x1="148.63" y1="296.91" x2="152.81" y2="299.83" xlink:href="#Degradado_sin_nombre_2"/><linearGradient id="Degradado_sin_nombre_6-12" x1="146.73" y1="284.37" x2="152.73" y2="288.57" xlink:href="#Degradado_sin_nombre_6"/><linearGradient id="Degradado_sin_nombre_4-12" x1="148.07" y1="285.1" x2="151.21" y2="287.3" xlink:href="#Degradado_sin_nombre_4"/><linearGradient id="Degradado_sin_nombre_3-14" x1="148.02" y1="285.16" x2="151.17" y2="287.36" xlink:href="#Degradado_sin_nombre_3"/><linearGradient id="Degradado_sin_nombre_2-12" x1="148.71" y1="285.64" x2="151.85" y2="287.84" xlink:href="#Degradado_sin_nombre_2"/><linearGradient id="Degradado_sin_nombre_6-13" x1="110.03" y1="263.71" x2="116.03" y2="267.91" xlink:href="#Degradado_sin_nombre_6"/><linearGradient id="Degradado_sin_nombre_4-13" x1="111.37" y1="264.44" x2="114.51" y2="266.64" xlink:href="#Degradado_sin_nombre_4"/><linearGradient id="Degradado_sin_nombre_3-15" x1="111.33" y1="264.5" x2="114.47" y2="266.7" xlink:href="#Degradado_sin_nombre_3"/><linearGradient id="Degradado_sin_nombre_2-13" x1="112.01" y1="264.98" x2="115.15" y2="267.18" xlink:href="#Degradado_sin_nombre_2"/><linearGradient id="Degradado_sin_nombre_6-14" x1="91.42" y1="263.83" x2="97.42" y2="268.03" xlink:href="#Degradado_sin_nombre_6"/><linearGradient id="Degradado_sin_nombre_4-14" x1="92.76" y1="264.56" x2="95.9" y2="266.76" xlink:href="#Degradado_sin_nombre_4"/><linearGradient id="Degradado_sin_nombre_3-16" x1="92.71" y1="264.62" x2="95.86" y2="266.82" xlink:href="#Degradado_sin_nombre_3"/><linearGradient id="Degradado_sin_nombre_2-14" x1="93.4" y1="265.1" x2="96.54" y2="267.3" xlink:href="#Degradado_sin_nombre_2"/><linearGradient id="Degradado_sin_nombre_6-15" x1="325.67" y1="261.57" x2="338.36" y2="270.45" xlink:href="#Degradado_sin_nombre_6"/><linearGradient id="Degradado_sin_nombre_4-15" x1="328.51" y1="263.12" x2="335.15" y2="267.77" xlink:href="#Degradado_sin_nombre_4"/><linearGradient id="Degradado_sin_nombre_3-17" x1="328.41" y1="263.25" x2="335.06" y2="267.9" xlink:href="#Degradado_sin_nombre_3"/><linearGradient id="Degradado_sin_nombre_2-15" x1="329.86" y1="264.26" x2="336.5" y2="268.91" xlink:href="#Degradado_sin_nombre_2"/><linearGradient id="Degradado_sin_nombre_7-8" x1="208.67" y1="194.24" x2="348.57" y2="194.24" xlink:href="#Degradado_sin_nombre_7"/><linearGradient id="Degradado_sin_nombre_228" x1="342.36" y1="227.96" x2="395.27" y2="219.43" gradientUnits="userSpaceOnUse"><stop offset="0" stop-color="#fff"/><stop offset="0.15" stop-color="#fff" stop-opacity="0.75"/><stop offset="0.29" stop-color="#fff" stop-opacity="0.52"/><stop offset="0.44" stop-color="#fff" stop-opacity="0.33"/><stop offset="0.57" stop-color="#fff" stop-opacity="0.19"/><stop offset="0.69" stop-color="#fff" stop-opacity="0.08"/><stop offset="0.81" stop-color="#fff" stop-opacity="0.02"/><stop offset="0.89" stop-color="#fff" stop-opacity="0"/></linearGradient><linearGradient id="Degradado_sin_nombre_151" x1="283.61" y1="184.43" x2="310.49" y2="139.34" gradientUnits="userSpaceOnUse"><stop offset="0" stop-color="#fff"/><stop offset="0.06" stop-color="#fff" stop-opacity="0.87"/><stop offset="0.19" stop-color="#fff" stop-opacity="0.64"/><stop offset="0.31" stop-color="#fff" stop-opacity="0.45"/><stop offset="0.43" stop-color="#fff" stop-opacity="0.29"/><stop offset="0.55" stop-color="#fff" stop-opacity="0.16"/><stop offset="0.66" stop-color="#fff" stop-opacity="0.07"/><stop offset="0.76" stop-color="#fff" stop-opacity="0.02"/><stop offset="0.86" stop-color="#fff" stop-opacity="0"/></linearGradient><linearGradient id="Degradado_sin_nombre_7-9" x1="41.08" y1="57.92" x2="192.77" y2="164.13" xlink:href="#Degradado_sin_nombre_7"/><linearGradient id="Degradado_sin_nombre_3-18" x1="127.91" y1="-147.92" x2="239.67" y2="-147.92" gradientTransform="matrix(0.86, 0.5, -0.04, 1.14, -46.26, 162.13)" xlink:href="#Degradado_sin_nombre_3"/><linearGradient id="Degradado_sin_nombre_107" x1="114.42" y1="98.91" x2="155.18" y2="31.96" gradientUnits="userSpaceOnUse"><stop offset="0" stop-color="#fff"/><stop offset="0.17" stop-color="#fff" stop-opacity="0.74"/><stop offset="0.33" stop-color="#fff" stop-opacity="0.52"/><stop offset="0.49" stop-color="#fff" stop-opacity="0.33"/><stop offset="0.64" stop-color="#fff" stop-opacity="0.19"/><stop offset="0.78" stop-color="#fff" stop-opacity="0.08"/><stop offset="0.9" stop-color="#fff" stop-opacity="0.02"/><stop offset="1" stop-color="#fff" stop-opacity="0"/></linearGradient><linearGradient id="Degradado_sin_nombre_107-2" x1="166.72" y1="141.6" x2="209.28" y2="126.27" xlink:href="#Degradado_sin_nombre_107"/><linearGradient id="Degradado_sin_nombre_7-10" x1="187.5" y1="202.63" x2="304.67" y2="284.67" xlink:href="#Degradado_sin_nombre_7"/><linearGradient id="Degradado_sin_nombre_3-19" x1="255.6" y1="7.96" x2="301.72" y2="7.96" gradientTransform="matrix(0.93, 0.54, -0.01, 1.07, -10.19, 81.11)" xlink:href="#Degradado_sin_nombre_3"/><linearGradient id="Degradado_sin_nombre_3-20" x1="255.6" y1="14.19" x2="301.72" y2="14.19" gradientTransform="matrix(0.93, 0.54, -0.01, 1.07, -10.19, 81.11)" xlink:href="#Degradado_sin_nombre_3"/><linearGradient id="Degradado_sin_nombre_3-21" x1="255.6" y1="20.42" x2="301.72" y2="20.42" gradientTransform="matrix(0.93, 0.54, -0.01, 1.07, -10.19, 81.11)" xlink:href="#Degradado_sin_nombre_3"/><linearGradient id="Degradado_sin_nombre_3-22" x1="255.6" y1="26.66" x2="301.72" y2="26.66" gradientTransform="matrix(0.93, 0.54, -0.01, 1.07, -10.19, 81.11)" xlink:href="#Degradado_sin_nombre_3"/><linearGradient id="Degradado_sin_nombre_3-23" x1="255.6" y1="32.89" x2="301.72" y2="32.89" gradientTransform="matrix(0.93, 0.54, -0.01, 1.07, -10.19, 81.11)" xlink:href="#Degradado_sin_nombre_3"/><linearGradient id="Degradado_sin_nombre_3-24" x1="233.53" y1="-5.86" x2="318.92" y2="-5.86" gradientTransform="matrix(0.93, 0.54, -0.01, 1.07, -10.19, 81.11)" xlink:href="#Degradado_sin_nombre_3"/><linearGradient id="Degradado_sin_nombre_315" x1="287.43" y1="266.78" x2="319.37" y2="257.52" gradientUnits="userSpaceOnUse"><stop offset="0" stop-color="#fff"/><stop offset="0.05" stop-color="#fff" stop-opacity="0.89"/><stop offset="0.17" stop-color="#fff" stop-opacity="0.66"/><stop offset="0.28" stop-color="#fff" stop-opacity="0.46"/><stop offset="0.4" stop-color="#fff" stop-opacity="0.29"/><stop offset="0.51" stop-color="#fff" stop-opacity="0.17"/><stop offset="0.61" stop-color="#fff" stop-opacity="0.07"/><stop offset="0.71" stop-color="#fff" stop-opacity="0.02"/><stop offset="0.8" stop-color="#fff" stop-opacity="0"/></linearGradient><linearGradient id="Degradado_sin_nombre_26" x1="244.53" y1="218.9" x2="265.36" y2="192.51" gradientUnits="userSpaceOnUse"><stop offset="0" stop-color="#fff"/><stop offset="1" stop-color="#fff" stop-opacity="0"/></linearGradient><linearGradient id="Degradado_sin_nombre_7-11" x1="69.91" y1="152.09" x2="180.61" y2="229.6" xlink:href="#Degradado_sin_nombre_7"/><linearGradient id="Degradado_sin_nombre_3-26" x1="195.33" y1="-68.35" x2="270.41" y2="-68.35" gradientTransform="matrix(0.81, 0.48, 0.06, 1.27, -60.86, 145.85)" xlink:href="#Degradado_sin_nombre_3"/><linearGradient id="Degradado_sin_nombre_414" x1="125.68" y1="166.53" x2="140.15" y2="141.93" gradientUnits="userSpaceOnUse"><stop offset="0" stop-color="#fff"/><stop offset="0.11" stop-color="#fff" stop-opacity="0.92"/><stop offset="0.33" stop-color="#fff" stop-opacity="0.71"/><stop offset="0.64" stop-color="#fff" stop-opacity="0.37"/><stop offset="0.95" stop-color="#fff" stop-opacity="0"/></linearGradient><linearGradient id="Degradado_sin_nombre_395" x1="166.01" y1="210.8" x2="185.78" y2="208.87" gradientUnits="userSpaceOnUse"><stop offset="0" stop-color="#fff"/><stop offset="0.06" stop-color="#fff" stop-opacity="0.89"/><stop offset="0.19" stop-color="#fff" stop-opacity="0.66"/><stop offset="0.33" stop-color="#fff" stop-opacity="0.46"/><stop offset="0.46" stop-color="#fff" stop-opacity="0.29"/><stop offset="0.59" stop-color="#fff" stop-opacity="0.17"/><stop offset="0.71" stop-color="#fff" stop-opacity="0.07"/><stop offset="0.82" stop-color="#fff" stop-opacity="0.02"/><stop offset="0.92" stop-color="#fff" stop-opacity="0"/></linearGradient></defs><title>Asset 1</title><g class="cls-1"><g id="Layer_2" data-name="Layer 2"><g id="OBJECTS"><g class="cls-2"><path class="cls-3" d="M195.29,245.75a1.31,1.31,0,1,0,1.31-2.26l-53.18-30.93a1.31,1.31,0,0,0-1.31,0L101,236.32a5.09,5.09,0,0,0-1.5-.22c-2.08,0-3.77,1.2-3.77,2.68a1.94,1.94,0,0,0,.08.54L63.52,257.94a1.31,1.31,0,0,0,0,2.26l49.28,28.61a1.91,1.91,0,0,0,0,.3c0,1.48,1.69,2.68,3.77,2.68a5.11,5.11,0,0,0,1.16-.14l29.64,17.21c.22,1.33,1.79,2.37,3.72,2.37s3.59-1.09,3.74-2.47l10.83-5.87a1.31,1.31,0,1,0-1.25-2.3l-10.92,5.92a4.89,4.89,0,0,0-4.89,0L120,290a2,2,0,0,0,.23-.89c0-1.48-1.69-2.68-3.77-2.68a4.92,4.92,0,0,0-1.94.39l-47.8-27.75,31-17.91a5,5,0,0,0,1.66.29c2.08,0,3.77-1.2,3.77-2.68a1.94,1.94,0,0,0-.13-.67l39.67-22.9Z"/><path class="cls-3" d="M361.08,168.11a1.74,1.74,0,0,0-2.38-.64l-48.31,27.76a7.32,7.32,0,0,0-2.34-.38c-3,0-5.46,1.74-5.46,3.88a2.82,2.82,0,0,0,.15.89L237.2,237.26a1.74,1.74,0,0,0,0,3l78.21,46.5a4.36,4.36,0,0,0-.85,2.53,4.66,4.66,0,0,0,1.57,3.36L293.33,306a7.21,7.21,0,0,0-2.7-.51c-3,0-5.46,1.74-5.46,3.88a2.87,2.87,0,0,0,.28,1.23l-26.74,15.62a7.12,7.12,0,0,0-2.93-.61c-3,0-5.46,1.74-5.46,3.88a2.91,2.91,0,0,0,.38,1.41l-35.26,20.6a7,7,0,0,0-3.2-.74c-3,0-5.46,1.74-5.46,3.88a3,3,0,0,0,.51,1.63L183.64,370a11.24,11.24,0,0,0-6.23-1.77,11.59,11.59,0,0,0-5.48,1.32L139,350.8a2.87,2.87,0,0,0,.29-1.23c0-2.14-2.44-3.88-5.46-3.88a7.16,7.16,0,0,0-2.8.56l-31.61-18a1.74,1.74,0,0,0-1.73,0l-86.65,50a1.74,1.74,0,0,0,1.74,3l85.78-49.53,29.93,17.09a2.81,2.81,0,0,0-.11.76c0,2.14,2.44,3.88,5.46,3.88a7.37,7.37,0,0,0,2.2-.33L169.17,372a4.91,4.91,0,0,0-.84,2.69c0,3.56,4.06,6.44,9.07,6.44s9.07-2.88,9.07-6.44a4.77,4.77,0,0,0-.46-2l24.63-14.38a7.53,7.53,0,0,0,1.6.17c3,0,5.46-1.74,5.46-3.88a2.8,2.8,0,0,0,0-.4l36.17-21.12a7.42,7.42,0,0,0,2,.26c3,0,5.46-1.74,5.46-3.88a2.8,2.8,0,0,0-.09-.66l27.24-15.91a7.36,7.36,0,0,0,2.22.34c3,0,5.46-1.74,5.46-3.88a2.82,2.82,0,0,0-.14-.86l23.78-13.89a10.84,10.84,0,0,0,2.78.36c4.4,0,8-2.53,8-5.65s-3.56-5.65-8-5.65a10.42,10.42,0,0,0-4.15.84L241.52,238.8l63.87-36.69a7.22,7.22,0,0,0,2.66.49c3,0,5.46-1.74,5.46-3.88a2.86,2.86,0,0,0-.24-1.14l47.17-27.1A1.74,1.74,0,0,0,361.08,168.11Z"/><path class="cls-3" d="M263.85,114.37l67.71,39.09L211.92,222.54a1.31,1.31,0,1,0,1.31,2.26L334.83,154.6a1.31,1.31,0,0,0,0-2.26l-69.67-40.23a1.31,1.31,0,0,0-1.31,2.26Z"/><path class="cls-3" d="M208.64,217.19a1.3,1.3,0,0,0,.65-.18L317.41,154.6a1.31,1.31,0,0,0,0-2.26l-61.19-35.07a1.31,1.31,0,0,0-1.3,2.27l59.22,33.94L208,214.76a1.31,1.31,0,0,0,.65,2.44Z"/><path class="cls-3" d="M334.17,169.7c-3,0-5.46,1.74-5.46,3.88a2.84,2.84,0,0,0,.2,1l-107,61.77a1.74,1.74,0,0,0,1.74,3l108-62.36a7.27,7.27,0,0,0,2.49.43c3,0,5.46-1.74,5.46-3.88a2.84,2.84,0,0,0-.2-1l12.86-7.43a1.74,1.74,0,0,0-1.74-3l-13.89,8A7.27,7.27,0,0,0,334.17,169.7Z"/><path class="cls-3" d="M47.37,264.88a10.19,10.19,0,0,0,4-.79l43.9,25.21c.06,1.44,1.71,2.6,3.75,2.6a5.26,5.26,0,0,0,.68,0l46.7,26.82a2.58,2.58,0,0,0-.11.74c0,2,2.24,3.55,5,3.55s5-1.59,5-3.55a2.6,2.6,0,0,0-.18-.93l19.65-11.88a1.31,1.31,0,1,0-1.35-2.24l-20.16,12.19a6.42,6.42,0,0,0-3-.69,6.34,6.34,0,0,0-3.16.8l-45.74-26.26a2.05,2.05,0,0,0,.39-1.16c0-1.48-1.69-2.68-3.77-2.68a4.77,4.77,0,0,0-2.3.57L53.78,262.47a4.48,4.48,0,0,0,1.35-3.11,4.41,4.41,0,0,0-1.2-2.93l88.92-51.34,59.9,35a1.31,1.31,0,0,0,1.32-2.26l-60.56-35.43a1.31,1.31,0,0,0-1.31,0l-90.59,52.3a10.11,10.11,0,0,0-4.25-.9c-4.29,0-7.76,2.47-7.76,5.52S43.08,264.88,47.37,264.88Z"/></g><polyline class="cls-4" points="175.29 283.2 149.89 298.56 38.06 234.34 141.05 174.88 205.43 212.55"/><polyline class="cls-5" points="164.55 279.23 149.53 287.37 57.39 233.88 140.94 185.64 197.47 218.52"/><ellipse class="cls-6" cx="94.91" cy="212.3" rx="4" ry="2.84"/><path class="cls-7" d="M95.42,211.14a2.62,2.62,0,0,1,1.35.36,2.19,2.19,0,0,0-2-1c-1.16,0-2.1.67-2.1,1.49a1.36,1.36,0,0,0,.74,1.13,1.11,1.11,0,0,1-.14-.53C93.32,211.81,94.26,211.14,95.42,211.14Z"/><path class="cls-8" d="M96.91,212a1.11,1.11,0,0,0-.14-.53,2.62,2.62,0,0,0-1.35-.36c-1.16,0-2.1.67-2.1,1.49a1.11,1.11,0,0,0,.14.53,2.62,2.62,0,0,0,1.35.36C96,213.52,96.91,212.85,96.91,212Z"/><path class="cls-9" d="M96.91,212a1.11,1.11,0,0,0-.14-.53,2.62,2.62,0,0,0-1.35-.36c-1.16,0-2.1.67-2.1,1.49a1.11,1.11,0,0,0,.14.53,2.62,2.62,0,0,0,1.35.36C96,213.52,96.91,212.85,96.91,212Z"/><ellipse class="cls-10" cx="122.2" cy="185.74" rx="4" ry="2.84"/><path class="cls-11" d="M122.71,184.58a2.62,2.62,0,0,1,1.35.36,2.19,2.19,0,0,0-2-1c-1.16,0-2.1.67-2.1,1.49a1.36,1.36,0,0,0,.74,1.13,1.11,1.11,0,0,1-.14-.53C120.61,185.25,121.55,184.58,122.71,184.58Z"/><path class="cls-12" d="M124.21,185.47a1.11,1.11,0,0,0-.14-.53,2.62,2.62,0,0,0-1.35-.36c-1.16,0-2.1.67-2.1,1.49a1.11,1.11,0,0,0,.14.53,2.62,2.62,0,0,0,1.35.36C123.27,187,124.21,186.29,124.21,185.47Z"/><path class="cls-13" d="M124.21,185.47a1.11,1.11,0,0,0-.14-.53,2.62,2.62,0,0,0-1.35-.36c-1.16,0-2.1.67-2.1,1.49a1.11,1.11,0,0,0,.14.53,2.62,2.62,0,0,0,1.35.36C123.27,187,124.21,186.29,124.21,185.47Z"/><polyline class="cls-14" points="371.41 138.1 242.25 212.3 333.8 266.73 178.67 357.33 93.96 308.98 1.85 362.16"/><line class="cls-15" x1="362.76" y1="132.41" x2="226.02" y2="211.35"/><polyline class="cls-16" points="270.35 78.85 344.42 121.61 215.15 196.25"/><polyline class="cls-17" points="260.86 84.33 325.9 121.61 210.97 187.97"/><ellipse class="cls-18" cx="177.77" cy="356.81" rx="9.64" ry="6.85"/><path class="cls-19" d="M179,354a6.31,6.31,0,0,1,3.26.87,5.28,5.28,0,0,0-4.71-2.31c-2.79,0-5,1.61-5,3.59a3.28,3.28,0,0,0,1.79,2.72,2.68,2.68,0,0,1-.34-1.27C173.94,355.63,176.2,354,179,354Z"/><path class="cls-20" d="M182.59,356.17a2.68,2.68,0,0,0-.34-1.27A6.31,6.31,0,0,0,179,354c-2.79,0-5,1.61-5,3.59a2.68,2.68,0,0,0,.34,1.27,6.31,6.31,0,0,0,3.26.87C180.33,359.75,182.59,358.15,182.59,356.17Z"/><path class="cls-21" d="M182.59,356.17a2.68,2.68,0,0,0-.34-1.27A6.31,6.31,0,0,0,179,354c-2.79,0-5,1.61-5,3.59a2.68,2.68,0,0,0,.34,1.27,6.31,6.31,0,0,0,3.26.87C180.33,359.75,182.59,358.15,182.59,356.17Z"/><ellipse class="cls-22" cx="214.8" cy="335.43" rx="5.8" ry="4.12"/><path class="cls-23" d="M215.54,333.75a3.8,3.8,0,0,1,2,.52,3.18,3.18,0,0,0-2.83-1.39c-1.68,0-3,1-3,2.16a2,2,0,0,0,1.07,1.63,1.61,1.61,0,0,1-.21-.77C212.5,334.72,213.86,333.75,215.54,333.75Z"/><path class="cls-24" d="M217.71,335a1.61,1.61,0,0,0-.21-.77,3.8,3.8,0,0,0-2-.52c-1.68,0-3,1-3,2.16a1.61,1.61,0,0,0,.21.77,3.8,3.8,0,0,0,2,.52C216.35,337.2,217.71,336.23,217.71,335Z"/><path class="cls-25" d="M217.71,335a1.61,1.61,0,0,0-.21-.77,3.8,3.8,0,0,0-2-.52c-1.68,0-3,1-3,2.16a1.61,1.61,0,0,0,.21.77,3.8,3.8,0,0,0,2,.52C216.35,337.2,217.71,336.23,217.71,335Z"/><ellipse class="cls-26" cx="261.09" cy="308.7" rx="5.8" ry="4.12"/><path class="cls-27" d="M261.83,307a3.8,3.8,0,0,1,2,.52,3.18,3.18,0,0,0-2.83-1.39c-1.68,0-3,1-3,2.16a2,2,0,0,0,1.07,1.63,1.61,1.61,0,0,1-.21-.77C258.79,308,260.15,307,261.83,307Z"/><path class="cls-28" d="M264,308.32a1.61,1.61,0,0,0-.21-.77,3.8,3.8,0,0,0-2-.52c-1.68,0-3,1-3,2.16a1.61,1.61,0,0,0,.21.77,3.8,3.8,0,0,0,2,.52C262.64,310.47,264,309.51,264,308.32Z"/><path class="cls-29" d="M264,308.32a1.61,1.61,0,0,0-.21-.77,3.8,3.8,0,0,0-2-.52c-1.68,0-3,1-3,2.16a1.61,1.61,0,0,0,.21.77,3.8,3.8,0,0,0,2,.52C262.64,310.47,264,309.51,264,308.32Z"/><ellipse class="cls-30" cx="298.13" cy="287.32" rx="5.8" ry="4.12"/><path class="cls-31" d="M298.86,285.64a3.8,3.8,0,0,1,2,.52,3.18,3.18,0,0,0-2.83-1.39c-1.68,0-3,1-3,2.16a2,2,0,0,0,1.07,1.63,1.61,1.61,0,0,1-.21-.77C295.83,286.61,297.19,285.64,298.86,285.64Z"/><path class="cls-32" d="M301,286.93a1.61,1.61,0,0,0-.21-.77,3.8,3.8,0,0,0-2-.52c-1.68,0-3,1-3,2.16a1.61,1.61,0,0,0,.21.77,3.8,3.8,0,0,0,2,.52C299.67,289.09,301,288.13,301,286.93Z"/><path class="cls-33" d="M301,286.93a1.61,1.61,0,0,0-.21-.77,3.8,3.8,0,0,0-2-.52c-1.68,0-3,1-3,2.16a1.61,1.61,0,0,0,.21.77,3.8,3.8,0,0,0,2,.52C299.67,289.09,301,288.13,301,286.93Z"/><path class="cls-34" d="M233.14,260l-82-45.19c-.54-.28-.87-.55-1.54-.17l-54.37,29.1c-.45.26-.66,2.6.14,3.08l81.19,47.38a1.56,1.56,0,0,0,1.53.18l54.33-31.18C233.51,262.67,233.83,260.41,233.14,260Z"/><path class="cls-35" d="M233,260.51l-82.22-47.57c-.52-.33-.92-.48-.92-1.25l.07-61.52c0-.51.11-1.39.93-.93l82.22,47a1.56,1.56,0,0,1,.92,1.23L234,259.57C234,260.08,233.72,260.92,233,260.51Z"/><path class="cls-36" d="M232.82,259.78l-81.65-47.12c-.54-.28-.87-.55-1.54-.17L95.77,243.4c-.45.26-1.16.79-.37,1.27L176.59,292a1.56,1.56,0,0,0,1.53.18L232.46,261C232.9,260.79,233.52,260.16,232.82,259.78Z"/><path class="cls-37" d="M157.33,262.6l-13.9-8c-.09,0-.15-.09-.26,0l-6.6,3.89c-.08,0-.2.13-.06.22l13.88,8a.26.26,0,0,0,.26,0l6.62-3.89C157.35,262.77,157.45,262.66,157.33,262.6Z"/><path class="cls-38" d="M231.56,258,152.3,212.11c-.49-.31-.88-.46-.87-1.18l.06-57.35c0-.48.11-1.32.88-.88L231.63,198a1.48,1.48,0,0,1,.87,1.17l-.06,57.86C232.44,257.56,232.21,258.35,231.56,258Z"/><polygon class="cls-39" points="126.54 230.13 126.08 230.93 132.79 234.8 133.7 234.26 126.54 230.13"/><path class="cls-40" d="M200.06,256.29l4,2.28.92-.54-4-2.28,2.75-1.6-.93-.53-2.75,1.6-6-3.43,2.75-1.6-.93-.53-2.75,1.6-6-3.47,2.75-1.6-.93-.53-2.75,1.6-6-3.47,2.76-1.6-.93-.53-2.76,1.6-6-3.45,2.76-1.61-.93-.53-2.76,1.61-6-3.44,2.77-1.61-.93-.53-2.77,1.61-6-3.45,2.77-1.61-.93-.53-2.77,1.61-6-3.45,2.78-1.61-.93-.53-2.78,1.61-3.12-1.8-.92.54,3.11,1.79-4.05,2.36-3.08-1.77-.92.54,3.07,1.77-4.05,2.36-3-1.75-.92.54,3,1.75L136.71,236l-3-1.73-.92.54,3,1.73-4.05,2.36-3-1.71-.92.54,3,1.7-4.05,2.36.92.53,4.05-2.36,6,3.45-4.06,2.36.92.53,4.06-2.36,6,3.45-4.07,2.37.92.53,4.07-2.37,19.83,11.43-4.11,2.37.93.54,4.11-2.37,6,3.47-4.11,2.39.92.53,4.11-2.39,6,3.43-4.11,2.39v0l.91.52,4.12-2.39,4.08,2.35.92-.54-4.07-2.35,4.05-2.36,4,2.33.92-.54-4-2.33,4.05-2.36,4,2.32.92-.54-4-2.31,4.05-2.36,4,2.3.92-.54-4-2.3Zm-13.83-8,6,3.47-4.05,2.36-6-3.47Zm-16.9.71-6-3.45,4.05-2.36,6,3.45Zm5-1.82,6,3.47L176.27,253l-6-3.47ZM162.41,245l-6-3.44,4.05-2.36,6,3.44Zm-6.89-4-6-3.45,4.05-2.36,6,3.45Zm-.92.54L150.54,244l-6-3.45,4.05-2.36Zm.93.53,6,3.44-4.05,2.36-6-3.44Zm6.89,4,6,3.45-4.05,2.36-6-3.45Zm6.91,4,6,3.47-4.05,2.36-6-3.47Zm6.95,4,6,3.47-4.05,2.36-6-3.47Zm.92-.54,4.05-2.36,6,3.47L183.23,257Zm2.09-9.25,6,3.47-4.05,2.36-6-3.47Zm-6.91-4,6,3.45-4.05,2.36-6-3.45Zm-6.89-4,6,3.44-4.05,2.36-6-3.44Zm-6.92-4,6,3.45-4.05,2.36-6-3.45Zm-6.92-4,6,3.45-4.05,2.36-6-3.45Zm-5,2.89,6,3.45-4.05,2.36-6-3.45Zm-5,2.89,6,3.45L143.62,240l-6-3.45Zm-3,8.7-6-3.45,4.05-2.36,6,3.45Zm6.92,4-6-3.45,4.05-2.36,6,3.45Zm.93.53,4.05-2.36,6,3.44-4.05,2.36Zm6.89,4,4.05-2.36,6,3.45-4.05,2.36Zm12.93,7.46-6-3.47,4.05-2.36,6,3.47Zm7,4-6-3.47L171.3,257l6,3.47Zm6.88,4-6-3.43,4.05-2.36,6,3.43Zm5-2.89-6-3.43,4.05-2.36,6,3.43Zm5-2.89-6-3.43,4.05-2.36,6,3.43Zm5-2.89-6-3.43,4.05-2.36,6,3.43Z"/><ellipse class="cls-37" cx="191.96" cy="174.19" rx="0.27" ry="0.39"/><polygon class="cls-37" points="145.57 247.93 141.49 250.29 161.28 261.73 165.4 259.36 145.57 247.93"/><polygon class="cls-37" points="138.65 243.94 134.59 246.3 140.57 249.76 144.64 247.4 138.65 243.94"/><polygon class="cls-37" points="166.32 259.89 162.21 262.26 168.24 265.75 172.35 263.37 166.32 259.89"/><polygon class="cls-37" points="131.73 239.95 127.67 242.31 133.66 245.77 137.72 243.41 131.73 239.95"/><polygon class="cls-37" points="135.78 236.53 132.79 234.8 128.76 237.17 131.73 238.88 135.78 236.53"/><polygon class="cls-37" points="179.23 267.33 173.27 263.9 169.17 266.29 175.13 269.73 175.12 269.72 179.23 267.33"/><path class="cls-37" d="M127.85,237.71l-3.16,1.87c-.3.17-.79.54-.25.86l2.32,1.34,4.05-2.36Z"/><polygon class="cls-37" points="163.34 245.58 169.33 249.03 173.38 246.67 167.39 243.22 163.34 245.58"/><polygon class="cls-37" points="188.2 254.15 192.26 251.79 186.23 248.32 182.18 250.67 188.2 254.15"/><path class="cls-37" d="M176,270.26l3.47,2a1.05,1.05,0,0,0,1,.12l3.69-2.17-4.08-2.35Z"/><polygon class="cls-37" points="180.33 250.68 174.31 247.21 170.25 249.56 176.27 253.03 180.33 250.68"/><polygon class="cls-37" points="186.05 264.43 190.09 266.76 194.12 264.39 190.11 262.08 186.05 264.43"/><polygon class="cls-37" points="156.44 241.6 162.41 245.04 166.47 242.69 160.5 239.25 156.44 241.6"/><polygon class="cls-37" points="181.08 267.33 185.15 269.67 189.18 267.3 185.13 264.97 181.08 267.33"/><polygon class="cls-37" points="186.23 247.25 188.98 245.65 182.97 242.17 180.21 243.78 186.23 247.25"/><polygon class="cls-37" points="172.37 239.26 175.13 237.65 169.17 234.21 166.4 235.82 172.37 239.26"/><polygon class="cls-37" points="179.28 243.24 182.04 241.64 176.06 238.19 173.29 239.79 179.28 243.24"/><polygon class="cls-37" points="140.76 233.63 137.72 231.88 133.7 234.26 136.71 235.99 140.76 233.63"/><polygon class="cls-37" points="200.06 255.22 202.81 253.62 196.86 250.19 194.11 251.79 200.06 255.22"/><path class="cls-37" d="M204.94,258l1.87-1.1c.3-.17.72-.6.25-.86l-3.32-1.92-2.75,1.6Z"/><polygon class="cls-37" points="193.18 251.25 195.93 249.66 189.91 246.18 187.16 247.78 193.18 251.25"/><polygon class="cls-37" points="150.72 227.85 147.6 226.05 143.58 228.43 146.66 230.2 150.72 227.85"/><polygon class="cls-37" points="145.74 230.74 142.66 228.97 138.64 231.34 141.68 233.1 145.74 230.74"/><polygon class="cls-37" points="165.47 235.28 168.24 233.68 162.25 230.22 159.48 231.83 165.47 235.28"/><polygon class="cls-37" points="158.56 231.3 161.33 229.69 155.34 226.23 152.56 227.84 158.56 231.3"/><path class="cls-37" d="M154.41,225.7l-2.51-1.45c-.36-.19-.59-.37-1-.11l-2.34,1.38,3.12,1.8Z"/><polygon class="cls-37" points="191.03 261.54 195.04 263.85 199.07 261.48 195.09 259.18 191.03 261.54"/><polygon class="cls-37" points="164.35 252.99 160.3 255.35 166.32 258.82 170.37 256.46 164.35 252.99"/><polygon class="cls-37" points="157.44 249.01 153.38 251.37 159.37 254.82 163.43 252.46 157.44 249.01"/><polygon class="cls-37" points="143.63 241.05 139.57 243.4 145.56 246.86 149.62 244.5 143.63 241.05"/><polygon class="cls-37" points="150.54 245.03 146.49 247.39 152.46 250.83 156.51 248.47 150.54 245.03"/><polygon class="cls-37" points="149.53 237.62 155.52 241.07 159.57 238.71 153.58 235.26 149.53 237.62"/><polygon class="cls-37" points="147.68 237.62 141.69 234.17 137.63 236.52 143.62 239.98 147.68 237.62"/><polygon class="cls-37" points="152.66 234.73 146.66 231.27 142.61 233.63 148.6 237.08 152.66 234.73"/><polygon class="cls-37" points="184.15 257.57 190.11 261.01 194.16 258.65 188.21 255.22 184.15 257.57"/><polygon class="cls-37" points="193.18 252.32 189.13 254.68 195.08 258.11 199.14 255.76 193.18 252.32"/><polygon class="cls-37" points="200.06 256.29 196.01 258.65 199.99 260.94 204.02 258.57 200.06 256.29"/><polygon class="cls-37" points="179.18 260.47 185.13 263.9 189.18 261.54 183.23 258.11 179.18 260.47"/><polygon class="cls-37" points="171.3 257 167.24 259.35 173.27 262.83 177.32 260.47 171.3 257"/><polygon class="cls-37" points="174.2 263.36 180.15 266.79 184.2 264.44 178.25 261 174.2 263.36"/><polygon class="cls-37" points="136.71 237.06 132.65 239.42 138.65 242.87 142.7 240.51 136.71 237.06"/><polygon class="cls-37" points="182.3 257.58 176.28 254.1 172.22 256.46 178.25 259.93 182.3 257.58"/><polygon class="cls-37" points="168.41 249.57 162.42 246.12 158.36 248.47 164.35 251.92 168.41 249.57"/><polygon class="cls-37" points="175.35 253.57 169.33 250.1 165.28 252.46 171.3 255.93 175.35 253.57"/><polygon class="cls-37" points="144.55 240.51 150.54 243.96 154.6 241.61 148.6 238.15 144.55 240.51"/><polygon class="cls-37" points="161.49 245.58 155.52 242.14 151.47 244.5 157.44 247.94 161.49 245.58"/><polygon class="cls-37" points="174.31 246.14 178.36 243.78 172.37 240.33 168.32 242.69 174.31 246.14"/><polygon class="cls-37" points="160.5 238.18 164.55 235.82 158.56 232.37 154.5 234.72 160.5 238.18"/><polygon class="cls-37" points="167.39 242.15 171.44 239.79 165.48 236.35 161.42 238.71 167.39 242.15"/><polygon class="cls-37" points="157.63 231.83 151.64 228.38 147.59 230.74 153.58 234.19 157.63 231.83"/><polygon class="cls-37" points="187.28 254.68 181.25 251.21 177.2 253.57 183.23 257.04 187.28 254.68"/><polygon class="cls-37" points="181.25 250.14 185.31 247.78 179.29 244.31 175.23 246.67 181.25 250.14"/><ellipse class="cls-41" cx="131.47" cy="330.09" rx="5.8" ry="4.12"/><path class="cls-42" d="M132.21,328.41a3.8,3.8,0,0,1,2,.52,3.18,3.18,0,0,0-2.83-1.39c-1.68,0-3,1-3,2.16a2,2,0,0,0,1.07,1.63,1.61,1.61,0,0,1-.21-.77C129.17,329.37,130.53,328.41,132.21,328.41Z"/><path class="cls-43" d="M134.38,329.7a1.61,1.61,0,0,0-.21-.77,3.8,3.8,0,0,0-2-.52c-1.68,0-3,1-3,2.16a1.61,1.61,0,0,0,.21.77,3.8,3.8,0,0,0,2,.52C133,331.86,134.38,330.89,134.38,329.7Z"/><path class="cls-44" d="M134.38,329.7a1.61,1.61,0,0,0-.21-.77,3.8,3.8,0,0,0-2-.52c-1.68,0-3,1-3,2.16a1.61,1.61,0,0,0,.21.77,3.8,3.8,0,0,0,2,.52C133,331.86,134.38,330.89,134.38,329.7Z"/><ellipse class="cls-45" cx="316.64" cy="169.72" rx="5.8" ry="4.12"/><path class="cls-46" d="M317.38,168a3.8,3.8,0,0,1,2,.52,3.18,3.18,0,0,0-2.83-1.39c-1.68,0-3,1-3,2.16a2,2,0,0,0,1.07,1.63,1.61,1.61,0,0,1-.21-.77C314.34,169,315.7,168,317.38,168Z"/><path class="cls-47" d="M319.55,169.33a1.61,1.61,0,0,0-.21-.77,3.8,3.8,0,0,0-2-.52c-1.68,0-3,1-3,2.16a1.61,1.61,0,0,0,.21.77,3.8,3.8,0,0,0,2,.52C318.19,171.49,319.55,170.53,319.55,169.33Z"/><path class="cls-48" d="M319.55,169.33a1.61,1.61,0,0,0-.21-.77,3.8,3.8,0,0,0-2-.52c-1.68,0-3,1-3,2.16a1.61,1.61,0,0,0,.21.77,3.8,3.8,0,0,0,2,.52C318.19,171.49,319.55,170.53,319.55,169.33Z"/><ellipse class="cls-49" cx="344.42" cy="142.99" rx="5.8" ry="4.12"/><path class="cls-50" d="M345.16,141.32a3.8,3.8,0,0,1,2,.52,3.18,3.18,0,0,0-2.83-1.39c-1.68,0-3,1-3,2.16a2,2,0,0,0,1.07,1.63,1.61,1.61,0,0,1-.21-.77C342.12,142.28,343.48,141.32,345.16,141.32Z"/><path class="cls-51" d="M347.33,142.61a1.61,1.61,0,0,0-.21-.77,3.8,3.8,0,0,0-2-.52c-1.68,0-3,1-3,2.16a1.61,1.61,0,0,0,.21.77,3.8,3.8,0,0,0,2,.52C346,144.76,347.33,143.8,347.33,142.61Z"/><path class="cls-52" d="M347.33,142.61a1.61,1.61,0,0,0-.21-.77,3.8,3.8,0,0,0-2-.52c-1.68,0-3,1-3,2.16a1.61,1.61,0,0,0,.21.77,3.8,3.8,0,0,0,2,.52C346,144.76,347.33,143.8,347.33,142.61Z"/><ellipse class="cls-53" cx="39.53" cy="234.19" rx="8.25" ry="5.86"/><path class="cls-54" d="M40.57,231.8a5.4,5.4,0,0,1,2.79.75,4.52,4.52,0,0,0-4-2c-2.39,0-4.32,1.37-4.32,3.07A2.81,2.81,0,0,0,36.55,236a2.29,2.29,0,0,1-.29-1.09C36.25,233.17,38.19,231.8,40.57,231.8Z"/><path class="cls-55" d="M43.66,233.63a2.3,2.3,0,0,0-.29-1.09,5.4,5.4,0,0,0-2.79-.75c-2.39,0-4.32,1.37-4.32,3.07a2.29,2.29,0,0,0,.29,1.09,5.4,5.4,0,0,0,2.79.75C41.73,236.7,43.66,235.33,43.66,233.63Z"/><path class="cls-56" d="M43.66,233.63a2.3,2.3,0,0,0-.29-1.09,5.4,5.4,0,0,0-2.79-.75c-2.39,0-4.32,1.37-4.32,3.07a2.29,2.29,0,0,0,.29,1.09,5.4,5.4,0,0,0,2.79.75C41.73,236.7,43.66,235.33,43.66,233.63Z"/><ellipse class="cls-57" cx="149.99" cy="298.01" rx="5.32" ry="3.78"/><path class="cls-58" d="M150.66,296.47a3.48,3.48,0,0,1,1.8.48,2.91,2.91,0,0,0-2.59-1.28c-1.54,0-2.78.89-2.78,2a1.81,1.81,0,0,0,1,1.5,1.48,1.48,0,0,1-.19-.7C147.88,297.36,149.13,296.47,150.66,296.47Z"/><path class="cls-59" d="M152.65,297.66a1.48,1.48,0,0,0-.19-.7,3.48,3.48,0,0,0-1.8-.48c-1.54,0-2.78.89-2.78,2a1.48,1.48,0,0,0,.19.7,3.48,3.48,0,0,0,1.8.48C151.41,299.63,152.65,298.75,152.65,297.66Z"/><path class="cls-60" d="M152.65,297.66a1.48,1.48,0,0,0-.19-.7,3.48,3.48,0,0,0-1.8-.48c-1.54,0-2.78.89-2.78,2a1.48,1.48,0,0,0,.19.7,3.48,3.48,0,0,0,1.8.48C151.41,299.63,152.65,298.75,152.65,297.66Z"/><ellipse class="cls-61" cx="149.73" cy="286.47" rx="4" ry="2.84"/><path class="cls-62" d="M150.24,285.31a2.62,2.62,0,0,1,1.35.36,2.19,2.19,0,0,0-2-1c-1.16,0-2.1.67-2.1,1.49a1.36,1.36,0,0,0,.74,1.13,1.11,1.11,0,0,1-.14-.53C148.14,286,149.08,285.31,150.24,285.31Z"/><path class="cls-63" d="M151.73,286.2a1.11,1.11,0,0,0-.14-.53,2.62,2.62,0,0,0-1.35-.36c-1.16,0-2.1.67-2.1,1.49a1.11,1.11,0,0,0,.14.53,2.62,2.62,0,0,0,1.35.36C150.8,287.69,151.73,287,151.73,286.2Z"/><path class="cls-64" d="M151.73,286.2a1.11,1.11,0,0,0-.14-.53,2.62,2.62,0,0,0-1.35-.36c-1.16,0-2.1.67-2.1,1.49a1.11,1.11,0,0,0,.14.53,2.62,2.62,0,0,0,1.35.36C150.8,287.69,151.73,287,151.73,286.2Z"/><ellipse class="cls-65" cx="113.03" cy="265.81" rx="4" ry="2.84"/><path class="cls-66" d="M113.54,264.65a2.62,2.62,0,0,1,1.35.36,2.19,2.19,0,0,0-2-1c-1.16,0-2.1.67-2.1,1.49a1.36,1.36,0,0,0,.74,1.13,1.11,1.11,0,0,1-.14-.53C111.44,265.32,112.38,264.65,113.54,264.65Z"/><path class="cls-67" d="M115,265.54a1.11,1.11,0,0,0-.14-.53,2.62,2.62,0,0,0-1.35-.36c-1.16,0-2.1.67-2.1,1.49a1.11,1.11,0,0,0,.14.53,2.62,2.62,0,0,0,1.35.36C114.1,267,115,266.36,115,265.54Z"/><path class="cls-68" d="M115,265.54a1.11,1.11,0,0,0-.14-.53,2.62,2.62,0,0,0-1.35-.36c-1.16,0-2.1.67-2.1,1.49a1.11,1.11,0,0,0,.14.53,2.62,2.62,0,0,0,1.35.36C114.1,267,115,266.36,115,265.54Z"/><ellipse class="cls-69" cx="94.42" cy="265.93" rx="4" ry="2.84"/><path class="cls-70" d="M94.93,264.77a2.62,2.62,0,0,1,1.35.36,2.19,2.19,0,0,0-2-1c-1.16,0-2.1.67-2.1,1.49a1.36,1.36,0,0,0,.74,1.13,1.11,1.11,0,0,1-.14-.53C92.83,265.44,93.77,264.77,94.93,264.77Z"/><path class="cls-71" d="M96.42,265.66a1.11,1.11,0,0,0-.14-.53,2.62,2.62,0,0,0-1.35-.36c-1.16,0-2.1.67-2.1,1.49a1.11,1.11,0,0,0,.14.53,2.62,2.62,0,0,0,1.35.36C95.48,267.15,96.42,266.48,96.42,265.66Z"/><path class="cls-72" d="M96.42,265.66a1.11,1.11,0,0,0-.14-.53,2.62,2.62,0,0,0-1.35-.36c-1.16,0-2.1.67-2.1,1.49a1.11,1.11,0,0,0,.14.53,2.62,2.62,0,0,0,1.35.36C95.48,267.15,96.42,266.48,96.42,265.66Z"/><ellipse class="cls-73" cx="332.02" cy="266.01" rx="8.46" ry="6.01"/><path class="cls-74" d="M333.09,263.56a5.54,5.54,0,0,1,2.86.76,4.63,4.63,0,0,0-4.13-2c-2.45,0-4.43,1.41-4.43,3.15a2.88,2.88,0,0,0,1.57,2.38,2.35,2.35,0,0,1-.3-1.12C328.66,265,330.64,263.56,333.09,263.56Z"/><path class="cls-75" d="M336.25,265.45a2.35,2.35,0,0,0-.3-1.12,5.54,5.54,0,0,0-2.86-.76c-2.45,0-4.43,1.41-4.43,3.15a2.35,2.35,0,0,0,.3,1.12,5.54,5.54,0,0,0,2.86.76C334.27,268.59,336.25,267.18,336.25,265.45Z"/><path class="cls-76" d="M336.25,265.45a2.35,2.35,0,0,0-.3-1.12,5.54,5.54,0,0,0-2.86-.76c-2.45,0-4.43,1.41-4.43,3.15a2.35,2.35,0,0,0,.3,1.12,5.54,5.54,0,0,0,2.86.76C334.27,268.59,336.25,267.18,336.25,265.45Z"/><polygon class="cls-77" points="208.67 130.1 208.67 177.61 348.57 258.38 348.57 210.87 208.67 130.1"/><g class="cls-78"><text class="cls-79" transform="matrix(0.71, 0.4, 0.03, 1, 212.06, 141.55)">Ne<tspan class="cls-80" x="3.35" y="0">t</tspan><tspan class="cls-81" x="4.33" y="0">w</tspan><tspan x="6.43" y="0">o</tspan><tspan class="cls-82" x="8.01" y="0">r</tspan><tspan x="8.97" y="0">k </tspan><tspan class="cls-83" x="10.94" y="0">A</tspan><tspan class="cls-84" x="12.67" y="0">c</tspan><tspan x="14" y="0">tivities</tspan></text><path class="cls-85" d="M339.59,230.53c-7,1.3-16.22-2-24.77-8.93-4.29-3.46-8.34-7.72-12.51-11.59s-8.64-7.47-12.92-9c-5.32-2-9.68-.57-14.87-2-5.8-1.57-11.08-6.33-16.47-11.54a23.35,23.35,0,0,0-10.39-5.79c-3.36-.89-6.53-1.1-9.89-2a43.13,43.13,0,0,1-13.53-6.54A34,34,0,0,1,214,162.51"/><path class="cls-86" d="M339.7,235c-6.67-6.21-12.77-13.86-19.74-19.25a33.48,33.48,0,0,0-20.52-7.23c-2.47,0-4.95.22-7.77-1-4.17-1.74-8.29-6.11-12.15-10.18-5.48-5.77-10.2-9.68-15.71-10.09-4.59-.34-8.7.58-13.59-.53-6.08-1.38-12.87-5.87-19-11.49a164.54,164.54,0,0,1-17.27-19.2"/><path class="cls-87" d="M339.79,238.23a32.82,32.82,0,0,1-10.49-8.61c-3.16-3.83-5.61-8.24-8.38-12.4s-6.16-8.36-9.84-10.42a9.39,9.39,0,0,0-10.29.34c-2.65,1.7-4.88,4.13-8.19,4.71a9.5,9.5,0,0,1-8.05-2.85c-3.13-3-4.82-7.36-6.52-11.31a46.07,46.07,0,0,0-5.26-9.55c-2.22-3-5.12-5.55-7.75-6.34-4-1.19-6.12,1.76-8.19,4.21s-5.23,4.47-9.33,1.7a21.89,21.89,0,0,1-5.09-5.48c-4.25-6-6.75-14.49-13-18.34a8.25,8.25,0,0,0-6.06-1.27c-4.08.85-7.14,4.8-9.21,8.39"/><polyline class="cls-88" points="213.52 144.97 214.24 172.05 342.63 244.76"/><text class="cls-89" transform="matrix(0.71, 0.4, 0.03, 1, 211.41, 145.54)">100<tspan x="0.63" y="2.48">90</tspan><tspan x="0.63" y="4.95">80</tspan><tspan x="0.63" y="7.43">70</tspan><tspan x="0.63" y="9.9">60</tspan><tspan x="0.63" y="12.38">50</tspan><tspan x="0.63" y="14.85">40</tspan><tspan x="0.63" y="17.33">30</tspan><tspan x="0.63" y="19.81">20</tspan><tspan x="0.63" y="22.28">10</tspan><tspan x="1.27" y="24.76">0</tspan></text><line class="cls-90" x1="222.22" y1="175.76" x2="222.26" y2="177.34"/><line class="cls-90" x1="232.93" y1="181.82" x2="232.97" y2="183.41"/><line class="cls-90" x1="243.63" y1="187.88" x2="243.67" y2="189.47"/><line class="cls-90" x1="254.33" y1="193.94" x2="254.37" y2="195.53"/><line class="cls-90" x1="265.03" y1="200" x2="265.08" y2="201.59"/><line class="cls-90" x1="275.74" y1="206.06" x2="275.78" y2="207.65"/><line class="cls-90" x1="286.44" y1="212.12" x2="286.48" y2="213.71"/><line class="cls-90" x1="297.14" y1="218.18" x2="297.19" y2="219.77"/><line class="cls-90" x1="307.85" y1="224.24" x2="307.89" y2="225.83"/><line class="cls-90" x1="318.55" y1="230.3" x2="318.59" y2="231.89"/><text class="cls-91" transform="matrix(0.71, 0.4, 0.03, 1, 221.59, 178.91)">Jan</text><text class="cls-91" transform="matrix(0.71, 0.4, 0.03, 1, 232.08, 184.85)"><tspan class="cls-92">F</tspan><tspan x="0.75" y="0">eb</tspan></text><text class="cls-91" transform="matrix(0.71, 0.4, 0.03, 1, 242.81, 190.92)"><tspan class="cls-93">M</tspan><tspan x="1.34" y="0">ar</tspan></text><text class="cls-94" transform="matrix(0.71, 0.4, 0.03, 1, 253.58, 197.02)">Apr</text><text class="cls-91" transform="matrix(0.71, 0.4, 0.03, 1, 263.92, 202.88)"><tspan class="cls-93">M</tspan><tspan class="cls-95" x="1.34" y="0">a</tspan><tspan x="2.12" y="0">y</tspan></text><text class="cls-91" transform="matrix(0.71, 0.4, 0.03, 1, 275.09, 209.2)">Jun</text><text class="cls-91" transform="matrix(0.71, 0.4, 0.03, 1, 286.1, 215.44)">Jul</text><text class="cls-91" transform="matrix(0.71, 0.4, 0.03, 1, 296.15, 221.13)"><tspan class="cls-96">A</tspan><tspan x="0.99" y="0">ug</tspan></text><text class="cls-97" transform="matrix(0.71, 0.4, 0.03, 1, 307.02, 227.28)">S<tspan class="cls-98" x="0.82" y="0">ep</tspan></text><text class="cls-91" transform="matrix(0.71, 0.4, 0.03, 1, 317.82, 233.4)"><tspan class="cls-99">O</tspan><tspan class="cls-100" x="1.14" y="0">c</tspan><tspan x="1.9" y="0">t</tspan></text><line class="cls-90" x1="329.21" y1="236.33" x2="329.25" y2="237.92"/><line class="cls-90" x1="339.91" y1="242.39" x2="339.95" y2="243.98"/><text class="cls-91" transform="matrix(0.71, 0.4, 0.03, 1, 328.25, 239.3)">N<tspan class="cls-101" x="1.09" y="0">o</tspan><tspan class="cls-98" x="1.98" y="0">v</tspan></text><text class="cls-102" transform="matrix(0.71, 0.4, 0.03, 1, 339.09, 245.44)">D<tspan class="cls-98" x="1.11" y="0">es</tspan></text></g><polygon class="cls-103" points="348.56 210.87 388.19 189.04 388.19 235.58 348.56 258.49 348.56 210.87"/><polygon class="cls-104" points="348.57 210.87 388.19 189.03 250.12 107.3 208.78 129.91 348.57 210.87"/><polygon class="cls-105" points="59.56 31.53 59.56 124.28 174.3 190.52 174.3 97.78 59.56 31.53"/><g class="cls-78"><path class="cls-106" d="M156.62,151c0-.07,0-.14-.06-.21h0l-.09-.3a5,5,0,0,0-.26-.76,1,1,0,0,1-.11-.77,1.17,1.17,0,0,0,0-.7.83.83,0,0,0-.25-.36l-.16-1-.12-.05v0l-.06.16a2.51,2.51,0,0,0-.11.38l0,.17a1.1,1.1,0,0,1-.31.75l0,0c-.1.07-.16.11-.28-.13a5.73,5.73,0,0,0-.35-.56l-.18-.27a.52.52,0,0,1-.06-.6l.13-.16.07-.08,0,0-.68-.67h0l-.12,0a.36.36,0,0,1-.17,0,.41.41,0,0,0-.51.29c-.05.13-.09.19-.12.19s-.1-.1-.18-.24c-.23-.38-.42-.46-.63-.27l-.32.31-.12.12-.11-.28,0,0-.07.14a.65.65,0,0,1-.15.23.88.88,0,0,1-.49.24,3.28,3.28,0,0,1-1-.13c-.35-.11-.43.23-.49.5v0a2.22,2.22,0,0,0,0,.64c0,.09,0,.19,0,.28-.2.07-.15.41-.11.68v0c.09.6,0,.92-.28,1.06h0v0c.1.31.25.48.46.52h0l.86.19.17.07a.57.57,0,0,0,.25.08,2.74,2.74,0,0,1,1.32.27,1.33,1.33,0,0,1,.84,1.31v.07l.73-.24v0l-.61.6.43-.13h0l-.12.22,0,0a.49.49,0,0,1,.16.21.39.39,0,0,1,0,.26l0,.11v0l0,0c.21.37.46.75.78.65l.22.43h0c.23-.12.44-.22.72.08l0,0,.19-.17.71-.64.07,0c.45,0,.68-.42.87-.85a2,2,0,0,0-.08-1.65A1.93,1.93,0,0,1,156.62,151Z"/><path class="cls-106" d="M119.55,99.21a.18.18,0,0,0-.16.08,1.22,1.22,0,0,0-.09.23l0,.06,0,0,0-.09h0l0-.1h0l-.84-.13v0a.34.34,0,0,0,0,.26.46.46,0,0,0,.22.24l0,0a3.19,3.19,0,0,1,.34.21l.17.11a1.23,1.23,0,0,1,.4.34,3.91,3.91,0,0,1,.45,1.23c0,.14.07.29.11.43l-.36-.27,0,.12.37.45h-.67l.16.21h-.16l.14.18-.22-.05.09.1a.41.41,0,0,1,.1.19.27.27,0,0,1,0,.2.76.76,0,0,0,0,.71,2.05,2.05,0,0,0,.25.42l.1.14a.93.93,0,0,0,.28.3l.07,0c.13,0,.24,0,.35-.17l.07-.09.08-.11a.67.67,0,0,1,.94-.28.81.81,0,0,0,.74,0,.53.53,0,0,1,.53,0,1.69,1.69,0,0,0,.71.3,1.9,1.9,0,0,1,.5.17l0,0v-.2l-.3-.19.13-.13a.75.75,0,0,0,.25.34c.08,0,.15,0,.23-.06l0,0-.46-.68.08,0a1.53,1.53,0,0,0,.27,0,.25.25,0,0,0,.14-.05l.05,0,.09,0,.17-.08h.06a.18.18,0,0,0,.09,0l.16-.13.07-.07,0,0,0,0a.3.3,0,0,1,0-.13s0-.06.09-.07a.24.24,0,0,0,.1-.07h0c.13-.16.13-.16.21-.12l.45.21.18.08h0V103l-.55-.32.08-.14-.32-.13.18,0-.12-.06-.2-.13c-.22-.15-.47-.32-.7-.18l.05-.35h-.38a.26.26,0,0,0,0-.22.43.43,0,0,0-.24-.24.45.45,0,0,0-.27,0h-.08l-.13,0h0v0l.27-.25,0,0c-.22-.27-.41-.41-.55-.42a.24.24,0,0,0-.22.15l-.12-.33,0,0-.07.06a.66.66,0,0,0-.12.12c-.12.17-.29.09-.47,0l-.12-.06h0a.47.47,0,0,0-.11-.22.19.19,0,0,0-.22,0h0c-.1,0-.19-.06-.29-.14l-.13-.11a.74.74,0,0,0-.2-.08l-.06,0,0-.06a.51.51,0,0,0-.15-.19.22.22,0,0,0-.18,0h0a.36.36,0,0,0-.05-.14.41.41,0,0,0-.29-.17,3.67,3.67,0,0,0-.6,0Z"/><path class="cls-106" d="M106.38,110l.08.11c.11.15.23.32.41.32.34,0,.43.1.66.68a1.64,1.64,0,0,0,.91.94,1.46,1.46,0,0,0,.16.54,1.12,1.12,0,0,1,.14.57.47.47,0,0,0,.1.23l.11.15a.92.92,0,0,1,.16.26.46.46,0,0,0,.1.21.12.12,0,0,0,.11,0l.49.71v-.08c0-.14,0-.22.07-.26s.11,0,.2,0a.31.31,0,0,1,.14.13.58.58,0,0,1,0,.29.69.69,0,0,0,0,.18.73.73,0,0,1,0,.13c0,.07,0,.15,0,.23a1.94,1.94,0,0,1,0,.58,1.59,1.59,0,0,1-.24.47l-.12.19-.45.69.22.41-.07.21a.36.36,0,0,0-.18.33,1,1,0,0,0,.15.54,2.75,2.75,0,0,1,.23.55c.06.19.11.39.15.58s.1.41.16.62c.12.39.25.76.39,1.11a5.61,5.61,0,0,0,.39.78c.13.22.28.43.43.63l.07.1.28.37.1.13v0a.25.25,0,0,0,0,.15c0,.12,0,.24.06.35a2.62,2.62,0,0,1,.08.6c0,.11,0,.22,0,.33a7.73,7.73,0,0,0,0,1c0,.23,0,.45,0,.67s0,.4,0,.61,0,.27,0,.41a7.35,7.35,0,0,1,0,1.53,3.18,3.18,0,0,0,.05.87c0,.13,0,.26.05.39a.33.33,0,0,0,.06.14,2.05,2.05,0,0,1,.31,1c0,.08,0,.17,0,.25v.08h0v0h0l0-.07-.06.08v.15l.05,0v0h0a.11.11,0,0,0,0,0l-.07.12v0l.12.28a2.31,2.31,0,0,1,.18.51,4.6,4.6,0,0,0,.59,1.6.84.84,0,0,0,.33.28l0,0h0s.09,0,.12,0l0,0,0,0-.21-.25.24.14V135c-.05-.34-.05-.34.15-.72a.58.58,0,0,0-.08-.63,2.18,2.18,0,0,1-.16-.34l-.06-.15c.35.08.32-.23.29-.5,0-.06,0-.13,0-.19l.47.32-.28-.28a.9.9,0,0,1-.34-.6l.57.33,0-.08c-.11-.33-.14-.5-.11-.57s.13-.06.33,0a.47.47,0,0,0,.44-.05.35.35,0,0,0,.08-.31,1.49,1.49,0,0,0-.27-.72c-.09-.13-.12-.2-.09-.29l.11.11.31.33c.13.14.24.2.33.19s.16-.12.19-.29l.26-.33c.19-.1.25-.34.32-.57a1.48,1.48,0,0,1,.16-.41.35.35,0,0,0,0-.27.71.71,0,0,1-.05-.37c0-.12.13-.17.28-.2h0l.54-.1a.13.13,0,0,1,.09,0,.43.43,0,0,0,.27.18c.1,0,.18-.07.26-.24a4,4,0,0,0,.39-2.07.67.67,0,0,1,.07-.38,3,3,0,0,1,.3-.38l.12-.14h0l0,0,.11-.18a2.44,2.44,0,0,0,.24-.46.89.89,0,0,0-.28-.88,2.62,2.62,0,0,1-.5-.67,1.14,1.14,0,0,0-.44-.58,1.36,1.36,0,0,1-.28-.22c-.16-.15-.32-.31-.46-.22l-.06-.15a3.3,3.3,0,0,0-.19-.43c-.18-.31-.38-.41-.61-.28s-.26,0-.39-.14c.35.24.39.18.49-.24v-.05l0,0-.16-.09c-.2-.12-.42-.25-.5.12l-.18-.07.06,0c.27-.17.52-.33.3-1,0-.11-.06-.21-.09-.32l0-.12h0l0-.11h0c-.17-.48-.32-.67-.52-.68v0a.31.31,0,0,0-.08-.16l-.35-.19-.11-.06-.1-.22-.35-.75a.21.21,0,0,0-.09-.09l0,0-.61-1,.14-.09-.1,0a.71.71,0,0,0-.21,0h-.1a.23.23,0,0,1-.14-.07c-.19-.37-.39-.42-.51-.41l-.58-.87.05.32-.33,0,0,.07a.61.61,0,0,1,.12.32c0,.06-.06.09-.15.1a1.39,1.39,0,0,1,0-.19s0-.1,0-.15a2,2,0,0,0,0-.28l0-.09.3-.3-.17,0-.09,0-.14,0-.07,0s-.06.05-.08,0c-.29-.16-.42,0-.53.23s-.12.16-.18.15-.15-.09-.27-.24-.29-.31-.4-.32a.73.73,0,0,1-.57-.35l-.06-.23a2.17,2.17,0,0,1-.1-.52,1.63,1.63,0,0,1,.08-.46c0-.08,0-.16.06-.25a.75.75,0,0,0,0-.44.52.52,0,0,0-.21-.24l-.42-.23-.18-.1a.29.29,0,0,1-.15-.14.26.26,0,0,1,0-.19c.12-.24.23-.49.35-.73l.14-.31v0l0,0a.73.73,0,0,0-.45-.32c-.12,0-.22.07-.29.24a.39.39,0,0,1-.42.22.77.77,0,0,1-.53-.28,2.6,2.6,0,0,1-.39-1.6c0-.16.1-.31.16-.46l.07-.2v0l-.12-.2h0c.07,0,.14,0,.15-.07,0-.22.15-.31.35-.32l.21,0a1.11,1.11,0,0,1,.23,0,.6.6,0,0,1,.37.08,3,3,0,0,1,.38.36l.16.17,0,0,.06-.1-.1-.24,0,0c.09.05.18.11.24.08s.23,0,.35.19l0,0,.05.07a1.27,1.27,0,0,0,.32.31.58.58,0,0,1,.31.67,1.29,1.29,0,0,0,.07.67,1.06,1.06,0,0,0,.27.45l0,0v-.05c0-.11,0-.21,0-.32a5.15,5.15,0,0,0,0-.73c0-.6,0-.79.36-.88l.55-.13.49-.11c.06,0,.1-.12.11-.2s0-.31,0-.47v-.14l0,0,0,.28.08.09.22-.39.13.23,0,0,.08-.14a3.4,3.4,0,0,1,.2-.3.18.18,0,0,1,.16-.08l.42.1.17,0h0l0-.07a.46.46,0,0,1,0-.25c0-.08.07-.12.18-.14a1.73,1.73,0,0,1,.33,0h.28c.05,0,.09-.06.13-.11l0,0c.17.21.42.28.55.15l.11.17-.68,0,.06.26,1.23,0-.1-.09-.17-.13a1,1,0,0,1-.29-.29,1.24,1.24,0,0,1-.1-.42l0-.13.49.19,0-.09c-.2-.4-.39-.48-.56-.51a1.47,1.47,0,0,0-.32,0h-.21s0,0-.07-.06v0s0-.06,0-.06l.23,0a1.3,1.3,0,0,1,1.08.22,1.6,1.6,0,0,0,1.46.31c.08,0,.18-.22.14-.36a.63.63,0,0,0-.15-.28.25.25,0,0,0-.24-.08.41.41,0,0,1-.18,0l-.06,0v0l.43,0-.05-.08-.08-.11a.76.76,0,0,1-.11-.17,1.9,1.9,0,0,1-.14-.5,5.35,5.35,0,0,1,0-.59c0-.09,0-.19,0-.29v-.08l-.79.18-.06-.1c-.11-.2-.19-.34-.07-.48s0-.28-.07-.37a2.17,2.17,0,0,0-.27-.39c-.45-.53-.68-.55-.93-.11l0,0s0,.07-.05.07c-.19,0-.34.14-.24.56a.15.15,0,0,1-.06.11l-.6.26-.23.1h0l0,.1a.8.8,0,0,1-.13.33.29.29,0,0,1-.35,0,1,1,0,0,1-.12-.44.78.78,0,0,1,.14-.32l.09-.15,0,0,0,0-.07-.06-.16-.15c-.29-.32-.62-.69-.95-1.07a.88.88,0,0,1-.11-.23v0c0-.09-.06-.18-.1-.28l0-.13.05-.07c0-.07.1-.15.17-.18a2.32,2.32,0,0,1,.41-.07l.33-.05h.1c.1,0,.23,0,.23-.2l.11,0,.53.21.28.11-.22-.49c.11,0,.16.08.21.2l0,.1v0h0l.23,0a1,1,0,0,1,.44.09c.38.21.57,0,.76-.21l.05-.06,0,0c-.24-.32-.43-.4-.62-.25a.6.6,0,0,1-.31.09h-.08s0,0-.08,0h0v0a.65.65,0,0,1,0-.13.44.44,0,0,1,0-.1l0,0v0l0,0,0,0a.17.17,0,0,0,0-.07c-.13-.08-.2-.14-.22-.19a.63.63,0,0,1,0-.32.29.29,0,0,0,0-.2.26.26,0,0,0-.16-.1l-.31,0h-.16l0,.06a.63.63,0,0,1,.1.36c0,.07-.09.09-.2.07h0a.44.44,0,0,0-.27,0c-.13.07-.23,0-.36-.21a.7.7,0,0,0-.24-.22h0l-.17-.09a1.05,1.05,0,0,1-.25-.16,1,1,0,0,0-.65-.36.89.89,0,0,0-.28.09l-.1,0a.89.89,0,0,0-.14-.37.56.56,0,0,0-.37-.23.75.75,0,0,1-.25-.16L110,97l.16-.14-.06,0-.22-.19c-.16-.14-.32-.27-.47-.42a1.45,1.45,0,0,0-.39-.27,1.32,1.32,0,0,1-.48-.36.74.74,0,0,0-.49-.23,1.47,1.47,0,0,1-.26-.06h0a7.6,7.6,0,0,1-.85-.36,2.12,2.12,0,0,1-.35-.26l-.16-.13-.09-.1a1.72,1.72,0,0,0-.21-.23l-.29-.22a4.19,4.19,0,0,1-.36-.28,4.34,4.34,0,0,0-1.69-.95c-.36-.11-.73-.19-1.08-.28l-.09,0a.74.74,0,0,0-.2,0h-.14l.23.51-.14,0a.49.49,0,0,1-.31-.1.84.84,0,0,0-.73-.24h-.05v.18l.75.43v.07h-.15a1.85,1.85,0,0,1-.4,0,2.16,2.16,0,0,1-.31-.09,1.55,1.55,0,0,0-.41-.11.52.52,0,0,0-.31.13l-.13.08h0l.08.18.22.12-.27.1,0,.16.53.31v0a2.51,2.51,0,0,1-1.64-.08v.09a7.41,7.41,0,0,0,2.12.37c.39,0,.79.06,1.19.12l-.43,0,0,.19h.27l.68,0a.47.47,0,0,1,.22.11,5.66,5.66,0,0,1,.49.44,4.5,4.5,0,0,1,.29.35l.11.13.07.09a1,1,0,0,0,.13.17.8.8,0,0,1,.24.39.38.38,0,0,1,0,.3.29.29,0,0,0-.05.22.52.52,0,0,0,.13.23l-.06.06c-.08.08-.15.14-.13.23a.6.6,0,0,1,0,.46.64.64,0,0,0-.05.16v0l.09.19.16.32a1.49,1.49,0,0,0,.45.58c-.16-.09-.31-.18-.4.07,0,0-.06.05-.11.07h0l.11-.14,0,0c-.05-.09-.12-.19-.18-.21s-.1,0-.15.1l0,.07a13.1,13.1,0,0,1-.9,1.35.89.89,0,0,0-.15,1v0a.19.19,0,0,0,0,.09c0,.09,0,.2,0,.3a1.35,1.35,0,0,0,.11.67,2.76,2.76,0,0,1,.18.33,1.72,1.72,0,0,0,.35.55l-.11-.06v0c-.11.38-.1.4,0,1l0,.07a.77.77,0,0,1,0,.27s0,.07,0,.11l-.1,0,0,.08.07.13c.06.1.11.2.16.3h0a1,1,0,0,1,.11.31.88.88,0,0,0,.16.67,1.82,1.82,0,0,1,.11.23l.11.28,0-.29c0-.08,0-.15-.05-.23a1.63,1.63,0,0,1-.06-.26,6.76,6.76,0,0,0-.28-1.52.84.84,0,0,1,0-.17,1.14,1.14,0,0,0,0-.17.4.4,0,0,1,0-.26.09.09,0,0,1,.11-.05.22.22,0,0,1,.14.1.66.66,0,0,1,.09.31,8.23,8.23,0,0,0,.59,2.17l0,.07a2,2,0,0,1,.22,1.29.6.6,0,0,0,.05.35,5.45,5.45,0,0,0,.93,1.35Zm-2.26-6.25-.08,0h.06Z"/><path class="cls-106" d="M117.79,101.74v0l0,0-.07-.1a1.35,1.35,0,0,1-.15-.23l0,0a1.33,1.33,0,0,1-.16-.44.41.41,0,0,0,0-.25.47.47,0,0,0-.17-.21,1.3,1.3,0,0,1-.46-.7v0a1,1,0,0,0-.13-.31.85.85,0,0,0-.19-.17l-.08-.06,0,0,0,.14.16.16-.06.18-.24-.56h0a.64.64,0,0,0-.87,0c0-.15,0-.18.06-.23a.21.21,0,0,0,.11-.15v-.05l0,0a.64.64,0,0,0-.85.23l0,0,0,0,.13.13a2,2,0,0,0,.25.22c.17.12.34.22.51.31l.09.05.06,0c.08,0,.16.1.21.08s.26.1.37.28l.06.1v.07h0l0,0,.07.14a1.55,1.55,0,0,1,.13.28.42.42,0,0,1,0,.22.72.72,0,0,0-.26.06.45.45,0,0,1-.49,0,1.37,1.37,0,0,0-.32-.15l-.14-.05h0v.23h0l.06,0a.52.52,0,0,0,.14.06c.26,0,.43.16.59.61a1.25,1.25,0,0,0,.51.68.7.7,0,0,0,.25.09h.07l-.35-.5c.09-.06.17,0,.25.15a.57.57,0,0,0,.19.19h0c.16-.08.11-.28.06-.47a1.61,1.61,0,0,1-.06-.28l.09.06a.67.67,0,0,1,.21.17c.13.19.24.28.32.28S117.73,101.89,117.79,101.74Z"/><path class="cls-106" d="M126.88,111.68a.05.05,0,0,0-.05,0h-.05l.09.31-.62-.36,0,.07a1,1,0,0,0,.18.42,1.13,1.13,0,0,1,.31,1c0,.1,0,.19,0,.29v.09l-.22-.16a5.54,5.54,0,0,0-.6-.39,1,1,0,0,1-.17-.13c-.15-.13-.32-.28-.47-.1l0,0,.19.45s-.08,0-.08,0a.86.86,0,0,1-.1.31.81.81,0,0,0,0,.7.34.34,0,0,1,0,.13s0,.1,0,.17v.08l.34,0c.12.46.24.59.54.6a.31.31,0,0,1,.12,0l.12.05h.05a.71.71,0,0,0,.34,0,.48.48,0,0,0,.2-.16l.07-.08h0v0c0-.45.17-.48.4-.51a.69.69,0,0,0,.28-.08l0,0-.21-.24c.06,0,.1,0,.13,0,.12-.21.26-.1.46.1a.5.5,0,0,0,.33.15s0-.09,0-.22,0,0,0-.06l0,0c.07.07.14.14.2.15s.2.13.27.32v0a2.34,2.34,0,0,0,.2.47c.19.31.4.6.58.86.3.42.33.52.22.9l0,.15.1-.07,0,0a.27.27,0,0,0,.15-.23.75.75,0,0,0-.09-.32l.38.14-.07-.12-.1-.18-.26-.41c-.19-.3-.39-.6-.58-.91a1.11,1.11,0,0,1-.1-.33l0-.12.27.06.06.08-.09.07,0,0,.11.11a.59.59,0,0,1,.15.18.73.73,0,0,0,.32.48l.05,0,.34.33.06.12h0v.1a1.42,1.42,0,0,0,.18.94l.25.52-.15,0,.44.81,0-.54.14.16.08-.12-.24-.35-.07-.48h0l.27.48,0-.45.46.31v.06a.44.44,0,0,0,.08.45.7.7,0,0,1,0,.13c0,.05,0,.11,0,.18h0l.07.17a1.58,1.58,0,0,0,.4.66s.16.13.2.08.17,0,.28.1l.07.08,0,.05a.8.8,0,0,0,.26.22,1,1,0,0,0,.32,0h.1l0,.65v.08c0,.06,0,.11,0,.17s0,.19,0,.29V121l-.07.26v-.39l-.09-.08-.2.43-.16-.13a1.1,1.1,0,0,0-.42-.27,1.94,1.94,0,0,1-.78-.46l0,0a1.18,1.18,0,0,0-.28-.16l-.1,0a1.74,1.74,0,0,0-.57-.8l0,0c-.1-.09-.17-.13-.23-.11s-.1.15-.12.33-.16.25-.2.23h0l-.06,0a1.81,1.81,0,0,1-.57-.63,1.91,1.91,0,0,0-.58-.8l-.15-.15,0,0-.11.12-.16-.65.13-.16-.16-.34.17-.14,0,0c-.17-.23-.38-.47-.56-.27a.18.18,0,0,0-.06-.08l-.22-.11a1.91,1.91,0,0,1-.41-.23,1.14,1.14,0,0,0-1.29-.18,1.67,1.67,0,0,0-.28-.22.84.84,0,0,1-.36-.37l0,0h0l-.22.12-.45.25a.62.62,0,0,0-.32.66.17.17,0,0,1-.05.13l-.34.23-.11.07-.06,0,.68.39.11-.16v.46l-.08.18v-.41l0,0-.19-.11a4.38,4.38,0,0,0-.46-.25.26.26,0,0,0-.31,0c-.2.26-.38.53-.58.82l-.2.3,0,0,.73.42.09-.15,0,.23-.72-.42.12,1.53,0,0a.2.2,0,0,0-.16,0c-.13.13-.2.24-.18.38a1.05,1.05,0,0,0,.35.48l0,0v0l-.34-.08v.17l.19.13-.14,0,.31.41.31.82a1.13,1.13,0,0,0,.29.86,2.07,2.07,0,0,0,.8,1.14l.07,0a.67.67,0,0,0,.16.09l.53.14.19,0h0l.09.22h0l.14,0a1.44,1.44,0,0,0,.35,0c.06,0,.09-.07.12-.13l0,0,.13.24,0,0,0,0a.21.21,0,0,0,0-.06v-.05c0,.07.09.12.13.13s.07-.06.08-.2a1.14,1.14,0,0,1,0-.17v.33l.08.07a1.19,1.19,0,0,1,.5.91v0l.52.25a2,2,0,0,1,.34.92.17.17,0,0,0-.11.15.46.46,0,0,0,.06.24c0,.18-.08.3-.21.33h0v0a.33.33,0,0,0,0,.13l.35.8.11.25s0,.1,0,.15a.7.7,0,0,0,.22.43h0a.19.19,0,0,0-.05.18.3.3,0,0,0,.09.14.16.16,0,0,0-.06.11.45.45,0,0,0,.05.23c.11.23.12.37.06.49a.44.44,0,0,0,0,.27,1.12,1.12,0,0,1-.13,1l0,0a2.84,2.84,0,0,0-.21.61c0,.1-.05.2-.09.3v0l.19.12a.16.16,0,0,0-.08.11.69.69,0,0,0,.07.39c.07.18.13.37.18.56v0a9.16,9.16,0,0,1,.28,2.15.83.83,0,0,0,.23.6.1.1,0,0,0,0,.09l.11.34c.06.18.12.36.16.53a1.46,1.46,0,0,1,0,.48.91.91,0,0,0,.11.52.65.65,0,0,0,.24.26l.1,0,.13,0a1.07,1.07,0,0,1,.66.37s.1.08.14.07l.25-.08a2.66,2.66,0,0,0,.65-.27,3,3,0,0,0,.52-.47l.24-.24,0,0-.28-.37h0c.08,0,.16,0,.17,0s.18-.24.34-.24c.36,0,.44-.25.29-.83-.08-.32-.07-.37-.06-.37a4.15,4.15,0,0,1,.67-.58,1,1,0,0,1,.25-.11.82.82,0,0,0,.31-.17c.18-.18.14-.5.1-.82a2.1,2.1,0,0,1,0-.52h0v0l-.06-.19a1.59,1.59,0,0,1-.1-.38c0-.34,0-.67,0-1,0-.13,0-.25,0-.38l.08-.1.19-.23.23-.25.09-.1h0a.16.16,0,0,0,.09,0l.22-.18c.11-.1.23-.19.35-.28a1.42,1.42,0,0,1,.22-.12.85.85,0,0,0,.35-.25,8.43,8.43,0,0,0,.69-1.22,1.9,1.9,0,0,0,.13-.45c0-.08,0-.16,0-.23l0-.07h-.06l-.25,0a3.34,3.34,0,0,1-.46-.09l-.2,0a.83.83,0,0,1-.74-.62c0-.05-.07-.07-.12-.09h0l0-.16.1-.07v0l-.07-.22a3.38,3.38,0,0,0-.19-.48c-.05-.11-.11-.21-.17-.3a1.73,1.73,0,0,1-.33-.89.39.39,0,0,0-.1-.19l0-.06-.09-.32-.06-.19a1.74,1.74,0,0,1-.1-.38v0c0-.47-.06-.55-.32-.71H134l-.77-2.55.36.79,0-.38v0l.1.28c.07.21.15.43.23.65s.13.32.21.48a3.72,3.72,0,0,1,.33.94,5,5,0,0,0,.37,1.19,7.27,7.27,0,0,1,.27.72.73.73,0,0,0,.16.25l.06.07a2.25,2.25,0,0,0,.09,1.16c.05.18.1.32.28.33l.34,0a1.42,1.42,0,0,0,1.34-.29.43.43,0,0,0,.46,0,.66.66,0,0,1,.19,0c.08,0,.14-.09.19-.18l.06-.09.06-.1a.31.31,0,0,1,.09-.12.44.44,0,0,0,.23-.4.88.88,0,0,0-.16-.45c-.11-.17-.23-.33-.35-.48l-.14-.18v-.26h-.1s-.1,0-.13,0-.37.16-.59-.05c0,0,0,0-.05,0l-.08-.19-.29-.68-.05-.15a1.55,1.55,0,0,0-.08-.21l-.37-.73-.12-.24h0l.09-.07.06-.06,0,0,.08,0a1.08,1.08,0,0,1,.21.12.94.94,0,0,1,.26.53l0,.13c.11.38.62,1,.86,1s.32.16.44.47.58.73.76.71.07,0,.1-.09v0c.2.33.43.52.65.52s.28.12.42.33a1.41,1.41,0,0,1,.11.23,1.64,1.64,0,0,0,.12.25c.09.15.2.29.3.43l.08.11-.15,0v0c.07.34.2.57.38.63a.31.31,0,0,0,.25-.05l.07,0v0a.7.7,0,0,1,.06.27,3.23,3.23,0,0,0,.16,1.41l0,.14c.1.39.2.8.29,1.19s.18.74.27,1.11a3.71,3.71,0,0,0,.14.42l.08.22,0,.07.47-.57s0-.11,0-.2a.8.8,0,0,1,0-.22,1.63,1.63,0,0,0,0-.87.14.14,0,0,1,0-.1l.06,0c.2-.15.4-.3.61-.42a3.53,3.53,0,0,1,.38-.19l.21-.1a.11.11,0,0,0,0-.11.34.34,0,0,1,0-.22c0-.06.13,0,.22,0l.09,0,.1,0c.09,0,.19.06.24,0s.09-.07.12-.05a.54.54,0,0,1,.1.21l0,0,.22.54c.09.23.19.47.28.71s.14.45.2.67l.07.26c0,.07,0,.13,0,.18v.09h.42a5.42,5.42,0,0,0,.14.6,3.48,3.48,0,0,1,.18,1.38h0v0l0,.15a.8.8,0,0,0,0,.45,3.48,3.48,0,0,0,.32.67l.14.25a3,3,0,0,0,.34,1.44,1.1,1.1,0,0,0,.38.44l.08,0,0,0,0-.06c0-.08,0-.16-.07-.24a1.11,1.11,0,0,1-.09-.42,1.2,1.2,0,0,0-.25-.92,1.18,1.18,0,0,0-.21-.37.9.9,0,0,1-.22-.46,2.78,2.78,0,0,0-.09-.43,2.36,2.36,0,0,1-.09-.43,1.56,1.56,0,0,1,.07-.5l0-.14a.29.29,0,0,1,.06-.11v0l.51.63.24.7.23,0,0,.59.05,0,.21-.08a4,4,0,0,0,.51-.21.38.38,0,0,0,.13-.33,4,4,0,0,0-.49-1.75,2,2,0,0,1-.36-.91c0-.17.1-.29.33-.41a.4.4,0,0,1,.31.15,1.28,1.28,0,0,1,.23.58v.07l-.29,0,.16.54.26-.39-.07-.2h0v0c0-.37.21-.38.49-.28a.93.93,0,0,0,.9,0,1.32,1.32,0,0,0,.37-.75c0-.11.06-.22.1-.33a.67.67,0,0,0,0-.45.64.64,0,0,0-.22-.29h0a.13.13,0,0,0,.11-.13.67.67,0,0,0-.13-.34,3.31,3.31,0,0,1-.2-.4l-.08-.17-.07-.14c-.06-.13-.13-.27-.18-.41a.57.57,0,0,1,0-.25,2,2,0,0,1,.27-.27l.11-.1,0,0,0,0-.09-.1c-.12-.14-.27-.31-.42-.14l-.51-.77.1,0,.22-.1.19-.11.05,0,0,.09c0,.11.08.22.12.34a2,2,0,0,1,.05.21v.1l.43-.07a.92.92,0,0,0,.12.2c.09.13.16.22.09.37v0a.57.57,0,0,0,.11.17l.19.16.06,0,.07.21c.05.16.11.33.15.5a1.06,1.06,0,0,0,.2.48c.08.07.18.05.32,0a.21.21,0,0,0,.08-.21,2.13,2.13,0,0,0-.58-1l-.22-.48h0a.44.44,0,0,0,.15,0,.34.34,0,0,0,.11-.17v0a.24.24,0,0,1,0-.28.41.41,0,0,0,0-.13c.08-.16.18-.14.34,0a.21.21,0,0,0,.3,0,2.51,2.51,0,0,0,.24-1.53,1.82,1.82,0,0,0-.09-.43c0-.11-.09-.22-.13-.32s-.1-.23-.14-.35a1.48,1.48,0,0,0-.82-1l-.06-.27-.13.11-.11-.31-.25-.15.05-.15c0-.13.09-.26.12-.39.1-.38.38-.45.71-.17a1.12,1.12,0,0,0,.24.14l.15.08c.19.12.35.23.5.34v.09l0,.12v.06l.52-.08-.12-.13v-.12a.77.77,0,0,1,.06-.3s.16,0,.25.09a1.4,1.4,0,0,1,.18.2,1.83,1.83,0,0,0,.17.19.15.15,0,0,0,.21,0,.59.59,0,0,0,.09-.19l0-.06.07,0,.06.19a1.47,1.47,0,0,1,.1.43,1.2,1.2,0,0,1-.17.56.69.69,0,0,0,0,.67l.42.85.07.14.09.19c.1.2.2.41.31.6a.62.62,0,0,0,.19.18l.08.06,0,0v-.07c0-.12,0-.22,0-.32a2.35,2.35,0,0,1,0-.52,1.82,1.82,0,0,0-.18-1l-.37-.62-.14-.24,0-.06h.15a3.94,3.94,0,0,1,.42,0,.35.35,0,0,1,.22.12.41.41,0,0,0,.21.18c.07,0,.12,0,.18-.11s.25-.19.47-.05l.13.07.08,0,.12.06-.77-1,.06,0,0-.3a1,1,0,0,0,.26.39.2.2,0,0,0,.23,0l.06.06.13.15c.08.1.17.2.26.3a.26.26,0,0,0,.21.08.2.2,0,0,0,.1-.07l.05-.05,0,0,0,0-.16-.19a4.28,4.28,0,0,0-.42-.45c-.7-.61-1.45-1.25-2.3-2-.23-.19-.47-.37-.7-.54l-.31-.23,0,0,0,.32h0l-.12-.09-.27-.23a2.45,2.45,0,0,0-.6-.44,2.24,2.24,0,0,1-.95-.74,1,1,0,0,0-.24-.24l-.66-.39-.56-.33a.38.38,0,0,1-.08-.08l-.07-.08-.21-.19c-.23-.22-.47-.44-.7-.65a3.41,3.41,0,0,0-.49-.35c-.07,0-.19-.07-.22,0-.14.25-.15.25-.39.06l-.1-.08c-.13-.11-.26-.23-.35-.2-.31.09-.54-.27-.73-.6a2,2,0,0,0-1.13-.95,1.33,1.33,0,0,1-.46-.26l-.09-.08c-.19-.17-.39-.34-.59-.32a.15.15,0,0,1-.09-.06,1.31,1.31,0,0,0-.92-.55.32.32,0,0,1-.12-.08l0,0v0l.55-.13,0-.06-.09-.14a.88.88,0,0,0-.2-.25c-.31-.22-.62-.41-.95-.62l-.31-.2.05-.26h-.59a.46.46,0,0,1-.26,0c-.27-.12-.54-.25-.83-.4l-.35-.18,0,0,0,.07c0,.18.05.29,0,.33s-.06,0-.13,0l-.35-.2-.18-.1,0,.13.34.52h0l-.62-.56,0,.13h-.22l.15.16.14.15.09.09-.13-.1a.75.75,0,0,1-.39-.67v-.12l-.32.34,0,0,.17.24a2.09,2.09,0,0,0,.39.47,1.1,1.1,0,0,1,.48.59v0a1.38,1.38,0,0,0-.14-.25.89.89,0,0,0-.24-.2l-.1-.07-.07-.06.09.23s0,.09,0,.13a.51.51,0,0,1-.08.26.18.18,0,0,1-.22,0,.54.54,0,0,1-.2-.19l0,0a.3.3,0,0,0,.18-.12c0-.07,0-.29-.07-.41s-.09-.23-.13-.34a3.85,3.85,0,0,1-.2-.56.5.5,0,0,0-.25-.39l-.28-.16-.16-.1,0,0,.05.81.46.53c-.16.09-.27-.06-.4-.23a1,1,0,0,0-.22-.23,3.87,3.87,0,0,1-.49-.4l-.18-.16,0,0v0l-.05.11,0,.09a.76.76,0,0,0-.41-.19.65.65,0,0,1-.5-.33.25.25,0,0,0-.2-.1h-.25a2.85,2.85,0,0,1-.44,0,.42.42,0,0,1-.23-.2l0-.08c-.09-.25-.11-.27-.29-.33h0l.19.72c-.21-.22-.36-.31-.46-.28s-.12.12-.13.3l-.47-.43,0,.1.18.27a.6.6,0,0,1-.3-.18A.71.71,0,0,1,133,111a2.11,2.11,0,0,0-.3-.6l-.06-.09,0-.05.1.11.35.36.06.06c.17.17.36.36.55.27l.1-.07,0,0,0,0,0,0,0-.08a.7.7,0,0,0-.1-.18l-.14-.15a8,8,0,0,0-.64-.65,1,1,0,0,0-.17-.12.64.64,0,0,1-.31-.32.44.44,0,0,0-.15-.2c-.08,0-.16,0-.23,0L132,109l-.4-.23s0,0-.05,0h0l-.07-.16-.12.12v-.11l0,0c-.08-.11-.14,0-.18,0s-.05.07-.08.06,0,0-.08-.13l0,0-.25.12-.16-.2-1.57.78.07,0a1.12,1.12,0,0,0-.9,0l-.05,0,.21.19-.24-.05,0,.2.25,0-.38.07.12.07a.48.48,0,0,1,.15.24c.06.15.13.33.31.32l.16,0c.14,0,.31.06.36-.16l.1.19a.09.09,0,0,0,0,.09c.09.34.18.71.28,1.08a.38.38,0,0,0,.11.15s0,0,.06,0l.06,0a1.07,1.07,0,0,0,.34-.21,1.52,1.52,0,0,0,.21-.32l.08-.14,0,0-.17-.16.31.2v-.07a.43.43,0,0,0-.05-.14v0l-.08-.16a1.27,1.27,0,0,1-.15-.36s.08-.06.13-.08l.12-.06c.21-.16.46-.35.7-.56a.07.07,0,0,0,0,0l.22.52-.12.08-.28.18a.3.3,0,0,0-.13.29.73.73,0,0,0,.14.39c.17.25.37.49.62.51a.74.74,0,0,1,.27.1l.12.06.08.16v.12a2.31,2.31,0,0,1,0,.25.1.1,0,0,1,0,0l0-.38-.72-.42-.05.14.27.43-.16.2-.2-.37h0c-.11,0-.17.05-.19.13a.46.46,0,0,0,0,.25.23.23,0,0,0,0,.21.26.26,0,0,0,.15.15.41.41,0,0,1,.23.36l-.09-.06a1.36,1.36,0,0,0-.3-.16,1.36,1.36,0,0,1-.34-.21.84.84,0,0,0-.53-.24h-.27c-.1-.25-.23-.37-.4-.39a.53.53,0,0,1-.21-.15l-.1-.09-.12-.11-.06-.05,0,0v0c0,.17-.12.18-.23.18a.37.37,0,0,0-.16,0v0a1.09,1.09,0,0,0-.11-.18s-.06,0-.13.07h0a.13.13,0,0,0,0,.05c-.15-.1-.21,0-.26.11a.33.33,0,0,1-.07.11l-.15,0-.06,0c-.05,0-.11,0-.15,0A.42.42,0,0,1,126.88,111.68Zm4.85,9.22Zm-7.72-.28Zm11.69,2.45Zm1.51,2.59Zm9.87,6.36h0Zm.35-.1Zm.63,2.79h0Zm3.56-6.67ZM129.3,109.34h0l-.12-.05Zm4.34,12.61,0-.15.06-.14v.22l.13.07Z"/><path class="cls-106" d="M135.05,139.23a.67.67,0,0,0,.24.25l.13.05c.18,0,.33-.08.4-.32l.22-.72c.09-.3.19-.61.28-.91a1.76,1.76,0,0,0,0-.33v-.15a.13.13,0,0,0,.13-.1,1.49,1.49,0,0,0-.13-.8l0-.1,0,.07a.77.77,0,0,1-.73.54h0c-.28,0-.43,0-.37.49a1.15,1.15,0,0,1-.24,1A1.58,1.58,0,0,0,135.05,139.23Z"/><path class="cls-106" d="M147.94,139l0,0-.22-.34-.48-.77a5.13,5.13,0,0,1-.25-.5,2.28,2.28,0,0,0-.66-1v-.18l-.18.07v.1a.55.55,0,0,0,0,.17,13.17,13.17,0,0,1,1,2.46,6.28,6.28,0,0,0,.37,1.06,6.55,6.55,0,0,0,.39.73.2.2,0,0,0,.07.06.2.2,0,0,0,.23,0,1.16,1.16,0,0,0,0-.93,1.88,1.88,0,0,1-.1-.23l-.06-.14,0,0a.73.73,0,0,0-.1-.19.35.35,0,0,1-.09-.16.16.16,0,0,1,.08-.14Z"/><path class="cls-106" d="M157.57,148l-.86-1.72.28,0,0-.07-.18-.34a5.5,5.5,0,0,0-.41-.73,4.55,4.55,0,0,0-.53-.59l-.22-.22,0,0-.06.18v-.23l-.69-.81-.41.3a.1.1,0,0,1-.13,0,.31.31,0,0,1-.07-.15c0-.15-.06-.31-.09-.48l0-.25v0c-.18-.23-.38-.44-.58-.24l0,0,0,0,.07.13a1.4,1.4,0,0,0,.17.27,1,1,0,0,0,.23.18l.06,0h0l-.33-.06.15.55.13-.12.08.14a1.34,1.34,0,0,0,.24.34,1.42,1.42,0,0,1,.62,1.18l-.23.13.05.2h0c.21,0,.38.15.57.44a.74.74,0,0,0,.24.3c.05,0,.15.1.21.06s0-.1,0-.18v-.07s.07,0,.09,0h0c.12-.11.2-.17.33,0l.08.12a1.4,1.4,0,0,1,.24.44,1.35,1.35,0,0,0,.58.86,2.34,2.34,0,0,1,.25.22Z"/><path class="cls-106" d="M126.4,109.74s0,.06-.05.17l0,.06.34.12,0,.26,0,0-.34.45.24.26-.45.08.14.07a2.76,2.76,0,0,0,.32.13l.24.09a4.06,4.06,0,0,1,.4.22l.19.11.1.06-.17-.27.31-.2-.36-.26a2.2,2.2,0,0,0-.51-1.29l.36-.28-.45-.29.14-.2-.07,0c-.37-.15-.41.17-.45.45,0,.06,0,.11,0,.17v.06l0,0C126.38,109.69,126.4,109.73,126.4,109.74Z"/><path class="cls-106" d="M154.06,131.73l.06.38.13,0v0c0-.12,0-.23,0-.35a6.2,6.2,0,0,0-.38-2.05.09.09,0,0,0-.06-.05h0l-.06,0,.1.23c-.08,0-.14,0-.16,0a.44.44,0,0,0,0,.3l0,.13.05.15a.51.51,0,0,1,0,.37c0,.06-.12.05-.25,0s-.07,0-.08.05l-.12.32,0,.08c-.24-.35-.41-.28-.57-.22a.4.4,0,0,1-.25,0h0v0a.56.56,0,0,0,.11.28.27.27,0,0,0,.26.09h0c.24,0,.44,0,.62.56l0,.14.1-.49.33.29Z"/><path class="cls-106" d="M150.12,141.56l.27,0v0c0-.06,0-.14,0-.21a.64.64,0,0,1,.12-.35.83.83,0,0,0,.24-.56l.18.06,0-.06,0-.17c0-.12-.07-.24-.09-.36s-.06-.28-.08-.41l0-.1c.14.09.21,0,.27-.06l.06-.06,0,0,0,0L151,139c-.08-.15-.16-.3-.24-.44s-.19-.11-.24-.06a1.51,1.51,0,0,0-.17.27l-.06.11-.06.09c-.11-.08-.12-.09-.13-.07l-.73.35v0l-.24-.16h0c-.19,0-.15.23-.13.39v.07a3.65,3.65,0,0,0,.09.4,3.55,3.55,0,0,1,.08.38.8.8,0,0,0,.12.36.28.28,0,0,0,.21.11l0,0,0,0,0,.06c0,.06.08.11.12.12s.28.15.41.42Z"/><path class="cls-106" d="M151.25,140.88l.2.11a4,4,0,0,1,.45.27l.05,0c.19.11.28,0,.36-.16l0-.08h-.09l-.1,0a.13.13,0,0,1-.1,0,2.17,2.17,0,0,1-.24-.16,1.81,1.81,0,0,0-.29-.18.27.27,0,0,0-.31,0h0l-.07,0,0,.12a5,5,0,0,0-.2.6l-.05.18a.38.38,0,0,0,0,.17.12.12,0,0,0,0,.05h0a.21.21,0,0,1,.08.26.51.51,0,0,0,0,.12.57.57,0,0,1,0,.16l0,.08v0l.09.14h0l0,0s.08,0,.09-.08,0-.18,0-.28,0-.16,0-.23a.31.31,0,0,1,.06-.11l0,0,0,0,.08.64.33.16-.23-1,.27-.11-.07-.22h0l-.07,0a.64.64,0,0,1-.18,0,.2.2,0,0,1-.1-.06c0-.11-.06-.23-.1-.38l0-.11h0Z"/><path class="cls-106" d="M159,157.81h-.07l-.31.06c-.23,0-.47.1-.7.13s-.48,0-.72.06l-.32,0h0l0,.18,0,0,.12.12a1.11,1.11,0,0,0,.22.19l.07,0a1.33,1.33,0,0,0,.57-.06h0c.3-.08.6-.17.89-.27l.05,0a1.15,1.15,0,0,0,.2-.1l.07,0s0,0,0-.05V158l-.17,0Z"/><polygon class="cls-106" points="116.94 106.98 117.13 106.87 117.25 107.23 117.4 107.25 117.39 106.39 117.08 106.17 117.03 105.88 117.33 105.82 117.16 105.5 116.16 106.28 116.98 106.75 116.87 106.87 116.94 106.98"/><path class="cls-106" d="M136,111v0l-.06-.11a1.6,1.6,0,0,1-.13-.25.41.41,0,0,1,0-.24.61.61,0,0,1,.68-.22l.49.13.22.06h0l0-.19h0l-.29-.11c-.24-.09-.48-.19-.72-.26a.63.63,0,0,0-.49,0,1.28,1.28,0,0,0-.31.35l-.12.17,0,0,.8.79Z"/><path class="cls-106" d="M124,105.92a1.66,1.66,0,0,0,.53.55,1,1,0,0,0,.86,0h0l0-.06-.13-.18A.75.75,0,0,0,125,106a4.06,4.06,0,0,0-.6-.2l-.21-.06-.1-.4-.26.12.12.1v.38Z"/><path class="cls-106" d="M129.94,105.84H130l.11,0h0l-.33,0V106l0,0-.13-.06.07.11a1.34,1.34,0,0,0,.33.38l.08,0a.91.91,0,0,0,.36-.2l.13-.09,0,0,0-.05-.07-.1a3.14,3.14,0,0,0-.19-.27,2.68,2.68,0,0,0-.22-.23l-.11-.1,0,0v.18l-.66-.48v.07C129.47,105.74,129.72,105.79,129.94,105.84Z"/><path class="cls-106" d="M149,142.09l.61.53.32.28v-.37l0,0-.1-.06a.3.3,0,0,1-.12-.09c-.18-.35-.33-.55-.61-.59-.1,0-.23-.17-.36-.32l-.13-.14,0,0c-.1-.1-.2-.21-.29-.2s-.12.07-.16.2v0l.31.27Z"/><path class="cls-106" d="M160.46,157.85h0a.68.68,0,0,1-.28-.35.9.9,0,0,1,0-.61v0l-.32-.4,0,.14a1.3,1.3,0,0,1,.05.75c-.06.18-.22.26-.48.26h0l.09.38-.22.17.08.19,1.19-.43Z"/><path class="cls-106" d="M111.44,111.83l0-.16,0,0-.18-.24-.4-.53c-.43-.58-.8-.88-1.18-.93a.25.25,0,0,0-.17.06l-.07,0h0l.07.22,0,0c.25-.15.5,0,.84.4l.36.47,0,0v0h0l-.12.18Z"/><path class="cls-106" d="M109.83,96a4.43,4.43,0,0,0,.44.08h.09l-.11.16.28.13-.4-.06.76.56v0l-.76-.44.07.12a2,2,0,0,0,.68.73,1.09,1.09,0,0,0,.35.13h.14a.44.44,0,0,1,.4.18.57.57,0,0,0,.66.22l.1,0h.05l-.29-.4.2-.35-.06-.16h-.1a.39.39,0,0,0-.16,0c-.08,0-.16.09-.18.08a.83.83,0,0,1,0-.18v0l-.22-.16-.4-.29-.25-.17,0,0,.13-.05,0-.06a1.07,1.07,0,0,0-1.43-.47l-.16,0h-.05l.05.06A.65.65,0,0,0,109.83,96Z"/><path class="cls-106" d="M151.61,135.9a2.18,2.18,0,0,0,0-.24l0-.13v0l-.34-.28v.21c0,.11,0,.2,0,.3v0a.4.4,0,0,1,0,.17.57.57,0,0,0,0,.53,2,2,0,0,1,.11.21l0,.09h0l.7.74,0-.15c-.06-.2-.14-.5-.42-.52a.56.56,0,0,1-.07-.15c-.05-.22-.08-.41,0-.51S151.62,136,151.61,135.9Z"/><path class="cls-106" d="M114.89,98l.06,0,.29.2c.2.14.38.27.56.38l.27.16c.36.21.4.19.55.08l.06,0-.08,0-.23-.15a1.53,1.53,0,0,0-.47-.24c-.2,0-.32-.21-.47-.43l-.07-.1.19.07h0l.12.06a.62.62,0,0,1,.24.16,1.08,1.08,0,0,0,.43.29.88.88,0,0,1,.5.43l0,0h1a1.41,1.41,0,0,1,.48.07,3.14,3.14,0,0,0,1.54.18h.09l-.1-.08a6.67,6.67,0,0,0-3.26-1.44l-.11,0a.82.82,0,0,0-.9-.33h0l0,0a1.24,1.24,0,0,0,.27.53.39.39,0,0,0,.37.1h.14a.31.31,0,0,0,0,.13l.13.2,0,0h0l0,0-.13-.12,0,0a.22.22,0,0,0-.08-.08l-.49-.16-.16,0-.07,0-.21-.14.1-.13-.08-.11-.22-.3s0,0-.09,0l0,0,0,0,.32.43-.44-.31,0,.13.25.27ZM117,98l-.24,0,.08.24-.25-.25,0-.14,0,0-.07-.11Z"/><path class="cls-106" d="M111.74,96l-.23.13.06.06a3.18,3.18,0,0,0,.59.43c.36.21.72.34.79.27l0,0-.37-.52,0,0c-.07.12-.15.16-.24.12a.85.85,0,0,1-.3-.41h.16v-.11l-.82-.32v.17Z"/><path class="cls-106" d="M153.3,127.31l0,0h0l0,0,.18.21-.14-.25a.14.14,0,0,0,0-.05l-1.08-1.92,0,0-.05,0,0,0,.06.14.12.3.17.43c.15.38.31.77.44,1.16l0,.14a1,1,0,0,0,.32.58.3.3,0,0,0,.17,0h0l0-.07-.11-.18c-.09-.15-.18-.31-.26-.47a1.44,1.44,0,0,1-.09-.27v0h0Z"/><path class="cls-106" d="M151.82,138.69c-.07,0-.12.05-.15.17l0,.06.12,0,.16.06c.06,0,.12,0,.14.08a.26.26,0,0,1,0,.17.42.42,0,0,0,0,.29.47.47,0,0,0,.18.19l.09,0h0l0-.31.22.17v-.07l0-.18c0-.16,0-.32-.07-.47a.36.36,0,0,0-.1-.15c-.05,0-.07,0-.08,0a1.41,1.41,0,0,0-.21.17l0,0C152,138.78,151.9,138.69,151.82,138.69Z"/><path class="cls-106" d="M153.76,129.46c.17.19.27.12.36.07l.06,0s0,0,0-.11a.4.4,0,0,0-.06-.2l-.55-.53-.18-.17v.07s0,.05,0,.09a.57.57,0,0,1,0,.27c-.11.19,0,.36.06.55l.05.11.06.14v-.14c0-.08,0-.23,0-.24S153.73,129.42,153.76,129.46Z"/><path class="cls-106" d="M125.83,109.54s-.06.06-.1.19l0,0h0l-.06-.06v0a.07.07,0,0,0,0,0l-.08.59-.32-.11.31.19h.07l.09,0a1.4,1.4,0,0,0,.41.07s0-.1,0-.33l0-.14.24,0V110a.69.69,0,0,0-.16-.34.16.16,0,0,0-.18,0C125.9,109.57,125.86,109.54,125.83,109.54Z"/><path class="cls-106" d="M131,106.25a.55.55,0,0,0,.55.06l.06,0-1.15-.76,0,.15,0,0A1.65,1.65,0,0,0,131,106.25Z"/><path class="cls-106" d="M113.64,97.13h0a1.12,1.12,0,0,0,.35.39l.09,0c.15,0,.29,0,.41-.23l0-.05-.39-.18-.36-.1-.11-.15a0,0,0,0,0-.05,0,.07.07,0,0,0,0,.08A.73.73,0,0,0,113.64,97.13Z"/><path class="cls-106" d="M114.5,100.4c-.15-.29-.4-.46-.59-.39a.51.51,0,0,1-.15,0h-.09l0,.15,0,0,.1,0,.23.12.18.13.18.13h0a.23.23,0,0,0,.11,0h.08v-.11A.56.56,0,0,0,114.5,100.4Z"/><path class="cls-106" d="M113.73,97.84l.15-.06-.09-.24-.84-.09.13.1a.44.44,0,0,1,.06.12.56.56,0,0,0,.18.26.16.16,0,0,0,.15,0h0Z"/><path class="cls-106" d="M147.83,117.15a.39.39,0,0,0,.21.07c.08,0,.12-.06.14-.15v0l-1.08-.62.11.15A2.29,2.29,0,0,0,147.83,117.15Z"/><path class="cls-106" d="M143,133.32l0,1h0c.18,0,.29,0,.32-.13s-.07-.34-.27-.79Z"/><path class="cls-106" d="M111.95,112.82h0l.71.13-.1-.1-.12-.12a.67.67,0,0,1-.13-.15l0,0c-.14-.25-.16-.27-.33-.27l-.39-.37.12.47-.37-.18v.1l.56.37Z"/><path class="cls-106" d="M104.68,99.28l0,0v0a1.21,1.21,0,0,0-.43-.91l0,0v.05a1,1,0,0,0,.08.5A1,1,0,0,0,104.68,99.28Z"/><path class="cls-106" d="M152.83,132.31c0-.09,0-.17,0-.24a1,1,0,0,0-.06-.41.68.68,0,0,0-.26-.25l-.12-.08,0,0,0,.17.53,1Z"/><path class="cls-106" d="M151,133.55a1,1,0,0,0,.2.53l0,.07.11-.91-.06,0C151.07,133.32,151,133.41,151,133.55Z"/><path class="cls-106" d="M140.42,111.62l0,0a1.72,1.72,0,0,0-.44-.42c-.11,0-.17,0-.22.16l0,0,.72.41Z"/><path class="cls-106" d="M114.14,97.85a.26.26,0,0,0-.23.23v.07l.88.13-.08-.09A.74.74,0,0,0,114.14,97.85Z"/><polygon class="cls-106" points="129.19 111.16 129.03 110.85 128.66 110.87 128.88 111.45 129.19 111.16"/><path class="cls-106" d="M114.13,135.61a.16.16,0,0,0-.12-.06h0l-.21-.35v.06l0,.09a.43.43,0,0,0,0,.24.89.89,0,0,0,.22.35.25.25,0,0,0,.13.07l0,0,.68.51-.12-.18-.13-.19Z"/><path class="cls-106" d="M129.86,116.84h0l-.09,0-.16-.05-.15-.09-.07,0,0,0,0,.13.5.67Z"/><path class="cls-106" d="M157.36,146.44a.33.33,0,0,0,.17,0c.14,0,.25-.11.29-.3l0-.08-.73.09.05.07A.67.67,0,0,0,157.36,146.44Z"/><path class="cls-106" d="M153,131.92l0,0,.35,0h0v0c-.06-.24-.08-.28-.26-.33a.19.19,0,0,0-.2.13s0,.14.07.23Z"/><path class="cls-106" d="M159.86,152.59l.13.22.24.42-.8-2v.17A2.42,2.42,0,0,0,159.86,152.59Z"/><path class="cls-106" d="M114.7,97.21l.08-.11,0,0,0-.1a.53.53,0,0,0-.13-.21,1.45,1.45,0,0,0-.29-.15l-.12-.05,0,0,0,.19Z"/><polygon class="cls-106" points="153.06 141.58 152.74 141.03 152.85 142.16 153.06 141.58"/><polygon class="cls-106" points="101.01 94.67 101.06 94.87 101.81 94.91 101.77 94.7 101.01 94.67"/><path class="cls-106" d="M128.48,116h.08c.27,0,.23-.21.21-.42v-.17h0c-.21,0-.19.15-.18.3a.4.4,0,0,1,0,.21Z"/><path class="cls-106" d="M134.91,108.08c.12.07.24.07.32-.15l0-.08-.67,0,.12.11A1.39,1.39,0,0,0,134.91,108.08Z"/><path class="cls-106" d="M153.41,143.29a.93.93,0,0,0-.29-.45.2.2,0,0,0-.26,0l0,0,.64.52Z"/><path class="cls-106" d="M152.27,138.55l0-.09,0-.12a1.15,1.15,0,0,0,0-.31.6.6,0,0,0-.1-.24l-.05-.09,0-.06-.08.12.14.21-.14.15Z"/><path class="cls-106" d="M141.62,112.66c-.22-.28-.35-.4-.43-.38s-.08.07-.09.19v.05l.62.26Z"/><polygon class="cls-106" points="134.22 107.79 134.22 107.58 133.69 107.32 133.69 107.52 134.22 107.79"/><path class="cls-106" d="M152.11,144.42l.58,0-.13-.08c-.26-.17-.36-.23-.42-.19s0,.11,0,.25Z"/><path class="cls-106" d="M112.67,98.2a.63.63,0,0,0,.21.25.22.22,0,0,0,.18,0h.12l0-.2-.53-.14Z"/><polygon class="cls-106" points="115.55 105.23 115.95 105.84 116.05 105.7 115.64 105.12 115.55 105.23"/><path class="cls-107" d="M129.32,116.13a5.51,5.51,0,0,0-2.31-4.6c-1.34-.77-2.47,0-2.53,1.81a5.51,5.51,0,0,0,2.31,4.6C128.12,118.71,129.26,117.9,129.32,116.13Z"/><path class="cls-108" d="M147.44,129.4c.11-3.19-1.75-6.89-4.15-8.28s-4.44.08-4.55,3.26,1.75,6.89,4.15,8.28S147.33,132.59,147.44,129.4Z"/><path class="cls-109" d="M109,102.4A5.23,5.23,0,0,0,106.8,98c-1.27-.73-2.34,0-2.4,1.72a5.23,5.23,0,0,0,2.19,4.37C107.86,104.86,108.93,104.08,109,102.4Z"/><path class="cls-110" d="M120.28,129c.1-3-1.65-6.51-3.92-7.82s-4.2.07-4.3,3.08,1.65,6.51,3.92,7.82S120.17,132,120.28,129Z"/><text class="cls-111" transform="matrix(0.75, 0.43, -0.03, 1, 75.64, 76.55)"><tspan class="cls-112">E</tspan><tspan x="2" y="0">u</tspan><tspan class="cls-113" x="4.27" y="0">r</tspan><tspan x="5.58" y="0">ope</tspan><tspan x="0" y="11.35">Noth </tspan><tspan class="cls-114" x="9.51" y="11.35">A</tspan><tspan class="cls-115" x="12.02" y="11.35">me</tspan><tspan class="cls-116" x="17.53" y="11.35">r</tspan><tspan x="18.9" y="11.35">ica</tspan><tspan class="cls-117" x="0" y="22.69">A</tspan><tspan x="2.5" y="22.69">sia</tspan><tspan class="cls-118" x="0" y="34.04">S</tspan><tspan x="2.06" y="34.04">outh </tspan><tspan class="cls-114" x="11.13" y="34.04">A</tspan><tspan x="13.64" y="34.04">me</tspan><tspan class="cls-119" x="19.15" y="34.04">r</tspan><tspan x="20.51" y="34.04">ica</tspan></text><polygon class="cls-107" points="73.73 71.59 70.81 69.91 70.68 73.77 73.59 75.45 73.73 71.59"/><polygon class="cls-108" points="73.33 82.86 70.42 81.18 70.28 85.05 73.2 86.73 73.33 82.86"/><polygon class="cls-109" points="72.94 94.2 70.02 92.52 69.89 96.39 72.8 98.07 72.94 94.2"/><polygon class="cls-110" points="72.55 105.46 69.63 103.78 69.5 107.64 72.41 109.32 72.55 105.46"/><polygon class="cls-120" points="165.48 118.02 69.39 62.67 69.8 50.98 165.89 106.34 165.48 118.02"/><text class="cls-121" transform="matrix(0.75, 0.43, -0.03, 1, 71.85, 59.4)"><tspan class="cls-122">C</tspan><tspan x="2.69" y="0">one</tspan><tspan class="cls-123" x="10.29" y="0">c</tspan><tspan x="12.47" y="0">tivi</tspan><tspan class="cls-124" x="18.53" y="0">t</tspan><tspan x="20.14" y="0">y</tspan></text><polyline class="cls-125" points="154.02 106.23 152.87 103.94 151.61 104.84"/><line class="cls-125" x1="162.86" y1="111.44" x2="161.54" y2="108.81"/><line class="cls-125" x1="161.48" y1="110.65" x2="162.92" y2="109.61"/><path class="cls-106" d="M158.59,107.64l-.06-.24a2.69,2.69,0,0,0,.15-.38l-.19-.37a1.68,1.68,0,0,0-.35,0l-.15-.17s-.12-.53-.14-.54l-.28-.16a2.42,2.42,0,0,0-.16.36h-.16s-.33-.39-.35-.38l-.2.14s.13.53.13.53l-.07.16a1.73,1.73,0,0,0-.35,0V107s.34.39.34.39l.06.24a2.73,2.73,0,0,0-.15.38l.19.37a1.72,1.72,0,0,0,.35,0l.15.17s.12.52.14.54l.28.16a2.43,2.43,0,0,0,.16-.37h.16s.33.39.35.38l.2-.14s-.13-.53-.13-.53l.07-.16a1.72,1.72,0,0,0,.35,0V108S158.59,107.64,158.59,107.64Zm-.35.18c0,.41-.28.59-.59.41a1.28,1.28,0,0,1-.54-1.07c0-.41.28-.59.59-.41A1.28,1.28,0,0,1,158.23,107.81Z"/></g><polygon class="cls-126" points="174.3 97.78 229.55 67.34 117.19 0 59.55 31.52 174.3 97.78"/><polygon class="cls-127" points="174.3 97.77 229.55 67.32 229.55 158.58 174.3 190.52 174.3 97.77"/><polygon class="cls-128" points="201.78 182.25 201.78 253.89 290.4 305.06 290.4 233.42 201.78 182.25"/><g class="cls-78"><text class="cls-129" transform="matrix(0.87, 0.5, -0.01, 1, 208.34, 210.18)"><tspan class="cls-130">A</tspan><tspan x="1.63" y="0">pp </tspan><tspan class="cls-131" x="5.23" y="0">U</tspan><tspan class="cls-132" x="6.94" y="0">sage ac</tspan><tspan class="cls-133" x="15.17" y="0">r</tspan><tspan x="16.01" y="0">oss </tspan><tspan class="cls-133" x="20.16" y="0">v</tspan><tspan class="cls-134" x="21.42" y="0">ersions</tspan></text><polygon class="cls-135" points="269.99 253.43 227.15 228.67 227.18 225 270.02 249.76 269.99 253.43"/><polygon class="cls-109" points="255.52 245.07 227.15 228.67 227.18 225 255.56 241.4 255.52 245.07"/><text class="cls-129" transform="matrix(0.87, 0.5, -0.01, 1, 207.95, 216.58)">0.1.5.1</text><text class="cls-129" transform="matrix(0.87, 0.5, -0.01, 1, 278, 257.06)">134K</text><polygon class="cls-136" points="269.93 260.11 227.09 235.35 227.12 231.68 269.96 256.44 269.93 260.11"/><polygon class="cls-107" points="244.61 245.48 227.09 235.35 227.12 231.68 244.65 241.81 244.61 245.48"/><text class="cls-129" transform="matrix(0.87, 0.5, -0.01, 1, 207.89, 223.25)">0.1.5.2</text><text class="cls-129" transform="matrix(0.87, 0.5, -0.01, 1, 277.94, 263.74)">134K</text><polygon class="cls-137" points="269.87 266.79 227.03 242.03 227.06 238.35 269.9 263.11 269.87 266.79"/><polygon class="cls-108" points="237.92 248.32 227.03 242.03 227.06 238.35 237.95 244.65 237.92 248.32"/><text class="cls-129" transform="matrix(0.87, 0.5, -0.01, 1, 207.83, 229.93)">0.1.5.3</text><text class="cls-129" transform="matrix(0.87, 0.5, -0.01, 1, 277.88, 270.41)">134K</text><polygon class="cls-138" points="269.81 273.46 226.97 248.7 227.01 245.03 269.85 269.79 269.81 273.46"/><polygon class="cls-110" points="232.76 252.04 226.97 248.7 227.01 245.03 232.79 248.37 232.76 252.04"/><text class="cls-129" transform="matrix(0.87, 0.5, -0.01, 1, 207.77, 236.6)">0.1.5.4</text><text class="cls-129" transform="matrix(0.87, 0.5, -0.01, 1, 277.82, 277.09)">134K</text><polygon class="cls-139" points="269.75 280.14 226.91 255.38 226.95 251.71 269.79 276.46 269.75 280.14"/><polygon class="cls-106" points="229.06 256.62 226.91 255.38 226.95 251.71 229.09 252.95 229.06 256.62"/><text class="cls-129" transform="matrix(0.87, 0.5, -0.01, 1, 207.71, 243.28)">0.1.5.5</text><text class="cls-129" transform="matrix(0.87, 0.5, -0.01, 1, 277.76, 283.77)">134K</text><polygon class="cls-140" points="286.07 249.81 206.76 203.97 206.83 196.41 286.14 242.24 286.07 249.81"/><polyline class="cls-141" points="277.78 241.71 276.89 240.15 275.99 240.67"/><line class="cls-141" x1="284.37" y1="245.59" x2="283.35" y2="243.81"/><line class="cls-141" x1="283.34" y1="245" x2="284.38" y2="244.4"/><text class="cls-142" transform="matrix(0.87, 0.5, -0.01, 1, 208.46, 202.03)"><tspan class="cls-143">A</tspan><tspan x="1.87" y="0">pp</tspan><tspan class="cls-144" x="5.35" y="0"> </tspan><tspan class="cls-145" x="5.89" y="0">V</tspan><tspan x="7.5" y="0">ersions</tspan></text><path class="cls-106" d="M281.16,242.88l0-.16a1.46,1.46,0,0,0,.1-.24l-.14-.25a1.43,1.43,0,0,0-.26,0l-.11-.12s-.1-.35-.11-.36l-.21-.12a1.31,1.31,0,0,0-.11.23h-.11s-.25-.27-.26-.26l-.15.08s.1.35.1.35l0,.1a1.45,1.45,0,0,0-.26,0v.23s.26.27.26.27l0,.16a1.47,1.47,0,0,0-.1.24l.14.25a1.45,1.45,0,0,0,.26,0l.11.12s.1.35.11.36l.21.12a1.31,1.31,0,0,0,.11-.23h.12s.25.27.26.26l.15-.08s-.1-.35-.1-.35l0-.1a1.43,1.43,0,0,0,.26,0v-.23S281.16,242.88,281.16,242.88Zm-.26.09c0,.26-.19.37-.43.23a.92.92,0,0,1-.42-.72c0-.26.19-.37.43-.23A.92.92,0,0,1,280.9,243Z"/></g><polygon class="cls-146" points="290.4 233.42 315.81 219.42 315.81 290.06 290.4 305.06 290.4 233.42"/><polygon class="cls-147" points="290.4 233.42 315.81 219.42 225.32 168.35 201.78 182.25 290.4 233.42"/><ellipse class="cls-10" cx="122.2" cy="185.74" rx="4" ry="2.84"/><path class="cls-11" d="M122.71,184.58a2.62,2.62,0,0,1,1.35.36,2.19,2.19,0,0,0-2-1c-1.16,0-2.1.67-2.1,1.49a1.36,1.36,0,0,0,.74,1.13,1.11,1.11,0,0,1-.14-.53C120.61,185.25,121.55,184.58,122.71,184.58Z"/><path class="cls-12" d="M124.21,185.47a1.11,1.11,0,0,0-.14-.53,2.62,2.62,0,0,0-1.35-.36c-1.16,0-2.1.67-2.1,1.49a1.11,1.11,0,0,0,.14.53,2.62,2.62,0,0,0,1.35.36C123.27,187,124.21,186.29,124.21,185.47Z"/><path class="cls-13" d="M124.21,185.47a1.11,1.11,0,0,0-.14-.53,2.62,2.62,0,0,0-1.35-.36c-1.16,0-2.1.67-2.1,1.49a1.11,1.11,0,0,0,.14.53,2.62,2.62,0,0,0,1.35.36C123.27,187,124.21,186.29,124.21,185.47Z"/><polygon class="cls-148" points="83.4 132.84 83.4 200.52 167.13 248.86 167.13 181.18 83.4 132.84"/><g class="cls-78"><text class="cls-149" transform="matrix(0.75, 0.44, 0.05, 1, 94.98, 163.49)">T<tspan class="cls-150" x="1.76" y="0">op 4</tspan></text><text class="cls-111" transform="matrix(0.75, 0.44, 0.05, 1, 120.51, 178.52)"><tspan class="cls-116">D</tspan><tspan x="2.76" y="0">evi</tspan><tspan class="cls-117" x="7.78" y="0">c</tspan><tspan x="9.6" y="0">e</tspan></text><text class="cls-111" transform="matrix(0.75, 0.44, 0.05, 1, 145.05, 192.98)"><tspan class="cls-151">P</tspan><tspan class="cls-113" x="2.13" y="0">r</tspan><tspan x="3.44" y="0">o</tspan><tspan class="cls-117" x="5.7" y="0">g</tspan><tspan class="cls-113" x="7.98" y="0">r</tspan><tspan x="9.29" y="0">ess</tspan></text><text class="cls-152" transform="matrix(0.64, 0.38, 0.05, 1, 123.75, 188.92)">IOS<tspan class="cls-153" x="0" y="8.51">A</tspan><tspan x="1.88" y="8.51">nd</tspan><tspan class="cls-154" x="5.35" y="8.51">r</tspan><tspan class="cls-155" x="6.33" y="8.51">oid</tspan><tspan x="0" y="17.01">Blac</tspan><tspan class="cls-156" x="5.28" y="17.01">k</tspan><tspan x="6.79" y="17.01">be</tspan><tspan class="cls-157" x="10.1" y="17.01">r</tspan><tspan class="cls-158" x="11.12" y="17.01">r</tspan><tspan class="cls-159" x="12.21" y="17.01">y</tspan><tspan class="cls-156" x="0" y="25.52">O</tspan><tspan x="2.18" y="25.52">thers</tspan></text><text class="cls-152" transform="matrix(0.64, 0.38, 0.05, 1, 149.93, 204.34)">45%<tspan x="0" y="8.51">20%</tspan><tspan x="0" y="17.01">15%</tspan><tspan x="0" y="25.52">10%</tspan></text><path class="cls-109" d="M100.63,186.36c-.19-3.73,1.57-5.64,3.94-4.29l-.43-8.5c-5.35-3.1-9.35,1.18-8.92,9.6a32.71,32.71,0,0,0,4.45,14.39l3-4.78A14.57,14.57,0,0,1,100.63,186.36Z"/><path class="cls-107" d="M105.33,195.75a8.36,8.36,0,0,1-2.71-3l-3,4.78a18.78,18.78,0,0,0,6.1,6.68c4.56,2.69,8.14,0,8.87-6l-5.36-5.07C108.92,195.78,107.34,196.93,105.33,195.75Z"/><path class="cls-108" d="M110.62,180.84,107.33,185a14.57,14.57,0,0,1,2,6.44,9.11,9.11,0,0,1-.06,1.67l5.36,5.07a20.7,20.7,0,0,0,.11-3.55A32.71,32.71,0,0,0,110.62,180.84Z"/><path class="cls-110" d="M104.2,173.61l-.06,0,.43,8.5.06,0a8.34,8.34,0,0,1,2.7,2.95l3.29-4.21A19.34,19.34,0,0,0,104.2,173.61Z"/><polygon class="cls-109" points="121.63 185.21 119.78 184.13 119.93 187.02 121.78 188.11 121.63 185.21"/><polygon class="cls-107" points="122.06 193.66 120.21 192.57 120.36 195.47 122.21 196.56 122.06 193.66"/><polygon class="cls-108" points="122.49 202.16 120.65 201.07 120.8 203.97 122.64 205.06 122.49 202.16"/><polygon class="cls-110" points="122.92 210.59 121.08 209.5 121.23 212.4 123.07 213.49 122.92 210.59"/><polygon class="cls-160" points="154.17 192.42 93.3 156.57 92.85 147.82 153.73 183.67 154.17 192.42"/><text class="cls-161" transform="matrix(0.64, 0.38, 0.05, 1, 94.54, 154.05)"><tspan class="cls-162">D</tspan><tspan class="cls-163" x="2.38" y="0">evi</tspan><tspan class="cls-164" x="6.69" y="0">c</tspan><tspan x="8.26" y="0">e </tspan><tspan class="cls-164" x="10.79" y="0">U</tspan><tspan x="13.07" y="0">sage</tspan></text><polyline class="cls-165" points="146.6 184.27 145.78 182.62 145.08 183.37"/><line class="cls-165" x1="152.21" y1="187.66" x2="151.27" y2="185.77"/><line class="cls-165" x1="151.34" y1="187.14" x2="152.14" y2="186.29"/><path class="cls-106" d="M149.43,185.06l0-.17a2.37,2.37,0,0,0,.07-.29l-.13-.26a.81.81,0,0,0-.21,0l-.1-.12s-.1-.39-.11-.39l-.17-.1a2.11,2.11,0,0,0-.07.28h-.09s-.22-.27-.23-.26l-.11.12s.11.39.11.39l0,.13s-.21,0-.21,0v.27s.23.27.23.27l0,.17a2.4,2.4,0,0,0-.07.29l.13.26a.84.84,0,0,0,.21,0l.1.12s.1.39.11.39l.17.1a2.1,2.1,0,0,0,.07-.28h.09s.22.27.23.26l.11-.12s-.11-.39-.11-.39l0-.13s.21,0,.21,0v-.27S149.43,185.06,149.43,185.06Zm-.2.15c0,.3-.13.46-.33.34a1,1,0,0,1-.39-.76c0-.3.13-.46.33-.34A1,1,0,0,1,149.23,185.21Z"/></g><polygon class="cls-166" points="167.13 181.17 185.31 170.74 103.08 121.72 83.4 132.82 167.13 181.17"/><polygon class="cls-167" points="167.13 181.18 185.31 170.74 185.31 237.48 167.13 248.86 167.13 181.18"/><path class="cls-168" d="M58.2,311.05c1.33-.75,2.12-1.69,2.12-2.73,0-2.4-4.28-4.34-9.56-4.34a19.92,19.92,0,0,0-3.54.31c-.08-2.37-4.32-4.28-9.55-4.28s-9.56,1.94-9.56,4.34a2.32,2.32,0,0,0,.5,1.38c-4,1-6.73,2.9-6.73,5.11,0,3.2,5.71,5.79,12.76,5.79a26.57,26.57,0,0,0,4.72-.41c.11,3.16,5.77,5.7,12.75,5.7s12.76-2.59,12.76-5.79C64.85,313.94,62.16,312,58.2,311.05Z"/><path class="cls-168" d="M50.76,304a19.92,19.92,0,0,0-3.54.31c-.08-2.37-4.32-4.28-9.55-4.28s-9.56,1.94-9.56,4.34,4.28,4.34,9.56,4.34a19.92,19.92,0,0,0,3.54-.31c.08,2.37,4.32,4.28,9.55,4.28s9.56-1.94,9.56-4.34S56,304,50.76,304Z"/></g></g></g></svg>