<svg xmlns="http://www.w3.org/2000/svg" viewBox="0 0 204.26 47.42"><defs><style>.cls-1{fill:#f50;}</style></defs><title>Asset 1</title><g id="Layer_2" data-name="Layer 2"><g id="Layer_1-2" data-name="Layer 1"><path class="cls-1" d="M204.18,35.35a4.51,4.51,0,0,1-2.75,1.13,1.91,1.91,0,0,1-2.12-2.18V28.87h4.88V25.62H199.3v-4l-4.1,1v3h-2.15v3.25h2.15v5.79c0,3.5,1.68,5.35,4.79,5.35a7,7,0,0,0,3.63-1l.64-3.63Z"/><path class="cls-1" d="M188.07,31a10.83,10.83,0,0,1-2.42-.8.89.89,0,0,1-.58-.83c0-.63.72-1,1.9-1a9.88,9.88,0,0,1,5,1.71l.08,0V26.53a10.46,10.46,0,0,0-4.93-1.21c-3.61,0-5.92,1.74-5.92,4.38,0,2.18,1.24,3.39,4.9,4.35a14,14,0,0,1,2.48.83,1,1,0,0,1,.61.91c0,.66-.77,1.13-2,1.13A11.51,11.51,0,0,1,181,34.63l-.08.05.55,3.77A10.34,10.34,0,0,0,187,40a7.26,7.26,0,0,0,4.41-1.24,3.76,3.76,0,0,0,1.66-3.19A3.65,3.65,0,0,0,192,32.78,9,9,0,0,0,188.07,31"/><path class="cls-1" d="M175.61,35a4.54,4.54,0,0,1-3,1.38c-1.52,0-2.34-1-2.34-2.64v-8.1H166v9c0,3.33,1.85,5.43,4.74,5.43,2,0,3.41-.86,4.93-2.83V39.7h4.05V25.62h-4.16V35Z"/><path class="cls-1" d="M163.85,25.4c-1.52,0-2.67.94-4.63,3.69V25.43l-4.08.52V39.7h4.19V31.46A8,8,0,0,1,164,29.76a4.07,4.07,0,0,1,1,.08l-.25-4.32a3.76,3.76,0,0,0-.91-.12"/><polygon class="cls-1" points="155.7 20.42 137.49 20.42 137.49 24.41 144.37 24.41 144.37 39.7 148.81 39.7 148.81 24.41 155.7 24.41 155.7 20.42"/><path class="cls-1" d="M132.2,35.4a5.24,5.24,0,0,1-3.05,1.08,3.44,3.44,0,0,1-3.44-3.74,3.61,3.61,0,0,1,3.69-3.86,5.39,5.39,0,0,1,2.81.77V35.4Zm0-8.63a6.07,6.07,0,0,0-3.75-1.38,6.28,6.28,0,0,0-4.82,2.15,7.74,7.74,0,0,0-2,5.43,7.17,7.17,0,0,0,1.77,5,5.43,5.43,0,0,0,4.3,2,5.8,5.8,0,0,0,4.57-2.26v2h4.08V18.82l-4.16,1.1v6.86Z"/><path class="cls-1" d="M115.62,25.29c-1.9,0-3.39.86-4.9,2.83v-2.7l-4.08.52V39.69h4.19V30.31a4.43,4.43,0,0,1,3-1.35c1.52,0,2.37,1,2.37,2.61V39.7h4.16v-9c0-3.33-1.85-5.43-4.74-5.43"/><path class="cls-1" d="M97.74,36.53a3.64,3.64,0,0,1-3.55-3.85,3.58,3.58,0,1,1,7.13-.05,3.66,3.66,0,0,1-3.58,3.9m0-11.29a7.51,7.51,0,0,0-5.46,2.15,7.2,7.2,0,0,0-2.18,5.29,7.09,7.09,0,0,0,2.15,5.26,7.29,7.29,0,0,0,5.46,2.15,7.42,7.42,0,0,0,5.46-2.18,7.54,7.54,0,0,0,.05-10.55,7.5,7.5,0,0,0-5.48-2.12"/><path class="cls-1" d="M86.53,25.62l-3.17,8.84-3.47-8.84H75.37l5.87,13.5a3,3,0,0,1-3.05,2.18,5,5,0,0,1-2.34-.63l-.05.05.8,3.8A6,6,0,0,0,79,45c2.89,0,5-1.66,6.31-5.15L91,25.62Z"/><path class="cls-1" d="M69.28,28.24c1.63,0,2.7,1.21,2.89,3.17H66.22c.22-1.9,1.41-3.17,3.05-3.17m1.22,8.48c-2.29,0-3.8-1.08-4.24-2.94H76c0-.47.08-1,.08-1.19a7.87,7.87,0,0,0-1.79-5.35,6.24,6.24,0,0,0-4.9-2,6.75,6.75,0,0,0-5.1,2.12,7.42,7.42,0,0,0-2,5.26A7.17,7.17,0,0,0,64.3,38a7.36,7.36,0,0,0,5.46,2,10.41,10.41,0,0,0,4.85-1.1l1.13-3.5-.08-.06a11.19,11.19,0,0,1-5.16,1.39"/><path class="cls-1" d="M53.72,36.28H51.11V31.46h2.51c2.12,0,3.3.86,3.3,2.42s-1.22,2.4-3.19,2.4M51.1,23.83h2.4c1.74,0,2.78.8,2.78,2.2s-1.16,2.37-2.94,2.37H51.1Zm6.69,5.82a4.56,4.56,0,0,0,2.72-4.13c0-3.19-2.42-5.1-6.5-5.1H46.88V39.7H54a8.4,8.4,0,0,0,5.26-1.52,4.82,4.82,0,0,0,2-4c0-2.1-1.18-3.67-3.46-4.52"/><path class="cls-1" d="M22.95,25.74v8.67a.59.59,0,0,1-.59.59h-9.7a.23.23,0,0,1-.23-.23v-9a.59.59,0,0,1,.59-.59h9.35a.58.58,0,0,1,.58.59m-10.31-13a.23.23,0,0,1-.23-.23V.11a.11.11,0,0,0-.07-.1.11.11,0,0,0-.12,0L8,4.24a1.19,1.19,0,0,0-.29.7V17.32a.12.12,0,0,0,.12.12H22.72a.23.23,0,0,1,.23.23v2.22a.59.59,0,0,1-.59.59H7.84a.13.13,0,0,0-.12.12V36.39a3.3,3.3,0,0,0,3.3,3.3H22.36a.59.59,0,0,1,.59.59V42.5a.23.23,0,0,1-.23.23H11a6.34,6.34,0,0,1-6.34-6.34V7.84a.11.11,0,0,0-.07-.1.11.11,0,0,0-.12,0L.29,12a1.18,1.18,0,0,0-.29.7v25.1a9.66,9.66,0,0,0,9.65,9.65H27.53a.12.12,0,0,0,.12-.12V12.87a.13.13,0,0,0-.12-.12H12.64Z"/><path class="cls-1" d="M35.1,19.44l-4.2-4.2a.1.1,0,0,0-.12,0,.1.1,0,0,0-.07.1V44.83a.11.11,0,0,0,.07.1h0a.12.12,0,0,0,.08,0l4.2-4.2a1.16,1.16,0,0,0,.29-.7V20.14a1.18,1.18,0,0,0-.29-.7"/></g></g></svg>