<svg xmlns="http://www.w3.org/2000/svg" viewBox="0 0 328.88 57.75"><defs><style>.cls-1{fill:#f15723;}</style></defs><title>Asset 3</title><g id="Layer_2" data-name="Layer 2"><g id="Layer_1-2" data-name="Layer 1"><path class="cls-1" d="M30.06,34.25c-1.37-4.5-8.69-8.06-8.69-8.06.69-.37,4.75-6.25,4.75-6.25,3.25-6.19-1.56-12.81-1.56-12.81-2.94-5.12-9.4-5.29-9.4-5.29H0L.44,56.19H15.59a17.86,17.86,0,0,0,12.54-6.37C33.56,44.38,30.06,34.25,30.06,34.25ZM5.75,7.56h9.06s5.81.88,6.5,6.19c0,0,1.38,7.81-7.5,10.13,0,0-7.31.81-8.06.63Zm7.82,42.75-7.82,0V30.19h8.69S25,30.88,25.5,39.81C25.5,39.81,25.58,50.81,13.57,50.31Z"/><path class="cls-1" d="M64.79,0c-15,0-27.17,12.93-27.17,28.88S49.79,57.75,64.79,57.75,92,44.82,92,28.88,79.8,0,64.79,0Zm.3,51.8C53.17,51.8,43.5,41.6,43.5,29S53.17,6.22,65.09,6.22,86.68,16.42,86.68,29,77,51.8,65.09,51.8Z"/><path class="cls-1" d="M98.5,56.06h5.31l4.88-37.75s.27-.23.36,0l17.64,37.75h1.56L146,18.21l5.06,37.85h5.23L149.21,1.71h-1.07s-.36.07-.62.76l-19.35,42.2s-.92.58-1.23,0L107.23,2.14s-.17-.36-.33-.36h-1l-.36.06Z"/><path class="cls-1" d="M195.54,35.75V29.5h21.63a.85.85,0,0,1,.58.63s1.67,18.21-14.17,25c0,0-17.5,7.33-30.83-4.17,0,0-13.87-12.79-9-28.17,0,0,2.38-17.75,21.38-22,0,0,18.13-4.12,29.38,10l.16.22-4.22,4.13s-11.8-13.86-27.77-7.26c0,0-17.17,7.17-13.33,25.83,0,0,5.58,22.25,28.08,17.58,0,0,11.75-2.75,13.83-15.33Z"/><path class="cls-1" d="M247.33,1.71h-1.65L221.38,56.1h6.38l8-17.82h21.56l8.06,17.82h5.94Zm6.89,30.79h-15.8c-.3,0,.18-1,.18-1l8.09-17.16,7.78,17.22C254.69,32.28,254.22,32.5,254.22,32.5Z"/><path class="cls-1" d="M295.17,31.25c9.42-1.08,10.25-2.34,10.25-2.34,11.17-6.09,5.5-19.16,5.5-19.16a13.44,13.44,0,0,0-11.83-8H280l-.08,54.4h5.83l-.12-25.23h2.25L306.63,56.1H313Zm-9.48-5.94V7.56h13.06c7.94.38,7.75,8.88,7.75,8.88.56,7.94-7.94,8.88-7.94,8.88Z"/><polygon class="cls-1" points="316.19 1.33 321.58 1.33 321.58 2.31 319.5 2.31 319.5 8.19 318.44 8.19 318.38 2.31 316.19 2.27 316.19 1.33"/><path class="cls-1" d="M322.46,1.33V8.19h.94v-4s.25-.21.42,0l1.25,4h1.19l1.13-3.81s.42-.46.63.13V8.19h.88V1.33h-1.08L326,5.83s-.46.92-.83-.08l-1.42-4.42Z"/></g></g></svg>