<svg xmlns="http://www.w3.org/2000/svg" viewBox="0 0 518.03 99.17"><defs><style>.cls-1{fill:#1c4054;}</style></defs><title>Asset 4</title><g id="Layer_2" data-name="Layer 2"><g id="Layer_1-2" data-name="Layer 1"><path class="cls-1" d="M65.86,36.71,53.74,50.08s-13.5-16.5-29-2.25c0,0-12.63,14.25,1.88,30.13,0,0,12.75,11,27.88-3.87L66.16,86a37.19,37.19,0,0,1-30.42,13s-17.37,0-27.56-13.37c0,0-16.15-19.37-3.06-42.87,0,0,8.87-15.75,25.75-17.5C30.86,25.33,51.49,20.71,65.86,36.71Z"/><path class="cls-1" d="M93.74,35.58V.08H73.61V97.46H93.74V55s1.19-11.81,12.19-12.19c0,0,12.06-1.06,13,12.62V97.46H139V50.08s.13-17.87-12.5-22.88c0,0-14.87-6.75-27.25,2.88Z"/><path class="cls-1" d="M214.36,45.42c-11.25-26.29-36.83-20.17-36.83-20.17-19.92,2.83-25.83,19.33-25.83,19.33-.75.08-3.67,10.58-3.67,10.58-2.58,12.5,3.67,24.67,3.67,24.67,11.71,21.75,34.67,19.25,34.67,19.25C205.49,98.83,214,85.71,214,85.71l-11.5-9.87c-10,9.75-22.87,6.5-22.87,6.5-10.12-2.12-12-13.42-12-13.42h49.67C219.2,54,214.36,45.42,214.36,45.42ZM167.53,56c2.83-16.83,16.17-15.17,16.17-15.17C196.86,41.67,198.2,56,198.2,56Z"/><path class="cls-1" d="M227.36,26.08h20.08V40.17s6.58-17.25,22.5-15.08V45.75s-15.67-1.5-20.75,13.08c0,0-1.33,3.08-1.92,9.67l.08,29h-20Z"/><polygon class="cls-1" points="277.12 26.08 277.53 26.08 297.7 26.08 309.28 69.25 323.03 25.67 340.12 25.67 353.87 69.25 365.74 26.21 385.62 26.21 363.37 97.83 345.37 97.83 331.53 54.21 317.45 97.83 299.53 97.83 277.12 26.08"/><path class="cls-1" d="M452.57,45.42c-11.25-26.29-36.83-20.17-36.83-20.17-19.92,2.83-25.83,19.33-25.83,19.33-.75.08-3.67,10.58-3.67,10.58-2.58,12.5,3.67,24.67,3.67,24.67,11.71,21.75,34.67,19.25,34.67,19.25,19.13-.25,27.63-13.37,27.63-13.37l-11.5-9.87c-10,9.75-22.87,6.5-22.87,6.5-10.12-2.12-12-13.42-12-13.42h49.67C457.41,54,452.57,45.42,452.57,45.42ZM405.74,56c2.83-16.83,16.17-15.17,16.17-15.17,13.17.83,14.5,15.17,14.5,15.17Z"/><rect class="cls-1" x="463.03" width="20.33" height="97.67"/><rect class="cls-1" x="497.7" width="20.33" height="97.67"/></g></g></svg>