<svg xmlns="http://www.w3.org/2000/svg" viewBox="0 0 2027.28 461.35"><defs><style>.cls-1{fill:#fe0000;}.cls-2{fill:#720000;}</style></defs><title>Asset 1</title><g id="Layer_2" data-name="Layer 2"><g id="Layer_1-2" data-name="Layer 1"><path class="cls-1" d="M227.44,199.67l145.49-147S312.06-2.33,227.44.17c0,0-75.72-6-144,53Z"/><path class="cls-1" d="M227.93,261.42,372.52,407.75s-138.65,120.58-287.6,0Z"/><path class="cls-2" d="M196.26,230.67l-143.18,146s-119.43-137.5,0-292Z"/><path d="M419.61,120.93l-17-36.26s115,129.34,6.3,283.92C408.93,368.59,464.8,268.69,419.61,120.93Z"/><path class="cls-1" d="M259.61,230.17l143-145.5s35.14,52.5,35.14,145.5c0,0-1,102-34.15,146.5Z"/><path d="M439.24,376.67s12.87-16.5,13.49-18.25h53.16s55.59.08,90.56-33.92c0,0,49.82-38.33,29.36-142.33,0,0-12.54-69.67-93-78,0,0-22.19-3.25-81-2.12l-12.5-18.21H515s64.33-2.17,102.93,40.33c0,0,38.93,34.67,33.65,110.67,0,0,.66,57.33-39.59,98.67,0,0-30,38.33-94.36,41.67C517.6,375.17,461.18,375.5,439.24,376.67Z"/><ellipse cx="794.19" cy="99.17" rx="15.51" ry="15.67"/><rect x="784.83" y="166.84" width="19.13" height="209.83"/><path d="M689.4,213.92V166.84H671.34V376.67H689.4V263.42s1.4-60.25,40-79.92c0,0,22.43-8.67,38.93,3.67V166.84s-28.62-13-53.78,8.33c0,0-16.66,10.5-23.92,38.67Z"/><path d="M838.93,166.84H818.15l80.33,209.83h15.84l82.15-209.83H976.67L910.36,342.42s-1.48,7.75-2,12.75l-2.23-.25s.74,0-2.72-12.25Z"/><path d="M1167.69,271.75c8.08-118.42-82.64-108.84-82.64-108.84-87.76,4.08-88.58,106.88-88.58,106.88-2.14,73,43.71,99.38,43.71,99.38,59.05,33,116.46-10.67,116.46-10.67V338.84c-57.73,45-102.27,17-102.27,17-43.22-23.33-38.35-84.08-38.35-84.08Zm-152.42-15.58c3-28.75,18.81-50.25,18.81-50.25,27.71-37.5,72.25-24.5,72.25-24.5,46.52,16.5,43.05,74.75,43.05,74.75Z"/><path d="M1279,84.17h-87.1l.74,291.25,215,.42s-39.09-22.17-50-68.67h-79.18Z"/><path d="M1599.47,230.17c-35.22-74.67-116-68-116-68-88.09,2-105.9,60.5-105.9,60.5-26.72,61,8.41,113,8.41,113,35.63,53.5,109.2,45.17,109.2,45.17C1578.6,380,1598,315.42,1598,315.42,1584,263.67,1599.47,230.17,1599.47,230.17Zm-84.62,68.25c-9.4,25.5-37.36,18.25-37.36,18.25-13.36-2-18.48-17.83-18.48-17.83-9.57-28.83,0-56.5,0-56.5,8-17.58,28-16.92,28-16.92,15.26,0,21.85,8.5,21.85,8.5C1528.2,254.92,1514.84,298.42,1514.84,298.42Z"/><path d="M1785.62,305.34v65.33s-59.71,25-119.1,0c0,0-78.19-30.83-55.67-130,0,0,7.75-55.08,74.85-73.12,0,0,48-15.37,99.92,3.63V239.5s-28.37-24.33-72.42-7.5c0,0-20.95,9.67-20.45,41.42,0,0-.74,35.25,30.43,42.5C1723.18,315.92,1757,323.75,1785.62,305.34Z"/><polygon points="1968.06 262.84 2024.06 167.25 1927.5 167.3 1885.79 265.13 1884.76 265.13 1884.51 269.13 1885.79 269.09 1931.36 376.11 2027.28 376.11 1968.06 262.84"/><polygon points="1798.98 67.17 1798.98 376.11 1884.51 376.11 1884.51 269.13 1884.51 67.17 1798.98 67.17"/></g></g></svg>