<svg xmlns="http://www.w3.org/2000/svg" viewBox="0 0 331.88 116.51"><defs><style>.cls-1{fill:#d92d27;}</style></defs><title>Asset 5</title><g id="Layer_2" data-name="Layer 2"><g id="Layer_1-2" data-name="Layer 1"><rect y="48.9" width="19.25" height="65.88"/><polygon points="28.59 49.21 52.63 114.77 74.04 114.77 97.75 49.21 79.03 49.21 64 93.8 49.13 49.21 28.59 49.21"/><path d="M158.69,104.65l-.09-30.59A38,38,0,0,0,157.21,62c-1.83-7.83-9.17-11-9.17-11-8.62-4.87-20.62-3.67-20.62-3.67-13.92.67-19.54,7.67-19.54,7.67C103,59.9,103.29,68,103.29,68l18.79,0c-.5-5.25,2.83-7.54,2.83-7.54,5.38-4.12,11-.67,11-.67,3.38,1.88,4,6.17,4,6.17a51.61,51.61,0,0,1,.45,6.76l-.23,0a117.69,117.69,0,0,0-19,1.31c-16,3.28-19.75,15.53-19.75,15.53-4.87,15.81,6.38,23.06,6.38,23.06,5.88,4.56,17.19,3.82,17.19,3.82,11.63-1.05,17.13-10.7,17.13-10.7-.12,7.63.81,9,.81,9h17.31C159.31,113.07,158.69,104.65,158.69,104.65Zm-22.44-3.94c-8.56,7.44-15.12,0-15.12,0-4.12-5.94-.81-10.62-.81-10.62,5-8.06,20-6.12,20-6.12C141.5,97.27,136.25,100.71,136.25,100.71Z"/><path d="M170.44,114.83h19.44l-.08-39.44s-.75-13.58,11.5-14.17c0,0,7.67-.5,10.08,5.25,0,0,1.67,2,1.5,7.08v41.27h19.4V70.06s1.25-13.92-10.17-20a26.7,26.7,0,0,0-24.08,0s-6.08,3.25-8.83,8.67l-.58-9.92-18.58,0a34.91,34.91,0,0,1,.43,5.26s.22,7.38.25,7.56S170.44,114.83,170.44,114.83Z"/><path d="M253.54,62.48s.09-.33-.39-.3H241s-.11,0-.11-.08V49.56h12.41s.26,0,.26-.18V37.62l19-5.22V49.54l15.58,0V62.15l-15.45.13h-.15l0,28.88.06,3.92s-.25,5.25,3.83,6.13c0,0,2.75,1.38,11.29.25l0,12.58a59.36,59.36,0,0,1-18.83,1.88s-9.5-.75-13-6.58a17.06,17.06,0,0,1-2.21-6l-.12-2.83Z"/><rect x="300" y="49.05" width="19.25" height="65.88"/><rect class="cls-1" x="299.69" y="19.21" width="12.97" height="12.97"/><rect class="cls-1" x="0.04" y="12.81" width="19.25" height="19.25"/><polygon class="cls-1" points="299.75 0.02 331.85 0 331.88 32.18 319.19 32.18 319.13 12.74 299.75 12.74 299.75 0.02"/></g></g></svg>