<svg xmlns="http://www.w3.org/2000/svg" viewBox="0 0 288.96 69.84"><defs><style>.cls-1{fill:#0179ee;}.cls-2{fill:#0078ef;}.cls-3{fill:none;stroke:#0179ee;stroke-miterlimit:10;stroke-width:0.5px;}</style></defs><title>Asset 6</title><g id="Layer_2" data-name="Layer 2"><g id="Layer_1-2" data-name="Layer 1"><polygon class="cls-1" points="13.58 0.02 13.58 13.59 56.27 13.61 56.25 56.28 69.8 56.24 69.8 0.02 13.58 0.02"/><polygon class="cls-2" points="0 13.6 13.58 13.59 13.58 56.28 56.25 56.28 56.25 69.83 0 69.83 0 13.6"/><polygon class="cls-1" points="92.08 30.09 86.29 30.09 86.29 0.02 92.08 0.02 102.54 15.05 113.04 0.02 118.79 0.02 118.79 30.09 112.63 30.09 112.58 10.76 104.23 22.79 100.56 22.77 92.09 10.52 92.08 30.09"/><rect class="cls-1" x="133.81" y="0.02" width="5.69" height="30.07"/><path class="cls-1" d="M154.63,3.26a3.43,3.43,0,0,1,3-3.24h24.58s2,.62,2,2.24V9.67h-5.75l-.06-3.83H160.47l0,18.53h17.94v-4l5.77,0V28s-.9,2-2.24,2H157.09s-2.39-.23-2.47-2.27Z"/><path class="cls-1" d="M226.31,18a2.83,2.83,0,0,0,2.53-2.13s0-11.31,0-13.41A2.35,2.35,0,0,0,226.91,0H199.34l-.09,30h6.25V18h7.25L221.59,30h7.25l-8.75-12.13Zm-20.75-5.81V5.8H223v6.34Z"/><path class="cls-1" d="M270.94,0H246.75c-2.81,0-2.87,3.47-2.87,3.47V27.24c-.06,2.63,2.94,2.81,2.94,2.81h24.06a2.56,2.56,0,0,0,2.5-2.31V2.92C273.38-.39,270.94,0,270.94,0Zm-3.25,24.16h-17.5V5.74h17.5Z"/><rect class="cls-3" x="278.16" y="0.58" width="10.55" height="10.55" rx="5.16" ry="5.16"/><path class="cls-1" d="M285.63,4.32c0-1.58-1.08-1.87-1.08-1.87h-3.31V9.22h.85l.06-2.87h1.44l1.1,2.88h.94l-1.29-3.12C285.5,6,285.63,4.32,285.63,4.32Zm-3.46,1V2.94h1.94s.71.08.73,1.21c0,0,.08,1.17-.71,1.17Z"/><polygon class="cls-1" points="86.33 39.3 86.33 69.3 92.13 69.3 92.13 57.22 109.58 57.26 109.58 51.51 92.13 51.42 92.08 45.42 115.83 45.59 115.83 39.3 86.33 39.3"/><path class="cls-1" d="M150.69,39.29H126.5c-2.81,0-2.87,3.47-2.87,3.47V66.51c-.06,2.63,2.94,2.81,2.94,2.81h24.06a2.56,2.56,0,0,0,2.5-2.31V42.2C153.13,38.89,150.69,39.29,150.69,39.29Zm-3.25,24.16h-17.5V45h17.5Z"/><path class="cls-1" d="M163.88,42.52a3.43,3.43,0,0,1,3-3.24h24.58s2,.62,2,2.24v7.42h-5.75l-.06-3.83H169.72l0,18.53h17.94v-4l5.77,0v7.63s-.9,2-2.24,2H166.34S164,69.09,163.88,67Z"/><path class="cls-1" d="M209.88,39.28h-5.67V66.59a3.2,3.2,0,0,0,3.5,3.24h22.83s2.83.26,3.08-3.24V39.28h-6.17l0,24.31h-17.5Z"/><path class="cls-1" d="M247,39.28h23.75s3-.11,3.13,3.77v5.63h-6.12l-.19-3.16-17.37,0v5.84h21.09A3.52,3.52,0,0,1,273.88,55V66.52s-.41,3.31-3.31,3.31H247s-3.16-.31-3.16-3.31V60.61h6.3l0,2.92h17.46V57.7l-20.44,0s-3.4-.37-3.34-3.4v-12S244.67,39.28,247,39.28Z"/></g></g></svg>